<?xml version="1.0" encoding="utf-8"?>
<!-- Generator: Adobe Illustrator 22.1.0, SVG Export Plug-In . SVG Version: 6.00 Build 0)  -->
<svg version="1.1" id="Capa_1" xmlns="http://www.w3.org/2000/svg" xmlns:xlink="http://www.w3.org/1999/xlink" x="0px" y="0px"
	 viewBox="0 0 1903 966" style="enable-background:new 0 0 1903 966;" xml:space="preserve">
<style type="text/css">
	.st0{opacity:0.15;}
	.st1{fill:#FFFFFF;}
	.st2{opacity:0.15;fill:#FFFFFF;}
</style>
<g>
	<g class="st0">
		<g>
			<g>
				<path class="st1" d="M816.8,616.3l-0.1,0c-3-0.5-5.9,1.5-6.4,4.5c-0.5,3,1.5,5.9,4.5,6.4l0.1,0c3,0.5,5.9-1.5,6.4-4.5
					C821.8,619.7,819.8,616.8,816.8,616.3z"/>
			</g>
		</g>
		<g>
			<g>
				<path class="st1" d="M928,624.7c5.1-29.5-14.7-57.6-44.2-62.7l-46.4-8c-29.5-5.1-57.6,14.7-62.7,44.2l-16.9,97.5
					c-0.3,1.5-0.5,3-0.6,4.5c-0.2,0.4-0.4,0.9-0.4,1.4c-0.2,1-0.1,1.9,0.2,2.8c-0.2,23.7,15.1,45,37.8,52.2l-3.4,19.9
					c-0.5,3,1.5,5.9,4.5,6.4l3.8,0.7l-7.8,45.2c-0.5,3,1.5,5.9,4.5,6.4l31.4,5.4c3,0.5,5.9-1.5,6.4-4.5l7.8-45.2l3.8,0.7
					c3,0.5,5.9-1.5,6.4-4.5l3.4-19.9c23.8,0.8,45.4-14.1,53.1-36.5c0.6-0.7,1-1.6,1.2-2.5c0.1-0.5,0.1-1,0.1-1.5
					c0.4-1.5,0.7-3,1-4.5L928,624.7L928,624.7z M824.4,828.8l-20.5-3.5l6.9-39.8l20.5,3.5L824.4,828.8z M842.4,779.7L842.4,779.7
					l-3.8-0.7l-31.4-5.4l-3.8-0.7l2.4-14l39.1,6.8L842.4,779.7z M915.3,633.3l-32.9-5.7c-3-0.5-5.9,1.5-6.4,4.5
					c-0.5,3,1.5,5.9,4.5,6.4l32.9,5.7l-1.9,10.9l-32.9-5.7c-3-0.5-5.9,1.5-6.4,4.5c-0.5,3,1.5,5.9,4.5,6.4l32.9,5.7l-1.9,10.9
					l-32.9-5.7c-3-0.5-5.9,1.5-6.4,4.5c-0.5,3,1.5,5.9,4.5,6.4l32.9,5.7l-1.9,10.9l-17.1-3c-3-0.5-5.9,1.5-6.4,4.5
					c-0.5,3,1.5,5.9,4.5,6.4l17.1,3l-1.8,10.5c0,0.2-0.1,0.3-0.1,0.5l-32.9-5.7c-3-0.5-5.9,1.5-6.4,4.5c-0.5,3,1.5,5.9,4.5,6.4
					l31.3,5.4c-7.7,16.3-25.2,26.5-43.7,24.4c-0.2-0.1-0.5-0.1-0.7-0.2l-50.1-8.7c-0.2,0-0.5-0.1-0.7-0.1
					c-18.2-4.3-31.2-19.7-33-37.7l31.3,5.4c3,0.5,5.9-1.5,6.4-4.5c0.5-3-1.5-5.9-4.5-6.4l-32.9-5.7c0-0.2,0-0.3,0.1-0.5l1.8-10.5
					l32.9,5.7c3,0.5,5.9-1.5,6.4-4.5c0.5-3-1.5-5.9-4.5-6.4l-32.9-5.7l1.9-10.9l32.9,5.7c3,0.5,5.9-1.5,6.4-4.5
					c0.5-3-1.5-5.9-4.5-6.4l-32.9-5.7l1.9-10.9l32.9,5.7c3,0.5,5.9-1.5,6.4-4.5c0.5-3-1.5-5.9-4.5-6.4l-32.9-5.7l1.9-10.9l17.1,3
					c3,0.5,5.9-1.5,6.4-4.5c0.5-3-1.5-5.9-4.5-6.4l-17.1-3l1.8-10.5c3.1-18.1,17.2-31.7,34.3-35l-3.3,19.1c-0.5,3,1.5,5.9,4.5,6.4
					c3,0.5,5.9-1.5,6.4-4.5l3.8-21.7c1.4,0.1,2.8,0.3,4.2,0.5l6.8,1.2l-3.8,21.9c-0.5,3,1.5,5.9,4.5,6.4c3,0.5,5.9-1.5,6.4-4.5
					l3.8-21.9l10.9,1.9l-3.8,21.9c-0.5,3,1.5,5.9,4.5,6.4c3,0.5,5.9-1.5,6.4-4.5l3.8-21.9l6.8,1.2c1.4,0.2,2.8,0.6,4.1,0.9
					l-3.8,21.7c-0.5,3,1.5,5.9,4.5,6.4c3,0.5,5.9-1.5,6.4-4.5l3.3-19.1c15,8.9,23.7,26.3,20.6,44.5L915.3,633.3z"/>
			</g>
		</g>
		<g>
			<g>
				<path class="st1" d="M871.2,693.3l-0.1,0c-3-0.5-5.9,1.5-6.4,4.5c-0.5,3,1.5,5.9,4.5,6.4l0.1,0c3,0.5,5.9-1.5,6.4-4.5
					C876.2,696.7,874.2,693.8,871.2,693.3z"/>
			</g>
		</g>
	</g>
	<g class="st0">
		<g>
			<g>
				<path class="st1" d="M614.7,36.4l-0.1,0c-2.8-0.5-5.5,1.3-6.1,4.2c-0.5,2.8,1.3,5.5,4.2,6.1l0.1,0c2.8,0.5,5.5-1.3,6.1-4.2
					C619.4,39.6,617.5,36.9,614.7,36.4z"/>
			</g>
		</g>
		<g>
			<path class="st1" d="M619.1,12.4c2.8,0.5,5.5-1.3,6.1-4.2l1.5-8.3h-10.6L615,6.4C614.4,9.2,616.3,11.9,619.1,12.4z"/>
			<path class="st1" d="M660.1,20c2.8,0.5,5.5-1.3,6.1-4.2L669.1,0h-10.6l-2.6,13.9C655.4,16.8,657.2,19.5,660.1,20z"/>
			<path class="st1" d="M676.4,17.7c-0.5,2.8,1.3,5.5,4.2,6.1c2.8,0.5,5.5-1.3,6.1-4.2l3.3-17.9c13.9,8.5,21.9,25,18.8,42l-1.8,9.8
				l-30.8-5.7c-2.8-0.5-5.5,1.3-6.1,4.2c-0.5,2.8,1.3,5.5,4.2,6.1l30.8,5.7L703.1,74l-30.8-5.7c-2.8-0.5-5.5,1.3-6.1,4.2
				s1.3,5.5,4.2,6.1l30.8,5.7l-1.9,10.2l-30.8-5.7c-2.8-0.5-5.5,1.3-6.1,4.2c-0.5,2.8,1.3,5.5,4.2,6.1l30.8,5.7l-1.9,10.2l-16-3
				c-2.8-0.5-5.5,1.3-6.1,4.2c-0.5,2.8,1.3,5.5,4.2,6.1l16,3l-1.8,9.8c0,0.1-0.1,0.3-0.1,0.4l-30.8-5.7c-2.8-0.5-5.5,1.3-6.1,4.2
				c-0.5,2.8,1.3,5.5,4.2,6.1l29.3,5.4c-7.4,15.2-23.9,24.5-41.3,22.4c-0.2-0.1-0.4-0.1-0.7-0.2l-46.9-8.7c-0.2,0-0.5-0.1-0.7-0.1
				c-17-4.2-29.1-18.8-30.6-35.7l29.3,5.4c2.8,0.5,5.5-1.3,6.1-4.2s-1.3-5.5-4.2-6.1l-30.8-5.7c0-0.1,0-0.3,0.1-0.4l1.8-9.8
				l30.8,5.7c2.8,0.5,5.5-1.3,6.1-4.2c0.5-2.8-1.3-5.5-4.2-6.1l-30.8-5.7l1.9-10.2l30.8,5.7c2.8,0.5,5.5-1.3,6.1-4.2
				c0.5-2.8-1.3-5.5-4.2-6.1l-30.8-5.7l1.9-10.2l30.8,5.7c2.8,0.5,5.5-1.3,6.1-4.2c0.5-2.8-1.3-5.5-4.2-6.1l-30.8-5.7l1.9-10.2l16,3
				c2.8,0.5,5.5-1.3,6.1-4.2c0.5-2.8-1.3-5.5-4.2-6.1l-16-3l1.8-9.8c1.5-8.2,5.4-15.3,10.9-20.9h-13.4c-3.7,5.6-6.4,12-7.7,19
				l-16.9,91.3c-0.3,1.4-0.5,2.8-0.6,4.3c-0.2,0.4-0.3,0.8-0.4,1.3c-0.2,0.9-0.1,1.8,0.2,2.6c-0.5,22.2,13.7,42.4,34.9,49.4
				l-3.5,18.7c-0.5,2.8,1.3,5.5,4.2,6.1l3.6,0.7l-7.9,42.3c-0.5,2.8,1.3,5.5,4.2,6.1l29.4,5.5c2.8,0.5,5.5-1.3,6.1-4.2l7.9-42.3
				l3.6,0.7c2.8,0.5,5.5-1.3,6.1-4.2l3.5-18.7c22.3,1.1,42.8-12.7,50.3-33.6c0.6-0.7,0.9-1.5,1.1-2.4c0.1-0.5,0.1-0.9,0.1-1.4
				c0.4-1.4,0.7-2.8,1-4.2L719,45.6h0c3.2-17.3-2.8-34.1-14.4-45.6h-24.9L676.4,17.7z M619.4,235.9l-19.2-3.6l6.9-37.2l19.2,3.6
				L619.4,235.9z M636.9,190l-3.6-0.7l-29.4-5.5l-3.6-0.7l2.4-13.1l36.6,6.8L636.9,190z"/>
			<path class="st1" d="M639.6,16.2c2.8,0.5,5.5-1.3,6.1-4.2L647.9,0h-10.6l-1.9,10.2C634.9,13,636.8,15.7,639.6,16.2z"/>
		</g>
		<g>
			<g>
				<path class="st1" d="M664.8,109.2l-0.1,0c-2.8-0.5-5.5,1.3-6.1,4.2c-0.5,2.8,1.3,5.5,4.2,6.1l0.1,0c2.8,0.5,5.5-1.3,6.1-4.2
					C669.5,112.5,667.7,109.8,664.8,109.2z"/>
			</g>
		</g>
	</g>
	<g class="st0">
		<path class="st1" d="M36,708.4l-36-6.7v36.5c0.4-0.6,0.7-1.3,0.8-2l4.1-22.1l11.1,2l-4.1,22.1c-0.6,3.1,1.4,6,4.5,6.5
			c3.1,0.6,6-1.4,6.5-4.5l4.1-22.1l6.9,1.3c1.4,0.3,2.8,0.6,4.1,1L34,742.4c-0.6,3.1,1.4,6,4.5,6.5c3.1,0.6,6-1.4,6.5-4.5l3.6-19.3
			c15,9.2,23.7,27,20.3,45.3l-2,10.6l-33.3-6.2c-3.1-0.6-6,1.4-6.5,4.5c-0.6,3.1,1.4,6,4.5,6.5l33.3,6.2l-2,11l-33.3-6.2
			c-3.1-0.6-6,1.4-6.5,4.5c-0.6,3.1,1.4,6,4.5,6.5l33.3,6.2l-2,11L25.5,819c-3.1-0.6-6,1.4-6.5,4.5c-0.6,3.1,1.4,6,4.5,6.5l33.3,6.2
			l-2,11.1l-17.2-3.2c-3.1-0.6-6,1.4-6.5,4.5c-0.6,3.1,1.4,6,4.5,6.5l17.2,3.2l-2,10.6c0,0.2-0.1,0.3-0.1,0.5l-33.2-6.2
			c-3.1-0.6-6,1.4-6.5,4.5c-0.6,3.1,1.4,6,4.5,6.5l31.7,5.9c-8,16.4-25.8,26.5-44.6,24.2c-0.2-0.1-0.5-0.1-0.7-0.2L0,903.8v34.9
			c0.7-0.8,1.2-1.7,1.4-2.8l3.7-20.1c24,1.1,46.1-13.7,54.2-36.3c0.6-0.7,1-1.6,1.2-2.6c0.1-0.5,0.1-1,0.1-1.5c0.4-1.5,0.8-3,1-4.5
			l18.3-98.5C85.5,742.7,65.7,714,36,708.4z"/>
		<g>
			<g>
				<path class="st1" d="M21.5,841.1l-0.1,0c-3.1-0.6-6,1.4-6.5,4.5c-0.6,3.1,1.4,6,4.5,6.5l0.1,0c3.1,0.6,6-1.4,6.5-4.5
					C26.6,844.6,24.6,841.7,21.5,841.1z"/>
			</g>
		</g>
	</g>
	<g class="st0">
		<path class="st1" d="M1903,217.3c-1.4,0.7-2.5,2-2.9,3.6c-0.7,2.6,0.6,5.2,2.9,6.4V217.3z"/>
		<path class="st1" d="M1880.9,347c-17.9-5.8-29.7-22.4-30.1-40.6l31.1,8c3,0.8,6-1,6.8-4s-1-6-4-6.8l-32.6-8.4
			c0-0.2,0.1-0.3,0.1-0.5l2.7-10.4l32.6,8.4c3,0.8,6-1,6.8-4c0.8-3-1-6-4-6.8l-32.6-8.4l2.8-10.8l32.6,8.4c3,0.8,6-1,6.8-4
			c0.8-3-1-6-4-6.8l-32.6-8.4l2.8-10.8l32.6,8.4c1.5,0.4,3.1,0.1,4.3-0.7v-9.5c-0.5-0.3-1-0.5-1.5-0.7l-32.6-8.4l2.8-10.8l16.9,4.4
			c3,0.8,6-1,6.8-4c0.8-3-1-6-4-6.8l-16.9-4.4l2.7-10.4c3.6-13.9,13.5-24.4,25.9-29.4v-11.9c-17.5,5.5-31.8,19.5-36.7,38.5l-25,96.6
			c-0.4,1.5-0.7,3-1,4.5c-0.2,0.4-0.4,0.9-0.6,1.4c-0.2,1-0.2,1.9,0,2.8c-2.2,23.8,11.5,46.5,33.7,55.6l-5.1,19.7c-0.8,3,1,6,4,6.8
			l3.8,1l-11.6,44.8c-0.8,3,1,6,4,6.8l31.2,8.1c1.1,0.3,2.2,0.2,3.2-0.1v-34.7l-5.8,22.6l-20.3-5.3l10.2-39.4l16,4.1v-11.6
			l-18.6-4.8l-3.8-1l3.6-13.8l18.8,4.9v-11.7l-21.4-5.5C1881.4,347,1881.1,347,1880.9,347z"/>
	</g>
	<g class="st0">
		<g>
			<g>
				<path class="st1" d="M1674.6,193.9l35.5-82.6c4.7-10.9-0.4-23.6-11.3-28.3c-10.9-4.7-23.6,0.4-28.3,11.3l-21,48.7
					c-2.2-2.9-5.1-5.2-8.6-6.7c-5.9-2.5-12.2-2.2-17.6,0.3c-1.9-5.6-6-10.4-11.9-12.9c-3.5-1.5-7.2-2-10.8-1.6l11.3-26.3
					c4.7-10.9-0.4-23.6-11.3-28.3c-10.9-4.7-23.6,0.4-28.3,11.3l-26.1,60.7l-21.3,49.6c-8.2,19.1-7.7,40.5,0.6,58.9l-21.6,50.1
					c-1.2,2.8,0.1,6,2.9,7.2l70.3,30.2c2.8,1.2,6-0.1,7.2-2.9l18.1-42.2c25.3-3.6,47-20,57.1-43.5l15.2-35.4
					C1677.4,205.7,1677.1,199.3,1674.6,193.9z M1680.6,98.7c2.3-5.4,8.5-7.8,13.9-5.5c5.4,2.3,7.8,8.5,5.5,13.9l-33.5,77.9
					c-0.9-0.6-1.9-1.1-3-1.6l-16.3-7L1680.6,98.7L1680.6,98.7z M1622.8,151.9C1622.8,151.9,1622.8,151.9,1622.8,151.9
					C1622.8,151.9,1622.8,151.9,1622.8,151.9c2.3-5.4,8.5-7.9,13.9-5.6c5.4,2.3,7.8,8.5,5.5,13.9l-5,11.7l-9.7-4.2
					c-3.5-1.5-7.2-2-10.8-1.6L1622.8,151.9L1622.8,151.9z M1584.9,158.9l8.5-19.6c2.3-5.4,8.5-7.8,13.9-5.5
					c5.3,2.3,7.8,8.5,5.5,13.9c0,0,0,0,0,0l-13.5,31.5c0,0,0,0,0,0l-6.5,15c-2.3,5.4-8.5,7.8-13.9,5.5c-5.4-2.3-7.8-8.5-5.5-13.9
					L1584.9,158.9z M1649.6,242.6c-9,20.9-28.6,35.2-51.3,37.4c0,0,0,0,0,0c0,0,0,0,0,0c0,0,0,0,0,0c-0.2,0-0.4,0-0.5,0.1
					c-0.1,0-0.2,0-0.2,0.1c-0.1,0-0.2,0-0.3,0.1c-0.1,0-0.2,0.1-0.3,0.1c-0.1,0-0.1,0-0.2,0.1c-0.1,0-0.2,0.1-0.3,0.1
					c-0.1,0-0.1,0.1-0.2,0.1c-0.1,0-0.2,0.1-0.3,0.2c-0.1,0-0.1,0.1-0.2,0.1c-0.1,0-0.1,0.1-0.2,0.2c-0.1,0.1-0.1,0.1-0.2,0.2
					c-0.1,0-0.1,0.1-0.2,0.1c-0.1,0.1-0.2,0.1-0.2,0.2c0,0-0.1,0.1-0.1,0.1c-0.1,0.1-0.2,0.2-0.2,0.3c0,0.1-0.1,0.1-0.1,0.2
					c-0.1,0.1-0.1,0.2-0.2,0.3c-0.1,0.1-0.1,0.2-0.1,0.2c0,0.1-0.1,0.1-0.1,0.2c-0.1,0.1-0.2,0.3-0.2,0.4c0,0,0,0,0,0l0,0
					c0,0,0,0,0,0l-17.2,40l-60.2-25.9l3.8-8.8l20.6,8.9c2.8,1.2,6-0.1,7.2-2.9c1.2-2.8-0.1-6-2.9-7.2l-20.6-8.9l8-18.6
					c2.8,4.1,6.1,7.9,9.8,11.4c0.5,0.5,1,0.8,1.6,1c2,0.9,4.5,0.4,6.1-1.3c2.1-2.2,2-5.7-0.2-7.7c-19-18-24.9-46.1-14.6-70
					l21.3-49.6l26.1-60.7c2.3-5.4,8.5-7.8,13.9-5.5c5.4,2.3,7.8,8.5,5.5,13.9l-18.7,43.5l-8.5,19.6l-11.6,26.9
					c-4.6,10.6,0.1,22.9,10.5,27.9c-1.4,0.9-2.7,1.9-4,3c-2.3,1.9-2.7,5.4-0.8,7.7c0.6,0.7,1.3,1.2,2.1,1.6c1.8,0.8,4,0.5,5.6-0.8
					c13.9-11.3,32.7-14,49.1-6.9l6.1,2.6c2.8,1.2,6-0.1,7.2-2.9c1.2-2.8-0.1-6-2.9-7.2l-21.4-9.2c-5.3-2.3-7.8-8.5-5.5-13.9l0,0
					c0,0,0,0,0,0c2.3-5.3,8.5-7.8,13.9-5.5l36.1,15.5c1.9,0.8,3.5,2.2,4.6,3.8c0,0.1,0.1,0.2,0.2,0.2c1.8,2.9,2.2,6.5,0.8,9.8
					L1649.6,242.6z"/>
			</g>
		</g>
		<g>
			<g>
				<path class="st1" d="M1565.8,223.5c-2.5-1.7-5.9-1.1-7.6,1.4l-0.1,0.1c-1.7,2.5-1,5.9,1.5,7.6c0.3,0.2,0.6,0.4,0.9,0.5
					c2.4,1,5.2,0.2,6.7-2c0,0,0,0,0,0C1569,228.6,1568.3,225.2,1565.8,223.5z"/>
			</g>
		</g>
		<g>
			<g>
				<path class="st1" d="M1559.6,293.6l-0.1-0.1c-2.8-1.2-6,0.1-7.2,2.9c-1.2,2.8,0.1,6,2.9,7.2l0.1,0.1c2.8,1.2,6-0.1,7.2-2.9
					C1563.7,298,1562.4,294.8,1559.6,293.6z"/>
			</g>
		</g>
	</g>
	<g class="st0">
		<g>
			<g>
				<path class="st1" d="M1814.2,598.1l-36.7-78c-4.8-10.3-17.2-14.7-27.4-9.9c-10.3,4.8-14.7,17.2-9.9,27.4l21.7,46
					c-3.4-0.3-7,0.3-10.3,1.9c-5.5,2.6-9.4,7.4-11,12.8c-5.2-2.2-11.3-2.3-16.9,0.3c-3.3,1.6-6,3.9-8,6.7l-11.7-24.8
					c-4.8-10.3-17.2-14.7-27.4-9.9c-10.3,4.8-14.7,17.2-9.9,27.4l27,57.3l22.1,46.9c8.5,18.1,24.2,31.3,42.7,37.1l22.3,47.3
					c1.2,2.6,4.4,3.7,7,2.5l66.4-31.2c2.6-1.2,3.7-4.4,2.5-7l-18.7-39.8c13.5-20.4,15.5-46.4,5-68.7l-15.7-33.4
					C1824.4,603.6,1819.6,599.7,1814.2,598.1z M1749.6,533.2c-2.4-5.1-0.2-11.1,4.9-13.5s11.1-0.2,13.5,4.9l34.6,73.5
					c-1,0.3-2,0.7-3,1.1l-15.4,7.3L1749.6,533.2L1749.6,533.2z M1751.1,608.6C1751.1,608.6,1751.1,608.6,1751.1,608.6
					C1751.1,608.6,1751.1,608.5,1751.1,608.6c-2.4-5.1-0.2-11.1,4.8-13.5c5.1-2.4,11.1-0.2,13.5,4.9l5.2,11.1l-9.2,4.3
					c-3.3,1.6-6,3.9-8,6.7L1751.1,608.6L1751.1,608.6z M1732,640.2l-8.7-18.6c-2.4-5.1-0.2-11.1,4.9-13.5c5.1-2.4,11.1-0.2,13.5,4.8
					c0,0,0,0,0,0l14,29.7c0,0,0,0,0,0l6.7,14.2c2.4,5.1,0.2,11.1-4.9,13.5c-5.1,2.4-11.1,0.2-13.5-4.9L1732,640.2z M1833.2,647
					c9.3,19.7,7,42.9-5.8,60.6c0,0,0,0,0,0c0,0,0,0,0,0c0,0,0,0,0,0c-0.1,0.1-0.2,0.3-0.3,0.4c0,0.1-0.1,0.1-0.1,0.2
					c0,0.1-0.1,0.2-0.1,0.2c0,0.1-0.1,0.2-0.1,0.3c0,0.1-0.1,0.1-0.1,0.2c0,0.1-0.1,0.2-0.1,0.3c0,0.1,0,0.1-0.1,0.2
					c0,0.1,0,0.2-0.1,0.3c0,0.1,0,0.1,0,0.2c0,0.1,0,0.2,0,0.3c0,0.1,0,0.2,0,0.3c0,0.1,0,0.1,0,0.2c0,0.1,0,0.2,0,0.3
					c0,0.1,0,0.1,0,0.2c0,0.1,0,0.2,0,0.3c0,0.1,0,0.1,0,0.2c0,0.1,0,0.2,0.1,0.3c0,0.1,0,0.2,0.1,0.3c0,0.1,0,0.2,0.1,0.2
					c0.1,0.1,0.1,0.3,0.2,0.4c0,0,0,0,0,0l0,0c0,0,0,0,0,0l17.8,37.8l-56.9,26.8l-3.9-8.3l19.5-9.2c2.6-1.2,3.7-4.4,2.5-7
					c-1.2-2.6-4.4-3.7-7-2.5l-19.5,9.2l-8.3-17.5c4.7,0.6,9.6,0.6,14.4,0.2c0.6-0.1,1.2-0.2,1.8-0.5c1.9-0.9,3.2-3,3-5.2
					c-0.3-2.9-2.8-5-5.7-4.8c-25,2.2-48.9-11.4-59.5-34l-22.1-46.9l-27-57.3c-2.4-5.1-0.2-11.1,4.9-13.5c5.1-2.4,11.1-0.2,13.5,4.9
					l19.3,41l8.7,18.6l11.9,25.4c4.7,10,16.5,14.5,26.7,10.2c-0.2,1.6-0.3,3.2-0.4,4.8c-0.1,2.9,2.1,5.3,5,5.4
					c0.9,0,1.7-0.1,2.4-0.5c1.7-0.8,2.9-2.5,3-4.5c0.7-17.1,10.8-32.3,26.3-39.6l5.7-2.7c2.6-1.2,3.7-4.4,2.5-7
					c-1.2-2.6-4.4-3.7-7-2.5l-20.2,9.5c-5.1,2.4-11.1,0.2-13.5-4.8l0,0c0,0,0,0,0,0c-2.4-5.1-0.2-11.1,4.9-13.5l34.1-16
					c1.8-0.9,3.8-1.1,5.6-0.9c0.1,0,0.2,0,0.3,0c3.2,0.5,6.1,2.5,7.6,5.7L1833.2,647z"/>
			</g>
		</g>
		<g>
			<g>
				<path class="st1" d="M1766.3,695c-2.8,0.7-4.5,3.5-3.8,6.4l0,0.1c0.7,2.8,3.6,4.5,6.4,3.8c0.3-0.1,0.6-0.2,0.9-0.3
					c2.2-1.1,3.5-3.6,2.8-6c0,0,0,0,0-0.1C1771.9,696,1769.1,694.3,1766.3,695z"/>
			</g>
		</g>
		<g>
			<g>
				<path class="st1" d="M1812.6,744.1l-0.1,0.1c-2.6,1.2-3.7,4.4-2.5,7c1.2,2.6,4.4,3.7,7,2.5l0.1-0.1c2.6-1.2,3.7-4.4,2.5-7
					C1818.4,744,1815.3,742.8,1812.6,744.1z"/>
			</g>
		</g>
	</g>
	<g class="st0">
		<g>
			<g>
				<path class="st1" d="M287.2,643.1l-17-76.3c-2.2-10.1-12.3-16.4-22.3-14.2c-10.1,2.2-16.4,12.3-14.2,22.3l10,45
					c-3-0.9-6.2-1.1-9.5-0.4c-5.4,1.2-9.7,4.7-12.3,9.1c-4.2-3-9.6-4.3-15-3.1c-3.3,0.7-6.1,2.3-8.4,4.4l-5.4-24.3
					c-2.2-10.1-12.3-16.4-22.3-14.2c-10.1,2.2-16.4,12.3-14.2,22.3l12.5,56l10.2,45.8c3.9,17.7,15.2,32.5,30.4,41.2l10.3,46.3
					c0.6,2.6,3.1,4.2,5.7,3.6l64.9-14.5c2.6-0.6,4.2-3.1,3.6-5.7l-8.7-39c16-15.4,22.9-38,18.1-59.7l-7.3-32.7
					C295.1,650,291.7,645.6,287.2,643.1z M243,572.9c-1.1-4.9,2-9.9,7-11c4.9-1.1,9.9,2,11,7l16,71.9c-1,0.1-1.9,0.2-2.9,0.4
					l-15.1,3.4L243,572.9L243,572.9z M229.3,639.8C229.3,639.8,229.3,639.8,229.3,639.8C229.3,639.8,229.3,639.8,229.3,639.8
					c-1.1-5,2-9.9,7-11c4.9-1.1,9.9,2,11,7l2.4,10.8l-9,2c-3.3,0.7-6.1,2.3-8.4,4.4L229.3,639.8L229.3,639.8z M206.1,664l-4-18.2
					c-1.1-4.9,2-9.9,7-11c4.9-1.1,9.9,2,11,7c0,0,0,0,0,0l6.5,29.1c0,0,0,0,0,0l3.1,13.9c1.1,4.9-2,9.9-7,11c-4.9,1.1-9.9-2-11-7
					L206.1,664z M294.4,690.1c4.3,19.3-2.3,39.4-17.2,52.4c0,0,0,0,0,0c0,0,0,0,0,0c0,0,0,0,0,0c-0.1,0.1-0.2,0.2-0.3,0.3
					c0,0-0.1,0.1-0.1,0.2c-0.1,0.1-0.1,0.1-0.2,0.2c-0.1,0.1-0.1,0.1-0.2,0.2c0,0.1-0.1,0.1-0.1,0.2c-0.1,0.1-0.1,0.2-0.1,0.2
					c0,0.1-0.1,0.1-0.1,0.2c0,0.1-0.1,0.2-0.1,0.2c0,0.1-0.1,0.1-0.1,0.2c0,0.1,0,0.1-0.1,0.2c0,0.1-0.1,0.2-0.1,0.2
					c0,0.1,0,0.1,0,0.2c0,0.1,0,0.2-0.1,0.3c0,0.1,0,0.1,0,0.2c0,0.1,0,0.2,0,0.3c0,0.1,0,0.1,0,0.2c0,0.1,0,0.2,0,0.3
					c0,0.1,0,0.2,0,0.2c0,0.1,0,0.1,0,0.2c0,0.1,0,0.3,0.1,0.4c0,0,0,0,0,0l0,0c0,0,0,0,0,0l8.2,37l-55.6,12.4l-1.8-8.2l19-4.2
					c2.6-0.6,4.2-3.1,3.6-5.7c-0.6-2.6-3.1-4.2-5.7-3.6l-19,4.2l-3.8-17.2c4.1,1.4,8.3,2.5,12.7,3c0.6,0.1,1.1,0,1.7-0.1
					c1.9-0.4,3.4-2,3.7-4c0.3-2.6-1.5-5-4.1-5.3c-22.5-3-41-19.8-45.9-41.9l-10.2-45.8l-12.5-56c-1.1-4.9,2-9.9,7-11
					c4.9-1.1,9.9,2,11,7l8.9,40.1l4,18.2l5.5,24.8c2.2,9.8,11.8,16.1,21.6,14.3c-0.5,1.4-0.9,2.7-1.3,4.1c-0.7,2.5,0.8,5.1,3.4,5.8
					c0.8,0.2,1.5,0.2,2.3,0c1.7-0.4,3.1-1.6,3.6-3.4c4-15,15.9-26.5,31.1-29.9l5.6-1.3c2.6-0.6,4.2-3.1,3.6-5.7
					c-0.6-2.6-3.1-4.2-5.7-3.6l-19.7,4.4c-4.9,1.1-9.9-2-11-7l0,0c0,0,0,0,0,0c-1.1-4.9,2-9.9,7-11l33.4-7.4
					c1.8-0.4,3.6-0.2,5.2,0.4c0.1,0,0.2,0.1,0.2,0.1c2.7,1.1,4.9,3.5,5.6,6.5L294.4,690.1z"/>
			</g>
		</g>
		<g>
			<g>
				<path class="st1" d="M225.6,719.3c-2.6,0.1-4.7,2.2-4.6,4.9l0,0.1c0.1,2.6,2.3,4.7,4.9,4.6c0.3,0,0.6,0,0.9-0.1
					c2.2-0.5,3.8-2.5,3.7-4.8c0,0,0,0,0-0.1C230.4,721.3,228.2,719.3,225.6,719.3z"/>
			</g>
		</g>
		<g>
			<g>
				<path class="st1" d="M256.9,771.9l-0.1,0c-2.6,0.6-4.2,3.1-3.6,5.7c0.6,2.6,3.1,4.2,5.7,3.6l0.1,0c2.6-0.6,4.2-3.1,3.6-5.7
					S259.4,771.4,256.9,771.9z"/>
			</g>
		</g>
	</g>
	<g class="st0">
		<path class="st1" d="M76,52.7c-1,0.1-1.9,0.2-2.9,0.4L58,56.5L45.4,0h-9.7l7.1,31.9c-3-0.9-6.2-1.1-9.5-0.4
			c-5.4,1.2-9.7,4.7-12.3,9.1c-4.2-3-9.6-4.3-15-3.1c-2.2,0.5-4.3,1.4-6.1,2.6v56.2l1.5,6.5c2.2,9.8,11.8,16.1,21.6,14.3
			c-0.5,1.4-0.9,2.7-1.3,4.1c-0.7,2.5,0.8,5.1,3.4,5.8c0.8,0.2,1.5,0.2,2.3,0c1.7-0.4,3.1-1.6,3.6-3.4c4-15,15.9-26.5,31.1-29.9
			l5.6-1.3c2.6-0.6,4.2-3.1,3.6-5.7s-3.1-4.2-5.7-3.6l-19.7,4.4c-4.9,1.1-9.9-2-11-7l0,0c0,0,0,0,0,0c-1.1-4.9,2-9.9,7-11l33.4-7.4
			c1.8-0.4,3.6-0.2,5.2,0.4c0.1,0,0.2,0.1,0.2,0.1c2.7,1.1,4.9,3.5,5.6,6.5l7.3,32.7c4.3,19.3-2.3,39.4-17.2,52.4c0,0,0,0,0,0
			c0,0,0,0,0,0c0,0,0,0,0,0c-0.1,0.1-0.2,0.2-0.3,0.3c0,0-0.1,0.1-0.1,0.2c-0.1,0.1-0.1,0.1-0.2,0.2c-0.1,0.1-0.1,0.1-0.2,0.2
			c0,0.1-0.1,0.1-0.1,0.2c-0.1,0.1-0.1,0.2-0.1,0.2c0,0.1-0.1,0.1-0.1,0.2c0,0.1-0.1,0.2-0.1,0.2c0,0.1-0.1,0.1-0.1,0.2
			c0,0.1,0,0.1-0.1,0.2c0,0.1-0.1,0.2-0.1,0.2c0,0.1,0,0.1,0,0.2c0,0.1,0,0.2-0.1,0.3c0,0.1,0,0.1,0,0.2c0,0.1,0,0.2,0,0.3
			c0,0.1,0,0.1,0,0.2c0,0.1,0,0.2,0,0.3c0,0.1,0,0.2,0,0.2c0,0.1,0,0.1,0,0.2c0,0.1,0,0.3,0.1,0.4c0,0,0,0,0,0l0,0c0,0,0,0,0,0
			l8.2,37l-55.6,12.4l-1.8-8.2l19-4.2c2.6-0.6,4.2-3.1,3.6-5.7c-0.6-2.6-3.1-4.2-5.7-3.6l-19,4.2l-3.8-17.2c4.1,1.4,8.3,2.5,12.7,3
			c0.6,0.1,1.1,0,1.7-0.1c1.9-0.4,3.4-2,3.7-4c0.3-2.6-1.5-5-4.1-5.3c-13.3-1.8-25.1-8.3-33.6-17.9v13.2c2.8,2.3,5.7,4.3,8.8,6.1
			l10.3,46.3c0.6,2.6,3.1,4.2,5.7,3.6l64.9-14.5c2.6-0.6,4.2-3.1,3.6-5.7l-8.7-39c16-15.4,22.9-38,18.1-59.7l-7.3-32.7
			c-1.2-5.4-4.7-9.8-9.2-12.3L74,0h-9.7L76,52.7z M21.7,107.8c-4.9,1.1-9.9-2-11-7L5.2,76l-4-18.2c-1.1-4.9,2-9.9,7-11
			c4.9-1.1,9.9,2,11,7c0,0,0,0,0,0l6.5,29.1c0,0,0,0,0,0l3.1,13.9C29.8,101.7,26.6,106.6,21.7,107.8z M39.8,60.6
			c-3.3,0.7-6.1,2.3-8.4,4.4l-2.9-13.2c0,0,0,0,0,0c0,0,0,0,0,0c-1.1-4.9,2-9.9,7-11c4.9-1.1,9.9,2,11,7l2.4,10.8L39.8,60.6z"/>
		<g>
			<g>
				<path class="st1" d="M24.7,131.2c-2.6,0.1-4.7,2.2-4.6,4.9l0,0.1c0.1,2.6,2.3,4.7,4.9,4.6c0.3,0,0.6,0,0.9-0.1
					c2.2-0.5,3.8-2.5,3.7-4.8c0,0,0,0,0-0.1C29.5,133.3,27.3,131.2,24.7,131.2z"/>
			</g>
		</g>
		<g>
			<g>
				<path class="st1" d="M56,183.9l-0.1,0c-2.6,0.6-4.2,3.1-3.6,5.7c0.6,2.6,3.1,4.2,5.7,3.6l0.1,0c2.6-0.6,4.2-3.1,3.6-5.7
					C61.1,184.9,58.5,183.3,56,183.9z"/>
			</g>
		</g>
	</g>
	<g class="st0">
		<g>
			<g>
				<path class="st1" d="M1389.6,183l-113.7-16.4l11.7-81.2c0.8-0.4,1.5-0.9,2.2-1.4c0,0,0,0,0,0c4.1-3,6.8-7.4,7.5-12.4
					c0.6-4,0.7-11.1-1.3-18c-2.3-8.2-6.9-13.2-12.9-14.2c-3.5-0.5-7.1,0.4-10.3,2.8c-7.2,5.3-11.9,16.9-13,23.5
					c-0.9,5.9,1,11.9,5.1,16.1l-13.6,81.2l-81.5-11.7c-2.8-5.2-7.9-8.9-13.8-9.8c-6.6-1-19.1-0.1-26.4,5.2c-3.2,2.4-5.2,5.5-5.8,9
					c-2,13.1,16.4,21.7,26.3,23.3c5,0.8,10-0.4,14.1-3.4c0.7-0.5,1.4-1.1,2-1.7l80.9,13.6l-19,113.2c-0.6,3.8,1.2,7.3,4.9,9.6
					c5.2,3.2,14.1,4.1,19.2,0.4c1.9-1.4,3.1-3.4,3.5-5.7l16.3-113.4l113,19c2.3,0.4,4.5-0.2,6.4-1.6c5.1-3.7,7-12.5,5.5-18.4
					C1396.1,186.3,1393.4,183.5,1389.6,183z M1165.7,165.6c-1.1-0.2-2.2,0.1-3,0.7c-0.3,0.2-0.5,0.5-0.8,0.7c-0.6,0.8-1.3,1.5-2.1,2
					c-2.4,1.7-5.3,2.4-8.1,2c-7.5-1.2-20.6-7.8-19.6-14.1c0.2-1.4,1.1-2.6,2.6-3.7c5.1-3.7,15.1-4.6,20.4-3.7c3.9,0.6,7.2,3.3,8.6,7
					c0.5,1.4,1.7,2.3,3.2,2.5l83.4,12l-0.7,4.2l-0.7,4.4L1165.7,165.6z M1265.4,183.6l-0.4,2.8c0,0,0,0,0,0l-16.9,117.4
					c0,0.1,0,0.2-0.3,0.3c-1.8,1.3-7.2,1.2-10.3-0.7c-0.4-0.3-1.3-0.9-1.3-1.5l21.1-125.6l1.4-8.2c0,0,0,0,0,0l14.6-87.2
					c0.2-1.4-0.3-2.9-1.5-3.8c-3.1-2.4-4.6-6.4-4-10.3c0.8-5.3,4.7-14.6,9.8-18.3c1.5-1.1,3-1.6,4.4-1.3c3.6,0.6,5.6,5.5,6.4,8.5
					c1.5,5.2,1.6,11.2,1.1,14.6c-0.5,2.9-2,5.4-4.4,7.2l0,0c-0.8,0.6-1.7,1.1-2.6,1.4c-1.4,0.5-2.3,1.7-2.5,3.2L1265.4,183.6z
					 M1389.4,192.5c0.9,3.5-0.7,8.7-2.5,10c-0.2,0.2-0.3,0.2-0.4,0.2l-113.1-19l0.1-1l1.2-8.2l113.7,16.4
					C1389,191,1389.3,192,1389.4,192.5z"/>
			</g>
		</g>
		<g>
			<g>
				<path class="st1" d="M1205.5,139.1l-20.2-2.9c-2.2-0.3-4.2,1.2-4.5,3.4c-0.3,2.2,1.2,4.2,3.4,4.5l20.2,2.9
					c1.1,0.2,2.1-0.1,2.9-0.7c0.8-0.6,1.4-1.5,1.6-2.7C1209.2,141.4,1207.7,139.4,1205.5,139.1z"/>
			</g>
		</g>
		<g>
			<g>
				<path class="st1" d="M1216.9,140.8L1216.9,140.8c-2.3-0.3-4.3,1.2-4.6,3.4c-0.3,2.2,1.2,4.2,3.4,4.5l0.1,0
					c1.1,0.2,2.1-0.1,2.9-0.7c0.8-0.6,1.4-1.6,1.6-2.7C1220.6,143.1,1219.1,141.1,1216.9,140.8z"/>
			</g>
		</g>
		<g>
			<g>
				<path class="st1" d="M1298.7,115.8c-2.2-0.4-4.2,1.1-4.6,3.3l0,0.1c-0.4,2.2,1.1,4.2,3.3,4.6c1.1,0.2,2.2-0.1,3-0.7
					c0.8-0.6,1.4-1.5,1.6-2.5l0-0.1C1302.3,118.2,1300.9,116.2,1298.7,115.8z"/>
			</g>
		</g>
		<g>
			<g>
				<path class="st1" d="M1296.8,127.2c-2.2-0.4-4.2,1.1-4.6,3.3l-3.4,20.1c-0.4,2.2,1.1,4.2,3.3,4.6c1.1,0.2,2.2-0.1,3-0.7
					c0.8-0.6,1.4-1.5,1.6-2.6l3.4-20.1C1300.4,129.6,1298.9,127.6,1296.8,127.2z"/>
			</g>
		</g>
	</g>
	<path class="st2" d="M74.6,480.9L0,470.2v8.1l73.5,10.6c0.6,0.1,0.9,1.2,1,1.6c0.9,3.5-0.7,8.7-2.5,10c-0.2,0.2-0.3,0.2-0.4,0.2
		L0,488.6v8.1l70.3,11.8c2.3,0.4,4.5-0.2,6.4-1.6c5.1-3.7,7-12.5,5.5-18.4C81.2,484.3,78.4,481.5,74.6,480.9z"/>
	<g class="st0">
		<g>
			<g>
				<path class="st1" d="M1601.1,810.5l-119-16.6l11.8-85c0.8-0.4,1.6-0.9,2.3-1.5c0,0,0,0,0,0c4.3-3.1,7-7.8,7.8-13
					c0.6-4.2,0.6-11.6-1.5-18.8c-2.5-8.6-7.3-13.8-13.5-14.8c-3.7-0.6-7.4,0.5-10.8,3c-7.5,5.6-12.4,17.8-13.5,24.7
					c-0.9,6.2,1.1,12.4,5.4,16.8l-13.9,85l-85.3-11.9c-2.9-5.4-8.3-9.2-14.5-10.2c-6.9-1-20,0-27.5,5.6c-3.4,2.5-5.5,5.8-6,9.4
					c-2.1,13.7,17.3,22.7,27.6,24.2c5.2,0.8,10.5-0.5,14.7-3.6c0.7-0.6,1.5-1.2,2.1-1.8l84.7,13.8l-19.3,118.6
					c-0.6,3.9,1.3,7.6,5.2,10c5.4,3.3,14.8,4.2,20.1,0.3c2-1.5,3.3-3.5,3.6-5.9l16.5-118.7l118.3,19.3c2.4,0.4,4.7-0.2,6.7-1.7
					c5.3-3.9,7.2-13.1,5.7-19.3C1608,813.9,1605.1,811,1601.1,810.5z M1366.8,793.4c-1.1-0.2-2.3,0.1-3.2,0.8
					c-0.3,0.2-0.6,0.5-0.8,0.8c-0.6,0.8-1.4,1.5-2.2,2.1c-2.5,1.8-5.5,2.6-8.5,2.1c-7.8-1.2-21.6-8-20.6-14.7
					c0.2-1.5,1.1-2.8,2.7-3.9c5.3-3.9,15.8-4.9,21.3-4c4.1,0.6,7.5,3.4,9,7.2c0.5,1.4,1.8,2.4,3.3,2.6l87.4,12.2l-0.7,4.4l-0.7,4.6
					L1366.8,793.4z M1471.2,811.7l-0.4,3c0,0,0,0,0,0l-17.1,122.9c0,0.1,0,0.2-0.3,0.4c-1.9,1.4-7.5,1.3-10.7-0.7
					c-0.4-0.3-1.4-0.9-1.3-1.5l21.4-131.5l1.4-8.6c0,0,0,0,0,0l14.9-91.3c0.2-1.5-0.3-3-1.5-4c-3.2-2.5-4.9-6.7-4.3-10.7
					c0.8-5.5,4.8-15.3,10.1-19.2c1.6-1.2,3.1-1.6,4.6-1.4c3.8,0.6,5.9,5.8,6.7,8.8c1.6,5.5,1.7,11.7,1.2,15.2
					c-0.5,3-2.1,5.7-4.5,7.5l0,0c-0.8,0.6-1.7,1.1-2.7,1.5c-1.4,0.5-2.4,1.8-2.6,3.3L1471.2,811.7z M1601.1,820.5
					c0.9,3.7-0.7,9.1-2.5,10.5c-0.3,0.2-0.3,0.2-0.4,0.2l-118.5-19.3l0.1-1l1.2-8.6l119,16.6C1600.6,818.8,1600.9,820,1601.1,820.5z
					"/>
			</g>
		</g>
		<g>
			<g>
				<path class="st1" d="M1408.3,765.5l-21.2-2.9c-2.3-0.3-4.4,1.3-4.7,3.6c-0.3,2.3,1.3,4.4,3.6,4.7l21.2,2.9
					c1.1,0.2,2.2-0.2,3.1-0.8c0.9-0.6,1.5-1.6,1.7-2.8C1412.2,767.9,1410.6,765.8,1408.3,765.5z"/>
			</g>
		</g>
		<g>
			<g>
				<path class="st1" d="M1420.3,767.2L1420.3,767.2c-2.4-0.3-4.5,1.3-4.8,3.6c-0.3,2.3,1.3,4.4,3.6,4.7l0.1,0
					c1.1,0.2,2.2-0.2,3.1-0.8c0.9-0.6,1.5-1.6,1.7-2.8C1424.2,769.6,1422.6,767.5,1420.3,767.2z"/>
			</g>
		</g>
		<g>
			<g>
				<path class="st1" d="M1505.7,740.6c-2.3-0.4-4.4,1.2-4.8,3.4l0,0.1c-0.4,2.3,1.1,4.4,3.4,4.8c1.2,0.2,2.3-0.1,3.2-0.8
					c0.8-0.6,1.5-1.6,1.6-2.7l0-0.1C1509.5,743.2,1508,741,1505.7,740.6z"/>
			</g>
		</g>
		<g>
			<g>
				<path class="st1" d="M1503.7,752.6c-2.3-0.4-4.4,1.2-4.8,3.5l-3.4,21.1c-0.4,2.3,1.2,4.4,3.5,4.8c1.2,0.2,2.3-0.1,3.2-0.8
					c0.8-0.6,1.5-1.6,1.6-2.7l3.4-21.1C1507.6,755.1,1506,753,1503.7,752.6z"/>
			</g>
		</g>
	</g>
	<g class="st0">
		<g>
			<g>
				<path class="st1" d="M417.8,131.3c-2-3-4-6-5.4-8.2c-1-1.6-2.9-3.5-4.4-4.5c-2-1.4-4.9-3.5-8-5.7c-2-1.4-4.4-2-6.5-1.4
					c-1.9,0.5-3.4,1.7-4.3,3.4c-4.2,8.4-15,16.2-18.2,18.4c-1.7,1.1-2.8,2.9-3.3,5l-0.8,3.8c-0.1,0.4-0.2,0.7-0.5,0.9l-78.5,72
					c-1-1.5-1.9-2.5-2.6-3.2c-13.7-14.2-35.3-15.6-48.1-3.2c-3.6,3.4-6.2,8.9-7.6,15.7c-2.6,12.4-13.5,21.2-26.1,21
					c-0.1,0-0.2,0-0.3,0c-17.8-0.5-34.5,5.5-45.9,16.5c-24.6,23.7-21.5,67,6.9,96.5c15.9,16.5,36.4,25.2,55.7,25.5
					c15.2,0.3,29.7-4.7,40.5-15.2c12.2-11.8,18.8-29.5,18-48.6c-0.5-12.7,8.1-23.9,20.4-26.6c6-1.3,10.7-3.5,13.9-6.7
					c3.3-3.2,5.8-7,7.3-11.3c1.7-4.7,1.1-9.9-1.6-14.2c-2.7-4.2-7-6.9-11.9-7.4c-2.1-0.2-4.1-1.1-5.5-2.7c-0.1-0.1-0.2-0.2-0.3-0.3
					l85.8-87.1c0.2-0.2,0.5-0.4,0.9-0.4l3.8-0.7c2.1-0.4,3.9-1.5,5.1-3.1c2.3-3.1,10.5-13.6,19-17.5c1.7-0.8,3-2.3,3.5-4.1
					C419.6,135.7,419.1,133.3,417.8,131.3z M170.6,352c-2.4-2.5-4.6-5.1-6.6-7.8l10.5-7.1l11.1,11.5l-7.5,10.2
					C175.5,356.8,173,354.5,170.6,352z M305.7,262.5c2.2,0.2,4.1,1.4,5.3,3.3c1.2,2,1.5,4.3,0.7,6.5c-1.1,3.1-2.8,5.8-5.2,8
					c-2,1.9-5.4,3.5-9.7,4.4c-16.5,3.6-27.9,18.5-27.3,35.5c0.6,16.6-5,31.9-15.3,42c-9.1,8.8-21.4,13-34.3,12.7
					c-11.6-0.2-23.7-3.9-34.8-10.9l9.6-13.1c1.3-1.7,1.1-4.1-0.4-5.6l-16.3-16.9c-1.5-1.5-3.9-1.8-5.6-0.6l-13.5,9.1
					c-14-24-13-52.3,4.3-69c9.7-9.3,24.1-14.4,39.5-14c0.1,0,0.3,0,0.4,0c16.8,0.3,31.4-11.4,34.9-28c1-5,2.9-9,5.1-11.2
					c9.4-9,25.4-7.7,35.7,3c0.4,0.4,1.2,1.4,2.4,3.1l-22.2,20.3c-0.9,0.8-1.4,1.9-1.4,3.1s0.4,2.3,1.2,3.2l19.1,19.8
					c0.8,0.8,1.9,1.3,3.1,1.3c0,0,0,0,0.1,0c1.2,0,2.3-0.5,3.2-1.3l10.1-10.3c0,0,0.1,0.1,0.1,0.1
					C297.6,260.2,301.5,262.1,305.7,262.5z M281.4,258l-12.9-13.4l101.8-93.4l8.1,8.4L281.4,258z M389.5,154l-3.6,0.7c0,0,0,0-0.1,0
					l-10.4-10.8c0,0,0,0,0,0l0.8-3.6c4.5-3.1,14.3-10.5,19.7-19.5c2.7,1.9,5.2,3.7,6.9,5c0.6,0.4,1.7,1.6,2.1,2.2
					c1.2,1.9,2.9,4.5,4.7,7.1C400.6,140.1,392.8,149.6,389.5,154z"/>
			</g>
		</g>
		<g>
			<g>
				<path class="st1" d="M258.3,308.8l-0.1-0.2c-1.5-2.6-5.1-3-7.1-0.7c-2.9,3.3-6.3,9.2-8.1,18.9c-1.4,7.9-3.8,12.6-5.5,15
					c-1,1.5-1.1,3.5,0,5c0,0,0,0,0,0c1.7,2.5,5.5,2.6,7.2,0c2.4-3.5,5.3-9.2,6.9-18.4c1.3-6.9,3.5-11.1,5.1-13.4
					c0.4-0.5,0.7-1,1.1-1.4C259,312.3,259.2,310.3,258.3,308.8z"/>
			</g>
		</g>
		<g>
			<g>
				<path class="st1" d="M217.1,266c-1.5-1.1-3.4-1.1-5-0.1c-2.5,1.6-7.2,3.8-15.2,5c-17.4,2.5-22.7,10.9-23.3,11.9
					c-1.2,2.1-0.5,4.8,1.6,6h0c2.1,1.2,4.8,0.5,6-1.6c0-0.1,3.8-5.7,16.9-7.6c9.2-1.3,15.1-4,18.7-6.3
					C219.5,271.5,219.6,267.8,217.1,266z"/>
			</g>
		</g>
		<g>
			<g>
				<path class="st1" d="M212.1,333.1l-21.2-21.9c-1.7-1.7-4.5-1.8-6.2-0.1c-1.7,1.7-1.8,4.5-0.1,6.2l21.2,21.9
					c0.8,0.9,2,1.3,3.1,1.3c1.1,0,2.3-0.4,3.1-1.2C213.7,337.7,213.8,334.9,212.1,333.1z"/>
			</g>
		</g>
		<g>
			<g>
				<path class="st1" d="M226.8,318.9L205.7,297c-1.7-1.7-4.5-1.8-6.2-0.1c-1.7,1.7-1.8,4.5-0.1,6.2l21.2,21.9
					c0.8,0.9,2,1.3,3.1,1.3c1.1,0,2.3-0.4,3.1-1.2C228.5,323.4,228.5,320.6,226.8,318.9z"/>
			</g>
		</g>
		<g>
			<g>
				<path class="st1" d="M237.8,308.3l-21.2-21.9c-1.7-1.7-4.5-1.8-6.2-0.1c-1.7,1.7-1.8,4.5-0.1,6.2l21.2,21.9
					c0.8,0.9,2,1.3,3.1,1.3c1.1,0,2.3-0.4,3.1-1.2C239.4,312.8,239.5,310.1,237.8,308.3z"/>
			</g>
		</g>
	</g>
	<g class="st0">
		<path class="st1" d="M620,699.8c-1.1-1.6-3.1-3.6-4.7-4.7c-2.1-1.4-5.3-3.6-8.6-5.9c-2.1-1.5-4.7-2-6.9-1.4
			c-2,0.5-3.6,1.9-4.5,3.7c-4.3,9-15.6,17.5-18.9,19.9c-1.8,1.2-3,3.1-3.4,5.3l-0.8,4c-0.1,0.4-0.2,0.7-0.5,1l-82,78
			c-1.1-1.5-2.1-2.7-2.8-3.4c-14.8-14.8-37.7-15.9-51.1-2.5c-3.7,3.7-6.4,9.5-7.8,16.8c-2.5,13.3-14,22.8-27.3,22.8
			c-0.1,0-0.2,0-0.3,0c-18.9-0.2-36.5,6.5-48.4,18.3c-25.7,25.7-21.6,71.6,9.2,102.3c4.6,4.6,9.6,8.6,14.8,12H396
			c-4.3-1.6-8.4-3.7-12.5-6.2l9.9-14.1c1.3-1.9,1.1-4.4-0.5-6l-17.6-17.6c-1.6-1.6-4.1-1.8-6-0.5l-14.1,9.9
			c-15.3-25.2-14.8-55.3,3.3-73.3c10.1-10.1,25.3-15.8,41.7-15.6c0.2,0,0.3,0,0.5,0c17.8,0,33.1-12.7,36.5-30.4
			c1-5.4,2.9-9.6,5.2-12c9.8-9.8,26.8-8.6,37.9,2.5c0.4,0.4,1.3,1.5,2.6,3.3l-23.1,22c-0.9,0.9-1.4,2.1-1.5,3.3
			c0,1.3,0.5,2.5,1.4,3.4l20.7,20.7c0.9,0.9,2.1,1.4,3.3,1.4c0,0,0,0,0.1,0c1.3,0,2.5-0.5,3.3-1.5l10.5-11.1c0,0,0.1,0.1,0.1,0.1
			c3.2,3.2,7.4,5.1,11.8,5.4c2.3,0.2,4.4,1.4,5.7,3.4c1.4,2.1,1.7,4.6,0.9,6.9c-1.1,3.3-2.9,6.2-5.3,8.6c-2.1,2.1-5.6,3.8-10.2,4.9
			c-17.4,4.1-29.3,20.2-28.3,38.2c1,17.7-4.6,34-15.5,44.8c-4,4-8.6,7.1-13.6,9.4h17.1c1-0.9,2.1-1.8,3.1-2.8
			c12.7-12.7,19.3-31.7,18.2-52c-0.8-13.5,8.1-25.5,21.1-28.6c6.3-1.5,11.3-4,14.6-7.3c3.4-3.4,6-7.5,7.6-12.2c1.7-5,1-10.5-1.9-15
			c-2.9-4.4-7.6-7.2-12.8-7.6c-2.2-0.2-4.3-1.1-5.9-2.7c-0.1-0.1-0.2-0.2-0.3-0.3l89.4-94.1c0.2-0.2,0.5-0.4,1-0.5l4-0.8
			c2.2-0.4,4.1-1.6,5.3-3.4c2.4-3.4,10.9-14.6,19.9-18.9c1.8-0.9,3.2-2.5,3.7-4.5c0.6-2.3,0.1-4.8-1.4-6.9
			C623.7,705.2,621.5,702,620,699.8z M371.5,931.5l12,12l-7.7,11c-2.8-2.2-5.5-4.6-8.1-7.2c-2.6-2.6-5-5.3-7.2-8.1L371.5,931.5z
			 M483.5,845.5l-13.9-13.9l106.3-101.1l8.7,8.7L483.5,845.5z M596.4,733l-3.8,0.8c0,0,0,0-0.1,0l-11.3-11.3c0,0,0,0,0,0l0.8-3.8
			c4.7-3.4,15-11.5,20.5-21c2.9,2,5.6,3.9,7.5,5.1c0.7,0.5,1.8,1.6,2.3,2.3c1.4,2,3.2,4.7,5.1,7.5C607.8,718,599.7,728.3,596.4,733z
			"/>
		<g>
			<g>
				<path class="st1" d="M459.9,899.8l-0.1-0.2c-1.6-2.7-5.5-3.1-7.5-0.6c-3,3.6-6.6,9.9-8.3,20.2c-1.4,8.5-3.8,13.4-5.6,16
					c-1.1,1.6-1.1,3.7,0.1,5.3c0,0,0,0,0,0c1.9,2.7,5.9,2.6,7.7-0.1c2.5-3.7,5.4-9.9,7-19.7c1.2-7.3,3.5-11.8,5.2-14.3
					c0.4-0.6,0.8-1,1.1-1.5C460.7,903.5,460.9,901.5,459.9,899.8z"/>
			</g>
		</g>
		<g>
			<g>
				<path class="st1" d="M415.4,855.1c-1.6-1.1-3.7-1.1-5.3-0.1c-2.6,1.7-7.5,4.2-16,5.6c-18.4,3-23.9,12-24.5,13.1
					c-1.2,2.3-0.4,5.1,1.8,6.3h0c2.3,1.2,5.1,0.4,6.3-1.8c0-0.1,3.9-6.1,17.8-8.4c9.8-1.6,16-4.5,19.7-7
					C418,861,418.1,857,415.4,855.1z"/>
			</g>
		</g>
		<g>
			<g>
				<path class="st1" d="M411.4,926.5l-22.9-22.9c-1.8-1.8-4.8-1.8-6.6,0c-1.8,1.8-1.8,4.8,0,6.6l22.9,22.9c0.9,0.9,2.1,1.4,3.3,1.4
					c1.2,0,2.4-0.5,3.3-1.4C413.2,931.3,413.2,928.4,411.4,926.5z"/>
			</g>
		</g>
		<g>
			<g>
				<path class="st1" d="M426.7,911.2l-22.9-22.9c-1.8-1.8-4.8-1.8-6.6,0c-1.8,1.8-1.8,4.8,0,6.6l22.9,22.9c0.9,0.9,2.1,1.4,3.3,1.4
					c1.2,0,2.4-0.5,3.3-1.4C428.6,915.9,428.6,913,426.7,911.2z"/>
			</g>
		</g>
		<g>
			<g>
				<path class="st1" d="M438.2,899.7l-22.9-22.9c-1.8-1.8-4.8-1.8-6.6,0c-1.8,1.8-1.8,4.8,0,6.6l22.9,22.9c0.9,0.9,2.1,1.4,3.3,1.4
					c1.2,0,2.4-0.5,3.3-1.4C440,904.5,440,901.5,438.2,899.7z"/>
			</g>
		</g>
	</g>
</g>
</svg>
