<?xml version="1.0" encoding="utf-8"?>
<!-- Generator: Adobe Illustrator 22.1.0, SVG Export Plug-In . SVG Version: 6.00 Build 0)  -->
<svg version="1.1" id="Capa_1" xmlns="http://www.w3.org/2000/svg" xmlns:xlink="http://www.w3.org/1999/xlink" x="0px" y="0px"
	 viewBox="0 0 543 410" style="enable-background:new 0 0 543 410;" xml:space="preserve">
<style type="text/css">
	.st0{fill:none;}
	.st1{fill:#FFFFFF;}
	.st2{fill:#EC1E24;}
</style>
<g>
	<path class="st0" d="M426.2,296c0,0.2,0,0.4-0.1,0.6c0.1,0,0.2,0,0.2,0C426.3,296.4,426.2,296.2,426.2,296z"/>
	<path class="st0" d="M409.1,188.8c2.8-0.2,5.5,1.2,8.4,0.5c0.6-0.2,1.2-0.4,1.8-0.5c7-0.8,7.3-1.2,6.3-8.1
		c-1.3-8.8-2.7-17.5-4.1-26.3c-1.1-6.9-1.8-13.9-3.4-20.7c-0.5-1.9-0.4-5.3-4.2-3.2c-1.4,13.4-3.7,26.8-3.8,40.2
		c-0.1,5.6-1.9,10.4-3,15.5C406.2,188.3,407.3,188.9,409.1,188.8z"/>
	<path class="st0" d="M56.9,200.7c-1.4-0.4-3.2-0.2-3.8-2l0,0l0,0c0-1.2,0-2.5-0.1-3.7c0-2.4,0.1-4.9,0.1-7.3
		c-2.8,0.7-5.6,1.5-8.4,2.2c-0.1,0.3-0.3,0.6-0.4,0.8c-0.7,1.6-0.2,3,0.7,4.3c3.5,4.8,5.2,10.3,7.2,15.8c0.2,0.4,0.5,0.7,0.7,0.9
		c2.5-0.3,4.9-1.8,7.5-1.9c3.5-1.2,6.9-2.4,10.3-3.6c0.3-0.7,0.6-1.2,0.8-1.9C66.7,203.2,61.7,202,56.9,200.7z"/>
	<path class="st0" d="M109.4,174.1c0-1.4-0.1-2.9-1.3-3.4c-0.5,0.3-1,0.5-1.5,0.8c-0.7,0.4-1.5,0.7-2.3,0.9c1.7,0.4,3.4,0.7,5,1.5
		C109.3,174,109.3,174,109.4,174.1z"/>
	<path class="st0" d="M228.9,122.9c0.1,0,0.1,0,0.2,0.1v-0.1C229,122.9,229,122.9,228.9,122.9z"/>
	<path class="st0" d="M163.6,318.8c-1.6-7.5-2.2-15.1-3.6-22.6c-0.2-1.4-0.5-2.8-1.3-3.9c-1.2-1.7-2.4-1.8-3.5,0.3
		c-1,9.7-1.8,19.5-3.1,29.2c-1.2,9.5,0.1,19.3-4.4,28.3c-0.1,0.2,0.1,0.6,0.1,0.9c0.9-0.6,2-0.8,3.1-0.7c4.4-0.1,8.8,1.4,13.1-0.1
		c3.8-1.5,3.7-4.6,3.1-7.7C165.9,334.6,164.8,326.7,163.6,318.8z"/>
	<path class="st0" d="M251.4,146.7c-0.8-4.6-1.2-9.3-2.2-13.8c-0.5-2.2-1.2-4-4-2.3c-1,9.5-1.5,19-3.2,28.4
		c-1.6,9.1,0.7,18.6-3.8,27.3c-1.5,2.8,0,2.9,2.5,2.6c3.8-0.5,7.8-0.3,11.6-0.5c1.5-0.5,3.4,0.7,4.5-1.1c0.7-1.7,0.4-3.4,0.1-5.1
		C255,170.3,253.4,158.5,251.4,146.7z"/>
	<path class="st0" d="M347.4,258c0,0.1,0.1,0.2,0.1,0.3c0.1-0.1,0.2-0.2,0.3-0.3C347.7,258,347.6,258,347.4,258L347.4,258z"/>
	<path class="st0" d="M513.3,332.4c-0.9-6.4-2.1-12.7-3-19.1c-0.8-2.2-0.5-4.6-1-6.8c-1.4-5-0.7-10.5-3.5-15.1
		c-1-0.2-2.1-0.7-2.8,0.5c-1.4,13.6-2.6,27.2-4.4,40.7c-0.4,2.7,2.1,4.5,0.7,7.1c-1.6,3.2-2.6,6.6-3.9,9.9c0,2.1,1.9,1.7,2.7,1.5
		c4.3-1.2,8.6,0,12.9-0.7c2.8-0.6,4.5-2.2,4.3-5.2c0-0.8-0.1-1.6-0.3-2.3C514.2,339.4,513.8,335.8,513.3,332.4z"/>
	<path class="st0" d="M421.3,307.4C421.3,307.4,421.2,307.4,421.3,307.4C421.2,307.4,421.2,307.4,421.3,307.4
		C421.2,307.4,421.2,307.4,421.3,307.4L421.3,307.4z"/>
	<path class="st0" d="M475.4,344.9L475.4,344.9c-0.1-0.1-0.1-0.1-0.2-0.1C475.3,344.9,475.3,344.9,475.4,344.9z"/>
	<path class="st0" d="M393.2,365.5c0.1-0.1,0.1-0.1,0.1-0.2h-0.1C393.2,365.4,393.2,365.4,393.2,365.5z"/>
	<path class="st0" d="M97,170.6L97,170.6L97,170.6L97,170.6z"/>
	<path class="st1" d="M542.3,391.4L542.3,391.4c0-11.5-2.1-22.9-3.6-34.2c-0.9-7.1-3.4-13.8-4.8-20.8c-1.7-8.4-2.2-17.1-5-25.2
		c-2.7-8.3-3.4-17.1-6.5-25.2c-1.5-3.9-0.8-8.6-2.3-12c-2.4-5.3-3.9-10.7-5.2-16.3c-2.4-1.8-5.1-1.5-7.7-0.6l0,0
		c-4.8-2.5-9.8-0.9-14.8-1.3c-5.7-1.1-3.3,3.2-3.7,5.5c-0.1,0.6-0.2,1.2-0.2,1.8c-1.1,1.9-2.2,3.7-2.5,5.9
		c-0.9,7.5-1.6,14.9-3.6,22.3c-1.2,4.4-2.4,9-2.2,13.7c-2.5,9.8-4.5,19.9-5.6,30c-1.2,4.1-1.3,8.3-1.7,12.5
		c-1.5,11.7-3.5,23.4-3.9,35.3l0,0c-1.5,2.9-0.9,6.3-1.6,9.4c-0.3,1.3,0.7,1.4,1.8,1.1l0,0c0.6,0.1,1.1,0.1,1.7,0.2l0,0
		c1.8,1.2,3.8,0.7,5.8,0.7c2.2,0.3,4.5,0.4,6.7,0.7c2.2,0.4,2.6-0.7,2.5-2.5c0.9-6.9,3-13.7,4.9-20.4c0.8-0.7,1.7-0.7,2.5,0
		c7.3,1.5,14.5,0.7,21.8-0.1c0.6-0.1,1.2-0.1,1.8-0.2c3.5,4.2,5.2,9.2,5.2,14.4c0.1,6.5,1.5,8.2,7.9,8.2c3,0.4,6.1,0.8,9.1,1.2
		C542.7,396.3,544,395.1,542.3,391.4z M475.4,344.9c-0.1,0-0.1-0.1-0.2-0.1C475.3,344.8,475.3,344.8,475.4,344.9
		C475.4,344.9,475.4,344.9,475.4,344.9z M510.9,350.5c-4.3,0.6-8.6-0.6-12.9,0.7c-0.7,0.2-2.7,0.6-2.7-1.5c1.3-3.3,2.3-6.7,3.9-9.9
		c1.3-2.6-1.1-4.5-0.7-7.1c1.9-13.5,3-27.2,4.4-40.7c0.7-1.3,1.8-0.7,2.8-0.5c2.8,4.7,2.1,10.1,3.5,15.1c0.6,2.2,0.2,4.6,1,6.8
		c0.9,6.4,2.2,12.7,3,19.1c0.5,3.6,0.9,7,1.6,10.5c0.2,0.7,0.3,1.6,0.3,2.3C515.3,348.3,513.6,349.8,510.9,350.5z"/>
	<path class="st2" d="M396.8,230.5L396.8,230.5L396.8,230.5c0.8-6.7,3-13.1,4.8-19.5c0.5-0.2,0.9-0.5,1.3-0.4
		c8.6,1.9,17.2,1.6,25.9-0.5c1,0.7,0.7,1.7,0.8,2.6c1,3.8,2.9,7.5,3.1,11.5c0.3,7.9,1.5,9.1,9.3,9.2c3.1,0.9,6.3,1.1,9.6,1.1
		c2.4,0,2.9-1.2,1.8-3.3l0,0c0.1-11.1-1.8-22-3.2-32.9c-1.2-9.3-4.2-18.1-5.6-27.4c-1.1-7-1.7-14.3-4.3-20.9
		c-3.3-8.2-3.2-17.1-6.7-25c-2.2-4.8-1.1-10.1-3.4-14.7c-1.8-3.7-3.4-7.4-3.4-11.5c0-3.4-1.7-3.9-4.4-3.4l0,0
		c-5.9-1.5-11.9-0.7-17.8-0.9l0,0l0,0c-0.6,0-1.2,0-1.8-0.1l0,0c-1.4-0.9-2.7-0.4-2.7,1c0.1,5.9-4.1,11-3,17l0,0l0,0l0,0l0,0
		c-2,2.6-1.4,5.5-1,8.5l0,0c-4.4,13.7-6.3,27.9-8.5,42.1c-1.2,2.7-1.7,5.6-1.8,8.5l0,0c0,0.6,0,1-0.1,1.6l0,0
		c-2.2,12.5-3.7,25.1-4.7,37.8l0,0c-1.1,4-1.7,8.1-1.7,12.2l0,0l0,0c0,1.2-0.1,2.3-0.1,3.6c-0.1,0.2-0.2,0.4-0.2,0.6
		c-0.7,2-1.9,3.9,1.2,5.2c0.7,0,1.2,0,1.9,0.1l0,0l0,0l0.4,0.2h0.4c0.2,0.1,0.3,0.1,0.4,0.1c3.4,1.1,7,0.7,10.4,1.3
		C396.5,234.5,396.9,232.9,396.8,230.5z M407,186.3c1.1-5.2,2.9-9.8,3-15.5c0.2-13.4,2.4-26.8,3.8-40.2c3.8-2.2,3.7,1.3,4.2,3.2
		c1.6,6.8,2.2,13.8,3.4,20.7c1.4,8.8,2.8,17.5,4.1,26.3c1,6.9,0.7,7.3-6.3,8.1c-0.7,0.1-1.2,0.3-1.8,0.5c-2.8,0.7-5.6-0.7-8.4-0.5
		C407.3,188.9,406.2,188.3,407,186.3z"/>
	<path class="st2" d="M367.9,208.1L367.9,208.1L367.9,208.1c-6.1-2-11.9,0.1-17.9,0.8l0,0c-9.1-0.2-18.1,1.6-27.2,1.9l0,0
		c-1-1-1.4-2.2-1.3-3.7c0.3-5.6,0.3-11.2,0.7-16.8c1.5-27.8,0.8-55.7-1.1-83.4c-0.3-4.3,2.2-10.3-1.7-12.6c-3.3-2-8.7-0.5-13.2-0.6
		l0,0c-2.3-0.4-5.8-1.8-5.9,1.9c-0.4,10,0,20.1,0.1,30.1c0,27.5,0,55,0,82.5l0,0c0,5.3,0,10.6,0,15.9l0,0c-0.1,0.7-0.1,1.6-0.2,2.3
		c-0.1,7-0.1,7,6.9,7c18.8,0,37.6,0,56.4-0.1c1.4,0,3.2,0.7,4.3-0.8c0-0.3,0-0.7,0-0.9l0,0l0,0C368.2,223.7,368.2,215.9,367.9,208.1
		z"/>
	<path class="st2" d="M284.5,230.5c0-11.7-2.2-23.2-3.7-34.9c-0.8-6.8-3.3-13.2-4.6-20c-1.7-8.4-2.2-17.2-5-25.4
		c-2.8-8.5-3.4-17.5-6.7-25.9c-1.7-4.2-0.7-8.7-2.5-12.6c-2-4.1-3.8-8.2-4.2-12.6c-0.3-3.6-2.1-4.5-5.2-3.7l0,0
		c-5.2-1.5-10.7-0.7-16-0.8l0,0c-0.9,0-1.8-0.1-2.7-0.1l0,0c-1.2-0.8-2.4-1-2.9,0.7c-1,4.3-2.2,8.7-2.9,13c-1,5.7-1.7,11.5-2.5,17.2
		l0,0l0,0c-0.4,1.3-0.8,2.6-1.1,4c-4.3,22.2-8.8,44.4-11.2,67c-1.1,10.5-2.5,21-3.7,31.5c-0.2,1.5-1.2,3.7,1.3,4.3
		c5.3,1,10.8,1.9,16.3,0.8c1.3-1.7,0.9-3.7,0.9-5.5l0,0l0,0c1.4-5.2,2.9-10.2,4.3-15.4c0.6-1.9,1.4-2.5,3.1-1.2
		c6.9,1.1,14,0.7,20.9-0.2c0.6-0.1,1.1-0.1,1.7-0.2l0,0c0.7,0.2,2.1,0.2,2.2,0.5c0.8,4.3,3.3,8.2,3.7,12.6c0.8,9,1.4,9.6,10.2,9.6
		l0,0c2.6,1.1,5.3,0.9,8.1,1C285.4,234.6,285.9,233,284.5,230.5L284.5,230.5z M228.9,122.9c0.1,0,0.1,0,0.2-0.1v0.1
		C229,122.9,229,122.9,228.9,122.9z M256.8,187.1c-1.1,1.9-3,0.7-4.5,1.1c-3.9,0.1-7.8,0-11.6,0.5c-2.4,0.3-4,0.2-2.5-2.6
		c4.6-8.6,2.2-18.2,3.8-27.3c1.7-9.4,2.2-18.9,3.2-28.4c2.7-1.7,3.6,0.3,4,2.3c1,4.6,1.4,9.2,2.2,13.8c2.1,11.8,3.7,23.6,5.6,35.4
		C257.2,183.8,257.7,185.4,256.8,187.1z"/>
	<path class="st1" d="M453.2,388.5c-0.3-3.8-0.8-7.8-0.7-11.6c0.1-3.6-1.3-4.2-4.6-4.2c-12.7,0.1-25.5-0.2-38.2-0.2
		c-2.4,0-3-0.4-1.9-2.8c5.7-12.3,10.6-24.9,15.6-37.6c6.7-16.7,14.6-32.9,23.3-48.5c4.9-8.7,5.7-17.4,5.4-26.8
		c-0.1-2.1-0.7-3.2-3-3.1c-5.2,0.2-10.5,0.1-15.7,0.2c-14.6-1.4-29.3,0.8-43.9-0.7c-4.1-0.9-6,0.4-5.5,4.9c0.4,3.7,0.3,7.4,0,11.1
		c-0.4,4.5,1.2,6,5.5,4.6c1.2,1.3,2.4,0.1,3.7,0.1c3.2,0.8,6.4,0.6,9.5,0c8.7,0,17.4,0,26.1-0.1c2.2,0.6,3.5,1.5,1.8,3.9
		c-0.5,0.7-0.6,1.7-0.8,2.5l0,0c-4.9,9.4-9.3,19-13.3,28.8l0,0c-5,9.9-9.8,19.9-13.8,30.3c-2.5,3.7-4.1,7.9-5.7,12.1
		c-1.2,1-1.6,2.4-1.9,3.8c-1.5,2.6-3.1,5.2-3.8,8.2c-1.5,2.4-1.7,5.4-3.6,7.7c-0.4,0.5-0.7,1-1.1,1.5l0,0c-3.5,2.7-3,6.6-3,10.3
		c0.1,12,0.1,12,12.5,10.6c10.6,0.1,21.3,0.6,31.9-0.2c7.4,0.1,14.8,0.1,22.2,0.4C454.5,393.9,454.9,392,453.2,388.5L453.2,388.5z
		 M426.2,296c0.1,0.2,0.1,0.4,0.2,0.6c-0.1,0-0.2,0-0.2,0C426.2,296.4,426.2,296.2,426.2,296z M421.2,307.4
		C421.2,307.4,421.3,307.4,421.2,307.4C421.3,307.4,421.3,307.4,421.2,307.4L421.2,307.4L421.2,307.4z M387.5,389.8
		C387.5,389.9,387.5,389.9,387.5,389.8L387.5,389.8C387.5,389.7,387.5,389.7,387.5,389.8C387.6,389.8,387.6,389.8,387.5,389.8z
		 M393.2,365.5c0-0.1,0-0.2,0-0.2h0.1C393.3,365.4,393.2,365.5,393.2,365.5z"/>
	<path class="st1" d="M363.6,256.8c-5.6,0-11.2,0.2-16.9,0c-3.7-0.2-4.3,1.3-4.3,4.7c0.2,18.6,0.2,37.1,0.1,55.7
		c-0.1,19.8,0.5,39.5-0.4,59.3c-0.3-0.1-0.5,0-0.7,0.2c-10,0-20,0.1-30,0.1c-1-2-0.2-3.9-0.2-5.9c0.2-12.1,2.7-24.1,1-36.2
		c-1.5-10.5-1.4-21.1-1.5-31.7c0-15.1-0.2-30.2-0.3-45.3c-4.9-2-10-0.5-15-0.7c-2.5-0.2-3.1,1-3.1,3.4c0.2,16.3,0.2,32.6,0.3,49
		c0,2.2,0,4.4,0,6.6c0,4,0,8.2,0,12.2c0,0.3,0,0.7,0,0.9c-0.1,10.3-0.1,20.6-0.2,30.9l0,0c-3.4,11.6-1,23.4-1.6,35.1
		c-0.1,1.5,0.4,2.5,2.1,2.2c1.8-0.3,3.7,0.5,5.4-0.7c19.5-0.1,38.9-0.2,58.4-0.2c7.8,0,7.7,0,7.7-7.8c0-41.1,0-82.3,0.1-123.3
		c0.9-2.4-0.5-5.1,1-7.4C365.5,256.6,364.4,256.8,363.6,256.8z M347.6,258.3c-0.1-0.1-0.1-0.2-0.1-0.3l0,0c0.2,0,0.3,0,0.5,0
		C347.8,258.1,347.7,258.2,347.6,258.3z"/>
	<path class="st1" d="M278.9,374.5c0-6.8,0-6.8-6.8-5.4c-11.8,1-23.6,2-35.4,3c-1.2,0-2.4-0.1-3.7-0.1c-2.4-5.4-0.7-11.1-0.5-16.5
		c1.4-33,0.4-65.8-1.5-98.7c0.1-2.6-1.9-2-3.3-2c-4.5,0-9,0.1-13.5,0.2c-2.7-0.6-4.5-0.3-3.7,3.3c0.3,1.2,0.1,2.5,0.1,3.7
		c0,42.9,0.1,85.7,0,128.7c0,2.6,0.2,3.9,3.4,3.9c20.6-0.1,41.1-0.1,61.7,0c2.9,0,3.4-1.2,3.4-3.7
		C278.9,385.5,278.9,380.1,278.9,374.5z"/>
	<path class="st2" d="M151.4,188.8c2.6,8.5,5.2,17.1,7.8,25.5c1.4,4.6,0.8,5.6-3.3,7.7c-0.8,0.2-1.8,0.3-2.6,0.2
		c-0.7-0.1-1.2-0.2-1.9-0.2c-0.4,0.1-0.7,0.2-1.2,0.2c-0.1,0-0.2,0.1-0.3,0.1c-0.2,0.1-0.4,0.1-0.5,0.1c0,0.2-0.1,0.4-0.1,0.6l0,0
		l0,0c8.2,3.2,17.1,4.6,25.6,7c1.9,0.6,2.4-0.7,2.8-2.2c-0.4,0-0.7-0.1-0.8-0.3c0.3,0.1,0.6,0.2,0.8,0.3c6.1-10.1,9.2-21.6,12-32.7
		c8.1-32.5,17.3-64.7,25.4-97.2c6.9-27.7,13.9-55.5,21-83.2c0.8-3.4,0.7-5-3.2-5.8c-10-2.2-20-4.9-29.9-7.3l0,0
		c-1.1-0.8-2.4-0.7-3.7-0.7l0,0c-1.7-1-3.5-1.6-3.7,1.1c-1.2,10.3-3.4,20.5-3.8,30.9c-0.3,0.7-0.7,1.4-0.7,2.2
		c-1.3,13.3-6.4,25.9-8.6,38.9l0,0c-0.9,1.1-0.9,2.5-0.9,3.8l0,0c-0.6,1.9-1.2,3.7-1.8,5.7c-3.4,5.1-4.5,11-5.6,16.8l0,0l0,0
		c-3.7,1.2-4.9,3.9-4.8,7.5l0,0c-0.6,1.6-1.2,3.2-1.6,4.9c-5.9,23.1-11.2,46.3-17.9,69.2c-0.4,0.7-0.7,1.3-1,2l0,0
		C150.5,185.1,150.6,187.1,151.4,188.8z"/>
	<path class="st1" d="M194.6,389.7c-0.6-8.7-1.8-17.3-2.7-26c-1.3-11.9-4.8-23.2-6.9-34.9c-1.3-7.4-2.9-14.8-5.1-22.1
		c-3.9-13.4-6-27.5-10.8-40.8c-0.5-1.4-0.8-3-0.9-4.5c-0.2-3.8-1.7-5.7-5.7-4.7c-0.8-0.6-1.7-0.4-2.4-0.1c-3.8-1.2-7.7-0.7-11.6-0.7
		c-0.9,0-1.9,0-2.8-0.1c-3.4-1-4.8,0.5-4.8,3.7c0,1.2-0.1,2.4-0.1,3.7c-0.8,2-2.1,3.9-2.3,6c-1.1,6.7-1.2,13.7-3.1,20.3
		c-1.2,4.6-2.2,9.3-2.7,14.1c-0.9,3.4-1.9,6.7-1.9,10.3c-0.2,0.3-0.2,0.6-0.1,0.8c-1.3,3-1.7,6.3-1.9,9.5c-0.2,0.2-0.2,0.4-0.1,0.7
		c-0.9,1.2-0.8,2.6-0.8,4c-1.3,4.5-2,9.2-2,13.9l0,0c-2.1,12.7-3.6,25.5-4.7,38.3c-0.2,0.4-0.3,0.7-0.4,1.1
		c-0.4,1.5-0.6,3.1-0.5,4.7l0,0c-0.1,0.8-0.1,1.7-0.2,2.5l0,0l0,0l0,0c-0.1,0.3-0.2,0.6-0.2,0.7c-0.6,1.3-1.8,2.8,1.3,3.3
		c0.5,0,0.9,0.1,1.4,0.1c0.2,0.1,0.4,0.2,0.7,0.2c4.2,1.1,8.6,0.8,12.9,1.5c1.2,0.2,2.1-0.4,2-1.8c0-0.3,0-0.7-0.1-0.9
		c1.4-7.3,2.7-14.6,5.7-21.6c1.1,0.6,1.6,2.1,3.1,2c7.1-0.6,14.2,0.2,21.3-1c0.8,0.7,2.3-0.9,2.8,1.3c1.2,5.4,4.1,10.4,3.5,16.3
		c-0.3,2.5,2,4.5,4.6,5c3.5,0.7,7,0.8,10.6,1.3c5.9,0.7,6.7,0.1,5.2-5.2C194.9,390.4,194.8,390,194.6,389.7z M164.3,350.3
		c-4.4,1.5-8.8,0-13.1,0.1c-1.1-0.2-2.2,0.1-3.1,0.7c-0.1-0.3-0.3-0.7-0.1-0.9c4.4-9,3.1-18.8,4.4-28.3c1.3-9.7,2.1-19.5,3.1-29.2
		c0.9-2.1,2.2-2.1,3.5-0.3c0.8,1.1,1.1,2.5,1.3,3.9c1.3,7.5,2,15.1,3.6,22.6c1.2,7.9,2.4,15.8,3.7,23.7
		C167.9,345.7,168,348.9,164.3,350.3z"/>
	<path class="st1" d="M62.2,252.9c-0.8-2.6,0.2-3.5,2-4.5c0.3-0.1,0.6-0.1,0.8-0.2c1.7-0.1,3.4-0.4,4.8-1.6c1-0.1,2.1-0.1,2.8-1
		c5.2-1,10.3-2.6,15.2-4.7c1,0,2,0,2.6-0.8c18.4-5.1,36.5-10.8,54.4-17c1.5-0.1,3-0.1,4.4-0.2l0,0c0-0.2,0-0.4,0.1-0.6
		c0.2,0,0.4-0.1,0.5-0.1c0.1-0.1,0.2-0.1,0.3-0.1c0.4,0,0.8-0.1,1.2-0.2c0.7,0,1.2,0.2,1.9,0.2c0.8,0.1,1.8,0,2.6-0.2
		c4.2-2,4.8-3,3.3-7.7c-2.6-8.5-5.2-17-7.8-25.5c-0.8-1.7-0.9-3.7-2.7-5l0,0c-2.8-5.2-3.8-11.1-5.6-16.6c-3.2-9.7-6.3-19.5-9.2-29.3
		c-2.2-7.3-2.1-7.3-5.9-9.6c-6,0.6-11.5,3.7-17.7,3.7c-0.1,0.7-0.7,0.7-1.1,0.9c-6.2,10-7.8,21.8-12.5,32.4
		c-0.7,1.6-0.9,3.6,0.3,5.2c0,0,0,0,0.1,0c0,0,0,0,0,0.1l0,0c1.7,0.7,3.5,1.1,5.2,1.3c0.7,0.2,1.4,0.4,2.1,0.5
		c0.8-0.2,1.6-0.5,2.3-0.9c0.4-0.4,0.9-0.6,1.5-0.8c1.2,0.6,1.3,2,1.3,3.4c0.7,0.6,1.2,1.2,0.9,2.2c1.2,3.9,2.2,8.1,3.7,11.9
		c1.6,3.7,0.2,4.8-3.2,5.7c-10.3,3.1-20.5,6.5-30.7,9.7c-0.6,0.3-1.1,0.5-1.8,0.5l0,0c0,0.1-0.1,0.2-0.1,0.3c-0.6,0-1.1,0-1.7,0.1
		c-0.7,0.7-1.7,1-2.7,0.9l0,0l0,0c-0.7,0.9-1.8,1.2-3,1c-3.5,1.2-6.9,2.4-10.3,3.6c-2.6,0.1-4.9,1.6-7.5,1.9
		c-0.3-0.3-0.6-0.6-0.7-0.9c-2-5.4-3.7-11-7.2-15.8c-0.9-1.3-1.5-2.7-0.7-4.3c0.1-0.3,0.3-0.6,0.4-0.8c2.8-0.7,5.6-1.5,8.4-2.2
		c0.4-0.6,0.7-1.1,1.1-1.8c-0.1-0.2-0.2-0.3-0.2-0.5c0.3-0.8,0.1-1.9,0.8-2.6c0.3-0.1,0.5-0.3,0.7-0.4c1-5.2,2.2-10.5,3.2-15.7l0,0
		l0,0c0.2-1.9-0.8-3.8,0.7-5.5l0,0c-0.1-0.7-0.1-1.5,0.7-1.9c0.3-2.2,0.6-4.3,0.9-6.5l0,0c-0.5-1.2-0.6-2.5-0.2-3.7
		c-0.1-0.3-0.3-0.6-0.4-0.7c-1.9,0.7-3.7,1.2-5.7,1.9c-8.9-0.2-16.3,4.6-24.4,7.3c-7.9,0.6-15,3.8-22.5,5.7
		c-1.7-0.3-3.2,0.6-4.7,1.1c-4.7,0.1-3.7,2.8-1.9,5c1.6,1.9,2.7,3.9,3.7,6.1c0.1,0.3,0.1,0.7,0.2,0.9c0.7,2.6,1.2,5.2,2.6,7.6l0,0
		l0,0l0,0l0,0l0,0c2.2,8.9,5,17.7,8.2,26.2l0,0c2.7,10.8,6.3,21.3,9.7,31.8c0.4,1.7,0.5,3.4,1.6,4.8c1.5,5.8,3.2,11.5,5.3,17.1
		c0.1,0.3,0.2,0.6,0.3,0.7c1.4,5.1,2.5,10.1,4.7,14.9l0,0c-0.1,0.3-0.1,0.6,0.2,0.8c0.6,1.6,1,3.2,1.6,4.8c2.9,10.1,5.8,20.1,9.5,30
		c2,8,4.4,15.7,7.4,23.4c0.6,3.3,1.4,6.4,2.9,9.4c0.1,2.1,0.8,4,1.8,5.9l0,0c-0.1,0.7,0,1.4,0.7,1.8l0,0c0.3,2.3,0.5,4.8,2.1,6.7
		l0,0c2,8.2,4.5,16.2,7.6,24.1l0,0l0,0c0.9,5.2,2.8,10.1,4.7,15.1l0,0c0.4,1.7,0.8,3.3,1.1,5c0.8,4.5,2.8,4.3,5.6,1.5
		c0.8-1.5,3-0.4,3.9-1.9l0.4,0.1l0.3-0.2c3.2-0.3,6.2-1.8,9.5-1.4c1.2,0.2,2.5,0.4,2.9-1.3c0.3-0.3,0.7-0.6,0.9-0.9
		c0.4,0,0.6-0.1,0.7-0.4c3.2-0.9,7.1,1.1,9.7-2.3c1.7-3-0.7-5.2-1.6-7.7C91.2,346.4,76.7,299.7,62.2,252.9z"/>
	<path class="st2" d="M61.1,152.8L61.1,152.8c-0.3,2.2-0.6,4.3-0.9,6.5c-0.7,0.5-0.7,1.2-0.7,1.9l0,0c-1.5,1.7-0.5,3.7-0.7,5.5l0,0
		l0,0c-1,5.2-2.2,10.5-3.2,15.7c-0.3,0.1-0.6,0.2-0.7,0.4c-0.7,0.7-0.6,1.8-0.8,2.6c0.1,0.2,0.2,0.3,0.2,0.5
		c-0.4,0.6-0.7,1.1-1.1,1.8c0,2.4-0.1,4.9-0.1,7.3c0,1.2,0,2.5,0.1,3.7l0,0l0,0c0.7,1.9,2.4,1.6,3.8,2c4.9,1.3,9.8,2.5,14.7,3.7
		c-0.3,0.7-0.6,1.2-0.8,1.9c1.2,0.2,2.2-0.1,3-1l0,0l0,0c1,0.1,2-0.2,2.7-0.9c0.6,0,1.1,0,1.7-0.1c0-0.1,0.1-0.2,0.1-0.3l0,0
		c0.7,0,1.2-0.2,1.8-0.5c10.2-3.3,20.4-6.7,30.7-9.7c3.3-1,4.7-2.1,3.2-5.7c-1.6-3.8-2.5-7.9-3.7-11.9c0.3-1-0.2-1.7-0.9-2.2
		c-0.1-0.1-0.1-0.1-0.2-0.2c-1.6-0.7-3.3-1.1-5-1.5c-0.7-0.2-1.4-0.3-2.1-0.5c-1.8-0.2-3.6-0.6-5.2-1.3l0,0l0,0
		c-1.2-1.7-0.9-3.7-0.3-5.2c4.7-10.6,6.3-22.4,12.5-32.4c0.5-0.2,1-0.3,1.1-0.9l0,0c-0.1-1.9,0.1-3.3,1.9-4.8c3.6-3,3.2-8-0.7-9.5
		c-7.8-2.9-15.5-6.2-23.5-8.2l0,0c-3.3-1.9-6.7-3.3-10.5-2.5c-1.6-1.4-2.9-1.6-3.7,0.7l0,0c-1.8,2.2-2.1,4.8-2.9,7.3
		c-3.4,11.1-4.1,23-10.3,33.2l0,0c0.1,0.3,0.3,0.6,0.4,0.7C60.5,150.3,60.5,151.6,61.1,152.8z"/>
</g>
</svg>
