<?xml version="1.0" encoding="utf-8"?>
<!-- Generator: Adobe Illustrator 22.1.0, SVG Export Plug-In . SVG Version: 6.00 Build 0)  -->
<svg version="1.1" id="Capa_1" xmlns="http://www.w3.org/2000/svg" xmlns:xlink="http://www.w3.org/1999/xlink" x="0px" y="0px"
	 viewBox="0 0 656.4 391.7" style="enable-background:new 0 0 656.4 391.7;" xml:space="preserve">
<style type="text/css">
	.Graphic_x0020_Style_x0020_2{fill:url(#SVGID_1_);}
	.st0{fill:#FFFFFF;}
	.st1{fill:#080808;}
	.st2{fill:#080909;}
	.st3{fill:#5BC8F3;}
	.st4{fill:url(#SVGID_2_);}
	.st5{fill:url(#SVGID_3_);}
	.st6{fill:url(#SVGID_4_);}
</style>
<linearGradient id="SVGID_1_" gradientUnits="userSpaceOnUse" x1="-478.2959" y1="-64" x2="-479.003" y2="-63.2929">
	<stop  offset="0" style="stop-color:#EE4447"/>
	<stop  offset="1" style="stop-color:#C5166C"/>
</linearGradient>
<g>
	<g>
		<path class="st0" d="M656.4,382.5c0,4.6-3.7,8.3-8.3,8.3H376.6c-4.6,0-8.3-3.7-8.3-8.3v-66.1c0-4.6,3.7-8.3,8.3-8.3h271.5
			c4.6,0,8.3,3.7,8.3,8.3L656.4,382.5L656.4,382.5z"/>
		<g>
			<g>
				<path class="st1" d="M431.5,349c-0.1-7,5.7-10.4,6-10.5c-3.3-4.8-8.3-5.4-10.1-5.5c-4.3-0.4-8.4,2.5-10.6,2.5
					c-2.2,0-5.6-2.5-9.1-2.4c-4.6,0.1-9,2.8-11.3,6.9c-4.9,8.5-1.2,21,3.5,27.8c2.4,3.4,5.1,7.1,8.7,7c3.5-0.1,4.8-2.2,9.1-2.2
					c4.2,0,5.4,2.2,9.1,2.2c3.8-0.1,6.2-3.4,8.4-6.8c2.7-3.9,3.8-7.6,3.8-7.8C438.9,360.1,431.6,357.4,431.5,349z"/>
				<path class="st1" d="M424.6,328.5c1.9-2.4,3.2-5.6,2.8-8.9c-2.7,0.1-6.2,1.9-8.1,4.2c-1.7,2-3.3,5.4-2.9,8.5
					C419.5,332.6,422.6,330.8,424.6,328.5z"/>
			</g>
		</g>
		<g>
			<path class="st1" d="M482.4,374.4h-4.9l-2.7-8.5h-9.4l-2.6,8.5h-4.8l9.3-28.8h5.7L482.4,374.4z M474,362.3l-2.4-7.5
				c-0.3-0.8-0.7-2.6-1.5-5.4H470c-0.3,1.2-0.7,3-1.4,5.4l-2.4,7.5H474z"/>
			<path class="st1" d="M506.3,363.7c0,3.5-1,6.3-2.9,8.4c-1.7,1.8-3.8,2.7-6.4,2.7c-2.7,0-4.7-1-5.9-2.9h-0.1v10.9h-4.6v-22.4
				c0-2.2-0.1-4.5-0.2-6.8h4.1l0.3,3.3h0.1c1.5-2.5,3.9-3.7,7-3.7c2.5,0,4.5,1,6.1,2.9C505.5,358,506.3,360.6,506.3,363.7z
				 M501.6,363.9c0-2-0.5-3.7-1.4-5c-1-1.4-2.3-2.1-4-2.1c-1.1,0-2.2,0.4-3.1,1.1c-0.9,0.8-1.5,1.7-1.8,3c-0.1,0.6-0.2,1-0.2,1.4
				v3.5c0,1.5,0.5,2.8,1.4,3.8c0.9,1,2.1,1.6,3.6,1.6c1.7,0,3.1-0.7,4.1-2C501.1,367.8,501.6,366.1,501.6,363.9z"/>
			<path class="st1" d="M530.2,363.7c0,3.5-1,6.3-2.9,8.4c-1.7,1.8-3.8,2.7-6.4,2.7c-2.7,0-4.7-1-5.9-2.9H515v10.9h-4.6v-22.4
				c0-2.2-0.1-4.5-0.2-6.8h4.1l0.3,3.3h0.1c1.5-2.5,3.9-3.7,7-3.7c2.4,0,4.5,1,6.1,2.9C529.3,358,530.2,360.6,530.2,363.7z
				 M525.5,363.9c0-2-0.5-3.7-1.4-5c-1-1.4-2.3-2.1-4-2.1c-1.1,0-2.2,0.4-3.1,1.1c-0.9,0.8-1.5,1.7-1.8,3c-0.1,0.6-0.2,1-0.2,1.4
				v3.5c0,1.5,0.5,2.8,1.4,3.8c0.9,1,2.1,1.6,3.6,1.6c1.7,0,3.1-0.7,4.1-2C525,367.8,525.5,366.1,525.5,363.9z"/>
			<path class="st1" d="M556.9,366.3c0,2.4-0.8,4.4-2.6,6c-1.9,1.7-4.5,2.5-7.8,2.5c-3.1,0-5.6-0.6-7.5-1.8l1.1-3.8
				c2,1.2,4.2,1.8,6.7,1.8c1.7,0,3.1-0.4,4.1-1.2c1-0.8,1.5-1.8,1.5-3.1c0-1.2-0.4-2.2-1.2-3c-0.8-0.8-2.1-1.5-4-2.2
				c-5-1.9-7.6-4.6-7.6-8.3c0-2.4,0.9-4.3,2.7-5.8c1.8-1.5,4.1-2.3,7.1-2.3c2.6,0,4.8,0.5,6.5,1.4l-1.2,3.8
				c-1.6-0.9-3.5-1.3-5.5-1.3c-1.6,0-2.9,0.4-3.8,1.2c-0.8,0.7-1.2,1.6-1.2,2.6c0,1.1,0.4,2.1,1.3,2.8c0.8,0.7,2.2,1.4,4.2,2.2
				c2.5,1,4.3,2.2,5.5,3.5C556.3,362.6,556.9,364.3,556.9,366.3z"/>
			<path class="st1" d="M572.1,357H567v10.1c0,2.6,0.9,3.8,2.7,3.8c0.8,0,1.5-0.1,2.1-0.2l0.1,3.5c-0.9,0.3-2.1,0.5-3.6,0.5
				c-1.8,0-3.2-0.6-4.3-1.7c-1-1.1-1.5-3-1.5-5.6V357h-3v-3.5h3v-3.8l4.5-1.4v5.2h5.1V357z"/>
			<path class="st1" d="M595.1,363.8c0,3.2-0.9,5.8-2.7,7.9c-1.9,2.1-4.4,3.2-7.6,3.2c-3,0-5.5-1-7.3-3c-1.8-2-2.7-4.6-2.7-7.6
				c0-3.2,0.9-5.9,2.8-7.9c1.9-2.1,4.4-3.1,7.5-3.1c3,0,5.5,1,7.4,3C594.2,358.2,595.1,360.7,595.1,363.8z M590.3,363.9
				c0-1.9-0.4-3.6-1.2-4.9c-1-1.7-2.4-2.5-4.1-2.5c-1.9,0-3.3,0.8-4.2,2.5c-0.8,1.4-1.2,3-1.2,5c0,1.9,0.4,3.6,1.2,4.9
				c1,1.7,2.4,2.5,4.2,2.5c1.8,0,3.1-0.8,4.1-2.5C589.9,367.5,590.3,365.9,590.3,363.9z"/>
			<path class="st1" d="M610.1,357.6c-0.5-0.1-0.9-0.1-1.5-0.1c-1.6,0-2.9,0.6-3.8,1.8c-0.8,1.1-1.2,2.4-1.2,4.1v10.9h-4.6l0-14.2
				c0-2.4-0.1-4.6-0.2-6.5h4l0.2,4h0.1c0.5-1.4,1.3-2.5,2.3-3.3c1-0.7,2.1-1.1,3.3-1.1c0.4,0,0.8,0,1.2,0.1V357.6z"/>
			<path class="st1" d="M630.7,363c0,0.8-0.1,1.5-0.2,2.1h-13.8c0.1,2.1,0.7,3.6,2,4.7c1.2,1,2.7,1.5,4.5,1.5c2,0,3.9-0.3,5.6-1
				l0.7,3.2c-2,0.9-4.3,1.3-7,1.3c-3.2,0-5.7-0.9-7.6-2.8c-1.8-1.9-2.8-4.4-2.8-7.6c0-3.1,0.9-5.7,2.6-7.8c1.8-2.2,4.2-3.3,7.3-3.3
				c3,0,5.3,1.1,6.8,3.3C630.1,358.2,630.7,360.4,630.7,363z M626.3,361.8c0-1.4-0.3-2.5-0.9-3.5c-0.8-1.3-2-1.9-3.7-1.9
				c-1.5,0-2.7,0.6-3.7,1.9c-0.8,1-1.2,2.2-1.4,3.6H626.3z"/>
		</g>
		<g>
			<path class="st1" d="M460.3,321.1c0.9-0.2,2.1-0.3,3.6-0.3c1.9,0,3.2,0.4,4.1,1.2c0.8,0.7,1.3,1.8,1.3,3.1c0,1.3-0.4,2.4-1.1,3.1
				c-1,1.1-2.6,1.6-4.5,1.6c-0.6,0-1.1,0-1.5-0.1v5.8h-1.9V321.1z M462.2,328.1c0.4,0.1,0.9,0.2,1.6,0.2c2.3,0,3.7-1.1,3.7-3.1
				c0-1.9-1.4-2.9-3.4-2.9c-0.8,0-1.4,0.1-1.8,0.2V328.1z"/>
			<path class="st1" d="M472.2,328.3c0-1.2,0-2.3-0.1-3.3h1.7l0.1,2.1h0.1c0.5-1.4,1.6-2.3,2.9-2.3c0.2,0,0.4,0,0.5,0.1v1.8
				c-0.2,0-0.4-0.1-0.6-0.1c-1.3,0-2.3,1-2.6,2.4c0,0.3-0.1,0.6-0.1,0.9v5.6h-1.9V328.3z"/>
			<path class="st1" d="M489.3,330.2c0,3.9-2.7,5.6-5.2,5.6c-2.8,0-5-2.1-5-5.4c0-3.5,2.3-5.6,5.2-5.6
				C487.3,324.8,489.3,327,489.3,330.2z M481,330.3c0,2.3,1.3,4,3.2,4c1.8,0,3.2-1.7,3.2-4.1c0-1.8-0.9-4-3.1-4S481,328.3,481,330.3
				z M487,320.5l-2.6,3.1H483l1.9-3.1H487z"/>
			<path class="st1" d="M493,325l1.5,2.3c0.4,0.6,0.7,1.1,1.1,1.7h0.1c0.3-0.6,0.7-1.2,1-1.7l1.5-2.2h2.1l-3.6,5.1l3.7,5.4h-2.2
				l-1.5-2.4c-0.4-0.6-0.8-1.2-1.1-1.8h0c-0.3,0.6-0.7,1.2-1.1,1.8l-1.5,2.4h-2.1l3.7-5.3l-3.5-5.1H493z"/>
			<path class="st1" d="M505.1,322.1c0,0.6-0.5,1.2-1.2,1.2c-0.7,0-1.1-0.5-1.1-1.2c0-0.7,0.5-1.2,1.2-1.2
				C504.6,320.9,505.1,321.4,505.1,322.1z M502.9,335.5V325h1.9v10.5H502.9z"/>
			<path class="st1" d="M508.8,327.8c0-1.1,0-2-0.1-2.8h1.7l0.1,1.7h0.1c0.6-1,1.6-1.9,3.3-1.9c1.4,0,2.5,0.9,3,2.1h0
				c0.3-0.6,0.7-1,1.2-1.4c0.6-0.5,1.3-0.7,2.3-0.7c1.4,0,3.4,0.9,3.4,4.5v6.2h-1.9v-5.9c0-2-0.7-3.2-2.3-3.2
				c-1.1,0-1.9,0.8-2.3,1.7c-0.1,0.3-0.2,0.6-0.2,1v6.5h-1.9v-6.3c0-1.7-0.7-2.9-2.2-2.9c-1.2,0-2.1,1-2.4,1.9
				c-0.1,0.3-0.2,0.6-0.2,0.9v6.3h-1.9V327.8z"/>
			<path class="st1" d="M533.4,335.5l-0.2-1.3h-0.1c-0.6,0.8-1.7,1.6-3.2,1.6c-2.1,0-3.2-1.5-3.2-3c0-2.5,2.3-3.9,6.3-3.9v-0.2
				c0-0.9-0.2-2.4-2.4-2.4c-1,0-2,0.3-2.7,0.8l-0.4-1.3c0.9-0.6,2.1-0.9,3.4-0.9c3.2,0,4,2.2,4,4.3v3.9c0,0.9,0,1.8,0.2,2.5H533.4z
				 M533.1,330.1c-2.1,0-4.4,0.3-4.4,2.4c0,1.2,0.8,1.8,1.8,1.8c1.4,0,2.2-0.9,2.5-1.8c0.1-0.2,0.1-0.4,0.1-0.6V330.1z"/>
			<path class="st1" d="M538.7,327.8c0-1.1,0-2-0.1-2.8h1.7l0.1,1.7h0.1c0.6-1,1.6-1.9,3.3-1.9c1.4,0,2.5,0.9,3,2.1h0
				c0.3-0.6,0.7-1,1.2-1.4c0.6-0.5,1.3-0.7,2.3-0.7c1.4,0,3.4,0.9,3.4,4.5v6.2h-1.9v-5.9c0-2-0.7-3.2-2.3-3.2
				c-1.1,0-1.9,0.8-2.3,1.7c-0.1,0.3-0.2,0.6-0.2,1v6.5h-1.9v-6.3c0-1.7-0.7-2.9-2.2-2.9c-1.2,0-2.1,1-2.4,1.9
				c-0.1,0.3-0.2,0.6-0.2,0.9v6.3h-1.9V327.8z"/>
			<path class="st1" d="M558.6,330.6c0,2.6,1.7,3.6,3.6,3.6c1.4,0,2.2-0.2,2.9-0.5l0.3,1.4c-0.7,0.3-1.8,0.6-3.5,0.6
				c-3.2,0-5.1-2.1-5.1-5.3c0-3.2,1.9-5.6,4.9-5.6c3.4,0,4.3,3,4.3,4.9c0,0.4,0,0.7-0.1,0.9H558.6z M564.2,329.2
				c0-1.2-0.5-3.1-2.6-3.1c-1.9,0-2.8,1.8-2.9,3.1H564.2z"/>
			<path class="st1" d="M569.2,327.8c0-1.1,0-2-0.1-2.8h1.7l0.1,1.7h0c0.5-1,1.7-2,3.5-2c1.5,0,3.7,0.9,3.7,4.5v6.3h-1.9v-6
				c0-1.7-0.6-3.1-2.4-3.1c-1.3,0-2.2,0.9-2.6,1.9c-0.1,0.2-0.1,0.6-0.1,0.9v6.3h-1.9V327.8z"/>
			<path class="st1" d="M584.1,322v3h2.7v1.5h-2.7v5.6c0,1.3,0.4,2,1.4,2c0.5,0,0.9-0.1,1.1-0.1l0.1,1.4c-0.4,0.2-1,0.3-1.7,0.3
				c-0.9,0-1.6-0.3-2.1-0.8c-0.5-0.6-0.7-1.5-0.7-2.7v-5.7h-1.6V325h1.6v-2.5L584.1,322z"/>
			<path class="st1" d="M590.7,330.6c0,2.6,1.7,3.6,3.6,3.6c1.4,0,2.2-0.2,2.9-0.5l0.3,1.4c-0.7,0.3-1.8,0.6-3.5,0.6
				c-3.2,0-5.1-2.1-5.1-5.3c0-3.2,1.9-5.6,4.9-5.6c3.4,0,4.3,3,4.3,4.9c0,0.4,0,0.7-0.1,0.9H590.7z M596.3,329.2
				c0-1.2-0.5-3.1-2.6-3.1c-1.9,0-2.8,1.8-2.9,3.1H596.3z"/>
		</g>
	</g>
	<g>
		<g>
			<g>
				<path class="st0" d="M274.8,391.7H10.6C4.8,391.7,0,387,0,381.2v-63.4c0-5.8,4.8-10.6,10.6-10.6h264.3c5.8,0,10.6,4.8,10.6,10.6
					v63.4C285.4,387,280.7,391.7,274.8,391.7z"/>
			</g>
			<path class="st2" d="M144,353.1c-5,0-9,3.8-9,9c0,5.2,4.1,9,9,9c5,0,9-3.8,9-9C153.1,356.9,149,353.1,144,353.1z M144,367.6
				c-2.7,0-5.1-2.2-5.1-5.4c0-3.2,2.4-5.4,5.1-5.4c2.7,0,5.1,2.2,5.1,5.4C149.1,365.3,146.8,367.6,144,367.6z M124.4,353.1
				c-5,0-9,3.8-9,9c0,5.2,4.1,9,9,9c5,0,9-3.8,9-9C133.4,356.9,129.3,353.1,124.4,353.1z M124.4,367.6c-2.7,0-5.1-2.2-5.1-5.4
				c0-3.2,2.4-5.4,5.1-5.4c2.7,0,5.1,2.2,5.1,5.4C129.4,365.3,127.1,367.6,124.4,367.6z M100.9,355.9v3.8h9.1
				c-0.3,2.1-1,3.7-2.1,4.8c-1.3,1.3-3.4,2.8-7.1,2.8c-5.6,0-10-4.5-10-10.1c0-5.6,4.4-10.1,10-10.1c3,0,5.2,1.2,6.9,2.7l2.7-2.7
				c-2.3-2.2-5.3-3.8-9.6-3.8c-7.7,0-14.2,6.3-14.2,14c0,7.7,6.5,14,14.2,14c4.2,0,7.3-1.4,9.7-3.9c2.5-2.5,3.3-6.1,3.3-8.9
				c0-0.9-0.1-1.7-0.2-2.4H100.9z M196.7,358.9c-0.7-2-3-5.7-7.7-5.7c-4.6,0-8.5,3.6-8.5,9c0,5,3.8,9,8.9,9c4.1,0,6.5-2.5,7.5-4
				l-3.1-2c-1,1.5-2.4,2.5-4.4,2.5c-2,0-3.4-0.9-4.4-2.7l12-5L196.7,358.9z M184.5,361.9c-0.1-3.5,2.7-5.2,4.7-5.2
				c1.6,0,2.9,0.8,3.3,1.9L184.5,361.9z M174.7,370.6h4v-26.4h-4V370.6z M168.2,355.2h-0.1c-0.9-1.1-2.6-2-4.7-2c-4.5,0-8.6,4-8.6,9
				c0,5,4.1,9,8.6,9c2.1,0,3.8-1,4.7-2h0.1v1.3c0,3.4-1.8,5.3-4.8,5.3c-2.4,0-3.9-1.7-4.5-3.2l-3.4,1.4c1,2.4,3.6,5.3,8,5.3
				c4.6,0,8.5-2.7,8.5-9.4v-16.1h-3.7V355.2z M163.7,367.6c-2.7,0-5-2.3-5-5.4c0-3.2,2.3-5.5,5-5.5c2.7,0,4.8,2.3,4.8,5.5
				C168.5,365.3,166.4,367.6,163.7,367.6z M215.2,344.2h-9.5v26.4h3.9v-10h5.5c4.4,0,8.7-3.2,8.7-8.2S219.6,344.2,215.2,344.2z
				 M215.3,356.9h-5.6v-9.1h5.6c2.9,0,4.6,2.4,4.6,4.5C220,354.4,218.3,356.9,215.3,356.9z M239.7,353.1c-2.9,0-5.8,1.3-7,4l3.5,1.5
				c0.7-1.5,2.1-1.9,3.6-1.9c2,0,4.1,1.2,4.1,3.4v0.3c-0.7-0.4-2.2-1-4.1-1c-3.8,0-7.6,2.1-7.6,6c0,3.5,3.1,5.8,6.6,5.8
				c2.7,0,4.1-1.2,5-2.6h0.1v2h3.8v-10.1C247.7,355.7,244.2,353.1,239.7,353.1z M239.2,367.6c-1.3,0-3.1-0.6-3.1-2.2
				c0-2,2.2-2.8,4.2-2.8c1.7,0,2.6,0.4,3.6,0.9C243.6,365.8,241.5,367.6,239.2,367.6z M261.6,353.7l-4.5,11.5H257l-4.7-11.5H248
				l7,16l-4,8.9h4.1l10.8-24.9H261.6z M226.1,370.6h3.9v-26.4h-3.9V370.6z"/>
			<g>
				<g>
					<g>
						<path class="st3" d="M22.1,323.1c-0.6,0.7-1,1.7-1,3v46.7c0,1.3,0.4,2.3,1,3l0.2,0.2l26.2-26.2v-0.3v-0.3L22.2,323L22.1,323.1
							z"/>
						<linearGradient id="SVGID_2_" gradientUnits="userSpaceOnUse" x1="65.7257" y1="349.4453" x2="14.6126" y2="349.4453">
							<stop  offset="0" style="stop-color:#FFDF00"/>
							<stop  offset="0.4087" style="stop-color:#FBBC0E"/>
							<stop  offset="0.7754" style="stop-color:#F9A418"/>
							<stop  offset="1" style="stop-color:#F89B1C"/>
						</linearGradient>
						<path class="st4" d="M57.1,358.5l-8.7-8.7v-0.3v-0.3l8.7-8.7l0.2,0.1l10.3,5.9c3,1.7,3,4.4,0,6.1l-10.3,5.9L57.1,358.5z"/>
						<linearGradient id="SVGID_3_" gradientUnits="userSpaceOnUse" x1="52.4612" y1="354.2926" x2="4.3868" y2="402.3669">
							<stop  offset="0" style="stop-color:#EE4447"/>
							<stop  offset="1" style="stop-color:#C5166C"/>
						</linearGradient>
						<path class="st5" d="M57.3,358.4l-8.9-8.9l-26.3,26.3c1,1,2.6,1.2,4.4,0.1L57.3,358.4"/>
						<linearGradient id="SVGID_4_" gradientUnits="userSpaceOnUse" x1="4.1726" y1="296.3077" x2="43.424" y2="335.5591">
							<stop  offset="0" style="stop-color:#269E6F"/>
							<stop  offset="5.089003e-02" style="stop-color:#2BA06F"/>
							<stop  offset="0.4663" style="stop-color:#53B26B"/>
							<stop  offset="0.7971" style="stop-color:#6BBD69"/>
							<stop  offset="1" style="stop-color:#74C168"/>
						</linearGradient>
						<path class="st6" d="M57.3,340.5L26.5,323c-1.8-1-3.4-0.9-4.4,0.1l26.3,26.3L57.3,340.5z"/>
					</g>
				</g>
			</g>
		</g>
		<g>
			<path class="st2" d="M89.9,318.9c0.9-0.2,2.1-0.3,3.6-0.3c1.9,0,3.2,0.4,4.1,1.2c0.8,0.7,1.3,1.8,1.3,3.1c0,1.3-0.4,2.4-1.1,3.1
				c-1,1.1-2.6,1.6-4.5,1.6c-0.6,0-1.1,0-1.5-0.1v5.8h-1.9V318.9z M91.8,325.9c0.4,0.1,0.9,0.2,1.6,0.2c2.3,0,3.7-1.1,3.7-3.1
				c0-1.9-1.4-2.9-3.4-2.9c-0.8,0-1.4,0.1-1.8,0.2V325.9z"/>
			<path class="st2" d="M101.8,326.1c0-1.2,0-2.3-0.1-3.3h1.7l0.1,2.1h0.1c0.5-1.4,1.6-2.3,2.9-2.3c0.2,0,0.4,0,0.5,0.1v1.8
				c-0.2,0-0.4-0.1-0.6-0.1c-1.3,0-2.3,1-2.6,2.4c0,0.3-0.1,0.6-0.1,0.9v5.6h-1.9V326.1z"/>
			<path class="st2" d="M118.9,328c0,3.9-2.7,5.6-5.2,5.6c-2.8,0-5-2.1-5-5.4c0-3.5,2.3-5.6,5.2-5.6
				C116.9,322.6,118.9,324.8,118.9,328z M110.6,328.1c0,2.3,1.3,4,3.2,4c1.8,0,3.2-1.7,3.2-4.1c0-1.8-0.9-4-3.1-4
				S110.6,326.1,110.6,328.1z M116.6,318.3l-2.6,3.1h-1.4l1.9-3.1H116.6z"/>
			<path class="st2" d="M122.6,322.8l1.5,2.3c0.4,0.6,0.7,1.1,1.1,1.7h0.1c0.3-0.6,0.7-1.2,1-1.7l1.5-2.2h2.1l-3.6,5.1l3.7,5.4h-2.2
				l-1.5-2.4c-0.4-0.6-0.8-1.2-1.1-1.8h0c-0.3,0.6-0.7,1.2-1.1,1.8l-1.5,2.4h-2.1l3.7-5.3l-3.5-5.1H122.6z"/>
			<path class="st2" d="M134.6,319.9c0,0.6-0.5,1.2-1.2,1.2c-0.7,0-1.1-0.5-1.1-1.2c0-0.7,0.5-1.2,1.2-1.2
				C134.2,318.7,134.6,319.2,134.6,319.9z M132.5,333.3v-10.5h1.9v10.5H132.5z"/>
			<path class="st2" d="M138.3,325.7c0-1.1,0-2-0.1-2.8h1.7l0.1,1.7h0.1c0.6-1,1.6-1.9,3.3-1.9c1.4,0,2.5,0.9,3,2.1h0
				c0.3-0.6,0.7-1,1.2-1.4c0.6-0.5,1.3-0.7,2.3-0.7c1.4,0,3.4,0.9,3.4,4.5v6.2h-1.9v-5.9c0-2-0.7-3.2-2.3-3.2
				c-1.1,0-1.9,0.8-2.3,1.7c-0.1,0.3-0.2,0.6-0.2,1v6.5h-1.9V327c0-1.7-0.7-2.9-2.2-2.9c-1.2,0-2.1,1-2.4,1.9
				c-0.1,0.3-0.2,0.6-0.2,0.9v6.3h-1.9V325.7z"/>
			<path class="st2" d="M163,333.3l-0.2-1.3h-0.1c-0.6,0.8-1.7,1.6-3.2,1.6c-2.1,0-3.2-1.5-3.2-3c0-2.5,2.3-3.9,6.3-3.9v-0.2
				c0-0.9-0.2-2.4-2.4-2.4c-1,0-2,0.3-2.7,0.8l-0.4-1.3c0.9-0.6,2.1-0.9,3.4-0.9c3.2,0,4,2.2,4,4.3v3.9c0,0.9,0,1.8,0.2,2.5H163z
				 M162.7,328c-2.1,0-4.4,0.3-4.4,2.4c0,1.2,0.8,1.8,1.8,1.8c1.4,0,2.2-0.9,2.5-1.8c0.1-0.2,0.1-0.4,0.1-0.6V328z"/>
			<path class="st2" d="M168.3,325.7c0-1.1,0-2-0.1-2.8h1.7l0.1,1.7h0.1c0.6-1,1.6-1.9,3.3-1.9c1.4,0,2.5,0.9,3,2.1h0
				c0.3-0.6,0.7-1,1.2-1.4c0.6-0.5,1.3-0.7,2.3-0.7c1.4,0,3.4,0.9,3.4,4.5v6.2h-1.9v-5.9c0-2-0.7-3.2-2.3-3.2
				c-1.1,0-1.9,0.8-2.3,1.7c-0.1,0.3-0.2,0.6-0.2,1v6.5h-1.9V327c0-1.7-0.7-2.9-2.2-2.9c-1.2,0-2.1,1-2.4,1.9
				c-0.1,0.3-0.2,0.6-0.2,0.9v6.3h-1.9V325.7z"/>
			<path class="st2" d="M188.2,328.4c0,2.6,1.7,3.6,3.6,3.6c1.4,0,2.2-0.2,2.9-0.5l0.3,1.4c-0.7,0.3-1.8,0.6-3.5,0.6
				c-3.2,0-5.1-2.1-5.1-5.3c0-3.2,1.9-5.6,4.9-5.6c3.4,0,4.3,3,4.3,4.9c0,0.4,0,0.7-0.1,0.9H188.2z M193.8,327
				c0-1.2-0.5-3.1-2.6-3.1c-1.9,0-2.8,1.8-2.9,3.1H193.8z"/>
			<path class="st2" d="M198.7,325.7c0-1.1,0-2-0.1-2.8h1.7l0.1,1.7h0c0.5-1,1.7-2,3.5-2c1.5,0,3.7,0.9,3.7,4.5v6.3h-1.9v-6
				c0-1.7-0.6-3.1-2.4-3.1c-1.3,0-2.2,0.9-2.6,1.9c-0.1,0.2-0.1,0.6-0.1,0.9v6.3h-1.9V325.7z"/>
			<path class="st2" d="M213.7,319.8v3h2.7v1.5h-2.7v5.6c0,1.3,0.4,2,1.4,2c0.5,0,0.9-0.1,1.1-0.1l0.1,1.4c-0.4,0.2-1,0.3-1.7,0.3
				c-0.9,0-1.6-0.3-2.1-0.8c-0.5-0.6-0.7-1.5-0.7-2.7v-5.7h-1.6v-1.5h1.6v-2.5L213.7,319.8z"/>
			<path class="st2" d="M220.3,328.4c0,2.6,1.7,3.6,3.6,3.6c1.4,0,2.2-0.2,2.9-0.5l0.3,1.4c-0.7,0.3-1.8,0.6-3.5,0.6
				c-3.2,0-5.1-2.1-5.1-5.3c0-3.2,1.9-5.6,4.9-5.6c3.4,0,4.3,3,4.3,4.9c0,0.4,0,0.7-0.1,0.9H220.3z M225.9,327
				c0-1.2-0.5-3.1-2.6-3.1c-1.9,0-2.8,1.8-2.9,3.1H225.9z"/>
		</g>
	</g>
	<g>
		<path class="st0" d="M32,22.9h16.4c5.9,0,10.1,1,12.6,3c2.5,2,4.1,5.2,4.7,9.7c0.6,4.4,1,11.9,1,22.3c0,10.4-0.3,17.8-1,22.3
			c-0.6,4.5-2.2,7.7-4.7,9.7c-2.5,2-6.7,3-12.6,3H32V22.9z M48.4,81.8c2.1,0,3.5-0.4,4.3-1.2c0.7-0.8,1.3-2.7,1.5-5.9
			c0.3-3.1,0.4-8.8,0.4-16.9S54.5,44.2,54.2,41c-0.3-3.1-0.8-5.1-1.5-5.9C52,34.4,50.5,34,48.4,34h-4.3v47.8H48.4z"/>
		<path class="st0" d="M74.4,92.9v-70h27.9V34H86.7v18h13.6v11.1H86.7v18.7h15.6v11.1H74.4z"/>
		<path class="st0" d="M115.6,93.3c-2.8-0.3-5.2-0.7-7.1-1.3V81.9c5,0.5,8.8,0.7,11.5,0.7c1.9,0,3.4-0.1,4.4-0.4
			c1-0.2,1.8-0.7,2.4-1.4c0.9-1.2,1.4-3.7,1.4-7.5c0-3-0.1-5.1-0.4-6.3c-0.2-1.2-0.7-2.1-1.5-2.7c-0.7-0.6-2.1-1.1-4.1-1.5l-8.1-1.7
			c-2.6-0.5-4.3-2.3-5.3-5.3c-1-3-1.4-7.3-1.4-13c0-5.5,0.7-9.8,2-12.8c1.4-3,3.3-5.1,5.9-6.3c2.5-1.2,5.8-1.7,9.8-1.7
			c3.1,0,5.8,0.2,8.3,0.6c2.5,0.4,4.1,0.7,4.7,1v10.2c-0.7-0.1-1.9-0.3-3.7-0.5c-1.8-0.2-3.7-0.3-5.7-0.3c-2.2,0-3.9,0.2-5,0.5
			c-1.2,0.3-2.1,0.8-2.6,1.5c-0.5,0.7-0.9,1.6-1.1,2.6c-0.2,1.1-0.3,2.6-0.3,4.7c0,2.4,0.1,4.1,0.3,5.1c0.2,1.1,0.5,1.8,1.1,2.3
			c0.5,0.5,1.4,0.8,2.6,1.1l7,1.6c2.1,0.4,3.8,1.1,5.2,2.1c1.4,1,2.5,2.8,3.3,5.3c0.7,2.4,1.1,6.2,1.1,11.2c0,6.2-0.6,10.9-1.9,14.1
			c-1.3,3.3-3.1,5.5-5.5,6.6c-2.4,1.2-5.6,1.7-9.7,1.7C120.9,93.7,118.4,93.6,115.6,93.3z"/>
		<path class="st0" d="M168.8,93.3c-1.8,0.3-3.5,0.5-5,0.5c-5.4,0-9.3-1-11.8-3.1c-2.5-2.1-4.2-5.5-5-10.4
			c-0.8-4.8-1.2-12.3-1.2-22.3c0-9.9,0.4-17.3,1.3-22.2c0.8-4.9,2.5-8.4,5-10.5c2.5-2.1,6.4-3.1,11.7-3.1c1.8,0,3.6,0.1,5.3,0.4
			c1.7,0.3,3,0.6,3.9,1.1v10.3c-2.6-0.5-5-0.7-7-0.7c-2.6,0-4.5,0.5-5.5,1.5c-1.1,1-1.7,3.1-2,6.3c-0.3,3.2-0.5,8.9-0.5,17
			s0.2,13.8,0.5,17c0.3,3.2,1,5.3,2,6.3c1.1,1,2.9,1.5,5.5,1.5c2.6,0,5-0.2,7.2-0.7v10.2C172.1,92.6,170.6,93,168.8,93.3z"/>
		<path class="st0" d="M205.1,92.9l-2.3-15.4h-12l-2.3,15.4h-12.1l11.5-70h18.1l11.6,70H205.1z M197.1,35.5h-0.6L192,66.8h9.6
			L197.1,35.5z"/>
		<path class="st0" d="M246.7,92.9L240.8,68h-0.2H235v24.9h-12.3v-70h19.2c4.5,0,8,0.8,10.2,2.5c2.3,1.7,3.8,4.1,4.5,7.2
			c0.7,3.1,1.1,7.4,1.1,12.7c0,5.3-0.4,9.5-1.1,12.7c-0.7,3.2-2.3,5.5-4.8,7.2l7.4,27.7H246.7z M243.7,56.3c0.8-0.6,1.3-1.6,1.5-3.2
			c0.2-1.6,0.4-4.1,0.4-7.5c0-3.5-0.1-6-0.4-7.5c-0.2-1.6-0.7-2.6-1.5-3.2c-0.8-0.6-2.1-0.9-3.8-0.9H235v23.2h4.9
			C241.7,57.2,242.9,56.9,243.7,56.3z"/>
		<path class="st0" d="M282.5,63.6V52.8h16.3v38.8c-2,0.7-4.4,1.2-7.2,1.6s-5.6,0.6-8.2,0.6c-5.4,0-9.5-0.9-12.1-2.8
			c-2.6-1.9-4.5-5.3-5.5-10.3s-1.5-12.5-1.5-22.6c0-10.1,0.5-17.7,1.6-22.6c1.1-5,3.1-8.4,5.9-10.3c2.8-1.9,7.1-2.8,12.8-2.8
			c2.2,0,4.6,0.2,7.3,0.6c2.7,0.4,5,0.8,6.9,1.4v10.3c-4.8-0.7-8.4-1.1-10.8-1.1c-3.8,0-6.4,0.4-7.8,1.2s-2.4,2.8-3,6.1
			c-0.5,3.3-0.8,9.1-0.8,17.4c0,7.9,0.2,13.5,0.5,16.8c0.3,3.3,0.9,5.4,1.9,6.6c0.9,1.1,2.6,1.7,5,1.7c1.7,0,3.1-0.1,4.2-0.4V63.6
			H282.5z"/>
		<path class="st0" d="M332.2,92.9l-2.3-15.4h-12l-2.3,15.4h-12.1l11.5-70H333l11.6,70H332.2z M324.1,35.5h-0.6l-4.5,31.2h9.6
			L324.1,35.5z"/>
		<path class="st0" d="M134.5,215v-70h12.3v58.7h14V215H134.5z"/>
		<path class="st0" d="M191.5,215l-2.3-15.4h-12l-2.3,15.4h-12.1l11.5-70h18.1l11.6,70H191.5z M183.4,157.6h-0.6l-4.5,31.2h9.6
			L183.4,157.6z"/>
		<path class="st0" d="M249.7,215l-2.3-15.4h-12L233,215h-12.1l11.5-70h18.1l11.6,70H249.7z M241.6,157.6H241l-4.5,31.2h9.6
			L241.6,157.6z"/>
		<path class="st0" d="M267.3,145h18.8c4.5,0,8,0.9,10.3,2.6c2.3,1.8,3.8,4.3,4.6,7.6c0.7,3.3,1.1,7.7,1.1,13.3
			c0,5.4-0.4,9.7-1.1,13c-0.7,3.3-2.2,5.9-4.5,7.8c-2.3,1.9-5.8,2.8-10.4,2.8h-6.5V215h-12.3V145z M284.1,181c1.8,0,3-0.3,3.8-1
			c0.8-0.6,1.3-1.8,1.5-3.4c0.2-1.6,0.4-4.3,0.4-8.1c0-3.8-0.1-6.5-0.4-8.1c-0.2-1.6-0.7-2.7-1.5-3.4c-0.8-0.6-2.1-0.9-3.8-0.9h-4.5
			V181H284.1z"/>
		<path class="st0" d="M332,215l-8.1-29.6h-3.5V215h-12.3v-70h12.3v28.7h3.5l8.3-28.7h12.5l-11.3,33.8l11.4,36.2H332z"/>
	</g>
	<path class="st0" d="M633.4,232h-208c-6.6,0-12-5.4-12-12V12c0-6.6,5.4-12,12-12h208c6.6,0,12,5.4,12,12v208
		C645.4,226.6,640,232,633.4,232z"/>
	<g>
		<g>
			<rect id="p" x="445.4" y="32" width="6.7" height="6.7"/>
		</g>
		<g>
			<rect id="p_1_" x="445.4" y="38.7" width="6.7" height="6.7"/>
		</g>
		<g>
			<rect id="p_2_" x="445.4" y="45.4" width="6.7" height="6.7"/>
		</g>
		<g>
			<rect id="p_3_" x="445.4" y="52.2" width="6.7" height="6.7"/>
		</g>
		<g>
			<rect id="p_4_" x="445.4" y="58.9" width="6.7" height="6.7"/>
		</g>
		<g>
			<rect id="p_5_" x="445.4" y="65.6" width="6.7" height="6.7"/>
		</g>
		<g>
			<rect id="p_6_" x="445.4" y="72.3" width="6.7" height="6.7"/>
		</g>
		<g>
			<rect id="p_7_" x="445.4" y="85.8" width="6.7" height="6.7"/>
		</g>
		<g>
			<rect id="p_8_" x="445.4" y="153" width="6.7" height="6.7"/>
		</g>
		<g>
			<rect id="p_9_" x="445.4" y="159.7" width="6.7" height="6.7"/>
		</g>
		<g>
			<rect id="p_10_" x="445.4" y="166.4" width="6.7" height="6.7"/>
		</g>
		<g>
			<rect id="p_11_" x="445.4" y="173.1" width="6.7" height="6.7"/>
		</g>
		<g>
			<rect id="p_12_" x="445.4" y="179.8" width="6.7" height="6.7"/>
		</g>
		<g>
			<rect id="p_13_" x="445.4" y="186.6" width="6.7" height="6.7"/>
		</g>
		<g>
			<rect id="p_14_" x="445.4" y="193.3" width="6.7" height="6.7"/>
		</g>
		<g>
			<rect id="p_15_" x="452.1" y="32" width="6.7" height="6.7"/>
		</g>
		<g>
			<rect id="p_16_" x="452.1" y="72.3" width="6.7" height="6.7"/>
		</g>
		<g>
			<rect id="p_17_" x="452.1" y="85.8" width="6.7" height="6.7"/>
		</g>
		<g>
			<rect id="p_18_" x="452.1" y="92.5" width="6.7" height="6.7"/>
		</g>
		<g>
			<rect id="p_19_" x="452.1" y="99.2" width="6.7" height="6.7"/>
		</g>
		<g>
			<rect id="p_20_" x="452.1" y="112.6" width="6.7" height="6.7"/>
		</g>
		<g>
			<rect id="p_21_" x="452.1" y="126.1" width="6.7" height="6.7"/>
		</g>
		<g>
			<rect id="p_22_" x="452.1" y="132.8" width="6.7" height="6.7"/>
		</g>
		<g>
			<rect id="p_23_" x="452.1" y="139.5" width="6.7" height="6.7"/>
		</g>
		<g>
			<rect id="p_24_" x="452.1" y="153" width="6.7" height="6.7"/>
		</g>
		<g>
			<rect id="p_25_" x="452.1" y="193.3" width="6.7" height="6.7"/>
		</g>
		<g>
			<rect id="p_26_" x="458.8" y="32" width="6.7" height="6.7"/>
		</g>
		<g>
			<rect id="p_27_" x="458.8" y="45.4" width="6.7" height="6.7"/>
		</g>
		<g>
			<rect id="p_28_" x="458.8" y="52.2" width="6.7" height="6.7"/>
		</g>
		<g>
			<rect id="p_29_" x="458.8" y="58.9" width="6.7" height="6.7"/>
		</g>
		<g>
			<rect id="p_30_" x="458.8" y="72.3" width="6.7" height="6.7"/>
		</g>
		<g>
			<rect id="p_31_" x="458.8" y="85.8" width="6.7" height="6.7"/>
		</g>
		<g>
			<rect id="p_32_" x="458.8" y="99.2" width="6.7" height="6.7"/>
		</g>
		<g>
			<rect id="p_33_" x="458.8" y="105.9" width="6.7" height="6.7"/>
		</g>
		<g>
			<rect id="p_34_" x="458.8" y="119.4" width="6.7" height="6.7"/>
		</g>
		<g>
			<rect id="p_35_" x="458.8" y="139.5" width="6.7" height="6.7"/>
		</g>
		<g>
			<rect id="p_36_" x="458.8" y="153" width="6.7" height="6.7"/>
		</g>
		<g>
			<rect id="p_37_" x="458.8" y="166.4" width="6.7" height="6.7"/>
		</g>
		<g>
			<rect id="p_38_" x="458.8" y="173.1" width="6.7" height="6.7"/>
		</g>
		<g>
			<rect id="p_39_" x="458.8" y="179.8" width="6.7" height="6.7"/>
		</g>
		<g>
			<rect id="p_40_" x="458.8" y="193.3" width="6.7" height="6.7"/>
		</g>
		<g>
			<rect id="p_41_" x="465.6" y="32" width="6.7" height="6.7"/>
		</g>
		<g>
			<rect id="p_42_" x="465.6" y="45.4" width="6.7" height="6.7"/>
		</g>
		<g>
			<rect id="p_43_" x="465.6" y="52.2" width="6.7" height="6.7"/>
		</g>
		<g>
			<rect id="p_44_" x="465.6" y="58.9" width="6.7" height="6.7"/>
		</g>
		<g>
			<rect id="p_45_" x="465.6" y="72.3" width="6.7" height="6.7"/>
		</g>
		<g>
			<rect id="p_46_" x="465.6" y="85.8" width="6.7" height="6.7"/>
		</g>
		<g>
			<rect id="p_47_" x="465.6" y="92.5" width="6.7" height="6.7"/>
		</g>
		<g>
			<rect id="p_48_" x="465.6" y="105.9" width="6.7" height="6.7"/>
		</g>
		<g>
			<rect id="p_49_" x="465.6" y="112.6" width="6.7" height="6.7"/>
		</g>
		<g>
			<rect id="p_50_" x="465.6" y="132.8" width="6.7" height="6.7"/>
		</g>
		<g>
			<rect id="p_51_" x="465.6" y="153" width="6.7" height="6.7"/>
		</g>
		<g>
			<rect id="p_52_" x="465.6" y="166.4" width="6.7" height="6.7"/>
		</g>
		<g>
			<rect id="p_53_" x="465.6" y="173.1" width="6.7" height="6.7"/>
		</g>
		<g>
			<rect id="p_54_" x="465.6" y="179.8" width="6.7" height="6.7"/>
		</g>
		<g>
			<rect id="p_55_" x="465.6" y="193.3" width="6.7" height="6.7"/>
		</g>
		<g>
			<rect id="p_56_" x="472.3" y="32" width="6.7" height="6.7"/>
		</g>
		<g>
			<rect id="p_57_" x="472.3" y="45.4" width="6.7" height="6.7"/>
		</g>
		<g>
			<rect id="p_58_" x="472.3" y="52.2" width="6.7" height="6.7"/>
		</g>
		<g>
			<rect id="p_59_" x="472.3" y="58.9" width="6.7" height="6.7"/>
		</g>
		<g>
			<rect id="p_60_" x="472.3" y="72.3" width="6.7" height="6.7"/>
		</g>
		<g>
			<rect id="p_61_" x="472.3" y="85.8" width="6.7" height="6.7"/>
		</g>
		<g>
			<rect id="p_62_" x="472.3" y="99.2" width="6.7" height="6.7"/>
		</g>
		<g>
			<rect id="p_63_" x="472.3" y="105.9" width="6.7" height="6.7"/>
		</g>
		<g>
			<rect id="p_64_" x="472.3" y="119.4" width="6.7" height="6.7"/>
		</g>
		<g>
			<rect id="p_65_" x="472.3" y="126.1" width="6.7" height="6.7"/>
		</g>
		<g>
			<rect id="p_66_" x="472.3" y="153" width="6.7" height="6.7"/>
		</g>
		<g>
			<rect id="p_67_" x="472.3" y="166.4" width="6.7" height="6.7"/>
		</g>
		<g>
			<rect id="p_68_" x="472.3" y="173.1" width="6.7" height="6.7"/>
		</g>
		<g>
			<rect id="p_69_" x="472.3" y="179.8" width="6.7" height="6.7"/>
		</g>
		<g>
			<rect id="p_70_" x="472.3" y="193.3" width="6.7" height="6.7"/>
		</g>
		<g>
			<rect id="p_71_" x="479" y="32" width="6.7" height="6.7"/>
		</g>
		<g>
			<rect id="p_72_" x="479" y="72.3" width="6.7" height="6.7"/>
		</g>
		<g>
			<rect id="p_73_" x="479" y="99.2" width="6.7" height="6.7"/>
		</g>
		<g>
			<rect id="p_74_" x="479" y="153" width="6.7" height="6.7"/>
		</g>
		<g>
			<rect id="p_75_" x="479" y="193.3" width="6.7" height="6.7"/>
		</g>
		<g>
			<rect id="p_76_" x="485.7" y="32" width="6.7" height="6.7"/>
		</g>
		<g>
			<rect id="p_77_" x="485.7" y="38.7" width="6.7" height="6.7"/>
		</g>
		<g>
			<rect id="p_78_" x="485.7" y="45.4" width="6.7" height="6.7"/>
		</g>
		<g>
			<rect id="p_79_" x="485.7" y="52.2" width="6.7" height="6.7"/>
		</g>
		<g>
			<rect id="p_80_" x="485.7" y="58.9" width="6.7" height="6.7"/>
		</g>
		<g>
			<rect id="p_81_" x="485.7" y="65.6" width="6.7" height="6.7"/>
		</g>
		<g>
			<rect id="p_82_" x="485.7" y="72.3" width="6.7" height="6.7"/>
		</g>
		<g>
			<rect id="p_83_" x="485.7" y="85.8" width="6.7" height="6.7"/>
		</g>
		<g>
			<rect id="p_84_" x="485.7" y="99.2" width="6.7" height="6.7"/>
		</g>
		<g>
			<rect id="p_85_" x="485.7" y="112.6" width="6.7" height="6.7"/>
		</g>
		<g>
			<rect id="p_86_" x="485.7" y="126.1" width="6.7" height="6.7"/>
		</g>
		<g>
			<rect id="p_87_" x="485.7" y="139.5" width="6.7" height="6.7"/>
		</g>
		<g>
			<rect id="p_88_" x="485.7" y="153" width="6.7" height="6.7"/>
		</g>
		<g>
			<rect id="p_89_" x="485.7" y="159.7" width="6.7" height="6.7"/>
		</g>
		<g>
			<rect id="p_90_" x="485.7" y="166.4" width="6.7" height="6.7"/>
		</g>
		<g>
			<rect id="p_91_" x="485.7" y="173.1" width="6.7" height="6.7"/>
		</g>
		<g>
			<rect id="p_92_" x="485.7" y="179.8" width="6.7" height="6.7"/>
		</g>
		<g>
			<rect id="p_93_" x="485.7" y="186.6" width="6.7" height="6.7"/>
		</g>
		<g>
			<rect id="p_94_" x="485.7" y="193.3" width="6.7" height="6.7"/>
		</g>
		<g>
			<rect id="p_95_" x="492.4" y="85.8" width="6.7" height="6.7"/>
		</g>
		<g>
			<rect id="p_96_" x="492.4" y="105.9" width="6.7" height="6.7"/>
		</g>
		<g>
			<rect id="p_97_" x="492.4" y="126.1" width="6.7" height="6.7"/>
		</g>
		<g>
			<rect id="p_98_" x="492.4" y="139.5" width="6.7" height="6.7"/>
		</g>
		<g>
			<rect id="p_99_" x="499.2" y="38.7" width="6.7" height="6.7"/>
		</g>
		<g>
			<rect id="p_100_" x="499.2" y="52.2" width="6.7" height="6.7"/>
		</g>
		<g>
			<rect id="p_101_" x="499.2" y="65.6" width="6.7" height="6.7"/>
		</g>
		<g>
			<rect id="p_102_" x="499.2" y="72.3" width="6.7" height="6.7"/>
		</g>
		<g>
			<rect id="p_103_" x="499.2" y="85.8" width="6.7" height="6.7"/>
		</g>
		<g>
			<rect id="p_104_" x="499.2" y="92.5" width="6.7" height="6.7"/>
		</g>
		<g>
			<rect id="p_105_" x="499.2" y="99.2" width="6.7" height="6.7"/>
		</g>
		<g>
			<rect id="p_106_" x="499.2" y="119.4" width="6.7" height="6.7"/>
		</g>
		<g>
			<rect id="p_107_" x="499.2" y="126.1" width="6.7" height="6.7"/>
		</g>
		<g>
			<rect id="p_108_" x="499.2" y="146.2" width="6.7" height="6.7"/>
		</g>
		<g>
			<rect id="p_109_" x="499.2" y="153" width="6.7" height="6.7"/>
		</g>
		<g>
			<rect id="p_110_" x="499.2" y="166.4" width="6.7" height="6.7"/>
		</g>
		<g>
			<rect id="p_111_" x="499.2" y="173.1" width="6.7" height="6.7"/>
		</g>
		<g>
			<rect id="p_112_" x="499.2" y="179.8" width="6.7" height="6.7"/>
		</g>
		<g>
			<rect id="p_113_" x="499.2" y="186.6" width="6.7" height="6.7"/>
		</g>
		<g>
			<rect id="p_114_" x="499.2" y="193.3" width="6.7" height="6.7"/>
		</g>
		<g>
			<rect id="p_115_" x="505.9" y="52.2" width="6.7" height="6.7"/>
		</g>
		<g>
			<rect id="p_116_" x="505.9" y="58.9" width="6.7" height="6.7"/>
		</g>
		<g>
			<rect id="p_117_" x="505.9" y="65.6" width="6.7" height="6.7"/>
		</g>
		<g>
			<rect id="p_118_" x="505.9" y="79" width="6.7" height="6.7"/>
		</g>
		<g>
			<rect id="p_119_" x="505.9" y="85.8" width="6.7" height="6.7"/>
		</g>
		<g>
			<rect id="p_120_" x="505.9" y="112.6" width="6.7" height="6.7"/>
		</g>
		<g>
			<rect id="p_121_" x="505.9" y="119.4" width="6.7" height="6.7"/>
		</g>
		<g>
			<rect id="p_122_" x="505.9" y="153" width="6.7" height="6.7"/>
		</g>
		<g>
			<rect id="p_123_" x="505.9" y="179.8" width="6.7" height="6.7"/>
		</g>
		<g>
			<rect id="p_124_" x="512.6" y="32" width="6.7" height="6.7"/>
		</g>
		<g>
			<rect id="p_125_" x="512.6" y="38.7" width="6.7" height="6.7"/>
		</g>
		<g>
			<rect id="p_126_" x="512.6" y="52.2" width="6.7" height="6.7"/>
		</g>
		<g>
			<rect id="p_127_" x="512.6" y="72.3" width="6.7" height="6.7"/>
		</g>
		<g>
			<rect id="p_128_" x="512.6" y="79" width="6.7" height="6.7"/>
		</g>
		<g>
			<rect id="p_129_" x="512.6" y="92.5" width="6.7" height="6.7"/>
		</g>
		<g>
			<rect id="p_130_" x="512.6" y="99.2" width="6.7" height="6.7"/>
		</g>
		<g>
			<rect id="p_131_" x="512.6" y="112.6" width="6.7" height="6.7"/>
		</g>
		<g>
			<rect id="p_132_" x="512.6" y="126.1" width="6.7" height="6.7"/>
		</g>
		<g>
			<rect id="p_133_" x="512.6" y="139.5" width="6.7" height="6.7"/>
		</g>
		<g>
			<rect id="p_134_" x="512.6" y="159.7" width="6.7" height="6.7"/>
		</g>
		<g>
			<rect id="p_135_" x="512.6" y="166.4" width="6.7" height="6.7"/>
		</g>
		<g>
			<rect id="p_136_" x="519.3" y="65.6" width="6.7" height="6.7"/>
		</g>
		<g>
			<rect id="p_137_" x="519.3" y="79" width="6.7" height="6.7"/>
		</g>
		<g>
			<rect id="p_138_" x="519.3" y="85.8" width="6.7" height="6.7"/>
		</g>
		<g>
			<rect id="p_139_" x="519.3" y="126.1" width="6.7" height="6.7"/>
		</g>
		<g>
			<rect id="p_140_" x="519.3" y="132.8" width="6.7" height="6.7"/>
		</g>
		<g>
			<rect id="p_141_" x="519.3" y="139.5" width="6.7" height="6.7"/>
		</g>
		<g>
			<rect id="p_142_" x="519.3" y="179.8" width="6.7" height="6.7"/>
		</g>
		<g>
			<rect id="p_143_" x="519.3" y="186.6" width="6.7" height="6.7"/>
		</g>
		<g>
			<rect id="p_144_" x="519.3" y="193.3" width="6.7" height="6.7"/>
		</g>
		<g>
			<rect id="p_145_" x="526" y="32" width="6.7" height="6.7"/>
		</g>
		<g>
			<rect id="p_146_" x="526" y="45.4" width="6.7" height="6.7"/>
		</g>
		<g>
			<rect id="p_147_" x="526" y="52.2" width="6.7" height="6.7"/>
		</g>
		<g>
			<rect id="p_148_" x="526" y="65.6" width="6.7" height="6.7"/>
		</g>
		<g>
			<rect id="p_149_" x="526" y="72.3" width="6.7" height="6.7"/>
		</g>
		<g>
			<rect id="p_150_" x="526" y="92.5" width="6.7" height="6.7"/>
		</g>
		<g>
			<rect id="p_151_" x="526" y="105.9" width="6.7" height="6.7"/>
		</g>
		<g>
			<rect id="p_152_" x="526" y="112.6" width="6.7" height="6.7"/>
		</g>
		<g>
			<rect id="p_153_" x="526" y="126.1" width="6.7" height="6.7"/>
		</g>
		<g>
			<rect id="p_154_" x="526" y="146.2" width="6.7" height="6.7"/>
		</g>
		<g>
			<rect id="p_155_" x="526" y="159.7" width="6.7" height="6.7"/>
		</g>
		<g>
			<rect id="p_156_" x="526" y="166.4" width="6.7" height="6.7"/>
		</g>
		<g>
			<rect id="p_157_" x="526" y="179.8" width="6.7" height="6.7"/>
		</g>
		<g>
			<rect id="p_158_" x="526" y="193.3" width="6.7" height="6.7"/>
		</g>
		<g>
			<rect id="p_159_" x="532.8" y="32" width="6.7" height="6.7"/>
		</g>
		<g>
			<rect id="p_160_" x="532.8" y="38.7" width="6.7" height="6.7"/>
		</g>
		<g>
			<rect id="p_161_" x="532.8" y="52.2" width="6.7" height="6.7"/>
		</g>
		<g>
			<rect id="p_162_" x="532.8" y="58.9" width="6.7" height="6.7"/>
		</g>
		<g>
			<rect id="p_163_" x="532.8" y="85.8" width="6.7" height="6.7"/>
		</g>
		<g>
			<rect id="p_164_" x="532.8" y="92.5" width="6.7" height="6.7"/>
		</g>
		<g>
			<rect id="p_165_" x="532.8" y="99.2" width="6.7" height="6.7"/>
		</g>
		<g>
			<rect id="p_166_" x="532.8" y="112.6" width="6.7" height="6.7"/>
		</g>
		<g>
			<rect id="p_167_" x="532.8" y="139.5" width="6.7" height="6.7"/>
		</g>
		<g>
			<rect id="p_168_" x="532.8" y="153" width="6.7" height="6.7"/>
		</g>
		<g>
			<rect id="p_169_" x="532.8" y="166.4" width="6.7" height="6.7"/>
		</g>
		<g>
			<rect id="p_170_" x="532.8" y="173.1" width="6.7" height="6.7"/>
		</g>
		<g>
			<rect id="p_171_" x="532.8" y="179.8" width="6.7" height="6.7"/>
		</g>
		<g>
			<rect id="p_172_" x="539.5" y="38.7" width="6.7" height="6.7"/>
		</g>
		<g>
			<rect id="p_173_" x="539.5" y="45.4" width="6.7" height="6.7"/>
		</g>
		<g>
			<rect id="p_174_" x="539.5" y="52.2" width="6.7" height="6.7"/>
		</g>
		<g>
			<rect id="p_175_" x="539.5" y="65.6" width="6.7" height="6.7"/>
		</g>
		<g>
			<rect id="p_176_" x="539.5" y="72.3" width="6.7" height="6.7"/>
		</g>
		<g>
			<rect id="p_177_" x="539.5" y="79" width="6.7" height="6.7"/>
		</g>
		<g>
			<rect id="p_178_" x="539.5" y="99.2" width="6.7" height="6.7"/>
		</g>
		<g>
			<rect id="p_179_" x="539.5" y="112.6" width="6.7" height="6.7"/>
		</g>
		<g>
			<rect id="p_180_" x="539.5" y="132.8" width="6.7" height="6.7"/>
		</g>
		<g>
			<rect id="p_181_" x="539.5" y="139.5" width="6.7" height="6.7"/>
		</g>
		<g>
			<rect id="p_182_" x="539.5" y="146.2" width="6.7" height="6.7"/>
		</g>
		<g>
			<rect id="p_183_" x="539.5" y="179.8" width="6.7" height="6.7"/>
		</g>
		<g>
			<rect id="p_184_" x="539.5" y="186.6" width="6.7" height="6.7"/>
		</g>
		<g>
			<rect id="p_185_" x="546.2" y="38.7" width="6.7" height="6.7"/>
		</g>
		<g>
			<rect id="p_186_" x="546.2" y="52.2" width="6.7" height="6.7"/>
		</g>
		<g>
			<rect id="p_187_" x="546.2" y="65.6" width="6.7" height="6.7"/>
		</g>
		<g>
			<rect id="p_188_" x="546.2" y="99.2" width="6.7" height="6.7"/>
		</g>
		<g>
			<rect id="p_189_" x="546.2" y="126.1" width="6.7" height="6.7"/>
		</g>
		<g>
			<rect id="p_190_" x="546.2" y="132.8" width="6.7" height="6.7"/>
		</g>
		<g>
			<rect id="p_191_" x="546.2" y="139.5" width="6.7" height="6.7"/>
		</g>
		<g>
			<rect id="p_192_" x="546.2" y="146.2" width="6.7" height="6.7"/>
		</g>
		<g>
			<rect id="p_193_" x="546.2" y="166.4" width="6.7" height="6.7"/>
		</g>
		<g>
			<rect id="p_194_" x="546.2" y="179.8" width="6.7" height="6.7"/>
		</g>
		<g>
			<rect id="p_195_" x="546.2" y="186.6" width="6.7" height="6.7"/>
		</g>
		<g>
			<rect id="p_196_" x="552.9" y="32" width="6.7" height="6.7"/>
		</g>
		<g>
			<rect id="p_197_" x="552.9" y="38.7" width="6.7" height="6.7"/>
		</g>
		<g>
			<rect id="p_198_" x="552.9" y="58.9" width="6.7" height="6.7"/>
		</g>
		<g>
			<rect id="p_199_" x="552.9" y="72.3" width="6.7" height="6.7"/>
		</g>
		<g>
			<rect id="p_200_" x="552.9" y="79" width="6.7" height="6.7"/>
		</g>
		<g>
			<rect id="p_201_" x="552.9" y="112.6" width="6.7" height="6.7"/>
		</g>
		<g>
			<rect id="p_202_" x="552.9" y="119.4" width="6.7" height="6.7"/>
		</g>
		<g>
			<rect id="p_203_" x="552.9" y="126.1" width="6.7" height="6.7"/>
		</g>
		<g>
			<rect id="p_204_" x="552.9" y="139.5" width="6.7" height="6.7"/>
		</g>
		<g>
			<rect id="p_205_" x="552.9" y="146.2" width="6.7" height="6.7"/>
		</g>
		<g>
			<rect id="p_206_" x="552.9" y="153" width="6.7" height="6.7"/>
		</g>
		<g>
			<rect id="p_207_" x="552.9" y="159.7" width="6.7" height="6.7"/>
		</g>
		<g>
			<rect id="p_208_" x="552.9" y="166.4" width="6.7" height="6.7"/>
		</g>
		<g>
			<rect id="p_209_" x="552.9" y="179.8" width="6.7" height="6.7"/>
		</g>
		<g>
			<rect id="p_210_" x="552.9" y="186.6" width="6.7" height="6.7"/>
		</g>
		<g>
			<rect id="p_211_" x="559.6" y="85.8" width="6.7" height="6.7"/>
		</g>
		<g>
			<rect id="p_212_" x="559.6" y="92.5" width="6.7" height="6.7"/>
		</g>
		<g>
			<rect id="p_213_" x="559.6" y="99.2" width="6.7" height="6.7"/>
		</g>
		<g>
			<rect id="p_214_" x="559.6" y="112.6" width="6.7" height="6.7"/>
		</g>
		<g>
			<rect id="p_215_" x="559.6" y="132.8" width="6.7" height="6.7"/>
		</g>
		<g>
			<rect id="p_216_" x="559.6" y="139.5" width="6.7" height="6.7"/>
		</g>
		<g>
			<rect id="p_217_" x="559.6" y="166.4" width="6.7" height="6.7"/>
		</g>
		<g>
			<rect id="p_218_" x="559.6" y="173.1" width="6.7" height="6.7"/>
		</g>
		<g>
			<rect id="p_219_" x="559.6" y="186.6" width="6.7" height="6.7"/>
		</g>
		<g>
			<rect id="p_220_" x="566.4" y="32" width="6.7" height="6.7"/>
		</g>
		<g>
			<rect id="p_221_" x="566.4" y="38.7" width="6.7" height="6.7"/>
		</g>
		<g>
			<rect id="p_222_" x="566.4" y="45.4" width="6.7" height="6.7"/>
		</g>
		<g>
			<rect id="p_223_" x="566.4" y="52.2" width="6.7" height="6.7"/>
		</g>
		<g>
			<rect id="p_224_" x="566.4" y="58.9" width="6.7" height="6.7"/>
		</g>
		<g>
			<rect id="p_225_" x="566.4" y="65.6" width="6.7" height="6.7"/>
		</g>
		<g>
			<rect id="p_226_" x="566.4" y="72.3" width="6.7" height="6.7"/>
		</g>
		<g>
			<rect id="p_227_" x="566.4" y="99.2" width="6.7" height="6.7"/>
		</g>
		<g>
			<rect id="p_228_" x="566.4" y="105.9" width="6.7" height="6.7"/>
		</g>
		<g>
			<rect id="p_229_" x="566.4" y="112.6" width="6.7" height="6.7"/>
		</g>
		<g>
			<rect id="p_230_" x="566.4" y="132.8" width="6.7" height="6.7"/>
		</g>
		<g>
			<rect id="p_231_" x="566.4" y="139.5" width="6.7" height="6.7"/>
		</g>
		<g>
			<rect id="p_232_" x="566.4" y="153" width="6.7" height="6.7"/>
		</g>
		<g>
			<rect id="p_233_" x="566.4" y="166.4" width="6.7" height="6.7"/>
		</g>
		<g>
			<rect id="p_234_" x="566.4" y="173.1" width="6.7" height="6.7"/>
		</g>
		<g>
			<rect id="p_235_" x="566.4" y="186.6" width="6.7" height="6.7"/>
		</g>
		<g>
			<rect id="p_236_" x="566.4" y="193.3" width="6.7" height="6.7"/>
		</g>
		<g>
			<rect id="p_237_" x="573.1" y="32" width="6.7" height="6.7"/>
		</g>
		<g>
			<rect id="p_238_" x="573.1" y="72.3" width="6.7" height="6.7"/>
		</g>
		<g>
			<rect id="p_239_" x="573.1" y="85.8" width="6.7" height="6.7"/>
		</g>
		<g>
			<rect id="p_240_" x="573.1" y="92.5" width="6.7" height="6.7"/>
		</g>
		<g>
			<rect id="p_241_" x="573.1" y="99.2" width="6.7" height="6.7"/>
		</g>
		<g>
			<rect id="p_242_" x="573.1" y="119.4" width="6.7" height="6.7"/>
		</g>
		<g>
			<rect id="p_243_" x="573.1" y="126.1" width="6.7" height="6.7"/>
		</g>
		<g>
			<rect id="p_244_" x="573.1" y="132.8" width="6.7" height="6.7"/>
		</g>
		<g>
			<rect id="p_245_" x="573.1" y="139.5" width="6.7" height="6.7"/>
		</g>
		<g>
			<rect id="p_246_" x="573.1" y="166.4" width="6.7" height="6.7"/>
		</g>
		<g>
			<rect id="p_247_" x="573.1" y="179.8" width="6.7" height="6.7"/>
		</g>
		<g>
			<rect id="p_248_" x="573.1" y="186.6" width="6.7" height="6.7"/>
		</g>
		<g>
			<rect id="p_249_" x="573.1" y="193.3" width="6.7" height="6.7"/>
		</g>
		<g>
			<rect id="p_250_" x="579.8" y="32" width="6.7" height="6.7"/>
		</g>
		<g>
			<rect id="p_251_" x="579.8" y="45.4" width="6.7" height="6.7"/>
		</g>
		<g>
			<rect id="p_252_" x="579.8" y="52.2" width="6.7" height="6.7"/>
		</g>
		<g>
			<rect id="p_253_" x="579.8" y="58.9" width="6.7" height="6.7"/>
		</g>
		<g>
			<rect id="p_254_" x="579.8" y="72.3" width="6.7" height="6.7"/>
		</g>
		<g>
			<rect id="p_255_" x="579.8" y="112.6" width="6.7" height="6.7"/>
		</g>
		<g>
			<rect id="p_256_" x="579.8" y="132.8" width="6.7" height="6.7"/>
		</g>
		<g>
			<rect id="p_257_" x="579.8" y="139.5" width="6.7" height="6.7"/>
		</g>
		<g>
			<rect id="p_258_" x="579.8" y="146.2" width="6.7" height="6.7"/>
		</g>
		<g>
			<rect id="p_259_" x="579.8" y="153" width="6.7" height="6.7"/>
		</g>
		<g>
			<rect id="p_260_" x="579.8" y="159.7" width="6.7" height="6.7"/>
		</g>
		<g>
			<rect id="p_261_" x="579.8" y="166.4" width="6.7" height="6.7"/>
		</g>
		<g>
			<rect id="p_262_" x="579.8" y="173.1" width="6.7" height="6.7"/>
		</g>
		<g>
			<rect id="p_263_" x="579.8" y="186.6" width="6.7" height="6.7"/>
		</g>
		<g>
			<rect id="p_264_" x="579.8" y="193.3" width="6.7" height="6.7"/>
		</g>
		<g>
			<rect id="p_265_" x="586.5" y="32" width="6.7" height="6.7"/>
		</g>
		<g>
			<rect id="p_266_" x="586.5" y="45.4" width="6.7" height="6.7"/>
		</g>
		<g>
			<rect id="p_267_" x="586.5" y="52.2" width="6.7" height="6.7"/>
		</g>
		<g>
			<rect id="p_268_" x="586.5" y="58.9" width="6.7" height="6.7"/>
		</g>
		<g>
			<rect id="p_269_" x="586.5" y="72.3" width="6.7" height="6.7"/>
		</g>
		<g>
			<rect id="p_270_" x="586.5" y="85.8" width="6.7" height="6.7"/>
		</g>
		<g>
			<rect id="p_271_" x="586.5" y="99.2" width="6.7" height="6.7"/>
		</g>
		<g>
			<rect id="p_272_" x="586.5" y="119.4" width="6.7" height="6.7"/>
		</g>
		<g>
			<rect id="p_273_" x="586.5" y="126.1" width="6.7" height="6.7"/>
		</g>
		<g>
			<rect id="p_274_" x="586.5" y="132.8" width="6.7" height="6.7"/>
		</g>
		<g>
			<rect id="p_275_" x="586.5" y="146.2" width="6.7" height="6.7"/>
		</g>
		<g>
			<rect id="p_276_" x="586.5" y="153" width="6.7" height="6.7"/>
		</g>
		<g>
			<rect id="p_277_" x="586.5" y="159.7" width="6.7" height="6.7"/>
		</g>
		<g>
			<rect id="p_278_" x="586.5" y="166.4" width="6.7" height="6.7"/>
		</g>
		<g>
			<rect id="p_279_" x="586.5" y="186.6" width="6.7" height="6.7"/>
		</g>
		<g>
			<rect id="p_280_" x="586.5" y="193.3" width="6.7" height="6.7"/>
		</g>
		<g>
			<rect id="p_281_" x="593.2" y="32" width="6.7" height="6.7"/>
		</g>
		<g>
			<rect id="p_282_" x="593.2" y="45.4" width="6.7" height="6.7"/>
		</g>
		<g>
			<rect id="p_283_" x="593.2" y="52.2" width="6.7" height="6.7"/>
		</g>
		<g>
			<rect id="p_284_" x="593.2" y="58.9" width="6.7" height="6.7"/>
		</g>
		<g>
			<rect id="p_285_" x="593.2" y="72.3" width="6.7" height="6.7"/>
		</g>
		<g>
			<rect id="p_286_" x="593.2" y="112.6" width="6.7" height="6.7"/>
		</g>
		<g>
			<rect id="p_287_" x="593.2" y="139.5" width="6.7" height="6.7"/>
		</g>
		<g>
			<rect id="p_288_" x="593.2" y="146.2" width="6.7" height="6.7"/>
		</g>
		<g>
			<rect id="p_289_" x="593.2" y="153" width="6.7" height="6.7"/>
		</g>
		<g>
			<rect id="p_290_" x="593.2" y="166.4" width="6.7" height="6.7"/>
		</g>
		<g>
			<rect id="p_291_" x="593.2" y="173.1" width="6.7" height="6.7"/>
		</g>
		<g>
			<rect id="p_292_" x="593.2" y="179.8" width="6.7" height="6.7"/>
		</g>
		<g>
			<rect id="p_293_" x="593.2" y="193.3" width="6.7" height="6.7"/>
		</g>
		<g>
			<rect id="p_294_" x="600" y="32" width="6.7" height="6.7"/>
		</g>
		<g>
			<rect id="p_295_" x="600" y="72.3" width="6.7" height="6.7"/>
		</g>
		<g>
			<rect id="p_296_" x="600" y="85.8" width="6.7" height="6.7"/>
		</g>
		<g>
			<rect id="p_297_" x="600" y="92.5" width="6.7" height="6.7"/>
		</g>
		<g>
			<rect id="p_298_" x="600" y="99.2" width="6.7" height="6.7"/>
		</g>
		<g>
			<rect id="p_299_" x="600" y="112.6" width="6.7" height="6.7"/>
		</g>
		<g>
			<rect id="p_300_" x="600" y="119.4" width="6.7" height="6.7"/>
		</g>
		<g>
			<rect id="p_301_" x="600" y="126.1" width="6.7" height="6.7"/>
		</g>
		<g>
			<rect id="p_302_" x="600" y="153" width="6.7" height="6.7"/>
		</g>
		<g>
			<rect id="p_303_" x="600" y="159.7" width="6.7" height="6.7"/>
		</g>
		<g>
			<rect id="p_304_" x="600" y="166.4" width="6.7" height="6.7"/>
		</g>
		<g>
			<rect id="p_305_" x="600" y="173.1" width="6.7" height="6.7"/>
		</g>
		<g>
			<rect id="p_306_" x="600" y="193.3" width="6.7" height="6.7"/>
		</g>
		<g>
			<rect id="p_307_" x="606.7" y="32" width="6.7" height="6.7"/>
		</g>
		<g>
			<rect id="p_308_" x="606.7" y="38.7" width="6.7" height="6.7"/>
		</g>
		<g>
			<rect id="p_309_" x="606.7" y="45.4" width="6.7" height="6.7"/>
		</g>
		<g>
			<rect id="p_310_" x="606.7" y="52.2" width="6.7" height="6.7"/>
		</g>
		<g>
			<rect id="p_311_" x="606.7" y="58.9" width="6.7" height="6.7"/>
		</g>
		<g>
			<rect id="p_312_" x="606.7" y="65.6" width="6.7" height="6.7"/>
		</g>
		<g>
			<rect id="p_313_" x="606.7" y="72.3" width="6.7" height="6.7"/>
		</g>
		<g>
			<rect id="p_314_" x="606.7" y="99.2" width="6.7" height="6.7"/>
		</g>
		<g>
			<rect id="p_315_" x="606.7" y="105.9" width="6.7" height="6.7"/>
		</g>
		<g>
			<rect id="p_316_" x="606.7" y="112.6" width="6.7" height="6.7"/>
		</g>
		<g>
			<rect id="p_317_" x="606.7" y="126.1" width="6.7" height="6.7"/>
		</g>
		<g>
			<rect id="p_318_" x="606.7" y="132.8" width="6.7" height="6.7"/>
		</g>
		<g>
			<rect id="p_319_" x="606.7" y="153" width="6.7" height="6.7"/>
		</g>
		<g>
			<rect id="p_320_" x="606.7" y="166.4" width="6.7" height="6.7"/>
		</g>
		<g>
			<rect id="p_321_" x="606.7" y="173.1" width="6.7" height="6.7"/>
		</g>
		<g>
			<rect id="p_322_" x="606.7" y="179.8" width="6.7" height="6.7"/>
		</g>
		<g>
			<rect id="p_323_" x="606.7" y="186.6" width="6.7" height="6.7"/>
		</g>
		<g>
			<rect id="p_324_" x="606.7" y="193.3" width="6.7" height="6.7"/>
		</g>
	</g>
</g>
</svg>
