<?xml version="1.0" encoding="utf-8"?>
<!-- Generator: Adobe Illustrator 22.1.0, SVG Export Plug-In . SVG Version: 6.00 Build 0)  -->
<svg version="1.1" id="Capa_1" xmlns="http://www.w3.org/2000/svg" xmlns:xlink="http://www.w3.org/1999/xlink" x="0px" y="0px"
	 viewBox="0 0 649.9 387.9" style="enable-background:new 0 0 649.9 387.9;" xml:space="preserve">
<style type="text/css">
	.st0{fill:#FFFFFF;}
</style>
<g>
	<g>
		<path class="st0" d="M96.5,16.2v40.1c0,9.5-0.3,16.3-0.9,20.5c-0.6,4.1-2.2,7.2-4.7,9.1c-2.5,1.9-6.7,2.9-12.5,2.9
			c-5.8,0-10-1-12.5-2.9c-2.5-1.9-4.1-4.9-4.7-9.1c-0.6-4.1-0.9-11-0.9-20.5V16.2h12.5v45c0,5.3,0.1,9,0.3,11.1
			c0.2,2,0.7,3.4,1.4,4.1c0.7,0.7,2,1,3.9,1c1.9,0,3.2-0.3,3.9-1c0.7-0.7,1.2-2,1.4-4c0.2-2,0.3-5.7,0.3-11.1v-45H96.5z"/>
		<path class="st0" d="M111.3,88.3c-2.8-0.3-5.3-0.7-7.3-1.3V76.7c5.1,0.5,9,0.7,11.8,0.7c1.9,0,3.4-0.1,4.5-0.4
			c1-0.2,1.9-0.7,2.5-1.4c1-1.2,1.5-3.8,1.5-7.7c0-3.1-0.1-5.2-0.4-6.5c-0.2-1.3-0.7-2.2-1.5-2.8c-0.8-0.6-2.2-1.1-4.2-1.5l-8.3-1.8
			c-2.6-0.6-4.4-2.4-5.4-5.4c-1-3.1-1.5-7.5-1.5-13.3c0-5.6,0.7-10,2.1-13.1c1.4-3.1,3.4-5.2,6-6.4c2.6-1.2,6-1.8,10-1.8
			c3.1,0,6,0.2,8.5,0.6c2.5,0.4,4.1,0.8,4.8,1v10.4c-0.7-0.1-2-0.3-3.8-0.5c-1.8-0.2-3.8-0.3-5.9-0.3c-2.2,0-3.9,0.2-5.2,0.5
			c-1.2,0.3-2.1,0.8-2.7,1.5c-0.6,0.7-0.9,1.6-1.1,2.7c-0.2,1.1-0.3,2.7-0.3,4.8c0,2.4,0.1,4.2,0.3,5.3c0.2,1.1,0.5,1.9,1.1,2.3
			c0.6,0.5,1.5,0.9,2.7,1.1l7.2,1.7c2.2,0.4,3.9,1.1,5.4,2.2c1.4,1,2.6,2.8,3.4,5.4c0.8,2.5,1.1,6.3,1.1,11.5
			c0,6.3-0.6,11.1-1.9,14.5c-1.3,3.3-3.2,5.6-5.6,6.8c-2.5,1.2-5.8,1.8-9.9,1.8C116.7,88.7,114.1,88.6,111.3,88.3z"/>
		<path class="st0" d="M169.3,87.9l-2.4-15.7h-12.3l-2.4,15.7h-12.4l11.8-71.7h18.5L182,87.9H169.3z M161,29.2h-0.6l-4.6,32h9.8
			L161,29.2z"/>
		<path class="st0" d="M212.9,87.9l-13.2-40.4h-0.4v40.4h-12V16.2h11.9l12.4,37.6h0.6V16.2H224v71.7H212.9z"/>
		<path class="st0" d="M233,16.2h16.8c6,0,10.3,1,12.9,3.1c2.6,2,4.2,5.3,4.8,9.9c0.7,4.5,1,12.2,1,22.9c0,10.6-0.3,18.2-1,22.8
			c-0.7,4.6-2.3,7.9-4.8,9.9c-2.6,2-6.9,3.1-12.9,3.1H233V16.2z M249.8,76.5c2.2,0,3.6-0.4,4.4-1.2c0.8-0.8,1.3-2.8,1.6-6
			c0.3-3.2,0.4-9,0.4-17.3S256,38,255.7,34.8c-0.3-3.2-0.8-5.2-1.6-6c-0.8-0.8-2.2-1.2-4.4-1.2h-4.4v48.9H249.8z"/>
		<path class="st0" d="M281,85.6c-2.5-2.1-4.1-5.5-4.8-10.2c-0.7-4.7-1-12.5-1-23.4c0-10.9,0.3-18.7,1-23.4
			c0.7-4.7,2.3-8.1,4.8-10.2c2.5-2.1,6.8-3.1,12.9-3.1s10.3,1,12.9,3.1c2.6,2.1,4.2,5.5,4.8,10.2c0.7,4.7,1,12.5,1,23.4
			c0,10.9-0.3,18.7-1,23.4c-0.7,4.7-2.3,8.1-4.8,10.2c-2.6,2.1-6.9,3.1-12.9,3.1S283.5,87.7,281,85.6z M298.1,76.1
			c0.8-0.8,1.3-2.9,1.5-6.1c0.2-3.3,0.4-9.2,0.4-17.9c0-8.7-0.1-14.6-0.4-17.9c-0.2-3.3-0.7-5.3-1.5-6.1c-0.8-0.8-2.2-1.3-4.3-1.3
			s-3.5,0.4-4.2,1.3c-0.7,0.8-1.2,2.9-1.5,6.2c-0.3,3.3-0.4,9.3-0.4,17.9c0,8.6,0.1,14.6,0.4,17.9c0.3,3.3,0.8,5.4,1.5,6.2
			c0.7,0.8,2.1,1.3,4.2,1.3S297.3,77,298.1,76.1z"/>
		<path class="st0" d="M361.9,87.9l-2.4-15.7h-12.3l-2.4,15.7h-12.4l11.8-71.7h18.5l11.9,71.7H361.9z M353.7,29.2h-0.6l-4.6,32h9.8
			L353.7,29.2z"/>
		<path class="st0" d="M379.9,16.2h19.3c4.7,0,8.2,0.9,10.5,2.7c2.4,1.8,3.9,4.4,4.7,7.8c0.8,3.4,1.1,7.9,1.1,13.6
			c0,5.5-0.4,9.9-1.1,13.3c-0.7,3.4-2.3,6-4.6,8c-2.4,1.9-5.9,2.9-10.6,2.9h-6.7v23.4h-12.6V16.2z M397.1,53.1c1.8,0,3.1-0.3,3.9-1
			c0.8-0.7,1.3-1.8,1.6-3.5c0.2-1.7,0.4-4.4,0.4-8.3c0-3.9-0.1-6.7-0.4-8.3c-0.2-1.7-0.8-2.8-1.6-3.4c-0.8-0.6-2.1-0.9-3.9-0.9h-4.6
			v25.5H397.1z"/>
		<path class="st0" d="M421.9,87.9V16.2h12.5v71.7H421.9z"/>
		<path class="st0" d="M447.4,35.6c0.6-1,0.9-3,0.9-5.9v-1.6h-4.6V16.2h12.3v8.9c0,4.9-0.3,8.5-0.9,10.8c-0.6,2.4-1.8,4.1-3.5,5.1
			c-1.8,1-4.5,1.6-8.3,1.6v-5.4C445.4,37.2,446.8,36.7,447.4,35.6z"/>
		<path class="st0" d="M471.3,88.3c-2.8-0.3-5.3-0.7-7.3-1.3V76.7c5.1,0.5,9,0.7,11.8,0.7c1.9,0,3.4-0.1,4.5-0.4
			c1-0.2,1.9-0.7,2.5-1.4c1-1.2,1.5-3.8,1.5-7.7c0-3.1-0.1-5.2-0.4-6.5c-0.2-1.3-0.7-2.2-1.5-2.8c-0.8-0.6-2.2-1.1-4.2-1.5l-8.3-1.8
			c-2.6-0.6-4.4-2.4-5.4-5.4c-1-3.1-1.5-7.5-1.5-13.3c0-5.6,0.7-10,2.1-13.1c1.4-3.1,3.4-5.2,6-6.4c2.6-1.2,6-1.8,10-1.8
			c3.1,0,6,0.2,8.5,0.6c2.5,0.4,4.1,0.8,4.8,1v10.4c-0.7-0.1-2-0.3-3.8-0.5c-1.8-0.2-3.8-0.3-5.9-0.3c-2.2,0-3.9,0.2-5.2,0.5
			c-1.2,0.3-2.1,0.8-2.7,1.5c-0.6,0.7-0.9,1.6-1.1,2.7c-0.2,1.1-0.3,2.7-0.3,4.8c0,2.4,0.1,4.2,0.3,5.3c0.2,1.1,0.5,1.9,1.1,2.3
			c0.6,0.5,1.5,0.9,2.7,1.1l7.2,1.7c2.2,0.4,3.9,1.1,5.4,2.2c1.4,1,2.6,2.8,3.4,5.4c0.8,2.5,1.1,6.3,1.1,11.5
			c0,6.3-0.6,11.1-1.9,14.5c-1.3,3.3-3.2,5.6-5.6,6.8c-2.5,1.2-5.8,1.8-9.9,1.8C476.8,88.7,474.1,88.6,471.3,88.3z"/>
		<path class="st0" d="M519,16.2h16.8c6,0,10.3,1,12.9,3.1c2.6,2,4.2,5.3,4.8,9.9c0.7,4.5,1,12.2,1,22.9c0,10.6-0.3,18.2-1,22.8
			c-0.7,4.6-2.3,7.9-4.8,9.9c-2.6,2-6.9,3.1-12.9,3.1H519V16.2z M535.7,76.5c2.2,0,3.6-0.4,4.4-1.2c0.8-0.8,1.3-2.8,1.6-6
			c0.3-3.2,0.4-9,0.4-17.3S542,38,541.7,34.8c-0.3-3.2-0.8-5.2-1.6-6c-0.8-0.8-2.2-1.2-4.4-1.2h-4.4v48.9H535.7z"/>
		<path class="st0" d="M562.3,87.9V16.2h28.5v11.4h-15.9V46h14v11.4h-14v19.2h15.9v11.4H562.3z"/>
	</g>
	<g>
		<path class="st0" d="M116.1,155.7C52,155.7,0,207.7,0,271.8s52,116.1,116.1,116.1s116.1-52,116.1-116.1S180.2,155.7,116.1,155.7z
			 M140.4,238.9l-9.3,0c-7.3,0-8.7,3.5-8.7,8.5v11.2h17.3l-2.3,17.5h-15.1V321h-18.1v-44.9H89.3v-17.5h15.1v-12.9
			c0-15,9.1-23.1,22.5-23.1c6.4,0,11.9,0.5,13.5,0.7V238.9z"/>
		<g>
			<polygon class="st0" points="523,287.5 550.6,271.8 523,256.1 			"/>
			<path class="st0" d="M533.8,155.7c-64.1,0-116.1,52-116.1,116.1s52,116.1,116.1,116.1s116.1-52,116.1-116.1
				S597.9,155.7,533.8,155.7z M584.4,297.3c-1.3,4.6-4.8,8.2-9.3,9.4c-8.3,2.2-41.2,2.2-41.2,2.2s-33,0-41.2-2.2
				c-4.6-1.3-8.1-4.9-9.3-9.4c-2.2-8.3-2.2-25.5-2.2-25.5s0-17.3,2.2-25.5c1.3-4.6,4.8-8.2,9.3-9.4c8.3-2.2,41.2-2.2,41.2-2.2
				s33,0,41.2,2.2c4.6,1.3,8.1,4.9,9.3,9.4c2.2,8.3,2.2,25.5,2.2,25.5S586.5,289.1,584.4,297.3z"/>
		</g>
	</g>
</g>
</svg>
