<?xml version="1.0" encoding="utf-8"?>
<!-- Generator: Adobe Illustrator 22.1.0, SVG Export Plug-In . SVG Version: 6.00 Build 0)  -->
<svg version="1.1" id="Capa_1" xmlns="http://www.w3.org/2000/svg" xmlns:xlink="http://www.w3.org/1999/xlink" x="0px" y="0px"
	 viewBox="0 0 1444.5 516.1" style="enable-background:new 0 0 1444.5 516.1;" xml:space="preserve">
<style type="text/css">
	.st0{opacity:0.5;fill:#B4B4B4;enable-background:new    ;}
	.st1{fill:#E9E9E9;}
	.st2{display:none;}
	.st3{fill:#FFFFFF;}
	.st4{fill:#227447;}
	.st5{fill:#F1F1F1;}
	.st6{fill:#E6E6E6;}
	.st7{fill:none;stroke:#C4C4C4;stroke-miterlimit:10;}
	.st8{fill:#EEC87F;}
	.st9{fill:#90928F;}
	.st10{fill:#FFFFFF;stroke:#C1BEC1;stroke-miterlimit:10;}
	.st11{fill:#FFFFFF;stroke:#C1BEC1;stroke-linecap:round;stroke-linejoin:round;stroke-miterlimit:10;}
	.st12{fill:#C4C4C4;}
	.st13{fill:url(#SVGID_1_);}
	.st14{opacity:0.15;enable-background:new    ;}
	.st15{fill:#CCCCCC;}
	.st16{fill:#F2F2F2;}
	.st17{fill:url(#SVGID_2_);}
	.st18{opacity:0.25;enable-background:new    ;}
	.st19{fill:#207245;}
	.st20{opacity:0.25;}
</style>
<g id="Capa_4_1_">
	<g>
		<g>
			<g>
				<path class="st0" d="M666.7,461H89.3c-9,0-16.3-7.3-16.3-16.3V59.3c0-9,7.3-16.3,16.3-16.3h577.3c9,0,16.3,7.3,16.3,16.3v385.3
					C683,453.7,675.7,461,666.7,461z"/>
				<path class="st1" d="M664.7,461H87.3c-9,0-16.3-7.3-16.3-16.3V59.3c0-9,7.3-16.3,16.3-16.3h577.3c9,0,16.3,7.3,16.3,16.3v385.3
					C681,453.7,673.7,461,664.7,461z"/>
				<rect x="97.5" y="65" class="st2" width="557" height="367"/>
				<g>
					<g>
						<rect x="97.3" y="64.6" class="st3" width="558" height="368"/>
						<path d="M654.8,65.1v367h-557v-367H654.8 M655.8,64.1h-1h-557h-1v1v367v1h1h557h1v-1v-367V64.1L655.8,64.1z"/>
					</g>
					<rect x="97.8" y="65.1" class="st4" width="557" height="42"/>
					<rect x="97.8" y="107.1" class="st5" width="557" height="68"/>
					<polygon class="st6" points="654.8,175.1 97.8,175.1 97.8,196.1 97.8,197.1 97.8,432.1 119.8,432.1 119.8,197.1 654.8,197.1 
											"/>
					<line class="st7" x1="97.8" y1="175.1" x2="654.3" y2="175.1"/>
					<g>
						<g>
							<line class="st7" x1="654.8" y1="175.1" x2="654.8" y2="432.1"/>
							<line class="st7" x1="208.9" y1="175.1" x2="208.9" y2="432.1"/>
							<line class="st7" x1="119.8" y1="175.1" x2="119.8" y2="432.1"/>
							<line class="st7" x1="298.1" y1="175.1" x2="298.1" y2="432.1"/>
							<line class="st7" x1="387.3" y1="175.1" x2="387.3" y2="432.1"/>
							<line class="st7" x1="476.4" y1="175.1" x2="476.4" y2="432.1"/>
							<line class="st7" x1="565.6" y1="175.1" x2="565.6" y2="432.1"/>
							<line class="st7" x1="98.3" y1="226.9" x2="655.3" y2="226.9"/>
							<line class="st7" x1="98.3" y1="197.6" x2="655.3" y2="197.6"/>
							<line class="st7" x1="98.3" y1="256.2" x2="655.3" y2="256.2"/>
							<line class="st7" x1="98.3" y1="285.5" x2="655.3" y2="285.5"/>
							<line class="st7" x1="98.3" y1="314.8" x2="655.3" y2="314.8"/>
							<line class="st7" x1="98.3" y1="344.1" x2="655.3" y2="344.1"/>
							<line class="st7" x1="98.3" y1="373.4" x2="655.3" y2="373.4"/>
							<line class="st7" x1="98.3" y1="402.8" x2="655.3" y2="402.8"/>
							<line class="st7" x1="98.3" y1="432.1" x2="655.3" y2="432.1"/>
						</g>
					</g>
					<rect x="169.8" y="90.1" class="st5" width="76" height="17"/>
					<rect x="107.8" y="93.1" class="st3" width="53" height="9"/>
					<rect x="255.8" y="93.1" class="st3" width="33" height="9"/>
					<rect x="299.8" y="93.1" class="st3" width="46" height="9"/>
					<g>
						<g>
							<path class="st8" d="M145.1,157.3H117c-0.5,0-0.9-0.4-0.9-0.9v-30.7c0-0.5,0.4-0.9,0.9-0.9h28.1c0.5,0,0.9,0.4,0.9,0.9v30.7
								C146,156.9,145.6,157.3,145.1,157.3z"/>
							<path class="st9" d="M138.7,124.3h-4.3v-2.4c0-1.4-1.1-2.4-2.4-2.4h-2.2c-1.4,0-2.4,1.1-2.4,2.4v2.4h-4
								c-0.9,0-1.6,0.7-1.6,1.6v1c0,0.9,0.7,1.6,1.6,1.6h15.4c0.9,0,1.6-0.7,1.6-1.6v-1C140.4,125,139.6,124.3,138.7,124.3z
								 M129.7,121.4c0-0.1,0.1-0.3,0.3-0.3h1.9c0.1,0,0.3,0.1,0.3,0.3v2.5c0,0.1-0.1,0.3-0.3,0.3h-1.9c-0.1,0-0.3-0.1-0.3-0.3
								V121.4z"/>
						</g>
						<g>
							<path class="st10" d="M146.9,135.4h-10.2c-1.1,0-2,0.9-2,2v19.3c0,1.1,0.9,2,2,2h14.5c1.1,0,2-0.9,2-2v-15.4L146.9,135.4z"/>
							<polygon class="st11" points="146.6,141.1 146.6,135.4 152.8,141.1 							"/>
						</g>
					</g>
					<g>
						<rect x="178.8" y="119.4" class="st12" width="60" height="9"/>
						<rect x="178.8" y="134.7" class="st12" width="49" height="9"/>
						<rect x="178.8" y="149.7" class="st12" width="54" height="9.3"/>
						<g>
							<rect x="268.8" y="120.1" class="st12" width="16" height="9"/>
							<rect x="290.8" y="120.1" class="st12" width="16" height="9"/>
							<rect x="311.8" y="120.1" class="st12" width="16" height="9"/>
						</g>
						<g>
							<rect x="268.8" y="134.9" class="st12" width="16" height="9"/>
							<rect x="290.8" y="134.9" class="st12" width="16" height="9"/>
							<rect x="311.8" y="134.9" class="st12" width="16" height="9"/>
						</g>
						<g>
							<rect x="268.8" y="149.7" class="st12" width="16" height="9"/>
							<rect x="290.8" y="149.7" class="st12" width="16" height="9"/>
							<rect x="311.8" y="149.7" class="st12" width="16" height="9"/>
						</g>
					</g>
					<rect x="128.8" y="208.1" class="st12" width="69" height="9"/>
					<rect x="129.8" y="237.1" class="st12" width="69" height="9"/>
					<rect x="129.8" y="266.1" class="st12" width="69" height="9"/>
					<rect x="218.8" y="237.1" class="st12" width="69" height="9"/>
					<rect x="308.8" y="237.1" class="st12" width="69" height="9"/>
					<rect x="396.8" y="237.1" class="st12" width="69" height="9"/>
					<rect x="129.8" y="296.1" class="st12" width="69" height="9"/>
					<rect x="218.8" y="296.1" class="st12" width="69" height="9"/>
					<rect x="129.8" y="326.1" class="st12" width="69" height="9"/>
					<rect x="129.8" y="355.1" class="st12" width="69" height="9"/>
					<rect x="218.8" y="326.1" class="st12" width="69" height="9"/>
					<rect x="308.8" y="296.1" class="st12" width="69" height="9"/>
					<rect x="396.8" y="296.1" class="st12" width="69" height="9"/>
					<rect x="487.8" y="237.1" class="st12" width="69" height="9"/>
					<rect x="575.8" y="237.1" class="st12" width="69" height="9"/>
					<rect x="129.8" y="384.1" class="st12" width="69" height="9"/>
					<rect x="218.8" y="384.1" class="st12" width="69" height="9"/>
					<rect x="129.8" y="413.1" class="st12" width="69" height="9"/>
					<rect x="218.8" y="413.1" class="st12" width="69" height="9"/>
					<rect x="308.8" y="384.1" class="st12" width="69" height="9"/>
					<rect x="396.8" y="384.1" class="st12" width="69" height="9"/>
					<rect x="487.8" y="384.1" class="st12" width="69" height="9"/>
					<rect x="575.8" y="384.1" class="st12" width="69" height="9"/>
				</g>
				
					<linearGradient id="SVGID_1_" gradientUnits="userSpaceOnUse" x1="376" y1="700.135" x2="376" y2="695.135" gradientTransform="matrix(1 0 0 -1 0 752.134)">
					<stop  offset="0.1243" style="stop-color:#000000;stop-opacity:0.4"/>
					<stop  offset="0.573" style="stop-color:#BABABA;stop-opacity:0"/>
				</linearGradient>
				<path class="st13" d="M376,57L376,57c-1.4,0-2.5-1.1-2.5-2.5l0,0c0-1.4,1.1-2.5,2.5-2.5l0,0c1.4,0,2.5,1.1,2.5,2.5l0,0
					C378.5,55.9,377.4,57,376,57z"/>
			</g>
			<ellipse class="st14" cx="374.5" cy="472" rx="365.5" ry="7"/>
			<path class="st15" d="M0,455c0,0,15,11,90,14h575c0,0,59,0,89-14H0z"/>
			<rect y="453" class="st16" width="755" height="2"/>
			
				<linearGradient id="SVGID_2_" gradientUnits="userSpaceOnUse" x1="311" y1="297.135" x2="438" y2="297.135" gradientTransform="matrix(1 0 0 -1 0 752.134)">
				<stop  offset="0" style="stop-color:#000000;stop-opacity:0.5"/>
				<stop  offset="0.1" style="stop-color:#EFF0F0"/>
				<stop  offset="0.9" style="stop-color:#EFF0F0"/>
				<stop  offset="1" style="stop-color:#000000;stop-opacity:0.5"/>
			</linearGradient>
			<path class="st17" d="M436,457H313c-1.1,0-2-0.9-2-2l0,0c0-1.1,0.9-2,2-2h123c1.1,0,2,0.9,2,2l0,0C438,456.1,437.1,457,436,457z"
				/>
		</g>
		<circle class="st18" cx="661.6" cy="435.1" r="81"/>
		<circle class="st3" cx="664.6" cy="434.1" r="77"/>
		<g>
			<path class="st19" d="M680.4,402.9v62.3h-21v-46.5h-10.7v-15.8H680.4z"/>
		</g>
		<g class="st20">
			<path d="M807.1,143.9h31.4c7.1,0,13.4,1.3,18.8,3.9c5.4,2.6,9.6,6.3,12.6,11.1c3,4.8,4.5,10.4,4.5,16.9c0,6.5-1.5,12.1-4.5,16.9
				c-3,4.8-7.2,8.5-12.6,11.1c-5.4,2.6-11.7,3.9-18.8,3.9h-31.4V143.9z M837.6,190.9c4.6,0,8.3-1.3,11.1-4c2.8-2.6,4.1-6.4,4.1-11.1
				c0-4.8-1.4-8.5-4.1-11.1c-2.8-2.6-6.4-4-11.1-4h-9v30.2H837.6z"/>
			<path d="M929.6,191.4v16.2h-53v-63.7h51.8v16.2h-30.7v7.5h26.9V183h-26.9v8.4H929.6z"/>
			<path d="M940.5,207.3c-5-1.2-9.1-2.8-12.3-4.8l6.9-15.7c3,1.8,6.4,3.2,10.2,4.2c3.8,1.1,7.4,1.6,10.8,1.6c3,0,5.1-0.3,6.4-0.9
				c1.3-0.6,1.9-1.4,1.9-2.6c0-1.3-0.8-2.3-2.5-3c-1.7-0.7-4.4-1.4-8.2-2.2c-4.9-1-9-2.1-12.3-3.3s-6.1-3.1-8.6-5.8
				c-2.4-2.7-3.6-6.4-3.6-11c0-4,1.1-7.6,3.4-10.9c2.2-3.3,5.6-5.9,10.1-7.7c4.5-1.9,9.9-2.8,16.2-2.8c4.4,0,8.7,0.5,12.9,1.4
				c4.2,0.9,7.9,2.3,11.1,4.1l-6.5,15.6c-6.2-3.2-12.2-4.7-17.7-4.7c-5.5,0-8.3,1.3-8.3,4c0,1.3,0.8,2.2,2.5,2.9
				c1.6,0.6,4.3,1.3,8.1,2c4.9,0.9,8.9,2,12.3,3.1c3.3,1.2,6.2,3.1,8.7,5.8c2.5,2.7,3.7,6.3,3.7,10.9c0,4-1.1,7.6-3.4,10.9
				c-2.2,3.2-5.6,5.8-10.1,7.7c-4.5,1.9-9.9,2.9-16.2,2.9C950.7,209.1,945.5,208.5,940.5,207.3z"/>
			<path d="M1001.1,204.8c-5.4-2.8-9.6-6.8-12.7-11.8c-3.1-5.1-4.6-10.8-4.6-17.2c0-6.4,1.5-12.2,4.6-17.2c3.1-5.1,7.3-9,12.7-11.8
				c5.4-2.8,11.5-4.2,18.2-4.2c6.2,0,11.7,1.1,16.6,3.3c4.9,2.2,8.9,5.3,12,9.5l-13.6,12.1c-3.9-5-8.6-7.5-13.9-7.5
				c-4.5,0-8.1,1.4-10.8,4.3c-2.7,2.9-4.1,6.8-4.1,11.6c0,4.9,1.4,8.7,4.1,11.6c2.7,2.9,6.3,4.3,10.8,4.3c5.3,0,10-2.5,13.9-7.5
				l13.6,12.1c-3.2,4.1-7.2,7.3-12,9.5c-4.9,2.2-10.4,3.3-16.6,3.3C1012.5,209.1,1006.5,207.7,1001.1,204.8z"/>
			<path d="M1090.9,196.5h-24.2l-4.3,11.1h-21.8l27.8-63.7h21.1l27.8,63.7h-22.2L1090.9,196.5z M1085,181l-6.2-16l-6.2,16H1085z"/>
			<path d="M1142.5,191.6h-5.8v16h-21.5v-63.7h30.7c5.9,0,11,1,15.4,2.9c4.4,1.9,7.7,4.7,10.1,8.4s3.5,7.9,3.5,12.7
				c0,4.5-1,8.5-3.1,11.9c-2.1,3.4-5,6.1-8.9,8.1l13.4,19.7h-22.9L1142.5,191.6z M1151,162.4c-1.5-1.3-3.6-2-6.6-2h-7.8v14.9h7.8
				c2.9,0,5.1-0.7,6.6-2c1.5-1.3,2.2-3.1,2.2-5.5C1153.2,165.6,1152.5,163.7,1151,162.4z"/>
			<path d="M1219.5,174h18.7V201c-3.8,2.6-8.1,4.6-13.1,6c-5,1.4-9.9,2.1-14.7,2.1c-6.8,0-12.9-1.4-18.3-4.2
				c-5.4-2.8-9.6-6.8-12.7-11.8c-3.1-5.1-4.6-10.8-4.6-17.2c0-6.4,1.5-12.2,4.6-17.2c3.1-5.1,7.3-9,12.8-11.8
				c5.5-2.8,11.7-4.2,18.6-4.2c6.2,0,11.8,1,16.8,3.1c4.9,2.1,9.1,5.1,12.3,9.1l-13.7,12.1c-4-4.7-8.8-7-14.3-7
				c-4.7,0-8.5,1.4-11.3,4.3c-2.8,2.9-4.2,6.7-4.2,11.6c0,4.8,1.4,8.6,4.1,11.6c2.8,2.9,6.4,4.4,11.1,4.4c2.7,0,5.3-0.5,7.8-1.5V174
				z"/>
			<path d="M1285.1,196.5h-24.2l-4.3,11.1h-21.8l27.8-63.7h21.1l27.8,63.7h-22.2L1285.1,196.5z M1279.2,181l-6.2-16l-6.2,16H1279.2z
				"/>
			<path d="M1384,191.4v16.2h-53v-63.7h51.8v16.2h-30.7v7.5h26.9V183h-26.9v8.4H1384z"/>
			<path d="M1386.6,143.9h21.5v47h28.8v16.7h-50.2V143.9z"/>
			<path d="M807.1,240.9h31.4c7.1,0,13.4,1.3,18.8,3.9c5.4,2.6,9.6,6.3,12.6,11.1c3,4.8,4.5,10.4,4.5,16.9c0,6.5-1.5,12.1-4.5,16.9
				c-3,4.8-7.2,8.5-12.6,11.1c-5.4,2.6-11.7,3.9-18.8,3.9h-31.4V240.9z M837.6,287.9c4.6,0,8.3-1.3,11.1-4c2.8-2.6,4.1-6.4,4.1-11.1
				c0-4.8-1.4-8.5-4.1-11.1c-2.8-2.6-6.4-4-11.1-4h-9v30.2H837.6z"/>
			<path d="M891.5,301.8c-5.5-2.9-9.7-6.8-12.8-11.9c-3.1-5.1-4.6-10.8-4.6-17.2c0-6.4,1.5-12.1,4.6-17.2c3.1-5.1,7.4-9,12.8-11.9
				c5.5-2.9,11.6-4.3,18.5-4.3c6.9,0,13,1.4,18.5,4.3c5.5,2.9,9.7,6.8,12.8,11.9c3.1,5.1,4.6,10.8,4.6,17.2c0,6.4-1.5,12.1-4.6,17.2
				c-3.1,5.1-7.4,9-12.8,11.9c-5.5,2.9-11.6,4.3-18.5,4.3C903.1,306.1,897,304.6,891.5,301.8z M917.2,286.7c2.2-1.3,3.9-3.2,5.1-5.6
				c1.3-2.4,1.9-5.2,1.9-8.4c0-3.2-0.6-6-1.9-8.4c-1.3-2.4-3-4.2-5.1-5.6c-2.2-1.3-4.6-2-7.2-2c-2.7,0-5.1,0.7-7.2,2
				c-2.2,1.3-3.9,3.2-5.1,5.6c-1.3,2.4-1.9,5.2-1.9,8.4c0,3.2,0.6,6,1.9,8.4c1.3,2.4,3,4.2,5.1,5.6c2.2,1.3,4.6,2,7.2,2
				C912.7,288.7,915.1,288,917.2,286.7z"/>
			<path d="M962.9,301.8c-5.4-2.8-9.6-6.8-12.7-11.8c-3.1-5.1-4.6-10.8-4.6-17.2c0-6.4,1.5-12.2,4.6-17.2c3.1-5.1,7.3-9,12.7-11.8
				c5.4-2.8,11.5-4.2,18.2-4.2c6.2,0,11.7,1.1,16.6,3.3c4.9,2.2,8.9,5.3,12,9.5l-13.6,12.1c-3.9-5-8.6-7.5-13.9-7.5
				c-4.5,0-8.1,1.4-10.8,4.3c-2.7,2.9-4.1,6.7-4.1,11.6s1.4,8.7,4.1,11.6c2.7,2.9,6.3,4.3,10.8,4.3c5.3,0,10-2.5,13.9-7.5l13.6,12.1
				c-3.2,4.1-7.2,7.3-12,9.5c-4.9,2.2-10.4,3.3-16.6,3.3C974.3,306.1,968.3,304.7,962.9,301.8z"/>
			<path d="M1016.9,298.2c-5.5-5.3-8.2-12.7-8.2-22.2v-35h21.5v34.4c0,4.7,0.8,8.1,2.5,10.2c1.7,2.1,4.1,3.2,7.2,3.2
				s5.6-1.1,7.2-3.2c1.7-2.1,2.5-5.5,2.5-10.2v-34.4h21.1v35c0,9.5-2.7,16.9-8.2,22.2s-13.1,7.9-22.8,7.9
				C1030,306.1,1022.4,303.4,1016.9,298.2z"/>
			<path d="M1131.8,304.6l-0.2-29l-13.8,23.3h-9.5l-13.8-22.3v28H1075v-63.7h17.7l20.7,33.9l20.2-33.9h17.7l0.2,63.7H1131.8z"/>
			<path d="M1209.1,288.4v16.2h-53v-63.7h51.8v16.2h-30.7v7.5h26.9V280h-26.9v8.4H1209.1z"/>
			<path d="M1274.5,240.9v63.7h-17.7l-24.2-28.9v28.9h-20.9v-63.7h17.7l24.2,28.9v-28.9H1274.5z"/>
			<path d="M1293.1,257.6h-18.7v-16.7h58.8v16.7h-18.7v47h-21.5V257.6z"/>
			<path d="M1347.1,301.8c-5.5-2.9-9.7-6.8-12.8-11.9c-3.1-5.1-4.6-10.8-4.6-17.2c0-6.4,1.5-12.1,4.6-17.2c3.1-5.1,7.4-9,12.8-11.9
				c5.5-2.9,11.6-4.3,18.5-4.3c6.9,0,13,1.4,18.5,4.3c5.5,2.9,9.7,6.8,12.8,11.9c3.1,5.1,4.6,10.8,4.6,17.2c0,6.4-1.5,12.1-4.6,17.2
				c-3.1,5.1-7.4,9-12.8,11.9c-5.5,2.9-11.6,4.3-18.5,4.3C1358.8,306.1,1352.6,304.6,1347.1,301.8z M1372.9,286.7
				c2.2-1.3,3.9-3.2,5.1-5.6c1.3-2.4,1.9-5.2,1.9-8.4c0-3.2-0.6-6-1.9-8.4c-1.3-2.4-3-4.2-5.1-5.6c-2.2-1.3-4.6-2-7.2-2
				c-2.7,0-5.1,0.7-7.2,2c-2.2,1.3-3.9,3.2-5.1,5.6c-1.3,2.4-1.9,5.2-1.9,8.4c0,3.2,0.6,6,1.9,8.4c1.3,2.4,3,4.2,5.1,5.6
				c2.2,1.3,4.6,2,7.2,2C1368.3,288.7,1370.7,288,1372.9,286.7z"/>
		</g>
		<g>
			<path class="st3" d="M814.7,138.1h31.4c7.1,0,13.4,1.3,18.8,3.9c5.4,2.6,9.6,6.3,12.6,11.1c3,4.8,4.5,10.4,4.5,16.9
				c0,6.5-1.5,12.1-4.5,16.9c-3,4.8-7.2,8.5-12.6,11.1c-5.4,2.6-11.7,3.9-18.8,3.9h-31.4V138.1z M845.2,185.1c4.6,0,8.3-1.3,11.1-4
				c2.8-2.6,4.1-6.4,4.1-11.1c0-4.8-1.4-8.5-4.1-11.1c-2.8-2.6-6.4-4-11.1-4h-9v30.2H845.2z"/>
			<path class="st3" d="M937.2,185.6v16.2h-53v-63.7H936v16.2h-30.7v7.5h26.9v15.5h-26.9v8.4H937.2z"/>
			<path class="st3" d="M948.1,201.5c-5-1.2-9.1-2.8-12.3-4.8l6.9-15.7c3,1.8,6.4,3.2,10.2,4.2c3.8,1.1,7.4,1.6,10.8,1.6
				c3,0,5.1-0.3,6.4-0.9c1.3-0.6,1.9-1.4,1.9-2.6c0-1.3-0.8-2.3-2.5-3c-1.7-0.7-4.4-1.4-8.2-2.2c-4.9-1-9-2.1-12.3-3.3
				s-6.1-3.1-8.6-5.8c-2.4-2.7-3.6-6.4-3.6-11c0-4,1.1-7.6,3.4-10.9c2.2-3.3,5.6-5.9,10.1-7.7c4.5-1.9,9.9-2.8,16.2-2.8
				c4.4,0,8.7,0.5,12.9,1.4c4.2,0.9,7.9,2.3,11.1,4.1l-6.5,15.6c-6.2-3.2-12.2-4.7-17.7-4.7c-5.5,0-8.3,1.3-8.3,4
				c0,1.3,0.8,2.2,2.5,2.9c1.6,0.6,4.3,1.3,8.1,2c4.9,0.9,8.9,2,12.3,3.1c3.3,1.2,6.2,3.1,8.7,5.8c2.5,2.7,3.7,6.3,3.7,10.9
				c0,4-1.1,7.6-3.4,10.9c-2.2,3.2-5.6,5.8-10.1,7.7c-4.5,1.9-9.9,2.9-16.2,2.9C958.3,203.3,953.2,202.7,948.1,201.5z"/>
			<path class="st3" d="M1008.7,199c-5.4-2.8-9.6-6.8-12.7-11.8c-3.1-5.1-4.6-10.8-4.6-17.2c0-6.4,1.5-12.2,4.6-17.2
				c3.1-5.1,7.3-9,12.7-11.8c5.4-2.8,11.5-4.2,18.2-4.2c6.2,0,11.7,1.1,16.6,3.3c4.9,2.2,8.9,5.3,12,9.5l-13.6,12.1
				c-3.9-5-8.6-7.5-13.9-7.5c-4.5,0-8.1,1.4-10.8,4.3c-2.7,2.9-4.1,6.8-4.1,11.6c0,4.9,1.4,8.7,4.1,11.6c2.7,2.9,6.3,4.3,10.8,4.3
				c5.3,0,10-2.5,13.9-7.5l13.6,12.1c-3.2,4.1-7.2,7.3-12,9.5c-4.9,2.2-10.4,3.3-16.6,3.3C1020.2,203.3,1014.1,201.8,1008.7,199z"/>
			<path class="st3" d="M1098.5,190.7h-24.2l-4.3,11.1h-21.8l27.8-63.7h21.1l27.8,63.7h-22.2L1098.5,190.7z M1092.6,175.2l-6.2-16
				l-6.2,16H1092.6z"/>
			<path class="st3" d="M1150.1,185.8h-5.8v16h-21.5v-63.7h30.7c5.9,0,11,1,15.4,2.9c4.4,1.9,7.7,4.7,10.1,8.4s3.5,7.9,3.5,12.7
				c0,4.5-1,8.5-3.1,11.9c-2.1,3.4-5,6.1-8.9,8.1l13.4,19.7H1161L1150.1,185.8z M1158.7,156.6c-1.5-1.3-3.6-2-6.6-2h-7.8v14.9h7.8
				c2.9,0,5.1-0.7,6.6-2c1.5-1.3,2.2-3.1,2.2-5.5C1160.9,159.8,1160.1,157.9,1158.7,156.6z"/>
			<path class="st3" d="M1227.1,168.2h18.7v26.9c-3.8,2.6-8.1,4.6-13.1,6c-5,1.4-9.9,2.1-14.7,2.1c-6.8,0-12.9-1.4-18.3-4.2
				c-5.4-2.8-9.6-6.8-12.7-11.8c-3.1-5.1-4.6-10.8-4.6-17.2c0-6.4,1.5-12.2,4.6-17.2c3.1-5.1,7.3-9,12.8-11.8
				c5.5-2.8,11.7-4.2,18.6-4.2c6.2,0,11.8,1,16.8,3.1c4.9,2.1,9.1,5.1,12.3,9.1l-13.7,12.1c-4-4.7-8.8-7-14.3-7
				c-4.7,0-8.5,1.4-11.3,4.3c-2.8,2.9-4.2,6.7-4.2,11.6c0,4.8,1.4,8.6,4.1,11.6c2.8,2.9,6.4,4.4,11.1,4.4c2.7,0,5.3-0.5,7.8-1.5
				V168.2z"/>
			<path class="st3" d="M1292.7,190.7h-24.2l-4.3,11.1h-21.8l27.8-63.7h21.1l27.8,63.7H1297L1292.7,190.7z M1286.8,175.2l-6.2-16
				l-6.2,16H1286.8z"/>
			<path class="st3" d="M1391.6,185.6v16.2h-53v-63.7h51.8v16.2h-30.7v7.5h26.9v15.5h-26.9v8.4H1391.6z"/>
			<path class="st3" d="M1394.3,138.1h21.5v47h28.8v16.7h-50.2V138.1z"/>
			<path class="st3" d="M814.7,235.1h31.4c7.1,0,13.4,1.3,18.8,3.9c5.4,2.6,9.6,6.3,12.6,11.1c3,4.8,4.5,10.4,4.5,16.9
				c0,6.5-1.5,12.1-4.5,16.9c-3,4.8-7.2,8.5-12.6,11.1c-5.4,2.6-11.7,3.9-18.8,3.9h-31.4V235.1z M845.2,282.1c4.6,0,8.3-1.3,11.1-4
				c2.8-2.6,4.1-6.4,4.1-11.1c0-4.8-1.4-8.5-4.1-11.1c-2.8-2.6-6.4-4-11.1-4h-9v30.2H845.2z"/>
			<path class="st3" d="M899.1,296c-5.5-2.9-9.7-6.8-12.8-11.9c-3.1-5.1-4.6-10.8-4.6-17.2c0-6.4,1.5-12.1,4.6-17.2
				c3.1-5.1,7.4-9,12.8-11.9c5.5-2.9,11.6-4.3,18.5-4.3c6.9,0,13,1.4,18.5,4.3c5.5,2.9,9.7,6.8,12.8,11.9c3.1,5.1,4.6,10.8,4.6,17.2
				c0,6.4-1.5,12.1-4.6,17.2c-3.1,5.1-7.4,9-12.8,11.9c-5.5,2.9-11.6,4.3-18.5,4.3C910.8,300.3,904.6,298.8,899.1,296z M924.9,280.9
				c2.2-1.3,3.9-3.2,5.1-5.6c1.3-2.4,1.9-5.2,1.9-8.4c0-3.2-0.6-6-1.9-8.4c-1.3-2.4-3-4.2-5.1-5.6c-2.2-1.3-4.6-2-7.2-2
				c-2.7,0-5.1,0.7-7.2,2c-2.2,1.3-3.9,3.2-5.1,5.6c-1.3,2.4-1.9,5.2-1.9,8.4c0,3.2,0.6,6,1.9,8.4c1.3,2.4,3,4.2,5.1,5.6
				c2.2,1.3,4.6,2,7.2,2C920.3,282.9,922.7,282.2,924.9,280.9z"/>
			<path class="st3" d="M970.5,296c-5.4-2.8-9.6-6.8-12.7-11.8c-3.1-5.1-4.6-10.8-4.6-17.2c0-6.4,1.5-12.2,4.6-17.2
				c3.1-5.1,7.3-9,12.7-11.8c5.4-2.8,11.5-4.2,18.2-4.2c6.2,0,11.7,1.1,16.6,3.3c4.9,2.2,8.9,5.3,12,9.5l-13.6,12.1
				c-3.9-5-8.6-7.5-13.9-7.5c-4.5,0-8.1,1.4-10.8,4.3c-2.7,2.9-4.1,6.7-4.1,11.6s1.4,8.7,4.1,11.6c2.7,2.9,6.3,4.3,10.8,4.3
				c5.3,0,10-2.5,13.9-7.5l13.6,12.1c-3.2,4.1-7.2,7.3-12,9.5c-4.9,2.2-10.4,3.3-16.6,3.3C982,300.3,975.9,298.8,970.5,296z"/>
			<path class="st3" d="M1024.5,292.3c-5.5-5.3-8.2-12.7-8.2-22.2v-35h21.5v34.4c0,4.7,0.8,8.1,2.5,10.2c1.7,2.1,4.1,3.2,7.2,3.2
				s5.6-1.1,7.2-3.2c1.7-2.1,2.5-5.5,2.5-10.2v-34.4h21.1v35c0,9.5-2.7,16.9-8.2,22.2s-13.1,7.9-22.8,7.9
				C1037.6,300.3,1030,297.6,1024.5,292.3z"/>
			<path class="st3" d="M1139.5,298.8l-0.2-29l-13.8,23.3h-9.5l-13.8-22.3v28h-19.6v-63.7h17.7L1121,269l20.2-33.9h17.7l0.2,63.7
				H1139.5z"/>
			<path class="st3" d="M1216.7,282.6v16.2h-53v-63.7h51.8v16.2h-30.7v7.5h26.9v15.5h-26.9v8.4H1216.7z"/>
			<path class="st3" d="M1282.2,235.1v63.7h-17.7l-24.2-28.9v28.9h-20.9v-63.7h17.7l24.2,28.9v-28.9H1282.2z"/>
			<path class="st3" d="M1300.7,251.8h-18.7v-16.7h58.8v16.7h-18.7v47h-21.5V251.8z"/>
			<path class="st3" d="M1354.8,296c-5.5-2.9-9.7-6.8-12.8-11.9c-3.1-5.1-4.6-10.8-4.6-17.2c0-6.4,1.5-12.1,4.6-17.2
				c3.1-5.1,7.4-9,12.8-11.9c5.5-2.9,11.6-4.3,18.5-4.3c6.9,0,13,1.4,18.5,4.3c5.5,2.9,9.7,6.8,12.8,11.9c3.1,5.1,4.6,10.8,4.6,17.2
				c0,6.4-1.5,12.1-4.6,17.2c-3.1,5.1-7.4,9-12.8,11.9c-5.5,2.9-11.6,4.3-18.5,4.3C1366.4,300.3,1360.2,298.8,1354.8,296z
				 M1380.5,280.9c2.2-1.3,3.9-3.2,5.1-5.6c1.3-2.4,1.9-5.2,1.9-8.4c0-3.2-0.6-6-1.9-8.4c-1.3-2.4-3-4.2-5.1-5.6
				c-2.2-1.3-4.6-2-7.2-2c-2.7,0-5.1,0.7-7.2,2c-2.2,1.3-3.9,3.2-5.1,5.6c-1.3,2.4-1.9,5.2-1.9,8.4c0,3.2,0.6,6,1.9,8.4
				c1.3,2.4,3,4.2,5.1,5.6c2.2,1.3,4.6,2,7.2,2C1375.9,282.9,1378.3,282.2,1380.5,280.9z"/>
		</g>
	</g>
</g>
</svg>
