<?xml version="1.0" encoding="utf-8"?>
<!-- Generator: Adobe Illustrator 22.1.0, SVG Export Plug-In . SVG Version: 6.00 Build 0)  -->
<svg version="1.1" id="Capa_1" xmlns="http://www.w3.org/2000/svg" xmlns:xlink="http://www.w3.org/1999/xlink" x="0px" y="0px"
	 viewBox="0 0 350 341.9" style="enable-background:new 0 0 350 341.9;" xml:space="preserve">
<style type="text/css">
	.st0{fill:#FFFFFF;}
</style>
<path class="st0" d="M349.8,262.6c0-69-0.1-137.9,0.1-207c-0.3-6.8,0.2-14.2-3.9-20.1c-5.8-4-13.2-3.5-20-3.8
	c-39.8,0.2-79.6,0.1-119.4,0.1c0-10.6,0-21.2,0-31.8h-23.6C122.1,10.8,61,21.2,0,31.8c0,92.7,0,185.5,0,278.2
	c60.7,10.6,121.4,20.8,182,31.8h24.7c0-11.9,0-23.9,0-35.8c41.2-0.1,82.5,0.1,123.6,0c6.6-0.3,16.6-0.5,18.2-8.7
	C350.9,286,349.6,274.2,349.8,262.6z M117.1,233.2c-6.8-16.6-15-32.6-19.8-49.9c-5.4,16.1-13.1,31.4-19.3,47.2
	c-8.7-0.1-17.4-0.5-26.1-0.8c10.2-20,20.1-40.2,30.6-60c-8.9-20.5-18.8-40.5-28-60.9c8.7-0.5,17.5-1,26.2-1.5
	C86.6,122.7,93.1,138,98,154c5.2-16.9,13.1-32.8,19.8-49.1c9-0.6,18-1.2,27-1.6c-10.6,21.7-21.3,43.5-32.1,65.2
	c10.9,22.3,22.1,44.4,33.1,66.6C136.2,234.4,126.7,233.8,117.1,233.2z M337.9,294.2c-43.7,0-87.5,0-131.2,0c0-8,0-15.9,0-23.9
	c10.6,0,21.2,0,31.8,0c0-9.3,0-18.6,0-27.8c-10.6,0-21.2,0-31.8,0c0-5.3,0-10.6,0-15.9c10.6,0,21.2,0,31.8,0c0-9.3,0-18.6,0-27.8
	c-10.6,0-21.2,0-31.8,0c0-5.3,0-10.6,0-15.9c10.6,0,21.2,0,31.8,0c0-9.3,0-18.6,0-27.8c-10.6,0-21.2,0-31.8,0c0-5.3,0-10.6,0-15.9
	c10.6,0,21.2,0,31.8,0c0-9.3,0-18.6,0-27.8c-10.6,0-21.2,0-31.8,0c0-5.3,0-10.6,0-15.9c10.6,0,21.2,0,31.8,0c0-9.3,0-18.6,0-27.8
	c-10.6,0-21.2,0-31.8,0c0-8,0-15.9,0-23.9c43.7,0,87.5,0,131.2,0C337.9,127.2,337.9,210.7,337.9,294.2z"/>
<rect x="254.4" y="67.6" class="st0" width="55.7" height="27.8"/>
<rect x="254.4" y="111.3" class="st0" width="55.7" height="27.8"/>
<rect x="254.4" y="155" class="st0" width="55.7" height="27.8"/>
<rect x="254.4" y="198.8" class="st0" width="55.7" height="27.8"/>
<rect x="254.4" y="242.5" class="st0" width="55.7" height="27.8"/>
</svg>
