<?xml version="1.0" encoding="utf-8"?>
<!-- Generator: Adobe Illustrator 22.1.0, SVG Export Plug-In . SVG Version: 6.00 Build 0)  -->
<svg version="1.1" id="Capa_1" xmlns="http://www.w3.org/2000/svg" xmlns:xlink="http://www.w3.org/1999/xlink" x="0px" y="0px"
	 viewBox="0 0 1371.8 602.9" style="enable-background:new 0 0 1371.8 602.9;" xml:space="preserve">
<style type="text/css">
	.st0{opacity:0.25;}
	.st1{fill:#FFFFFF;}
	.st2{opacity:0.28;}
	.st3{fill:#DEDEDE;}
	.st4{fill:url(#SVGID_1_);}
	.st5{fill:#E0E0E0;}
	.st6{fill:#EDEDED;}
	.st7{fill:#E6E6E6;}
	.st8{fill:#227447;}
	.st9{fill:#F1F1F1;}
	.st10{fill:none;stroke:#C4C4C4;stroke-miterlimit:10;}
	.st11{fill:#CCE2D1;}
	.st12{fill:#EEC87F;}
	.st13{fill:#90928F;}
	.st14{fill:#FFFFFF;stroke:#C1BEC1;stroke-miterlimit:10;}
	.st15{fill:#FFFFFF;stroke:#C1BEC1;stroke-linecap:round;stroke-linejoin:round;stroke-miterlimit:10;}
	.st16{fill:#C4C4C4;}
	.st17{fill:#939393;}
	.st18{display:none;}
	.st19{opacity:0.25;enable-background:new    ;}
	.st20{fill:#207245;}
</style>
<g>
	<g class="st0">
		<path d="M275.5,210v24.3H253v-24.6l-25.2-42.3h23.8l13.7,23.1l13.8-23.1h21.8L275.5,210z"/>
		<path d="M338.9,222.7h-25.4l-4.5,11.7h-22.9l29.2-66.9h22.2l29.2,66.9h-23.3L338.9,222.7z M332.7,206.4l-6.5-16.8l-6.5,16.8H332.7
			z"/>
		<path d="M401.7,184.9h-19.6v-17.5h61.7v17.5h-19.6v49.4h-22.5V184.9z"/>
		<path d="M443.7,167.4h22.5v66.9h-22.5V167.4z"/>
		<path d="M526.9,217.3v17h-55.6v-66.9h54.4v17h-32.2v7.8h28.3v16.2h-28.3v8.8H526.9z"/>
		<path d="M595.5,167.4v66.9H577l-25.4-30.4v30.4h-22v-66.9h18.5l25.4,30.4v-30.4H595.5z"/>
		<path d="M656.1,217.3v17h-55.6v-66.9h54.4v17h-32.2v7.8h28.3v16.2h-28.3v8.8H656.1z"/>
		<path d="M667.6,234c-5.3-1.2-9.6-2.9-12.9-5l7.3-16.4c3.2,1.8,6.8,3.3,10.7,4.4c3.9,1.1,7.7,1.7,11.4,1.7c3.1,0,5.3-0.3,6.7-0.9
			c1.3-0.6,2-1.5,2-2.7c0-1.4-0.9-2.5-2.6-3.2c-1.8-0.7-4.6-1.5-8.6-2.3c-5.2-1.1-9.5-2.2-12.9-3.5c-3.4-1.2-6.4-3.3-9-6.1
			c-2.5-2.8-3.8-6.7-3.8-11.5c0-4.2,1.2-8,3.5-11.5c2.4-3.4,5.9-6.1,10.6-8.1c4.7-2,10.4-3,17.1-3c4.6,0,9.1,0.5,13.5,1.5
			c4.4,1,8.3,2.4,11.7,4.3l-6.8,16.3c-6.6-3.3-12.8-5-18.6-5c-5.8,0-8.7,1.4-8.7,4.2c0,1.3,0.9,2.3,2.6,3c1.7,0.7,4.6,1.4,8.5,2.1
			c5.1,1,9.4,2.1,12.9,3.3c3.5,1.2,6.5,3.3,9.1,6.1c2.6,2.8,3.9,6.6,3.9,11.5c0,4.2-1.2,8-3.5,11.4c-2.4,3.4-5.9,6.1-10.6,8.1
			c-4.7,2-10.4,3-17.1,3C678.3,235.8,672.9,235.2,667.6,234z"/>
		<path d="M181.7,269.3h22.5v49.4h30.2v17.5h-52.7V269.3z"/>
		<path d="M249.4,333.2c-5.7-3-10.2-7.1-13.5-12.5c-3.2-5.3-4.9-11.3-4.9-18s1.6-12.7,4.9-18c3.2-5.3,7.7-9.5,13.5-12.5
			c5.7-3,12.2-4.5,19.4-4.5c7.2,0,13.7,1.5,19.4,4.5c5.7,3,10.2,7.1,13.5,12.5c3.2,5.3,4.9,11.3,4.9,18s-1.6,12.7-4.9,18
			c-3.2,5.3-7.7,9.5-13.5,12.5s-12.2,4.5-19.4,4.5C261.6,337.7,255.2,336.2,249.4,333.2z M276.4,317.4c2.3-1.4,4.1-3.3,5.4-5.8
			c1.3-2.5,2-5.5,2-8.8c0-3.4-0.7-6.3-2-8.8c-1.3-2.5-3.1-4.5-5.4-5.8c-2.3-1.4-4.8-2.1-7.6-2.1c-2.8,0-5.3,0.7-7.6,2.1
			c-2.3,1.4-4.1,3.3-5.4,5.8c-1.3,2.5-2,5.5-2,8.8c0,3.4,0.7,6.3,2,8.8c1.3,2.5,3.1,4.5,5.4,5.8c2.3,1.4,4.8,2.1,7.6,2.1
			C271.6,319.4,274.2,318.7,276.4,317.4z"/>
		<path d="M317.6,335.8c-5.3-1.2-9.6-2.9-12.9-5l7.3-16.4c3.2,1.8,6.8,3.3,10.7,4.4c3.9,1.1,7.7,1.7,11.4,1.7c3.1,0,5.3-0.3,6.7-0.9
			c1.3-0.6,2-1.5,2-2.7c0-1.4-0.9-2.5-2.6-3.2c-1.8-0.7-4.6-1.5-8.6-2.3c-5.2-1.1-9.5-2.2-12.9-3.5c-3.4-1.2-6.4-3.3-9-6.1
			c-2.5-2.8-3.8-6.7-3.8-11.5c0-4.2,1.2-8,3.5-11.5c2.4-3.4,5.9-6.1,10.6-8.1c4.7-2,10.4-3,17.1-3c4.6,0,9.1,0.5,13.5,1.5
			c4.4,1,8.3,2.4,11.7,4.3l-6.8,16.3c-6.6-3.3-12.8-5-18.6-5c-5.8,0-8.7,1.4-8.7,4.2c0,1.3,0.9,2.3,2.6,3c1.7,0.7,4.6,1.4,8.5,2.1
			c5.1,1,9.4,2.1,12.9,3.3c3.5,1.2,6.5,3.3,9.1,6.1c2.6,2.8,3.9,6.6,3.9,11.5c0,4.2-1.2,8-3.5,11.4c-2.4,3.4-5.9,6.1-10.6,8.1
			c-4.7,2-10.4,3-17.1,3C328.2,337.7,322.8,337,317.6,335.8z"/>
		<path d="M388.4,269.3h33c7.5,0,14,1.4,19.7,4.1c5.7,2.7,10.1,6.6,13.3,11.6c3.2,5,4.7,11,4.7,17.8c0,6.8-1.6,12.7-4.7,17.8
			c-3.2,5-7.6,8.9-13.3,11.6c-5.7,2.7-12.3,4.1-19.7,4.1h-33V269.3z M420.4,318.6c4.8,0,8.7-1.4,11.6-4.2c2.9-2.8,4.3-6.7,4.3-11.7
			c0-5-1.4-8.9-4.3-11.7c-2.9-2.8-6.8-4.2-11.6-4.2H411v31.7H420.4z"/>
		<path d="M506,324.5h-25.4l-4.5,11.7h-22.9l29.2-66.9h22.2l29.2,66.9h-23.3L506,324.5z M499.8,308.2l-6.5-16.8l-6.5,16.8H499.8z"/>
		<path d="M542.7,286.7h-19.6v-17.5h61.7v17.5h-19.6v49.4h-22.5V286.7z"/>
		<path d="M599.5,333.2c-5.7-3-10.2-7.1-13.5-12.5c-3.2-5.3-4.9-11.3-4.9-18s1.6-12.7,4.9-18c3.2-5.3,7.7-9.5,13.5-12.5
			c5.7-3,12.2-4.5,19.4-4.5c7.2,0,13.7,1.5,19.4,4.5c5.7,3,10.2,7.1,13.5,12.5c3.2,5.3,4.9,11.3,4.9,18s-1.6,12.7-4.9,18
			c-3.2,5.3-7.7,9.5-13.5,12.5c-5.7,3-12.2,4.5-19.4,4.5C611.6,337.7,605.2,336.2,599.5,333.2z M626.4,317.4
			c2.3-1.4,4.1-3.3,5.4-5.8c1.3-2.5,2-5.5,2-8.8c0-3.4-0.7-6.3-2-8.8c-1.3-2.5-3.1-4.5-5.4-5.8c-2.3-1.4-4.8-2.1-7.6-2.1
			c-2.8,0-5.3,0.7-7.6,2.1c-2.3,1.4-4.1,3.3-5.4,5.8c-1.3,2.5-2,5.5-2,8.8c0,3.4,0.7,6.3,2,8.8c1.3,2.5,3.1,4.5,5.4,5.8
			c2.3,1.4,4.8,2.1,7.6,2.1C621.6,319.4,624.2,318.7,626.4,317.4z"/>
		<path d="M667.6,335.8c-5.3-1.2-9.6-2.9-12.9-5l7.3-16.4c3.2,1.8,6.8,3.3,10.7,4.4c3.9,1.1,7.7,1.7,11.4,1.7c3.1,0,5.3-0.3,6.7-0.9
			c1.3-0.6,2-1.5,2-2.7c0-1.4-0.9-2.5-2.6-3.2c-1.8-0.7-4.6-1.5-8.6-2.3c-5.2-1.1-9.5-2.2-12.9-3.5c-3.4-1.2-6.4-3.3-9-6.1
			c-2.5-2.8-3.8-6.7-3.8-11.5c0-4.2,1.2-8,3.5-11.5c2.4-3.4,5.9-6.1,10.6-8.1c4.7-2,10.4-3,17.1-3c4.6,0,9.1,0.5,13.5,1.5
			c4.4,1,8.3,2.4,11.7,4.3l-6.8,16.3c-6.6-3.3-12.8-5-18.6-5c-5.8,0-8.7,1.4-8.7,4.2c0,1.3,0.9,2.3,2.6,3c1.7,0.7,4.6,1.4,8.5,2.1
			c5.1,1,9.4,2.1,12.9,3.3c3.5,1.2,6.5,3.3,9.1,6.1c2.6,2.8,3.9,6.6,3.9,11.5c0,4.2-1.2,8-3.5,11.4c-2.4,3.4-5.9,6.1-10.6,8.1
			c-4.7,2-10.4,3-17.1,3C678.3,337.7,672.9,337,667.6,335.8z"/>
		<path d="M18.3,435c-5.7-3-10.2-7.1-13.5-12.5c-3.2-5.3-4.9-11.3-4.9-18s1.6-12.7,4.9-18c3.2-5.3,7.7-9.5,13.5-12.5
			c5.7-3,12.2-4.5,19.4-4.5c7.2,0,13.7,1.5,19.4,4.5c5.7,3,10.2,7.1,13.5,12.5c3.2,5.3,4.9,11.3,4.9,18s-1.6,12.7-4.9,18
			c-3.2,5.3-7.7,9.5-13.5,12.5c-5.7,3-12.2,4.5-19.4,4.5C30.5,439.5,24.1,438,18.3,435z M45.3,419.2c2.3-1.4,4.1-3.3,5.4-5.8
			c1.3-2.5,2-5.5,2-8.8c0-3.4-0.7-6.3-2-8.8c-1.3-2.5-3.1-4.5-5.4-5.8c-2.3-1.4-4.8-2.1-7.6-2.1c-2.8,0-5.3,0.7-7.6,2.1
			c-2.3,1.4-4.1,3.3-5.4,5.8c-1.3,2.5-2,5.5-2,8.8c0,3.4,0.7,6.3,2,8.8c1.3,2.5,3.1,4.5,5.4,5.8c2.3,1.4,4.8,2.1,7.6,2.1
			C40.5,421.3,43.1,420.6,45.3,419.2z"/>
		<path d="M106.4,421.2h-6.1V438H77.8v-66.9H110c6.2,0,11.6,1,16.1,3.1c4.6,2,8.1,5,10.6,8.8s3.7,8.3,3.7,13.4
			c0,4.8-1.1,8.9-3.2,12.5c-2.2,3.6-5.3,6.4-9.4,8.5l14,20.6h-24.1L106.4,421.2z M115.4,390.5c-1.5-1.4-3.8-2.1-6.9-2.1h-8.2v15.7
			h8.2c3.1,0,5.3-0.7,6.9-2.1c1.5-1.4,2.3-3.3,2.3-5.8S116.9,391.9,115.4,390.5z"/>
		<path d="M187.2,402.7h19.6V431c-3.9,2.7-8.5,4.8-13.8,6.3c-5.2,1.5-10.4,2.2-15.4,2.2c-7.1,0-13.5-1.5-19.2-4.4
			c-5.7-3-10.1-7.1-13.3-12.4c-3.2-5.3-4.8-11.4-4.8-18.1c0-6.8,1.6-12.8,4.8-18.1c3.2-5.3,7.7-9.5,13.5-12.4
			c5.8-3,12.3-4.4,19.5-4.4c6.6,0,12.4,1.1,17.6,3.3c5.2,2.2,9.5,5.4,12.9,9.6l-14.4,12.7c-4.2-4.9-9.2-7.4-15-7.4
			c-5,0-8.9,1.5-11.8,4.5c-2.9,3-4.4,7.1-4.4,12.2c0,5,1.4,9.1,4.3,12.1c2.9,3.1,6.8,4.6,11.6,4.6c2.9,0,5.6-0.5,8.2-1.6V402.7z"/>
		<path d="M256.1,426.3h-25.4l-4.5,11.7h-22.9l29.2-66.9h22.2l29.2,66.9h-23.3L256.1,426.3z M249.9,410.1l-6.5-16.8l-6.5,16.8H249.9
			z"/>
		<path d="M347.5,371.1V438H329l-25.4-30.4V438h-22v-66.9h18.5l25.4,30.4v-30.4H347.5z"/>
		<path d="M352.5,371.1h22.5V438h-22.5V371.1z"/>
		<path d="M439.1,420.5V438h-61.4v-13.9l30.6-35.5h-29.6v-17.5h58.9v13.9L407,420.5H439.1z"/>
		<path d="M485.3,426.3h-25.4l-4.5,11.7h-22.9l29.2-66.9h22.2l29.2,66.9h-23.3L485.3,426.3z M479.1,410.1l-6.5-16.8l-6.5,16.8H479.1
			z"/>
		<path d="M510.8,371.1h33c7.5,0,14,1.4,19.7,4.1c5.7,2.7,10.1,6.6,13.3,11.6c3.2,5,4.7,11,4.7,17.8c0,6.8-1.6,12.7-4.7,17.8
			c-3.2,5-7.6,8.9-13.3,11.6c-5.7,2.7-12.3,4.1-19.7,4.1h-33V371.1z M542.8,420.4c4.8,0,8.7-1.4,11.6-4.2c2.9-2.8,4.3-6.7,4.3-11.7
			c0-5-1.4-8.9-4.3-11.7c-2.9-2.8-6.8-4.2-11.6-4.2h-9.5v31.7H542.8z"/>
		<path d="M599.5,435c-5.7-3-10.2-7.1-13.5-12.5c-3.2-5.3-4.9-11.3-4.9-18s1.6-12.7,4.9-18c3.2-5.3,7.7-9.5,13.5-12.5
			c5.7-3,12.2-4.5,19.4-4.5c7.2,0,13.7,1.5,19.4,4.5c5.7,3,10.2,7.1,13.5,12.5c3.2,5.3,4.9,11.3,4.9,18s-1.6,12.7-4.9,18
			c-3.2,5.3-7.7,9.5-13.5,12.5c-5.7,3-12.2,4.5-19.4,4.5C611.7,439.5,605.2,438,599.5,435z M626.4,419.2c2.3-1.4,4.1-3.3,5.4-5.8
			c1.3-2.5,2-5.5,2-8.8c0-3.4-0.7-6.3-2-8.8c-1.3-2.5-3.1-4.5-5.4-5.8c-2.3-1.4-4.8-2.1-7.6-2.1c-2.8,0-5.3,0.7-7.6,2.1
			c-2.3,1.4-4.1,3.3-5.4,5.8c-1.3,2.5-2,5.5-2,8.8c0,3.4,0.7,6.3,2,8.8c1.3,2.5,3.1,4.5,5.4,5.8c2.3,1.4,4.8,2.1,7.6,2.1
			C621.7,421.3,624.2,420.6,626.4,419.2z"/>
		<path d="M667.6,437.6c-5.3-1.2-9.6-2.9-12.9-5l7.3-16.4c3.2,1.8,6.8,3.3,10.7,4.4c3.9,1.1,7.7,1.7,11.4,1.7c3.1,0,5.3-0.3,6.7-0.9
			c1.3-0.6,2-1.5,2-2.7c0-1.4-0.9-2.5-2.6-3.2c-1.8-0.7-4.6-1.5-8.6-2.3c-5.2-1.1-9.5-2.2-12.9-3.5c-3.4-1.2-6.4-3.3-9-6.1
			c-2.5-2.8-3.8-6.7-3.8-11.5c0-4.2,1.2-8,3.5-11.5c2.4-3.4,5.9-6.1,10.6-8.1c4.7-2,10.4-3,17.1-3c4.6,0,9.1,0.5,13.5,1.5
			c4.4,1,8.3,2.4,11.7,4.3l-6.8,16.3c-6.6-3.3-12.8-5-18.6-5c-5.8,0-8.7,1.4-8.7,4.2c0,1.3,0.9,2.3,2.6,3c1.7,0.7,4.6,1.4,8.5,2.1
			c5.1,1,9.4,2.1,12.9,3.3c3.5,1.2,6.5,3.3,9.1,6.1c2.6,2.8,3.9,6.6,3.9,11.5c0,4.2-1.2,8-3.5,11.4c-2.4,3.4-5.9,6.1-10.6,8.1
			c-4.7,2-10.4,3-17.1,3C678.3,439.5,672.9,438.9,667.6,437.6z"/>
	</g>
	<g>
		<path class="st1" d="M283.5,203.9v24.3H261v-24.6l-25.2-42.3h23.8l13.7,23.1l13.8-23.1h21.8L283.5,203.9z"/>
		<path class="st1" d="M347,216.5h-25.4l-4.5,11.7h-22.9l29.2-66.9h22.2l29.2,66.9h-23.3L347,216.5z M340.7,200.3l-6.5-16.8
			l-6.5,16.8H340.7z"/>
		<path class="st1" d="M409.7,178.8h-19.6v-17.5h61.7v17.5h-19.6v49.4h-22.5V178.8z"/>
		<path class="st1" d="M451.8,161.3h22.5v66.9h-22.5V161.3z"/>
		<path class="st1" d="M534.9,211.2v17h-55.6v-66.9h54.4v17h-32.2v7.8h28.3v16.2h-28.3v8.8H534.9z"/>
		<path class="st1" d="M603.6,161.3v66.9H585l-25.4-30.4v30.4h-22v-66.9h18.5l25.4,30.4v-30.4H603.6z"/>
		<path class="st1" d="M664.1,211.2v17h-55.6v-66.9h54.4v17h-32.2v7.8H659v16.2h-28.3v8.8H664.1z"/>
		<path class="st1" d="M675.6,227.9c-5.3-1.2-9.6-2.9-12.9-5l7.3-16.4c3.2,1.8,6.8,3.3,10.7,4.4c3.9,1.1,7.7,1.7,11.4,1.7
			c3.1,0,5.3-0.3,6.7-0.9c1.3-0.6,2-1.5,2-2.7c0-1.4-0.9-2.5-2.6-3.2c-1.8-0.7-4.6-1.5-8.6-2.3c-5.2-1.1-9.5-2.2-12.9-3.5
			c-3.4-1.2-6.4-3.3-9-6.1c-2.5-2.8-3.8-6.7-3.8-11.5c0-4.2,1.2-8,3.5-11.5c2.4-3.4,5.9-6.1,10.6-8.1c4.7-2,10.4-3,17.1-3
			c4.6,0,9.1,0.5,13.5,1.5c4.4,1,8.3,2.4,11.7,4.3l-6.8,16.3c-6.6-3.3-12.8-5-18.6-5c-5.8,0-8.7,1.4-8.7,4.2c0,1.3,0.9,2.3,2.6,3
			c1.7,0.7,4.6,1.4,8.5,2.1c5.1,1,9.4,2.1,12.9,3.3c3.5,1.2,6.5,3.3,9.1,6.1c2.6,2.8,3.9,6.6,3.9,11.5c0,4.2-1.2,8-3.5,11.4
			c-2.4,3.4-5.9,6.1-10.6,8.1c-4.7,2-10.4,3-17.1,3C686.3,229.7,680.9,229.1,675.6,227.9z"/>
		<path class="st1" d="M189.7,263.2h22.5v49.4h30.2V330h-52.7V263.2z"/>
		<path class="st1" d="M257.4,327.1c-5.7-3-10.2-7.1-13.5-12.5c-3.2-5.3-4.9-11.3-4.9-18s1.6-12.7,4.9-18c3.2-5.3,7.7-9.5,13.5-12.5
			c5.7-3,12.2-4.5,19.4-4.5c7.2,0,13.7,1.5,19.4,4.5c5.7,3,10.2,7.1,13.5,12.5c3.2,5.3,4.9,11.3,4.9,18s-1.6,12.7-4.9,18
			c-3.2,5.3-7.7,9.5-13.5,12.5s-12.2,4.5-19.4,4.5C269.6,331.6,263.2,330.1,257.4,327.1z M284.4,311.3c2.3-1.4,4.1-3.3,5.4-5.8
			c1.3-2.5,2-5.5,2-8.8c0-3.4-0.7-6.3-2-8.8c-1.3-2.5-3.1-4.5-5.4-5.8c-2.3-1.4-4.8-2.1-7.6-2.1c-2.8,0-5.3,0.7-7.6,2.1
			c-2.3,1.4-4.1,3.3-5.4,5.8c-1.3,2.5-2,5.5-2,8.8c0,3.4,0.7,6.3,2,8.8c1.3,2.5,3.1,4.5,5.4,5.8c2.3,1.4,4.8,2.1,7.6,2.1
			C279.6,313.3,282.2,312.6,284.4,311.3z"/>
		<path class="st1" d="M325.6,329.7c-5.3-1.2-9.6-2.9-12.9-5l7.3-16.4c3.2,1.8,6.8,3.3,10.7,4.4c3.9,1.1,7.7,1.7,11.4,1.7
			c3.1,0,5.3-0.3,6.7-0.9c1.3-0.6,2-1.5,2-2.7c0-1.4-0.9-2.5-2.6-3.2c-1.8-0.7-4.6-1.5-8.6-2.3c-5.2-1.1-9.5-2.2-12.9-3.5
			c-3.4-1.2-6.4-3.3-9-6.1c-2.5-2.8-3.8-6.7-3.8-11.5c0-4.2,1.2-8,3.5-11.5c2.4-3.4,5.9-6.1,10.6-8.1c4.7-2,10.4-3,17.1-3
			c4.6,0,9.1,0.5,13.5,1.5c4.4,1,8.3,2.4,11.7,4.3l-6.8,16.3c-6.6-3.3-12.8-5-18.6-5c-5.8,0-8.7,1.4-8.7,4.2c0,1.3,0.9,2.3,2.6,3
			c1.7,0.7,4.6,1.4,8.5,2.1c5.1,1,9.4,2.1,12.9,3.3c3.5,1.2,6.5,3.3,9.1,6.1c2.6,2.8,3.9,6.6,3.9,11.5c0,4.2-1.2,8-3.5,11.4
			c-2.4,3.4-5.9,6.1-10.6,8.1c-4.7,2-10.4,3-17.1,3C336.3,331.6,330.9,330.9,325.6,329.7z"/>
		<path class="st1" d="M396.4,263.2h33c7.5,0,14,1.4,19.7,4.1c5.7,2.7,10.1,6.6,13.3,11.6c3.2,5,4.7,11,4.7,17.8
			c0,6.8-1.6,12.7-4.7,17.8c-3.2,5-7.6,8.9-13.3,11.6c-5.7,2.7-12.3,4.1-19.7,4.1h-33V263.2z M428.4,312.5c4.8,0,8.7-1.4,11.6-4.2
			c2.9-2.8,4.3-6.7,4.3-11.7c0-5-1.4-8.9-4.3-11.7c-2.9-2.8-6.8-4.2-11.6-4.2H419v31.7H428.4z"/>
		<path class="st1" d="M514,318.4h-25.4l-4.5,11.7h-22.9l29.2-66.9h22.2l29.2,66.9h-23.3L514,318.4z M507.8,302.1l-6.5-16.8
			l-6.5,16.8H507.8z"/>
		<path class="st1" d="M550.7,280.6h-19.6v-17.5h61.7v17.5h-19.6V330h-22.5V280.6z"/>
		<path class="st1" d="M607.5,327.1c-5.7-3-10.2-7.1-13.5-12.5c-3.2-5.3-4.9-11.3-4.9-18s1.6-12.7,4.9-18c3.2-5.3,7.7-9.5,13.5-12.5
			c5.7-3,12.2-4.5,19.4-4.5c7.2,0,13.7,1.5,19.4,4.5c5.7,3,10.2,7.1,13.5,12.5c3.2,5.3,4.9,11.3,4.9,18s-1.6,12.7-4.9,18
			c-3.2,5.3-7.7,9.5-13.5,12.5c-5.7,3-12.2,4.5-19.4,4.5C619.7,331.6,613.2,330.1,607.5,327.1z M634.5,311.3
			c2.3-1.4,4.1-3.3,5.4-5.8c1.3-2.5,2-5.5,2-8.8c0-3.4-0.7-6.3-2-8.8c-1.3-2.5-3.1-4.5-5.4-5.8c-2.3-1.4-4.8-2.1-7.6-2.1
			c-2.8,0-5.3,0.7-7.6,2.1c-2.3,1.4-4.1,3.3-5.4,5.8c-1.3,2.5-2,5.5-2,8.8c0,3.4,0.7,6.3,2,8.8c1.3,2.5,3.1,4.5,5.4,5.8
			c2.3,1.4,4.8,2.1,7.6,2.1C629.7,313.3,632.2,312.6,634.5,311.3z"/>
		<path class="st1" d="M675.6,329.7c-5.3-1.2-9.6-2.9-12.9-5l7.3-16.4c3.2,1.8,6.8,3.3,10.7,4.4c3.9,1.1,7.7,1.7,11.4,1.7
			c3.1,0,5.3-0.3,6.7-0.9c1.3-0.6,2-1.5,2-2.7c0-1.4-0.9-2.5-2.6-3.2c-1.8-0.7-4.6-1.5-8.6-2.3c-5.2-1.1-9.5-2.2-12.9-3.5
			c-3.4-1.2-6.4-3.3-9-6.1c-2.5-2.8-3.8-6.7-3.8-11.5c0-4.2,1.2-8,3.5-11.5c2.4-3.4,5.9-6.1,10.6-8.1c4.7-2,10.4-3,17.1-3
			c4.6,0,9.1,0.5,13.5,1.5c4.4,1,8.3,2.4,11.7,4.3l-6.8,16.3c-6.6-3.3-12.8-5-18.6-5c-5.8,0-8.7,1.4-8.7,4.2c0,1.3,0.9,2.3,2.6,3
			c1.7,0.7,4.6,1.4,8.5,2.1c5.1,1,9.4,2.1,12.9,3.3c3.5,1.2,6.5,3.3,9.1,6.1c2.6,2.8,3.9,6.6,3.9,11.5c0,4.2-1.2,8-3.5,11.4
			c-2.4,3.4-5.9,6.1-10.6,8.1c-4.7,2-10.4,3-17.1,3C686.3,331.6,680.9,330.9,675.6,329.7z"/>
		<path class="st1" d="M26.4,428.9c-5.7-3-10.2-7.1-13.5-12.5c-3.2-5.3-4.9-11.3-4.9-18s1.6-12.7,4.9-18c3.2-5.3,7.7-9.5,13.5-12.5
			c5.7-3,12.2-4.5,19.4-4.5c7.2,0,13.7,1.5,19.4,4.5c5.7,3,10.2,7.1,13.5,12.5c3.2,5.3,4.9,11.3,4.9,18s-1.6,12.7-4.9,18
			c-3.2,5.3-7.7,9.5-13.5,12.5c-5.7,3-12.2,4.5-19.4,4.5C38.5,433.4,32.1,431.9,26.4,428.9z M53.3,413.1c2.3-1.4,4.1-3.3,5.4-5.8
			c1.3-2.5,2-5.5,2-8.8c0-3.4-0.7-6.3-2-8.8c-1.3-2.5-3.1-4.5-5.4-5.8c-2.3-1.4-4.8-2.1-7.6-2.1c-2.8,0-5.3,0.7-7.6,2.1
			c-2.3,1.4-4.1,3.3-5.4,5.8c-1.3,2.5-2,5.5-2,8.8c0,3.4,0.7,6.3,2,8.8c1.3,2.5,3.1,4.5,5.4,5.8c2.3,1.4,4.8,2.1,7.6,2.1
			C48.5,415.1,51.1,414.5,53.3,413.1z"/>
		<path class="st1" d="M114.4,415h-6.1v16.8H85.8V365H118c6.2,0,11.6,1,16.1,3.1c4.6,2,8.1,5,10.6,8.8s3.7,8.3,3.7,13.4
			c0,4.8-1.1,8.9-3.2,12.5c-2.2,3.6-5.3,6.4-9.4,8.5l14,20.6h-24.1L114.4,415z M123.4,384.4c-1.5-1.4-3.8-2.1-6.9-2.1h-8.2V398h8.2
			c3.1,0,5.3-0.7,6.9-2.1c1.5-1.4,2.3-3.3,2.3-5.8S124.9,385.8,123.4,384.4z"/>
		<path class="st1" d="M195.3,396.6h19.6v28.3c-3.9,2.7-8.5,4.8-13.8,6.3c-5.2,1.5-10.4,2.2-15.4,2.2c-7.1,0-13.5-1.5-19.2-4.4
			c-5.7-3-10.1-7.1-13.3-12.4c-3.2-5.3-4.8-11.4-4.8-18.1c0-6.8,1.6-12.8,4.8-18.1c3.2-5.3,7.7-9.5,13.5-12.4
			c5.8-3,12.3-4.4,19.5-4.4c6.6,0,12.4,1.1,17.6,3.3c5.2,2.2,9.5,5.4,12.9,9.6l-14.4,12.7c-4.2-4.9-9.2-7.4-15-7.4
			c-5,0-8.9,1.5-11.8,4.5c-2.9,3-4.4,7.1-4.4,12.2c0,5,1.4,9.1,4.3,12.1c2.9,3.1,6.8,4.6,11.6,4.6c2.9,0,5.6-0.5,8.2-1.6V396.6z"/>
		<path class="st1" d="M264.1,420.2h-25.4l-4.5,11.7h-22.9l29.2-66.9h22.2l29.2,66.9h-23.3L264.1,420.2z M257.9,404l-6.5-16.8
			l-6.5,16.8H257.9z"/>
		<path class="st1" d="M355.6,365v66.9H337l-25.4-30.4v30.4h-22V365h18.5l25.4,30.4V365H355.6z"/>
		<path class="st1" d="M360.5,365h22.5v66.9h-22.5V365z"/>
		<path class="st1" d="M447.1,414.4v17.5h-61.4V418l30.6-35.5h-29.6V365h58.9v13.9L415,414.4H447.1z"/>
		<path class="st1" d="M493.3,420.2h-25.4l-4.5,11.7h-22.9l29.2-66.9h22.2l29.2,66.9h-23.3L493.3,420.2z M487.1,404l-6.5-16.8
			l-6.5,16.8H487.1z"/>
		<path class="st1" d="M518.8,365h33c7.5,0,14,1.4,19.7,4.1c5.7,2.7,10.1,6.6,13.3,11.6c3.2,5,4.7,11,4.7,17.8
			c0,6.8-1.6,12.7-4.7,17.8c-3.2,5-7.6,8.9-13.3,11.6c-5.7,2.7-12.3,4.1-19.7,4.1h-33V365z M550.8,414.3c4.8,0,8.7-1.4,11.6-4.2
			c2.9-2.8,4.3-6.7,4.3-11.7c0-5-1.4-8.9-4.3-11.7c-2.9-2.8-6.8-4.2-11.6-4.2h-9.5v31.7H550.8z"/>
		<path class="st1" d="M607.5,428.9c-5.7-3-10.2-7.1-13.5-12.5c-3.2-5.3-4.9-11.3-4.9-18s1.6-12.7,4.9-18c3.2-5.3,7.7-9.5,13.5-12.5
			c5.7-3,12.2-4.5,19.4-4.5c7.2,0,13.7,1.5,19.4,4.5c5.7,3,10.2,7.1,13.5,12.5c3.2,5.3,4.9,11.3,4.9,18s-1.6,12.7-4.9,18
			c-3.2,5.3-7.7,9.5-13.5,12.5c-5.7,3-12.2,4.5-19.4,4.5C619.7,433.4,613.2,431.9,607.5,428.9z M634.5,413.1
			c2.3-1.4,4.1-3.3,5.4-5.8c1.3-2.5,2-5.5,2-8.8c0-3.4-0.7-6.3-2-8.8c-1.3-2.5-3.1-4.5-5.4-5.8c-2.3-1.4-4.8-2.1-7.6-2.1
			c-2.8,0-5.3,0.7-7.6,2.1c-2.3,1.4-4.1,3.3-5.4,5.8c-1.3,2.5-2,5.5-2,8.8c0,3.4,0.7,6.3,2,8.8c1.3,2.5,3.1,4.5,5.4,5.8
			c2.3,1.4,4.8,2.1,7.6,2.1C629.7,415.1,632.2,414.5,634.5,413.1z"/>
		<path class="st1" d="M675.6,431.5c-5.3-1.2-9.6-2.9-12.9-5l7.3-16.4c3.2,1.8,6.8,3.3,10.7,4.4c3.9,1.1,7.7,1.7,11.4,1.7
			c3.1,0,5.3-0.3,6.7-0.9c1.3-0.6,2-1.5,2-2.7c0-1.4-0.9-2.5-2.6-3.2c-1.8-0.7-4.6-1.5-8.6-2.3c-5.2-1.1-9.5-2.2-12.9-3.5
			c-3.4-1.2-6.4-3.3-9-6.1c-2.5-2.8-3.8-6.7-3.8-11.5c0-4.2,1.2-8,3.5-11.5c2.4-3.4,5.9-6.1,10.6-8.1c4.7-2,10.4-3,17.1-3
			c4.6,0,9.1,0.5,13.5,1.5c4.4,1,8.3,2.4,11.7,4.3l-6.8,16.3c-6.6-3.3-12.8-5-18.6-5c-5.8,0-8.7,1.4-8.7,4.2c0,1.3,0.9,2.3,2.6,3
			c1.7,0.7,4.6,1.4,8.5,2.1c5.1,1,9.4,2.1,12.9,3.3c3.5,1.2,6.5,3.3,9.1,6.1c2.6,2.8,3.9,6.6,3.9,11.5c0,4.2-1.2,8-3.5,11.4
			c-2.4,3.4-5.9,6.1-10.6,8.1c-4.7,2-10.4,3-17.1,3C686.3,433.4,680.9,432.8,675.6,431.5z"/>
	</g>
	<g>
		<path class="st2" d="M881.6,588.4c0,0-9.9-0.7-9.9,2c0,0-2,3.3,8.6,3.3l133.1,8.6c0,0,31.6,2,47.4-0.7l86.3-7.9
			c0,0,23.7-1.3,11.9-5.3l-11.9-2"/>
		<path class="st3" d="M878.3,587.7c0,0-5.3-0.7-5.9,2.6c-0.7,3.3,0,0,0,0s-0.7,2,4.6,2l137.7,8.6c0,0,26.4,2,44.8-0.7l92.2-9.9
			c0,0,9.9,0.7,15.2-9.2c0,0,7.2-11.9,4-32.9c0,0-4.6-25.7-9.2-35.6l-9.2-31.6l-123.2,1.3l7.2,45.5c0,0,10.5,42.2-26.4,46.8
			L878.3,587.7z"/>
		<linearGradient id="SVGID_1_" gradientUnits="userSpaceOnUse" x1="1019.3004" y1="599.5571" x2="1019.3004" y2="480.9688">
			<stop  offset="0.5135" style="stop-color:#F5F5F5"/>
			<stop  offset="1" style="stop-color:#BABABA"/>
		</linearGradient>
		<path class="st4" d="M878.3,587.7c0,0-5.3-0.7-5.9,2.6c-0.7,3.3,0,0,0,0s-0.7,2,4.6,2l137.7,7.2c0,0,26.4,0,44.1-3.3l87.6-13.2
			c0,0,11.2-0.7,15.8-8.6c0,0,5.9-10.5,4-26.4c0,0-4.6-24.4-9.2-34.3l-9.2-32.9l-118.6,1.3l7.2,45.5c0,0,10.5,42.2-26.4,46.8
			L878.3,587.7z"/>
		<path class="st5" d="M1259.7,486.9l-561.3-2c-3.5,0-11.9-4-9.9-13.8L792.6,98.2c1.1-4,9.2-11.9,14.5-13.2l549.5-85
			c5.9-0.7,16.1,10.9,15.2,15.8l-88.9,453.3C1279.5,480.3,1265.1,486.9,1259.7,486.9z"/>
		<path class="st6" d="M1256.4,482.9l-556.7,1.3c-3.5,0-13.2-3.3-11.2-13.2L792.6,98.2c1.1-4,9.2-11.9,14.5-13.2l549.5-85
			c7.9,0.7,13.8,7.9,11.9,13.8l-88.3,450C1276.8,475,1263.7,482.9,1256.4,482.9z"/>
		<g>
			<polygon class="st1" points="799.5,127.7 1342.4,29.2 1252.3,449.2 736.4,450 			"/>
			<polygon class="st7" points="732.9,453.3 715.4,453.4 737.4,367.6 754.9,366.8 			"/>
			<polygon class="st8" points="1334.7,65 796.7,136.5 804.3,106.8 1342.4,29.2 			"/>
			<polygon class="st9" points="1322,123.5 784.2,184.9 796.7,136.5 1334.7,65 			"/>
			<polygon class="st7" points="1322,123.5 784.2,184.9 780.4,200 780.2,200.7 736.4,371.3 754,370.5 797.8,198.8 1317.9,142.5 			
				"/>
			<line class="st10" x1="784.2" y1="184.9" x2="1321.5" y2="123.5"/>
			<polygon class="st11" points="1312.3,168.5 792.3,220.4 797.8,198.8 1317.9,142.5 			"/>
			<line class="st10" x1="1322" y1="123.5" x2="1273.2" y2="349.2"/>
			<line class="st10" x1="875.9" y1="174.4" x2="806.6" y2="452.3"/>
			<line class="st10" x1="801.9" y1="182.9" x2="754" y2="370.5"/>
			<line class="st10" x1="954.4" y1="165.5" x2="884.7" y2="451.7"/>
			<line class="st10" x1="1126.5" y1="145.8" x2="1056.2" y2="450.3"/>
			<line class="st10" x1="1221" y1="135" x2="1150.7" y2="449.5"/>
			<line class="st10" x1="775.1" y1="222" x2="1312.9" y2="168.3"/>
			<line class="st10" x1="780.5" y1="201" x2="1318.4" y2="142.9"/>
			<line class="st10" x1="769.7" y1="243.1" x2="1307.4" y2="193.8"/>
			<line class="st10" x1="764.3" y1="264.3" x2="1301.9" y2="219.5"/>
			<line class="st10" x1="758.8" y1="285.6" x2="1296.3" y2="245.2"/>
			<line class="st10" x1="753.3" y1="306.9" x2="1290.7" y2="271"/>
			<line class="st10" x1="747.9" y1="328.3" x2="1285.1" y2="297"/>
			<line class="st10" x1="742.4" y1="349.7" x2="1279.5" y2="323"/>
			<line class="st10" x1="736.8" y1="371.3" x2="1273.8" y2="349.2"/>
			<polygon class="st9" points="923.5,107.4 858.5,116.4 855.4,128.7 920.3,120.1 			"/>
			<polygon class="st1" points="848.8,126.1 805.6,131.9 807.2,125.5 850.4,119.6 			"/>
			<polygon class="st1" points="959.5,111.2 930.1,115.2 931.7,108.5 961.1,104.4 			"/>
			<polygon class="st1" points="1011.9,104.2 969.4,109.9 971.1,103.1 1013.6,97.3 			"/>
			<g>
				<g>
					<path class="st12" d="M825.8,167.7l-22.9,2.7c-0.4,0-0.6-0.2-0.6-0.6l5.6-22c0.1-0.3,0.5-0.7,0.9-0.7l22.9-2.9
						c0.4-0.1,0.7,0.2,0.6,0.5l-5.6,22.2C826.6,167.3,826.2,167.6,825.8,167.7z"/>
					<path class="st13" d="M826.6,144.5l-3.5,0.4l0.4-1.7c0.2-1-0.4-1.6-1.5-1.5l-1.8,0.2c-1.1,0.1-2.2,1-2.4,2l-0.4,1.7l-3.3,0.4
						c-0.7,0.1-1.4,0.7-1.6,1.3l-0.2,0.7c-0.2,0.6,0.3,1.1,1,1l12.5-1.6c0.7-0.1,1.5-0.7,1.6-1.3l0.2-0.7
						C827.8,144.8,827.3,144.4,826.6,144.5z M819.7,143.4c0-0.1,0.1-0.2,0.3-0.2l1.6-0.2c0.1,0,0.2,0.1,0.2,0.2l-0.5,1.8
						c0,0.1-0.1,0.2-0.3,0.2l-1.6,0.2c-0.1,0-0.2-0.1-0.2-0.2L819.7,143.4z"/>
				</g>
				<g>
					<path class="st14" d="M831.3,151.7l-8.3,1c-0.9,0.1-1.8,0.9-2,1.7l-3.5,13.9c-0.2,0.8,0.4,1.4,1.3,1.3l11.9-1.4
						c0.9-0.1,1.8-0.8,2-1.7l2.8-11.2L831.3,151.7z"/>
					<polygon class="st15" points="830,155.8 831,151.7 835.1,155.1 					"/>
				</g>
			</g>
			<g>
				<polygon class="st16" points="910.3,136.7 859,143.2 860.6,136.7 911.9,130 				"/>
				<polygon class="st16" points="897.9,149.2 856.2,154.4 857.8,147.8 899.6,142.6 				"/>
				<polygon class="st16" points="899.4,160.2 853.3,165.6 855.1,158.8 901.1,153.2 				"/>
				<g>
					<polygon class="st16" points="950.9,132 936.6,133.9 938.3,127.1 952.6,125.3 					"/>
					<polygon class="st16" points="970.8,129.5 956.3,131.4 958,124.6 972.5,122.7 					"/>
					<polygon class="st16" points="990.1,127.1 975.4,128.9 977.1,122.1 991.8,120.2 					"/>
				</g>
				<g>
					<polygon class="st16" points="948.2,143.2 933.9,145 935.5,138.2 949.8,136.4 					"/>
					<polygon class="st16" points="968.1,140.8 953.6,142.6 955.2,135.8 969.8,134 					"/>
					<polygon class="st16" points="987.4,138.4 972.7,140.2 974.3,133.4 989.1,131.5 					"/>
				</g>
				<g>
					<polygon class="st16" points="945.4,154.5 931.1,156.2 932.8,149.4 947.1,147.7 					"/>
					<polygon class="st16" points="965.3,152.1 950.8,153.8 952.5,147 967,145.2 					"/>
					<polygon class="st16" points="984.6,149.8 969.9,151.6 971.6,144.7 986.3,142.9 					"/>
				</g>
			</g>
			<polygon class="st16" points="854.1,228 796.9,233.4 798.5,226.9 855.8,221.3 			"/>
			<polygon class="st16" points="848.7,249.6 791.5,254.6 793.2,248 850.4,242.9 			"/>
			<polygon class="st16" points="931.9,220.7 871.2,226.4 872.9,219.7 933.5,213.8 			"/>
			<polygon class="st16" points="1015.4,212.8 950.9,218.9 952.6,212 1017.1,205.7 			"/>
			<polygon class="st16" points="843.1,272.1 785.9,276.5 787.6,269.9 844.8,265.3 			"/>
			<polygon class="st16" points="920.8,266 860.1,270.7 861.8,264 922.5,259.1 			"/>
			<polygon class="st16" points="837.4,294.6 780.3,298.5 782,291.9 839.1,287.8 			"/>
			<polygon class="st16" points="832,316.4 774.9,319.9 776.6,313.2 833.7,309.6 			"/>
			<polygon class="st16" points="915.1,289.2 854.5,293.4 856.2,286.6 916.8,282.2 			"/>
			<polygon class="st16" points="1004.2,259.5 939.8,264.5 941.5,257.6 1005.9,252.4 			"/>
			<polygon class="st16" points="1198.1,195.5 1124.8,202.4 1126.5,195.1 1199.8,188 			"/>
			<polygon class="st16" points="1297.1,186.2 1218.9,193.6 1220.6,185.9 1298.7,178.4 			"/>
			<polygon class="st17" points="859.5,206.5 802.2,212.4 803.9,205.9 861.2,199.8 			"/>
			<polygon class="st17" points="937.3,198.5 876.6,204.7 878.2,198 939,191.7 			"/>
			<polygon class="st17" points="1107.7,181 956.3,196.6 958,189.7 1109.4,173.7 			"/>
			<polygon class="st17" points="1203.5,171.2 1130.3,178.7 1132,171.4 1205.2,163.7 			"/>
			<polygon class="st17" points="1302.5,161 1224.3,169.1 1226,161.5 1304.2,153.3 			"/>
			<polygon class="st16" points="826.5,338.3 769.4,341.3 771.1,334.6 828.2,331.5 			"/>
			<polygon class="st16" points="904.1,334.2 843.5,337.4 845.2,330.6 905.8,327.2 			"/>
			<polygon class="st16" points="821,360.3 763.9,362.8 765.6,356.1 822.7,353.4 			"/>
			<polygon class="st16" points="898.6,356.9 838,359.5 839.7,352.6 900.3,349.8 			"/>
			<line class="st10" x1="731.4" y1="392.6" x2="1268.2" y2="375.1"/>
			<polygon class="st16" points="815.5,382.3 758.5,384.3 760.2,377.6 817.2,375.5 			"/>
			<polygon class="st16" points="893,379.6 832.5,381.7 834.2,374.8 894.7,372.5 			"/>
			<line class="st10" x1="725.7" y1="414.8" x2="1262.4" y2="402.1"/>
			<polygon class="st16" points="809.8,405.2 752.8,406.7 754.5,400 811.5,398.3 			"/>
			<polygon class="st16" points="887.3,403.1 826.8,404.7 828.5,397.8 889,396.1 			"/>
			<polygon class="st16" points="971.5,400.9 907.1,402.6 908.9,395.5 973.3,393.6 			"/>
			<line class="st10" x1="720" y1="437" x2="1256.5" y2="429.2"/>
			<polygon class="st16" points="804,428.2 747,429.2 748.8,422.4 805.7,421.3 			"/>
			<polygon class="st16" points="798.6,449.7 741.7,450.2 743.4,443.4 800.4,442.7 			"/>
			<polygon class="st16" points="876.1,449 815.6,449.5 817.4,442.5 877.8,441.8 			"/>
			<polygon class="st16" points="1072.3,325.4 923.1,333.2 924.8,326.2 1074,317.9 			"/>
			<polygon class="st16" points="1170,320.2 1096.9,324.1 1098.6,316.6 1171.8,312.5 			"/>
			<polygon class="st16" points="1181.4,269.9 1108.1,275 1109.9,267.5 1183.1,262.3 			"/>
			<polygon class="st16" points="1269.1,315 1190.9,319.2 1192.6,311.4 1270.8,307.1 			"/>
			<polygon class="st16" points="1158.9,370.1 1085.7,372.7 1087.4,365.1 1160.6,362.4 			"/>
			<polygon class="st16" points="1141.3,448.2 1068.1,448.9 1069.9,441.2 1143.1,440.4 			"/>
			<polygon class="st16" points="1257.9,366.6 1179.7,369.4 1181.4,361.6 1259.6,358.6 			"/>
			<polygon class="st16" points="1263.5,340.8 1185.3,344.2 1187,336.4 1265.2,332.8 			"/>
		</g>
		<polygon class="st18" points="1257.6,445.2 715.4,453.4 806.1,110.4 1342,28.5 		"/>
	</g>
	<g>
		<circle class="st19" cx="1274.7" cy="471" r="81"/>
		<circle class="st1" cx="1277.7" cy="470" r="77"/>
		<path class="st20" d="M1320.8,445.2l-7.8-7.8c-1.1-1.1-2.4-1.6-3.9-1.6c-1.5,0-2.8,0.5-3.9,1.6l-37.8,37.9l-17-17
			c-1.1-1.1-2.4-1.6-3.9-1.6c-1.5,0-2.8,0.5-3.9,1.6l-7.8,7.8c-1.1,1.1-1.6,2.4-1.6,3.9c0,1.5,0.5,2.8,1.6,3.9l20.9,20.9l7.8,7.8
			c1.1,1.1,2.4,1.6,3.9,1.6c1.5,0,2.8-0.5,3.9-1.6l7.8-7.8l41.8-41.8c1.1-1.1,1.6-2.4,1.6-3.9
			C1322.4,447.6,1321.9,446.3,1320.8,445.2z"/>
	</g>
</g>
</svg>
