<?xml version="1.0" encoding="utf-8"?>
<!-- Generator: Adobe Illustrator 22.1.0, SVG Export Plug-In . SVG Version: 6.00 Build 0)  -->
<svg version="1.1" id="Capa_1" xmlns="http://www.w3.org/2000/svg" xmlns:xlink="http://www.w3.org/1999/xlink" x="0px" y="0px"
	 viewBox="0 0 1124 606.7" style="enable-background:new 0 0 1124 606.7;" xml:space="preserve">
<style type="text/css">
	.st0{opacity:0.25;}
	.st1{fill:#FFFFFF;}
	.st2{opacity:0.28;}
	.st3{fill:#DEDEDE;}
	.st4{fill:url(#SVGID_1_);}
	.st5{fill:#E0E0E0;}
	.st6{fill:#EDEDED;}
	.st7{fill:#D6DBE9;}
	.st8{fill:#8B8E98;}
	.st9{fill:#293A56;}
	.st10{fill:#595959;}
	.st11{fill:#F0F0F0;}
	.st12{clip-path:url(#SVGID_3_);}
	.st13{fill:#0275D8;}
	.st14{fill:#CCCCCC;}
	.st15{fill:#FF7043;}
	.st16{fill:#81848D;}
	.st17{display:none;}
	.st18{opacity:0.5;fill:#B4B4B4;}
	.st19{fill:#E9E9E9;}
	.st20{fill:#757575;}
	.st21{fill:#227447;}
	.st22{fill:#F1F1F1;}
	.st23{fill:#E6E6E6;}
	.st24{fill:none;stroke:#C4C4C4;stroke-miterlimit:10;}
	.st25{fill:#CCE2D1;}
	.st26{fill:#EEC87F;}
	.st27{fill:#90928F;}
	.st28{fill:#FFFFFF;stroke:#C1BEC1;stroke-miterlimit:10;}
	.st29{fill:#FFFFFF;stroke:#C1BEC1;stroke-linecap:round;stroke-linejoin:round;stroke-miterlimit:10;}
	.st30{fill:#C4C4C4;}
	.st31{fill:#939393;}
	.st32{fill:url(#SVGID_4_);}
	.st33{opacity:0.15;}
	.st34{fill:#F2F2F2;}
	.st35{fill:url(#SVGID_5_);}
	.st36{opacity:0.25;enable-background:new    ;}
	.st37{fill:#207245;}
</style>
<g>
	<g class="st0">
		<path d="M724.2,154.8c-5.4-2.8-9.6-6.8-12.7-11.8c-3.1-5.1-4.6-10.8-4.6-17.2c0-6.4,1.5-12.2,4.6-17.2c3.1-5.1,7.3-9,12.7-11.8
			c5.4-2.8,11.5-4.2,18.2-4.2c6.2,0,11.7,1.1,16.6,3.3c4.9,2.2,8.9,5.3,12,9.5l-13.6,12.1c-3.9-5-8.6-7.5-13.9-7.5
			c-4.5,0-8.1,1.4-10.8,4.3c-2.7,2.9-4.1,6.8-4.1,11.6c0,4.9,1.4,8.7,4.1,11.6c2.7,2.9,6.3,4.3,10.8,4.3c5.3,0,10-2.5,13.9-7.5
			l13.6,12.1c-3.2,4.1-7.2,7.3-12,9.5c-4.9,2.2-10.4,3.3-16.6,3.3C735.7,159,729.6,157.6,724.2,154.8z"/>
		<path d="M785.1,154.7c-5.5-2.9-9.7-6.8-12.8-11.9c-3.1-5.1-4.6-10.8-4.6-17.2s1.5-12.1,4.6-17.2c3.1-5.1,7.4-9,12.8-11.9
			c5.5-2.9,11.6-4.3,18.5-4.3c6.9,0,13,1.4,18.5,4.3c5.5,2.9,9.7,6.8,12.8,11.9c3.1,5.1,4.6,10.8,4.6,17.2s-1.5,12.1-4.6,17.2
			c-3.1,5.1-7.4,9-12.8,11.9c-5.5,2.9-11.6,4.3-18.5,4.3C796.7,159,790.6,157.6,785.1,154.7z M810.8,139.7c2.2-1.3,3.9-3.2,5.1-5.6
			c1.3-2.4,1.9-5.2,1.9-8.4c0-3.2-0.6-6-1.9-8.4c-1.3-2.4-3-4.2-5.1-5.6c-2.2-1.3-4.6-2-7.2-2c-2.7,0-5.1,0.7-7.2,2
			c-2.2,1.3-3.9,3.2-5.1,5.6c-1.3,2.4-1.9,5.2-1.9,8.4c0,3.2,0.6,6,1.9,8.4c1.3,2.4,3,4.2,5.1,5.6c2.2,1.3,4.6,2,7.2,2
			C806.2,141.6,808.6,141,810.8,139.7z"/>
		<path d="M869,141.5h-5.8v16h-21.5V93.9h30.7c5.9,0,11,1,15.4,2.9c4.4,1.9,7.7,4.7,10.1,8.4s3.5,7.9,3.5,12.7c0,4.5-1,8.5-3.1,11.9
			c-2.1,3.4-5,6.1-8.9,8.1l13.4,19.7h-22.9L869,141.5z M877.6,112.4c-1.5-1.3-3.6-2-6.6-2h-7.8v14.9h7.8c2.9,0,5.1-0.7,6.6-2
			c1.5-1.3,2.2-3.1,2.2-5.5C879.7,115.5,879,113.7,877.6,112.4z"/>
		<path d="M931.2,141.5h-5.8v16h-21.5V93.9h30.7c5.9,0,11,1,15.4,2.9c4.4,1.9,7.7,4.7,10.1,8.4s3.5,7.9,3.5,12.7
			c0,4.5-1,8.5-3.1,11.9c-2.1,3.4-5,6.1-8.9,8.1l13.4,19.7H942L931.2,141.5z M939.7,112.4c-1.5-1.3-3.6-2-6.6-2h-7.8v14.9h7.8
			c2.9,0,5.1-0.7,6.6-2c1.5-1.3,2.2-3.1,2.2-5.5C941.9,115.5,941.2,113.7,939.7,112.4z"/>
		<path d="M1019,141.4v16.2h-53V93.9h51.8V110h-30.7v7.5h26.9V133h-26.9v8.4H1019z"/>
		<path d="M1048.9,141.5h-5.8v16h-21.5V93.9h30.7c5.9,0,11,1,15.4,2.9c4.4,1.9,7.7,4.7,10.1,8.4s3.5,7.9,3.5,12.7
			c0,4.5-1,8.5-3.1,11.9c-2.1,3.4-5,6.1-8.9,8.1l13.4,19.7h-22.9L1048.9,141.5z M1057.5,112.4c-1.5-1.3-3.6-2-6.6-2h-7.8v14.9h7.8
			c2.9,0,5.1-0.7,6.6-2c1.5-1.3,2.2-3.1,2.2-5.5C1059.6,115.5,1058.9,113.7,1057.5,112.4z"/>
		<path d="M766.4,254.6l-0.2-29l-13.8,23.3h-9.5L729,226.5v28h-19.6v-63.7h17.7l20.7,33.9l20.2-33.9h17.7l0.2,63.7H766.4z"/>
		<path d="M834.1,243.5h-24.2l-4.3,11.1h-21.8l27.8-63.7h21.1l27.8,63.7h-22.2L834.1,243.5z M828.1,228l-6.2-16l-6.2,16H828.1z"/>
		<path d="M872.2,251.8c-5.4-2.8-9.6-6.8-12.7-11.8c-3.1-5.1-4.6-10.8-4.6-17.2c0-6.4,1.5-12.2,4.6-17.2c3.1-5.1,7.3-9,12.7-11.8
			c5.4-2.8,11.5-4.2,18.2-4.2c6.2,0,11.7,1.1,16.6,3.3c4.9,2.2,8.9,5.3,12,9.5l-13.6,12.1c-3.9-5-8.6-7.5-13.9-7.5
			c-4.5,0-8.1,1.4-10.8,4.3c-2.7,2.9-4.1,6.7-4.1,11.6s1.4,8.7,4.1,11.6c2.7,2.9,6.3,4.3,10.8,4.3c5.3,0,10-2.5,13.9-7.5l13.6,12.1
			c-3.2,4.1-7.2,7.3-12,9.5c-4.9,2.2-10.4,3.3-16.6,3.3C883.6,256,877.6,254.6,872.2,251.8z"/>
		<path d="M946.8,238.5H941v16h-21.5v-63.7h30.7c5.9,0,11,1,15.4,2.9c4.4,1.9,7.7,4.7,10.1,8.4s3.5,7.9,3.5,12.7
			c0,4.5-1,8.5-3.1,11.9c-2.1,3.4-5,6.1-8.9,8.1l13.4,19.7h-22.9L946.8,238.5z M955.4,209.4c-1.5-1.3-3.6-2-6.6-2H941v14.9h7.8
			c2.9,0,5.1-0.7,6.6-2c1.5-1.3,2.2-3.1,2.2-5.5S956.8,210.7,955.4,209.4z"/>
		<path d="M996.6,251.7c-5.5-2.9-9.7-6.8-12.8-11.9c-3.1-5.1-4.6-10.8-4.6-17.2c0-6.4,1.5-12.1,4.6-17.2c3.1-5.1,7.4-9,12.8-11.9
			c5.5-2.9,11.6-4.3,18.5-4.3c6.9,0,13,1.4,18.5,4.3c5.5,2.9,9.7,6.8,12.8,11.9c3.1,5.1,4.6,10.8,4.6,17.2c0,6.4-1.5,12.1-4.6,17.2
			c-3.1,5.1-7.4,9-12.8,11.9c-5.5,2.9-11.6,4.3-18.5,4.3C1008.2,256,1002,254.6,996.6,251.7z M1022.3,236.7c2.2-1.3,3.9-3.2,5.1-5.6
			c1.3-2.4,1.9-5.2,1.9-8.4c0-3.2-0.6-6-1.9-8.4c-1.3-2.4-3-4.2-5.1-5.6c-2.2-1.3-4.6-2-7.2-2c-2.7,0-5.1,0.7-7.2,2
			c-2.2,1.3-3.9,3.2-5.1,5.6c-1.3,2.4-1.9,5.2-1.9,8.4c0,3.2,0.6,6,1.9,8.4c1.3,2.4,3,4.2,5.1,5.6c2.2,1.3,4.6,2,7.2,2
			C1017.7,238.6,1020.1,238,1022.3,236.7z"/>
	</g>
	<g>
		<path class="st1" d="M731.8,149c-5.4-2.8-9.6-6.8-12.7-11.8c-3.1-5.1-4.6-10.8-4.6-17.2c0-6.4,1.5-12.2,4.6-17.2
			c3.1-5.1,7.3-9,12.7-11.8c5.4-2.8,11.5-4.2,18.2-4.2c6.2,0,11.7,1.1,16.6,3.3c4.9,2.2,8.9,5.3,12,9.5l-13.6,12.1
			c-3.9-5-8.6-7.5-13.9-7.5c-4.5,0-8.1,1.4-10.8,4.3c-2.7,2.9-4.1,6.8-4.1,11.6c0,4.9,1.4,8.7,4.1,11.6c2.7,2.9,6.3,4.3,10.8,4.3
			c5.3,0,10-2.5,13.9-7.5l13.6,12.1c-3.2,4.1-7.2,7.3-12,9.5c-4.9,2.2-10.4,3.3-16.6,3.3C743.3,153.2,737.2,151.8,731.8,149z"/>
		<path class="st1" d="M792.7,148.9c-5.5-2.9-9.7-6.8-12.8-11.9c-3.1-5.1-4.6-10.8-4.6-17.2s1.5-12.1,4.6-17.2
			c3.1-5.1,7.4-9,12.8-11.9c5.5-2.9,11.6-4.3,18.5-4.3c6.9,0,13,1.4,18.5,4.3c5.5,2.9,9.7,6.8,12.8,11.9c3.1,5.1,4.6,10.8,4.6,17.2
			s-1.5,12.1-4.6,17.2c-3.1,5.1-7.4,9-12.8,11.9c-5.5,2.9-11.6,4.3-18.5,4.3C804.3,153.2,798.2,151.8,792.7,148.9z M818.4,133.9
			c2.2-1.3,3.9-3.2,5.1-5.6c1.3-2.4,1.9-5.2,1.9-8.4c0-3.2-0.6-6-1.9-8.4c-1.3-2.4-3-4.2-5.1-5.6c-2.2-1.3-4.6-2-7.2-2
			c-2.7,0-5.1,0.7-7.2,2c-2.2,1.3-3.9,3.2-5.1,5.6c-1.3,2.4-1.9,5.2-1.9,8.4c0,3.2,0.6,6,1.9,8.4c1.3,2.4,3,4.2,5.1,5.6
			c2.2,1.3,4.6,2,7.2,2C813.9,135.8,816.3,135.2,818.4,133.9z"/>
		<path class="st1" d="M876.6,135.7h-5.8v16h-21.5V88H880c5.9,0,11,1,15.4,2.9c4.4,1.9,7.7,4.7,10.1,8.4s3.5,7.9,3.5,12.7
			c0,4.5-1,8.5-3.1,11.9c-2.1,3.4-5,6.1-8.9,8.1l13.4,19.7h-22.9L876.6,135.7z M885.2,106.6c-1.5-1.3-3.6-2-6.6-2h-7.8v14.9h7.8
			c2.9,0,5.1-0.7,6.6-2c1.5-1.3,2.2-3.1,2.2-5.5C887.4,109.7,886.6,107.9,885.2,106.6z"/>
		<path class="st1" d="M938.8,135.7H933v16h-21.5V88h30.7c5.9,0,11,1,15.4,2.9c4.4,1.9,7.7,4.7,10.1,8.4s3.5,7.9,3.5,12.7
			c0,4.5-1,8.5-3.1,11.9c-2.1,3.4-5,6.1-8.9,8.1l13.4,19.7h-22.9L938.8,135.7z M947.3,106.6c-1.5-1.3-3.6-2-6.6-2H933v14.9h7.8
			c2.9,0,5.1-0.7,6.6-2c1.5-1.3,2.2-3.1,2.2-5.5C949.5,109.7,948.8,107.9,947.3,106.6z"/>
		<path class="st1" d="M1026.6,135.5v16.2h-53V88h51.8v16.2h-30.7v7.5h26.9v15.5h-26.9v8.4H1026.6z"/>
		<path class="st1" d="M1056.5,135.7h-5.8v16h-21.5V88h30.7c5.9,0,11,1,15.4,2.9c4.4,1.9,7.7,4.7,10.1,8.4s3.5,7.9,3.5,12.7
			c0,4.5-1,8.5-3.1,11.9c-2.1,3.4-5,6.1-8.9,8.1l13.4,19.7h-22.9L1056.5,135.7z M1065.1,106.6c-1.5-1.3-3.6-2-6.6-2h-7.8v14.9h7.8
			c2.9,0,5.1-0.7,6.6-2c1.5-1.3,2.2-3.1,2.2-5.5C1067.3,109.7,1066.5,107.9,1065.1,106.6z"/>
		<path class="st1" d="M774,248.7l-0.2-29L760,243h-9.5l-13.8-22.3v28h-19.6V185h17.7l20.7,33.9l20.2-33.9h17.7l0.2,63.7H774z"/>
		<path class="st1" d="M841.7,237.6h-24.2l-4.3,11.1h-21.8l27.8-63.7h21.1l27.8,63.7H846L841.7,237.6z M835.8,222.2l-6.2-16l-6.2,16
			H835.8z"/>
		<path class="st1" d="M879.8,246c-5.4-2.8-9.6-6.8-12.7-11.8c-3.1-5.1-4.6-10.8-4.6-17.2c0-6.4,1.5-12.2,4.6-17.2
			c3.1-5.1,7.3-9,12.7-11.8c5.4-2.8,11.5-4.2,18.2-4.2c6.2,0,11.7,1.1,16.6,3.3c4.9,2.2,8.9,5.3,12,9.5L913,208.4
			c-3.9-5-8.6-7.5-13.9-7.5c-4.5,0-8.1,1.4-10.8,4.3c-2.7,2.9-4.1,6.7-4.1,11.6s1.4,8.7,4.1,11.6c2.7,2.9,6.3,4.3,10.8,4.3
			c5.3,0,10-2.5,13.9-7.5l13.6,12.1c-3.2,4.1-7.2,7.3-12,9.5c-4.9,2.2-10.4,3.3-16.6,3.3C891.3,250.2,885.2,248.8,879.8,246z"/>
		<path class="st1" d="M954.4,232.7h-5.8v16h-21.5V185h30.7c5.9,0,11,1,15.4,2.9c4.4,1.9,7.7,4.7,10.1,8.4s3.5,7.9,3.5,12.7
			c0,4.5-1,8.5-3.1,11.9c-2.1,3.4-5,6.1-8.9,8.1l13.4,19.7h-22.9L954.4,232.7z M963,203.6c-1.5-1.3-3.6-2-6.6-2h-7.8v14.9h7.8
			c2.9,0,5.1-0.7,6.6-2c1.5-1.3,2.2-3.1,2.2-5.5S964.4,204.9,963,203.6z"/>
		<path class="st1" d="M1004.2,245.9c-5.5-2.9-9.7-6.8-12.8-11.9c-3.1-5.1-4.6-10.8-4.6-17.2c0-6.4,1.5-12.1,4.6-17.2
			c3.1-5.1,7.4-9,12.8-11.9c5.5-2.9,11.6-4.3,18.5-4.3c6.9,0,13,1.4,18.5,4.3c5.5,2.9,9.7,6.8,12.8,11.9c3.1,5.1,4.6,10.8,4.6,17.2
			c0,6.4-1.5,12.1-4.6,17.2c-3.1,5.1-7.4,9-12.8,11.9c-5.5,2.9-11.6,4.3-18.5,4.3C1015.8,250.2,1009.7,248.8,1004.2,245.9z
			 M1029.9,230.9c2.2-1.3,3.9-3.2,5.1-5.6c1.3-2.4,1.9-5.2,1.9-8.4c0-3.2-0.6-6-1.9-8.4c-1.3-2.4-3-4.2-5.1-5.6
			c-2.2-1.3-4.6-2-7.2-2c-2.7,0-5.1,0.7-7.2,2c-2.2,1.3-3.9,3.2-5.1,5.6c-1.3,2.4-1.9,5.2-1.9,8.4c0,3.2,0.6,6,1.9,8.4
			c1.3,2.4,3,4.2,5.1,5.6c2.2,1.3,4.6,2,7.2,2C1025.4,232.8,1027.8,232.2,1029.9,230.9z"/>
	</g>
	<g>
		<path class="st2" d="M269.8,588.4c0,0-9.9-0.7-9.9,2c0,0-2,3.3,8.6,3.3l133.1,8.6c0,0,31.6,2,47.4-0.7l86.3-7.9
			c0,0,23.7-1.3,11.9-5.3l-11.9-2"/>
		<path class="st3" d="M266.5,587.7c0,0-5.3-0.7-5.9,2.6c-0.7,3.3,0,0,0,0s-0.7,2,4.6,2l137.7,8.6c0,0,26.4,2,44.8-0.7l92.2-9.9
			c0,0,9.9,0.7,15.2-9.2c0,0,7.2-11.9,4-32.9c0,0-4.6-25.7-9.2-35.6l-9.2-31.6l-123.2,1.3l7.2,45.5c0,0,10.5,42.2-26.4,46.8
			L266.5,587.7z"/>
		<linearGradient id="SVGID_1_" gradientUnits="userSpaceOnUse" x1="407.5702" y1="599.5571" x2="407.5702" y2="480.9688">
			<stop  offset="0.5135" style="stop-color:#F5F5F5"/>
			<stop  offset="1" style="stop-color:#BABABA"/>
		</linearGradient>
		<path class="st4" d="M266.5,587.7c0,0-5.3-0.7-5.9,2.6c-0.7,3.3,0,0,0,0s-0.7,2,4.6,2l137.7,7.2c0,0,26.4,0,44.1-3.3l87.6-13.2
			c0,0,11.2-0.7,15.8-8.6c0,0,5.9-10.5,4-26.4c0,0-4.6-24.4-9.2-34.3L536,481l-118.6,1.3l7.2,45.5c0,0,10.5,42.2-26.4,46.8
			L266.5,587.7z"/>
		<path class="st5" d="M648,486.9l-561.3-2c-3.5,0-11.9-4-9.9-13.8L180.9,98.2c1.1-4,9.2-11.9,14.5-13.2L744.8,0
			c5.9-0.7,16.1,10.9,15.2,15.8L671,469.1C667.8,480.3,653.3,486.9,648,486.9z"/>
		<path class="st6" d="M644.7,482.9L88,484.3c-3.5,0-13.2-3.3-11.2-13.2L180.9,98.2c1.1-4,9.2-11.9,14.5-13.2L744.8,0
			c7.9,0.7,13.8,7.9,11.9,13.8l-88.3,450C665.1,475,651.9,482.9,644.7,482.9z"/>
		<g>
			<polygon class="st7" points="719.4,87.8 178.4,158.3 190.9,108.9 731.6,28.5 			"/>
			<g>
				<g>
					<path class="st8" d="M679.8,51.3c-0.7,3.3-4,6.3-7.5,6.8c-3.4,0.5-5.7-1.8-5-5c0.7-3.3,4-6.3,7.5-6.8
						C678.3,45.8,680.5,48,679.8,51.3z"/>
					<path class="st8" d="M698.7,48.6c-0.7,3.3-4.1,6.4-7.6,6.9c-3.5,0.5-5.7-1.8-5-5.1c0.7-3.3,4.1-6.4,7.5-6.9
						C697.1,43,699.4,45.3,698.7,48.6z"/>
					<path class="st8" d="M717.8,45.8c-0.7,3.3-4.1,6.4-7.6,6.9c-3.5,0.5-5.8-1.8-5.1-5.1c0.7-3.3,4.1-6.4,7.6-6.9
						C716.2,40.2,718.5,42.5,717.8,45.8z"/>
				</g>
			</g>
			<polygon class="st9" points="645.8,444.4 103.7,453.4 178.4,158.3 719.4,87.8 			"/>
			<polygon class="st1" points="638.8,444.5 482.3,447.1 555.2,116.3 710.8,96.4 			"/>
			<polygon class="st1" points="245.1,169.4 248.3,156.5 183.7,164.7 180.6,177.3 178.3,186.4 110.9,453.3 473.8,447.2 543.4,132.8 
							"/>
			<path class="st10" d="M238.7,164.8l2.3-2.2c0.2-0.2,0.2-0.4,0.1-0.5c-0.1-0.1-0.3-0.1-0.4,0.1l-2.3,2.2l-1.3-1.8
				c-0.1-0.1-0.3-0.1-0.4,0.1c-0.2,0.2-0.2,0.4-0.1,0.5l1.3,1.8l-2.3,2.2c-0.2,0.1-0.2,0.4-0.1,0.5c0,0.1,0.1,0.1,0.2,0.1
				c0.1,0,0.2-0.1,0.2-0.1l2.3-2.2l1.3,1.8c0,0.1,0.1,0.1,0.2,0.1c0.1,0,0.2-0.1,0.2-0.1c0.2-0.2,0.2-0.4,0.1-0.5L238.7,164.8z"/>
			<polygon class="st11" points="473.8,447.2 410.9,448.3 480.6,140.8 543.3,133.1 			"/>
			<polygon class="st7" points="710.8,96.4 555.2,116.3 551.7,132.1 707.4,113 			"/>
			<g>
				<defs>
					<polygon id="SVGID_2_" points="245.1,169.4 248.3,156.5 183.7,164.7 180.6,177.3 178.3,186.4 110.9,453.3 473.8,447.2 
						543.4,132.8 					"/>
				</defs>
				<clipPath id="SVGID_3_">
					<use xlink:href="#SVGID_2_"  style="overflow:visible;"/>
				</clipPath>
				<g class="st12">
					<polygon class="st13" points="188.7,185.4 209.9,182.8 208.7,188 187.4,190.5 					"/>
					<path class="st13" d="M187.4,190.3c-0.3,0.3-1.2-0.8-1.2-0.8c-0.2-0.2-1-1.1-0.9-1.3c0.1-0.2,1.6-1.6,1.6-1.6
						c0.3-0.3,1.6-1.4,1.7-1.2c0.2,0.2-0.3,2.2-0.4,2.4C188.2,188,187.7,190.2,187.4,190.3z"/>
					<path class="st13" d="M208.7,187.8c0.2,0.2,1.8-1.2,1.8-1.2c0.3-0.3,1.6-1.4,1.7-1.6s-0.9-1.3-0.9-1.3c-0.2-0.2-1-1.1-1.3-0.8
						c-0.3,0.3-0.8,2.2-0.8,2.5C209,185.6,208.5,187.8,208.7,187.8z"/>
					<polygon class="st13" points="198.1,193.5 219.5,191 218.2,196.2 196.8,198.7 					"/>
					<path class="st13" d="M197,198.6c-0.3,0.3-1.3-0.8-1.3-0.8c-0.2-0.2-1-1.1-0.9-1.3c0.1-0.2,1.7-1.6,1.7-1.6
						c0.3-0.3,1.6-1.4,1.7-1.2c0.2,0.2-0.3,2.2-0.4,2.4C197.5,196.4,197,198.6,197,198.6z"/>
					<path class="st13" d="M218.2,196.2c0.2,0.2,1.8-1.2,1.8-1.2c0.3-0.3,1.6-1.4,1.7-1.6c0.1-0.2-0.9-1.3-0.9-1.3
						c-0.2-0.2-1-1.1-1.3-0.8c-0.3,0.3-0.8,2.2-0.8,2.5C218.6,194,218.2,196.2,218.2,196.2z"/>
					<polygon class="st13" points="205,201.8 226.6,199.4 225.3,204.6 203.7,207 					"/>
					<path class="st13" d="M203.7,207c-0.3,0.3-1.3-0.8-1.3-0.8c-0.2-0.2-1-1.1-0.9-1.3c0.1-0.2,1.7-1.6,1.7-1.6
						c0.3-0.3,1.6-1.4,1.8-1.2c0.2,0.2-0.3,2.2-0.4,2.4C204.5,204.7,204,206.7,203.7,207z"/>
					<path class="st13" d="M225.3,204.6c0.2,0.2,1.8-1.2,1.8-1.2c0.3-0.3,1.6-1.4,1.7-1.6c0.1-0.2-1-1.3-1-1.3
						c-0.2-0.2-1-1.1-1.3-0.8c-0.3,0.3-0.8,2.3-0.8,2.5C225.6,202.4,225.4,204.3,225.3,204.6z"/>
					<polygon class="st13" points="202.8,211.4 224.4,209 223.1,214.2 201.5,216.5 					"/>
					<path class="st13" d="M201.5,216.5c-0.3,0.3-1.3-0.8-1.3-0.8c-0.2-0.2-1-1.1-0.9-1.3c0.1-0.2,1.7-1.6,1.7-1.6
						c0.3-0.3,1.6-1.4,1.8-1.2c0.2,0.2-0.3,2.2-0.4,2.4C202.3,214.3,201.8,216.3,201.5,216.5z"/>
					<path class="st13" d="M223.1,214.2c0.2,0.2,1.8-1.2,1.8-1.2c0.3-0.3,1.6-1.4,1.7-1.6c0.1-0.2-1-1.3-1-1.3
						c-0.2-0.2-1-1.1-1.3-0.8c-0.3,0.3-0.8,2.3-0.8,2.5C223.5,212,223.2,214,223.1,214.2z"/>
					<polygon class="st13" points="200.7,220.7 222.3,218.4 221,223.7 199.4,225.9 					"/>
					<path class="st13" d="M199.5,225.7c-0.3,0.3-1.3-0.8-1.3-0.8c-0.2-0.2-1-1.1-0.9-1.3c0.1-0.2,1.7-1.6,1.7-1.6
						c0.3-0.3,1.6-1.4,1.8-1.1c0.2,0.2-0.3,2.2-0.4,2.4C200.2,223.4,199.7,225.6,199.5,225.7z"/>
					<path class="st13" d="M221.1,223.4c0.2,0.2,1.8-1.2,1.8-1.2c0.3-0.3,1.6-1.4,1.7-1.6c0.1-0.2-1-1.4-1-1.4
						c-0.2-0.2-1-1.1-1.3-0.8c-0.3,0.3-0.8,2.3-0.8,2.5C221.4,221.2,221.1,223.4,221.1,223.4z"/>
					<polygon class="st13" points="198.3,230.4 219.9,228.2 218.6,233.4 197,235.6 					"/>
					<path class="st13" d="M197,235.3c-0.3,0.3-1.3-0.8-1.3-0.8c-0.2-0.2-1-1.1-0.9-1.4c0.1-0.2,1.7-1.6,1.7-1.6
						c0.3-0.3,1.6-1.4,1.8-1.1c0.2,0.2-0.3,2.2-0.4,2.5C197.8,233.1,197.3,235.3,197,235.3z"/>
					<path class="st13" d="M218.7,233.1c0.2,0.2,1.8-1.2,1.8-1.2c0.3-0.3,1.6-1.4,1.7-1.6c0.1-0.2-1-1.4-1-1.4
						c-0.2-0.2-1-1.1-1.3-0.8c-0.3,0.3-0.8,2.3-0.8,2.5C219,230.9,218.7,233.1,218.7,233.1z"/>
					<polygon class="st13" points="189.8,264.3 211.4,262.4 210.1,267.7 188.5,269.6 					"/>
					<path class="st13" d="M188.5,269.3c-0.3,0.3-1.3-0.9-1.3-0.9c-0.2-0.2-1-1.1-0.9-1.4s1.7-1.6,1.7-1.6c0.3-0.3,1.6-1.4,1.8-1.1
						c0.2,0.2-0.3,2.2-0.4,2.5C189.3,267.1,188.8,269.3,188.5,269.3z"/>
					<path class="st13" d="M210.2,267.4c0.2,0.2,1.8-1.1,1.8-1.1c0.3-0.3,1.6-1.4,1.7-1.6s-0.9-1.4-0.9-1.4c-0.2-0.2-1-1.1-1.3-0.9
						c-0.3,0.3-0.8,2.3-0.8,2.5C210.5,265.2,210.2,267.4,210.2,267.4z"/>
					<polygon class="st13" points="188.3,273.7 209.9,271.9 208.6,277.2 187,279 					"/>
					<path class="st13" d="M187.2,279c-0.3,0.3-1.3-0.9-1.3-0.9c-0.2-0.2-1-1.1-0.9-1.4s1.7-1.6,1.7-1.6c0.3-0.3,1.6-1.4,1.8-1.1
						c0.2,0.2-0.3,2.2-0.4,2.5C187.8,276.7,187.3,278.7,187.2,279z"/>
					<path class="st13" d="M208.6,277.2c0.2,0.2,1.8-1.1,1.8-1.1c0.3-0.3,1.6-1.4,1.7-1.6c0.1-0.3-0.9-1.4-0.9-1.4
						c-0.2-0.2-1-1.1-1.3-0.9c-0.3,0.3-0.8,2.3-0.8,2.5C208.9,274.9,208.7,276.9,208.6,277.2z"/>
					<polygon class="st13" points="175,285.3 196.5,283.6 195.2,288.9 173.7,290.6 					"/>
					<path class="st13" d="M174,290.5c-0.3,0.3-1.3-0.9-1.3-0.9c-0.2-0.2-1-1.1-0.9-1.4c0.1-0.2,1.7-1.6,1.7-1.6
						c0.3-0.3,1.6-1.3,1.8-1.1c0.2,0.2-0.3,2.2-0.4,2.5C174.5,288.3,174,290.3,174,290.5z"/>
					<path class="st13" d="M195.2,288.9c0.2,0.2,1.8-1.1,1.8-1.1c0.3-0.3,1.6-1.4,1.7-1.6c0.1-0.3-0.9-1.4-0.9-1.4
						c-0.2-0.2-1-1.1-1.3-0.9c-0.3,0.3-0.8,2.3-0.8,2.5C195.5,286.6,195.2,288.6,195.2,288.9z"/>
					<polygon class="st13" points="171.9,298 193.3,296.4 192,301.7 170.5,303.3 					"/>
					<path class="st13" d="M170.8,303.3c-0.3,0.3-1.3-0.9-1.3-0.9c-0.2-0.2-1-1.2-0.9-1.4s1.7-1.6,1.7-1.6c0.3-0.3,1.6-1.3,1.8-1.1
						c0.2,0.2-0.3,2.2-0.4,2.5C171.3,301,170.8,303,170.8,303.3z"/>
					<path class="st13" d="M192,301.7c0.2,0.2,1.8-1.1,1.8-1.1c0.3-0.3,1.6-1.4,1.7-1.6c0.1-0.3-0.9-1.4-0.9-1.4
						c-0.2-0.2-1-1.2-1.3-0.9c-0.3,0.3-0.8,2.3-0.8,2.5C192.3,299.4,192.1,301.4,192,301.7z"/>
					<polygon class="st14" points="228.7,227.3 338.6,216.1 337.3,221.6 227.4,232.5 					"/>
					<path class="st14" d="M227.5,232.3c-0.3,0.3-1.3-0.8-1.3-0.8c-0.2-0.2-1-1.1-1-1.4c0.1-0.3,1.7-1.6,1.7-1.6
						c0.3-0.3,1.6-1.4,1.8-1.2c0.2,0.2-0.3,2.2-0.4,2.5S227.7,232.2,227.5,232.3z"/>
					<path class="st14" d="M337.1,221.3c0.2,0.2,1.9-1.2,1.9-1.2c0.3-0.3,1.8-1.4,1.8-1.7c0.1-0.3-1.1-1.4-1.1-1.4
						c-0.2-0.2-1.1-1.2-1.4-0.9c-0.3,0.3-0.8,2.4-0.9,2.6S336.9,221.3,337.1,221.3z"/>
					<polygon class="st14" points="196.5,239.2 335.9,225.5 334.6,231 195.2,244.4 					"/>
					<path class="st14" d="M195.4,244.4c-0.3,0.3-1.7-0.8-1.7-0.8c-0.2-0.2-1.4-1.1-1.4-1.3s1.9-1.6,2.1-1.7c0.3-0.3,2-1.4,2.2-1.2
						c0.2,0.2-0.3,2.2-0.4,2.5C196.2,242.2,195.7,244.1,195.4,244.4z"/>
					<path class="st14" d="M334.4,231c0.2,0.2,2.4-1.3,2.4-1.3c0.3-0.3,2.2-1.5,2.3-1.8s-1.3-1.4-1.6-1.4c-0.2-0.2-1.6-1.1-1.9-0.8
						c-0.3,0.3-0.8,2.4-0.9,2.6C334.7,228.7,334.2,230.8,334.4,231z"/>
					<polygon class="st14" points="194.3,247.9 333.7,234.7 332.4,240.1 193,253.1 					"/>
					<path class="st14" d="M193.2,253.1c-0.3,0.3-1.7-0.8-1.7-0.8c-0.2-0.2-1.4-1.1-1.4-1.3s1.9-1.6,2.1-1.7c0.3-0.3,2-1.4,2.2-1.2
						c0.2,0.2-0.3,2.2-0.4,2.5C194,250.8,193.5,252.8,193.2,253.1z"/>
					<path class="st14" d="M332.2,240.2c0.2,0.2,2.4-1.2,2.4-1.2c0.3-0.3,2.2-1.5,2.3-1.8c0.1-0.3-1.3-1.4-1.6-1.4
						c-0.2-0.2-1.6-1.1-1.9-0.8c-0.3,0.3-0.8,2.4-0.9,2.6C332.5,237.8,332,239.9,332.2,240.2z"/>
					<polygon class="st14" points="192.1,255.9 315,244.6 313.7,250 190.8,261.1 					"/>
					<path class="st14" d="M190.9,260.8c-0.3,0.3-1.5-0.8-1.5-0.8c-0.2-0.2-1.2-1.1-1.1-1.4s1.7-1.6,1.9-1.6c0.3-0.3,1.8-1.4,2-1.2
						c0.2,0.2-0.3,2.2-0.4,2.5S191.1,260.8,190.9,260.8z"/>
					<path class="st14" d="M313.1,249.8c0.2,0.2,2.1-1.2,2.1-1.2c0.3-0.3,2-1.5,2-1.7c0.1-0.3-1.1-1.4-1.3-1.4
						c-0.2-0.2-1.4-1.1-1.7-0.9c-0.3,0.3-0.8,2.4-0.9,2.6C313.4,247.5,313.1,249.8,313.1,249.8z"/>
					<polygon class="st15" points="234,207.7 256.1,205.3 254.8,210.6 232.7,213 					"/>
					<path class="st15" d="M232.7,213c-0.3,0.3-1.3-0.8-1.3-0.8c-0.2-0.2-1-1.1-1-1.4c0.1-0.2,1.7-1.6,1.7-1.6
						c0.3-0.3,1.6-1.4,1.8-1.2c0.2,0.2-0.3,2.2-0.4,2.5C233.5,210.7,233,212.7,232.7,213z"/>
					<path class="st15" d="M254.8,210.6c0.2,0.2,1.8-1.2,1.8-1.2c0.3-0.3,1.7-1.4,1.7-1.7s-1-1.4-1-1.4c-0.2-0.2-1-1.1-1.3-0.8
						c-0.3,0.3-0.8,2.3-0.8,2.5C255.2,208.4,254.9,210.4,254.8,210.6z"/>
					<polygon class="st15" points="290.1,201.6 313.2,199.1 311.9,204.5 288.8,207 					"/>
					<path class="st15" d="M289.1,206.9c-0.3,0.3-1.4-0.8-1.4-0.8c-0.2-0.2-1.1-1.1-1-1.4c0.1-0.3,1.8-1.7,1.8-1.7
						c0.3-0.3,1.7-1.4,1.9-1.2c0.2,0.2-0.3,2.3-0.4,2.5C289.6,204.7,289.1,206.7,289.1,206.9z"/>
					<path class="st15" d="M311.9,204.5c0.2,0.2,1.9-1.2,1.9-1.2c0.3-0.3,1.7-1.4,1.8-1.7c0.1-0.3-1-1.4-1-1.4
						c-0.2-0.2-1.1-1.1-1.4-0.8c-0.3,0.3-0.8,2.3-0.9,2.6C312.3,202.2,312,204.2,311.9,204.5z"/>
					<polygon class="st13" points="321.3,198.2 344.9,195.7 343.6,201.1 320,203.6 					"/>
					<path class="st13" d="M320,203.6c-0.3,0.3-1.4-0.9-1.4-0.9c-0.2-0.2-1.1-1.1-1-1.4c0.1-0.3,1.8-1.7,1.8-1.7
						c0.3-0.3,1.7-1.4,1.9-1.2c0.2,0.2-0.3,2.3-0.4,2.5C320.8,201.3,320.3,203.4,320,203.6z"/>
					<path class="st13" d="M343.6,201.1c0.2,0.2,1.9-1.2,1.9-1.2c0.3-0.3,1.8-1.5,1.8-1.7s-1.1-1.4-1.1-1.4
						c-0.2-0.2-1.1-1.1-1.4-0.9c-0.3,0.3-0.8,2.4-0.9,2.6S343.4,200.9,343.6,201.1z"/>
					<polygon class="st14" points="264,204.5 283,202.4 281.7,207.7 262.7,209.8 					"/>
					<path class="st14" d="M262.7,209.8c-0.3,0.3-1.1-0.9-1.1-0.9c-0.2-0.2-0.8-1.1-0.8-1.4s1.5-1.6,1.5-1.6
						c0.3-0.3,1.4-1.4,1.6-1.2c0.2,0.2-0.3,2.2-0.4,2.5C263.5,207.5,263,209.5,262.7,209.8z"/>
					<path class="st14" d="M281.7,207.7c0.2,0.2,1.6-1.2,1.6-1.2c0.3-0.3,1.5-1.4,1.5-1.6c0.1-0.3-0.8-1.4-0.8-1.4
						c-0.2-0.2-0.8-1.1-1.1-0.9c-0.3,0.3-0.8,2.3-0.8,2.6C282,205.5,281.5,207.5,281.7,207.7z"/>
					<polygon class="st15" points="205.5,282.9 241.8,279.9 240.5,285.3 204.2,288.1 					"/>
					<path class="st15" d="M204.2,288.1c-0.3,0.3-1.3-0.9-1.3-0.9c-0.2-0.2-1-1.2-0.9-1.4c0.1-0.3,1.7-1.6,1.7-1.6
						c0.3-0.3,1.6-1.4,1.8-1.1c0.2,0.2-0.3,2.2-0.4,2.5C204.9,285.9,204.4,287.9,204.2,288.1z"/>
					<path class="st15" d="M240.5,285.3c0.2,0.2,1.8-1.1,1.8-1.1c0.3-0.3,1.7-1.4,1.7-1.6c0.1-0.3-1-1.4-1-1.4
						c-0.2-0.2-1-1.2-1.3-0.9c-0.3,0.3-0.8,2.3-0.9,2.6C240.8,283,240.3,285,240.5,285.3z"/>
					<polygon class="st15" points="202.9,295.2 239.2,292.4 237.9,297.8 201.5,300.5 					"/>
					<path class="st15" d="M201.5,300.5c-0.3,0.3-1.3-0.9-1.3-0.9c-0.2-0.2-1-1.2-0.9-1.4s1.7-1.6,1.7-1.6c0.3-0.3,1.6-1.4,1.8-1.1
						c0.2,0.2-0.3,2.3-0.4,2.5C202.3,298.2,201.8,300.2,201.5,300.5z"/>
					<path class="st15" d="M237.7,297.8c0.2,0.2,1.8-1.1,1.8-1.1c0.3-0.3,1.7-1.4,1.7-1.6c0.1-0.3-1-1.4-1-1.4
						c-0.2-0.2-1-1.2-1.3-0.9c-0.3,0.3-0.8,2.3-0.9,2.6C238,295.5,237.5,297.5,237.7,297.8z"/>
					<polygon class="st13" points="179.6,308.8 201.2,307.2 199.9,312.5 178.2,314 					"/>
					<path class="st13" d="M178.5,314c-0.3,0.3-1.3-0.9-1.3-0.9c-0.2-0.2-1-1.2-0.9-1.4c0.1-0.3,1.7-1.6,1.7-1.6
						c0.3-0.3,1.6-1.3,1.8-1.1c0.2,0.2-0.3,2.2-0.4,2.5C179,311.7,178.5,313.8,178.5,314z"/>
					<path class="st13" d="M199.9,312.5c0.2,0.2,1.8-1.1,1.8-1.1c0.3-0.3,1.6-1.4,1.7-1.6c0.1-0.3-0.9-1.4-0.9-1.4
						c-0.2-0.2-1-1.2-1.3-0.9c-0.3,0.3-0.8,2.3-0.8,2.5S199.9,312.3,199.9,312.5z"/>
					<polygon class="st15" points="210.8,306 270,301.7 268.7,307.2 209.5,311.3 					"/>
					<path class="st15" d="M209.5,311.3c-0.3,0.3-1.3-0.9-1.3-0.9c-0.2-0.2-1-1.2-1-1.4c0.1-0.3,1.7-1.6,1.7-1.6
						c0.3-0.3,1.6-1.4,1.8-1.1c0.2,0.2-0.3,2.3-0.4,2.5S209.8,311.1,209.5,311.3z"/>
					<path class="st15" d="M268,307.2c0.2,0.2,1.9-1.2,1.9-1.2c0.3-0.3,1.7-1.4,1.8-1.7s-1-1.5-1-1.5c-0.2-0.2-1.1-1.2-1.4-0.9
						c-0.3,0.3-0.8,2.4-0.9,2.6C268.3,304.9,267.8,307,268,307.2z"/>
					<polygon class="st13" points="177.1,318.5 198.7,317.1 197.4,322.4 175.8,323.8 					"/>
					<path class="st13" d="M176,323.8c-0.3,0.3-1.3-0.9-1.3-0.9c-0.2-0.2-1-1.2-0.9-1.4c0.1-0.3,1.7-1.6,1.7-1.6
						c0.3-0.3,1.6-1.3,1.8-1.1c0.2,0.2-0.3,2.2-0.4,2.5C176.6,321.5,176.1,323.6,176,323.8z"/>
					<path class="st13" d="M197.4,322.4c0.2,0.2,1.8-1.1,1.8-1.1c0.3-0.3,1.6-1.4,1.7-1.6c0.1-0.3-0.9-1.4-0.9-1.4
						c-0.2-0.2-1-1.2-1.3-0.9c-0.3,0.3-0.8,2.3-0.8,2.5C197.7,320.1,197.5,322.1,197.4,322.4z"/>
					<polygon class="st14" points="250.7,278.9 311.5,274 310.2,279.5 249.4,284.3 					"/>
					<path class="st14" d="M249.4,284.3c-0.3,0.3-1.3-0.9-1.3-0.9c-0.2-0.2-1.1-1.2-1-1.4c0.1-0.3,1.7-1.6,1.7-1.6
						c0.3-0.3,1.7-1.4,1.8-1.2c0.2,0.2-0.3,2.3-0.4,2.5C250.2,282,249.7,284,249.4,284.3z"/>
					<path class="st14" d="M309.5,279.5c0.2,0.2,1.9-1.2,1.9-1.2c0.3-0.3,1.7-1.4,1.8-1.7c0.1-0.3-1.1-1.5-1.1-1.5
						c-0.2-0.2-1.1-1.2-1.4-0.9c-0.3,0.3-0.8,2.4-0.9,2.6C309.8,277.2,309.5,279.3,309.5,279.5z"/>
					<polygon class="st14" points="248.7,290.9 309.5,286.2 308.2,291.7 247.4,296.3 					"/>
					<path class="st14" d="M247.4,296.3c-0.3,0.3-1.3-0.9-1.3-0.9c-0.2-0.2-1.1-1.2-1-1.4c0.1-0.3,1.7-1.6,1.7-1.6
						c0.3-0.3,1.7-1.4,1.8-1.1c0.2,0.2-0.3,2.3-0.4,2.5S247.7,296,247.4,296.3z"/>
					<path class="st14" d="M307.5,291.8c0.2,0.2,1.9-1.2,1.9-1.2c0.3-0.3,1.7-1.4,1.8-1.7c0.1-0.3-1.1-1.5-1.1-1.5
						c-0.2-0.2-1.1-1.2-1.4-0.9c-0.3,0.3-0.8,2.4-0.9,2.6C307.8,289.4,307.5,291.5,307.5,291.8z"/>
					<polygon class="st14" points="278.7,301.6 302,299.9 300.7,305.4 277.4,307.1 					"/>
					<path class="st14" d="M277.6,307.1c-0.3,0.3-1.4-0.9-1.4-0.9c-0.2-0.2-1.1-1.2-1-1.5s1.8-1.7,1.8-1.7c0.3-0.3,1.7-1.4,1.9-1.2
						c0.2,0.2-0.3,2.3-0.4,2.6C278.4,304.7,277.7,306.8,277.6,307.1z"/>
					<path class="st14" d="M300.9,305.4c0.2,0.2,1.9-1.2,1.9-1.2c0.3-0.3,1.7-1.4,1.8-1.7c0.1-0.3-1.1-1.5-1.1-1.5
						c-0.2-0.2-1.1-1.2-1.4-0.9c-0.3,0.3-0.8,2.4-0.9,2.6C301.3,303.1,300.8,305.2,300.9,305.4z"/>
					<polygon class="st14" points="208.8,316.6 315.5,309.3 314.2,314.9 207.5,322 					"/>
					<path class="st14" d="M207.5,322c-0.3,0.3-1.1-0.9-1.3-0.9c-0.2-0.2-1-1.2-1-1.4c0.1-0.3,1.7-1.6,1.7-1.6
						c0.3-0.3,1.6-1.4,1.8-1.1c0.2,0.2-0.3,2.3-0.4,2.5S207.8,321.7,207.5,322z"/>
					<path class="st14" d="M314,314.9c0.2,0.2,1.7-1.2,1.9-1.2c0.3-0.3,1.8-1.4,1.8-1.7c0.1-0.3-1.1-1.5-1.1-1.5
						c-0.2-0.2-1.1-1.2-1.4-0.9c-0.3,0.3-0.8,2.4-0.9,2.7C314.3,312.6,313.8,314.7,314,314.9z"/>
					<polygon class="st13" points="175.4,329.8 197,328.4 195.7,333.7 174,335.1 					"/>
					<path class="st13" d="M174.1,334.8c-0.3,0.3-1.3-0.9-1.3-0.9c-0.2-0.2-1-1.2-0.9-1.4c0.1-0.3,1.7-1.6,1.7-1.6
						c0.3-0.3,1.6-1.3,1.8-1.1c0.2,0.2-0.3,2.3-0.4,2.5C174.9,332.6,174.3,334.8,174.1,334.8z"/>
					<path class="st13" d="M195.7,333.5c0.2,0.2,1.8-1.1,1.8-1.1c0.3-0.3,1.6-1.4,1.7-1.6c0.1-0.3-0.9-1.4-0.9-1.4
						c-0.2-0.2-1-1.2-1.3-0.9c-0.3,0.3-0.8,2.3-0.8,2.6C196.1,331.2,195.5,333.5,195.7,333.5z"/>
					<polygon class="st13" points="172.2,342.7 193.8,341.4 192.5,346.7 170.8,348 					"/>
					<path class="st13" d="M170.9,347.7c-0.3,0.3-1.3-0.9-1.3-0.9c-0.2-0.2-1-1.2-0.9-1.4c0.1-0.3,1.7-1.6,1.7-1.6
						c0.3-0.3,1.6-1.3,1.8-1.1c0.2,0.2-0.4,2.3-0.4,2.5S171.1,347.7,170.9,347.7z"/>
					<path class="st13" d="M192.5,346.5c0.2,0.2,1.8-1.1,1.8-1.1c0.3-0.3,1.6-1.4,1.7-1.6c0.1-0.3-0.9-1.5-0.9-1.5
						c-0.2-0.2-1-1.2-1.3-0.9c-0.3,0.3-0.8,2.3-0.9,2.6S192.3,346.5,192.5,346.5z"/>
					<polygon class="st15" points="205.8,327.8 242.5,325.5 241.2,330.9 204.5,333.2 					"/>
					<path class="st15" d="M204.8,332.9c-0.3,0.3-1.3-0.9-1.3-0.9c-0.2-0.2-1-1.2-1-1.4c0.1-0.3,1.7-1.6,1.7-1.6
						c0.3-0.3,1.6-1.4,1.8-1.1c0.2,0.2-0.3,2.3-0.4,2.5C205.6,330.6,205,332.9,204.8,332.9z"/>
					<path class="st15" d="M241.2,330.7c0.2,0.2,1.8-1.1,1.8-1.1c0.3-0.3,1.7-1.4,1.7-1.6c0.1-0.3-1-1.5-1-1.5
						c-0.2-0.2-1.1-1.2-1.3-0.9c-0.3,0.3-0.8,2.3-0.9,2.6S241,330.7,241.2,330.7z"/>
					<polygon class="st15" points="203.2,340.3 239.9,338.1 238.5,343.6 201.9,345.7 					"/>
					<path class="st15" d="M201.9,345.4c-0.3,0.3-1.3-0.9-1.3-0.9c-0.2-0.2-1-1.2-1-1.5c0.1-0.3,1.7-1.6,1.7-1.6
						c0.3-0.3,1.6-1.4,1.8-1.1c0.2,0.2-0.3,2.3-0.4,2.5C202.7,343.1,202.2,345.4,201.9,345.4z"/>
					<path class="st15" d="M238.6,343.3c0.2,0.2,1.9-1.1,1.9-1.1c0.3-0.3,1.7-1.4,1.8-1.6c0.1-0.3-1-1.5-1-1.5
						c-0.2-0.2-1.1-1.2-1.3-0.9c-0.3,0.3-0.8,2.3-0.9,2.6C238.9,341,238.4,343.3,238.6,343.3z"/>
					<polygon class="st14" points="251.5,324.7 312.8,320.7 311.5,326.3 250.2,330.1 					"/>
					<path class="st14" d="M250.5,329.8c-0.3,0.3-1.4-0.9-1.4-0.9c-0.2-0.2-1.1-1.2-1-1.5c0.1-0.3,1.8-1.6,1.8-1.6
						c0.3-0.3,1.7-1.4,1.9-1.1c0.2,0.2-0.3,2.3-0.4,2.6C251,327.5,250.5,329.8,250.5,329.8z"/>
					<path class="st14" d="M311.1,326.1c0.2,0.3,1.9-1.2,1.9-1.2c0.3-0.3,1.8-1.4,1.8-1.7s-1.1-1.5-1.1-1.5c-0.2-0.2-1.1-1.2-1.4-1
						c-0.3,0.3-0.8,2.4-0.9,2.7C311.4,323.7,310.8,326.1,311.1,326.1z"/>
					<polygon class="st14" points="249.4,336.8 310.8,333.1 309.5,338.7 248.1,342.3 					"/>
					<path class="st14" d="M248.4,342c-0.3,0.3-1.4-0.9-1.4-0.9c-0.2-0.2-1.1-1.2-1-1.5s1.8-1.6,1.8-1.6c0.3-0.3,1.7-1.4,1.9-1.1
						c0.2,0.2-0.3,2.3-0.4,2.6C249.2,339.6,248.4,342,248.4,342z"/>
					<path class="st14" d="M309.1,338.5c0.2,0.3,1.9-1.2,1.9-1.2c0.3-0.3,1.8-1.4,1.8-1.7c0.1-0.3-1.1-1.5-1.1-1.5
						c-0.2-0.3-1.1-1.2-1.4-1s-0.8,2.4-0.9,2.7C309.4,336.1,308.8,338.5,309.1,338.5z"/>
					<polygon class="st13" points="169.8,352.3 191.4,351.1 190.1,356.4 168.4,357.6 					"/>
					<path class="st13" d="M168.4,357.6c-0.3,0.3-1.3-0.9-1.3-0.9c-0.2-0.2-1-1.2-0.9-1.4c0.1-0.3,1.7-1.6,1.7-1.6
						c0.3-0.3,1.6-1.3,1.8-1.1c0.2,0.2-0.4,2.3-0.4,2.5S168.7,357.3,168.4,357.6z"/>
					<path class="st13" d="M190.1,356.4c0.2,0.2,1.8-1.1,1.8-1.1c0.3-0.3,1.6-1.3,1.7-1.6c0.1-0.3-0.9-1.5-0.9-1.5
						c-0.2-0.2-1-1.2-1.3-0.9c-0.3,0.3-0.8,2.3-0.9,2.6C190.4,354.1,189.9,356.2,190.1,356.4z"/>
					<polygon class="st13" points="166.5,365.2 188.2,364.1 186.8,369.5 165.2,370.5 					"/>
					<path class="st13" d="M165.2,370.5c-0.3,0.3-1.3-0.9-1.3-0.9c-0.2-0.2-1-1.2-0.9-1.5c0.1-0.3,1.7-1.6,1.7-1.6
						c0.3-0.3,1.6-1.3,1.8-1.1c0.2,0.2-0.4,2.3-0.4,2.5C166,368.2,165.5,370.2,165.2,370.5z"/>
					<path class="st13" d="M186.8,369.5c0.2,0.2,1.8-1.1,1.8-1.1c0.3-0.3,1.6-1.3,1.7-1.6s-0.9-1.5-0.9-1.5c-0.2-0.2-1-1.2-1.3-0.9
						c-0.3,0.3-0.8,2.3-0.9,2.6C187.2,367.2,186.7,369.2,186.8,369.5z"/>
					<polygon class="st15" points="200.2,350.6 236.9,348.5 235.6,354 198.9,355.9 					"/>
					<path class="st15" d="M199.1,355.9c-0.3,0.3-1.3-0.9-1.3-0.9c-0.2-0.2-1-1.2-0.9-1.5s1.7-1.6,1.7-1.6c0.3-0.3,1.6-1.4,1.8-1.1
						c0.2,0.2-0.3,2.3-0.4,2.5C199.9,353.6,199.4,355.7,199.1,355.9z"/>
					<path class="st15" d="M235.6,354c0.2,0.2,1.9-1.1,1.9-1.1c0.3-0.3,1.7-1.4,1.8-1.6c0.1-0.3-1-1.5-1-1.5c-0.2-0.2-1.1-1.2-1.3-1
						c-0.3,0.3-0.8,2.3-0.9,2.6S235.4,353.7,235.6,354z"/>
					<polygon class="st15" points="197.6,363.1 234.2,361.2 232.9,366.7 196.2,368.5 					"/>
					<path class="st15" d="M196.2,368.5c-0.3,0.3-1.3-1-1.3-1c-0.2-0.2-1-1.2-0.9-1.5s1.7-1.6,1.7-1.6c0.3-0.3,1.6-1.3,1.8-1.1
						c0.2,0.2-0.3,2.3-0.4,2.6C197,366.2,196.5,368.2,196.2,368.5z"/>
					<path class="st15" d="M232.9,366.7c0.2,0.2,1.9-1.1,1.9-1.1c0.3-0.3,1.7-1.4,1.8-1.6c0.1-0.3-1-1.5-1-1.5
						c-0.2-0.2-1.1-1.2-1.3-1c-0.3,0.3-0.8,2.4-0.9,2.6C233.2,364.4,232.7,366.5,232.9,366.7z"/>
					<polygon class="st14" points="245.9,347.8 307.2,344.4 305.9,350 244.5,353.3 					"/>
					<path class="st14" d="M244.8,353.2c-0.3,0.3-1.4-1-1.4-1c-0.2-0.2-1.1-1.2-1-1.5c0.1-0.3,1.8-1.6,1.8-1.6
						c0.3-0.3,1.7-1.4,1.9-1.1c0.2,0.2-0.3,2.3-0.4,2.6C245.3,350.9,244.8,353,244.8,353.2z"/>
					<path class="st14" d="M305.4,350c0.2,0.3,1.9-1.2,1.9-1.2c0.3-0.3,1.8-1.4,1.8-1.7s-1.1-1.5-1.1-1.5c-0.2-0.3-1.1-1.3-1.4-1
						c-0.3,0.3-0.8,2.4-0.9,2.7C305.7,347.6,305.2,349.7,305.4,350z"/>
					<polygon class="st14" points="243.8,360 305.2,356.9 303.8,362.5 242.5,365.5 					"/>
					<path class="st14" d="M242.7,365.5c-0.3,0.3-1.4-1-1.4-1c-0.2-0.2-1.1-1.2-1-1.5c0.1-0.3,1.8-1.6,1.8-1.6
						c0.3-0.3,1.7-1.4,1.9-1.1c0.2,0.2-0.3,2.3-0.4,2.6C243.5,363.1,242.8,365.2,242.7,365.5z"/>
					<path class="st14" d="M303.4,362.5c0.2,0.3,1.9-1.2,1.9-1.2c0.3-0.3,1.8-1.4,1.8-1.7c0.1-0.3-1.1-1.5-1.1-1.5
						c-0.2-0.3-1.1-1.3-1.4-1c-0.3,0.3-0.8,2.4-0.9,2.7C303.7,360.1,303.2,362.2,303.4,362.5z"/>
					<polygon class="st13" points="151.2,380.4 172.6,379.5 171.3,384.8 149.9,385.7 					"/>
					<path class="st13" d="M150.2,385.5c-0.3,0.3-1.2-0.9-1.2-0.9c-0.2-0.2-1-1.2-0.9-1.5c0.1-0.3,1.7-1.6,1.7-1.6
						c0.3-0.3,1.6-1.3,1.8-1.1c0.2,0.2-0.4,2.3-0.4,2.5C150.7,383.2,150.2,385.5,150.2,385.5z"/>
					<path class="st13" d="M171.4,384.6c0.2,0.2,1.8-1.1,1.8-1.1c0.3-0.3,1.6-1.3,1.7-1.6c0.1-0.3-0.9-1.5-0.9-1.5
						c-0.2-0.2-1-1.2-1.3-1c-0.3,0.3-0.8,2.3-0.9,2.6C171.7,382.3,171.4,384.6,171.4,384.6z"/>
					<polygon class="st13" points="148,393.3 169.4,392.5 168.1,397.9 146.6,398.7 					"/>
					<path class="st13" d="M146.9,398.4c-0.3,0.3-1.2-1-1.2-1c-0.2-0.2-1-1.2-0.9-1.5s1.7-1.6,1.7-1.6c0.3-0.3,1.6-1.3,1.8-1.1
						c0.2,0.2-0.4,2.3-0.4,2.5C147.5,396.1,146.9,398.4,146.9,398.4z"/>
					<path class="st13" d="M168.1,397.6c0.2,0.2,1.8-1.1,1.8-1.1c0.3-0.3,1.6-1.3,1.7-1.6c0.1-0.3-0.9-1.5-0.9-1.5
						c-0.2-0.2-1-1.2-1.3-1c-0.3,0.3-0.8,2.3-0.9,2.6C168.5,395.3,168.1,397.6,168.1,397.6z"/>
					<polygon class="st15" points="181.6,379.1 217.9,377.4 216.6,382.9 180.3,384.4 					"/>
					<path class="st15" d="M180.3,384.2c-0.3,0.3-1.3-1-1.3-1c-0.2-0.2-1-1.2-0.9-1.5c0.1-0.3,1.7-1.6,1.7-1.6
						c0.3-0.3,1.6-1.3,1.8-1.1c0.2,0.2-0.4,2.3-0.4,2.6C181.1,381.9,180.6,384.2,180.3,384.2z"/>
					<path class="st15" d="M216.7,382.6c0.2,0.3,1.8-1.1,1.8-1.1c0.3-0.3,1.7-1.4,1.7-1.6c0.1-0.3-1-1.5-1-1.5c-0.2-0.2-1-1.2-1.3-1
						c-0.3,0.3-0.8,2.3-0.9,2.6C217,380.3,216.4,382.6,216.7,382.6z"/>
					<polygon class="st15" points="178.9,391.6 215.3,390.1 213.9,395.6 177.6,397 					"/>
					<path class="st15" d="M177.7,396.7c-0.3,0.3-1.3-1-1.3-1c-0.2-0.2-1-1.2-0.9-1.5c0.1-0.3,1.7-1.6,1.7-1.6
						c0.3-0.3,1.6-1.3,1.8-1.1c0.2,0.2-0.4,2.3-0.4,2.6S177.9,396.7,177.7,396.7z"/>
					<path class="st15" d="M213.8,395.4c0.2,0.3,1.8-1.1,1.8-1.1c0.3-0.3,1.7-1.4,1.7-1.6c0.1-0.3-1-1.5-1-1.5c-0.2-0.3-1-1.2-1.3-1
						c-0.3,0.3-0.8,2.4-0.9,2.6C214.1,393,213.5,395.4,213.8,395.4z"/>
					<polygon class="st14" points="226.8,376.8 287.6,374 286.3,379.6 225.5,382.2 					"/>
					<path class="st14" d="M225.6,382c-0.3,0.3-1.3-1-1.3-1c-0.2-0.3-1-1.2-1-1.5c0.1-0.3,1.7-1.6,1.7-1.6c0.3-0.3,1.7-1.4,1.8-1.1
						c0.2,0.3-0.3,2.3-0.4,2.6C226.4,379.6,225.8,382,225.6,382z"/>
					<path class="st14" d="M285.6,379.4c0.2,0.3,1.9-1.1,1.9-1.1c0.3-0.3,1.7-1.4,1.8-1.7c0.1-0.3-1-1.5-1-1.5
						c-0.2-0.3-1.1-1.3-1.4-1c-0.3,0.3-0.8,2.4-0.9,2.7S285.6,379.4,285.6,379.4z"/>
					<polygon class="st14" points="224.8,389 285.6,386.5 284.2,392.1 223.4,394.5 					"/>
					<path class="st14" d="M223.5,394.2c-0.3,0.3-1.3-1-1.3-1c-0.2-0.3-1-1.3-1-1.5c0.1-0.3,1.7-1.6,1.7-1.6
						c0.3-0.3,1.7-1.4,1.8-1.1c0.2,0.3-0.3,2.3-0.4,2.6S223.7,394.2,223.5,394.2z"/>
					<path class="st14" d="M283.6,391.9c0.2,0.3,1.9-1.1,1.9-1.1c0.3-0.3,1.8-1.4,1.8-1.7c0.1-0.3-1-1.5-1-1.5
						c-0.2-0.3-1.1-1.3-1.4-1c-0.3,0.3-0.8,2.4-0.9,2.7C283.9,389.5,283.6,391.9,283.6,391.9z"/>
					<polygon class="st13" points="155.6,404.6 177.2,403.9 175.9,409.3 154.3,410 					"/>
					<path class="st13" d="M154.6,409.7c-0.3,0.3-1.3-1-1.3-1c-0.2-0.2-1-1.2-0.9-1.5s1.7-1.6,1.7-1.6c0.3-0.3,1.6-1.3,1.8-1.1
						c0.2,0.2-0.4,2.3-0.4,2.5C155.1,407.4,154.6,409.7,154.6,409.7z"/>
					<path class="st13" d="M175.9,409c0.2,0.3,1.8-1.1,1.8-1.1c0.3-0.3,1.6-1.3,1.7-1.6c0.1-0.3-0.9-1.5-0.9-1.5
						c-0.2-0.2-1-1.2-1.3-1c-0.3,0.3-0.8,2.3-0.9,2.6S175.9,409,175.9,409z"/>
					<polygon class="st15" points="186.8,403 246,400.9 244.7,406.5 185.5,408.4 					"/>
					<path class="st15" d="M185.6,408.2c-0.3,0.3-1.3-1-1.3-1c-0.2-0.3-1-1.2-0.9-1.5s1.7-1.6,1.7-1.6c0.3-0.3,1.6-1.3,1.8-1.1
						c0.2,0.3-0.4,2.3-0.4,2.6C186.3,405.9,185.8,408.2,185.6,408.2z"/>
					<path class="st15" d="M244,406.2c0.2,0.3,1.9-1.1,1.9-1.1c0.3-0.3,1.7-1.4,1.8-1.6c0.1-0.3-1-1.5-1-1.5c-0.2-0.3-1.1-1.3-1.4-1
						c-0.3,0.3-0.8,2.4-0.9,2.6C244.4,403.9,243.8,406.2,244,406.2z"/>
					<polygon class="st13" points="153.2,414.3 174.8,413.7 173.4,419.1 151.8,419.7 					"/>
					<path class="st13" d="M152.1,419.7c-0.3,0.3-1.3-1-1.3-1c-0.2-0.2-1-1.2-0.9-1.5c0.1-0.3,1.7-1.6,1.7-1.6
						c0.3-0.3,1.6-1.3,1.8-1.1c0.2,0.2-0.4,2.3-0.4,2.5C152.6,417.4,152.1,419.7,152.1,419.7z"/>
					<path class="st13" d="M173.4,419.1c0.2,0.3,1.8-1.1,1.8-1.1c0.3-0.3,1.6-1.3,1.7-1.6c0.1-0.3-0.9-1.5-0.9-1.5
						c-0.2-0.3-1-1.2-1.3-1c-0.3,0.3-0.8,2.3-0.9,2.6C173.8,416.8,173.4,419.1,173.4,419.1z"/>
					<polygon class="st14" points="254.7,401.1 278,400.3 276.7,405.9 253.4,406.7 					"/>
					<path class="st14" d="M253.7,406.4c-0.3,0.3-1.4-1-1.4-1c-0.2-0.3-1.1-1.3-1-1.5c0.1-0.3,1.8-1.6,1.8-1.6
						c0.3-0.3,1.7-1.4,1.9-1.1c0.2,0.3-0.3,2.4-0.4,2.6C254.5,404,253.7,406.4,253.7,406.4z"/>
					<path class="st14" d="M277,405.7c0.2,0.3,1.9-1.1,1.9-1.1c0.3-0.3,1.7-1.4,1.8-1.7c0.1-0.3-1-1.6-1-1.6c-0.2-0.3-1.1-1.3-1.4-1
						c-0.3,0.3-0.8,2.4-0.9,2.7S276.7,405.7,277,405.7z"/>
					<polygon class="st14" points="184.9,413.6 291.5,410.2 290.2,415.9 183.5,419 					"/>
					<path class="st14" d="M183.5,419c-0.3,0.3-1.1-1-1.3-1c-0.2-0.3-1-1.3-0.9-1.5c0.1-0.3,1.7-1.6,1.7-1.6
						c0.3-0.3,1.6-1.3,1.8-1.1c0.2,0.3-0.4,2.3-0.4,2.6C184.3,416.7,183.8,419,183.5,419z"/>
					<path class="st14" d="M289.9,415.9c0.2,0.3,1.7-1.1,1.9-1.1c0.3-0.3,1.8-1.4,1.8-1.7s-1.1-1.6-1.1-1.6c-0.2-0.3-1.1-1.3-1.4-1
						c-0.3,0.3-0.8,2.4-0.9,2.7C290.3,413.5,289.7,415.9,289.9,415.9z"/>
					<polygon class="st13" points="150.3,425.9 171.9,425.3 170.6,430.7 149,431.2 					"/>
					<path class="st13" d="M149.2,431.2c-0.3,0.3-1.3-1-1.3-1c-0.2-0.3-1-1.2-0.9-1.5c0.1-0.3,1.7-1.6,1.7-1.6
						c0.3-0.3,1.6-1.3,1.8-1.1c0.2,0.3-0.4,2.3-0.4,2.6C149.8,428.9,149.2,431,149.2,431.2z"/>
					<path class="st13" d="M170.6,430.7c0.2,0.3,1.8-1.1,1.8-1.1c0.3-0.3,1.6-1.3,1.7-1.6s-0.9-1.5-0.9-1.5c-0.2-0.3-1-1.3-1.3-1
						c-0.3,0.3-0.8,2.3-0.9,2.6C170.9,428.4,170.6,430.4,170.6,430.7z"/>
					<polygon class="st15" points="181.5,424.5 240.7,422.9 239.3,428.4 180.2,429.9 					"/>
					<path class="st15" d="M180.2,429.9c-0.3,0.3-1.3-1-1.3-1c-0.2-0.3-1-1.3-0.9-1.5c0.1-0.3,1.7-1.6,1.7-1.6
						c0.3-0.3,1.6-1.3,1.8-1.1c0.2,0.3-0.4,2.3-0.4,2.6S180.5,429.7,180.2,429.9z"/>
					<path class="st15" d="M238.6,428.5c0.2,0.3,1.9-1.1,1.9-1.1c0.3-0.3,1.7-1.4,1.8-1.6s-1-1.6-1-1.6c-0.2-0.3-1.1-1.3-1.4-1
						c-0.3,0.3-0.8,2.4-0.9,2.7C239,426.1,238.5,428.2,238.6,428.5z"/>
					<polygon class="st14" points="249.4,423.2 272.7,422.5 271.4,428.2 248,428.8 					"/>
					<path class="st14" d="M248.3,428.7c-0.3,0.3-1.4-1-1.4-1c-0.2-0.3-1.1-1.3-1-1.6c0.1-0.3,1.8-1.6,1.8-1.6
						c0.3-0.3,1.7-1.4,1.9-1.1c0.2,0.3-0.3,2.4-0.4,2.7C249.1,426.3,248.3,428.5,248.3,428.7z"/>
					<path class="st14" d="M271.6,428.2c0.2,0.3,1.9-1.1,1.9-1.1c0.3-0.3,1.7-1.4,1.8-1.6s-1-1.6-1-1.6c-0.2-0.3-1.1-1.3-1.4-1
						c-0.3,0.3-0.8,2.4-0.9,2.7S271.4,427.9,271.6,428.2z"/>
					<polygon class="st13" points="146.7,436.9 168.3,436.4 166.9,441.8 145.3,442.3 					"/>
					<path class="st13" d="M145.3,442.3c-0.3,0.3-1.3-1-1.3-1c-0.2-0.3-1-1.3-0.9-1.5c0.1-0.3,1.7-1.6,1.7-1.6
						c0.3-0.3,1.6-1.3,1.8-1.1c0.2,0.3-0.4,2.3-0.4,2.6C146.2,439.7,145.6,442,145.3,442.3z"/>
					<path class="st13" d="M166.9,441.8c0.2,0.3,1.8-1.1,1.8-1.1c0.3-0.3,1.6-1.3,1.7-1.6s-0.9-1.5-0.9-1.5c-0.2-0.3-1-1.3-1.3-1
						c-0.3,0.3-0.8,2.3-0.9,2.6C167.3,439.3,167,441.6,166.9,441.8z"/>
					<polygon class="st14" points="221,435.2 286.9,433.7 285.6,439.4 219.6,440.7 					"/>
					<path class="st14" d="M219.6,440.7c-0.3,0.3-1.3-1-1.3-1c-0.2-0.3-1-1.3-1-1.6c0.1-0.3,1.8-1.6,1.8-1.6
						c0.3-0.3,1.7-1.4,1.9-1.1c0.2,0.3-0.3,2.4-0.4,2.6C220.5,438.1,219.9,440.5,219.6,440.7z"/>
					<path class="st14" d="M285.3,439.4c0.2,0.3,1.9-1.1,1.9-1.1c0.3-0.3,1.8-1.4,1.8-1.7c0.1-0.3-1.1-1.6-1.1-1.6
						c-0.2-0.3-1.1-1.3-1.4-1c-0.3,0.3-0.8,2.4-0.9,2.7C285.7,436.7,285.1,439.1,285.3,439.4z"/>
					<polygon class="st14" points="144.8,446.4 284,443.7 282.7,449.4 143.4,451.8 					"/>
					<path class="st14" d="M143.7,451.5c-0.3,0.3-1.7-1-1.7-1c-0.2-0.3-1.4-1.3-1.3-1.5c0.1-0.3,1.9-1.6,2.1-1.6
						c0.3-0.3,2-1.3,2.2-1.1c0.2,0.3-0.4,2.3-0.4,2.6C144.5,449.2,143.9,451.5,143.7,451.5z"/>
					<path class="st14" d="M282.5,449.1c0.2,0.3,2.4-1.1,2.4-1.1c0.3-0.3,2.2-1.4,2.3-1.7c0.1-0.3-1.3-1.6-1.5-1.6
						c-0.2-0.3-1.6-1.3-1.9-1c-0.3,0.3-0.8,2.4-0.9,2.7S282.3,449.1,282.5,449.1z"/>
					<polygon class="st14" points="142.5,455.4 281.8,453.2 280.4,458.9 141.2,460.8 					"/>
					<path class="st14" d="M141.4,460.5c-0.3,0.3-1.7-1-1.7-1c-0.2-0.3-1.4-1.3-1.3-1.5c0.1-0.3,1.9-1.6,2.1-1.6
						c0.3-0.3,2-1.3,2.2-1.1c0.2,0.3-0.4,2.3-0.4,2.6S141.7,460.5,141.4,460.5z"/>
					<path class="st14" d="M280.3,458.6c0.2,0.3,2.4-1.1,2.4-1.1c0.3-0.3,2.3-1.4,2.3-1.7s-1.3-1.6-1.5-1.6
						c-0.2-0.3-1.6-1.3-1.9-1.1c-0.3,0.3-0.8,2.4-0.9,2.7C280.6,456.2,280,458.6,280.3,458.6z"/>
					<polygon class="st15" points="178.6,436.2 211.2,435.4 209.8,440.9 177.3,441.6 					"/>
					<path class="st15" d="M177.5,441.6c-0.3,0.3-2-1-2.2-1c-0.2-0.3-1.7-1.3-1.6-1.5c0.1-0.3,2.2-1.6,2.4-1.6
						c0.3-0.3,2.3-1.3,2.5-1.1c0.2,0.3-0.4,2.3-0.4,2.6C178.4,439,177.8,441.4,177.5,441.6z"/>
					<path class="st15" d="M209.8,440.9c0.2,0.3,2.5-1.1,2.8-1.1c0.3-0.3,2.4-1.4,2.4-1.6c0.1-0.3-1.4-1.5-1.7-1.5
						c-0.2-0.3-1.7-1.3-2-1c-0.3,0.3-0.8,2.4-0.9,2.6C210.2,438.3,209.7,440.7,209.8,440.9z"/>
					<polygon class="st13" points="183.4,463.6 205.7,463.3 204.4,468.9 182,469.1 					"/>
					<path class="st13" d="M204.4,468.9c0.2,0.3,1.9-1.1,1.9-1.1c0.3-0.3,1.7-1.3,1.8-1.6c0.1-0.3-1-1.6-1-1.6c-0.2-0.3-1-1.3-1.3-1
						c-0.3,0.3-0.8,2.4-0.9,2.6C204.7,466.5,204.2,468.6,204.4,468.9z"/>
					<path class="st13" d="M182,469.1c-0.3,0.3-1.3-1-1.3-1c-0.2-0.3-1-1.3-1-1.6c0.1-0.3,1.7-1.6,1.7-1.6c0.3-0.3,1.7-1.3,1.8-1.1
						c0.2,0.3-0.4,2.4-0.4,2.6C182.8,466.8,182.3,468.9,182,469.1z"/>
					<polygon class="st15" points="141.2,464.1 172.9,463.7 171.6,469.2 139.8,469.5 					"/>
					<path class="st15" d="M171.6,469.2c0.2,0.3,2.5-1.1,2.7-1.1c0.3-0.3,2.3-1.3,2.4-1.6c0.1-0.3-1.4-1.5-1.6-1.5
						c-0.2-0.3-1.7-1.3-2-1c-0.3,0.3-0.8,2.4-0.9,2.6C171.9,466.9,171.4,469,171.6,469.2z"/>
					<path class="st15" d="M140,469.5c-0.3,0.3-1.9-1-2.1-1c-0.2-0.3-1.6-1.3-1.6-1.5c0.1-0.3,2.1-1.6,2.3-1.6
						c0.3-0.3,2.3-1.3,2.4-1.1c0.2,0.3-0.4,2.3-0.4,2.6C140.8,467.2,140.3,469.3,140,469.5z"/>
				</g>
			</g>
			<g>
				<polygon class="st13" points="484.8,150 491.6,149.2 491.2,150.7 484.5,151.5 				"/>
				<path class="st13" d="M484.5,151.4c-0.1,0.1-0.4-0.2-0.4-0.2c-0.1-0.1-0.3-0.3-0.3-0.4s0.5-0.5,0.5-0.5c0.1-0.1,0.5-0.4,0.5-0.3
					c0.1,0.1-0.1,0.6-0.1,0.7C484.7,150.8,484.5,151.4,484.5,151.4z"/>
				<path class="st13" d="M491.3,150.6c0.1,0.1,0.5-0.3,0.5-0.3c0.1-0.1,0.5-0.4,0.5-0.5s-0.3-0.4-0.3-0.4c-0.1-0.1-0.3-0.3-0.4-0.2
					c-0.1,0.1-0.2,0.6-0.2,0.7C491.3,150,491.2,150.6,491.3,150.6z"/>
				<polygon class="st13" points="487.9,152.3 494.7,151.5 494.4,153 487.6,153.8 				"/>
				<path class="st13" d="M487.7,153.7c-0.1,0.1-0.4-0.2-0.4-0.2c-0.1-0.1-0.3-0.3-0.3-0.4c0-0.1,0.5-0.5,0.5-0.5
					c0.1-0.1,0.5-0.4,0.5-0.3c0.1,0.1-0.1,0.6-0.1,0.7C487.8,153.1,487.7,153.7,487.7,153.7z"/>
				<path class="st13" d="M494.4,153c0.1,0.1,0.5-0.3,0.5-0.3c0.1-0.1,0.5-0.4,0.5-0.5s-0.3-0.4-0.3-0.4c-0.1-0.1-0.3-0.3-0.4-0.2
					c-0.1,0.1-0.2,0.6-0.2,0.7C494.5,152.3,494.4,153,494.4,153z"/>
				<polygon class="st13" points="490.3,154.6 497.1,153.8 496.8,155.3 490,156.1 				"/>
				<path class="st13" d="M490,156.1c-0.1,0.1-0.4-0.2-0.4-0.2c-0.1-0.1-0.3-0.3-0.3-0.4c0-0.1,0.5-0.5,0.5-0.5
					c0.1-0.1,0.5-0.4,0.5-0.3c0.1,0.1-0.1,0.6-0.1,0.7C490.2,155.4,490,156,490,156.1z"/>
				<path class="st13" d="M496.8,155.3c0.1,0.1,0.5-0.3,0.5-0.3c0.1-0.1,0.5-0.4,0.5-0.5s-0.3-0.4-0.3-0.4c-0.1-0.1-0.3-0.3-0.4-0.2
					s-0.2,0.6-0.2,0.7C496.8,154.6,496.8,155.2,496.8,155.3z"/>
				<polygon class="st13" points="489.7,157.3 496.5,156.5 496.2,158 489.4,158.8 				"/>
				<path class="st13" d="M489.4,158.8c-0.1,0.1-0.4-0.2-0.4-0.2c-0.1-0.1-0.3-0.3-0.3-0.4s0.5-0.5,0.5-0.5c0.1-0.1,0.5-0.4,0.5-0.3
					c0.1,0.1-0.1,0.6-0.1,0.7S489.5,158.7,489.4,158.8z"/>
				<path class="st13" d="M496.2,158c0.1,0.1,0.5-0.3,0.5-0.3c0.1-0.1,0.5-0.4,0.5-0.5s-0.3-0.4-0.3-0.4c-0.1-0.1-0.3-0.3-0.4-0.2
					s-0.2,0.6-0.2,0.7C496.3,157.4,496.2,157.9,496.2,158z"/>
				<polygon class="st13" points="489.2,160 496,159.2 495.7,160.7 488.9,161.4 				"/>
				<path class="st13" d="M488.9,161.4c-0.1,0.1-0.4-0.2-0.4-0.2c-0.1-0.1-0.3-0.3-0.3-0.4s0.5-0.5,0.5-0.5c0.1-0.1,0.5-0.4,0.5-0.3
					c0.1,0.1-0.1,0.6-0.1,0.7C489.1,160.7,489,161.4,488.9,161.4z"/>
				<path class="st13" d="M495.7,160.6c0.1,0.1,0.5-0.3,0.5-0.3c0.1-0.1,0.5-0.4,0.5-0.5c0-0.1-0.3-0.4-0.3-0.4
					c-0.1-0.1-0.3-0.3-0.4-0.2c-0.1,0.1-0.2,0.6-0.2,0.7S495.7,160.6,495.7,160.6z"/>
				<polygon class="st13" points="488.6,162.7 495.4,161.9 495.1,163.4 488.3,164.2 				"/>
				<path class="st13" d="M488.3,164.1c-0.1,0.1-0.4-0.2-0.4-0.2c-0.1-0.1-0.3-0.3-0.3-0.4s0.5-0.5,0.5-0.5c0.1-0.1,0.5-0.4,0.5-0.3
					c0.1,0.1-0.1,0.6-0.1,0.7S488.3,164.1,488.3,164.1z"/>
				<path class="st13" d="M495.1,163.3c0.1,0.1,0.5-0.3,0.5-0.3c0.1-0.1,0.5-0.4,0.5-0.5c0-0.1-0.3-0.4-0.3-0.4
					c-0.1-0.1-0.3-0.3-0.4-0.2c-0.1,0.1-0.2,0.6-0.2,0.7S495.1,163.3,495.1,163.3z"/>
				<polygon class="st13" points="486.4,172.3 493.2,171.6 492.9,173 486.1,173.8 				"/>
				<path class="st13" d="M486.1,173.7c-0.1,0.1-0.4-0.2-0.4-0.2c-0.1-0.1-0.3-0.3-0.3-0.4s0.5-0.5,0.5-0.5c0.1-0.1,0.5-0.4,0.5-0.3
					c0.1,0.1-0.1,0.6-0.1,0.7S486.2,173.7,486.1,173.7z"/>
				<path class="st13" d="M492.9,173c0.1,0.1,0.5-0.3,0.5-0.3c0.1-0.1,0.5-0.4,0.5-0.5c0-0.1-0.3-0.4-0.3-0.4
					c-0.1-0.1-0.3-0.3-0.4-0.2s-0.2,0.6-0.2,0.7C493,172.3,492.9,173,492.9,173z"/>
				<polygon class="st13" points="486.1,175 492.9,174.2 492.6,175.7 485.8,176.4 				"/>
				<path class="st13" d="M485.8,176.4c-0.1,0.1-0.4-0.2-0.4-0.2c-0.1-0.1-0.3-0.3-0.3-0.4s0.5-0.5,0.5-0.5c0.1-0.1,0.5-0.4,0.5-0.3
					s-0.1,0.6-0.1,0.7C486,175.8,485.8,176.4,485.8,176.4z"/>
				<path class="st13" d="M492.6,175.7c0.1,0.1,0.5-0.3,0.5-0.3c0.1-0.1,0.5-0.4,0.5-0.5s-0.3-0.4-0.3-0.4c-0.1-0.1-0.3-0.3-0.4-0.2
					c-0.1,0.1-0.2,0.6-0.2,0.7S492.6,175.6,492.6,175.7z"/>
				<polygon class="st13" points="482.1,178.4 488.8,177.6 488.5,179.1 481.7,179.8 				"/>
				<path class="st13" d="M481.8,179.8c-0.1,0.1-0.4-0.2-0.4-0.2c-0.1-0.1-0.3-0.3-0.3-0.4c0-0.1,0.5-0.5,0.5-0.5
					c0.1-0.1,0.5-0.4,0.5-0.3c0.1,0.1-0.1,0.6-0.1,0.7C481.9,179.2,481.8,179.8,481.8,179.8z"/>
				<path class="st13" d="M488.5,179.1c0.1,0.1,0.5-0.3,0.5-0.3c0.1-0.1,0.5-0.4,0.5-0.5c0-0.1-0.3-0.4-0.3-0.4
					c-0.1-0.1-0.3-0.3-0.4-0.2s-0.2,0.6-0.2,0.7S488.5,179,488.5,179.1z"/>
				<polygon class="st13" points="481.2,181.9 488,181.2 487.7,182.7 480.9,183.4 				"/>
				<path class="st13" d="M481,183.4c-0.1,0.1-0.4-0.2-0.4-0.2c-0.1-0.1-0.3-0.3-0.3-0.4c0-0.1,0.5-0.5,0.5-0.5
					c0.1-0.1,0.5-0.4,0.5-0.3s-0.1,0.6-0.1,0.7C481.1,182.8,481,183.3,481,183.4z"/>
				<path class="st13" d="M487.7,182.7c0.1,0.1,0.5-0.3,0.5-0.3c0.1-0.1,0.5-0.4,0.5-0.5c0-0.1-0.3-0.4-0.3-0.4
					c-0.1-0.1-0.3-0.3-0.4-0.2c-0.1,0.1-0.2,0.6-0.2,0.7S487.7,182.6,487.7,182.7z"/>
				<polygon class="st14" points="498.2,161.6 531.4,157.8 531.1,159.3 497.8,163.1 				"/>
				<path class="st14" d="M497.8,163c-0.1,0.1-0.4-0.2-0.4-0.2c-0.1-0.1-0.3-0.3-0.3-0.4s0.5-0.5,0.5-0.5c0.1-0.1,0.5-0.4,0.5-0.3
					c0.1,0.1-0.1,0.6-0.1,0.7S497.9,163,497.8,163z"/>
				<path class="st14" d="M531,159.2c0.1,0.1,0.6-0.3,0.6-0.3c0.1-0.1,0.5-0.4,0.5-0.5c0-0.1-0.3-0.4-0.3-0.4
					c-0.1-0.1-0.3-0.3-0.4-0.2c-0.1,0.1-0.2,0.6-0.2,0.7C531.1,158.6,531,159.2,531,159.2z"/>
				<polygon class="st14" points="488.2,165.2 530.7,160.4 530.4,161.9 487.8,166.7 				"/>
				<path class="st14" d="M487.9,166.7c-0.1,0.1-0.6-0.2-0.6-0.2c-0.1-0.1-0.5-0.3-0.5-0.4c0-0.1,0.6-0.5,0.6-0.5
					c0.1-0.1,0.6-0.4,0.7-0.4c0.1,0.1-0.1,0.6-0.1,0.7C488.1,166,488,166.6,487.9,166.7z"/>
				<path class="st14" d="M530.3,161.9c0.1,0.1,0.7-0.4,0.7-0.4c0.1-0.1,0.6-0.4,0.7-0.5c0-0.1-0.4-0.4-0.5-0.4
					c-0.1-0.1-0.5-0.3-0.6-0.2c-0.1,0.1-0.2,0.6-0.2,0.7C530.4,161.2,530.3,161.8,530.3,161.9z"/>
				<polygon class="st14" points="487.6,167.7 530.2,162.9 529.8,164.4 487.3,169.2 				"/>
				<path class="st14" d="M487.3,169.1c-0.1,0.1-0.6-0.2-0.6-0.2c-0.1-0.1-0.5-0.3-0.5-0.4c0-0.1,0.6-0.5,0.6-0.5
					c0.1-0.1,0.6-0.4,0.7-0.4c0.1,0.1-0.1,0.6-0.1,0.7C487.5,168.5,487.4,169.1,487.3,169.1z"/>
				<path class="st14" d="M529.8,164.4c0.1,0.1,0.7-0.4,0.7-0.4c0.1-0.1,0.6-0.4,0.7-0.5c0-0.1-0.4-0.4-0.5-0.4
					c-0.1-0.1-0.5-0.3-0.6-0.2s-0.2,0.6-0.2,0.7C529.8,163.7,529.7,164.3,529.8,164.4z"/>
				<polygon class="st14" points="487,169.9 524.7,165.7 524.4,167.2 486.7,171.4 				"/>
				<path class="st14" d="M486.7,171.3c-0.1,0.1-0.5-0.2-0.5-0.2c-0.1-0.1-0.4-0.3-0.4-0.4s0.5-0.5,0.6-0.5c0.1-0.1,0.6-0.4,0.6-0.3
					c0.1,0.1-0.1,0.6-0.1,0.7S486.8,171.3,486.7,171.3z"/>
				<path class="st14" d="M524.2,167.1c0.1,0.1,0.6-0.3,0.6-0.3c0.1-0.1,0.6-0.4,0.6-0.5c0-0.1-0.3-0.4-0.4-0.4
					c-0.1-0.1-0.4-0.3-0.5-0.2c-0.1,0.1-0.2,0.6-0.2,0.7C524.3,166.5,524.2,167.1,524.2,167.1z"/>
				<polygon class="st15" points="499.5,156.1 506.4,155.3 506.1,156.8 499.2,157.6 				"/>
				<path class="st15" d="M499.2,157.6c-0.1,0.1-0.4-0.2-0.4-0.2c-0.1-0.1-0.3-0.3-0.3-0.4c0-0.1,0.5-0.5,0.5-0.5
					c0.1-0.1,0.5-0.4,0.5-0.3c0.1,0.1-0.1,0.6-0.1,0.7C499.4,156.9,499.3,157.5,499.2,157.6z"/>
				<path class="st15" d="M506.1,156.8c0.1,0.1,0.5-0.3,0.5-0.3c0.1-0.1,0.5-0.4,0.5-0.5s-0.3-0.4-0.3-0.4c-0.1-0.1-0.3-0.3-0.4-0.2
					c-0.1,0.1-0.2,0.6-0.2,0.7S506.1,156.7,506.1,156.8z"/>
				<polygon class="st15" points="516.8,154.1 523.7,153.3 523.4,154.8 516.4,155.6 				"/>
				<path class="st15" d="M516.5,155.6c-0.1,0.1-0.4-0.2-0.4-0.2c-0.1-0.1-0.3-0.3-0.3-0.4c0-0.1,0.5-0.5,0.5-0.5
					c0.1-0.1,0.5-0.4,0.6-0.3s-0.1,0.6-0.1,0.7C516.7,154.9,516.5,155.5,516.5,155.6z"/>
				<path class="st15" d="M523.4,154.8c0.1,0.1,0.6-0.3,0.6-0.3c0.1-0.1,0.5-0.4,0.5-0.5c0-0.1-0.3-0.4-0.3-0.4
					c-0.1-0.1-0.3-0.3-0.4-0.2s-0.2,0.6-0.2,0.7C523.4,154.1,523.4,154.7,523.4,154.8z"/>
				<polygon class="st13" points="526.1,153 533.1,152.2 532.8,153.7 525.8,154.5 				"/>
				<path class="st13" d="M525.8,154.5c-0.1,0.1-0.4-0.2-0.4-0.2c-0.1-0.1-0.3-0.3-0.3-0.4c0-0.1,0.5-0.5,0.5-0.5
					c0.1-0.1,0.5-0.4,0.6-0.3c0.1,0.1-0.1,0.6-0.1,0.7C526,153.9,525.9,154.4,525.8,154.5z"/>
				<path class="st13" d="M532.8,153.7c0.1,0.1,0.6-0.3,0.6-0.3c0.1-0.1,0.5-0.4,0.5-0.5s-0.3-0.4-0.3-0.4c-0.1-0.1-0.3-0.3-0.4-0.2
					c-0.1,0.1-0.2,0.6-0.2,0.7C532.8,153.1,532.7,153.6,532.8,153.7z"/>
				<polygon class="st14" points="508.8,155 514.6,154.4 514.3,155.8 508.5,156.5 				"/>
				<path class="st14" d="M508.5,156.5c-0.1,0.1-0.4-0.2-0.4-0.2c-0.1-0.1-0.3-0.3-0.3-0.4c0-0.1,0.4-0.5,0.4-0.5
					c0.1-0.1,0.4-0.4,0.5-0.3c0.1,0.1-0.1,0.6-0.1,0.7C508.7,155.9,508.6,156.4,508.5,156.5z"/>
				<path class="st14" d="M514.3,155.8c0.1,0.1,0.5-0.3,0.5-0.3c0.1-0.1,0.4-0.4,0.4-0.5c0-0.1-0.3-0.4-0.3-0.4
					c-0.1-0.1-0.3-0.3-0.4-0.2c-0.1,0.1-0.2,0.6-0.2,0.7C514.3,155.2,514.2,155.8,514.3,155.8z"/>
				<polygon class="st15" points="491.7,177.3 503,176.1 502.6,177.6 491.3,178.8 				"/>
				<path class="st15" d="M491.3,178.8c-0.1,0.1-0.4-0.2-0.4-0.2c-0.1-0.1-0.3-0.3-0.3-0.4c0-0.1,0.5-0.5,0.5-0.5
					c0.1-0.1,0.5-0.4,0.5-0.3c0.1,0.1-0.1,0.6-0.1,0.7C491.6,178.1,491.4,178.7,491.3,178.8z"/>
				<path class="st15" d="M502.6,177.6c0.1,0.1,0.6-0.3,0.6-0.3c0.1-0.1,0.5-0.4,0.5-0.5s-0.3-0.4-0.3-0.4c-0.1-0.1-0.3-0.3-0.4-0.2
					c-0.1,0.1-0.2,0.6-0.2,0.7S502.6,177.5,502.6,177.6z"/>
				<polygon class="st15" points="491,180.7 502.3,179.5 502,181 490.7,182.2 				"/>
				<path class="st15" d="M490.7,182.2c-0.1,0.1-0.4-0.2-0.4-0.2c-0.1-0.1-0.3-0.3-0.3-0.4c0-0.1,0.5-0.5,0.5-0.5
					c0.1-0.1,0.5-0.4,0.5-0.3c0.1,0.1-0.1,0.6-0.1,0.7C490.9,181.6,490.8,182.1,490.7,182.2z"/>
				<path class="st15" d="M501.9,181c0.1,0.1,0.6-0.3,0.6-0.3c0.1-0.1,0.5-0.4,0.5-0.5c0-0.1-0.3-0.4-0.3-0.4
					c-0.1-0.1-0.3-0.3-0.4-0.2c-0.1,0.1-0.2,0.6-0.2,0.7C502,180.4,501.9,180.9,501.9,181z"/>
				<polygon class="st13" points="483.9,184.8 490.7,184.1 490.4,185.6 483.5,186.3 				"/>
				<path class="st13" d="M483.6,186.3c-0.1,0.1-0.4-0.2-0.4-0.2c-0.1-0.1-0.3-0.3-0.3-0.4s0.5-0.5,0.5-0.5c0.1-0.1,0.5-0.4,0.5-0.3
					c0.1,0.1-0.1,0.6-0.1,0.7C483.8,185.7,483.6,186.2,483.6,186.3z"/>
				<path class="st13" d="M490.4,185.6c0.1,0.1,0.5-0.3,0.5-0.3c0.1-0.1,0.5-0.4,0.5-0.5c0-0.1-0.3-0.4-0.3-0.4
					c-0.1-0.1-0.3-0.3-0.4-0.2c-0.1,0.1-0.2,0.6-0.2,0.7S490.4,185.5,490.4,185.6z"/>
				<polygon class="st15" points="493.7,183.6 511.8,181.7 511.5,183.2 493.4,185.1 				"/>
				<path class="st15" d="M493.4,185.1c-0.1,0.1-0.4-0.2-0.4-0.2c-0.1-0.1-0.3-0.3-0.3-0.4s0.5-0.5,0.5-0.5c0.1-0.1,0.5-0.4,0.5-0.3
					s-0.1,0.6-0.1,0.7C493.6,184.5,493.4,185,493.4,185.1z"/>
				<path class="st15" d="M511.3,183.2c0.1,0.1,0.6-0.3,0.6-0.3c0.1-0.1,0.5-0.4,0.5-0.5c0-0.1-0.3-0.4-0.3-0.4
					c-0.1-0.1-0.3-0.3-0.4-0.2c-0.1,0.1-0.2,0.6-0.2,0.7C511.4,182.6,511.3,183.1,511.3,183.2z"/>
				<polygon class="st13" points="483.3,187.6 490.1,186.8 489.7,188.3 482.9,189 				"/>
				<path class="st13" d="M483,189c-0.1,0.1-0.4-0.2-0.4-0.2c-0.1-0.1-0.3-0.3-0.3-0.4c0-0.1,0.5-0.5,0.5-0.5
					c0.1-0.1,0.5-0.4,0.5-0.3c0.1,0.1-0.1,0.6-0.1,0.7C483.1,188.4,483,189,483,189z"/>
				<path class="st13" d="M489.7,188.3c0.1,0.1,0.5-0.3,0.5-0.3c0.1-0.1,0.5-0.4,0.5-0.5s-0.3-0.4-0.3-0.4c-0.1-0.1-0.3-0.3-0.4-0.2
					c-0.1,0.1-0.2,0.6-0.2,0.7S489.8,188.2,489.7,188.3z"/>
				<polygon class="st14" points="505.7,175.7 524,173.7 523.6,175.2 505.4,177.2 				"/>
				<path class="st14" d="M505.4,177.2c-0.1,0.1-0.4-0.2-0.4-0.2c-0.1-0.1-0.3-0.3-0.3-0.4c0-0.1,0.5-0.5,0.5-0.5
					c0.1-0.1,0.5-0.4,0.6-0.3s-0.1,0.6-0.1,0.7S505.4,177.1,505.4,177.2z"/>
				<path class="st14" d="M523.4,175.2c0.1,0.1,0.6-0.3,0.6-0.3c0.1-0.1,0.5-0.4,0.5-0.5c0-0.1-0.3-0.4-0.3-0.4
					c-0.1-0.1-0.3-0.3-0.4-0.2c-0.1,0.1-0.2,0.6-0.2,0.7C523.5,174.6,523.4,175.1,523.4,175.2z"/>
				<polygon class="st14" points="505.2,179 523.5,177 523.2,178.5 504.9,180.5 				"/>
				<path class="st14" d="M504.9,180.5c-0.1,0.1-0.4-0.2-0.4-0.2c-0.1-0.1-0.3-0.3-0.3-0.4s0.5-0.5,0.5-0.5c0.1-0.1,0.5-0.4,0.6-0.3
					s-0.1,0.6-0.1,0.7C505.1,179.8,505,180.4,504.9,180.5z"/>
				<path class="st14" d="M523,178.5c0.1,0.1,0.6-0.3,0.6-0.3c0.1-0.1,0.5-0.4,0.5-0.5c0-0.1-0.3-0.4-0.3-0.4
					c-0.1-0.1-0.3-0.3-0.4-0.2c-0.1,0.1-0.2,0.6-0.2,0.7C523,177.9,523,178.5,523,178.5z"/>
				<polygon class="st14" points="514.5,181.5 521.4,180.8 521.1,182.3 514.1,183 				"/>
				<path class="st14" d="M514.2,183c-0.1,0.1-0.4-0.2-0.4-0.2c-0.1-0.1-0.3-0.3-0.3-0.4c0-0.1,0.5-0.5,0.5-0.5
					c0.1-0.1,0.5-0.4,0.6-0.3c0.1,0.1-0.1,0.6-0.1,0.7C514.4,182.4,514.2,182.9,514.2,183z"/>
				<path class="st14" d="M521.2,182.3c0.1,0.1,0.6-0.3,0.6-0.3c0.1-0.1,0.5-0.4,0.5-0.5c0-0.1-0.3-0.4-0.3-0.4
					c-0.1-0.1-0.3-0.3-0.4-0.2c-0.1,0.1-0.2,0.6-0.2,0.7C521.2,181.6,521.1,182.2,521.2,182.3z"/>
				<polygon class="st14" points="493.2,186.6 525.5,183.1 525.2,184.6 492.9,188.1 				"/>
				<path class="st14" d="M492.9,188.1c-0.1,0.1-0.4-0.2-0.4-0.2c-0.1-0.1-0.3-0.3-0.3-0.4c0-0.1,0.5-0.5,0.5-0.5
					c0.1-0.1,0.5-0.4,0.5-0.3c0.1,0.1-0.1,0.6-0.1,0.7C493.1,187.4,493,188,492.9,188.1z"/>
				<path class="st14" d="M525.1,184.6c0.1,0.1,0.5-0.3,0.6-0.3c0.1-0.1,0.5-0.4,0.5-0.5c0-0.1-0.3-0.4-0.3-0.4
					c-0.1-0.1-0.3-0.3-0.4-0.2c-0.1,0.1-0.2,0.7-0.2,0.7C525.2,184,525.1,184.6,525.1,184.6z"/>
				<polygon class="st13" points="482.9,190.7 489.7,190 489.4,191.5 482.5,192.2 				"/>
				<path class="st13" d="M482.6,192.1c-0.1,0.1-0.4-0.2-0.4-0.2c-0.1-0.1-0.3-0.3-0.3-0.4c0-0.1,0.5-0.5,0.5-0.5
					c0.1-0.1,0.5-0.4,0.5-0.3c0.1,0.1-0.1,0.6-0.1,0.7C482.8,191.5,482.6,192.1,482.6,192.1z"/>
				<path class="st13" d="M489.4,191.4c0.1,0.1,0.5-0.3,0.5-0.3c0.1-0.1,0.5-0.4,0.5-0.5c0-0.1-0.3-0.4-0.3-0.4
					c-0.1-0.1-0.3-0.3-0.4-0.2s-0.2,0.6-0.2,0.7C489.5,190.8,489.3,191.4,489.4,191.4z"/>
				<polygon class="st13" points="482.1,194.3 488.9,193.6 488.6,195.1 481.7,195.8 				"/>
				<path class="st13" d="M481.8,195.7c-0.1,0.1-0.4-0.2-0.4-0.2c-0.1-0.1-0.3-0.3-0.3-0.4s0.5-0.5,0.5-0.5c0.1-0.1,0.5-0.4,0.5-0.3
					s-0.1,0.6-0.1,0.7S481.8,195.7,481.8,195.7z"/>
				<path class="st13" d="M488.6,195c0.1,0.1,0.5-0.3,0.5-0.3c0.1-0.1,0.5-0.4,0.5-0.5c0-0.1-0.3-0.4-0.3-0.4
					c-0.1-0.1-0.3-0.3-0.4-0.2c-0.1,0.1-0.2,0.6-0.2,0.7C488.6,194.4,488.5,195,488.6,195z"/>
				<polygon class="st15" points="492.5,189.7 503.8,188.5 503.4,190 492.1,191.2 				"/>
				<path class="st15" d="M492.2,191.1c-0.1,0.1-0.4-0.2-0.4-0.2c-0.1-0.1-0.3-0.3-0.3-0.4c0-0.1,0.5-0.5,0.5-0.5
					c0.1-0.1,0.5-0.4,0.5-0.3c0.1,0.1-0.1,0.6-0.1,0.7C492.4,190.5,492.3,191.1,492.2,191.1z"/>
				<path class="st15" d="M503.5,189.9c0.1,0.1,0.6-0.3,0.6-0.3c0.1-0.1,0.5-0.4,0.5-0.5c0-0.1-0.3-0.4-0.3-0.4
					c-0.1-0.1-0.3-0.3-0.4-0.2c-0.1,0.1-0.2,0.6-0.2,0.7C503.5,189.3,503.4,189.9,503.5,189.9z"/>
				<polygon class="st15" points="491.8,193.1 503.1,192 502.8,193.5 491.5,194.6 				"/>
				<path class="st15" d="M491.5,194.6c-0.1,0.1-0.4-0.2-0.4-0.2c-0.1-0.1-0.3-0.3-0.3-0.4c0-0.1,0.5-0.5,0.5-0.5
					c0.1-0.1,0.5-0.4,0.5-0.3s-0.1,0.6-0.1,0.7C491.7,193.9,491.6,194.5,491.5,194.6z"/>
				<path class="st15" d="M502.8,193.4c0.1,0.1,0.6-0.3,0.6-0.3c0.1-0.1,0.5-0.4,0.5-0.5c0-0.1-0.3-0.4-0.3-0.4
					c-0.1-0.1-0.3-0.3-0.4-0.2c-0.1,0.1-0.2,0.6-0.2,0.7C502.9,192.7,502.8,193.4,502.8,193.4z"/>
				<polygon class="st14" points="506.5,188.1 524.9,186.2 524.5,187.7 506.2,189.6 				"/>
				<path class="st14" d="M506.3,189.6c-0.1,0.1-0.4-0.2-0.4-0.2c-0.1-0.1-0.3-0.3-0.3-0.4s0.5-0.5,0.5-0.5c0.1-0.1,0.5-0.4,0.6-0.3
					c0.1,0.1-0.1,0.6-0.1,0.7C506.4,188.9,506.3,189.6,506.3,189.6z"/>
				<path class="st14" d="M524.4,187.7c0.1,0.1,0.6-0.3,0.6-0.3c0.1-0.1,0.5-0.4,0.5-0.5s-0.3-0.4-0.3-0.4c-0.1-0.1-0.3-0.3-0.4-0.2
					c-0.1,0.1-0.2,0.7-0.2,0.7C524.5,187,524.3,187.7,524.4,187.7z"/>
				<polygon class="st14" points="506,191.4 524.4,189.5 524.1,191 505.7,192.9 				"/>
				<path class="st14" d="M505.8,192.9c-0.1,0.1-0.4-0.2-0.4-0.2c-0.1-0.1-0.3-0.3-0.3-0.4c0-0.1,0.5-0.5,0.5-0.5
					c0.1-0.1,0.5-0.4,0.6-0.3c0.1,0.1-0.1,0.6-0.1,0.7C506,192.2,505.8,192.9,505.8,192.9z"/>
				<path class="st14" d="M523.9,191c0.1,0.1,0.6-0.3,0.6-0.3c0.1-0.1,0.5-0.4,0.5-0.5s-0.3-0.4-0.3-0.4c-0.1-0.1-0.3-0.3-0.4-0.2
					c-0.1,0.1-0.2,0.7-0.2,0.7C524,190.3,523.9,191,523.9,191z"/>
				<polygon class="st13" points="481.5,197 488.3,196.3 488,197.8 481.1,198.5 				"/>
				<path class="st13" d="M481.1,198.5c-0.1,0.1-0.4-0.2-0.4-0.2c-0.1-0.1-0.3-0.3-0.3-0.4c0-0.1,0.5-0.5,0.5-0.5
					c0.1-0.1,0.5-0.4,0.5-0.3c0.1,0.1-0.1,0.6-0.1,0.7C481.3,197.8,481.2,198.4,481.1,198.5z"/>
				<path class="st13" d="M488,197.8c0.1,0.1,0.5-0.3,0.5-0.3c0.1-0.1,0.5-0.4,0.5-0.5s-0.3-0.4-0.3-0.4c-0.1-0.1-0.3-0.3-0.4-0.2
					s-0.2,0.6-0.2,0.7C488,197.1,487.9,197.7,488,197.8z"/>
				<polygon class="st13" points="480.7,200.6 487.5,199.9 487.1,201.4 480.3,202.1 				"/>
				<path class="st13" d="M480.3,202.1c-0.1,0.1-0.4-0.2-0.4-0.2c-0.1-0.1-0.3-0.3-0.3-0.4c0-0.1,0.5-0.5,0.5-0.5
					c0.1-0.1,0.5-0.4,0.5-0.3s-0.1,0.6-0.1,0.7S480.4,202,480.3,202.1z"/>
				<path class="st13" d="M487.1,201.4c0.1,0.1,0.5-0.3,0.5-0.3c0.1-0.1,0.5-0.4,0.5-0.5c0-0.1-0.3-0.4-0.3-0.4
					c-0.1-0.1-0.3-0.3-0.4-0.2c-0.1,0.1-0.2,0.6-0.2,0.7C487.2,200.7,487.1,201.3,487.1,201.4z"/>
				<polygon class="st15" points="491,196 502.4,194.8 502,196.3 490.7,197.5 				"/>
				<path class="st15" d="M490.8,197.5c-0.1,0.1-0.4-0.2-0.4-0.2c-0.1-0.1-0.3-0.3-0.3-0.4c0-0.1,0.5-0.5,0.5-0.5
					c0.1-0.1,0.5-0.4,0.5-0.3c0.1,0.1-0.1,0.6-0.1,0.7S490.9,197.4,490.8,197.5z"/>
				<path class="st15" d="M502,196.3c0.1,0.1,0.6-0.3,0.6-0.3c0.1-0.1,0.5-0.4,0.5-0.5c0-0.1-0.3-0.4-0.3-0.4
					c-0.1-0.1-0.3-0.3-0.4-0.2c-0.1,0.1-0.2,0.6-0.2,0.7C502.1,195.7,502,196.2,502,196.3z"/>
				<polygon class="st15" points="490.4,199.4 501.7,198.3 501.4,199.8 490.1,200.9 				"/>
				<path class="st15" d="M490.1,200.9c-0.1,0.1-0.4-0.2-0.4-0.2c-0.1-0.1-0.3-0.3-0.3-0.4c0-0.1,0.5-0.5,0.5-0.5
					c0.1-0.1,0.5-0.4,0.5-0.3c0.1,0.1-0.1,0.6-0.1,0.7S490.2,200.9,490.1,200.9z"/>
				<path class="st15" d="M501.4,199.8c0.1,0.1,0.6-0.3,0.6-0.3c0.1-0.1,0.5-0.4,0.5-0.5s-0.3-0.4-0.3-0.4c-0.1-0.1-0.3-0.3-0.4-0.2
					c-0.1,0.1-0.2,0.6-0.2,0.7C501.5,199.1,501.3,199.7,501.4,199.8z"/>
				<polygon class="st14" points="505.1,194.5 523.4,192.6 523.1,194.1 504.8,196 				"/>
				<path class="st14" d="M504.8,196c-0.1,0.1-0.4-0.2-0.4-0.2c-0.1-0.1-0.3-0.3-0.3-0.4c0-0.1,0.5-0.5,0.5-0.5
					c0.1-0.1,0.5-0.4,0.6-0.3c0.1,0.1-0.1,0.6-0.1,0.7C505,195.3,504.9,195.9,504.8,196z"/>
				<path class="st14" d="M523,194.1c0.1,0.1,0.6-0.3,0.6-0.3c0.1-0.1,0.5-0.4,0.5-0.5c0-0.1-0.3-0.4-0.3-0.4
					c-0.1-0.1-0.3-0.3-0.4-0.2c-0.1,0.1-0.2,0.7-0.2,0.7S522.9,194,523,194.1z"/>
				<polygon class="st14" points="504.6,197.8 523,195.9 522.6,197.4 504.3,199.3 				"/>
				<path class="st14" d="M504.4,199.3c-0.1,0.1-0.4-0.2-0.4-0.2c-0.1-0.1-0.3-0.3-0.3-0.4c0-0.1,0.5-0.5,0.5-0.5
					c0.1-0.1,0.5-0.4,0.6-0.3s-0.1,0.6-0.1,0.7S504.4,199.2,504.4,199.3z"/>
				<path class="st14" d="M522.5,197.4c0.1,0.1,0.6-0.3,0.6-0.3c0.1-0.1,0.5-0.4,0.5-0.5c0-0.1-0.3-0.4-0.3-0.4
					c-0.1-0.1-0.3-0.3-0.4-0.2s-0.2,0.7-0.2,0.7S522.4,197.4,522.5,197.4z"/>
				<polygon class="st13" points="476,205 482.8,204.4 482.5,205.8 475.7,206.5 				"/>
				<path class="st13" d="M475.8,206.5c-0.1,0.1-0.4-0.2-0.4-0.2c-0.1-0.1-0.3-0.3-0.3-0.4s0.5-0.5,0.5-0.5c0.1-0.1,0.5-0.4,0.5-0.3
					c0.1,0.1-0.1,0.6-0.1,0.7C475.9,205.8,475.8,206.5,475.8,206.5z"/>
				<path class="st13" d="M482.5,205.8c0.1,0.1,0.5-0.3,0.5-0.3c0.1-0.1,0.5-0.4,0.5-0.5c0-0.1-0.3-0.4-0.3-0.4
					c-0.1-0.1-0.3-0.3-0.4-0.2c-0.1,0.1-0.2,0.6-0.2,0.7S482.5,205.8,482.5,205.8z"/>
				<polygon class="st13" points="475.2,208.6 482,208 481.7,209.5 474.9,210.1 				"/>
				<path class="st13" d="M475,210.1c-0.1,0.1-0.4-0.2-0.4-0.2c-0.1-0.1-0.3-0.3-0.3-0.4c0-0.1,0.5-0.5,0.5-0.5
					c0.1-0.1,0.5-0.4,0.5-0.3c0.1,0.1-0.1,0.6-0.1,0.7C475.1,209.4,475,210.1,475,210.1z"/>
				<path class="st13" d="M481.7,209.4c0.1,0.1,0.5-0.3,0.5-0.3c0.1-0.1,0.5-0.4,0.5-0.5s-0.3-0.4-0.3-0.4c-0.1-0.1-0.3-0.3-0.4-0.2
					c-0.1,0.1-0.2,0.6-0.2,0.7S481.7,209.4,481.7,209.4z"/>
				<polygon class="st15" points="485.7,204.1 496.9,202.9 496.6,204.4 485.3,205.6 				"/>
				<path class="st15" d="M485.3,205.5c-0.1,0.1-0.4-0.2-0.4-0.2c-0.1-0.1-0.3-0.3-0.3-0.4s0.5-0.5,0.5-0.5c0.1-0.1,0.5-0.4,0.5-0.3
					c0.1,0.1-0.1,0.6-0.1,0.7C485.5,204.8,485.4,205.5,485.3,205.5z"/>
				<path class="st15" d="M496.6,204.4c0.1,0.1,0.6-0.3,0.6-0.3c0.1-0.1,0.5-0.4,0.5-0.5c0-0.1-0.3-0.4-0.3-0.4
					c-0.1-0.1-0.3-0.3-0.4-0.2s-0.2,0.6-0.2,0.7S496.6,204.4,496.6,204.4z"/>
				<polygon class="st15" points="485,207.5 496.3,206.4 496,207.9 484.7,209 				"/>
				<path class="st15" d="M484.7,209c-0.1,0.1-0.4-0.2-0.4-0.2c-0.1-0.1-0.3-0.3-0.3-0.4s0.5-0.5,0.5-0.5c0.1-0.1,0.5-0.4,0.5-0.3
					s-0.1,0.6-0.1,0.7C484.9,208.3,484.8,208.9,484.7,209z"/>
				<path class="st15" d="M495.9,207.8c0.1,0.1,0.6-0.3,0.6-0.3c0.1-0.1,0.5-0.4,0.5-0.5c0-0.1-0.3-0.4-0.3-0.4
					c-0.1-0.1-0.3-0.3-0.4-0.2s-0.2,0.6-0.2,0.7C496,207.2,495.8,207.8,495.9,207.8z"/>
				<polygon class="st14" points="499.7,202.6 518,200.8 517.6,202.3 499.3,204.1 				"/>
				<path class="st14" d="M499.4,204c-0.1,0.1-0.4-0.2-0.4-0.2c-0.1-0.1-0.3-0.3-0.3-0.4c0-0.1,0.5-0.5,0.5-0.5
					c0.1-0.1,0.5-0.4,0.6-0.3c0.1,0.1-0.1,0.6-0.1,0.7C499.6,203.4,499.4,204,499.4,204z"/>
				<path class="st14" d="M517.4,202.2c0.1,0.1,0.6-0.3,0.6-0.3c0.1-0.1,0.5-0.4,0.5-0.5c0-0.1-0.3-0.4-0.3-0.4
					c-0.1-0.1-0.3-0.3-0.4-0.2c-0.1,0.1-0.2,0.7-0.2,0.7C517.5,201.6,517.4,202.2,517.4,202.2z"/>
				<polygon class="st14" points="499.2,205.9 517.5,204.1 517.2,205.6 498.9,207.4 				"/>
				<path class="st14" d="M498.9,207.3c-0.1,0.1-0.4-0.2-0.4-0.2c-0.1-0.1-0.3-0.3-0.3-0.4s0.5-0.5,0.5-0.5c0.1-0.1,0.5-0.4,0.6-0.3
					c0.1,0.1-0.1,0.6-0.1,0.7C499.1,206.7,499,207.3,498.9,207.3z"/>
				<path class="st14" d="M517,205.5c0.1,0.1,0.6-0.3,0.6-0.3c0.1-0.1,0.5-0.4,0.5-0.5s-0.3-0.4-0.3-0.4c-0.1-0.1-0.3-0.3-0.4-0.2
					c-0.1,0.1-0.2,0.7-0.2,0.7C517,204.9,517,205.5,517,205.5z"/>
				<polygon class="st13" points="477.8,211.6 484.7,210.9 484.3,212.4 477.5,213.1 				"/>
				<path class="st13" d="M477.6,213c-0.1,0.1-0.4-0.2-0.4-0.2c-0.1-0.1-0.3-0.3-0.3-0.4c0-0.1,0.5-0.5,0.5-0.5
					c0.1-0.1,0.5-0.4,0.5-0.3c0.1,0.1-0.1,0.6-0.1,0.7C477.7,212.3,477.6,213,477.6,213z"/>
				<path class="st13" d="M484.3,212.3c0.1,0.1,0.5-0.3,0.5-0.3c0.1-0.1,0.5-0.4,0.5-0.5c0-0.1-0.3-0.4-0.3-0.4
					c-0.1-0.1-0.3-0.3-0.4-0.2s-0.2,0.6-0.2,0.7C484.4,211.7,484.3,212.3,484.3,212.3z"/>
				<polygon class="st15" points="487.7,210.5 505.8,208.7 505.5,210.2 487.3,212 				"/>
				<path class="st15" d="M487.3,211.9c-0.1,0.1-0.4-0.2-0.4-0.2c-0.1-0.1-0.3-0.3-0.3-0.4c0-0.1,0.5-0.5,0.5-0.5
					c0.1-0.1,0.5-0.4,0.5-0.3c0.1,0.1-0.1,0.6-0.1,0.7C487.6,211.2,487.4,211.9,487.3,211.9z"/>
				<path class="st15" d="M505.3,210.1c0.1,0.1,0.6-0.3,0.6-0.3c0.1-0.1,0.5-0.4,0.5-0.5s-0.3-0.4-0.3-0.4c-0.1-0.1-0.3-0.3-0.4-0.2
					c-0.1,0.1-0.2,0.6-0.2,0.7C505.4,209.5,505.2,210.1,505.3,210.1z"/>
				<polygon class="st13" points="477.2,214.3 484.1,213.6 483.7,215.1 476.9,215.7 				"/>
				<path class="st13" d="M477,215.7c-0.1,0.1-0.4-0.2-0.4-0.2c-0.1-0.1-0.3-0.3-0.3-0.4c0-0.1,0.5-0.5,0.5-0.5
					c0.1-0.1,0.5-0.4,0.5-0.3c0.1,0.1-0.1,0.6-0.1,0.7C477.1,215.1,477,215.7,477,215.7z"/>
				<path class="st13" d="M483.7,215.1c0.1,0.1,0.5-0.3,0.5-0.3c0.1-0.1,0.5-0.4,0.5-0.5c0-0.1-0.3-0.4-0.3-0.4
					c-0.1-0.1-0.3-0.3-0.4-0.2c-0.1,0.1-0.2,0.6-0.2,0.7C483.8,214.4,483.7,215.1,483.7,215.1z"/>
				<polygon class="st14" points="508.5,208.6 515.4,207.9 515.1,209.4 508.1,210.1 				"/>
				<path class="st14" d="M508.2,210c-0.1,0.1-0.4-0.2-0.4-0.2c-0.1-0.1-0.3-0.3-0.3-0.4c0-0.1,0.5-0.5,0.5-0.5
					c0.1-0.1,0.5-0.4,0.6-0.3c0.1,0.1-0.1,0.6-0.1,0.7C508.4,209.3,508.2,210,508.2,210z"/>
				<path class="st14" d="M515.2,209.3c0.1,0.1,0.6-0.3,0.6-0.3c0.1-0.1,0.5-0.4,0.5-0.5c0-0.1-0.3-0.4-0.3-0.4
					c-0.1-0.1-0.3-0.3-0.4-0.2c-0.1,0.1-0.2,0.7-0.2,0.7C515.2,208.7,515.1,209.3,515.2,209.3z"/>
				<polygon class="st14" points="487.2,213.4 519.5,210.2 519.2,211.7 486.9,214.8 				"/>
				<path class="st14" d="M486.9,214.8c-0.1,0.1-0.4-0.2-0.4-0.2c-0.1-0.1-0.3-0.3-0.3-0.4s0.5-0.5,0.5-0.5c0.1-0.1,0.5-0.4,0.5-0.3
					c0.1,0.1-0.1,0.6-0.1,0.7C487.1,214.2,486.9,214.8,486.9,214.8z"/>
				<path class="st14" d="M519.1,211.7c0.1,0.1,0.5-0.3,0.6-0.3c0.1-0.1,0.5-0.4,0.5-0.5c0-0.1-0.3-0.4-0.3-0.4
					c-0.1-0.1-0.3-0.3-0.4-0.2c-0.1,0.1-0.2,0.7-0.2,0.7C519.2,211.1,519.1,211.7,519.1,211.7z"/>
				<polygon class="st13" points="476.5,217.4 483.3,216.8 483,218.3 476.2,218.9 				"/>
				<path class="st13" d="M476.3,218.9c-0.1,0.1-0.4-0.2-0.4-0.2c-0.1-0.1-0.3-0.3-0.3-0.4c0-0.1,0.5-0.5,0.5-0.5
					c0.1-0.1,0.5-0.4,0.5-0.3c0.1,0.1-0.1,0.6-0.1,0.7C476.4,218.3,476.3,218.9,476.3,218.9z"/>
				<path class="st13" d="M483,218.3c0.1,0.1,0.5-0.3,0.5-0.3c0.1-0.1,0.5-0.4,0.5-0.5s-0.3-0.4-0.3-0.4c-0.1-0.1-0.3-0.3-0.4-0.2
					s-0.2,0.6-0.2,0.7S483,218.2,483,218.3z"/>
				<polygon class="st15" points="486.3,216.4 504.5,214.6 504.2,216.1 486,217.8 				"/>
				<path class="st15" d="M486,217.8c-0.1,0.1-0.4-0.2-0.4-0.2c-0.1-0.1-0.3-0.3-0.3-0.4s0.5-0.5,0.5-0.5c0.1-0.1,0.5-0.4,0.5-0.3
					s-0.1,0.6-0.1,0.7C486.2,217.2,486.1,217.8,486,217.8z"/>
				<path class="st15" d="M504,216.1c0.1,0.1,0.6-0.3,0.6-0.3c0.1-0.1,0.5-0.4,0.5-0.5c0-0.1-0.3-0.4-0.3-0.4
					c-0.1-0.1-0.3-0.3-0.4-0.2c-0.1,0.1-0.2,0.7-0.2,0.7C504,215.5,503.9,216.1,504,216.1z"/>
				<polygon class="st14" points="507.1,214.5 514.1,213.8 513.8,215.3 506.8,216 				"/>
				<path class="st14" d="M506.9,216c-0.1,0.1-0.4-0.2-0.4-0.2c-0.1-0.1-0.3-0.3-0.3-0.4s0.5-0.5,0.5-0.5c0.1-0.1,0.5-0.4,0.6-0.3
					c0.1,0.1-0.1,0.6-0.1,0.7C507.1,215.3,506.9,215.9,506.9,216z"/>
				<path class="st14" d="M513.8,215.3c0.1,0.1,0.6-0.3,0.6-0.3c0.1-0.1,0.5-0.4,0.5-0.5s-0.3-0.4-0.3-0.4c-0.1-0.1-0.3-0.3-0.4-0.2
					c-0.1,0.1-0.2,0.7-0.2,0.7S513.8,215.3,513.8,215.3z"/>
				<polygon class="st13" points="475.6,220.5 482.4,219.9 482,221.4 475.2,222 				"/>
				<path class="st13" d="M475.2,222c-0.1,0.1-0.4-0.2-0.4-0.2c-0.1-0.1-0.3-0.3-0.3-0.4s0.5-0.5,0.5-0.5c0.1-0.1,0.5-0.4,0.5-0.3
					c0.1,0.1-0.1,0.6-0.1,0.7C475.4,221.3,475.3,221.9,475.2,222z"/>
				<path class="st13" d="M482,221.4c0.1,0.1,0.5-0.3,0.5-0.3c0.1-0.1,0.5-0.4,0.5-0.5c0-0.1-0.3-0.4-0.3-0.4
					c-0.1-0.1-0.3-0.3-0.4-0.2s-0.2,0.6-0.2,0.7C482.1,220.7,482.1,221.3,482,221.4z"/>
				<polygon class="st14" points="498.7,218.3 518.4,216.4 518.1,217.9 498.3,219.8 				"/>
				<path class="st14" d="M498.3,219.8c-0.1,0.1-0.4-0.2-0.4-0.2c-0.1-0.1-0.3-0.3-0.3-0.4c0-0.1,0.5-0.5,0.5-0.5
					c0.1-0.1,0.5-0.4,0.6-0.3c0.1,0.1-0.1,0.6-0.1,0.7C498.6,219.1,498.4,219.7,498.3,219.8z"/>
				<path class="st14" d="M518,217.9c0.1,0.1,0.6-0.3,0.6-0.3c0.1-0.1,0.5-0.4,0.5-0.5s-0.3-0.4-0.3-0.4c-0.1-0.1-0.3-0.3-0.4-0.2
					c-0.1,0.1-0.2,0.7-0.2,0.7C518.1,217.2,518,217.9,518,217.9z"/>
				<polygon class="st14" points="475.1,223.1 517.7,219.1 517.4,220.6 474.8,224.6 				"/>
				<path class="st14" d="M474.9,224.5c-0.1,0.1-0.6-0.2-0.6-0.2c-0.1-0.1-0.5-0.3-0.5-0.4c0-0.1,0.6-0.5,0.6-0.5
					c0.1-0.1,0.6-0.4,0.7-0.3c0.1,0.1-0.1,0.6-0.1,0.7C475.1,223.9,474.9,224.5,474.9,224.5z"/>
				<path class="st14" d="M517.3,220.5c0.1,0.1,0.7-0.3,0.7-0.3c0.1-0.1,0.6-0.4,0.7-0.5c0-0.1-0.4-0.4-0.5-0.4
					c-0.1-0.1-0.5-0.3-0.6-0.2s-0.2,0.7-0.2,0.7C517.4,219.9,517.2,220.6,517.3,220.5z"/>
				<polygon class="st14" points="474.5,225.6 517.1,221.6 516.8,223.1 474.2,227.1 				"/>
				<path class="st14" d="M474.3,227c-0.1,0.1-0.6-0.2-0.6-0.2c-0.1-0.1-0.5-0.3-0.5-0.4s0.6-0.5,0.6-0.5c0.1-0.1,0.6-0.4,0.7-0.3
					c0.1,0.1-0.1,0.6-0.1,0.7C474.5,226.4,474.4,227,474.3,227z"/>
				<path class="st14" d="M516.7,223.1c0.1,0.1,0.7-0.3,0.7-0.3c0.1-0.1,0.6-0.4,0.7-0.5c0-0.1-0.4-0.4-0.5-0.4
					c-0.1-0.1-0.5-0.3-0.6-0.2c-0.1,0.1-0.2,0.7-0.2,0.7C516.8,222.4,516.7,223.1,516.7,223.1z"/>
				<polygon class="st15" points="485.6,219.6 495.7,218.6 495.3,220.1 485.3,221 				"/>
				<path class="st15" d="M485.4,221c-0.1,0.1-0.6-0.2-0.7-0.2c-0.1-0.1-0.5-0.3-0.5-0.4c0-0.1,0.6-0.5,0.7-0.5
					c0.1-0.1,0.7-0.4,0.8-0.4c0.1,0.1-0.1,0.6-0.1,0.7C485.6,220.3,485.4,221,485.4,221z"/>
				<path class="st15" d="M495.3,220.1c0.1,0.1,0.8-0.4,0.8-0.4c0.1-0.1,0.7-0.4,0.7-0.5c0-0.1-0.5-0.4-0.5-0.4
					c-0.1-0.1-0.5-0.3-0.6-0.2c-0.1,0.1-0.2,0.6-0.2,0.7C495.4,219.4,495.3,220,495.3,220.1z"/>
				<polygon class="st13" points="487.5,226.8 494.4,226.1 494.1,227.6 487.2,228.3 				"/>
				<path class="st13" d="M494.1,227.6c0.1,0.1,0.6-0.3,0.6-0.3c0.1-0.1,0.5-0.4,0.5-0.5c0-0.1-0.3-0.4-0.3-0.4
					c-0.1-0.1-0.3-0.3-0.4-0.2c-0.1,0.1-0.2,0.6-0.2,0.7S494,227.6,494.1,227.6z"/>
				<path class="st13" d="M487.2,228.3c-0.1,0.1-0.4-0.2-0.4-0.2c-0.1-0.1-0.3-0.3-0.3-0.4s0.5-0.5,0.5-0.5c0.1-0.1,0.5-0.4,0.5-0.3
					c0.1,0.1-0.1,0.6-0.1,0.7C487.4,227.6,487.3,228.2,487.2,228.3z"/>
				<polygon class="st15" points="474.3,228 484.3,227.1 483.9,228.6 473.9,229.5 				"/>
				<path class="st15" d="M483.9,228.6c0.1,0.1,0.8-0.3,0.8-0.4c0.1-0.1,0.7-0.4,0.7-0.5c0-0.1-0.5-0.4-0.5-0.4
					c-0.1-0.1-0.5-0.3-0.6-0.2c-0.1,0.1-0.2,0.6-0.2,0.7C484,227.9,483.9,228.5,483.9,228.6z"/>
				<path class="st15" d="M474,229.5c-0.1,0.1-0.6-0.2-0.7-0.2c-0.1-0.1-0.5-0.3-0.5-0.4s0.6-0.5,0.7-0.5c0.1-0.1,0.7-0.4,0.8-0.3
					c0.1,0.1-0.1,0.6-0.1,0.7C474.2,228.8,474.1,229.4,474,229.5z"/>
			</g>
			<g>
				<path id="path951" class="st16" d="M218.8,116.3l-5.6,22.3l-16.4-0.5l15.5,4.2l6.4-3.5l5-20.2l0,0l0,0l0.1-0.4L218.8,116.3z"/>
				<path id="path887" class="st16" d="M211.8,120.9l-6.7,6.6l-2.5-2.2l-1.4,0.7l2.3,3.1l-4.1,4l1.2,0.3l3.8-3.1l0,0l3.8,5.1
					l3.5-1.9l2.9-11.5L211.8,120.9z M210.7,125.1l-1.5,6.2l-2.8-2.6L210.7,125.1z"/>
				<g>
					<polygon class="st16" points="240.5,138.4 231.3,139.6 233.2,132.1 242.4,130.9 					"/>
					<polygon class="st16" points="258.3,136 249,137.2 250.8,129.7 260.2,128.4 					"/>
					<polygon class="st16" points="276.3,133.5 266.9,134.8 268.7,127.3 278.2,126 					"/>
					<polygon class="st16" points="294.6,131.1 285,132.4 286.8,124.8 296.4,123.4 					"/>
					<polygon class="st16" points="313.1,128.6 303.4,129.9 305.2,122.2 314.9,120.9 					"/>
					<polygon class="st16" points="331.8,126.1 322,127.4 323.8,119.7 333.7,118.3 					"/>
					<polygon class="st16" points="350.9,123.5 340.9,124.8 342.7,117.1 352.7,115.7 					"/>
				</g>
				<g>
					<polygon class="st16" points="285.3,114 236,121 237.8,113.5 287.1,106.4 					"/>
					<polygon class="st16" points="325.7,108.2 296.6,112.4 298.4,104.8 327.6,100.6 					"/>
				</g>
			</g>
			<polygon class="st14" points="609.2,142.8 555.2,149.1 556.6,142.8 610.6,136.4 			"/>
			<polygon class="st14" points="659.6,147.6 552.9,159.7 554,154.4 660.7,142.1 			"/>
			<polygon class="st14" points="628.8,162.8 550.3,171.4 551.7,165 630.2,156.3 			"/>
			<polygon class="st14" points="616.2,175.9 547.7,183.1 549.1,176.7 617.6,169.4 			"/>
			<polygon class="st14" points="639.4,185.3 545.1,194.9 546.3,189.5 640.6,179.8 			"/>
			<polygon class="st14" points="621.1,198.9 542.6,206.6 543.7,201.3 622.3,193.4 			"/>
			<polygon class="st14" points="592.7,214.5 539.7,219.5 541.1,213 594.2,208 			"/>
			<polygon class="st14" points="638.3,222.2 537.1,231.3 538.6,224.8 639.7,215.5 			"/>
		</g>
		<polygon class="st17" points="645.8,445.2 103.7,453.4 194.4,110.4 730.3,28.5 		"/>
	</g>
	<g class="st0">
		<path d="M248.7,439.2h17.8v52.9h-17.8V439.2z"/>
		<path d="M317.7,492.1l-0.2-24.1l-11.5,19.3h-7.9l-11.5-18.5v23.3h-16.2v-52.9h14.7l17.2,28.2l16.8-28.2h14.7l0.2,52.9H317.7z"/>
		<path d="M376.1,441.6c3.6,1.6,6.4,3.9,8.4,7c2,3,2.9,6.5,2.9,10.6s-1,7.6-2.9,10.6c-2,3-4.8,5.3-8.4,7s-7.9,2.4-12.8,2.4h-7.6v13
			h-17.8v-52.9h25.5C368.2,439.2,372.5,440,376.1,441.6z M367.7,463.7c1.2-1.1,1.8-2.6,1.8-4.6c0-2-0.6-3.5-1.8-4.6s-3-1.6-5.4-1.6
			h-6.5v12.4h6.5C364.6,465.3,366.5,464.8,367.7,463.7z"/>
		<path d="M401.7,489.7c-4.5-2.4-8.1-5.7-10.7-9.9c-2.6-4.2-3.9-9-3.9-14.2s1.3-10,3.9-14.2s6.1-7.5,10.7-9.9
			c4.5-2.4,9.6-3.6,15.3-3.6c5.7,0,10.8,1.2,15.3,3.6c4.5,2.4,8.1,5.7,10.7,9.9c2.6,4.2,3.9,9,3.9,14.2s-1.3,10-3.9,14.2
			c-2.6,4.2-6.1,7.5-10.7,9.9c-4.5,2.4-9.6,3.6-15.3,3.6C411.4,493.3,406.3,492.1,401.7,489.7z M423.1,477.2
			c1.8-1.1,3.2-2.6,4.3-4.6c1.1-2,1.6-4.3,1.6-7c0-2.7-0.5-5-1.6-7c-1.1-2-2.5-3.5-4.3-4.6c-1.8-1.1-3.8-1.6-6-1.6
			c-2.2,0-4.2,0.5-6,1.6c-1.8,1.1-3.2,2.6-4.3,4.6c-1.1,2-1.6,4.3-1.6,7c0,2.7,0.5,5,1.6,7c1.1,2,2.5,3.5,4.3,4.6
			c1.8,1.1,3.8,1.6,6,1.6C419.3,478.8,421.3,478.3,423.1,477.2z"/>
		<path d="M471.4,478.8h-4.8v13.3h-17.8v-52.9h25.5c4.9,0,9.1,0.8,12.8,2.4c3.6,1.6,6.4,3.9,8.4,7c2,3,2.9,6.5,2.9,10.6
			c0,3.8-0.9,7.1-2.6,9.9c-1.7,2.8-4.2,5.1-7.4,6.7l11.1,16.3h-19L471.4,478.8z M478.5,454.5c-1.2-1.1-3-1.6-5.4-1.6h-6.5v12.4h6.5
			c2.4,0,4.2-0.5,5.4-1.6c1.2-1.1,1.8-2.6,1.8-4.6C480.3,457.1,479.7,455.6,478.5,454.5z"/>
		<path d="M511.1,453h-15.5v-13.8h48.8V453h-15.5v39.1h-17.8V453z"/>
		<path d="M577.7,482.8h-20.1l-3.6,9.2h-18.1l23.1-52.9h17.5l23.1,52.9h-18.4L577.7,482.8z M572.8,470l-5.1-13.3l-5.1,13.3H572.8z"
			/>
		<path d="M620.6,478.8h-4.8v13.3h-17.8v-52.9h25.5c4.9,0,9.1,0.8,12.8,2.4c3.6,1.6,6.4,3.9,8.4,7c2,3,2.9,6.5,2.9,10.6
			c0,3.8-0.9,7.1-2.6,9.9c-1.7,2.8-4.2,5.1-7.4,6.7l11.1,16.3h-19L620.6,478.8z M627.7,454.5c-1.2-1.1-3-1.6-5.4-1.6h-6.5v12.4h6.5
			c2.4,0,4.2-0.5,5.4-1.6c1.2-1.1,1.8-2.6,1.8-4.6C629.5,457.1,628.9,455.6,627.7,454.5z"/>
		<path d="M156.9,563.4h-20.1l-3.6,9.2h-18.1l23.1-52.9h17.5l23.1,52.9h-18.4L156.9,563.4z M152,550.5l-5.1-13.3l-5.1,13.3H152z"/>
		<path d="M199.8,559.3h-4.8v13.3h-17.8v-52.9h25.5c4.9,0,9.1,0.8,12.8,2.4c3.6,1.6,6.4,3.9,8.4,7s2.9,6.5,2.9,10.6
			c0,3.8-0.9,7.1-2.6,9.9c-1.7,2.8-4.2,5.1-7.4,6.7l11.1,16.3h-19L199.8,559.3z M206.9,535.1c-1.2-1.1-3-1.6-5.4-1.6h-6.5v12.4h6.5
			c2.4,0,4.2-0.5,5.4-1.6c1.2-1.1,1.8-2.6,1.8-4.6C208.7,537.7,208.1,536.2,206.9,535.1z"/>
		<path d="M240.9,570.3c-4.5-2.3-8-5.6-10.5-9.8c-2.5-4.2-3.8-9-3.8-14.3c0-5.3,1.3-10.1,3.8-14.3c2.5-4.2,6.1-7.5,10.5-9.8
			c4.5-2.3,9.5-3.5,15.1-3.5c5.1,0,9.7,0.9,13.8,2.7c4,1.8,7.4,4.4,10,7.9l-11.3,10c-3.3-4.1-7.1-6.2-11.6-6.2c-3.7,0-6.7,1.2-9,3.6
			c-2.3,2.4-3.4,5.6-3.4,9.6c0,4,1.1,7.2,3.4,9.6c2.3,2.4,5.3,3.6,9,3.6c4.4,0,8.3-2.1,11.6-6.2l11.3,10c-2.6,3.4-5.9,6-10,7.9
			c-4,1.8-8.6,2.7-13.8,2.7C250.5,573.8,245.4,572.6,240.9,570.3z"/>
		<path d="M332.4,519.7v52.9h-17.8v-19.5h-16.5v19.5h-17.8v-52.9h17.8v18.7h16.5v-18.7H332.4z"/>
		<path d="M336.3,519.7h17.8v52.9h-17.8V519.7z"/>
		<path d="M414.6,519.7l-22.4,52.9h-17.5l-22.4-52.9h19.2l12.6,30.9l12.9-30.9H414.6z"/>
		<path d="M423.3,570.3c-4.5-2.4-8.1-5.7-10.7-9.9c-2.6-4.2-3.9-9-3.9-14.2s1.3-10,3.9-14.2s6.1-7.5,10.7-9.9
			c4.5-2.4,9.6-3.6,15.3-3.6c5.7,0,10.8,1.2,15.3,3.6c4.5,2.4,8.1,5.7,10.7,9.9c2.6,4.2,3.9,9,3.9,14.2s-1.3,10-3.9,14.2
			c-2.6,4.2-6.1,7.5-10.7,9.9c-4.5,2.4-9.6,3.6-15.3,3.6C432.9,573.8,427.8,572.6,423.3,570.3z M444.6,557.8
			c1.8-1.1,3.2-2.6,4.3-4.6c1.1-2,1.6-4.3,1.6-7c0-2.7-0.5-5-1.6-7c-1.1-2-2.5-3.5-4.3-4.6c-1.8-1.1-3.8-1.6-6-1.6
			c-2.2,0-4.2,0.5-6,1.6c-1.8,1.1-3.2,2.6-4.3,4.6c-1.1,2-1.6,4.3-1.6,7c0,2.7,0.5,5,1.6,7c1.1,2,2.5,3.5,4.3,4.6
			c1.8,1.1,3.8,1.6,6,1.6C440.8,559.4,442.8,558.8,444.6,557.8z"/>
		<path d="M537.8,550c1.7,2.2,2.6,4.9,2.6,8c0,4.6-1.9,8.2-5.7,10.8s-9.4,3.8-16.6,3.8h-29.8v-52.9h28.3c7.1,0,12.4,1.3,16,3.8
			c3.6,2.5,5.4,5.9,5.4,10c0,2.5-0.6,4.7-1.9,6.6c-1.2,2-3.1,3.6-5.5,4.8C533.7,546.1,536.1,547.8,537.8,550z M505.8,532.2v7.9h8.3
			c3.9,0,5.8-1.3,5.8-3.9c0-2.6-1.9-3.9-5.8-3.9H505.8z M522.4,556c0-2.8-2-4.2-5.9-4.2h-10.7v8.3h10.7
			C520.4,560.1,522.4,558.7,522.4,556z"/>
		<path d="M598.1,519.7l-22.4,52.9h-17.5l-22.4-52.9H555l12.6,30.9l12.9-30.9H598.1z"/>
		<path d="M629.3,563.4h-20.1l-3.6,9.2h-18.1l23.1-52.9h17.5l23.1,52.9h-18.4L629.3,563.4z M624.4,550.5l-5.1-13.3l-5.1,13.3H624.4z
			"/>
	</g>
	<g>
		<path class="st1" d="M255.1,434.3h17.8v52.9h-17.8V434.3z"/>
		<path class="st1" d="M324.1,487.2l-0.2-24.1l-11.5,19.3h-7.9L293.1,464v23.3h-16.2v-52.9h14.7l17.2,28.2l16.8-28.2h14.7l0.2,52.9
			H324.1z"/>
		<path class="st1" d="M382.5,436.8c3.6,1.6,6.4,3.9,8.4,7c2,3,2.9,6.5,2.9,10.6s-1,7.6-2.9,10.6c-2,3-4.8,5.3-8.4,7
			s-7.9,2.4-12.8,2.4h-7.6v13h-17.8v-52.9h25.5C374.6,434.3,378.8,435.1,382.5,436.8z M374,458.9c1.2-1.1,1.8-2.6,1.8-4.6
			c0-2-0.6-3.5-1.8-4.6s-3-1.6-5.4-1.6h-6.5v12.4h6.5C371,460.5,372.8,459.9,374,458.9z"/>
		<path class="st1" d="M408.1,484.9c-4.5-2.4-8.1-5.7-10.7-9.9c-2.6-4.2-3.9-9-3.9-14.2s1.3-10,3.9-14.2s6.1-7.5,10.7-9.9
			c4.5-2.4,9.6-3.6,15.3-3.6c5.7,0,10.8,1.2,15.3,3.6c4.5,2.4,8.1,5.7,10.7,9.9c2.6,4.2,3.9,9,3.9,14.2s-1.3,10-3.9,14.2
			c-2.6,4.2-6.1,7.5-10.7,9.9c-4.5,2.4-9.6,3.6-15.3,3.6C417.7,488.4,412.6,487.3,408.1,484.9z M429.4,472.4
			c1.8-1.1,3.2-2.6,4.3-4.6c1.1-2,1.6-4.3,1.6-7c0-2.7-0.5-5-1.6-7c-1.1-2-2.5-3.5-4.3-4.6c-1.8-1.1-3.8-1.6-6-1.6
			c-2.2,0-4.2,0.5-6,1.6c-1.8,1.1-3.2,2.6-4.3,4.6c-1.1,2-1.6,4.3-1.6,7c0,2.7,0.5,5,1.6,7c1.1,2,2.5,3.5,4.3,4.6
			c1.8,1.1,3.8,1.6,6,1.6C425.6,474,427.6,473.5,429.4,472.4z"/>
		<path class="st1" d="M477.7,473.9h-4.8v13.3h-17.8v-52.9h25.5c4.9,0,9.1,0.8,12.8,2.4c3.6,1.6,6.4,3.9,8.4,7c2,3,2.9,6.5,2.9,10.6
			c0,3.8-0.9,7.1-2.6,9.9c-1.7,2.8-4.2,5.1-7.4,6.7l11.1,16.3h-19L477.7,473.9z M484.8,449.7c-1.2-1.1-3-1.6-5.4-1.6h-6.5v12.4h6.5
			c2.4,0,4.2-0.5,5.4-1.6c1.2-1.1,1.8-2.6,1.8-4.6C486.7,452.3,486.1,450.8,484.8,449.7z"/>
		<path class="st1" d="M517.4,448.2h-15.5v-13.8h48.8v13.8h-15.5v39.1h-17.8V448.2z"/>
		<path class="st1" d="M584.1,478H564l-3.6,9.2h-18.1l23.1-52.9h17.5l23.1,52.9h-18.4L584.1,478z M579.1,465.2l-5.1-13.3l-5.1,13.3
			H579.1z"/>
		<path class="st1" d="M626.9,473.9h-4.8v13.3h-17.8v-52.9h25.5c4.9,0,9.1,0.8,12.8,2.4c3.6,1.6,6.4,3.9,8.4,7c2,3,2.9,6.5,2.9,10.6
			c0,3.8-0.9,7.1-2.6,9.9c-1.7,2.8-4.2,5.1-7.4,6.7l11.1,16.3h-19L626.9,473.9z M634,449.7c-1.2-1.1-3-1.6-5.4-1.6h-6.5v12.4h6.5
			c2.4,0,4.2-0.5,5.4-1.6c1.2-1.1,1.8-2.6,1.8-4.6C635.8,452.3,635.2,450.8,634,449.7z"/>
		<path class="st1" d="M163.3,558.6h-20.1l-3.6,9.2h-18.1l23.1-52.9h17.5l23.1,52.9h-18.4L163.3,558.6z M158.3,545.7l-5.1-13.3
			l-5.1,13.3H158.3z"/>
		<path class="st1" d="M206.1,554.5h-4.8v13.3h-17.8v-52.9h25.5c4.9,0,9.1,0.8,12.8,2.4c3.6,1.6,6.4,3.9,8.4,7s2.9,6.5,2.9,10.6
			c0,3.8-0.9,7.1-2.6,9.9c-1.7,2.8-4.2,5.1-7.4,6.7l11.1,16.3h-19L206.1,554.5z M213.2,530.3c-1.2-1.1-3-1.6-5.4-1.6h-6.5V541h6.5
			c2.4,0,4.2-0.5,5.4-1.6c1.2-1.1,1.8-2.6,1.8-4.6C215,532.9,214.4,531.3,213.2,530.3z"/>
		<path class="st1" d="M247.3,565.5c-4.5-2.3-8-5.6-10.5-9.8c-2.5-4.2-3.8-9-3.8-14.3c0-5.3,1.3-10.1,3.8-14.3
			c2.5-4.2,6.1-7.5,10.5-9.8c4.5-2.3,9.5-3.5,15.1-3.5c5.1,0,9.7,0.9,13.8,2.7c4,1.8,7.4,4.4,10,7.9l-11.3,10
			c-3.3-4.1-7.1-6.2-11.6-6.2c-3.7,0-6.7,1.2-9,3.6c-2.3,2.4-3.4,5.6-3.4,9.6c0,4,1.1,7.2,3.4,9.6c2.3,2.4,5.3,3.6,9,3.6
			c4.4,0,8.3-2.1,11.6-6.2l11.3,10c-2.6,3.4-5.9,6-10,7.9c-4,1.8-8.6,2.7-13.8,2.7C256.8,569,251.8,567.8,247.3,565.5z"/>
		<path class="st1" d="M338.7,514.9v52.9h-17.8v-19.5h-16.5v19.5h-17.8v-52.9h17.8v18.7h16.5v-18.7H338.7z"/>
		<path class="st1" d="M342.6,514.9h17.8v52.9h-17.8V514.9z"/>
		<path class="st1" d="M420.9,514.9l-22.4,52.9H381l-22.4-52.9h19.2l12.6,30.9l12.9-30.9H420.9z"/>
		<path class="st1" d="M429.6,565.4c-4.5-2.4-8.1-5.7-10.7-9.9c-2.6-4.2-3.9-9-3.9-14.2s1.3-10,3.9-14.2s6.1-7.5,10.7-9.9
			c4.5-2.4,9.6-3.6,15.3-3.6c5.7,0,10.8,1.2,15.3,3.6c4.5,2.4,8.1,5.7,10.7,9.9c2.6,4.2,3.9,9,3.9,14.2s-1.3,10-3.9,14.2
			c-2.6,4.2-6.1,7.5-10.7,9.9c-4.5,2.4-9.6,3.6-15.3,3.6C439.3,569,434.1,567.8,429.6,565.4z M451,552.9c1.8-1.1,3.2-2.6,4.3-4.6
			c1.1-2,1.6-4.3,1.6-7c0-2.7-0.5-5-1.6-7c-1.1-2-2.5-3.5-4.3-4.6c-1.8-1.1-3.8-1.6-6-1.6c-2.2,0-4.2,0.5-6,1.6
			c-1.8,1.1-3.2,2.6-4.3,4.6c-1.1,2-1.6,4.3-1.6,7c0,2.7,0.5,5,1.6,7c1.1,2,2.5,3.5,4.3,4.6c1.8,1.1,3.8,1.6,6,1.6
			C447.2,554.5,449.2,554,451,552.9z"/>
		<path class="st1" d="M544.2,545.2c1.7,2.2,2.6,4.9,2.6,8c0,4.6-1.9,8.2-5.7,10.8s-9.4,3.8-16.6,3.8h-29.8v-52.9h28.3
			c7.1,0,12.4,1.3,16,3.8c3.6,2.5,5.4,5.9,5.4,10c0,2.5-0.6,4.7-1.9,6.6c-1.2,2-3.1,3.6-5.5,4.8C540,541.3,542.4,543,544.2,545.2z
			 M512.1,527.3v7.9h8.3c3.9,0,5.8-1.3,5.8-3.9c0-2.6-1.9-3.9-5.8-3.9H512.1z M528.7,551.1c0-2.8-2-4.2-5.9-4.2h-10.7v8.3h10.7
			C526.8,555.3,528.7,553.9,528.7,551.1z"/>
		<path class="st1" d="M604.5,514.9l-22.4,52.9h-17.5l-22.4-52.9h19.2l12.6,30.9l12.9-30.9H604.5z"/>
		<path class="st1" d="M635.7,558.6h-20.1l-3.6,9.2h-18.1l23.1-52.9h17.5l23.1,52.9h-18.4L635.7,558.6z M630.8,545.7l-5.1-13.3
			l-5.1,13.3H630.8z"/>
	</g>
	<g>
		<g>
			<path class="st18" d="M1021.4,594.8H652.2c-9,0-16.3-7.3-16.3-16.3V335.8c0-9,7.3-16.3,16.3-16.3h369.2c9,0,16.3,7.3,16.3,16.3
				v242.7C1037.8,587.5,1030.5,594.8,1021.4,594.8z"/>
			<path class="st19" d="M1036.4,594.8H634.6V335.8c0-9,7.3-16.3,16.3-16.3h369.2c9,0,16.3,7.3,16.3,16.3V594.8z"/>
			<g>
				<g>
					<rect x="651" y="332.5" class="st1" width="367.7" height="242.6"/>
					<path class="st20" d="M1018.2,333v241.6H651.5V333H1018.2 M1019.2,332h-1H651.5h-1v1v241.6v1h1h366.7h1v-1V333V332L1019.2,332z
						"/>
				</g>
				<rect x="651.5" y="333" class="st21" width="366.7" height="27.6"/>
				<rect x="651.5" y="360.6" class="st22" width="366.7" height="44.8"/>
				<polygon class="st23" points="1018.2,405.4 651.5,405.4 651.5,419.2 651.5,419.9 651.5,574.6 666,574.6 666,419.9 1018.2,419.9 
									"/>
				<line class="st24" x1="651.5" y1="405.4" x2="1017.8" y2="405.4"/>
				<rect x="666" y="419.9" class="st25" width="352.2" height="19.7"/>
				<g>
					<g>
						<line class="st24" x1="1018.2" y1="405.4" x2="1018.2" y2="574.6"/>
						<line class="st24" x1="724.7" y1="405.4" x2="724.7" y2="574.6"/>
						<line class="st24" x1="666" y1="405.4" x2="666" y2="574.6"/>
						<line class="st24" x1="783.4" y1="405.4" x2="783.4" y2="574.6"/>
						<line class="st24" x1="900.8" y1="405.4" x2="900.8" y2="574.6"/>
						<line class="st24" x1="959.5" y1="405.4" x2="959.5" y2="574.6"/>
						<line class="st24" x1="651.8" y1="439.5" x2="1018.5" y2="439.5"/>
						<line class="st24" x1="651.8" y1="420.2" x2="1018.5" y2="420.2"/>
						<line class="st24" x1="651.8" y1="458.8" x2="1018.5" y2="458.8"/>
						<line class="st24" x1="651.8" y1="478.1" x2="1018.5" y2="478.1"/>
						<line class="st24" x1="651.8" y1="497.4" x2="1018.5" y2="497.4"/>
						<line class="st24" x1="651.8" y1="516.7" x2="1018.5" y2="516.7"/>
						<line class="st24" x1="651.8" y1="536" x2="1018.5" y2="536"/>
						<line class="st24" x1="651.8" y1="555.3" x2="1018.5" y2="555.3"/>
						<line class="st24" x1="651.8" y1="574.6" x2="1018.5" y2="574.6"/>
					</g>
				</g>
				<rect x="698.9" y="349.5" class="st22" width="50" height="11.2"/>
				<rect x="658.1" y="351.4" class="st1" width="34.9" height="5.9"/>
				<rect x="755.5" y="351.4" class="st1" width="21.7" height="5.9"/>
				<rect x="784.5" y="351.4" class="st1" width="30.3" height="5.9"/>
				<g>
					<g>
						<path class="st26" d="M682.4,393.7h-17.9c-0.5,0-0.9-0.4-0.9-0.9v-19.6c0-0.5,0.4-0.9,0.9-0.9h17.9c0.5,0,0.9,0.4,0.9,0.9
							v19.6C683.3,393.3,682.9,393.7,682.4,393.7z"/>
						<path class="st27" d="M678.5,372h-2.8v-1.6c0-0.9-0.7-1.6-1.6-1.6h-1.4c-0.9,0-1.6,0.7-1.6,1.6v1.6h-2.6
							c-0.6,0-1.1,0.5-1.1,1.1v0.6c0,0.6,0.5,1.1,1.1,1.1h10.1c0.6,0,1.1-0.5,1.1-1.1V373C679.5,372.5,679.1,372,678.5,372z
							 M672.5,370.1c0-0.1,0.1-0.2,0.2-0.2h1.3c0.1,0,0.2,0.1,0.2,0.2v1.7c0,0.1-0.1,0.2-0.2,0.2h-1.3c-0.1,0-0.2-0.1-0.2-0.2V370.1
							z"/>
					</g>
					<g>
						<path class="st28" d="M683.9,379.3h-6.7c-0.7,0-1.3,0.6-1.3,1.3v12.7c0,0.7,0.6,1.3,1.3,1.3h9.5c0.7,0,1.3-0.6,1.3-1.3v-10.2
							L683.9,379.3z"/>
						<polygon class="st29" points="683.7,383 683.7,379.3 687.8,383 						"/>
					</g>
				</g>
				<g>
					<rect x="704.8" y="368.8" class="st30" width="39.5" height="5.9"/>
					<rect x="704.8" y="378.8" class="st30" width="32.3" height="5.9"/>
					<rect x="704.8" y="388.7" class="st30" width="35.5" height="6.2"/>
					<g>
						<rect x="764.1" y="369.2" class="st30" width="10.5" height="5.9"/>
						<rect x="778.6" y="369.2" class="st30" width="10.5" height="5.9"/>
						<rect x="792.4" y="369.2" class="st30" width="10.5" height="5.9"/>
					</g>
					<g>
						<rect x="764.1" y="379" class="st30" width="10.5" height="5.9"/>
						<rect x="778.6" y="379" class="st30" width="10.5" height="5.9"/>
						<rect x="792.4" y="379" class="st30" width="10.5" height="5.9"/>
					</g>
					<g>
						<rect x="764.1" y="388.7" class="st30" width="10.5" height="5.9"/>
						<rect x="778.6" y="388.7" class="st30" width="10.5" height="5.9"/>
						<rect x="792.4" y="388.7" class="st30" width="10.5" height="5.9"/>
					</g>
				</g>
				<rect x="672.6" y="446.2" class="st30" width="45.4" height="5.9"/>
				<rect x="672.6" y="465.3" class="st30" width="45.4" height="5.9"/>
				<rect x="731.2" y="446.2" class="st30" width="45.4" height="5.9"/>
				<rect x="790.4" y="446.2" class="st30" width="45.4" height="5.9"/>
				<rect x="672.6" y="485.1" class="st30" width="45.4" height="5.9"/>
				<rect x="731.2" y="485.1" class="st30" width="45.4" height="5.9"/>
				<rect x="672.6" y="504.8" class="st30" width="45.4" height="5.9"/>
				<rect x="672.6" y="523.9" class="st30" width="45.4" height="5.9"/>
				<rect x="731.2" y="504.8" class="st30" width="45.4" height="5.9"/>
				<rect x="790.4" y="485.1" class="st30" width="45.4" height="5.9"/>
				<rect x="908.2" y="446.2" class="st30" width="45.4" height="5.9"/>
				<rect x="966.2" y="446.2" class="st30" width="45.4" height="5.9"/>
				<rect x="672.6" y="427.1" class="st31" width="45.4" height="5.9"/>
				<rect x="731.2" y="427.1" class="st31" width="45.4" height="5.9"/>
				<rect x="790.4" y="427.1" class="st31" width="103.4" height="5.9"/>
				<rect x="908.2" y="427.1" class="st31" width="45.4" height="5.9"/>
				<rect x="966.2" y="427.1" class="st31" width="45.4" height="5.9"/>
				<rect x="672.6" y="543" class="st30" width="45.4" height="5.9"/>
				<rect x="731.2" y="543" class="st30" width="45.4" height="5.9"/>
				<rect x="672.6" y="562.1" class="st30" width="45.4" height="5.9"/>
				<rect x="731.2" y="562.1" class="st30" width="45.4" height="5.9"/>
				<rect x="790.4" y="543" class="st30" width="102" height="5.9"/>
				<rect x="908.2" y="543" class="st30" width="45.4" height="5.9"/>
				<rect x="908.2" y="504.2" class="st30" width="45.4" height="5.9"/>
				<rect x="966.2" y="543" class="st30" width="45.4" height="5.9"/>
			</g>
			<rect x="652" y="333.9" class="st17" width="367" height="241.8"/>
			<linearGradient id="SVGID_4_" gradientUnits="userSpaceOnUse" x1="835.5035" y1="325.3565" x2="835.5035" y2="328.6506">
				<stop  offset="0.1243" style="stop-color:#000000;stop-opacity:0.4"/>
				<stop  offset="0.573" style="stop-color:#BABABA;stop-opacity:0"/>
			</linearGradient>
			<path class="st32" d="M835.5,328.7L835.5,328.7c-0.9,0-1.6-0.7-1.6-1.6l0,0c0-0.9,0.7-1.6,1.6-1.6l0,0c0.9,0,1.6,0.7,1.6,1.6l0,0
				C837.2,327.9,836.4,328.7,835.5,328.7z"/>
		</g>
		<ellipse class="st33" cx="834.5" cy="602.1" rx="240.8" ry="4.6"/>
		<path class="st14" d="M587.8,590.9c0,0,9.9,7.2,59.3,9.2h378.8c0,0,38.9,0,58.6-9.2H587.8z"/>
		<rect x="587.8" y="589.5" class="st34" width="497.4" height="1.3"/>
		<linearGradient id="SVGID_5_" gradientUnits="userSpaceOnUse" x1="792.6799" y1="590.8627" x2="876.3506" y2="590.8627">
			<stop  offset="0" style="stop-color:#000000;stop-opacity:0.5"/>
			<stop  offset="0.1" style="stop-color:#EFF0F0"/>
			<stop  offset="0.9" style="stop-color:#EFF0F0"/>
			<stop  offset="1" style="stop-color:#000000;stop-opacity:0.5"/>
		</linearGradient>
		<path class="st35" d="M875,592.2h-81c-0.7,0-1.3-0.6-1.3-1.3l0,0c0-0.7,0.6-1.3,1.3-1.3h81c0.7,0,1.3,0.6,1.3,1.3l0,0
			C876.4,591.6,875.8,592.2,875,592.2z"/>
	</g>
	<g>
		<circle class="st36" cx="81" cy="443" r="81"/>
		<circle class="st1" cx="84" cy="442" r="77"/>
		<g>
			<path class="st37" d="M109.3,456.7v15.4H62.2v-12.2l21.3-19.7c1.8-1.7,3.1-3.2,3.7-4.5c0.6-1.2,0.9-2.4,0.9-3.6
				c0-1.5-0.5-2.6-1.5-3.4c-1-0.8-2.4-1.2-4.2-1.2c-1.8,0-3.5,0.5-5,1.4c-1.6,1-2.8,2.3-3.6,4l-15-7.5c2.2-4.2,5.5-7.5,9.8-10
				c4.3-2.4,9.5-3.7,15.6-3.7c4.6,0,8.8,0.8,12.3,2.3c3.6,1.5,6.4,3.7,8.4,6.5c2,2.8,3,6,3,9.7c0,3.2-0.7,6.3-2.1,9.1
				c-1.4,2.8-4,6-8,9.6l-8.4,7.6H109.3z"/>
		</g>
	</g>
	<g>
		<circle class="st36" cx="1043" cy="353" r="81"/>
		<circle class="st1" cx="1046" cy="352" r="77"/>
		<g>
			<path class="st37" d="M1067.4,351.3c2.4,2.9,3.7,6.5,3.7,10.6c0,3.5-1,6.8-2.9,9.9c-1.9,3.1-4.9,5.5-8.9,7.4s-9,2.9-15,2.9
				c-4.1,0-8.3-0.4-12.4-1.3s-7.7-2.2-10.8-3.9l6.7-14.6c2.4,1.4,5,2.5,7.8,3.2c2.8,0.7,5.4,1.1,8,1.1c2.3,0,4.1-0.4,5.5-1.2
				c1.4-0.8,2.1-1.9,2.1-3.4c0-2.7-2.3-4-7-4h-7.8v-12.2l8.7-8.8h-21v-15h43.8v12.2l-10.9,11.1
				C1061.5,346.3,1064.9,348.3,1067.4,351.3z"/>
		</g>
	</g>
</g>
</svg>
