<?xml version="1.0" encoding="utf-8"?>
<!-- Generator: Adobe Illustrator 22.1.0, SVG Export Plug-In . SVG Version: 6.00 Build 0)  -->
<svg version="1.1" id="Capa_1" xmlns="http://www.w3.org/2000/svg" xmlns:xlink="http://www.w3.org/1999/xlink" x="0px" y="0px"
	 viewBox="0 0 658.5 472" style="enable-background:new 0 0 658.5 472;" xml:space="preserve">
<style type="text/css">
	.st0{fill:#FFFFFF;stroke:#066A38;stroke-miterlimit:10;}
</style>
<g>
	<path class="st0" d="M63.4,278.3c5.5,0,10.1,0.9,13.8,2.5c3.7,1.8,6.7,4.1,8.7,7.1c2.1,3.2,3.2,6.7,3.9,10.8s0.5,8.7-0.5,13.5
		c-2.1,11.5-6.7,20-13.8,25.7c-7.1,5.7-16.7,8.7-28.4,8.7H37.1l-7.3,42.2H0.6l19.5-110.6L63.4,278.3L63.4,278.3z M45.8,325.8
		L45.8,325.8c3.7,0,6.7-1.1,8.9-3.2c2.3-2.1,3.9-5.5,4.6-10.3c1.6-8.9-1.4-13.5-8.9-13.5h-5.3l-4.8,26.8L45.8,325.8L45.8,325.8z"/>
	<path class="st0" d="M124.5,305.2l-2.3,13.3h0.5c2.3-5,5.5-8.9,9.4-11.7c3.9-2.5,8-3.9,11.9-3.9h4.4l-4.6,25.9
		c-1.4-0.2-2.3-0.5-3.4-0.5c-1.1-0.2-2.3-0.2-3.2-0.2c-5,0-8.9,1.1-12.2,3.2s-5,6-6,11.7l-8,45.9H83.2l14.7-83.7L124.5,305.2
		L124.5,305.2z"/>
	<path class="st0" d="M210.2,363c-1.6,5.3-4.1,9.9-7.3,14c-3.2,4.1-7.3,7.3-12.6,9.9c-5.3,2.5-11.7,3.7-19.5,3.7
		c-8,0-14.5-1.1-18.8-3.2c-4.4-2.1-7.3-5.3-8.9-9.2c-1.6-4.1-2.3-8.7-2.1-14c0.2-5.3,0.9-11,2.1-17.2c0.9-5.5,2.3-10.8,4.1-16.1
		c1.6-5.3,4.1-9.9,7.3-14.2c3.2-4.1,7.3-7.6,12.6-9.9c5-2.5,11.7-3.9,19.5-3.9c8,0,14.5,1.1,18.8,3.4c4.4,2.3,7.3,5.5,8.9,9.6
		c1.6,4.1,2.3,8.7,2.1,14c-0.2,5.3-0.9,11-2.1,17.2C213.2,352.4,211.8,357.9,210.2,363L210.2,363z M168.7,360L168.7,360
		c-0.5,3.2-0.5,6-0.2,8c0.2,2.1,0.9,3.2,1.6,4.1c0.9,0.7,2.1,1.1,3.7,1.1c1.4,0,3-0.5,4.1-1.1c1.1-0.7,2.3-2.1,3.2-4.1
		s1.8-4.6,2.5-8c0.7-3.4,1.6-7.8,2.5-12.8c0.9-5.3,1.6-9.6,2.1-13.1c0.5-3.4,0.5-6,0.2-8c-0.2-2.1-0.7-3.2-1.6-4.1
		c-0.9-0.9-2.3-1.1-3.7-1.1s-3,0.5-4.1,1.1s-2.3,2.1-3.2,4.1c-0.9,2.1-1.8,4.6-2.5,8s-1.6,7.8-2.5,13.1
		C169.9,352.2,169.2,356.5,168.7,360L168.7,360z"/>
	<path class="st0" d="M265.7,325.8c-0.7-1.4-2.3-2.3-4.8-2.3c-2.5,0-4.4,0.7-5.7,2.3c-1.4,1.4-2.3,4.1-3,7.6l-9.9,55.3h-27.8
		l14.7-83.7h26.8l-1.8,10.1h0.5c5-8.3,12.6-12.4,22.5-12.4c5.7,0,9.9,1.1,12.6,3.2c2.8,2.3,4.4,5.3,5.5,9.9c3-4.8,6.7-8,10.8-9.9
		c4.1-1.8,8.3-3,12.6-3c3.2,0,6,0.5,8.5,0.9c2.5,0.7,4.6,1.8,6.2,3.7c1.6,1.8,2.8,4.1,3.4,6.9c0.5,3,0.5,6.7-0.2,11.2l-11.2,63.1
		h-27.8l9.9-55.3c0.5-3.4,0.5-6-0.2-7.6s-2.3-2.3-4.8-2.3s-4.4,0.7-5.7,2.3c-1.4,1.4-2.3,4.1-3,7.6l-9.9,55.3h-27.8l9.9-55.3
		C266.7,329.9,266.7,327.6,265.7,325.8L265.7,325.8z"/>
	<path class="st0" d="M366,362.7c-0.7,4.6-0.5,7.6,0.7,8.9c1.1,1.4,3,2.3,4.8,2.3c2.3,0,4.6-0.9,6.2-3c1.8-2.1,3.2-6,4.1-11.7h25
		c-2.1,10.3-6,18.1-11.9,23.4c-6,5-14.7,7.8-26.4,7.8c-6.7,0-12.2-0.7-16.5-2.3c-4.1-1.4-7.6-4.1-9.9-7.3c-2.3-3.4-3.2-8-3.4-13.5
		c-0.2-5.5,0.5-12.4,1.8-20.2c1.4-8,3.2-14.9,5.7-20.4c2.5-5.5,5-10.1,8.9-13.5c3.4-3.4,7.8-6,12.4-7.8c4.8-1.6,10.3-2.3,16.5-2.3
		c5.5,0,10.3,0.7,14.5,2.1c3.9,1.4,6.9,3.4,9.4,6.9c2.3,3.2,3.7,7.3,4.1,12.4c0.5,5,0,11.5-1.4,19l-1.4,8.5h-41.5L366,362.7
		L366,362.7z M386.6,323.1L386.6,323.1c-0.7-2.1-2.5-3.2-5.5-3.2c-3,0-5,1.1-6.4,3.2c-1.4,2.1-2.5,5.3-3.2,9.9l-0.7,3.7h15.4
		l0.7-3.7C387.3,328.3,387.3,324.9,386.6,323.1L386.6,323.1z"/>
	<path class="st0" d="M451.3,305.2l-2.3,13.3h0.5c2.3-5,5.5-8.9,9.4-11.7c3.9-2.5,8-3.9,11.9-3.9h4.4l-4.6,25.9
		c-1.4-0.2-2.3-0.5-3.4-0.5c-1.1-0.2-2.3-0.2-3.2-0.2c-5,0-8.9,1.1-12.2,3.2c-3.2,2.3-5,6-6,11.7l-8,45.6H410l14.7-83.7L451.3,305.2
		L451.3,305.2L451.3,305.2z"/>
	<path class="st0" d="M508,305.2l-14.7,83.7h-27.8l14.7-83.7L508,305.2L508,305.2z M512.6,278.3L512.6,278.3l-3.7,20.9h-27.8
		l3.7-20.9H512.6L512.6,278.3z"/>
	<path class="st0" d="M556.4,329.5c0-2.1-0.2-3.9-0.5-5c-0.7-2.3-2.5-3.4-5.5-3.4c-1.4,0-3,0.5-4.1,1.1s-2.3,2.3-3.2,4.1
		c-0.9,1.8-1.8,4.8-2.8,8c-0.9,3.2-1.6,7.6-2.5,12.6s-1.4,9.4-1.8,12.6s-0.5,6,0,8c0.2,2.1,0.9,3.2,1.8,4.1s2.3,1.1,3.7,1.1
		c2.5,0,4.8-0.9,6.4-3c1.6-2.1,3.2-5.5,4.1-10.8l0.9-5.3h25c-1.1,6.7-2.8,12.2-4.6,17c-2.1,4.6-4.6,8.5-7.8,11.5
		c-6.2,5.5-15.4,8.3-27.3,8.3c-5.3,0-10.1-0.5-14.5-1.4c-4.1-0.9-7.8-3-10.3-6c-2.5-3.2-4.1-7.3-5-12.8c-0.7-5.5-0.5-12.8,1.4-21.8
		c1.8-9.9,4.1-17.9,7.1-23.9c3-6,6.4-10.6,10.6-13.8c3.9-3.2,8.3-5.3,12.8-6.2c4.8-1.1,9.9-1.4,14.9-1.4c6.2,0,11.2,0.9,14.9,2.5
		c3.9,1.6,6.7,4.1,8.5,7.1c1.8,3.2,3,6.7,3.2,11c0.2,4.1-0.2,8.9-1.1,14.5h-25C556.1,334.5,556.4,331.8,556.4,329.5L556.4,329.5z"/>
	<path class="st0" d="M619.9,384.3c0-1.4,0.2-3.2,0.2-5h-0.5c-2.3,3.7-5,6.4-8.9,8.3c-3.7,1.8-7.8,2.8-11.9,2.8
		c-4.1,0-7.8-0.5-10.6-1.6c-2.8-1.1-4.8-2.8-6.2-4.8c-1.4-2.3-2.3-4.8-2.5-7.8c-0.5-3-0.2-6.2,0.5-9.9c0.7-3.9,1.6-7.3,3-10.3
		s3-5.3,5-7.6c2.3-2.1,4.8-3.9,8-5.3c3.2-1.4,7.1-2.8,11.7-3.9l11.5-2.5c3.2-0.7,5.3-1.8,6.9-3.2c1.4-1.4,2.3-3.2,3-6
		c0.9-5-0.9-7.8-5.7-7.8c-2.8,0-4.8,0.7-6.2,2.3s-2.8,4.4-3.4,8.9h-24.1c1.1-6,3-11,6-14.5c2.8-3.7,6-6.4,9.6-8.5
		c3.7-2.1,7.1-3.2,11-4.1c3.9-0.9,7.3-0.9,10.6-0.9c4.8,0,9.2,0.5,13.3,1.1c3.9,0.7,7.1,2.3,9.9,4.1c2.8,1.8,4.4,4.8,5.3,8.3
		c0.9,3.4,0.9,8,0,13.5l-7.1,40.8c-0.7,3.9-1.1,7.3-1.4,10.3c-0.2,3,0,5.5,0.7,7.8h-26.8C619.9,387.3,619.7,385.9,619.9,384.3
		L619.9,384.3z M619.9,368.7L619.9,368.7c1.6-2.3,3-5.7,3.9-10.3l1.8-10.1h-0.5c-1.1,1.1-2.3,1.8-4.1,2.1c-1.8,0.2-3.7,0.9-6,1.8
		c-2.3,1.1-4.1,2.3-5,4.1s-1.8,3.9-2.3,6.9c-0.5,2.8-0.2,5,0.7,6.7c0.9,1.6,2.3,2.3,4.6,2.3C615.8,372.4,618.1,371.2,619.9,368.7
		L619.9,368.7z"/>
	<path class="st0" d="M71,171.7c3.4,0,6.7,0.5,9.4,1.1c2.8,0.7,5,1.8,6.9,3.4c1.8,1.6,3.2,3.9,3.9,6.7c0.7,2.8,0.7,6,0,10.1
		c-0.7,4.6-2.5,8.5-5.3,11.7c-2.8,3.2-6.2,5.5-10.8,6.7v0.2c4.6,0.5,8,2.5,10.1,6c2.3,3.2,2.8,8,1.6,13.5c-0.5,3.2-1.6,6.4-3,9.4
		c-1.4,3-3.2,5.5-6,8c-2.3,2.3-5.5,4.1-8.9,5.3c-3.4,1.1-8,2.1-12.8,2.1H27.7l14.9-84.4L71,171.7L71,171.7z M53.4,243.5L53.4,243.5
		c4.1,0,7.6-0.9,10.3-2.8s4.6-5,5.5-9.9c0.5-2.3,0.5-4.4,0-6s-1.1-3-2.1-3.9s-2.3-1.6-3.7-2.1c-1.4-0.5-3.2-0.5-5-0.5h-7.3
		l-4.1,25.2L53.4,243.5L53.4,243.5z M58.2,206.3L58.2,206.3c4.8,0,8.3-0.9,10.8-2.5c2.3-1.6,4.1-4.6,4.8-8.5
		c0.7-4.1,0.2-6.9-1.4-8.5c-1.6-1.6-4.6-2.3-8.9-2.3h-6l-3.9,22L58.2,206.3L58.2,206.3z"/>
	<path class="st0" d="M100.8,210.4c0.7-3.7,1.8-6.9,3.2-9.2c1.6-2.3,3.4-4.4,6-6c2.3-1.4,4.8-2.5,7.8-3.2c2.8-0.7,5.7-0.9,8.9-0.9
		c4.8,0,8.7,0.5,11.7,1.4c2.8,0.9,5,2.3,6.2,4.1c1.4,1.6,2.1,3.9,2.3,6.2c0.2,2.3,0,5-0.5,8l-6,33.3c-0.5,3-0.7,5.3-0.7,6.9
		c0,1.6,0.2,3.4,0.7,5.3h-16.1c-0.5-1.1-0.5-2.1-0.7-3.2c0-1.1-0.2-2.3-0.2-3.2h-0.2c-2.3,3.2-5,5.5-7.8,6.4c-2.5,0.9-6,1.4-9.9,1.4
		c-2.8,0-5-0.5-6.9-1.4c-1.8-0.9-3.2-2.3-4.1-4.1c-0.9-1.8-1.4-3.7-1.6-6c-0.2-2.3,0-4.1,0.5-6.4c0.5-3,1.4-5.5,2.3-7.8
		c0.9-2.3,2.3-4.1,3.9-5.5c1.6-1.4,3.4-2.8,5.7-3.9c2.3-1.1,4.8-1.8,7.8-2.8l9.6-2.3c2.5-0.5,4.4-1.4,5.5-2.5
		c1.1-1.1,1.8-2.8,2.3-4.8c0.5-2.3,0.2-4.4-0.7-5.7c-0.9-1.4-2.8-2.1-5.5-2.1c-2.5,0-4.6,0.7-6,2.3c-1.4,1.6-2.5,3.4-3,6l-0.5,1.8
		h-14.5L100.8,210.4L100.8,210.4z M124,226.3L124,226.3c-1.4,0.5-2.5,0.9-3.7,1.1c-3.4,0.7-6,1.8-7.8,3.4c-1.6,1.6-2.8,3.9-3.2,6.9
		c-0.5,2.3-0.5,4.6,0.5,6.2c0.5,1.6,2.1,2.5,4.1,2.5c1.1,0,2.3-0.2,3.4-0.5c1.4-0.5,2.3-0.9,3.4-1.6c1.1-0.7,2.1-1.8,3-3.2
		s1.4-2.8,1.6-4.4l2.3-12.6C126.7,225.1,125.4,225.8,124,226.3L124,226.3z"/>
	<path class="st0" d="M176.3,192.5l-1.4,7.3h0.2c2.3-3.2,5-5.5,8-6.9c3-1.4,6.2-2.3,9.9-2.3c5,0,8.9,1.4,11.2,4.1
		c2.3,2.8,3,7.3,1.8,13.8l-8.3,47h-16.3l7.8-43.8c0.5-3.2,0.5-5.5-0.5-6.9c-0.9-1.4-2.5-2.1-5-2.1c-5.7,0-9.2,3.4-10.6,10.6
		l-7.3,42.2h-16.3l11.2-63.5L176.3,192.5C176.3,192.3,176.3,192.5,176.3,192.5z"/>
	<path class="st0" d="M246.9,210.9c0-1.4,0-2.8-0.5-4.1c-0.5-1.4-0.9-2.3-1.6-3c-0.7-0.7-2.1-1.1-3.4-1.1c-2.1,0-3.7,0.5-5,1.4
		c-1.4,0.9-2.5,2.3-3.4,4.1c-0.9,1.8-1.8,4.1-2.5,6.9c-0.7,2.8-1.4,6-2.1,9.6c-0.7,3.9-1.1,7.3-1.4,10.1s-0.2,5,0,6.9
		c0.5,1.8,0.9,3.2,2.1,3.9c0.9,0.7,2.3,1.4,4.1,1.4c2.8,0,5-1.1,6.7-3.4c1.6-2.3,3-6,3.9-11.5h15.6c-1.4,8.3-4.4,14.7-8.9,19
		c-4.4,4.4-11,6.7-19.7,6.7c-4.1,0-7.6-0.5-10.6-1.4c-3-0.9-5-2.8-6.7-5.3c-1.4-2.5-2.3-6-2.8-10.3c-0.2-4.1,0.2-9.6,1.4-16.1
		c1.1-6.4,2.8-11.9,4.8-16.3c2.1-4.1,4.4-7.8,7.1-10.3c2.8-2.5,5.7-4.4,8.9-5.3c3.2-1.1,6.9-1.4,10.8-1.4c7.6,0,12.8,2.3,15.8,6.7
		c3.2,4.4,3.9,10.3,2.5,17.9H246C246.5,213.9,246.7,212.3,246.9,210.9L246.9,210.9z"/>
	<path class="st0" d="M270.3,209.8c1.6-4.1,3.7-7.8,6-10.6s5.3-5,8.9-6.4c3.4-1.4,7.6-2.3,12.2-2.3c5,0,8.9,0.5,11.7,2.1
		c3,1.4,5,3.4,6.7,6.2c1.4,2.8,2.1,6.2,2.3,10.6c0,4.1-0.5,8.9-1.4,14.5c-0.9,5.3-2.3,10.3-3.9,14.5c-1.6,4.1-3.7,7.8-6,10.6
		c-2.3,2.8-5.3,4.8-8.9,6.2c-3.4,1.4-7.3,2.1-12.2,2.1c-5,0-8.9-0.5-11.7-1.8c-3-1.4-5-3.2-6.7-6c-1.6-2.8-2.3-6.2-2.3-10.6
		c0-4.1,0.5-8.9,1.4-14.5C267.6,218.7,269,213.9,270.3,209.8L270.3,209.8z M281.6,233.1L281.6,233.1c-0.5,2.8-0.5,5-0.2,6.9
		c0.2,2.1,0.9,3.4,1.8,4.6c0.9,1.1,2.3,1.6,4.4,1.6c3.2,0,6-1.6,7.8-5c1.8-3.4,3.4-9.2,5-17.2c1.4-8,1.8-13.5,1.1-17.2
		c-0.7-3.7-2.5-5-6-5c-2.1,0-3.7,0.5-5,1.6c-1.4,1.1-2.5,2.5-3.4,4.6c-0.9,2.1-1.6,4.4-2.3,6.9c-0.7,2.8-1.4,5.7-1.8,8.9
		C282.5,227.4,281.8,230.4,281.6,233.1L281.6,233.1z"/>
	<path class="st0" d="M385,262c0,0,38.8-104.4,41.7-117.9l-58.3-38.8c0,0,67.2-23.9,98.4-31.2L520.6,1l22.5,56.7
		C543.3,57.7,399.9,236.6,385,262L385,262z"/>
	<polygon class="st0" points="489.4,185.9 567.1,130.8 599.9,254.5 	"/>
	<path class="st0" d="M656.6,62c0,0-202.8,119.3-237.2,165.6c0,0,103-131.2,135.8-164L656.6,62L656.6,62z"/>
</g>
</svg>
