<?xml version="1.0" encoding="utf-8"?>
<!-- Generator: Adobe Illustrator 22.1.0, SVG Export Plug-In . SVG Version: 6.00 Build 0)  -->
<svg version="1.1" id="Capa_1" xmlns="http://www.w3.org/2000/svg" xmlns:xlink="http://www.w3.org/1999/xlink" x="0px" y="0px"
	 viewBox="0 0 1133.2 470.2" style="enable-background:new 0 0 1133.2 470.2;" xml:space="preserve">
<style type="text/css">
	.st0{opacity:0.1;fill-rule:evenodd;clip-rule:evenodd;}
	.st1{fill-rule:evenodd;clip-rule:evenodd;fill:#FDFDFC;}
	.st2{fill:#A4ACBE;}
	.st3{fill-rule:evenodd;clip-rule:evenodd;fill:#A4ACBE;}
	.st4{display:none;fill-rule:evenodd;clip-rule:evenodd;fill:#39303D;}
	.st5{fill-rule:evenodd;clip-rule:evenodd;fill:#298738;}
	.st6{fill:#FFFFFF;}
	.st7{fill-rule:evenodd;clip-rule:evenodd;fill:#2BA843;}
	.st8{fill-rule:evenodd;clip-rule:evenodd;fill:#FFFFFF;}
	.st9{fill-rule:evenodd;clip-rule:evenodd;fill:#777777;}
	.st10{fill-rule:evenodd;clip-rule:evenodd;fill:none;stroke:#C9C9C9;stroke-miterlimit:10;}
	.st11{fill-rule:evenodd;clip-rule:evenodd;fill:#ADADAD;}
	.st12{fill-rule:evenodd;clip-rule:evenodd;fill:#FDFFFD;}
	.st13{fill:#7C7C7C;}
	.st14{clip-path:url(#SVGID_2_);}
	.st15{display:none;fill:#FFFFFF;}
	.st16{fill:#ADDBE8;}
	.st17{fill:#333333;}
	.st18{fill:#5B5B5B;}
	.st19{fill:#A8A8A8;}
	.st20{fill:#AEAFAE;}
	.st21{fill:none;stroke:#AEAFAE;stroke-width:8;stroke-miterlimit:10;}
	.st22{clip-path:url(#SVGID_4_);}
	.st23{fill-rule:evenodd;clip-rule:evenodd;fill:#FDFFFC;}
</style>
<g>
	<g>
		<path class="st0" d="M22.9,78.5h191.5c5.8,0,10.5,4.7,10.5,10.5v255.2c0,5.8-4.7,10.5-10.5,10.5H22.9c-5.8,0-10.5-4.7-10.5-10.5
			V89C12.4,83.2,17.1,78.5,22.9,78.5z"/>
		<path class="st1" d="M10.5,66.1H202c5.8,0,10.5,4.7,10.5,10.5v255.2c0,5.8-4.7,10.5-10.5,10.5H10.5c-5.8,0-10.5-4.7-10.5-10.5
			V76.6C0,70.8,4.7,66.1,10.5,66.1z"/>
		<g>
			<path class="st2" d="M107.5,326.1c0.3,0,0.6,0.3,0.6,0.6v3.2c0,0.3-0.3,0.6-0.6,0.6h-3.2c-0.3,0-0.6-0.3-0.6-0.6v-3.2
				c0-0.3,0.3-0.6,0.6-0.6H107.5 M107.5,325.1h-3.2c-0.9,0-1.6,0.7-1.6,1.6v3.2c0,0.9,0.7,1.6,1.6,1.6h3.2c0.9,0,1.6-0.7,1.6-1.6
				v-3.2C109.1,325.8,108.4,325.1,107.5,325.1L107.5,325.1z"/>
		</g>
		<circle class="st3" cx="105.7" cy="80.2" r="3.5"/>
		<rect x="22.1" y="92.4" class="st4" width="168.3" height="224.7"/>
		<g>
			<rect x="21.2" y="92.3" class="st5" width="168.3" height="224.7"/>
			<g>
				<rect x="34.6" y="92.3" class="st6" width="141.6" height="224.9"/>
				<rect x="34.4" y="295" class="st7" width="141.9" height="22.2"/>
				<g>
					<ellipse class="st8" cx="59.5" cy="305.2" rx="5.9" ry="6.4"/>
					<ellipse class="st8" cx="82.5" cy="305.2" rx="5.9" ry="6.4"/>
					<ellipse class="st8" cx="105.4" cy="305.2" rx="5.9" ry="6.4"/>
					<ellipse class="st8" cx="128.3" cy="305.2" rx="5.9" ry="6.4"/>
					<ellipse class="st8" cx="151.2" cy="305.2" rx="5.9" ry="6.4"/>
				</g>
				<rect x="43.4" y="107.8" class="st9" width="94.6" height="8.8"/>
				<rect x="43.4" y="118.9" class="st9" width="119.7" height="8.8"/>
				<rect x="43.4" y="150.8" class="st10" width="124.5" height="12.7"/>
				<rect x="43.4" y="143.6" class="st11" width="33.3" height="3.2"/>
				<rect x="43.4" y="179.5" class="st10" width="124.5" height="12.7"/>
				<rect x="43.4" y="172.3" class="st11" width="33.3" height="3.2"/>
				<rect x="43.4" y="206.5" class="st10" width="124.5" height="12.7"/>
				<rect x="43.4" y="199.4" class="st11" width="33.3" height="3.2"/>
				<rect x="43.4" y="236.8" class="st10" width="56.2" height="12.7"/>
				<rect x="43.4" y="229.6" class="st11" width="15" height="3.2"/>
				<rect x="110.7" y="236.8" class="st10" width="56.2" height="12.7"/>
				<rect x="110.7" y="229.6" class="st11" width="15" height="3.2"/>
				<rect x="43.4" y="267" class="st10" width="124.5" height="12.7"/>
				<rect x="43.4" y="259.8" class="st11" width="33.3" height="3.2"/>
			</g>
		</g>
	</g>
	<g>
		<path class="st0" d="M319.7,340.7c203.6,0,407.3,0,610.9,0c1.9,0,3.6,1.5,3.4,3.3c-0.3,2.2-1.1,4.5-3.5,6.9c-2,2-6.6,3.8-8.4,3.8
			c-195.1-0.9-398.7-0.9-593.7-0.8c-1.9,0-6.5-1.5-8.5-3.3c-2.5-2.2-3.3-4.4-3.6-6.6C316.1,342.2,317.8,340.7,319.7,340.7
			L319.7,340.7L319.7,340.7z"/>
		<path class="st0" d="M845.9,12.4H404.6c-14.6,0-26.5,11.9-26.5,26.5v261.3v12.4v28.2h494.3v-28.2v-12.4V38.8
			C872.4,24.2,860.5,12.4,845.9,12.4z"/>
		<path class="st12" d="M302.1,326.6c203.6,0,407.3,0,610.9,0c1.9,0,3.6,1.5,3.4,3.3c-0.3,2.2-1.1,4.5-3.5,6.9c-2,2-6.6,3.8-8.4,3.8
			c-195.1-0.9-398.7-0.9-593.7-0.8c-1.9,0-6.5-1.5-8.5-3.3c-2.5-2.2-3.3-4.4-3.6-6.6C298.5,328,300.1,326.6,302.1,326.6L302.1,326.6
			L302.1,326.6z"/>
		<path class="st12" d="M828.3,0H387c-14.6,0-26.5,11.9-26.5,26.5v261.3v12.4v28.2h494.3v-28.2v-12.4V26.5
			C854.8,11.9,842.9,0,828.3,0z"/>
		<g>
			<path class="st3" d="M607.6,8.8c1.9,0,3.5,1.6,3.5,3.5c0,1.9-1.6,3.5-3.5,3.5c-1.9,0-3.5-1.6-3.5-3.5
				C604.1,10.4,605.7,8.8,607.6,8.8z"/>
		</g>
		<path class="st4" d="M387,24.7h441.3c1.9,0,3.5,1.6,3.5,3.5v275.4c0,1.9-1.6,3.5-3.5,3.5H387c-1.9,0-3.5-1.6-3.5-3.5V28.2
			C383.4,26.3,385,24.7,387,24.7z"/>
		<g>
			<g>
				<path class="st5" d="M386.7,307.2c-2.2,0-4-1.8-4-4V27.8c0-2.2,1.8-4,4-4H828c2.2,0,4,1.8,4,4v275.4c0,2.2-1.8,4-4,4H386.7z"/>
				<path class="st13" d="M828,24.3c1.9,0,3.5,1.6,3.5,3.5v275.4c0,1.9-1.6,3.5-3.5,3.5H386.7c-1.9,0-3.5-1.6-3.5-3.5V27.8
					c0-1.9,1.6-3.5,3.5-3.5H828 M828,23.3H386.7c-2.5,0-4.5,2-4.5,4.5v275.4c0,2.5,2,4.5,4.5,4.5H828c2.5,0,4.5-2,4.5-4.5V27.8
					C832.6,25.3,830.5,23.3,828,23.3L828,23.3z"/>
			</g>
			<rect x="399" y="43.8" class="st6" width="226" height="263"/>
			<g>
				<defs>
					<rect id="SVGID_1_" x="399" y="43.8" width="226" height="263"/>
				</defs>
				<clipPath id="SVGID_2_">
					<use xlink:href="#SVGID_1_"  style="overflow:visible;"/>
				</clipPath>
				<g class="st14">
					<g>
						<path class="st15" d="M432.9,70.5l-2.6-5.8c-0.3-0.6-0.8-1-1.4-1h-4.7c-0.7,0-1.2,0.4-1.5,1l-9.3,20.4
							c-0.2,0.4-0.2,0.9,0.1,1.2c0.2,0.3,0.5,0.5,1,0.5h10.9c0.7,0,1.2-0.3,1.4-0.8l1.3-2.9h7.4c0,0,0.1,0,0.1,0l0,0
							c0.6,0,1.2-0.3,1.5-0.8c0.4-0.6,0.5-1.4,0.2-2.2L432.9,70.5z"/>
						<path class="st16" d="M436.1,81.1c0,0.2-0.1,0.4-0.1,0.5c-0.1,0.2-0.4,0.3-0.6,0.3h-6.9l4-9l1.9,4.2c1,2.1,1.5,3.4,1.5,3.4
							C436.1,80.8,436.1,80.9,436.1,81.1z"/>
						<path class="st17" d="M425.6,85.5c-0.1,0.1-0.2,0.1-0.3,0.1h-10.8l9.3-20.3c0.1-0.2,0.2-0.3,0.4-0.3h4.7
							c0.1,0,0.2,0.1,0.3,0.2l2.6,5.9l0.1,0.1c0,0.1,0.1,0.1,0.1,0.2s0,0.1-0.1,0.2l0,0c-0.2,0.5-4.4,9.9-5.8,12.9L425.6,85.5z"/>
						<path class="st15" d="M469.2,63.7h-9c-0.4,0-0.9,0.2-1.2,0.5c-0.3,0.3-0.5,0.8-0.5,1.3v15.5c0,0.9,0.6,1.9,1.6,1.9h9
							c0.8,0,1.7-0.7,1.7-1.9V65.7c0-0.8-0.3-1.2-0.5-1.4C470,63.9,469.6,63.7,469.2,63.7z"/>
						<path class="st17" d="M469.2,65c0.1,0,0.1,0,0.2,0.1c0.1,0.1,0.2,0.3,0.2,0.6v15.5c0,0.6-0.5,0.6-0.5,0.6h-9
							c-0.1,0-0.4-0.3-0.4-0.7V65.7c0-0.2,0-0.4,0.1-0.5c0.1-0.1,0.2-0.1,0.3-0.1H469.2z"/>
						<path class="st15" d="M493.5,64.6c-0.3-0.5-0.9-0.9-1.5-0.9H473c-1.4,0-2,1.1-2,2v15.3c0,0.6,0.2,1.1,0.5,1.4
							c0.3,0.3,0.7,0.5,1.2,0.5h8.7c0.8,0,1.8-0.7,1.8-1.9v-3.4h3.4c0.6,0,2.1-0.2,2.8-1.7l4.1-9.4C493.9,66,493.8,65.2,493.5,64.6z
							"/>
						<path class="st17" d="M492.5,65.7c0,0.2-0.1,0.4-0.1,0.5l-4.1,9.3c-0.4,0.8-1.2,0.9-1.7,0.9h-3.4V65h8.7
							c0.2,0,0.4,0.1,0.5,0.3C492.5,65.4,492.5,65.5,492.5,65.7z"/>
						<path class="st17" d="M482,81.1c0,0.5-0.5,0.6-0.6,0.6h-8.7c-0.1,0-0.2,0-0.3-0.1c-0.1-0.1-0.2-0.3-0.2-0.5V65.8
							c0-0.3,0.1-0.8,0.8-0.8h1.4c2.4,0,6.8,0,7,0h0c0,0,0.1,0,0.1,0h0.5V81.1z"/>
						<path class="st15" d="M457,63.7h-17.5c-1.1,0-1.9,0.7-1.9,1.9v15.7c0,1,0.7,1.8,1.6,1.8h9c0.8,0,1.7-0.7,1.7-1.9v-3.5h1.5
							c0.5,0,1,0,1.3-0.1c0.2-0.1,0.4-0.3,0.6-0.6l1.7-3.8c0-0.1,0.1-0.2,0.2-0.3c0.1-0.2,0.2-0.4,0.3-0.7c0.1-0.2,0.2-0.4,0.3-0.7
							l0.3-0.7c0.1-0.2,0.2-0.5,0.4-0.8c0.1-0.1,0.1-0.2,0.2-0.4c0.1-0.2,0.1-0.3,0.2-0.5l1.5-3.5c0.2-0.5,0.2-0.9-0.1-1.4
							C457.9,64,457.5,63.7,457,63.7z"/>
						<path class="st17" d="M457.1,65.2C457.1,65.2,457.1,65.3,457.1,65.2l-1.7,3.9c-0.4,1-0.5,1-1.4,1h-4.1V65h7.1
							c0.1,0,0.1,0,0.1,0.1C457.1,65.1,457.1,65.1,457.1,65.2z"/>
						<path class="st17" d="M451.5,76.5h-1.7v-5.1h4.1c0.1,0,0.1,0,0.2,0.1c0,0.1,0,0.1,0,0.1c0,0.1,0,0.1,0,0.2l0,0.1
							c-0.4,0.8-1.2,2.9-1.7,4.1C452.1,76.5,452.1,76.5,451.5,76.5z"/>
						<path class="st17" d="M438.8,65.6c0-0.5,0.2-0.6,0.7-0.6c0,0,1.3,0,2.8,0c2.5,0,5.8,0,5.8,0c0,0,0,0,0.1,0h0.4v16.1
							c0,0.6-0.5,0.6-0.5,0.6h-9c-0.2,0-0.4-0.2-0.4-0.5L438.8,65.6L438.8,65.6z"/>
					</g>
					<g>
						<rect x="505.9" y="56.1" class="st18" width="4.3" height="34.6"/>
						<rect x="606.6" y="56.1" class="st18" width="4.3" height="34.6"/>
						<rect x="512.2" y="56.1" class="st18" width="2.2" height="27.3"/>
						<rect x="517.1" y="56.1" class="st18" width="3.1" height="27.3"/>
						<rect x="523.1" y="56.1" class="st18" width="1.3" height="27.3"/>
						<rect x="527.9" y="56.1" class="st18" width="2.3" height="27.3"/>
						<rect x="532.5" y="56.1" class="st18" width="3.6" height="27.3"/>
						<rect x="538.2" y="56.1" class="st18" width="2.3" height="27.3"/>
						<rect x="543.2" y="56.1" class="st18" width="3.1" height="27.3"/>
						<rect x="548.6" y="56.1" class="st18" width="2.7" height="27.3"/>
						<rect x="554.2" y="56.1" class="st18" width="2.1" height="27.3"/>
						<rect x="560.5" y="56.1" class="st18" width="2.2" height="27.3"/>
						<rect x="565.5" y="56.1" class="st18" width="3.1" height="27.3"/>
						<rect x="571.5" y="56.1" class="st18" width="1.3" height="27.3"/>
						<rect x="576.3" y="56.1" class="st18" width="2.3" height="27.3"/>
						<rect x="580.8" y="56.1" class="st18" width="3.6" height="27.3"/>
						<rect x="586.6" y="56.1" class="st18" width="2.3" height="27.3"/>
						<rect x="591.5" y="56.1" class="st18" width="3.1" height="27.3"/>
						<rect x="596.9" y="56.1" class="st18" width="2.7" height="27.3"/>
						<rect x="602.6" y="56.1" class="st18" width="2.1" height="27.3"/>
						<g>
							<path class="st18" d="M513.4,88.6c-0.2,0.2-0.4,0.3-0.6,0.3c-0.3,0-0.6-0.1-0.8-0.3c-0.2-0.2-0.3-0.5-0.3-0.9
								c0-0.2,0.1-0.5,0.2-0.7c0.1-0.2,0.3-0.4,0.5-0.5c0.2-0.1,0.4-0.2,0.6-0.2c0.2,0,0.5,0.1,0.6,0.2c0.2,0.1,0.3,0.3,0.5,0.5
								s0.2,0.5,0.2,0.8v0.3c0,0.4-0.1,0.8-0.2,1.1s-0.4,0.5-0.7,0.7c-0.3,0.2-0.6,0.2-1,0.2h-0.1v-0.7l0.2,0
								C513,89.4,513.4,89.1,513.4,88.6z M513.1,88.3c0.2,0,0.3-0.1,0.4-0.2v-0.4c0-0.2,0-0.4-0.1-0.5c-0.1-0.1-0.2-0.2-0.3-0.2
								c-0.1,0-0.2,0.1-0.3,0.2c-0.1,0.1-0.1,0.3-0.1,0.5c0,0.2,0,0.4,0.1,0.5C512.8,88.2,512.9,88.3,513.1,88.3z"/>
							<path class="st18" d="M519.6,87.3c0,0.2,0,0.3-0.1,0.5c-0.1,0.1-0.2,0.2-0.4,0.3c0.2,0.1,0.3,0.2,0.4,0.4
								c0.1,0.2,0.2,0.3,0.2,0.5c0,0.3-0.1,0.6-0.3,0.8c-0.2,0.2-0.5,0.3-0.9,0.3c-0.4,0-0.7-0.1-0.9-0.3c-0.2-0.2-0.3-0.5-0.3-0.8
								c0-0.2,0-0.4,0.1-0.5c0.1-0.2,0.2-0.3,0.4-0.4c-0.2-0.1-0.3-0.2-0.4-0.3c-0.1-0.1-0.1-0.3-0.1-0.5c0-0.3,0.1-0.6,0.3-0.8
								c0.2-0.2,0.5-0.3,0.9-0.3c0.4,0,0.7,0.1,0.9,0.3C519.5,86.8,519.6,87,519.6,87.3z M518.8,89c0-0.2,0-0.3-0.1-0.4
								c-0.1-0.1-0.2-0.1-0.3-0.1c-0.1,0-0.2,0-0.3,0.1c-0.1,0.1-0.1,0.2-0.1,0.4c0,0.1,0,0.3,0.1,0.4c0.1,0.1,0.2,0.1,0.3,0.1
								c0.1,0,0.2,0,0.3-0.1C518.7,89.2,518.8,89.1,518.8,89z M518.4,87c-0.1,0-0.2,0-0.3,0.1c-0.1,0.1-0.1,0.2-0.1,0.3
								c0,0.1,0,0.2,0.1,0.3s0.1,0.1,0.3,0.1c0.1,0,0.2,0,0.3-0.1s0.1-0.2,0.1-0.3c0-0.1,0-0.2-0.1-0.3C518.6,87,518.5,87,518.4,87z
								"/>
							<path class="st18" d="M525,86.8l-1.4,3.3h-0.9l1.4-3.1h-1.7v-0.7h2.6V86.8z"/>
							<path class="st18" d="M529.8,86.3V87h0c-0.3,0-0.6,0.1-0.8,0.2s-0.3,0.4-0.4,0.6c0.2-0.2,0.4-0.3,0.7-0.3
								c0.3,0,0.6,0.1,0.8,0.4c0.2,0.2,0.3,0.5,0.3,0.9c0,0.2-0.1,0.5-0.2,0.7c-0.1,0.2-0.3,0.4-0.5,0.5c-0.2,0.1-0.4,0.2-0.6,0.2
								c-0.3,0-0.5-0.1-0.7-0.2c-0.2-0.1-0.4-0.3-0.5-0.5c-0.1-0.2-0.2-0.5-0.2-0.8v-0.3c0-0.4,0.1-0.7,0.2-1
								c0.2-0.3,0.4-0.5,0.7-0.7c0.3-0.2,0.6-0.3,1-0.3H529.8z M529,88.2c-0.1,0-0.2,0-0.3,0.1c-0.1,0.1-0.1,0.1-0.2,0.2v0.3
								c0,0.5,0.2,0.7,0.5,0.7c0.1,0,0.2-0.1,0.3-0.2c0.1-0.1,0.1-0.3,0.1-0.4c0-0.2,0-0.3-0.1-0.4C529.3,88.3,529.2,88.2,529,88.2z
								"/>
							<path class="st18" d="M533.1,88.3l0.2-1.9h2.1V87h-1.4l-0.1,0.7c0.1,0,0.1-0.1,0.2-0.1c0.1,0,0.2,0,0.3,0
								c0.4,0,0.6,0.1,0.8,0.3c0.2,0.2,0.3,0.5,0.3,0.9c0,0.2-0.1,0.5-0.2,0.7c-0.1,0.2-0.2,0.3-0.4,0.4c-0.2,0.1-0.4,0.2-0.7,0.2
								c-0.2,0-0.4,0-0.6-0.1c-0.2-0.1-0.4-0.2-0.5-0.4c-0.1-0.2-0.2-0.4-0.2-0.6h0.8c0,0.1,0.1,0.2,0.1,0.3
								c0.1,0.1,0.2,0.1,0.3,0.1c0.3,0,0.4-0.2,0.4-0.6c0-0.4-0.2-0.6-0.5-0.6c-0.2,0-0.3,0.1-0.4,0.2L533.1,88.3z"/>
							<path class="st18" d="M540.6,88.6h0.4v0.7h-0.4v0.8h-0.8v-0.8h-1.4l0-0.5l1.5-2.4v0h0.8V88.6z M539.2,88.6h0.7v-1.2l-0.1,0.1
								L539.2,88.6z"/>
							<path class="st18" d="M544.5,87.8h0.4c0.3,0,0.5-0.2,0.5-0.5c0-0.1,0-0.2-0.1-0.3c-0.1-0.1-0.2-0.1-0.3-0.1
								c-0.1,0-0.2,0-0.3,0.1s-0.1,0.1-0.1,0.2h-0.8c0-0.2,0.1-0.4,0.2-0.5c0.1-0.2,0.3-0.3,0.4-0.4c0.2-0.1,0.4-0.1,0.6-0.1
								c0.4,0,0.7,0.1,1,0.3c0.2,0.2,0.3,0.5,0.3,0.8c0,0.2,0,0.3-0.1,0.5s-0.2,0.3-0.4,0.3c0.2,0.1,0.3,0.2,0.5,0.3
								c0.1,0.1,0.2,0.3,0.2,0.5c0,0.3-0.1,0.6-0.4,0.8c-0.2,0.2-0.6,0.3-1,0.3c-0.2,0-0.5,0-0.7-0.1c-0.2-0.1-0.4-0.2-0.5-0.4
								c-0.1-0.2-0.2-0.4-0.2-0.6h0.8c0,0.1,0,0.2,0.1,0.3c0.1,0.1,0.2,0.1,0.3,0.1c0.1,0,0.3,0,0.4-0.1c0.1-0.1,0.1-0.2,0.1-0.3
								c0-0.2,0-0.3-0.1-0.4c-0.1-0.1-0.2-0.1-0.4-0.1h-0.4V87.8z"/>
							<path class="st18" d="M551.6,90.1h-2.5v-0.6l1.2-1.3c0.3-0.3,0.4-0.6,0.4-0.8c0-0.2,0-0.3-0.1-0.4c-0.1-0.1-0.2-0.1-0.3-0.1
								c-0.1,0-0.2,0.1-0.3,0.2c-0.1,0.1-0.1,0.3-0.1,0.4H549c0-0.2,0.1-0.4,0.2-0.6c0.1-0.2,0.3-0.3,0.5-0.5
								c0.2-0.1,0.4-0.2,0.7-0.2c0.4,0,0.7,0.1,0.9,0.3c0.2,0.2,0.3,0.5,0.3,0.8c0,0.1,0,0.3-0.1,0.4c-0.1,0.1-0.1,0.3-0.2,0.4
								c-0.1,0.2-0.3,0.4-0.5,0.6l-0.5,0.6h1.4V90.1z"/>
							<path class="st18" d="M556.3,90.1h-0.8v-2.8l-0.8,0.2v-0.7l1.6-0.6h0.1V90.1z"/>
						</g>
						<g>
							<path class="st18" d="M561.8,88.6c-0.2,0.2-0.4,0.3-0.6,0.3c-0.3,0-0.6-0.1-0.8-0.3c-0.2-0.2-0.3-0.5-0.3-0.9
								c0-0.2,0.1-0.5,0.2-0.7c0.1-0.2,0.3-0.4,0.5-0.5c0.2-0.1,0.4-0.2,0.6-0.2c0.2,0,0.5,0.1,0.6,0.2c0.2,0.1,0.3,0.3,0.5,0.5
								c0.1,0.2,0.2,0.5,0.2,0.8v0.3c0,0.4-0.1,0.8-0.2,1.1c-0.2,0.3-0.4,0.5-0.7,0.7c-0.3,0.2-0.6,0.2-1,0.2h-0.1v-0.7l0.2,0
								C561.4,89.4,561.7,89.1,561.8,88.6z M561.4,88.3c0.2,0,0.3-0.1,0.4-0.2v-0.4c0-0.2,0-0.4-0.1-0.5c-0.1-0.1-0.2-0.2-0.3-0.2
								c-0.1,0-0.2,0.1-0.3,0.2c-0.1,0.1-0.1,0.3-0.1,0.5c0,0.2,0,0.4,0.1,0.5C561.2,88.2,561.3,88.3,561.4,88.3z"/>
							<path class="st18" d="M567.9,87.3c0,0.2,0,0.3-0.1,0.5c-0.1,0.1-0.2,0.2-0.4,0.3c0.2,0.1,0.3,0.2,0.4,0.4
								c0.1,0.2,0.2,0.3,0.2,0.5c0,0.3-0.1,0.6-0.3,0.8c-0.2,0.2-0.5,0.3-0.9,0.3c-0.4,0-0.7-0.1-0.9-0.3c-0.2-0.2-0.3-0.5-0.3-0.8
								c0-0.2,0-0.4,0.1-0.5c0.1-0.2,0.2-0.3,0.4-0.4c-0.2-0.1-0.3-0.2-0.4-0.3c-0.1-0.1-0.1-0.3-0.1-0.5c0-0.3,0.1-0.6,0.3-0.8
								c0.2-0.2,0.5-0.3,0.9-0.3c0.4,0,0.7,0.1,0.9,0.3C567.8,86.8,567.9,87,567.9,87.3z M567.2,89c0-0.2,0-0.3-0.1-0.4
								c-0.1-0.1-0.2-0.1-0.3-0.1s-0.2,0-0.3,0.1c-0.1,0.1-0.1,0.2-0.1,0.4c0,0.1,0,0.3,0.1,0.4c0.1,0.1,0.2,0.1,0.3,0.1
								c0.1,0,0.2,0,0.3-0.1C567.1,89.2,567.2,89.1,567.2,89z M566.7,87c-0.1,0-0.2,0-0.3,0.1c-0.1,0.1-0.1,0.2-0.1,0.3
								c0,0.1,0,0.2,0.1,0.3s0.1,0.1,0.3,0.1c0.1,0,0.2,0,0.3-0.1c0.1-0.1,0.1-0.2,0.1-0.3c0-0.1,0-0.2-0.1-0.3
								C566.9,87,566.9,87,566.7,87z"/>
							<path class="st18" d="M573.3,86.8l-1.4,3.3h-0.9l1.4-3.1h-1.7v-0.7h2.6V86.8z"/>
							<path class="st18" d="M578.2,86.3V87h0c-0.3,0-0.6,0.1-0.8,0.2c-0.2,0.2-0.3,0.4-0.4,0.6c0.2-0.2,0.4-0.3,0.7-0.3
								c0.3,0,0.6,0.1,0.8,0.4c0.2,0.2,0.3,0.5,0.3,0.9c0,0.2-0.1,0.5-0.2,0.7c-0.1,0.2-0.3,0.4-0.5,0.5c-0.2,0.1-0.4,0.2-0.6,0.2
								c-0.3,0-0.5-0.1-0.7-0.2c-0.2-0.1-0.4-0.3-0.5-0.5c-0.1-0.2-0.2-0.5-0.2-0.8v-0.3c0-0.4,0.1-0.7,0.2-1
								c0.2-0.3,0.4-0.5,0.7-0.7s0.6-0.3,1-0.3H578.2z M577.4,88.2c-0.1,0-0.2,0-0.3,0.1c-0.1,0.1-0.1,0.1-0.2,0.2v0.3
								c0,0.5,0.2,0.7,0.5,0.7c0.1,0,0.2-0.1,0.3-0.2c0.1-0.1,0.1-0.3,0.1-0.4c0-0.2,0-0.3-0.1-0.4
								C577.7,88.3,577.6,88.2,577.4,88.2z"/>
							<path class="st18" d="M581.5,88.3l0.2-1.9h2.1V87h-1.4l-0.1,0.7c0.1,0,0.1-0.1,0.2-0.1c0.1,0,0.2,0,0.3,0
								c0.4,0,0.6,0.1,0.8,0.3c0.2,0.2,0.3,0.5,0.3,0.9c0,0.2-0.1,0.5-0.2,0.7c-0.1,0.2-0.2,0.3-0.4,0.4c-0.2,0.1-0.4,0.2-0.7,0.2
								c-0.2,0-0.4,0-0.6-0.1c-0.2-0.1-0.4-0.2-0.5-0.4c-0.1-0.2-0.2-0.4-0.2-0.6h0.8c0,0.1,0.1,0.2,0.1,0.3
								c0.1,0.1,0.2,0.1,0.3,0.1c0.3,0,0.4-0.2,0.4-0.6c0-0.4-0.2-0.6-0.5-0.6c-0.2,0-0.3,0.1-0.4,0.2L581.5,88.3z"/>
							<path class="st18" d="M589,88.6h0.4v0.7H589v0.8h-0.8v-0.8h-1.4l0-0.5l1.5-2.4v0h0.8V88.6z M587.5,88.6h0.7v-1.2l-0.1,0.1
								L587.5,88.6z"/>
							<path class="st18" d="M592.9,87.8h0.4c0.3,0,0.5-0.2,0.5-0.5c0-0.1,0-0.2-0.1-0.3c-0.1-0.1-0.2-0.1-0.3-0.1
								c-0.1,0-0.2,0-0.3,0.1c-0.1,0.1-0.1,0.1-0.1,0.2h-0.8c0-0.2,0.1-0.4,0.2-0.5c0.1-0.2,0.3-0.3,0.4-0.4
								c0.2-0.1,0.4-0.1,0.6-0.1c0.4,0,0.7,0.1,1,0.3c0.2,0.2,0.3,0.5,0.3,0.8c0,0.2,0,0.3-0.1,0.5c-0.1,0.1-0.2,0.3-0.4,0.3
								c0.2,0.1,0.3,0.2,0.5,0.3c0.1,0.1,0.2,0.3,0.2,0.5c0,0.3-0.1,0.6-0.4,0.8c-0.2,0.2-0.6,0.3-1,0.3c-0.2,0-0.5,0-0.7-0.1
								c-0.2-0.1-0.4-0.2-0.5-0.4c-0.1-0.2-0.2-0.4-0.2-0.6h0.8c0,0.1,0,0.2,0.1,0.3c0.1,0.1,0.2,0.1,0.3,0.1c0.1,0,0.3,0,0.4-0.1
								c0.1-0.1,0.1-0.2,0.1-0.3c0-0.2,0-0.3-0.1-0.4c-0.1-0.1-0.2-0.1-0.4-0.1h-0.4V87.8z"/>
							<path class="st18" d="M600,90.1h-2.5v-0.6l1.2-1.3c0.3-0.3,0.4-0.6,0.4-0.8c0-0.2,0-0.3-0.1-0.4c-0.1-0.1-0.2-0.1-0.3-0.1
								c-0.1,0-0.2,0.1-0.3,0.2c-0.1,0.1-0.1,0.3-0.1,0.4h-0.8c0-0.2,0.1-0.4,0.2-0.6c0.1-0.2,0.3-0.3,0.5-0.5
								c0.2-0.1,0.4-0.2,0.7-0.2c0.4,0,0.7,0.1,0.9,0.3c0.2,0.2,0.3,0.5,0.3,0.8c0,0.1,0,0.3-0.1,0.4s-0.1,0.3-0.2,0.4
								c-0.1,0.2-0.3,0.4-0.5,0.6l-0.5,0.6h1.4V90.1z"/>
							<path class="st18" d="M604.6,90.1h-0.8v-2.8l-0.8,0.2v-0.7l1.6-0.6h0.1V90.1z"/>
						</g>
					</g>
					<rect x="413.2" y="105.2" class="st19" width="197.7" height="9"/>
					<rect x="413.2" y="235.9" class="st19" width="97.5" height="9"/>
					<rect x="413.2" y="257.3" class="st19" width="97.5" height="9"/>
					<rect x="413.2" y="278.8" class="st19" width="197.7" height="9"/>
					<rect x="413.2" y="300.2" class="st19" width="197.7" height="9"/>
					<rect x="545.3" y="235.9" class="st19" width="65.7" height="9"/>
					<rect x="545.3" y="257.3" class="st19" width="65.7" height="9"/>
					<g>
						<path class="st20" d="M603,137.4v73.2H421.2v-73.2H603 M611,129.4H413.2v89.2H611V129.4L611,129.4z"/>
					</g>
					<g>
						<line class="st21" x1="417" y1="160.5" x2="607.2" y2="160.5"/>
					</g>
					<line class="st21" x1="418.1" y1="188.9" x2="606.1" y2="188.9"/>
					<line class="st21" x1="542.5" y1="132.9" x2="542.5" y2="218.6"/>
				</g>
			</g>
			<g>
				<defs>
					<path id="SVGID_3_" d="M386.7,24.3H828c1.9,0,3.5,1.6,3.5,3.5v275.4c0,1.9-1.6,3.5-3.5,3.5H386.7c-1.9,0-3.5-1.6-3.5-3.5V27.8
						C383.2,25.8,384.8,24.3,386.7,24.3z"/>
				</defs>
				<clipPath id="SVGID_4_">
					<use xlink:href="#SVGID_3_"  style="overflow:visible;"/>
				</clipPath>
				<g class="st22">
					<rect x="640" y="24.3" class="st6" width="191.6" height="282.5"/>
					<rect x="639.8" y="278.8" class="st7" width="192" height="27.9"/>
					<g>
						<circle class="st8" cx="673.8" cy="291.8" r="8"/>
						<circle class="st8" cx="704.8" cy="291.8" r="8"/>
						<circle class="st8" cx="735.8" cy="291.8" r="8"/>
						<circle class="st8" cx="766.8" cy="291.8" r="8"/>
						<circle class="st8" cx="797.8" cy="291.8" r="8"/>
					</g>
					<rect x="652" y="43.8" class="st9" width="128" height="11.1"/>
					<rect x="652" y="57.7" class="st9" width="162" height="11.1"/>
					<rect x="652" y="97.8" class="st10" width="168.5" height="16"/>
					<rect x="652" y="88.8" class="st11" width="45" height="4"/>
					<rect x="652" y="133.8" class="st10" width="168.5" height="16"/>
					<rect x="652" y="124.8" class="st11" width="45" height="4"/>
					<rect x="652" y="167.8" class="st10" width="168.5" height="16"/>
					<rect x="652" y="158.8" class="st11" width="45" height="4"/>
					<rect x="652" y="205.8" class="st10" width="76" height="16"/>
					<rect x="652" y="196.8" class="st11" width="20.3" height="4"/>
					<rect x="743" y="205.8" class="st10" width="76" height="16"/>
					<rect x="743" y="196.8" class="st11" width="20.3" height="4"/>
					<rect x="652" y="243.8" class="st10" width="168.5" height="16"/>
					<rect x="652" y="234.8" class="st11" width="45" height="4"/>
				</g>
			</g>
		</g>
		<path class="st3" d="M651.7,326.6c0,1.2,0,2.3-0.7,3.5c-1,1.9-6.3,3.6-8.3,3.6c-22.2-0.1-48.1-0.1-70.3-0.2c-2,0-7.3-1.5-8.3-3.5
			c-0.6-1.2-0.7-2.3-0.7-3.5c0,0.1,22.1,0,44.1,0C629.7,326.6,651.7,326.5,651.7,326.6L651.7,326.6z"/>
	</g>
	<g>
		<path class="st0" d="M1036.5,121.2h84c7,0,12.8,5.7,12.8,12.8v207.9c0,7.1-5.7,12.8-12.8,12.8h-84c-7,0-12.8-5.7-12.8-12.8V134
			C1023.7,126.9,1029.4,121.2,1036.5,121.2z"/>
		<path class="st23" d="M1024.1,108.8h84c7,0,12.8,5.7,12.8,12.8v207.9c0,7.1-5.7,12.8-12.8,12.8h-84c-7,0-12.8-5.7-12.8-12.8V121.6
			C1011.4,114.6,1017.1,108.8,1024.1,108.8z"/>
		<rect x="1018.8" y="143" class="st5" width="94.6" height="166.3"/>
		<g>
			<path class="st3" d="M1066.6,115.8c0.9,0,1.6,0.7,1.6,1.6s-0.7,1.6-1.6,1.6c-0.9,0-1.6-0.7-1.6-1.6S1065.8,115.8,1066.6,115.8z"
				/>
		</g>
		<g>
			<path class="st2" d="M1068.4,321.5c0.5,0,0.9,0.4,0.9,0.9v4.6c0,0.5-0.4,0.9-0.9,0.9h-4.6c-0.5,0-0.9-0.4-0.9-0.9v-4.6
				c0-0.5,0.4-0.9,0.9-0.9H1068.4 M1068.4,320.5h-4.6c-1.1,0-1.9,0.9-1.9,1.9v4.6c0,1.1,0.9,1.9,1.9,1.9h4.6c1.1,0,1.9-0.9,1.9-1.9
				v-4.6C1070.3,321.4,1069.4,320.5,1068.4,320.5L1068.4,320.5z"/>
		</g>
		<path class="st3" d="M1058.9,125.9h15.5c1,0,1.8,0.7,1.8,1.6s-0.8,1.6-1.8,1.6h-15.5c-1,0-1.8-0.7-1.8-1.6
			S1057.9,125.9,1058.9,125.9z"/>
		<path class="st6" d="M1096.1,202.2l-6-6l-24,24l-24-24l-6,6l24,24l-24,24l6,6l24-24l24,24l6-6l-24-24L1096.1,202.2z"/>
	</g>
	<g>
		<path class="st6" d="M329.4,454.7c0,4.8-1.7,8.6-5.2,11.3s-8.3,4.1-14.4,4.1c-5.7,0-10.7-1.1-15-3.2v-10.5
			c3.6,1.6,6.6,2.7,9.1,3.4c2.5,0.7,4.8,1,6.8,1c2.5,0,4.4-0.5,5.7-1.4c1.3-0.9,2-2.3,2-4.2c0-1-0.3-2-0.9-2.8
			c-0.6-0.8-1.4-1.6-2.6-2.3c-1.1-0.8-3.4-2-6.9-3.6c-3.2-1.5-5.7-3-7.3-4.4c-1.6-1.4-2.9-3-3.9-4.9c-1-1.9-1.5-4-1.5-6.5
			c0-4.7,1.6-8.4,4.8-11.1c3.2-2.7,7.6-4,13.2-4c2.8,0,5.4,0.3,7.9,1s5.1,1.6,7.9,2.8l-3.6,8.8c-2.8-1.2-5.2-2-7-2.4
			c-1.9-0.5-3.7-0.7-5.5-0.7c-2.1,0-3.8,0.5-4.9,1.5c-1.1,1-1.7,2.3-1.7,3.9c0,1,0.2,1.9,0.7,2.6s1.2,1.5,2.2,2.1
			c1,0.7,3.4,1.9,7.1,3.7c5,2.4,8.4,4.8,10.2,7.1C328.5,448.3,329.4,451.2,329.4,454.7z"/>
		<path class="st6" d="M369.6,469.5H339v-53.1h30.6v9.2h-19.3v11.7h18v9.2h-18v13.7h19.3V469.5z"/>
		<path class="st6" d="M403.2,469.5l-12.8-41.7h-0.3c0.5,8.5,0.7,14.1,0.7,17v24.7h-10.1v-53.1H396l12.6,40.6h0.2l13.3-40.6h15.3
			v53.1H427v-25.1c0-1.2,0-2.6,0.1-4.1c0-1.5,0.2-5.7,0.5-12.4h-0.3l-13.7,41.6H403.2z"/>
		<path class="st6" d="M450.9,469.5v-53.1h11.3v53.1H450.9z"/>
		<path class="st6" d="M506.1,449.1v20.4h-11.3v-53.1h15.5c7.2,0,12.6,1.3,16,3.9c3.5,2.6,5.2,6.6,5.2,12c0,3.1-0.9,5.9-2.6,8.3
			c-1.7,2.4-4.2,4.3-7.3,5.7c8,11.9,13.2,19.7,15.6,23.1h-12.5l-12.7-20.4H506.1z M506.1,439.9h3.6c3.6,0,6.2-0.6,7.9-1.8
			c1.7-1.2,2.5-3.1,2.5-5.6c0-2.5-0.9-4.3-2.6-5.4c-1.7-1.1-4.4-1.6-8-1.6h-3.4V439.9z"/>
		<path class="st6" d="M574.6,469.5H544v-53.1h30.6v9.2h-19.3v11.7h18v9.2h-18v13.7h19.3V469.5z"/>
		<path class="st6" d="M617,454.7c0,4.8-1.7,8.6-5.2,11.3s-8.3,4.1-14.4,4.1c-5.7,0-10.7-1.1-15-3.2v-10.5c3.6,1.6,6.6,2.7,9.1,3.4
			c2.5,0.7,4.8,1,6.8,1c2.5,0,4.4-0.5,5.7-1.4c1.3-0.9,2-2.3,2-4.2c0-1-0.3-2-0.9-2.8c-0.6-0.8-1.4-1.6-2.6-2.3
			c-1.1-0.8-3.4-2-6.9-3.6c-3.2-1.5-5.7-3-7.3-4.4c-1.6-1.4-2.9-3-3.9-4.9c-1-1.9-1.5-4-1.5-6.5c0-4.7,1.6-8.4,4.8-11.1
			c3.2-2.7,7.6-4,13.2-4c2.8,0,5.4,0.3,7.9,1s5.1,1.6,7.9,2.8l-3.6,8.8c-2.8-1.2-5.2-2-7-2.4c-1.9-0.5-3.7-0.7-5.5-0.7
			c-2.1,0-3.8,0.5-4.9,1.5c-1.1,1-1.7,2.3-1.7,3.9c0,1,0.2,1.9,0.7,2.6s1.2,1.5,2.2,2.1c1,0.7,3.4,1.9,7.1,3.7
			c5,2.4,8.4,4.8,10.2,7.1C616.1,448.3,617,451.2,617,454.7z"/>
		<path class="st6" d="M663.3,432.9c0,5.7-1.8,10.1-5.4,13.1c-3.6,3-8.7,4.5-15.2,4.5h-4.8v18.9h-11.3v-53.1h17
			c6.4,0,11.3,1.4,14.7,4.2C661.6,423.3,663.3,427.4,663.3,432.9z M637.9,441.3h3.7c3.5,0,6.1-0.7,7.8-2.1c1.7-1.4,2.6-3.4,2.6-6
			c0-2.6-0.7-4.6-2.2-5.8c-1.4-1.3-3.7-1.9-6.8-1.9h-5.1V441.3z"/>
		<path class="st6" d="M721.6,442.8c0,8.8-2.2,15.6-6.5,20.3c-4.4,4.7-10.6,7.1-18.8,7.1c-8.1,0-14.4-2.4-18.8-7.1
			s-6.5-11.5-6.5-20.3c0-8.8,2.2-15.6,6.6-20.3c4.4-4.7,10.6-7,18.8-7s14.4,2.4,18.7,7C719.4,427.3,721.6,434,721.6,442.8z
			 M682.8,442.8c0,5.9,1.1,10.4,3.4,13.4s5.6,4.5,10.1,4.5c9,0,13.5-6,13.5-17.9c0-12-4.5-18-13.4-18c-4.5,0-7.9,1.5-10.1,4.5
			S682.8,436.9,682.8,442.8z"/>
		<path class="st6" d="M779.7,469.5h-14.3l-23.1-40.2H742c0.5,7.1,0.7,12.2,0.7,15.2v25h-10.1v-53.1h14.2l23.1,39.8h0.3
			c-0.4-6.9-0.5-11.8-0.5-14.6v-25.1h10.1V469.5z"/>
		<path class="st6" d="M824.5,454.7c0,4.8-1.7,8.6-5.2,11.3s-8.3,4.1-14.4,4.1c-5.7,0-10.7-1.1-15-3.2v-10.5
			c3.6,1.6,6.6,2.7,9.1,3.4c2.5,0.7,4.8,1,6.8,1c2.5,0,4.4-0.5,5.7-1.4c1.3-0.9,2-2.3,2-4.2c0-1-0.3-2-0.9-2.8
			c-0.6-0.8-1.4-1.6-2.6-2.3c-1.1-0.8-3.4-2-6.9-3.6c-3.2-1.5-5.7-3-7.3-4.4c-1.6-1.4-2.9-3-3.9-4.9c-1-1.9-1.5-4-1.5-6.5
			c0-4.7,1.6-8.4,4.8-11.1c3.2-2.7,7.6-4,13.2-4c2.8,0,5.4,0.3,7.9,1s5.1,1.6,7.9,2.8l-3.6,8.8c-2.8-1.2-5.2-2-7-2.4
			c-1.9-0.5-3.7-0.7-5.5-0.7c-2.1,0-3.8,0.5-4.9,1.5c-1.1,1-1.7,2.3-1.7,3.9c0,1,0.2,1.9,0.7,2.6s1.2,1.5,2.2,2.1
			c1,0.7,3.4,1.9,7.1,3.7c5,2.4,8.4,4.8,10.2,7.1C823.5,448.3,824.5,451.2,824.5,454.7z"/>
		<path class="st6" d="M834.1,469.5v-53.1h11.3v53.1H834.1z"/>
		<path class="st6" d="M889,416.3h11.4l-18.1,53.1h-12.3l-18-53.1h11.4l10,31.6c0.6,1.9,1.1,4,1.7,6.5c0.6,2.5,1,4.2,1.1,5.2
			c0.3-2.2,1.2-6.1,2.7-11.7L889,416.3z"/>
		<path class="st6" d="M937.7,469.5h-30.6v-53.1h30.6v9.2h-19.3v11.7h18v9.2h-18v13.7h19.3V469.5z"/>
	</g>
</g>
</svg>
