<?xml version="1.0" encoding="utf-8"?>
<!-- Generator: Adobe Illustrator 22.1.0, SVG Export Plug-In . SVG Version: 6.00 Build 0)  -->
<svg version="1.1" id="Capa_1" xmlns="http://www.w3.org/2000/svg" xmlns:xlink="http://www.w3.org/1999/xlink" x="0px" y="0px"
	 viewBox="0 0 859 335.2" style="enable-background:new 0 0 859 335.2;" xml:space="preserve">
<style type="text/css">
	.st0{fill:#FFFFFF;}
</style>
<g>
	<g>
		<path class="st0" d="M86.5,24.1h21.1v27.5c-3.4,1.1-6.6,1.9-9.6,2.3c-3,0.4-6.1,0.7-9.2,0.7c-8,0-14.1-2.4-18.4-7.1
			c-4.2-4.7-6.3-11.5-6.3-20.3c0-8.6,2.5-15.3,7.4-20.1C76.2,2.5,83,0.1,91.7,0.1c5.5,0,10.7,1.1,15.8,3.3l-3.7,9
			c-3.9-1.9-7.9-2.9-12.1-2.9c-4.9,0-8.8,1.6-11.7,4.9c-2.9,3.3-4.4,7.7-4.4,13.2c0,5.8,1.2,10.2,3.5,13.2c2.4,3,5.8,4.6,10.3,4.6
			c2.3,0,4.7-0.2,7.2-0.7V33.5H86.5V24.1z"/>
		<path class="st0" d="M150.8,54h-30.6V0.8h30.6v9.2h-19.3v11.7h18V31h-18v13.7h19.3V54z"/>
		<path class="st0" d="M209,54h-14.3l-23.1-40.2h-0.3c0.5,7.1,0.7,12.2,0.7,15.2v25h-10.1V0.8h14.2l23.1,39.8h0.3
			c-0.4-6.9-0.5-11.8-0.5-14.6V0.8H209V54z"/>
		<path class="st0" d="M253,54h-30.6V0.8H253v9.2h-19.3v11.7h18V31h-18v13.7H253V54z"/>
		<path class="st0" d="M275.3,33.6V54h-11.3V0.8h15.5c7.2,0,12.6,1.3,16,3.9c3.5,2.6,5.2,6.6,5.2,12c0,3.1-0.9,5.9-2.6,8.3
			c-1.7,2.4-4.2,4.3-7.3,5.7c8,11.9,13.2,19.7,15.6,23.1H294l-12.7-20.4H275.3z M275.3,24.4h3.6c3.6,0,6.2-0.6,7.9-1.8
			c1.7-1.2,2.5-3.1,2.5-5.6c0-2.5-0.9-4.3-2.6-5.4c-1.7-1.1-4.4-1.6-8-1.6h-3.4V24.4z"/>
		<path class="st0" d="M345.7,54l-3.9-12.6h-19.4L318.6,54h-12.1l18.8-53.3H339L357.8,54H345.7z M339.2,31.9
			c-3.6-11.5-5.6-17.9-6-19.4c-0.4-1.5-0.8-2.7-1-3.6c-0.8,3.1-3.1,10.8-6.9,23H339.2z"/>
		<path class="st0" d="M408.6,26.9c0,8.7-2.5,15.4-7.5,20.1c-5,4.7-12.2,7-21.6,7h-15V0.8h16.7c8.7,0,15.4,2.3,20.2,6.9
			C406.2,12.3,408.6,18.7,408.6,26.9z M396.9,27.2c0-11.4-5-17.1-15.1-17.1h-6v34.6h4.8C391.5,44.7,396.9,38.8,396.9,27.2z"/>
		<path class="st0" d="M467.8,27.3c0,8.8-2.2,15.6-6.5,20.3c-4.4,4.7-10.6,7.1-18.8,7.1c-8.1,0-14.4-2.4-18.8-7.1
			c-4.4-4.7-6.5-11.5-6.5-20.3c0-8.8,2.2-15.6,6.6-20.3c4.4-4.7,10.6-7,18.8-7s14.4,2.4,18.7,7C465.7,11.8,467.8,18.5,467.8,27.3z
			 M429.1,27.3c0,5.9,1.1,10.4,3.4,13.4s5.6,4.5,10.1,4.5c9,0,13.5-6,13.5-17.9c0-12-4.5-18-13.4-18c-4.5,0-7.9,1.5-10.1,4.5
			C430.2,16.9,429.1,21.4,429.1,27.3z"/>
		<path class="st0" d="M490.1,33.6V54h-11.3V0.8h15.5c7.2,0,12.6,1.3,16,3.9c3.5,2.6,5.2,6.6,5.2,12c0,3.1-0.9,5.9-2.6,8.3
			c-1.7,2.4-4.2,4.3-7.3,5.7c8,11.9,13.2,19.7,15.6,23.1h-12.5l-12.7-20.4H490.1z M490.1,24.4h3.6c3.6,0,6.2-0.6,7.9-1.8
			c1.7-1.2,2.5-3.1,2.5-5.6c0-2.5-0.9-4.3-2.6-5.4c-1.7-1.1-4.4-1.6-8-1.6h-3.4V24.4z"/>
		<path class="st0" d="M591.4,26.9c0,8.7-2.5,15.4-7.5,20.1c-5,4.7-12.2,7-21.6,7h-15V0.8H564c8.7,0,15.4,2.3,20.2,6.9
			C589,12.3,591.4,18.7,591.4,26.9z M579.7,27.2c0-11.4-5-17.1-15.1-17.1h-6v34.6h4.8C574.3,44.7,579.7,38.8,579.7,27.2z"/>
		<path class="st0" d="M633,54h-30.6V0.8H633v9.2h-19.3v11.7h18V31h-18v13.7H633V54z"/>
		<path class="st0" d="M700.1,17.4c0,5.7-1.8,10.1-5.4,13.1c-3.6,3-8.7,4.5-15.2,4.5h-4.8V54h-11.3V0.8h17c6.4,0,11.3,1.4,14.7,4.2
			C698.4,7.8,700.1,11.9,700.1,17.4z M674.7,25.8h3.7c3.5,0,6.1-0.7,7.8-2.1c1.7-1.4,2.6-3.4,2.6-6c0-2.6-0.7-4.6-2.2-5.9
			c-1.4-1.3-3.7-1.9-6.8-1.9h-5.1V25.8z"/>
		<path class="st0" d="M754.2,26.9c0,8.7-2.5,15.4-7.5,20.1c-5,4.7-12.2,7-21.6,7h-15V0.8h16.7c8.7,0,15.4,2.3,20.2,6.9
			C751.8,12.3,754.2,18.7,754.2,26.9z M742.5,27.2c0-11.4-5-17.1-15.1-17.1h-6v34.6h4.8C737.1,44.7,742.5,38.8,742.5,27.2z"/>
		<path class="st0" d="M776.3,54h-11.1V0.8h30.5v9.2h-19.4v13.7h18V33h-18V54z"/>
	</g>
	<g>
		<path class="st0" d="M319.4,101.7c-2.9,0-5.2,1-6.9,2.9c-1.7,1.9-2.5,4.6-2.5,8c0,3.5,0.8,6.2,2.4,8.1c1.6,1.9,4,2.8,7,2.8
			c1.9,0,4-0.3,6.3-1v2.7c-1.8,0.7-4.1,1-6.8,1c-3.9,0-6.9-1.2-9.1-3.6s-3.2-5.7-3.2-10.1c0-2.7,0.5-5.1,1.5-7.2
			c1-2.1,2.5-3.6,4.4-4.8c1.9-1.1,4.2-1.7,6.8-1.7c2.8,0,5.2,0.5,7.3,1.5l-1.3,2.7C323.4,102.2,321.4,101.7,319.4,101.7z"/>
		<path class="st0" d="M343.3,125.9l-0.6-2.8h-0.1c-1,1.2-2,2.1-3,2.5s-2.2,0.7-3.7,0.7c-2,0-3.5-0.5-4.6-1.5
			c-1.1-1-1.7-2.5-1.7-4.3c0-4,3.2-6.1,9.6-6.3l3.4-0.1v-1.2c0-1.6-0.3-2.7-1-3.5c-0.7-0.7-1.7-1.1-3.2-1.1c-1.7,0-3.5,0.5-5.6,1.5
			l-0.9-2.3c1-0.5,2.1-1,3.2-1.3s2.3-0.5,3.5-0.5c2.4,0,4.1,0.5,5.3,1.6c1.1,1.1,1.7,2.7,1.7,5.1v13.6H343.3z M336.5,123.7
			c1.9,0,3.4-0.5,4.4-1.5c1.1-1,1.6-2.5,1.6-4.3v-1.8l-3,0.1c-2.4,0.1-4.1,0.5-5.2,1.1c-1.1,0.7-1.6,1.7-1.6,3.1
			c0,1.1,0.3,1.9,1,2.5C334.4,123.5,335.3,123.7,336.5,123.7z"/>
		<path class="st0" d="M360.8,105.6c0.9,0,1.7,0.1,2.4,0.2l-0.4,2.8c-0.8-0.2-1.6-0.3-2.2-0.3c-1.6,0-3,0.7-4.1,2
			c-1.1,1.3-1.7,2.9-1.7,4.9v10.7h-3V106h2.5l0.3,3.7h0.1c0.7-1.3,1.6-2.3,2.7-3C358.4,105.9,359.6,105.6,360.8,105.6z"/>
		<path class="st0" d="M373.3,123.7c0.5,0,1,0,1.5-0.1c0.5-0.1,0.9-0.2,1.2-0.2v2.3c-0.3,0.2-0.8,0.3-1.4,0.4
			c-0.6,0.1-1.2,0.2-1.7,0.2c-3.9,0-5.8-2-5.8-6.1v-11.8h-2.9v-1.5l2.9-1.3l1.3-4.3h1.7v4.6h5.8v2.3h-5.8V120c0,1.2,0.3,2.1,0.9,2.8
			C371.6,123.4,372.4,123.7,373.3,123.7z"/>
		<path class="st0" d="M392.3,125.9l-0.6-2.8h-0.1c-1,1.2-2,2.1-3,2.5s-2.2,0.7-3.7,0.7c-2,0-3.5-0.5-4.6-1.5
			c-1.1-1-1.7-2.5-1.7-4.3c0-4,3.2-6.1,9.6-6.3l3.4-0.1v-1.2c0-1.6-0.3-2.7-1-3.5c-0.7-0.7-1.7-1.1-3.2-1.1c-1.7,0-3.5,0.5-5.6,1.5
			l-0.9-2.3c1-0.5,2.1-1,3.2-1.3s2.3-0.5,3.5-0.5c2.4,0,4.1,0.5,5.3,1.6c1.1,1.1,1.7,2.7,1.7,5.1v13.6H392.3z M385.5,123.7
			c1.9,0,3.4-0.5,4.4-1.5c1.1-1,1.6-2.5,1.6-4.3v-1.8l-3,0.1c-2.4,0.1-4.1,0.5-5.2,1.1c-1.1,0.7-1.6,1.7-1.6,3.1
			c0,1.1,0.3,1.9,1,2.5C383.4,123.5,384.3,123.7,385.5,123.7z"/>
		<path class="st0" d="M424,123.2h-0.2c-1.4,2-3.5,3-6.3,3c-2.6,0-4.6-0.9-6.1-2.7c-1.4-1.8-2.2-4.3-2.2-7.6c0-3.3,0.7-5.8,2.2-7.6
			c1.5-1.8,3.5-2.7,6.1-2.7c2.7,0,4.8,1,6.2,2.9h0.2l-0.1-1.4l-0.1-1.4v-8.1h3v28.3h-2.5L424,123.2z M417.9,123.7
			c2.1,0,3.6-0.6,4.5-1.7c0.9-1.1,1.4-2.9,1.4-5.4V116c0-2.8-0.5-4.8-1.4-6c-0.9-1.2-2.4-1.8-4.5-1.8c-1.8,0-3.1,0.7-4.1,2.1
			c-0.9,1.4-1.4,3.3-1.4,5.8c0,2.5,0.5,4.5,1.4,5.8C414.8,123.1,416.1,123.7,417.9,123.7z"/>
		<path class="st0" d="M441.6,126.2c-2.9,0-5.3-0.9-7-2.7c-1.7-1.8-2.6-4.3-2.6-7.5c0-3.2,0.8-5.8,2.4-7.6c1.6-1.9,3.7-2.8,6.4-2.8
			c2.5,0,4.5,0.8,5.9,2.5c1.5,1.6,2.2,3.8,2.2,6.5v1.9h-13.7c0.1,2.3,0.7,4.1,1.8,5.3c1.1,1.2,2.7,1.8,4.7,1.8
			c2.1,0,4.3-0.4,6.4-1.3v2.7c-1.1,0.5-2.1,0.8-3,1C444.1,126.1,443,126.2,441.6,126.2z M440.8,108.1c-1.6,0-2.9,0.5-3.8,1.6
			c-1,1-1.5,2.5-1.7,4.3h10.4c0-1.9-0.4-3.4-1.3-4.4C443.6,108.6,442.4,108.1,440.8,108.1z"/>
		<path class="st0" d="M481.1,107c0,2.7-0.9,4.8-2.8,6.2c-1.8,1.4-4.5,2.2-7.9,2.2h-3.1v10.4h-3.1V99.3h6.9
			C477.7,99.3,481.1,101.9,481.1,107z M467.3,112.8h2.8c2.7,0,4.7-0.4,5.9-1.3s1.8-2.3,1.8-4.3c0-1.8-0.6-3.1-1.7-3.9
			c-1.2-0.9-2.9-1.3-5.4-1.3h-3.5V112.8z"/>
		<path class="st0" d="M503.3,115.9c0,3.2-0.8,5.8-2.5,7.6c-1.6,1.8-3.9,2.7-6.8,2.7c-1.8,0-3.4-0.4-4.7-1.3c-1.4-0.8-2.4-2-3.2-3.6
			s-1.1-3.4-1.1-5.5c0-3.2,0.8-5.8,2.4-7.6c1.6-1.8,3.9-2.7,6.8-2.7c2.8,0,5,0.9,6.6,2.8C502.5,110.2,503.3,112.7,503.3,115.9z
			 M488.2,115.9c0,2.5,0.5,4.5,1.5,5.8c1,1.3,2.5,2,4.5,2s3.5-0.7,4.5-2c1-1.3,1.5-3.3,1.5-5.8c0-2.5-0.5-4.5-1.5-5.8
			c-1-1.3-2.5-2-4.5-2c-2,0-3.5,0.6-4.5,1.9C488.7,111.4,488.2,113.3,488.2,115.9z"/>
		<path class="st0" d="M517.7,105.6c0.9,0,1.7,0.1,2.4,0.2l-0.4,2.8c-0.8-0.2-1.6-0.3-2.2-0.3c-1.6,0-3,0.7-4.1,2
			c-1.1,1.3-1.7,2.9-1.7,4.9v10.7h-3V106h2.5l0.3,3.7h0.1c0.7-1.3,1.6-2.3,2.7-3C515.3,105.9,516.5,105.6,517.7,105.6z"/>
		<path class="st0" d="M530.3,123.7c0.5,0,1,0,1.5-0.1c0.5-0.1,0.9-0.2,1.2-0.2v2.3c-0.3,0.2-0.8,0.3-1.4,0.4
			c-0.6,0.1-1.2,0.2-1.7,0.2c-3.9,0-5.8-2-5.8-6.1v-11.8h-2.9v-1.5l2.9-1.3l1.3-4.3h1.7v4.6h5.8v2.3h-5.8V120c0,1.2,0.3,2.1,0.9,2.8
			C528.5,123.4,529.3,123.7,530.3,123.7z"/>
		<path class="st0" d="M545.4,126.2c-2.9,0-5.3-0.9-7-2.7c-1.7-1.8-2.6-4.3-2.6-7.5c0-3.2,0.8-5.8,2.4-7.6c1.6-1.9,3.7-2.8,6.4-2.8
			c2.5,0,4.5,0.8,5.9,2.5c1.5,1.6,2.2,3.8,2.2,6.5v1.9H539c0.1,2.3,0.7,4.1,1.8,5.3c1.1,1.2,2.7,1.8,4.7,1.8c2.1,0,4.3-0.4,6.4-1.3
			v2.7c-1.1,0.5-2.1,0.8-3,1C547.9,126.1,546.7,126.2,545.4,126.2z M544.6,108.1c-1.6,0-2.9,0.5-3.8,1.6c-1,1-1.5,2.5-1.7,4.3h10.4
			c0-1.9-0.4-3.4-1.3-4.4C547.3,108.6,546.1,108.1,544.6,108.1z"/>
	</g>
	<g>
		<g>
			<path class="st0" d="M344.3,233.5c-1,0-1.9,0.8-1.9,1.9v15.2l-7.3,7.4v-22.6c0-1-0.8-1.9-1.9-1.9s-1.9,0.8-1.9,1.9V258l-7.3-7.4
				v-15.2c0-1-0.8-1.9-1.9-1.9s-1.9,0.8-1.9,1.9v67c0,0.5,0.2,1,0.5,1.3l10.5,10.7v18.9c0,1,0.8,1.9,1.9,1.9c1,0,1.9-0.8,1.9-1.9
				v-18.9l10.5-10.7c0.3-0.4,0.5-0.8,0.5-1.3v-67C346.2,234.3,345.4,233.5,344.3,233.5z M342.4,284.6l-7.3,7.4v-2.2
				c0-1-0.8-1.9-1.9-1.9c-1,0-1.9,0.8-1.9,1.9v2.2l-7.3-7.4V273l7.3,7.4v1.8c0,1,0.8,1.9,1.9,1.9c1,0,1.9-0.9,1.9-1.9v-1.8l7.3-7.4
				V284.6z M342.4,267.6l-7.3,7.4v-11.6l7.3-7.4V267.6z M331.4,275l-7.3-7.4V256l7.3,7.4V275z M324.1,290l7.3,7.4V309l-7.3-7.4V290
				L324.1,290z M335.2,297.4l7.3-7.4v11.6l-7.3,7.4V297.4z"/>
			<path class="st0" d="M283.6,233.5c-1,0-1.9,0.8-1.9,1.9v15.2l-7.3,7.4v-22.6c0-1-0.9-1.9-1.9-1.9s-1.9,0.8-1.9,1.9V258l-7.3-7.4
				v-15.2c0-1-0.9-1.9-1.9-1.9c-1,0-1.9,0.8-1.9,1.9v67c0,0.5,0.2,1,0.5,1.3l10.5,10.7v18.9c0,1,0.9,1.9,1.9,1.9s1.9-0.8,1.9-1.9
				v-18.9l10.5-10.7c0.3-0.4,0.5-0.8,0.5-1.3v-67C285.5,234.3,284.6,233.5,283.6,233.5z M272.5,304.8c-1,0-1.9,0.8-1.9,1.9v2.2
				l-7.3-7.4V290l7.3,7.4v1.8c0,1,0.9,1.9,1.9,1.9c1,0,1.9-0.9,1.9-1.9v-1.8l7.3-7.4v11.6l-7.3,7.4v-2.2
				C274.4,305.7,273.6,304.8,272.5,304.8z M281.7,284.6l-7.3,7.4v-11.6l7.3-7.4V284.6z M263.3,273l7.3,7.4V292l-7.3-7.4V273z
				 M281.7,267.6l-7.3,7.4v-11.6l7.3-7.4V267.6z M270.6,275l-7.3-7.4V256l7.3,7.4V275z"/>
			<path class="st0" d="M313.9,216.2c-1,0-1.9,0.8-1.9,1.9v15.2l-7.3,7.4v-22.6c0-1-0.9-1.9-1.9-1.9c-1,0-1.9,0.8-1.9,1.9v22.6
				l-7.3-7.4v-15.2c0-1-0.9-1.9-1.9-1.9s-1.9,0.8-1.9,1.9v67c0,0.5,0.2,1,0.5,1.3l10.5,10.7v36.1c0,1,0.9,1.9,1.9,1.9
				c1,0,1.9-0.8,1.9-1.9v-36.1l10.5-10.7c0.3-0.4,0.5-0.8,0.5-1.3v-67C315.8,217,315,216.2,313.9,216.2z M302.9,249.7
				c1,0,1.9-0.9,1.9-1.9v-1.8l7.3-7.4v11.6l-7.3,7.4v-2.2c0-1-0.8-1.9-1.9-1.9c-1,0-1.9,0.8-1.9,1.9v2.2l-7.3-7.4v-11.6l7.3,7.4v1.8
				C301,248.9,301.8,249.7,302.9,249.7z M312,267.3l-7.3,7.4v-11.6l7.3-7.4V267.3z M293.7,255.7l7.3,7.4v11.6l-7.3-7.4V255.7z
				 M293.7,272.7l7.3,7.4v11.6l-7.3-7.4V272.7z M304.8,280.1l7.3-7.4v11.6l-7.3,7.4V280.1L304.8,280.1z"/>
		</g>
		<g>
			<path class="st0" d="M100.3,301.2c-0.1-0.1-0.2-0.2-0.4-0.3c-3.3-2.6-7-4.8-10.9-6.3c-0.1-0.1-0.2-0.1-0.3-0.1
				c-4.1-1.5-8.5-2.5-13.1-2.6c-0.3-0.5-0.9-0.8-1.5-0.8c-0.6,0-1.2,0.3-1.5,0.8c-4.6,0.2-9,1.1-13.1,2.6c-0.1,0-0.2,0.1-0.3,0.1
				c-4,1.5-7.7,3.7-10.9,6.3c-0.1,0.1-0.3,0.2-0.4,0.3c-9.3,7.6-15.2,19.1-15.2,32c0,1,0.8,1.9,1.9,1.9s1.9-0.8,1.9-1.9
				c0-10.3,4.2-19.6,10.9-26.4v26c0,0.1,0,0.3,0,0.4c0.2,0.9,0.9,1.5,1.9,1.5s1.7-0.6,1.9-1.5c0-0.1,0-0.3,0-0.4v-29.4
				c2.2-1.7,4.5-3.1,7-4.3v16c0,1,0.8,1.9,1.9,1.9h28.2c1,0,1.9-0.8,1.9-1.9v-16c2.5,1.2,4.8,2.6,7,4.3v29.4c0,0.1,0,0.3,0,0.4
				c0.2,0.9,0.9,1.5,1.9,1.5s1.7-0.6,1.9-1.5c0-0.1,0-0.3,0-0.4v-26c6.7,6.8,10.9,16.1,10.9,26.4c0,1,0.8,1.9,1.9,1.9
				s1.9-0.8,1.9-1.9C115.5,320.4,109.6,308.8,100.3,301.2z M61.9,313.3v-15.6c3.3-1.1,6.7-1.8,10.3-2v4.9c0,1,0.8,1.9,1.9,1.9
				s1.9-0.8,1.9-1.9v-4.9c3.6,0.2,7,0.9,10.3,2v15.6H61.9z"/>
			<path class="st0" d="M38.2,252.5v-34.4c0-1-0.8-1.9-1.9-1.9s-1.9,0.8-1.9,1.9v32.5h-7.7v-32.5c0-1-0.8-1.9-1.9-1.9
				s-1.9,0.8-1.9,1.9v32.5h-7.7v-32.5c0-1-0.8-1.9-1.9-1.9s-1.9,0.8-1.9,1.9v32.5H3.8v-32.5c0-1-0.8-1.9-1.9-1.9S0,217,0,218.1v34.4
				c0,5.4,4.4,9.8,9.8,9.8h7.4v71c0,1,0.8,1.9,1.9,1.9s1.9-0.8,1.9-1.9v-71h7.4C33.8,262.3,38.2,257.9,38.2,252.5z M4.1,254.4h30
				c-0.8,2.4-3.1,4.1-5.7,4.1H9.8C7.2,258.5,4.9,256.7,4.1,254.4z"/>
			<path class="st0" d="M44.1,262.3h8.5c-0.1,0.7-0.1,1.4-0.1,2.1c0,11.9,9.7,21.7,21.7,21.7c11.9,0,21.7-9.7,21.7-21.7
				c0-0.7,0-1.4-0.1-2.1h8.4c1,0,1.9-0.8,1.9-1.9s-0.8-1.9-1.9-1.9H95l-4.4-18.3c-0.4-1.8-1.6-3.3-3.1-4.2c-1.6-0.9-3.4-1.1-5.2-0.6
				l-7.9,2.4l-7.9-2.4c-1.8-0.5-3.6-0.3-5.2,0.6c-1.6,0.9-2.7,2.4-3.2,4.2l-4.7,18.4h-9.2c-1,0-1.9,0.8-1.9,1.9
				C42.2,261.4,43,262.3,44.1,262.3z M63.1,239.2c0.7-0.4,1.5-0.5,2.3-0.2l8.4,2.5c0.4,0.1,0.7,0.1,1.1,0l8.4-2.5
				c0.8-0.2,1.6-0.1,2.2,0.2c0.7,0.4,1.2,1,1.3,1.8l4.2,17.4H57.2l4.5-17.4C61.9,240.3,62.4,239.6,63.1,239.2z M92,264.4
				c0,9.8-8,17.9-17.9,17.9s-17.9-8-17.9-17.9c0-0.7,0-1.4,0.1-2.1h35.5C91.9,263,92,263.7,92,264.4z"/>
			<path class="st0" d="M88.2,320.9H72.7c-1,0-1.9,0.8-1.9,1.9c0,1,0.8,1.9,1.9,1.9h15.5c1,0,1.9-0.8,1.9-1.9
				C90.1,321.7,89.2,320.9,88.2,320.9z"/>
			<path class="st0" d="M65.1,320.9H60c-1,0-1.9,0.8-1.9,1.9c0,1,0.8,1.9,1.9,1.9h5.1c1,0,1.9-0.8,1.9-1.9
				C67,321.7,66.1,320.9,65.1,320.9z"/>
		</g>
		<g>
			<path class="st0" d="M595.5,331.3l-3.6,0v-87.1c0.6-0.3,1.1-1,1.1-1.7c0-0.8-0.5-1.4-1.1-1.7c-0.9-13.7-12.3-24.6-26.3-24.6
				s-25.4,10.9-26.3,24.6c-0.7,0.3-1.1,1-1.1,1.7c0,0.8,0.4,1.4,1.1,1.7v46.6l-34.7,7.7c-1,0.2-1.7,1.2-1.4,2.3
				c0.2,0.9,1,1.5,1.9,1.5c0.1,0,0.3,0,0.4,0l0.6-0.1v29.3l-5.7,0c-1,0-1.9,0.9-1.9,1.9c0,1,0.9,1.9,1.9,1.9l7.6,0c0,0,0,0,0,0
				c0,0,0,0,0,0l87.5,0c1,0,1.9-0.9,1.9-1.9C597.4,332.2,596.6,331.3,595.5,331.3z M539.3,294.6v5.2c0,1,0.8,1.9,1.9,1.9
				c1,0,1.9-0.8,1.9-1.9v-55.5h22.6v75.7c0,1,0.8,1.9,1.9,1.9s1.9-0.8,1.9-1.9v-11h9.3v11c0,1,0.8,1.9,1.9,1.9s1.9-0.8,1.9-1.9
				v-75.7h5.5v87l-45,0v-23.9c0-1-0.8-1.9-1.9-1.9c-1,0-1.9,0.9-1.9,1.9v23.9l-29.4,0v-30.2L539.3,294.6z M565.7,220
				c11.8,0,21.5,9.1,22.4,20.6h-5.4V240c0-1-0.8-1.9-1.9-1.9s-1.9,0.8-1.9,1.9v0.6h-9.3V240c0-1-0.8-1.9-1.9-1.9s-1.9,0.8-1.9,1.9
				v0.6h-22.5C544.2,229.1,553.9,220,565.7,220z M569.5,270.3h9.3v9.1h-9.3V270.3z M569.5,283.2h9.3v9.1h-9.3V283.2z M578.9,266.5
				h-9.3v-9.1h9.3V266.5z M569.5,296.2h9.3v9.1h-9.3V296.2z M578.9,253.5h-9.3v-9.1h9.3V253.5z"/>
			<path class="st0" d="M574.2,236.8c1,0,1.9-0.8,1.9-1.9v-5.8c0-1-0.8-1.9-1.9-1.9s-1.9,0.8-1.9,1.9v5.8
				C572.3,235.9,573.1,236.8,574.2,236.8z"/>
			<path class="st0" d="M517.1,317.7h8.9c1,0,1.9-0.8,1.9-1.9v-8.9c0-1-0.8-1.9-1.9-1.9h-8.9c-1,0-1.9,0.8-1.9,1.9v8.9
				C515.3,316.8,516.1,317.7,517.1,317.7z M519,308.8h5.1v5.1H519V308.8z"/>
		</g>
		<g>
			<g>
				<g>
					<path class="st0" d="M849.8,269.3l-3.4-13.6c0.9-0.2,1.6-1,1.6-2v-2.2c0-4.8-3.9-8.7-8.7-8.7h-15.5v-4.5c0-2.4-1.9-4.3-4.3-4.3
						h-79.2c-2.4,0-4.3,1.9-4.3,4.3v37.4c0,1.1,0.9,2.1,2.1,2.1c1.1,0,2.1-0.9,2.1-2.1v-37.4c0-0.1,0.1-0.1,0.1-0.1h79.2
						c0.1,0,0.1,0.1,0.1,0.1v37.4c0,1.1,0.9,2.1,2.1,2.1c1.1,0,2.1-0.9,2.1-2.1v-2.3h24.3c0,0,0,0,0,0c0,0,0,0,0,0
						c3,0,5.5,2,6.4,4.7h-6.4c-1.1,0-2.1,0.9-2.1,2.1v4.4c0,3.6,2.9,6.5,6.5,6.5h2.3v9.1h-5.4c-1.8-5.1-6.6-8.8-12.3-8.8
						s-10.6,3.7-12.3,8.8h-1v-15.5c0-1.1-0.9-2.1-2.1-2.1c-1.1,0-2.1,0.9-2.1,2.1V300h-42.8c-1.8-5.1-6.6-8.8-12.3-8.8
						s-10.6,3.7-12.3,8.8h-11.9c-0.1,0-0.1-0.1-0.1-0.1v-4.5h8.9c1.1,0,2.1-0.9,2.1-2.1s-0.9-2.1-2.1-2.1h-19.8
						c-1.1,0-2.1,0.9-2.1,2.1s0.9,2.1,2.1,2.1h6.7v4.5c0,2.4,1.9,4.3,4.3,4.3h11.1c0,0,0,0.1,0,0.1c0,7.2,5.9,13.1,13.1,13.1
						s13.1-5.9,13.1-13.1c0,0,0-0.1,0-0.1h46.5c0,0,0,0.1,0,0.1c0,7.2,5.9,13.1,13.1,13.1s13.1-5.9,13.1-13.1c0,0,0-0.1,0-0.1h6.7
						c1.1,0,2.1-0.9,2.1-2.1v-22C859,274.6,855,270.1,849.8,269.3z M823.8,246.9h15.5c2.5,0,4.5,2,4.5,4.5v0.1h-20.1V246.9z
						 M823.8,269.2v-13.5h18.3l3.4,13.5H823.8L823.8,269.2z M764.5,313.2c-4.9,0-8.9-4-8.9-8.9c0-4.9,4-8.9,8.9-8.9s8.9,4,8.9,8.9
						C773.5,309.2,769.4,313.2,764.5,313.2z M837.1,313.2c-4.9,0-8.9-4-8.9-8.9c0-4.9,4-8.9,8.9-8.9c4.9,0,8.9,4,8.9,8.9
						C846.1,309.2,842.1,313.2,837.1,313.2z M854.9,286.8h-2.3c-1.3,0-2.3-1-2.3-2.3v-2.3h4.7L854.9,286.8L854.9,286.8z"/>
				</g>
			</g>
			<g>
				<g>
					<path class="st0" d="M764.5,300c-2.4,0-4.3,1.9-4.3,4.3c0,2.4,1.9,4.3,4.3,4.3s4.3-1.9,4.3-4.3
						C768.8,301.9,766.9,300,764.5,300z"/>
				</g>
			</g>
			<g>
				<g>
					<path class="st0" d="M837.1,300c-2.4,0-4.3,1.9-4.3,4.3c0,2.4,1.9,4.3,4.3,4.3c2.4,0,4.3-1.9,4.3-4.3
						C841.4,301.9,839.5,300,837.1,300z"/>
				</g>
			</g>
			<g>
				<g>
					<path class="st0" d="M812.9,291.2h-30.8c-1.1,0-2.1,0.9-2.1,2.1c0,1.1,0.9,2.1,2.1,2.1h30.8c1.1,0,2.1-0.9,2.1-2.1
						C815,292.1,814.1,291.2,812.9,291.2z"/>
				</g>
			</g>
			<g>
				<g>
					<path class="st0" d="M760.1,282.4h-26.4c-1.1,0-2.1,0.9-2.1,2.1s0.9,2.1,2.1,2.1h26.4c1.1,0,2.1-0.9,2.1-2.1
						S761.3,282.4,760.1,282.4z"/>
				</g>
			</g>
			<g>
				<g>
					<path class="st0" d="M799,254.4c-0.8-0.8-2.1-0.8-2.9,0l-18.3,18.3l-9.5-9.5c-0.8-0.8-2.1-0.8-2.9,0c-0.8,0.8-0.8,2.1,0,2.9
						l11,11c0.4,0.4,0.9,0.6,1.5,0.6s1.1-0.2,1.5-0.6l19.8-19.8C799.8,256.5,799.8,255.2,799,254.4z"/>
				</g>
			</g>
		</g>
	</g>
</g>
</svg>
