<?xml version="1.0" encoding="utf-8"?>
<!-- Generator: Adobe Illustrator 22.1.0, SVG Export Plug-In . SVG Version: 6.00 Build 0)  -->
<svg version="1.1" id="Capa_1" xmlns="http://www.w3.org/2000/svg" xmlns:xlink="http://www.w3.org/1999/xlink" x="0px" y="0px"
	 viewBox="0 0 1131.3 516.6" style="enable-background:new 0 0 1131.3 516.6;" xml:space="preserve">
<style type="text/css">
	.st0{fill-rule:evenodd;clip-rule:evenodd;fill:#FDFDFC;}
	.st1{fill:#A4ACBE;}
	.st2{fill-rule:evenodd;clip-rule:evenodd;fill:#A4ACBE;}
	.st3{display:none;fill-rule:evenodd;clip-rule:evenodd;fill:#39303D;}
	.st4{fill-rule:evenodd;clip-rule:evenodd;fill:#298738;}
	.st5{fill:#FFFFFF;}
	.st6{fill-rule:evenodd;clip-rule:evenodd;fill:#2BA843;}
	.st7{fill-rule:evenodd;clip-rule:evenodd;fill:#FFFFFF;}
	.st8{fill-rule:evenodd;clip-rule:evenodd;fill:#777777;}
	.st9{fill-rule:evenodd;clip-rule:evenodd;fill:none;stroke:#DD2F2F;stroke-miterlimit:10;}
	.st10{fill-rule:evenodd;clip-rule:evenodd;fill:#ADADAD;}
	.st11{fill-rule:evenodd;clip-rule:evenodd;fill:none;stroke:#C9C9C9;stroke-miterlimit:10;}
</style>
<g>
	<g>
		<path class="st0" d="M19.7,0h358.1c10.9,0,19.7,8.8,19.7,19.6v477.3c0,10.8-8.8,19.6-19.7,19.6H19.7C8.8,516.6,0,507.8,0,496.9
			V19.6C0,8.8,8.8,0,19.7,0z"/>
		<g>
			<path class="st1" d="M201,486.2c0.7,0,1.2,0.5,1.2,1.2v5.9c0,0.7-0.5,1.2-1.2,1.2h-5.9c-0.7,0-1.2-0.5-1.2-1.2v-5.9
				c0-0.7,0.5-1.2,1.2-1.2H201 M201,485.2h-5.9c-1.2,0-2.2,1-2.2,2.2v5.9c0,1.2,1,2.2,2.2,2.2h5.9c1.2,0,2.2-1,2.2-2.2v-5.9
				C203.2,486.2,202.2,485.2,201,485.2L201,485.2z"/>
		</g>
		<circle class="st2" cx="197.7" cy="26.4" r="6.6"/>
		<rect x="41.3" y="49.1" class="st3" width="314.8" height="420.3"/>
		<g>
			<rect x="40.9" y="48.6" class="st4" width="315" height="421"/>
			<g>
				<rect x="65.9" y="48.6" class="st5" width="265" height="421"/>
				<rect x="65.9" y="428.1" class="st6" width="265" height="41.6"/>
				<g>
					<ellipse class="st7" cx="112.7" cy="447.3" rx="11.1" ry="11.9"/>
					<ellipse class="st7" cx="155.5" cy="447.3" rx="11.1" ry="11.9"/>
					<ellipse class="st7" cx="198.4" cy="447.3" rx="11.1" ry="11.9"/>
					<ellipse class="st7" cx="241.3" cy="447.3" rx="11.1" ry="11.9"/>
					<ellipse class="st7" cx="284.2" cy="447.3" rx="11.1" ry="11.9"/>
				</g>
				<rect x="82.5" y="77.8" class="st8" width="177" height="16.6"/>
				<rect x="82.5" y="98.5" class="st8" width="224" height="16.6"/>
				<rect x="82.5" y="158.2" class="st9" width="233" height="23.8"/>
				<rect x="82.5" y="144.8" class="st10" width="62.2" height="6"/>
				<rect x="82.5" y="211.9" class="st9" width="233" height="23.8"/>
				<rect x="82.5" y="198.5" class="st10" width="62.2" height="6"/>
				<rect x="82.5" y="262.5" class="st11" width="233" height="23.8"/>
				<rect x="82.5" y="249.1" class="st10" width="62.2" height="6"/>
				<rect x="82.5" y="319.1" class="st11" width="105.1" height="23.8"/>
				<rect x="82.5" y="305.7" class="st10" width="28.1" height="6"/>
				<rect x="208.4" y="319.1" class="st9" width="105.1" height="23.8"/>
				<rect x="208.4" y="305.7" class="st10" width="28.1" height="6"/>
				<rect x="82.5" y="375.8" class="st9" width="233" height="23.8"/>
				<rect x="82.5" y="362.4" class="st10" width="62.2" height="6"/>
			</g>
		</g>
	</g>
	<g>
		<g>
			<path class="st5" d="M573.4,108.3h9.2l-14.6,43H558l-14.6-43h9.2l8.1,25.6c0.5,1.5,0.9,3.3,1.4,5.3c0.5,2,0.8,3.4,0.9,4.2
				c0.2-1.8,1-5,2.2-9.5L573.4,108.3z"/>
			<path class="st5" d="M614.3,151.3l-3.1-10.2h-15.7l-3.1,10.2h-9.8l15.2-43.2h11.2l15.2,43.2H614.3z M609,133.4
				c-2.9-9.3-4.5-14.5-4.9-15.7c-0.4-1.2-0.6-2.2-0.8-2.9c-0.6,2.5-2.5,8.7-5.6,18.6H609z"/>
			<path class="st5" d="M629.6,151.3v-43h9.1v35.5h17.4v7.5H629.6z"/>
			<path class="st5" d="M663.6,151.3v-43h9.1v43H663.6z"/>
			<path class="st5" d="M719.3,129.4c0,7.1-2,12.5-6,16.3s-9.9,5.6-17.5,5.6h-12.2v-43h13.5c7,0,12.5,1.9,16.4,5.6
				C717.3,117.6,719.3,122.8,719.3,129.4z M709.8,129.6c0-9.2-4.1-13.9-12.2-13.9h-4.9v28h3.9C705.4,143.8,709.8,139.1,709.8,129.6z
				"/>
			<path class="st5" d="M754.5,151.3l-3.1-10.2h-15.7l-3.1,10.2h-9.8l15.2-43.2h11.2l15.2,43.2H754.5z M749.2,133.4
				c-2.9-9.3-4.5-14.5-4.9-15.7c-0.4-1.2-0.6-2.2-0.8-2.9c-0.6,2.5-2.5,8.7-5.6,18.6H749.2z"/>
			<path class="st5" d="M788,115.3c-3.4,0-6.1,1.3-8,3.9c-1.9,2.6-2.8,6.2-2.8,10.8c0,9.6,3.6,14.4,10.8,14.4c3,0,6.7-0.8,11-2.3
				v7.7c-3.5,1.5-7.5,2.2-11.8,2.2c-6.3,0-11-1.9-14.4-5.7s-5-9.2-5-16.3c0-4.5,0.8-8.4,2.4-11.8c1.6-3.4,4-5.9,7-7.7
				c3-1.8,6.6-2.7,10.7-2.7c4.2,0,8.4,1,12.6,3l-2.9,7.4c-1.6-0.8-3.2-1.4-4.9-2C791.2,115.6,789.6,115.3,788,115.3z"/>
			<path class="st5" d="M808.2,151.3v-43h9.1v43H808.2z"/>
			<path class="st5" d="M867.2,129.8c0,7.1-1.8,12.6-5.3,16.4c-3.5,3.8-8.6,5.7-15.2,5.7s-11.7-1.9-15.2-5.7
				c-3.5-3.8-5.3-9.3-5.3-16.5c0-7.2,1.8-12.6,5.3-16.4c3.5-3.8,8.6-5.7,15.2-5.7c6.6,0,11.7,1.9,15.2,5.7
				C865.4,117.1,867.2,122.6,867.2,129.8z M835.8,129.8c0,4.8,0.9,8.4,2.7,10.9c1.8,2.4,4.6,3.6,8.2,3.6c7.3,0,10.9-4.8,10.9-14.5
				c0-9.7-3.6-14.5-10.9-14.5c-3.6,0-6.4,1.2-8.2,3.7S835.8,125,835.8,129.8z M842.1,104.9v-0.8c3.4-3.9,5.7-6.9,6.9-8.9H859v0.6
				c-1,1-2.8,2.5-5.2,4.5c-2.5,2-4.4,3.5-5.8,4.5H842.1z"/>
			<path class="st5" d="M914.2,151.3h-11.6l-18.7-32.5h-0.3c0.4,5.7,0.6,9.8,0.6,12.3v20.2h-8.2v-43h11.5l18.7,32.2h0.2
				c-0.3-5.6-0.4-9.5-0.4-11.9v-20.4h8.2V151.3z"/>
			<path class="st5" d="M954.1,126l9-17.7h9.8l-14.3,26.3v16.7h-9.1v-16.4l-14.3-26.6h9.9L954.1,126z"/>
			<path class="st5" d="M575.2,223.6l-3.1-10.2h-15.7l-3.1,10.2h-9.8l15.2-43.2h11.2l15.2,43.2H575.2z M569.9,205.8
				c-2.9-9.3-4.5-14.5-4.9-15.7c-0.4-1.2-0.6-2.2-0.8-2.9c-0.6,2.5-2.5,8.7-5.6,18.6H569.9z"/>
			<path class="st5" d="M625.4,180.6v27.8c0,3.2-0.7,6-2.1,8.4c-1.4,2.4-3.5,4.2-6.2,5.5c-2.7,1.3-5.9,1.9-9.5,1.9
				c-5.5,0-9.8-1.4-12.9-4.3c-3.1-2.8-4.6-6.7-4.6-11.6v-27.7h9.1V207c0,3.3,0.7,5.7,2,7.3c1.3,1.6,3.5,2.3,6.6,2.3
				c3,0,5.1-0.8,6.5-2.3s2-4,2-7.3v-26.3H625.4z"/>
			<path class="st5" d="M652.6,223.6h-9.1v-35.4h-11.7v-7.6h32.5v7.6h-11.7V223.6z"/>
			<path class="st5" d="M709.9,202.1c0,7.1-1.8,12.6-5.3,16.4c-3.5,3.8-8.6,5.7-15.2,5.7s-11.7-1.9-15.2-5.7
				c-3.5-3.8-5.3-9.3-5.3-16.5s1.8-12.6,5.3-16.4c3.5-3.8,8.6-5.7,15.2-5.7c6.6,0,11.7,1.9,15.2,5.7
				C708.2,189.5,709.9,194.9,709.9,202.1z M678.5,202.1c0,4.8,0.9,8.4,2.7,10.9c1.8,2.4,4.6,3.6,8.2,3.6c7.3,0,10.9-4.8,10.9-14.5
				c0-9.7-3.6-14.5-10.9-14.5c-3.6,0-6.4,1.2-8.2,3.7S678.5,197.3,678.5,202.1z"/>
			<path class="st5" d="M737.1,187.6c-3.4,0-6.1,1.3-8,3.9c-1.9,2.6-2.8,6.2-2.8,10.8c0,9.6,3.6,14.4,10.8,14.4c3,0,6.7-0.8,11-2.3
				v7.7c-3.5,1.5-7.5,2.2-11.8,2.2c-6.3,0-11-1.9-14.4-5.7s-5-9.2-5-16.3c0-4.5,0.8-8.4,2.4-11.8c1.6-3.4,4-5.9,7-7.7
				c3-1.8,6.6-2.7,10.7-2.7c4.2,0,8.4,1,12.6,3l-2.9,7.4c-1.6-0.8-3.2-1.4-4.9-2C740.3,187.9,738.7,187.6,737.1,187.6z"/>
			<path class="st5" d="M796.3,202.1c0,7.1-1.8,12.6-5.3,16.4c-3.5,3.8-8.6,5.7-15.2,5.7s-11.7-1.9-15.2-5.7
				c-3.5-3.8-5.3-9.3-5.3-16.5s1.8-12.6,5.3-16.4c3.5-3.8,8.6-5.7,15.2-5.7c6.6,0,11.7,1.9,15.2,5.7
				C794.5,189.5,796.3,194.9,796.3,202.1z M764.9,202.1c0,4.8,0.9,8.4,2.7,10.9c1.8,2.4,4.6,3.6,8.2,3.6c7.3,0,10.9-4.8,10.9-14.5
				c0-9.7-3.6-14.5-10.9-14.5c-3.6,0-6.4,1.2-8.2,3.7S764.9,197.3,764.9,202.1z"/>
			<path class="st5" d="M823.4,223.6L813,189.9h-0.3c0.4,6.9,0.6,11.4,0.6,13.7v20h-8.2v-43h12.4l10.2,32.9h0.2l10.8-32.9h12.4v43
				h-8.5v-20.4c0-1,0-2.1,0-3.3c0-1.3,0.2-4.6,0.4-10h-0.3l-11.1,33.7H823.4z"/>
			<path class="st5" d="M891.7,194c0,4.6-1.4,8.2-4.3,10.6s-7,3.7-12.3,3.7h-3.9v15.3H862v-43h13.7c5.2,0,9.2,1.1,11.9,3.4
				C890.4,186.2,891.7,189.6,891.7,194z M871.1,200.9h3c2.8,0,4.9-0.6,6.3-1.7c1.4-1.1,2.1-2.7,2.1-4.8c0-2.1-0.6-3.7-1.8-4.7
				s-3-1.5-5.5-1.5h-4.1V200.9z"/>
			<path class="st5" d="M899.9,223.6v-43h9.1v35.5h17.4v7.5H899.9z"/>
			<path class="st5" d="M958.7,223.6h-24.8v-43h24.8v7.5H943v9.4h14.6v7.5H943v11.1h15.7V223.6z"/>
			<path class="st5" d="M984.3,223.6h-9.1v-35.4h-11.7v-7.6h32.5v7.6h-11.7V223.6z"/>
			<path class="st5" d="M1028.9,223.6l-3.1-10.2h-15.7l-3.1,10.2h-9.8l15.2-43.2h11.2l15.2,43.2H1028.9z M1023.6,205.8
				c-2.9-9.3-4.5-14.5-4.9-15.7c-0.4-1.2-0.6-2.2-0.8-2.9c-0.6,2.5-2.5,8.7-5.6,18.6H1023.6z"/>
			<path class="st5" d="M1079.8,201.7c0,7.1-2,12.5-6,16.3s-9.9,5.6-17.5,5.6h-12.2v-43h13.5c7,0,12.5,1.9,16.4,5.6
				C1077.9,189.9,1079.8,195.1,1079.8,201.7z M1070.4,202c0-9.2-4.1-13.9-12.2-13.9h-4.9v28h3.9C1066,216.1,1070.4,211.4,1070.4,202
				z"/>
			<path class="st5" d="M1127.8,202.1c0,7.1-1.8,12.6-5.3,16.4c-3.5,3.8-8.6,5.7-15.2,5.7s-11.7-1.9-15.2-5.7
				c-3.5-3.8-5.3-9.3-5.3-16.5s1.8-12.6,5.3-16.4c3.5-3.8,8.6-5.7,15.2-5.7c6.6,0,11.7,1.9,15.2,5.7
				C1126,189.5,1127.8,194.9,1127.8,202.1z M1096.4,202.1c0,4.8,0.9,8.4,2.7,10.9c1.8,2.4,4.6,3.6,8.2,3.6c7.3,0,10.9-4.8,10.9-14.5
				c0-9.7-3.6-14.5-10.9-14.5c-3.6,0-6.4,1.2-8.2,3.7S1096.4,197.3,1096.4,202.1z"/>
		</g>
		<g>
			<g>
				<path class="st5" d="M850.4,417.4l-3.7,0V327c0.7-0.3,1.1-1,1.1-1.8c0-0.8-0.5-1.5-1.2-1.8c-0.9-14.2-12.8-25.5-27.2-25.5
					s-26.3,11.3-27.2,25.5c-0.7,0.3-1.2,1-1.2,1.8c0,0.8,0.5,1.5,1.1,1.8v48.3l-35.9,8c-1.1,0.2-1.7,1.3-1.5,2.4
					c0.2,0.9,1,1.5,1.9,1.5c0.1,0,0.3,0,0.4,0l0.7-0.1v30.4l-5.9,0c-1.1,0-2,0.9-2,2c0,1.1,0.9,2,2,2l7.8,0c0,0,0,0,0,0s0,0,0,0
					l90.7,0c1.1,0,2-0.9,2-2S851.5,417.4,850.4,417.4z M792.1,379.3v5.4c0,1.1,0.9,2,2,2c1.1,0,2-0.9,2-2v-57.5h23.4v78.6
					c0,1.1,0.9,2,2,2c1.1,0,2-0.9,2-2v-11.5h9.7v11.5c0,1.1,0.9,2,2,2c1.1,0,2-0.9,2-2v-78.6h5.7v90.2l-46.7,0v-24.8
					c0-1.1-0.9-2-2-2c-1.1,0-2,0.9-2,2v24.8l-30.5,0v-31.3L792.1,379.3z M819.4,301.9c12.2,0,22.3,9.4,23.3,21.4H837v-0.6
					c0-1.1-0.9-2-2-2s-2,0.9-2,2v0.6h-9.7v-0.6c0-1.1-0.9-2-2-2c-1.1,0-2,0.9-2,2v0.6h-23.3C797.1,311.3,807.2,301.9,819.4,301.9z
					 M823.4,354h9.7v9.5h-9.7V354z M823.4,367.5h9.7v9.5h-9.7V367.5z M833.1,350.1h-9.7v-9.5h9.7V350.1z M823.4,380.9h9.7v9.5h-9.7
					V380.9z M833.1,336.7h-9.7v-9.5h9.7V336.7z"/>
				<path class="st5" d="M828.2,319.3c1.1,0,2-0.9,2-2v-6.1c0-1.1-0.9-2-2-2c-1.1,0-2,0.9-2,2v6.1
					C826.3,318.4,827.1,319.3,828.2,319.3z"/>
				<path class="st5" d="M769.1,403.2h9.2c1.1,0,2-0.9,2-2v-9.2c0-1.1-0.9-2-2-2h-9.2c-1.1,0-2,0.9-2,2v9.2
					C767.1,402.3,768,403.2,769.1,403.2z M771,394h5.3v5.3H771V394z"/>
			</g>
			<g>
				<g>
					<g>
						<path class="st5" d="M644.6,307.6h-18.1c0-1.3-1.1-2.4-2.4-2.4h-19.6c-1.1-4.2-4.9-7.2-9.3-7.2s-8.3,3.1-9.3,7.2h-19.6
							c-1.3,0-2.4,1.1-2.4,2.4h-18.1c-1.3,0-2.4,1.1-2.4,2.4v108.9c0,1.3,1.1,2.4,2.4,2.4h98.8c1.3,0,2.4-1.1,2.4-2.4V310
							C647,308.7,646,307.6,644.6,307.6z M568.7,310H588c1.3,0,2.4-1.1,2.4-2.4c0-2.7,2.2-4.8,4.8-4.8s4.8,2.2,4.8,4.8
							c0,1.3,1.1,2.4,2.4,2.4h19.3v15.7l-0.9-0.7c-0.9-0.7-2.1-0.7-3,0l-3.3,2.7l-3.3-2.7c-0.4-0.4-1-0.5-1.5-0.5s-1.1,0.2-1.5,0.5
							l-3.3,2.7l-3.3-2.7c-0.9-0.7-2.1-0.7-3,0l-3.3,2.7l-3.3-2.7c-0.9-0.7-2.1-0.7-3,0l-3.3,2.7l-3.3-2.7c-0.9-0.7-2.1-0.7-3,0
							l-3.3,2.7l-3.3-2.7c-0.9-0.7-2.1-0.7-3,0l-0.9,0.7V310z M565.3,332.9c0.8,0.4,1.8,0.3,2.5-0.3l3.3-2.7l3.3,2.7
							c0.9,0.7,2.1,0.7,3,0l3.3-2.7l3.3,2.7c0.9,0.7,2.1,0.7,3,0l3.3-2.7l3.3,2.7c0.9,0.7,2.1,0.7,3,0l3.3-2.7l3.3,2.7
							c0.9,0.7,2.1,0.7,3,0l3.3-2.7l3.3,2.7c0.9,0.7,2.1,0.7,3,0l3.3-2.7l3.3,2.7c0.4,0.3,1,0.5,1.5,0.5c0.4,0,0.7-0.1,1-0.2
							c0.8-0.4,1.4-1.2,1.4-2.2v-7.5h4.8v82.4h-72.3v-82.4h4.8v7.5C563.9,331.6,564.4,332.5,565.3,332.9z M642.2,416.5h-94V312.4
							h15.7v6h-7.2c-1.3,0-2.4,1.1-2.4,2.4v87.2c0,1.3,1.1,2.4,2.4,2.4h77.1c1.3,0,2.4-1.1,2.4-2.4v-87.2c0-1.3-1.1-2.4-2.4-2.4
							h-7.2v-6h15.7V416.5z"/>
					</g>
				</g>
				<g>
					<g>
						<path class="st5" d="M624.1,338.2h-28.9c-1.3,0-2.4,1.1-2.4,2.4s1.1,2.4,2.4,2.4h28.9c1.3,0,2.4-1.1,2.4-2.4
							S625.5,338.2,624.1,338.2z"/>
					</g>
				</g>
				<g>
					<g>
						<path class="st5" d="M624.1,347.8h-4.8c-1.3,0-2.4,1.1-2.4,2.4s1.1,2.4,2.4,2.4h4.8c1.3,0,2.4-1.1,2.4-2.4
							S625.5,347.8,624.1,347.8z"/>
					</g>
				</g>
				<g>
					<g>
						<path class="st5" d="M609.7,347.8c-1.3,0-2.4,1.1-2.4,2.4s1.1,2.4,2.4,2.4s2.4-1.1,2.4-2.4S611,347.8,609.7,347.8z"/>
					</g>
				</g>
				<g>
					<g>
						<path class="st5" d="M600,347.8h-4.8c-1.3,0-2.4,1.1-2.4,2.4s1.1,2.4,2.4,2.4h4.8c1.3,0,2.4-1.1,2.4-2.4
							S601.4,347.8,600,347.8z"/>
					</g>
				</g>
				<g>
					<g>
						<path class="st5" d="M614.5,357.5h-19.3c-1.3,0-2.4,1.1-2.4,2.4s1.1,2.4,2.4,2.4h19.3c1.3,0,2.4-1.1,2.4-2.4
							S615.8,357.5,614.5,357.5z"/>
					</g>
				</g>
				<g>
					<g>
						<path class="st5" d="M624.1,357.5c-1.3,0-2.4,1.1-2.4,2.4s1.1,2.4,2.4,2.4s2.4-1.1,2.4-2.4S625.5,357.5,624.1,357.5z"/>
					</g>
				</g>
				<g>
					<g>
						<path class="st5" d="M624.1,367.1h-53c-1.3,0-2.4,1.1-2.4,2.4s1.1,2.4,2.4,2.4h53c1.3,0,2.4-1.1,2.4-2.4
							S625.5,367.1,624.1,367.1z"/>
					</g>
				</g>
				<g>
					<g>
						<path class="st5" d="M595.2,376.8h-28.9c-1.3,0-2.4,1.1-2.4,2.4s1.1,2.4,2.4,2.4h28.9c1.3,0,2.4-1.1,2.4-2.4
							S596.6,376.8,595.2,376.8z"/>
					</g>
				</g>
				<g>
					<g>
						<path class="st5" d="M566.3,386.4c-1.3,0-2.4,1.1-2.4,2.4s1.1,2.4,2.4,2.4s2.4-1.1,2.4-2.4S567.6,386.4,566.3,386.4z"/>
					</g>
				</g>
				<g>
					<g>
						<path class="st5" d="M595.2,386.4h-19.3c-1.3,0-2.4,1.1-2.4,2.4s1.1,2.4,2.4,2.4h19.3c1.3,0,2.4-1.1,2.4-2.4
							S596.6,386.4,595.2,386.4z"/>
					</g>
				</g>
				<g>
					<g>
						<path class="st5" d="M604.9,314.8h-19.3c-1.3,0-2.4,1.1-2.4,2.4c0,1.3,1.1,2.4,2.4,2.4h19.3c1.3,0,2.4-1.1,2.4-2.4
							C607.3,315.9,606.2,314.8,604.9,314.8z"/>
					</g>
				</g>
				<g>
					<g>
						<path class="st5" d="M614.5,314.8c-1.3,0-2.4,1.1-2.4,2.4c0,1.3,1.1,2.4,2.4,2.4s2.4-1.1,2.4-2.4
							C616.9,315.9,615.8,314.8,614.5,314.8z"/>
					</g>
				</g>
				<g>
					<g>
						<path class="st5" d="M575.9,314.8c-1.3,0-2.4,1.1-2.4,2.4c0,1.3,1.1,2.4,2.4,2.4s2.4-1.1,2.4-2.4
							C578.4,315.9,577.3,314.8,575.9,314.8z"/>
					</g>
				</g>
				<g>
					<g>
						<path class="st5" d="M585.6,343.3h-2.4v-2.7c0-1.3-1.1-2.4-2.4-2.4h-9.6c-1.3,0-2.4,1.1-2.4,2.4v2.4h-2.4
							c-1.3,0-2.4,1.1-2.4,2.4v9.6c0,1.3,1.1,2.4,2.4,2.4h2.4v2.4c0,1.3,1.1,2.4,2.4,2.4h9.6c1.3,0,2.4-1.1,2.4-2.4v-2.4h2.4
							c1.3,0,2.4-1.1,2.4-2.4v-9.4C588,344.3,586.9,343.3,585.6,343.3z M583.2,352.7h-2.4c-1.3,0-2.4,1.1-2.4,2.4v2.4h-4.8v-2.4
							c0-1.3-1.1-2.4-2.4-2.4h-2.4v-4.8h2.4c1.3,0,2.4-1.1,2.4-2.4V343h4.8v2.7c0,1.3,1.1,2.4,2.4,2.4h2.4V352.7z"/>
					</g>
				</g>
				<g>
					<g>
						<path class="st5" d="M614.5,376.8c-6.6,0-12.1,5.4-12.1,12.1s5.4,12.1,12.1,12.1c6.6,0,12.1-5.4,12.1-12.1
							S621.2,376.8,614.5,376.8z M614.5,396c-4,0-7.2-3.2-7.2-7.2c0-4,3.2-7.2,7.2-7.2s7.2,3.2,7.2,7.2
							C621.7,392.8,618.5,396,614.5,396z"/>
					</g>
				</g>
				<g>
					<g>
						<path class="st5" d="M616.9,388.3c0-0.2-0.1-0.3-0.1-0.5c-0.1-0.1-0.1-0.3-0.2-0.4c-0.1-0.1-0.2-0.3-0.3-0.4
							c-0.6-0.6-1.4-0.8-2.2-0.7c-0.2,0-0.3,0.1-0.5,0.1c-0.1,0.1-0.3,0.1-0.4,0.2c-0.1,0.1-0.3,0.2-0.4,0.3
							c-0.1,0.1-0.2,0.2-0.3,0.4c-0.1,0.1-0.2,0.3-0.2,0.4c-0.1,0.1-0.1,0.3-0.1,0.5c0,0.2,0,0.3,0,0.5c0,0.2,0,0.3,0,0.5
							c0,0.2,0.1,0.3,0.1,0.5c0.1,0.1,0.1,0.3,0.2,0.4c0.1,0.1,0.2,0.3,0.3,0.4c0.1,0.1,0.2,0.2,0.4,0.3c0.1,0.1,0.3,0.2,0.4,0.2
							c0.1,0.1,0.3,0.1,0.5,0.1c0.2,0,0.3,0,0.5,0c0.6,0,1.3-0.3,1.7-0.7c0.1-0.1,0.2-0.2,0.3-0.4c0.1-0.1,0.2-0.3,0.2-0.4
							c0.1-0.1,0.1-0.3,0.1-0.5c0-0.2,0-0.3,0-0.5C616.9,388.6,616.9,388.5,616.9,388.3z"/>
					</g>
				</g>
			</g>
			<g>
				<g>
					<g>
						<path class="st5" d="M1057.2,342.1c0.1-0.6,0.1-1.2,0.1-1.8c0-9.1-7.4-16.6-16.6-16.6c-2.7-6.5-7.2-12.1-13-16.2
							c-6.4-4.5-13.9-6.9-21.8-6.9c-8.7,0-17.2,3.1-24,8.6c-6.1,5.1-10.5,12-12.5,19.6c-12,0.4-21.6,10.2-21.6,22.2
							c0,12.3,10,22.2,22.2,22.2h3.1c1.3,0,2.3-1,2.3-2.3s-1-2.3-2.3-2.3h-3.1c-9.7,0-17.6-7.9-17.6-17.6c0-9.7,7.9-17.6,17.6-17.6
							c0.3,0,0.6,0,1,0c1.1,0.1,2.2-0.7,2.4-1.8c3.2-15.3,16.8-26.4,32.4-26.4c13.8,0,26.3,8.7,31.1,21.7c0.4,1,1.4,1.6,2.4,1.5
							c0.4,0,0.9-0.1,1.3-0.1c6.6,0,12,5.4,12,12c0,0.9-0.1,1.8-0.3,2.6c-0.2,1.1,0.3,2.2,1.4,2.6c4.5,1.8,7.5,6.2,7.5,11.1
							c0,6.6-5.4,12-12,12h-8.8c-1.3,0-2.3,1-2.3,2.3s1,2.3,2.3,2.3h8.8c9.1,0,16.6-7.4,16.6-16.6
							C1065.9,350.5,1062.6,345,1057.2,342.1z"/>
					</g>
				</g>
				<g>
					<g>
						<path class="st5" d="M1012.6,350.7h-11.4c-1.3,0-2.3,1-2.3,2.3c0,1.3,1,2.3,2.3,2.3h11.4c1.3,0,2.3-1,2.3-2.3
							C1014.9,351.7,1013.9,350.7,1012.6,350.7z"/>
					</g>
				</g>
				<g>
					<g>
						<path class="st5" d="M1026.6,344h-39.4c-3.1,0-5.6,2.5-5.6,5.6V413c0,3.1,2.5,5.6,5.6,5.6h39.4c3.1,0,5.6-2.5,5.6-5.6v-63.4
							C1032.3,346.5,1029.7,344,1026.6,344z M986.2,349.6c0-0.6,0.5-1,1-1h39.4c0.6,0,1,0.5,1,1v7.8h-41.5V349.6L986.2,349.6z
							 M986.2,362h41.5v39.6h-41.5V362L986.2,362z M1027.7,413c0,0.6-0.5,1-1,1h-39.4c-0.6,0-1-0.5-1-1v-6.8h41.5V413L1027.7,413z"
							/>
					</g>
				</g>
				<g>
					<g>
						<path class="st5" d="M1006.9,407.8L1006.9,407.8c-1.3,0-2.3,1-2.3,2.3s1,2.3,2.3,2.3h0c1.3,0,2.3-1,2.3-2.3
							S1008.2,407.8,1006.9,407.8z"/>
					</g>
				</g>
				<g>
					<g>
						<path class="st5" d="M974.8,409.5c-0.9-0.9-2.4-0.9-3.3,0l-1.3,1.3v-13.6c0-1.3-1-2.3-2.3-2.3c-1.3,0-2.3,1-2.3,2.3v13.6
							l-1.3-1.3c-0.9-0.9-2.4-0.9-3.3,0c-0.9,0.9-0.9,2.4,0,3.3l5.2,5.2c0.4,0.4,1,0.7,1.6,0.7s1.2-0.2,1.6-0.7l5.2-5.2
							C975.7,411.8,975.7,410.4,974.8,409.5z"/>
					</g>
				</g>
				<g>
					<g>
						<path class="st5" d="M1052.8,386.3l-5.2-5.2c-0.9-0.9-2.4-0.9-3.3,0l-5.2,5.2c-0.9,0.9-0.9,2.4,0,3.3c0.9,0.9,2.4,0.9,3.3,0
							l1.3-1.3v17.5c0,1.3,1,2.3,2.3,2.3c1.3,0,2.3-1,2.3-2.3v-17.5l1.3,1.3c0.5,0.4,1,0.7,1.6,0.7c0.6,0,1.2-0.2,1.6-0.7
							C1053.7,388.6,1053.7,387.2,1052.8,386.3z"/>
					</g>
				</g>
				<g>
					<g>
						<path class="st5" d="M1006,310.9c-11.8,0-22,8.3-24.4,19.8c-0.3,1.2,0.5,2.5,1.8,2.7c0.2,0,0.3,0,0.5,0c1.1,0,2-0.8,2.3-1.8
							c1.9-9.4,10.3-16.2,19.9-16.2c1.3,0,2.3-1,2.3-2.3C1008.3,311.9,1007.3,310.9,1006,310.9z"/>
					</g>
				</g>
				<g>
					<g>
						<path class="st5" d="M969.5,387.3c-0.4-0.4-1-0.7-1.6-0.7c-0.6,0-1.2,0.2-1.6,0.7c-0.4,0.4-0.7,1-0.7,1.6
							c0,0.6,0.2,1.2,0.7,1.6c0.4,0.4,1,0.7,1.6,0.7s1.2-0.2,1.6-0.7c0.4-0.4,0.7-1,0.7-1.6C970.2,388.3,970,387.7,969.5,387.3z"/>
					</g>
				</g>
				<g>
					<g>
						<path class="st5" d="M1002.2,367.2h-9.4c-1.3,0-2.3,1-2.3,2.3s1,2.3,2.3,2.3h9.4c1.3,0,2.3-1,2.3-2.3
							S1003.5,367.2,1002.2,367.2z"/>
					</g>
				</g>
				<g>
					<g>
						<path class="st5" d="M1021.1,367.2h-9.4c-1.3,0-2.3,1-2.3,2.3s1,2.3,2.3,2.3h9.4c1.3,0,2.3-1,2.3-2.3
							S1022.3,367.2,1021.1,367.2z"/>
					</g>
				</g>
				<g>
					<g>
						<path class="st5" d="M1021.1,389.4l-28.3,0c-1.3,0-2.3,1-2.3,2.3c0,1.3,1,2.3,2.3,2.3l28.3,0c1.3,0,2.3-1,2.3-2.3
							C1023.4,390.4,1022.3,389.4,1021.1,389.4z"/>
					</g>
				</g>
				<g>
					<g>
						<path class="st5" d="M1021.1,378.3h-28.3c-1.3,0-2.3,1-2.3,2.3s1,2.3,2.3,2.3h28.3c1.3,0,2.3-1,2.3-2.3
							S1022.3,378.3,1021.1,378.3z"/>
					</g>
				</g>
			</g>
		</g>
	</g>
</g>
</svg>
