<?xml version="1.0" encoding="utf-8"?>
<!-- Generator: Adobe Illustrator 22.1.0, SVG Export Plug-In . SVG Version: 6.00 Build 0)  -->
<svg version="1.1" id="Capa_1" xmlns="http://www.w3.org/2000/svg" xmlns:xlink="http://www.w3.org/1999/xlink" x="0px" y="0px"
	 viewBox="0 0 1071.1 493.8" style="enable-background:new 0 0 1071.1 493.8;" xml:space="preserve">
<style type="text/css">
	.st0{fill:#FFFFFF;}
	.st1{fill:url(#SVGID_1_);}
	.st2{fill:#ADDBE8;}
	.st3{fill:#333333;}
	.st4{fill:#5B5B5B;}
	.st5{fill:none;stroke:#5B5B5B;stroke-width:8;stroke-miterlimit:10;}
	.st6{fill:url(#SVGID_2_);}
	.st7{fill:url(#SVGID_3_);}
	.st8{opacity:0.6;fill:url(#SVGID_4_);}
</style>
<g>
	<g>
		<g>
			<path class="st0" d="M84.9,133.6c0,7.1-2,12.5-6,16.3s-9.9,5.6-17.5,5.6H49.2v-43h13.5c7,0,12.5,1.9,16.4,5.6
				C82.9,121.8,84.9,127,84.9,133.6z M75.4,133.9c0-9.2-4.1-13.9-12.2-13.9h-4.9v28h3.9C71,148,75.4,143.3,75.4,133.9z"/>
			<path class="st0" d="M118.6,155.6H93.8v-43h24.8v7.5h-15.7v9.4h14.6v7.5h-14.6V148h15.7V155.6z"/>
			<path class="st0" d="M152.9,143.6c0,3.9-1.4,6.9-4.2,9.2c-2.8,2.2-6.7,3.4-11.7,3.4c-4.6,0-8.7-0.9-12.2-2.6v-8.5
				c2.9,1.3,5.4,2.2,7.4,2.7c2,0.5,3.8,0.8,5.5,0.8c2,0,3.5-0.4,4.6-1.1s1.6-1.9,1.6-3.4c0-0.8-0.2-1.6-0.7-2.3
				c-0.5-0.7-1.2-1.3-2.1-1.9s-2.8-1.6-5.6-2.9c-2.6-1.2-4.6-2.4-5.9-3.6c-1.3-1.1-2.4-2.5-3.1-4c-0.8-1.5-1.2-3.3-1.2-5.3
				c0-3.8,1.3-6.8,3.9-9c2.6-2.2,6.1-3.3,10.7-3.3c2.2,0,4.4,0.3,6.4,0.8c2,0.5,4.2,1.3,6.4,2.2l-2.9,7.1c-2.3-0.9-4.2-1.6-5.7-2
				s-3-0.6-4.4-0.6c-1.7,0-3.1,0.4-4,1.2s-1.4,1.9-1.4,3.1c0,0.8,0.2,1.5,0.6,2.1c0.4,0.6,1,1.2,1.8,1.7c0.8,0.6,2.7,1.6,5.8,3
				c4,1.9,6.8,3.9,8.3,5.8C152.2,138.4,152.9,140.8,152.9,143.6z"/>
			<path class="st0" d="M179,119.5c-3.4,0-6.1,1.3-8,3.9c-1.9,2.6-2.8,6.2-2.8,10.8c0,9.6,3.6,14.4,10.8,14.4c3,0,6.7-0.8,11-2.3
				v7.7c-3.5,1.5-7.5,2.2-11.8,2.2c-6.3,0-11-1.9-14.4-5.7s-5-9.2-5-16.3c0-4.5,0.8-8.4,2.4-11.8c1.6-3.4,4-5.9,7-7.7
				c3-1.8,6.6-2.7,10.7-2.7c4.2,0,8.4,1,12.6,3l-2.9,7.4c-1.6-0.8-3.2-1.4-4.9-2C182.2,119.8,180.6,119.5,179,119.5z"/>
			<path class="st0" d="M225.5,155.6l-3.1-10.2h-15.7l-3.1,10.2h-9.8l15.2-43.2h11.2l15.2,43.2H225.5z M220.2,137.7
				c-2.9-9.3-4.5-14.5-4.9-15.7c-0.4-1.2-0.6-2.2-0.8-2.9c-0.6,2.5-2.5,8.7-5.6,18.6H220.2z"/>
			<path class="st0" d="M249.8,139v16.5h-9.1v-43h12.5c5.8,0,10.2,1.1,13,3.2c2.8,2.1,4.2,5.4,4.2,9.7c0,2.5-0.7,4.8-2.1,6.8
				s-3.4,3.5-5.9,4.6c6.5,9.7,10.7,15.9,12.7,18.7H265L254.7,139H249.8z M249.8,131.6h2.9c2.9,0,5-0.5,6.4-1.4
				c1.4-1,2.1-2.5,2.1-4.5c0-2-0.7-3.5-2.1-4.4c-1.4-0.9-3.6-1.3-6.5-1.3h-2.8V131.6z"/>
			<path class="st0" d="M296.8,131.4h17.1v22.3c-2.8,0.9-5.4,1.5-7.8,1.9s-4.9,0.5-7.5,0.5c-6.5,0-11.5-1.9-14.9-5.7
				c-3.4-3.8-5.1-9.3-5.1-16.4c0-6.9,2-12.4,6-16.2s9.5-5.8,16.5-5.8c4.4,0,8.7,0.9,12.8,2.6l-3,7.3c-3.1-1.6-6.4-2.4-9.8-2.4
				c-3.9,0-7.1,1.3-9.5,4c-2.4,2.6-3.6,6.2-3.6,10.7c0,4.7,1,8.2,2.9,10.7c1.9,2.5,4.7,3.7,8.3,3.7c1.9,0,3.8-0.2,5.8-0.6v-9h-8.2
				V131.4z"/>
			<path class="st0" d="M350.5,155.6l-3.1-10.2h-15.7l-3.1,10.2h-9.8l15.2-43.2h11.2l15.2,43.2H350.5z M345.2,137.7
				c-2.9-9.3-4.5-14.5-4.9-15.7c-0.4-1.2-0.6-2.2-0.8-2.9c-0.6,2.5-2.5,8.7-5.6,18.6H345.2z"/>
			<path class="st0" d="M398,155.6h-9.1v-35.4h-11.7v-7.6h32.5v7.6H398V155.6z"/>
			<path class="st0" d="M451.3,112.5v27.8c0,3.2-0.7,6-2.1,8.4c-1.4,2.4-3.5,4.2-6.2,5.5c-2.7,1.3-5.9,1.9-9.5,1.9
				c-5.5,0-9.8-1.4-12.9-4.3c-3.1-2.8-4.6-6.7-4.6-11.6v-27.7h9.1v26.3c0,3.3,0.7,5.7,2,7.3c1.3,1.6,3.5,2.3,6.6,2.3
				c3,0,5.1-0.8,6.5-2.3s2-4,2-7.3v-26.3H451.3z"/>
			<path class="st0" d="M23.7,191.8c-3.4,0-6.1,1.3-8,3.9c-1.9,2.6-2.8,6.2-2.8,10.8c0,9.6,3.6,14.4,10.8,14.4c3,0,6.7-0.8,11-2.3
				v7.7c-3.5,1.5-7.5,2.2-11.8,2.2c-6.3,0-11-1.9-14.4-5.7s-5-9.2-5-16.3c0-4.5,0.8-8.4,2.4-11.8c1.6-3.4,4-5.9,7-7.7
				c3-1.8,6.6-2.7,10.7-2.7c4.2,0,8.4,1,12.6,3l-2.9,7.4c-1.6-0.8-3.2-1.4-4.9-2C26.9,192.1,25.3,191.8,23.7,191.8z"/>
			<path class="st0" d="M70.2,227.9L67,217.6H51.3l-3.1,10.2h-9.8l15.2-43.2h11.2L80,227.9H70.2z M64.9,210
				c-2.9-9.3-4.5-14.5-4.9-15.7c-0.4-1.2-0.6-2.2-0.8-2.9c-0.6,2.5-2.5,8.7-5.6,18.6H64.9z"/>
			<path class="st0" d="M94.5,211.4v16.5h-9.1v-43h12.5c5.8,0,10.2,1.1,13,3.2c2.8,2.1,4.2,5.4,4.2,9.7c0,2.5-0.7,4.8-2.1,6.8
				s-3.4,3.5-5.9,4.6c6.5,9.7,10.7,15.9,12.7,18.7h-10.1l-10.3-16.5H94.5z M94.5,203.9h2.9c2.9,0,5-0.5,6.4-1.4
				c1.4-1,2.1-2.5,2.1-4.5c0-2-0.7-3.5-2.1-4.4c-1.4-0.9-3.6-1.3-6.5-1.3h-2.8V203.9z"/>
			<path class="st0" d="M141.8,227.9h-9.1v-35.4H121v-7.6h32.5v7.6h-11.7V227.9z"/>
			<path class="st0" d="M186.4,227.9l-3.1-10.2h-15.7l-3.1,10.2h-9.8l15.2-43.2H181l15.2,43.2H186.4z M181.1,210
				c-2.9-9.3-4.5-14.5-4.9-15.7c-0.4-1.2-0.6-2.2-0.8-2.9c-0.6,2.5-2.5,8.7-5.6,18.6H181.1z"/>
			<path class="st0" d="M253,205.9c0,7.1-2,12.5-6,16.3s-9.9,5.6-17.5,5.6h-12.2v-43h13.5c7,0,12.5,1.9,16.4,5.6
				C251.1,194.1,253,199.3,253,205.9z M243.5,206.2c0-9.2-4.1-13.9-12.2-13.9h-4.9v28h3.9C239.1,220.3,243.5,215.6,243.5,206.2z"/>
			<path class="st0" d="M286.7,227.9h-24.8v-43h24.8v7.5H271v9.4h14.6v7.5H271v11.1h15.7V227.9z"/>
			<path class="st0" d="M341.1,198.3c0,4.6-1.4,8.2-4.3,10.6s-7,3.7-12.3,3.7h-3.9v15.3h-9.1v-43h13.7c5.2,0,9.2,1.1,11.9,3.4
				C339.7,190.5,341.1,193.8,341.1,198.3z M320.5,205.1h3c2.8,0,4.9-0.6,6.3-1.7c1.4-1.1,2.1-2.7,2.1-4.8c0-2.1-0.6-3.7-1.8-4.7
				s-3-1.5-5.5-1.5h-4.1V205.1z"/>
			<path class="st0" d="M388.2,206.3c0,7.1-1.8,12.6-5.3,16.4c-3.5,3.8-8.6,5.7-15.2,5.7s-11.7-1.9-15.2-5.7
				c-3.5-3.8-5.3-9.3-5.3-16.5s1.8-12.6,5.3-16.4c3.5-3.8,8.6-5.7,15.2-5.7c6.6,0,11.7,1.9,15.2,5.7
				C386.5,193.7,388.2,199.2,388.2,206.3z M356.8,206.3c0,4.8,0.9,8.4,2.7,10.9c1.8,2.4,4.6,3.6,8.2,3.6c7.3,0,10.9-4.8,10.9-14.5
				c0-9.7-3.6-14.5-10.9-14.5c-3.6,0-6.4,1.2-8.2,3.7S356.8,201.5,356.8,206.3z"/>
			<path class="st0" d="M406.3,211.4v16.5h-9.1v-43h12.5c5.8,0,10.2,1.1,13,3.2c2.8,2.1,4.2,5.4,4.2,9.7c0,2.5-0.7,4.8-2.1,6.8
				s-3.4,3.5-5.9,4.6c6.5,9.7,10.7,15.9,12.7,18.7h-10.1l-10.3-16.5H406.3z M406.3,203.9h2.9c2.9,0,5-0.5,6.4-1.4
				c1.4-1,2.1-2.5,2.1-4.5c0-2-0.7-3.5-2.1-4.4c-1.4-0.9-3.6-1.3-6.5-1.3h-2.8V203.9z"/>
			<path class="st0" d="M453.5,227.9h-9.1v-35.4h-11.7v-7.6h32.5v7.6h-11.7V227.9z"/>
			<path class="st0" d="M496.6,227.9h-24.8v-43h24.8v7.5h-15.7v9.4h14.6v7.5h-14.6v11.1h15.7V227.9z"/>
		</g>
		<g>
			<path class="st0" d="M183.6,374.7L168,340.1l-9.2-21.1c-1-2.2-3-3.5-5.1-3.5h-17c-2.4,0-4.3,1.4-5.5,3.7L97.6,393
				c-0.7,1.6-0.6,3.1,0.2,4.3c0.7,1.2,2,1.9,3.5,1.9h39.5c2.4,0,4.2-1.2,5.1-3l4.7-10.6h26.5c0.1,0,0.2,0,0.3,0c2.2,0,4.2-1.2,5.6-3
				C184.4,380.4,184.7,377.6,183.6,374.7z M143.2,390.6l-1.5,3.6c-0.2,0.4-0.9,0.4-1.1,0.4h-39l33.4-73.4c0.4-0.7,0.7-1,1.5-1h17.1
				c0.4,0,0.8,0.2,1,0.6l9.2,21.2l0.2,0.4c0.1,0.3,0.2,0.5,0.2,0.7c0,0.2-0.1,0.5-0.2,0.8l-0.1,0.1
				C163.1,345.9,148.2,379.5,143.2,390.6z M179.2,379.9c-0.5,0.7-1.3,1.1-2.1,1.1h-24.8l14.4-32.4l7,15.3c3.5,7.7,5.6,12.4,5.6,12.4
				c0.3,0.7,0.4,1.3,0.4,1.9C179.7,378.8,179.5,379.4,179.2,379.9z"/>
			<path class="st0" d="M313.2,317.3c-1.2-1.2-2.5-1.8-3.9-1.8h-32.5c-1.6,0-3.1,0.7-4.2,2c-1.1,1.2-1.7,2.9-1.7,4.8v55.9
				c0,3.3,2.3,6.9,5.7,6.9h32.3c2.9,0,6.2-2.5,6.2-6.8v-55.8C315.1,319.8,314,318.2,313.2,317.3z M310.7,378.4
				c0,2.1-1.7,2.3-1.8,2.3h-32.3c-0.5,0-1.3-1-1.3-2.4v-55.8c0-0.9,0.1-1.6,0.5-1.9c0.2-0.2,0.6-0.4,1.1-0.4h32.5
				c0.3,0,0.5,0.1,0.7,0.3c0.4,0.4,0.6,1.2,0.6,2.1V378.4z"/>
			<path class="st0" d="M402,318.8c-1.2-2-3.1-3.1-5.6-3.2h-68.4c-5,0-7.2,3.8-7.2,7.3v55.3c0,2.1,0.7,3.9,2,5.2
				c1.1,1.2,2.5,1.8,4.2,1.8h31.3c2.7,0,6.7-2.4,6.7-6.8v-12.3h12.3c2.2,0,7.5-0.6,10-6l14.9-33.8
				C403.4,323.7,403.3,320.8,402,318.8z M360.6,378.3c0,1.7-1.8,2.3-2.3,2.3H327c-0.5,0-0.8-0.1-1.1-0.4c-0.4-0.4-0.6-1.2-0.6-2
				v-55.3c0-1,0.4-2.7,2.8-2.7h5.2c8.5,0,24.7,0,25.2,0h0.1c0.1,0,0.3,0,0.3,0h1.7V378.3z M398.1,324.4L383.3,358
				c-1.3,2.9-4.3,3.3-6,3.3H365V320h31.3c0.7,0.1,1.5,0.3,1.9,1c0.3,0.6,0.4,1.1,0.4,1.6C398.6,323.1,398.4,323.8,398.1,324.4z"/>
			<path class="st0" d="M264.5,318c-1.2-1.6-2.7-2.4-4.5-2.4H197c-4.1,0-6.9,2.6-6.9,6.9v56.5c0,3.6,2.5,6.4,5.7,6.4h32.3
				c2.9,0,6.2-2.5,6.2-6.8V366h5.5c2,0,3.5,0.1,4.8-0.5c0.8-0.4,1.5-1.1,2.1-2.2l6.1-13.7c0.1-0.3,0.3-0.7,0.6-1.2
				c0.3-0.6,0.7-1.4,1.1-2.4c0.3-0.7,0.7-1.5,1.1-2.4l1.2-2.6c0.4-0.9,0.8-1.9,1.3-2.7c0.2-0.4,0.4-0.9,0.6-1.3
				c0.3-0.6,0.5-1.1,0.8-1.7l5.6-12.5C265.5,321.2,265.4,319.5,264.5,318z M229.9,378.5c0,2.1-1.7,2.3-1.7,2.3h-32.3
				c-0.7,0-1.3-0.8-1.3-1.9v-56.5h-0.1c0-1.8,0.7-2.3,2.5-2.3c0.1,0,4.6,0,10.3,0c9,0,20.8,0.1,21,0.1c0.1,0,0.1,0,0.2,0h1.4V378.5z
				 M249.7,344.4l-0.1,0.2c-1.3,3-4.3,10.6-6.3,14.7c-0.9,2.2-0.9,2.2-3.1,2.2h-6V343h14.9c0.2,0,0.5,0.1,0.6,0.4
				c0.1,0.2,0.1,0.3,0.1,0.5S249.8,344.2,249.7,344.4z M260.3,321.1l-6.2,13.7c-1.6,3.6-1.7,3.6-5.2,3.6h-14.7v-18.3h25.5
				c0.2,0,0.4,0,0.5,0.3c0.1,0.1,0.1,0.2,0.1,0.4C260.3,320.9,260.3,321,260.3,321.1z"/>
		</g>
	</g>
	<g>
		<g>
			<linearGradient id="SVGID_1_" gradientUnits="userSpaceOnUse" x1="905.6031" y1="81.075" x2="861.354" y2="555.7509">
				<stop  offset="0" style="stop-color:#F0F0F0"/>
				<stop  offset="0.4361" style="stop-color:#EDEDED"/>
				<stop  offset="0.7512" style="stop-color:#E4E4E4"/>
				<stop  offset="1" style="stop-color:#D6D6D6"/>
			</linearGradient>
			<polygon class="st1" points="1035.8,493.8 705.5,466.6 740.8,39.2 1071.1,66.4 			"/>
			<g>
				<g>
					<path class="st0" d="M789.8,84.2l-2.9-8.7c-0.3-0.9-1.1-1.5-1.9-1.6l-6.8-0.6c-0.9-0.1-1.8,0.4-2.3,1.3l-16.1,28.2
						c-0.3,0.6-0.3,1.2-0.1,1.7c0.2,0.5,0.7,0.8,1.3,0.9l15.8,1.4c0.9,0.1,1.7-0.3,2.1-1l2.3-4l10.6,1c0,0,0.1,0,0.1,0l0,0
						c0.9,0.1,1.7-0.3,2.3-1c0.7-0.8,0.9-1.9,0.6-3.1L789.8,84.2z"/>
					<path class="st2" d="M793.1,99.8c0,0.3-0.1,0.5-0.3,0.7c-0.2,0.3-0.5,0.4-0.9,0.4l-9.9-0.9l6.9-12.4l2.2,6.4
						c1.1,3.2,1.8,5.2,1.8,5.2C793.1,99.3,793.1,99.5,793.1,99.8z"/>
					<path class="st3" d="M777.3,104.8c-0.1,0.1-0.4,0.1-0.4,0.1l-15.6-1.4l16-28.1c0.2-0.3,0.3-0.4,0.6-0.3l6.8,0.6
						c0.2,0,0.3,0.1,0.4,0.3l2.9,8.8l0.1,0.2c0,0.1,0.1,0.2,0.1,0.3c0,0.1-0.1,0.2-0.1,0.3l0,0c-0.4,0.7-7.6,13.6-10,17.8
						L777.3,104.8z"/>
					<path class="st0" d="M843,79.2L830,78c-0.6-0.1-1.3,0.2-1.8,0.6c-0.5,0.4-0.8,1.1-0.8,1.9l-2.1,22.3c-0.1,1.3,0.6,2.8,2,2.9
						l12.9,1.2c1.2,0.1,2.6-0.8,2.7-2.5l2-22.3c0.1-1.1-0.3-1.8-0.6-2.1C844.1,79.5,843.6,79.2,843,79.2z"/>
					<path class="st3" d="M842.9,81c0.1,0,0.2,0.1,0.3,0.1c0.1,0.2,0.2,0.5,0.2,0.8l-2,22.3c-0.1,0.8-0.7,0.8-0.8,0.8l-12.9-1.2
						c-0.2,0-0.5-0.4-0.4-1l2-22.3c0-0.4,0.1-0.6,0.3-0.7c0.1-0.1,0.2-0.1,0.4-0.1L842.9,81z"/>
					<path class="st0" d="M877.9,83.7c-0.4-0.8-1.1-1.4-2.1-1.5l-27.3-2.5c-2-0.2-3,1.3-3.2,2.7l-2,22.1c-0.1,0.8,0.1,1.6,0.6,2.1
						c0.4,0.5,1,0.8,1.6,0.9l12.5,1.2c1.1,0.1,2.7-0.7,2.9-2.5l0.5-4.9l4.9,0.5c0.9,0.1,3,0,4.2-2l7.2-12.9
						C878.2,85.7,878.3,84.5,877.9,83.7z"/>
					<path class="st3" d="M876.4,85c0,0.2-0.1,0.5-0.3,0.7L869,98.6c-0.6,1.1-1.8,1.2-2.5,1.1l-4.9-0.5l1.5-16.5l12.5,1.2
						c0.3,0.1,0.6,0.2,0.7,0.5C876.4,84.6,876.4,84.8,876.4,85z"/>
					<path class="st3" d="M859.2,105.9c-0.1,0.7-0.8,0.8-1,0.8l-12.5-1.2c-0.2,0-0.3-0.1-0.4-0.2c-0.1-0.2-0.2-0.5-0.2-0.8l2-22.1
						c0-0.4,0.3-1.1,1.2-1l2.1,0.2c3.4,0.3,9.9,0.9,10,0.9l0,0c0,0,0.1,0,0.1,0l0.7,0.1L859.2,105.9z"/>
					<path class="st0" d="M825.4,77.5l-25.2-2.3c-1.6-0.2-2.8,0.8-3,2.5l-2.1,22.6c-0.1,1.4,0.8,2.6,2,2.7l12.9,1.2
						c1.2,0.1,2.6-0.8,2.7-2.5l0.5-5l2.2,0.2c0.8,0.1,1.4,0.2,1.9,0c0.3-0.1,0.6-0.4,0.9-0.8l2.9-5.2c0-0.1,0.1-0.3,0.3-0.4
						c0.1-0.2,0.3-0.5,0.5-0.9c0.1-0.3,0.3-0.6,0.5-0.9l0.6-1c0.2-0.3,0.4-0.7,0.6-1c0.1-0.1,0.2-0.3,0.3-0.5
						c0.1-0.2,0.2-0.4,0.4-0.6l2.7-4.8c0.3-0.6,0.4-1.3,0.1-2C826.7,78,826.1,77.6,825.4,77.5z"/>
					<path class="st3" d="M825.3,79.7c0,0,0,0.1,0,0.1l-3,5.2c-0.8,1.4-0.8,1.4-2.2,1.3l-5.9-0.5l0.7-7.3l10.2,0.9
						c0.1,0,0.2,0,0.2,0.1C825.3,79.6,825.3,79.6,825.3,79.7z"/>
					<path class="st3" d="M815.8,95.2l-2.4-0.2l0.7-7.4l5.9,0.5c0.1,0,0.2,0.1,0.2,0.2c0,0.1,0,0.1,0,0.2s0,0.2-0.1,0.2l0,0.1
						c-0.6,1.2-2.1,4.1-3,5.6C816.7,95.2,816.7,95.2,815.8,95.2z"/>
					<path class="st3" d="M799,77.9c0.1-0.7,0.4-0.9,1.1-0.8c0,0,1.8,0.2,4.1,0.4c3.6,0.3,8.3,0.8,8.4,0.8c0,0,0,0,0.1,0l0.5,0.1
						l-2.1,23.3c-0.1,0.8-0.7,0.8-0.7,0.8l-12.9-1.2c-0.3,0-0.5-0.4-0.4-0.8L799,77.9L799,77.9z"/>
				</g>
				<g>
					
						<rect x="894.6" y="73.1" transform="matrix(0.9958 9.155472e-02 -9.155472e-02 0.9958 12.7567 -81.7831)" class="st4" width="6.3" height="50"/>
					
						<rect x="1039.7" y="86.5" transform="matrix(0.9958 9.155472e-02 -9.155472e-02 0.9958 14.5866 -95.0054)" class="st4" width="6.3" height="50"/>
					
						<rect x="904.1" y="73.9" transform="matrix(0.9958 9.155472e-02 -9.155472e-02 0.9958 12.3745 -82.5276)" class="st4" width="3.2" height="39.5"/>
					
						<rect x="911.2" y="74.6" transform="matrix(0.9958 9.155472e-02 -9.155472e-02 0.9958 12.4716 -83.2293)" class="st4" width="4.4" height="39.5"/>
					
						<rect x="919.8" y="75.2" transform="matrix(0.9958 9.155472e-02 -9.155472e-02 0.9958 12.5644 -83.9002)" class="st4" width="1.9" height="39.5"/>
					
						<rect x="926.8" y="75.9" transform="matrix(0.9958 9.155472e-02 -9.155472e-02 0.9958 12.6615 -84.6019)" class="st4" width="3.4" height="39.5"/>
					
						<rect x="933.3" y="76.6" transform="matrix(0.9958 9.155472e-02 -9.155472e-02 0.9958 12.7565 -85.2882)" class="st4" width="5.3" height="39.5"/>
					
						<rect x="941.6" y="77.3" transform="matrix(0.9958 9.155472e-02 -9.155472e-02 0.9958 12.8494 -85.9591)" class="st4" width="3.4" height="39.5"/>
					
						<rect x="948.7" y="78" transform="matrix(0.9958 9.155472e-02 -9.155472e-02 0.9958 12.9454 -86.6531)" class="st4" width="4.4" height="39.5"/>
					
						<rect x="956.5" y="78.7" transform="matrix(0.9958 9.155472e-02 -9.155472e-02 0.9958 13.0404 -87.3394)" class="st4" width="3.9" height="39.5"/>
					
						<rect x="964.6" y="79.4" transform="matrix(0.9958 9.155472e-02 -9.155472e-02 0.9958 13.1375 -88.0411)" class="st4" width="3.1" height="39.5"/>
					
						<rect x="973.8" y="80.3" transform="matrix(0.9958 9.155472e-02 -9.155472e-02 0.9958 13.2535 -88.8792)" class="st4" width="3.2" height="39.5"/>
					
						<rect x="980.9" y="81" transform="matrix(0.9958 9.155472e-02 -9.155472e-02 0.9958 13.3506 -89.5809)" class="st4" width="4.4" height="39.5"/>
					
						<rect x="989.5" y="81.6" transform="matrix(0.9958 9.155472e-02 -9.155472e-02 0.9958 13.4435 -90.2518)" class="st4" width="1.9" height="39.5"/>
					
						<rect x="996.4" y="82.4" transform="matrix(0.9958 9.155472e-02 -9.155472e-02 0.9958 13.5406 -90.9535)" class="st4" width="3.4" height="39.5"/>
					
						<rect x="1003" y="83" transform="matrix(0.9958 9.155472e-02 -9.155472e-02 0.9958 13.6356 -91.6398)" class="st4" width="5.3" height="39.5"/>
					
						<rect x="1011.3" y="83.7" transform="matrix(0.9958 9.155472e-02 -9.155472e-02 0.9958 13.7284 -92.3107)" class="st4" width="3.4" height="39.5"/>
					
						<rect x="1018.4" y="84.4" transform="matrix(0.9958 9.155472e-02 -9.155472e-02 0.9958 13.8245 -93.0047)" class="st4" width="4.4" height="39.5"/>
					
						<rect x="1026.2" y="85.1" transform="matrix(0.9958 9.155472e-02 -9.155472e-02 0.9958 13.9194 -93.691)" class="st4" width="3.9" height="39.5"/>
					
						<rect x="1034.3" y="85.8" transform="matrix(0.9958 9.155472e-02 -9.155472e-02 0.9958 14.0166 -94.3927)" class="st4" width="3.1" height="39.5"/>
					<g>
						<path class="st4" d="M903.4,120.9c-0.3,0.2-0.6,0.3-0.9,0.3c-0.5,0-0.8-0.2-1.1-0.6c-0.2-0.4-0.3-0.8-0.3-1.4
							c0-0.3,0.1-0.7,0.3-0.9s0.4-0.5,0.7-0.6c0.3-0.1,0.6-0.2,1-0.2c0.3,0,0.6,0.1,0.9,0.4c0.3,0.2,0.5,0.5,0.6,0.8
							c0.1,0.3,0.2,0.7,0.1,1.2l0,0.5c-0.1,0.6-0.2,1.1-0.5,1.5c-0.3,0.4-0.6,0.7-1.1,0.9c-0.4,0.2-0.9,0.3-1.5,0.2l-0.1,0l0.1-1
							l0.2,0C902.8,121.9,903.3,121.6,903.4,120.9z M902.9,120.3c0.3,0,0.5-0.1,0.6-0.3l0-0.5c0-0.3,0-0.6-0.1-0.8
							c-0.1-0.2-0.2-0.3-0.4-0.3c-0.2,0-0.3,0.1-0.5,0.2c-0.1,0.2-0.2,0.4-0.2,0.7c0,0.3,0,0.5,0.1,0.7
							C902.6,120.2,902.7,120.3,902.9,120.3z"/>
						<path class="st4" d="M912.4,119.8c0,0.3-0.1,0.5-0.3,0.7c-0.1,0.2-0.3,0.3-0.6,0.4c0.2,0.1,0.4,0.3,0.5,0.6
							c0.1,0.2,0.2,0.5,0.1,0.8c0,0.5-0.2,0.8-0.6,1.1c-0.3,0.2-0.8,0.3-1.4,0.3c-0.6-0.1-1-0.2-1.3-0.5c-0.3-0.3-0.4-0.7-0.4-1.2
							c0-0.3,0.1-0.5,0.3-0.7c0.2-0.2,0.4-0.4,0.7-0.5c-0.2-0.1-0.4-0.3-0.5-0.5c-0.1-0.2-0.2-0.4-0.1-0.7c0-0.5,0.2-0.8,0.6-1.1
							c0.3-0.2,0.8-0.3,1.3-0.3c0.5,0,0.9,0.2,1.2,0.5C912.3,119,912.5,119.4,912.4,119.8z M911.1,122.1c0-0.2,0-0.4-0.1-0.5
							c-0.1-0.1-0.2-0.2-0.4-0.2c-0.2,0-0.3,0-0.5,0.1c-0.1,0.1-0.2,0.3-0.2,0.5c0,0.2,0,0.4,0.1,0.5c0.1,0.1,0.2,0.2,0.4,0.2
							c0.2,0,0.3,0,0.5-0.1C911,122.5,911.1,122.3,911.1,122.1z M910.7,119.1c-0.2,0-0.3,0-0.4,0.1c-0.1,0.1-0.2,0.3-0.2,0.4
							c0,0.2,0,0.4,0.1,0.5s0.2,0.2,0.4,0.2c0.2,0,0.3,0,0.4-0.1c0.1-0.1,0.1-0.3,0.2-0.5c0-0.2,0-0.3-0.1-0.5
							S910.9,119.1,910.7,119.1z"/>
						<path class="st4" d="M920.3,119.8l-2.4,4.5l-1.3-0.1l2.4-4.2l-2.5-0.2l0.1-1l3.8,0.3L920.3,119.8z"/>
						<path class="st4" d="M927.3,119.7l-0.1,1l-0.1,0c-0.5,0-0.8,0-1.1,0.2c-0.3,0.2-0.5,0.5-0.6,0.9c0.3-0.3,0.7-0.4,1.1-0.3
							c0.5,0,0.8,0.2,1,0.6s0.3,0.8,0.3,1.4c0,0.3-0.1,0.6-0.3,0.9c-0.2,0.3-0.4,0.5-0.7,0.6c-0.3,0.1-0.6,0.2-1,0.2
							c-0.4,0-0.7-0.2-1-0.4c-0.3-0.2-0.5-0.5-0.6-0.8c-0.1-0.3-0.2-0.7-0.1-1.1l0-0.5c0.1-0.6,0.2-1,0.5-1.5s0.6-0.7,1.1-0.9
							c0.5-0.2,0.9-0.3,1.5-0.2L927.3,119.7z M926,122.4c-0.2,0-0.3,0-0.4,0.1c-0.1,0.1-0.2,0.2-0.3,0.3l0,0.4
							c-0.1,0.7,0.1,1,0.6,1.1c0.2,0,0.3-0.1,0.5-0.2c0.1-0.2,0.2-0.4,0.2-0.6c0-0.3,0-0.5-0.1-0.7
							C926.3,122.5,926.2,122.4,926,122.4z"/>
						<path class="st4" d="M931.9,122.9l0.6-2.7l3.1,0.3l-0.1,1l-2.1-0.2l-0.2,1.1c0.1,0,0.2-0.1,0.4-0.1c0.1,0,0.3,0,0.4,0
							c0.5,0,0.9,0.2,1.2,0.6s0.3,0.8,0.3,1.4c0,0.3-0.1,0.7-0.3,0.9s-0.4,0.5-0.7,0.6c-0.3,0.1-0.6,0.2-1,0.1
							c-0.3,0-0.6-0.1-0.9-0.3c-0.3-0.2-0.5-0.4-0.6-0.6c-0.1-0.3-0.2-0.5-0.2-0.8l1.2,0.1c0,0.2,0,0.4,0.1,0.5
							c0.1,0.1,0.2,0.2,0.4,0.2c0.4,0,0.6-0.3,0.7-0.9c0.1-0.6-0.2-0.9-0.7-0.9c-0.3,0-0.5,0-0.7,0.2L931.9,122.9z"/>
						<path class="st4" d="M942.6,124.5l0.5,0l-0.1,1l-0.5,0l-0.1,1.1l-1.2-0.1l0.1-1.1l-2-0.2l0-0.8l2.4-3.3l0,0l1.2,0.1
							L942.6,124.5z M940.5,124.3l0.9,0.1l0.2-1.7l-0.1,0.1L940.5,124.3z"/>
						<path class="st4" d="M948.3,123.9l0.6,0.1c0.5,0,0.7-0.2,0.7-0.6c0-0.2,0-0.3-0.1-0.4c-0.1-0.1-0.2-0.2-0.4-0.2
							c-0.2,0-0.3,0-0.4,0.1c-0.1,0.1-0.2,0.2-0.2,0.3l-1.2-0.1c0-0.3,0.1-0.5,0.3-0.7s0.4-0.4,0.7-0.5c0.3-0.1,0.6-0.1,0.9-0.1
							c0.6,0.1,1,0.2,1.3,0.5c0.3,0.3,0.4,0.7,0.4,1.2c0,0.2-0.1,0.4-0.3,0.6c-0.2,0.2-0.4,0.3-0.6,0.4c0.3,0.1,0.5,0.3,0.6,0.5
							c0.1,0.2,0.2,0.5,0.2,0.8c0,0.5-0.3,0.8-0.6,1.1s-0.9,0.4-1.5,0.3c-0.3,0-0.7-0.1-0.9-0.3c-0.3-0.2-0.5-0.4-0.6-0.6
							c-0.1-0.3-0.2-0.5-0.2-0.8l1.2,0.1c0,0.2,0,0.3,0.2,0.4c0.1,0.1,0.3,0.2,0.5,0.2c0.2,0,0.4,0,0.5-0.1c0.1-0.1,0.2-0.3,0.2-0.5
							c0-0.3,0-0.5-0.1-0.6c-0.1-0.1-0.3-0.2-0.5-0.2l-0.6-0.1L948.3,123.9z"/>
						<path class="st4" d="M958.2,128l-3.7-0.3l0.1-0.8l1.8-1.7c0.5-0.4,0.7-0.8,0.7-1.1c0-0.2,0-0.4-0.1-0.5
							c-0.1-0.1-0.2-0.2-0.4-0.2c-0.2,0-0.3,0.1-0.5,0.2s-0.2,0.3-0.2,0.6l-1.2-0.1c0-0.3,0.1-0.6,0.3-0.9c0.2-0.3,0.4-0.5,0.7-0.6
							c0.3-0.1,0.6-0.2,1-0.1c0.6,0.1,1,0.2,1.3,0.5c0.3,0.3,0.4,0.7,0.4,1.2c0,0.2-0.1,0.4-0.2,0.6c-0.1,0.2-0.2,0.4-0.4,0.6
							c-0.2,0.2-0.5,0.5-0.9,0.8l-0.7,0.7l2.1,0.2L958.2,128z"/>
						<path class="st4" d="M964.9,128.6l-1.2-0.1l0.4-4l-1.2,0.2l0.1-0.9l2.4-0.6l0.1,0L964.9,128.6z"/>
					</g>
					<g>
						<path class="st4" d="M973.1,127.3c-0.3,0.2-0.6,0.3-0.9,0.3c-0.5,0-0.8-0.2-1.1-0.6c-0.2-0.4-0.3-0.8-0.3-1.4
							c0-0.3,0.1-0.7,0.3-0.9c0.2-0.3,0.4-0.5,0.7-0.6c0.3-0.1,0.6-0.2,1-0.2c0.3,0,0.6,0.1,0.9,0.4c0.3,0.2,0.5,0.5,0.6,0.8
							s0.2,0.7,0.1,1.2l0,0.5c-0.1,0.6-0.2,1.1-0.5,1.5c-0.3,0.4-0.6,0.7-1.1,0.9c-0.4,0.2-0.9,0.3-1.5,0.2l-0.1,0l0.1-1l0.2,0
							C972.4,128.4,972.9,128,973.1,127.3z M972.6,126.7c0.3,0,0.5-0.1,0.6-0.3l0-0.5c0-0.3,0-0.6-0.1-0.8c-0.1-0.2-0.2-0.3-0.4-0.3
							c-0.2,0-0.3,0.1-0.5,0.2c-0.1,0.2-0.2,0.4-0.2,0.7c0,0.3,0,0.5,0.1,0.7C972.2,126.6,972.4,126.7,972.6,126.7z"/>
						<path class="st4" d="M982.1,126.2c0,0.3-0.1,0.5-0.3,0.7c-0.1,0.2-0.3,0.3-0.6,0.4c0.2,0.1,0.4,0.3,0.5,0.6
							c0.1,0.2,0.2,0.5,0.1,0.8c0,0.5-0.2,0.8-0.6,1.1c-0.3,0.2-0.8,0.3-1.4,0.3c-0.6-0.1-1-0.2-1.3-0.5c-0.3-0.3-0.4-0.7-0.4-1.2
							c0-0.3,0.1-0.5,0.3-0.7s0.4-0.4,0.7-0.5c-0.2-0.1-0.4-0.3-0.5-0.5c-0.1-0.2-0.2-0.4-0.1-0.7c0-0.5,0.2-0.8,0.6-1.1
							c0.3-0.2,0.8-0.3,1.3-0.3c0.5,0,0.9,0.2,1.2,0.5C982,125.4,982.1,125.8,982.1,126.2z M980.8,128.5c0-0.2,0-0.4-0.1-0.5
							c-0.1-0.1-0.2-0.2-0.4-0.2c-0.2,0-0.3,0-0.5,0.1c-0.1,0.1-0.2,0.3-0.2,0.5c0,0.2,0,0.4,0.1,0.5c0.1,0.1,0.2,0.2,0.4,0.2
							c0.2,0,0.3,0,0.5-0.1C980.7,128.9,980.7,128.7,980.8,128.5z M980.4,125.5c-0.2,0-0.3,0-0.4,0.1c-0.1,0.1-0.2,0.3-0.2,0.4
							c0,0.2,0,0.4,0.1,0.5c0.1,0.1,0.2,0.2,0.4,0.2c0.2,0,0.3,0,0.4-0.1c0.1-0.1,0.1-0.3,0.2-0.5c0-0.2,0-0.3-0.1-0.5
							S980.6,125.5,980.4,125.5z"/>
						<path class="st4" d="M989.9,126.2l-2.4,4.5l-1.3-0.1l2.4-4.2l-2.5-0.2l0.1-1l3.8,0.3L989.9,126.2z"/>
						<path class="st4" d="M997,126.1l-0.1,1l-0.1,0c-0.5,0-0.8,0-1.1,0.2c-0.3,0.2-0.5,0.5-0.6,0.9c0.3-0.3,0.7-0.4,1.1-0.3
							c0.5,0,0.8,0.2,1,0.6c0.2,0.4,0.3,0.8,0.3,1.4c0,0.3-0.1,0.6-0.3,0.9c-0.2,0.3-0.4,0.5-0.7,0.6c-0.3,0.1-0.6,0.2-1,0.2
							c-0.4,0-0.7-0.2-1-0.4c-0.3-0.2-0.5-0.5-0.6-0.8c-0.1-0.3-0.2-0.7-0.1-1.1l0-0.5c0.1-0.6,0.2-1,0.5-1.5
							c0.3-0.4,0.6-0.7,1.1-0.9s0.9-0.3,1.5-0.2L997,126.1z M995.6,128.8c-0.2,0-0.3,0-0.4,0.1c-0.1,0.1-0.2,0.2-0.3,0.3l0,0.4
							c-0.1,0.7,0.1,1,0.6,1.1c0.2,0,0.3-0.1,0.5-0.2c0.1-0.2,0.2-0.4,0.2-0.6c0-0.3,0-0.5-0.1-0.7
							C996,128.9,995.8,128.8,995.6,128.8z"/>
						<path class="st4" d="M1001.5,129.4l0.6-2.7l3.1,0.3l-0.1,1l-2.1-0.2l-0.2,1.1c0.1,0,0.2-0.1,0.4-0.1c0.1,0,0.3,0,0.4,0
							c0.5,0,0.9,0.2,1.2,0.6c0.2,0.3,0.3,0.8,0.3,1.4c0,0.3-0.1,0.7-0.3,0.9c-0.2,0.3-0.4,0.5-0.7,0.6c-0.3,0.1-0.6,0.2-1,0.1
							c-0.3,0-0.6-0.1-0.9-0.3c-0.3-0.2-0.5-0.4-0.6-0.6c-0.1-0.3-0.2-0.5-0.2-0.8l1.2,0.1c0,0.2,0,0.4,0.1,0.5
							c0.1,0.1,0.2,0.2,0.4,0.2c0.4,0,0.6-0.3,0.7-0.9c0.1-0.6-0.2-0.9-0.7-0.9c-0.3,0-0.5,0-0.7,0.2L1001.5,129.4z"/>
						<path class="st4" d="M1012.3,130.9l0.5,0l-0.1,1l-0.5,0l-0.1,1.1l-1.2-0.1l0.1-1.1l-2-0.2l0-0.8l2.4-3.3l0,0l1.2,0.1
							L1012.3,130.9z M1010.1,130.7l0.9,0.1l0.2-1.7l-0.1,0.1L1010.1,130.7z"/>
						<path class="st4" d="M1018,130.3l0.6,0.1c0.5,0,0.7-0.2,0.7-0.6c0-0.2,0-0.3-0.1-0.4c-0.1-0.1-0.2-0.2-0.4-0.2
							c-0.2,0-0.3,0-0.4,0.1c-0.1,0.1-0.2,0.2-0.2,0.3l-1.2-0.1c0-0.3,0.1-0.5,0.3-0.7c0.2-0.2,0.4-0.4,0.7-0.5
							c0.3-0.1,0.6-0.1,0.9-0.1c0.6,0.1,1,0.2,1.3,0.5c0.3,0.3,0.4,0.7,0.4,1.2c0,0.2-0.1,0.4-0.3,0.6c-0.2,0.2-0.4,0.3-0.6,0.4
							c0.3,0.1,0.5,0.3,0.6,0.5c0.1,0.2,0.2,0.5,0.2,0.8c0,0.5-0.3,0.8-0.6,1.1c-0.4,0.3-0.9,0.4-1.5,0.3c-0.3,0-0.7-0.1-0.9-0.3
							c-0.3-0.2-0.5-0.4-0.6-0.6c-0.1-0.3-0.2-0.5-0.2-0.8l1.2,0.1c0,0.2,0,0.3,0.2,0.4c0.1,0.1,0.3,0.2,0.5,0.2
							c0.2,0,0.4,0,0.5-0.1c0.1-0.1,0.2-0.3,0.2-0.5c0-0.3,0-0.5-0.1-0.6c-0.1-0.1-0.3-0.2-0.5-0.2l-0.6-0.1L1018,130.3z"/>
						<path class="st4" d="M1027.9,134.4l-3.7-0.3l0.1-0.8l1.8-1.7c0.5-0.4,0.7-0.8,0.7-1.1c0-0.2,0-0.4-0.1-0.5
							c-0.1-0.1-0.2-0.2-0.4-0.2c-0.2,0-0.3,0.1-0.5,0.2c-0.1,0.2-0.2,0.3-0.2,0.6l-1.2-0.1c0-0.3,0.1-0.6,0.3-0.9
							c0.2-0.3,0.4-0.5,0.7-0.6c0.3-0.1,0.6-0.2,1-0.1c0.6,0.1,1,0.2,1.3,0.5c0.3,0.3,0.4,0.7,0.4,1.2c0,0.2-0.1,0.4-0.2,0.6
							c-0.1,0.2-0.2,0.4-0.4,0.6c-0.2,0.2-0.5,0.5-0.9,0.8l-0.7,0.7l2.1,0.2L1027.9,134.4z"/>
						<path class="st4" d="M1034.6,135l-1.2-0.1l0.4-4l-1.2,0.2l0.1-0.9l2.4-0.6l0.1,0L1034.6,135z"/>
					</g>
				</g>
				
					<rect x="755.7" y="144.6" transform="matrix(0.9958 9.155472e-02 -9.155472e-02 0.9958 17.6068 -81.6472)" class="st4" width="286" height="13"/>
				
					<rect x="738.7" y="326.1" transform="matrix(0.9958 9.155472e-02 -9.155472e-02 0.9958 33.8543 -72.6905)" class="st4" width="141" height="13"/>
				
					<rect x="735.9" y="357" transform="matrix(0.9958 9.155472e-02 -9.155472e-02 0.9958 36.6687 -72.301)" class="st4" width="141" height="13"/>
				
					<rect x="732.7" y="394.5" transform="matrix(0.9958 9.155472e-02 -9.155472e-02 0.9958 40.394 -78.4935)" class="st4" width="286" height="13"/>
				
					<rect x="729.9" y="425.4" transform="matrix(0.9958 9.155472e-02 -9.155472e-02 0.9958 43.2083 -78.104)" class="st4" width="286" height="13"/>
				
					<rect x="929" y="341.5" transform="matrix(0.9958 9.155472e-02 -9.155472e-02 0.9958 35.9652 -87.9425)" class="st4" width="95" height="13"/>
				
					<rect x="926.2" y="372.4" transform="matrix(0.9958 9.155472e-02 -9.155472e-02 0.9958 38.7795 -87.553)" class="st4" width="95" height="13"/>
				<g>
					<path class="st4" d="M760.9,175.1l268.9,24.7l-10.3,112.5l-268.9-24.7L760.9,175.1 M753.7,166.4l-11.8,128.5l284.8,26.2
						l11.8-128.5L753.7,166.4L753.7,166.4z"/>
				</g>
				<g>
					<line class="st5" x1="755.1" y1="211.7" x2="1028.9" y2="236.9"/>
				</g>
				<line class="st5" x1="752.8" y1="252.6" x2="1023.7" y2="277.6"/>
				<line class="st5" x1="939.5" y1="188.5" x2="928.1" y2="311.9"/>
			</g>
		</g>
		<g>
			<linearGradient id="SVGID_2_" gradientUnits="userSpaceOnUse" x1="943.7749" y1="90.1682" x2="628.9993" y2="394.8876">
				<stop  offset="0" style="stop-color:#F9F9F9"/>
				<stop  offset="0.3897" style="stop-color:#F6F6F6"/>
				<stop  offset="0.6715" style="stop-color:#EDEDED"/>
				<stop  offset="0.9186" style="stop-color:#DDDDDD"/>
				<stop  offset="1" style="stop-color:#D6D6D6"/>
			</linearGradient>
			<polygon class="st6" points="980.5,431.6 650.1,457.9 616.1,30.4 946.5,4.1 			"/>
			<g>
				<g>
					<path class="st0" d="M667.5,66.2l-4.3-8.1c-0.5-0.8-1.3-1.3-2.1-1.3l-6.8,0.5c-0.9,0.1-1.7,0.7-2.1,1.7L641,89.5
						c-0.2,0.6-0.1,1.3,0.2,1.7c0.3,0.4,0.8,0.7,1.5,0.6l15.8-1.2c0.9-0.1,1.6-0.6,1.9-1.4l1.6-4.4l10.6-0.8c0,0,0.1,0,0.1,0l0,0
						c0.9-0.1,1.6-0.6,2.1-1.4c0.5-0.9,0.6-2,0-3.2L667.5,66.2z"/>
					<path class="st2" d="M673.3,81.1c0,0.3,0,0.5-0.1,0.7c-0.2,0.3-0.5,0.5-0.8,0.5l-9.9,0.8l4.8-13.4l3.2,5.9
						c1.6,3,2.6,4.8,2.6,4.8C673.3,80.6,673.3,80.8,673.3,81.1z"/>
					<path class="st3" d="M658.6,88.6c-0.1,0.2-0.3,0.2-0.4,0.2L642.6,90l11.1-30.3c0.1-0.3,0.2-0.4,0.6-0.4l6.8-0.5
						c0.2,0,0.3,0.1,0.4,0.2l4.3,8.2l0.1,0.2c0,0.1,0.1,0.2,0.1,0.3c0,0.1,0,0.2-0.1,0.3l0,0c-0.3,0.8-5.2,14.7-6.9,19.3L658.6,88.6
						z"/>
					<path class="st0" d="M719.1,52.4l-13,1c-0.6,0-1.2,0.4-1.6,0.9c-0.4,0.5-0.6,1.2-0.5,2l1.7,22.3c0.1,1.3,1.1,2.7,2.5,2.6
						l12.9-1c1.2-0.1,2.4-1.2,2.3-2.9L721.6,55c-0.1-1.1-0.6-1.7-0.9-2C720.2,52.5,719.7,52.3,719.1,52.4z"/>
					<path class="st3" d="M719.3,54.3c0.1,0,0.2,0,0.3,0.1c0.2,0.1,0.3,0.5,0.3,0.8l1.7,22.3c0.1,0.8-0.6,1-0.6,1l-12.9,1
						c-0.2,0-0.5-0.4-0.6-0.9l-1.7-22.3c0-0.4,0-0.6,0.1-0.8c0.1-0.1,0.2-0.2,0.4-0.2L719.3,54.3z"/>
					<path class="st0" d="M754.2,51c-0.5-0.7-1.3-1.2-2.3-1.1L724.6,52c-2,0.2-2.8,1.7-2.7,3.2l1.7,22.1c0.1,0.8,0.4,1.5,0.9,2
						c0.5,0.4,1.1,0.6,1.7,0.6l12.5-1c1.1-0.1,2.6-1.1,2.5-2.9l-0.4-4.9l4.9-0.4c0.9-0.1,3-0.5,3.8-2.7l4.9-14
						C754.9,52.9,754.8,51.8,754.2,51z"/>
					<path class="st3" d="M753,52.6c0,0.2,0,0.5-0.1,0.8L748,67.2c-0.4,1.2-1.6,1.5-2.3,1.5l-4.9,0.4l-1.3-16.5l12.5-1
						c0.3,0,0.6,0.1,0.8,0.3C752.9,52.2,753,52.4,753,52.6z"/>
					<path class="st3" d="M739.5,76.1c0.1,0.7-0.6,1-0.8,1l-12.5,1c-0.2,0-0.3,0-0.4-0.1c-0.2-0.1-0.3-0.5-0.3-0.8L723.7,55
						c0-0.4,0.1-1.1,1.1-1.2l2.1-0.2c3.4-0.3,9.9-0.8,10.1-0.8l0,0c0,0,0.1,0,0.1,0l0.7-0.1L739.5,76.1z"/>
					<path class="st0" d="M701.5,53.7l-25.2,1.9c-1.6,0.1-2.7,1.3-2.5,3l1.7,22.6c0.1,1.4,1.2,2.5,2.5,2.4l12.9-1
						c1.2-0.1,2.4-1.2,2.3-2.9l-0.4-5l2.2-0.2c0.8-0.1,1.4-0.1,1.9-0.3c0.3-0.2,0.6-0.5,0.8-0.9l2-5.7c0-0.1,0.1-0.3,0.2-0.5
						c0.1-0.2,0.2-0.6,0.4-1c0.1-0.3,0.2-0.6,0.4-1l0.4-1.1c0.1-0.4,0.3-0.8,0.4-1.1c0.1-0.2,0.1-0.4,0.2-0.5
						c0.1-0.2,0.2-0.4,0.3-0.7l1.8-5.2c0.2-0.7,0.1-1.4-0.3-1.9C702.8,54,702.2,53.7,701.5,53.7z"/>
					<path class="st3" d="M701.7,55.8c0,0,0,0.1,0,0.1l-2,5.7c-0.5,1.5-0.6,1.5-2,1.6l-5.9,0.5l-0.6-7.3l10.2-0.8
						c0.1,0,0.2,0,0.2,0.1C701.7,55.7,701.7,55.8,701.7,55.8z"/>
					<path class="st3" d="M694.9,72.7l-2.4,0.2l-0.6-7.4l5.9-0.5c0.1,0,0.2,0,0.2,0.1c0,0.1,0,0.1,0.1,0.2c0,0.1,0,0.2,0,0.2l0,0.1
						c-0.4,1.3-1.4,4.4-2.1,6.1C695.8,72.6,695.8,72.6,694.9,72.7z"/>
					<path class="st3" d="M675.5,58.5c-0.1-0.7,0.2-0.9,0.9-1c0,0,1.8-0.1,4.1-0.3c3.6-0.3,8.3-0.6,8.4-0.6c0,0,0,0,0.1,0l0.5,0
						l1.8,23.3c0.1,0.8-0.6,1-0.6,1l-12.9,1c-0.3,0-0.5-0.3-0.6-0.7L675.5,58.5L675.5,58.5z"/>
				</g>
				<g>
					
						<rect x="773.1" y="36.9" transform="matrix(0.9971 -7.656931e-02 7.656931e-02 0.9971 -2.4624 59.62)" class="st4" width="6.3" height="50"/>
					
						<rect x="918.3" y="25.8" transform="matrix(0.9971 -7.656931e-02 7.656931e-02 0.9971 -1.1822 70.7063)" class="st4" width="6.3" height="50"/>
					
						<rect x="781.7" y="36.4" transform="matrix(0.9971 -7.656931e-02 7.656931e-02 0.9971 -1.9975 60.1429)" class="st4" width="3.2" height="39.5"/>
					
						<rect x="788.8" y="35.8" transform="matrix(0.9971 -7.656931e-02 7.656931e-02 0.9971 -1.9296 60.7312)" class="st4" width="4.4" height="39.5"/>
					
						<rect x="797.5" y="35.2" transform="matrix(0.9971 -7.656931e-02 7.656931e-02 0.9971 -1.8646 61.2937)" class="st4" width="1.9" height="39.5"/>
					
						<rect x="804.4" y="34.6" transform="matrix(0.9971 -7.656931e-02 7.656931e-02 0.9971 -1.7967 61.8821)" class="st4" width="3.4" height="39.5"/>
					
						<rect x="811" y="34" transform="matrix(0.9971 -7.656931e-02 7.656931e-02 0.9971 -1.7302 62.4575)" class="st4" width="5.3" height="39.5"/>
					
						<rect x="819.3" y="33.5" transform="matrix(0.9971 -7.656931e-02 7.656931e-02 0.9971 -1.6653 63.02)" class="st4" width="3.4" height="39.5"/>
					
						<rect x="826.4" y="32.9" transform="matrix(0.9971 -7.656931e-02 7.656931e-02 0.9971 -1.5981 63.6019)" class="st4" width="4.4" height="39.5"/>
					
						<rect x="834.2" y="32.3" transform="matrix(0.9971 -7.656931e-02 7.656931e-02 0.9971 -1.5316 64.1774)" class="st4" width="3.9" height="39.5"/>
					
						<rect x="842.3" y="31.7" transform="matrix(0.9971 -7.656931e-02 7.656931e-02 0.9971 -1.4637 64.7657)" class="st4" width="3.1" height="39.5"/>
					
						<rect x="851.5" y="31" transform="matrix(0.9971 -7.656931e-02 7.656931e-02 0.9971 -1.3825 65.4684)" class="st4" width="3.2" height="39.5"/>
					
						<rect x="858.6" y="30.4" transform="matrix(0.9971 -7.656931e-02 7.656931e-02 0.9971 -1.3146 66.0568)" class="st4" width="4.4" height="39.5"/>
					
						<rect x="867.2" y="29.9" transform="matrix(0.9971 -7.656931e-02 7.656931e-02 0.9971 -1.2496 66.6193)" class="st4" width="1.9" height="39.5"/>
					
						<rect x="874.2" y="29.3" transform="matrix(0.9971 -7.656931e-02 7.656931e-02 0.9971 -1.1817 67.2076)" class="st4" width="3.4" height="39.5"/>
					
						<rect x="880.8" y="28.7" transform="matrix(0.9971 -7.656931e-02 7.656931e-02 0.9971 -1.1152 67.7831)" class="st4" width="5.3" height="39.5"/>
					
						<rect x="889.1" y="28.1" transform="matrix(0.9971 -7.656931e-02 7.656931e-02 0.9971 -1.0503 68.3456)" class="st4" width="3.4" height="39.5"/>
					
						<rect x="896.2" y="27.5" transform="matrix(0.9971 -7.656931e-02 7.656931e-02 0.9971 -0.9831 68.9275)" class="st4" width="4.4" height="39.5"/>
					
						<rect x="904" y="27" transform="matrix(0.9971 -7.656931e-02 7.656931e-02 0.9971 -0.9166 69.5029)" class="st4" width="3.9" height="39.5"/>
					
						<rect x="912.1" y="26.4" transform="matrix(0.9971 -7.656931e-02 7.656931e-02 0.9971 -0.8487 70.0912)" class="st4" width="3.1" height="39.5"/>
					<g>
						<path class="st4" d="M785.7,83.4c-0.2,0.3-0.5,0.4-0.8,0.4c-0.5,0-0.9-0.1-1.2-0.4c-0.3-0.3-0.5-0.7-0.5-1.3
							c0-0.3,0-0.7,0.2-1c0.1-0.3,0.3-0.6,0.6-0.8c0.3-0.2,0.6-0.3,0.9-0.3c0.3,0,0.7,0,1,0.2c0.3,0.2,0.5,0.4,0.7,0.7
							c0.2,0.3,0.3,0.7,0.3,1.1l0,0.5c0,0.6,0,1.1-0.2,1.6c-0.2,0.5-0.5,0.8-0.9,1.1c-0.4,0.3-0.9,0.4-1.4,0.5l-0.1,0l-0.1-1l0.2,0
							C785.2,84.5,785.6,84.1,785.7,83.4z M785.1,82.9c0.3,0,0.4-0.2,0.5-0.4l0-0.5c0-0.3-0.1-0.6-0.2-0.8c-0.1-0.2-0.3-0.2-0.5-0.2
							c-0.2,0-0.3,0.1-0.4,0.3c-0.1,0.2-0.1,0.4-0.1,0.7c0,0.3,0.1,0.5,0.2,0.7C784.7,82.8,784.9,82.9,785.1,82.9z"/>
						<path class="st4" d="M794.3,80.8c0,0.3,0,0.5-0.1,0.7c-0.1,0.2-0.3,0.4-0.5,0.5c0.3,0.1,0.5,0.3,0.6,0.5
							c0.2,0.2,0.3,0.5,0.3,0.8c0,0.5-0.1,0.9-0.4,1.2c-0.3,0.3-0.7,0.5-1.3,0.5c-0.6,0-1-0.1-1.4-0.3c-0.4-0.3-0.5-0.6-0.6-1.1
							c0-0.3,0-0.5,0.2-0.8c0.1-0.2,0.3-0.4,0.6-0.6c-0.2-0.1-0.4-0.3-0.6-0.4c-0.1-0.2-0.2-0.4-0.2-0.7c0-0.5,0.1-0.9,0.4-1.1
							c0.3-0.3,0.7-0.5,1.2-0.5c0.5,0,1,0.1,1.3,0.3C794.1,80,794.3,80.4,794.3,80.8z M793.4,83.3c0-0.2-0.1-0.4-0.2-0.5
							c-0.1-0.1-0.3-0.2-0.5-0.1c-0.2,0-0.3,0.1-0.4,0.2c-0.1,0.1-0.1,0.3-0.1,0.5c0,0.2,0.1,0.4,0.2,0.5c0.1,0.1,0.3,0.2,0.5,0.2
							c0.2,0,0.3-0.1,0.4-0.2C793.4,83.7,793.4,83.5,793.4,83.3z M792.6,80.4c-0.2,0-0.3,0.1-0.4,0.2c-0.1,0.1-0.1,0.3-0.1,0.5
							c0,0.2,0.1,0.3,0.2,0.5c0.1,0.1,0.2,0.2,0.4,0.1c0.2,0,0.3-0.1,0.4-0.2c0.1-0.1,0.1-0.3,0.1-0.5c0-0.2-0.1-0.3-0.2-0.4
							C792.9,80.5,792.7,80.4,792.6,80.4z"/>
						<path class="st4" d="M802.1,79.5l-1.6,4.9l-1.3,0.1l1.6-4.6l-2.5,0.2l-0.1-1l3.8-0.3L802.1,79.5z"/>
						<path class="st4" d="M809,78.2l0.1,1l-0.1,0c-0.5,0-0.8,0.2-1.1,0.4c-0.3,0.2-0.4,0.6-0.5,1c0.3-0.3,0.6-0.5,1-0.5
							c0.5,0,0.8,0.1,1.1,0.4c0.3,0.3,0.5,0.8,0.5,1.3c0,0.3,0,0.7-0.2,1c-0.1,0.3-0.3,0.5-0.6,0.7c-0.3,0.2-0.6,0.3-0.9,0.3
							c-0.4,0-0.7,0-1-0.2c-0.3-0.2-0.6-0.4-0.7-0.7c-0.2-0.3-0.3-0.7-0.3-1.1l0-0.5c0-0.6,0-1.1,0.2-1.5c0.2-0.5,0.5-0.8,0.9-1.1
							c0.4-0.3,0.9-0.4,1.4-0.5L809,78.2z M808.1,81.1c-0.2,0-0.3,0.1-0.4,0.1c-0.1,0.1-0.2,0.2-0.2,0.3l0,0.4c0.1,0.7,0.3,1,0.8,1
							c0.2,0,0.3-0.1,0.4-0.3c0.1-0.2,0.2-0.4,0.1-0.7c0-0.3-0.1-0.5-0.2-0.6C808.5,81.1,808.3,81,808.1,81.1z"/>
						<path class="st4" d="M814,80.7l0.1-2.8l3.1-0.2l0.1,1l-2.1,0.2l0,1.1c0.1-0.1,0.2-0.1,0.3-0.2c0.1-0.1,0.3-0.1,0.4-0.1
							c0.5,0,0.9,0.1,1.2,0.4c0.3,0.3,0.5,0.7,0.5,1.3c0,0.3,0,0.7-0.2,1c-0.1,0.3-0.3,0.5-0.6,0.7c-0.3,0.2-0.6,0.3-0.9,0.3
							c-0.3,0-0.6,0-0.9-0.1c-0.3-0.1-0.5-0.3-0.7-0.5c-0.2-0.2-0.3-0.5-0.3-0.8l1.2-0.1c0,0.2,0.1,0.3,0.2,0.5
							c0.1,0.1,0.3,0.2,0.4,0.1c0.4,0,0.6-0.4,0.5-1c0-0.6-0.3-0.8-0.8-0.8c-0.3,0-0.5,0.1-0.6,0.3L814,80.7z"/>
						<path class="st4" d="M824.9,80.4l0.5,0l0.1,1l-0.5,0l0.1,1.1l-1.2,0.1l-0.1-1.1l-2,0.2l-0.1-0.8l1.8-3.6l0,0l1.2-0.1
							L824.9,80.4z M822.7,80.5l0.9-0.1l-0.1-1.7l-0.1,0.1L822.7,80.5z"/>
						<path class="st4" d="M830.4,78.8l0.6,0c0.5,0,0.7-0.3,0.6-0.7c0-0.2-0.1-0.3-0.2-0.4s-0.3-0.1-0.5-0.1c-0.2,0-0.3,0.1-0.4,0.2
							c-0.1,0.1-0.2,0.2-0.2,0.4l-1.2,0.1c0-0.3,0-0.5,0.2-0.8c0.1-0.2,0.3-0.4,0.6-0.6c0.3-0.1,0.6-0.2,0.9-0.3
							c0.6,0,1.1,0.1,1.4,0.3c0.4,0.2,0.6,0.6,0.6,1.1c0,0.2,0,0.5-0.2,0.7c-0.1,0.2-0.3,0.4-0.6,0.5c0.3,0.1,0.5,0.2,0.7,0.4
							c0.2,0.2,0.3,0.5,0.3,0.8c0,0.5-0.1,0.9-0.5,1.2s-0.8,0.5-1.4,0.5c-0.3,0-0.7,0-1-0.1c-0.3-0.1-0.5-0.3-0.7-0.5
							c-0.2-0.2-0.3-0.5-0.3-0.8l1.2-0.1c0,0.2,0.1,0.3,0.2,0.4c0.1,0.1,0.3,0.2,0.5,0.1c0.2,0,0.4-0.1,0.5-0.2
							c0.1-0.1,0.2-0.3,0.2-0.5c0-0.3-0.1-0.5-0.2-0.6c-0.1-0.1-0.3-0.1-0.6-0.1l-0.6,0L830.4,78.8z"/>
						<path class="st4" d="M840.9,81.2l-3.7,0.3l-0.1-0.8l1.5-2c0.4-0.5,0.6-0.9,0.5-1.2c0-0.2-0.1-0.4-0.2-0.5
							c-0.1-0.1-0.3-0.2-0.4-0.1c-0.2,0-0.3,0.1-0.4,0.3c-0.1,0.2-0.1,0.4-0.1,0.6l-1.2,0.1c0-0.3,0-0.6,0.2-0.9s0.3-0.5,0.6-0.7
							c0.3-0.2,0.6-0.3,0.9-0.3c0.6,0,1,0.1,1.3,0.3c0.3,0.2,0.5,0.6,0.5,1.1c0,0.2,0,0.4-0.1,0.6s-0.2,0.4-0.3,0.7
							c-0.1,0.2-0.4,0.5-0.7,0.9l-0.6,0.9l2.1-0.2L840.9,81.2z"/>
						<path class="st4" d="M847.6,80.7l-1.2,0.1l-0.3-4l-1.2,0.5l-0.1-0.9l2.2-1l0.1,0L847.6,80.7z"/>
					</g>
					<g>
						<path class="st4" d="M855.4,78c-0.2,0.3-0.5,0.4-0.8,0.4c-0.5,0-0.9-0.1-1.2-0.4c-0.3-0.3-0.5-0.7-0.5-1.3c0-0.3,0-0.7,0.2-1
							s0.3-0.6,0.6-0.8c0.3-0.2,0.6-0.3,0.9-0.3c0.3,0,0.7,0,1,0.2c0.3,0.2,0.5,0.4,0.7,0.7c0.2,0.3,0.3,0.7,0.3,1.1l0,0.5
							c0,0.6,0,1.1-0.2,1.6c-0.2,0.5-0.5,0.8-0.9,1.1c-0.4,0.3-0.9,0.4-1.4,0.5l-0.1,0l-0.1-1l0.2,0C854.9,79.2,855.4,78.8,855.4,78
							z M854.8,77.5c0.3,0,0.4-0.2,0.5-0.4l0-0.5c0-0.3-0.1-0.6-0.2-0.8c-0.1-0.2-0.3-0.2-0.5-0.2c-0.2,0-0.3,0.1-0.4,0.3
							c-0.1,0.2-0.1,0.4-0.1,0.7c0,0.3,0.1,0.5,0.2,0.7C854.4,77.5,854.6,77.6,854.8,77.5z"/>
						<path class="st4" d="M864.1,75.5c0,0.3,0,0.5-0.1,0.7c-0.1,0.2-0.3,0.4-0.5,0.5c0.3,0.1,0.5,0.3,0.6,0.5
							c0.2,0.2,0.3,0.5,0.3,0.8c0,0.5-0.1,0.9-0.4,1.2c-0.3,0.3-0.7,0.5-1.3,0.5c-0.6,0-1-0.1-1.4-0.3c-0.4-0.3-0.5-0.6-0.6-1.1
							c0-0.3,0-0.5,0.2-0.8c0.1-0.2,0.3-0.4,0.6-0.6c-0.2-0.1-0.4-0.3-0.6-0.4c-0.1-0.2-0.2-0.4-0.2-0.7c0-0.5,0.1-0.9,0.4-1.1
							c0.3-0.3,0.7-0.5,1.2-0.5c0.5,0,1,0.1,1.3,0.3C863.9,74.7,864.1,75,864.1,75.5z M863.2,77.9c0-0.2-0.1-0.4-0.2-0.5
							c-0.1-0.1-0.3-0.2-0.5-0.1c-0.2,0-0.3,0.1-0.4,0.2c-0.1,0.1-0.1,0.3-0.1,0.5c0,0.2,0.1,0.4,0.2,0.5c0.1,0.1,0.3,0.2,0.5,0.2
							c0.2,0,0.3-0.1,0.4-0.2C863.1,78.3,863.2,78.2,863.2,77.9z M862.3,75.1c-0.2,0-0.3,0.1-0.4,0.2c-0.1,0.1-0.1,0.3-0.1,0.5
							c0,0.2,0.1,0.3,0.2,0.5s0.2,0.2,0.4,0.1c0.2,0,0.3-0.1,0.4-0.2c0.1-0.1,0.1-0.3,0.1-0.5c0-0.2-0.1-0.3-0.2-0.4
							C862.6,75.1,862.5,75.1,862.3,75.1z"/>
						<path class="st4" d="M871.8,74.1l-1.6,4.9l-1.3,0.1l1.6-4.6l-2.5,0.2l-0.1-1l3.8-0.3L871.8,74.1z"/>
						<path class="st4" d="M878.7,72.8l0.1,1l-0.1,0c-0.5,0-0.8,0.2-1.1,0.4c-0.3,0.2-0.4,0.6-0.5,1c0.3-0.3,0.6-0.5,1-0.5
							c0.5,0,0.8,0.1,1.1,0.4c0.3,0.3,0.5,0.8,0.5,1.3c0,0.3,0,0.7-0.2,1c-0.1,0.3-0.3,0.5-0.6,0.7s-0.6,0.3-0.9,0.3
							c-0.4,0-0.7,0-1-0.2c-0.3-0.2-0.6-0.4-0.7-0.7c-0.2-0.3-0.3-0.7-0.3-1.1l0-0.5c0-0.6,0-1.1,0.2-1.5c0.2-0.5,0.5-0.8,0.9-1.1
							c0.4-0.3,0.9-0.4,1.4-0.5L878.7,72.8z M877.9,75.7c-0.2,0-0.3,0.1-0.4,0.1c-0.1,0.1-0.2,0.2-0.2,0.3l0,0.4
							c0.1,0.7,0.3,1,0.8,1c0.2,0,0.3-0.1,0.4-0.3c0.1-0.2,0.2-0.4,0.1-0.7c0-0.3-0.1-0.5-0.2-0.6C878.2,75.8,878.1,75.7,877.9,75.7
							z"/>
						<path class="st4" d="M883.8,75.3l0.1-2.8l3.1-0.2l0.1,1l-2.1,0.2l0,1.1c0.1-0.1,0.2-0.1,0.3-0.2c0.1-0.1,0.3-0.1,0.4-0.1
							c0.5,0,0.9,0.1,1.2,0.4c0.3,0.3,0.5,0.7,0.5,1.3c0,0.3,0,0.7-0.2,1c-0.1,0.3-0.3,0.5-0.6,0.7c-0.3,0.2-0.6,0.3-0.9,0.3
							c-0.3,0-0.6,0-0.9-0.1c-0.3-0.1-0.5-0.3-0.7-0.5c-0.2-0.2-0.3-0.5-0.3-0.8l1.2-0.1c0,0.2,0.1,0.3,0.2,0.5
							c0.1,0.1,0.3,0.2,0.4,0.1c0.4,0,0.6-0.4,0.5-1c0-0.6-0.3-0.8-0.8-0.8c-0.3,0-0.5,0.1-0.6,0.3L883.8,75.3z"/>
						<path class="st4" d="M894.6,75l0.5,0l0.1,1l-0.5,0l0.1,1.1l-1.2,0.1l-0.1-1.1l-2,0.2l-0.1-0.8l1.8-3.6l0,0l1.2-0.1L894.6,75z
							 M892.5,75.2l0.9-0.1l-0.1-1.7l-0.1,0.1L892.5,75.2z"/>
						<path class="st4" d="M900.2,73.5l0.6,0c0.5,0,0.7-0.3,0.6-0.7c0-0.2-0.1-0.3-0.2-0.4c-0.1-0.1-0.3-0.1-0.5-0.1
							c-0.2,0-0.3,0.1-0.4,0.2c-0.1,0.1-0.2,0.2-0.2,0.4l-1.2,0.1c0-0.3,0-0.5,0.2-0.8c0.1-0.2,0.3-0.4,0.6-0.6
							c0.3-0.1,0.6-0.2,0.9-0.3c0.6,0,1.1,0.1,1.4,0.3c0.4,0.2,0.5,0.6,0.6,1.1c0,0.2,0,0.5-0.2,0.7c-0.1,0.2-0.3,0.4-0.6,0.5
							c0.3,0.1,0.5,0.2,0.7,0.4c0.2,0.2,0.3,0.5,0.3,0.8c0,0.5-0.1,0.9-0.5,1.2s-0.8,0.5-1.4,0.5c-0.3,0-0.7,0-1-0.1
							c-0.3-0.1-0.5-0.3-0.7-0.5s-0.3-0.5-0.3-0.8l1.2-0.1c0,0.2,0.1,0.3,0.2,0.4c0.1,0.1,0.3,0.2,0.5,0.1c0.2,0,0.4-0.1,0.5-0.2
							c0.1-0.1,0.2-0.3,0.2-0.5c0-0.3-0.1-0.5-0.2-0.6c-0.1-0.1-0.3-0.1-0.6-0.1l-0.6,0L900.2,73.5z"/>
						<path class="st4" d="M910.6,75.9l-3.7,0.3l-0.1-0.8l1.5-2c0.4-0.5,0.6-0.9,0.5-1.2c0-0.2-0.1-0.4-0.2-0.5
							c-0.1-0.1-0.3-0.2-0.4-0.1c-0.2,0-0.3,0.1-0.4,0.3c-0.1,0.2-0.1,0.4-0.1,0.6l-1.2,0.1c0-0.3,0-0.6,0.2-0.9s0.3-0.5,0.6-0.7
							c0.3-0.2,0.6-0.3,0.9-0.3c0.6,0,1,0.1,1.3,0.3c0.3,0.2,0.5,0.6,0.5,1.1c0,0.2,0,0.4-0.1,0.6c-0.1,0.2-0.2,0.4-0.3,0.7
							c-0.1,0.2-0.4,0.5-0.7,0.9l-0.6,0.9l2.1-0.2L910.6,75.9z"/>
						<path class="st4" d="M917.4,75.4l-1.2,0.1l-0.3-4l-1.2,0.5l-0.1-0.9l2.2-1l0.1,0L917.4,75.4z"/>
					</g>
				</g>
				
					<rect x="643.1" y="107.4" transform="matrix(0.9971 -7.656931e-02 7.656931e-02 0.9971 -6.4172 60.523)" class="st4" width="286" height="13"/>
				
					<rect x="657.7" y="301.4" transform="matrix(0.9971 -7.656931e-02 7.656931e-02 0.9971 -21.4411 56.6656)" class="st4" width="141" height="13"/>
				
					<rect x="660.1" y="332.4" transform="matrix(0.9971 -7.656931e-02 7.656931e-02 0.9971 -23.8008 56.9381)" class="st4" width="141" height="13"/>
				
					<rect x="662.3" y="357.7" transform="matrix(0.9971 -7.656931e-02 7.656931e-02 0.9971 -25.5232 62.7293)" class="st4" width="286" height="13"/>
				
					<rect x="664.7" y="388.6" transform="matrix(0.9971 -7.656931e-02 7.656931e-02 0.9971 -27.883 63.0017)" class="st4" width="286" height="13"/>
				
					<rect x="848.3" y="288.6" transform="matrix(0.9971 -7.656931e-02 7.656931e-02 0.9971 -19.9644 69.4537)" class="st4" width="95" height="13"/>
				
					<rect x="850.6" y="319.5" transform="matrix(0.9971 -7.656931e-02 7.656931e-02 0.9971 -22.3241 69.7262)" class="st4" width="95" height="13"/>
				<g>
					<path class="st4" d="M923.5,140l8.7,112.7l-269.2,20.7l-8.7-112.7L923.5,140 M930.8,131.4l-285.2,21.9l9.9,128.6L940.7,260
						L930.8,131.4L930.8,131.4z"/>
				</g>
				<g>
					<line class="st5" x1="654.6" y1="197.8" x2="928.8" y2="176.7"/>
				</g>
				<line class="st5" x1="659.2" y1="238.5" x2="930.4" y2="217.7"/>
				<line class="st5" x1="832.5" y1="144" x2="842" y2="267.6"/>
			</g>
		</g>
		<g>
			<linearGradient id="SVGID_3_" gradientUnits="userSpaceOnUse" x1="952.4585" y1="91.69" x2="440.5799" y2="674.7575">
				<stop  offset="0" style="stop-color:#F9F9F9"/>
				<stop  offset="0.265" style="stop-color:#F6F6F6"/>
				<stop  offset="0.4566" style="stop-color:#EDEDED"/>
				<stop  offset="0.6252" style="stop-color:#DDDDDD"/>
				<stop  offset="0.7795" style="stop-color:#C7C7C7"/>
				<stop  offset="0.8548" style="stop-color:#B9B9B9"/>
				<stop  offset="1" style="stop-color:#D6D6D7"/>
			</linearGradient>
			<polygon class="st7" points="1009.1,430.1 677.7,428.9 679.3,0 1010.6,1.2 			"/>
			<g>
				<g>
					<path class="st0" d="M732.1,40.2l-3.6-8.5c-0.4-0.9-1.2-1.4-2-1.4l-6.8-0.1c-0.9,0-1.7,0.5-2.2,1.5L703.5,61
						c-0.3,0.6-0.3,1.3,0.1,1.7c0.3,0.5,0.8,0.8,1.4,0.8l15.8,0.2c0.9,0,1.7-0.4,2.1-1.2l1.9-4.2l10.6,0.2c0,0,0.1,0,0.1,0l0,0
						c0.9,0,1.7-0.4,2.3-1.2c0.6-0.9,0.7-2,0.3-3.1L732.1,40.2z"/>
					<path class="st2" d="M736.5,55.5c0,0.3-0.1,0.5-0.2,0.7c-0.2,0.3-0.5,0.4-0.8,0.4l-9.9-0.2l6-12.9l2.7,6.2c1.4,3.1,2.2,5,2.2,5
						C736.5,55.1,736.5,55.3,736.5,55.5z"/>
					<path class="st3" d="M721.2,61.7c-0.1,0.2-0.4,0.2-0.4,0.2l-15.6-0.2L719,32.5c0.2-0.3,0.3-0.4,0.6-0.4l6.9,0.1
						c0.2,0,0.3,0.1,0.4,0.2l3.6,8.5l0.1,0.2c0,0.1,0.1,0.2,0.1,0.3c0,0.1,0,0.2-0.1,0.3l0,0c-0.4,0.8-6.5,14.2-8.6,18.6L721.2,61.7
						z"/>
					<path class="st0" d="M784.7,31.2l-13-0.2c-0.6,0-1.3,0.3-1.7,0.8c-0.4,0.5-0.7,1.2-0.7,1.9L769,56.1c0,1.3,0.9,2.8,2.2,2.8
						l13,0.2c1.2,0,2.5-1,2.5-2.7L787,34c0-1.1-0.4-1.7-0.7-2.1C785.8,31.4,785.3,31.2,784.7,31.2z"/>
					<path class="st3" d="M784.8,33.1c0.1,0,0.2,0,0.3,0.1c0.2,0.2,0.2,0.5,0.2,0.8l-0.3,22.4c0,0.8-0.7,0.9-0.7,0.9l-13-0.2
						c-0.2,0-0.5-0.4-0.5-0.9l0.3-22.4c0-0.4,0-0.6,0.2-0.7c0.1-0.1,0.2-0.2,0.4-0.2L784.8,33.1z"/>
					<path class="st0" d="M819.8,33c-0.5-0.8-1.2-1.3-2.2-1.3l-27.4-0.4c-2,0-2.9,1.5-2.9,2.9l-0.3,22.2c0,0.8,0.3,1.6,0.8,2.1
						c0.4,0.5,1,0.7,1.7,0.7l12.6,0.2c1.1,0,2.7-0.9,2.7-2.7l0.1-4.9l4.9,0.1c0.9,0,3-0.2,4-2.3l6.2-13.4
						C820.4,35,820.3,33.9,819.8,33z"/>
					<path class="st3" d="M818.4,34.5c0,0.2-0.1,0.5-0.2,0.7l-6.1,13.4c-0.5,1.2-1.7,1.3-2.4,1.3l-4.9-0.1l0.3-16.6l12.6,0.2
						c0.3,0,0.6,0.1,0.7,0.4C818.4,34.1,818.5,34.3,818.4,34.5z"/>
					<path class="st3" d="M802.9,56.6c0,0.7-0.7,0.9-0.9,0.9l-12.6-0.2c-0.2,0-0.3,0-0.4-0.2c-0.2-0.2-0.2-0.5-0.2-0.8l0.3-22.2
						c0-0.4,0.2-1.1,1.2-1.1l2.1,0c3.4,0.1,9.9,0.2,10.1,0.2l0,0c0,0,0.1,0,0.1,0l0.7,0L802.9,56.6z"/>
					<path class="st0" d="M767,30.9l-25.3-0.4c-1.6,0-2.8,1-2.8,2.7l-0.3,22.6c0,1.5,1,2.6,2.2,2.6l13,0.2c1.2,0,2.5-1,2.5-2.7
						l0.1-5l2.2,0c0.8,0,1.4,0.1,1.9-0.2c0.3-0.2,0.6-0.4,0.8-0.9l2.5-5.5c0-0.1,0.1-0.3,0.2-0.5c0.1-0.2,0.3-0.5,0.4-0.9
						c0.1-0.3,0.3-0.6,0.4-0.9l0.5-1.1c0.2-0.4,0.3-0.7,0.5-1.1c0.1-0.2,0.2-0.4,0.2-0.5c0.1-0.2,0.2-0.4,0.3-0.7l2.3-5
						c0.3-0.7,0.3-1.4-0.1-2C768.4,31.3,767.8,30.9,767,30.9z"/>
					<path class="st3" d="M767.1,33c0,0,0,0.1,0,0.1l-2.6,5.5c-0.7,1.4-0.7,1.4-2.1,1.4l-5.9-0.1l0.1-7.3l10.2,0.2
						c0.1,0,0.2,0,0.2,0.1C767.1,32.9,767.1,33,767.1,33z"/>
					<path class="st3" d="M758.8,49.2l-2.4,0l0.1-7.4l6,0.1c0.1,0,0.2,0,0.2,0.2c0,0.1,0,0.1,0,0.2c0,0.1,0,0.2,0,0.2l0,0.1
						c-0.5,1.2-1.8,4.2-2.6,5.8C759.7,49.2,759.7,49.2,758.8,49.2z"/>
					<path class="st3" d="M740.7,33.3c0-0.7,0.3-0.9,1-0.9c0,0,1.8,0,4.1,0.1c3.6,0.1,8.3,0.2,8.4,0.2c0,0,0,0,0.1,0l0.5,0L754.6,56
						c0,0.8-0.7,0.9-0.7,0.9l-13-0.2c-0.3,0-0.5-0.3-0.5-0.8L740.7,33.3L740.7,33.3z"/>
				</g>
				<g>
					
						<rect x="837.6" y="20.9" transform="matrix(0.9999 1.536920e-02 -1.536920e-02 0.9999 0.8054 -12.9167)" class="st4" width="6.3" height="50"/>
					
						<rect x="983.3" y="23.2" transform="matrix(0.9999 1.536920e-02 -1.536920e-02 0.9999 0.857 -15.1546)" class="st4" width="6.3" height="50"/>
					
						<rect x="846.7" y="21.1" transform="matrix(0.9999 1.536920e-02 -1.536920e-02 0.9999 0.7275 -13.0334)" class="st4" width="3.2" height="39.5"/>
					
						<rect x="853.9" y="21.2" transform="matrix(0.9999 1.536920e-02 -1.536920e-02 0.9999 0.7302 -13.1522)" class="st4" width="4.4" height="39.5"/>
					
						<rect x="862.5" y="21.3" transform="matrix(0.9999 1.536920e-02 -1.536920e-02 0.9999 0.7329 -13.2658)" class="st4" width="1.9" height="39.5"/>
					
						<rect x="869.5" y="21.4" transform="matrix(0.9999 1.536920e-02 -1.536920e-02 0.9999 0.7356 -13.3845)" class="st4" width="3.4" height="39.5"/>
					
						<rect x="876.1" y="21.5" transform="matrix(0.9999 1.536920e-02 -1.536920e-02 0.9999 0.7383 -13.5007)" class="st4" width="5.3" height="39.5"/>
					
						<rect x="884.4" y="21.6" transform="matrix(0.9999 1.536920e-02 -1.536920e-02 0.9999 0.7409 -13.6142)" class="st4" width="3.4" height="39.5"/>
					
						<rect x="891.6" y="21.8" transform="matrix(0.9999 1.536920e-02 -1.536920e-02 0.9999 0.7436 -13.7317)" class="st4" width="4.4" height="39.5"/>
					
						<rect x="899.4" y="21.9" transform="matrix(0.9999 1.536920e-02 -1.536920e-02 0.9999 0.7463 -13.8478)" class="st4" width="3.9" height="39.5"/>
					
						<rect x="907.5" y="22" transform="matrix(0.9999 1.536920e-02 -1.536920e-02 0.9999 0.749 -13.9666)" class="st4" width="3.1" height="39.5"/>
					
						<rect x="916.7" y="22.1" transform="matrix(0.9999 1.536920e-02 -1.536920e-02 0.9999 0.7523 -14.1085)" class="st4" width="3.2" height="39.5"/>
					
						<rect x="923.8" y="22.3" transform="matrix(0.9999 1.536920e-02 -1.536920e-02 0.9999 0.755 -14.2272)" class="st4" width="4.4" height="39.5"/>
					
						<rect x="932.5" y="22.4" transform="matrix(0.9999 1.536920e-02 -1.536920e-02 0.9999 0.7577 -14.3408)" class="st4" width="1.9" height="39.5"/>
					
						<rect x="939.4" y="22.5" transform="matrix(0.9999 1.536920e-02 -1.536920e-02 0.9999 0.7604 -14.4595)" class="st4" width="3.4" height="39.5"/>
					
						<rect x="946.1" y="22.6" transform="matrix(0.9999 1.536920e-02 -1.536920e-02 0.9999 0.7631 -14.5757)" class="st4" width="5.3" height="39.5"/>
					
						<rect x="954.4" y="22.7" transform="matrix(0.9999 1.536920e-02 -1.536920e-02 0.9999 0.7657 -14.6892)" class="st4" width="3.4" height="39.5"/>
					
						<rect x="961.5" y="22.8" transform="matrix(0.9999 1.536920e-02 -1.536920e-02 0.9999 0.7684 -14.8067)" class="st4" width="4.4" height="39.5"/>
					
						<rect x="969.3" y="23" transform="matrix(0.9999 1.536920e-02 -1.536920e-02 0.9999 0.7711 -14.9229)" class="st4" width="3.9" height="39.5"/>
					
						<rect x="977.5" y="23.1" transform="matrix(0.9999 1.536920e-02 -1.536920e-02 0.9999 0.7738 -15.0416)" class="st4" width="3.1" height="39.5"/>
					<g>
						<path class="st4" d="M848.2,68.2c-0.3,0.2-0.6,0.4-0.9,0.4c-0.5,0-0.9-0.2-1.1-0.5c-0.3-0.3-0.4-0.8-0.4-1.3
							c0-0.3,0.1-0.7,0.2-1c0.2-0.3,0.4-0.5,0.7-0.7c0.3-0.2,0.6-0.3,0.9-0.2c0.3,0,0.7,0.1,0.9,0.3c0.3,0.2,0.5,0.4,0.6,0.8
							c0.2,0.3,0.2,0.7,0.2,1.1l0,0.5c0,0.6-0.1,1.1-0.4,1.5c-0.2,0.4-0.6,0.8-1,1c-0.4,0.2-0.9,0.3-1.5,0.3l-0.1,0l0-1l0.2,0
							C847.6,69.3,848,68.9,848.2,68.2z M847.6,67.6c0.3,0,0.5-0.1,0.6-0.3l0-0.5c0-0.3,0-0.6-0.2-0.8c-0.1-0.2-0.3-0.3-0.5-0.3
							c-0.2,0-0.3,0.1-0.4,0.3c-0.1,0.2-0.2,0.4-0.2,0.7c0,0.3,0.1,0.5,0.2,0.7C847.2,67.5,847.4,67.6,847.6,67.6z"/>
						<path class="st4" d="M857,66.4c0,0.3-0.1,0.5-0.2,0.7c-0.1,0.2-0.3,0.4-0.5,0.5c0.2,0.1,0.4,0.3,0.6,0.5
							c0.1,0.2,0.2,0.5,0.2,0.8c0,0.5-0.2,0.9-0.5,1.1c-0.3,0.3-0.8,0.4-1.3,0.4c-0.6,0-1-0.2-1.3-0.4c-0.3-0.3-0.5-0.7-0.5-1.1
							c0-0.3,0.1-0.5,0.2-0.8c0.1-0.2,0.4-0.4,0.6-0.5c-0.2-0.1-0.4-0.3-0.5-0.5c-0.1-0.2-0.2-0.4-0.2-0.7c0-0.5,0.2-0.8,0.5-1.1
							c0.3-0.3,0.7-0.4,1.3-0.4c0.5,0,1,0.2,1.3,0.4C856.9,65.6,857,66,857,66.4z M855.9,68.8c0-0.2,0-0.4-0.2-0.5
							c-0.1-0.1-0.3-0.2-0.4-0.2c-0.2,0-0.3,0.1-0.4,0.2c-0.1,0.1-0.2,0.3-0.2,0.5c0,0.2,0.1,0.4,0.2,0.5c0.1,0.1,0.3,0.2,0.4,0.2
							c0.2,0,0.3-0.1,0.4-0.2C855.8,69.2,855.9,69,855.9,68.8z M855.3,65.9c-0.2,0-0.3,0.1-0.4,0.2c-0.1,0.1-0.1,0.3-0.1,0.5
							c0,0.2,0,0.3,0.1,0.5c0.1,0.1,0.2,0.2,0.4,0.2c0.2,0,0.3-0.1,0.4-0.2c0.1-0.1,0.1-0.3,0.1-0.5c0-0.2,0-0.3-0.1-0.5
							S855.5,65.9,855.3,65.9z"/>
						<path class="st4" d="M864.9,65.8l-2,4.7l-1.3,0l2-4.4l-2.5,0l0-1l3.8,0.1L864.9,65.8z"/>
						<path class="st4" d="M871.9,65.2l0,1l-0.1,0c-0.5,0-0.8,0.1-1.1,0.3c-0.3,0.2-0.5,0.5-0.6,0.9c0.3-0.3,0.6-0.4,1-0.4
							c0.5,0,0.8,0.2,1.1,0.5c0.3,0.3,0.4,0.8,0.4,1.4c0,0.3-0.1,0.7-0.3,0.9c-0.2,0.3-0.4,0.5-0.7,0.7c-0.3,0.2-0.6,0.2-0.9,0.2
							c-0.4,0-0.7-0.1-1-0.3c-0.3-0.2-0.5-0.4-0.7-0.8c-0.2-0.3-0.2-0.7-0.2-1.1l0-0.5c0-0.6,0.1-1.1,0.4-1.5s0.6-0.8,1-1
							s0.9-0.4,1.4-0.4L871.9,65.2z M870.7,67.9c-0.2,0-0.3,0-0.4,0.1c-0.1,0.1-0.2,0.2-0.2,0.3l0,0.4c0,0.7,0.2,1,0.7,1
							c0.2,0,0.3-0.1,0.5-0.2c0.1-0.2,0.2-0.4,0.2-0.6c0-0.3-0.1-0.5-0.2-0.7C871.1,68,870.9,67.9,870.7,67.9z"/>
						<path class="st4" d="M876.7,68.1l0.4-2.8l3.1,0l0,1l-2.1,0l-0.1,1.1c0.1-0.1,0.2-0.1,0.3-0.1c0.1,0,0.3-0.1,0.4-0.1
							c0.5,0,0.9,0.2,1.2,0.5c0.3,0.3,0.4,0.8,0.4,1.3c0,0.3-0.1,0.7-0.2,0.9c-0.2,0.3-0.4,0.5-0.6,0.6c-0.3,0.1-0.6,0.2-1,0.2
							c-0.3,0-0.6-0.1-0.9-0.2c-0.3-0.1-0.5-0.3-0.7-0.6c-0.2-0.2-0.2-0.5-0.2-0.8l1.2,0c0,0.2,0.1,0.4,0.2,0.5
							c0.1,0.1,0.3,0.2,0.4,0.2c0.4,0,0.6-0.3,0.6-0.9c0-0.6-0.2-0.9-0.7-0.9c-0.3,0-0.5,0.1-0.6,0.3L876.7,68.1z"/>
						<path class="st4" d="M887.5,68.8l0.5,0l0,1l-0.5,0l0,1.1l-1.2,0l0-1.1l-2,0l-0.1-0.8l2.2-3.5l0,0l1.2,0L887.5,68.8z
							 M885.3,68.7l0.9,0l0-1.7l-0.1,0.1L885.3,68.7z"/>
						<path class="st4" d="M893.1,67.7l0.6,0c0.5,0,0.7-0.2,0.7-0.7c0-0.2,0-0.3-0.2-0.4s-0.3-0.2-0.5-0.2c-0.2,0-0.3,0-0.4,0.1
							c-0.1,0.1-0.2,0.2-0.2,0.4l-1.2,0c0-0.3,0.1-0.5,0.2-0.8s0.4-0.4,0.6-0.5c0.3-0.1,0.6-0.2,0.9-0.2c0.6,0,1,0.2,1.4,0.4
							c0.3,0.3,0.5,0.7,0.5,1.1c0,0.2-0.1,0.5-0.2,0.7s-0.3,0.4-0.6,0.5c0.3,0.1,0.5,0.3,0.6,0.5c0.2,0.2,0.2,0.5,0.2,0.8
							c0,0.5-0.2,0.9-0.6,1.2s-0.8,0.4-1.4,0.4c-0.3,0-0.7-0.1-1-0.2c-0.3-0.1-0.5-0.3-0.7-0.6c-0.1-0.2-0.2-0.5-0.2-0.8l1.2,0
							c0,0.2,0.1,0.3,0.2,0.4c0.1,0.1,0.3,0.2,0.5,0.2c0.2,0,0.4-0.1,0.5-0.2c0.1-0.1,0.2-0.3,0.2-0.5c0-0.3-0.1-0.5-0.2-0.6
							c-0.1-0.1-0.3-0.2-0.5-0.2l-0.6,0L893.1,67.7z"/>
						<path class="st4" d="M903.3,71.1l-3.7-0.1l0-0.8l1.7-1.8c0.4-0.5,0.6-0.9,0.6-1.2c0-0.2,0-0.4-0.1-0.5
							c-0.1-0.1-0.2-0.2-0.4-0.2c-0.2,0-0.3,0.1-0.5,0.2c-0.1,0.2-0.2,0.4-0.2,0.6l-1.2,0c0-0.3,0.1-0.6,0.3-0.9
							c0.2-0.3,0.4-0.5,0.7-0.6c0.3-0.2,0.6-0.2,1-0.2c0.6,0,1,0.2,1.3,0.4c0.3,0.3,0.4,0.7,0.4,1.2c0,0.2,0,0.4-0.1,0.6
							c-0.1,0.2-0.2,0.4-0.4,0.6c-0.2,0.2-0.4,0.5-0.8,0.9l-0.7,0.8l2.1,0L903.3,71.1z"/>
						<path class="st4" d="M910.1,71.2l-1.2,0l0.1-4l-1.2,0.3l0-1l2.3-0.8l0.1,0L910.1,71.2z"/>
					</g>
					<g>
						<path class="st4" d="M918.1,69.3c-0.3,0.2-0.6,0.4-0.9,0.4c-0.5,0-0.9-0.2-1.1-0.5c-0.3-0.3-0.4-0.8-0.4-1.3
							c0-0.3,0.1-0.7,0.2-1c0.2-0.3,0.4-0.5,0.7-0.7c0.3-0.2,0.6-0.3,0.9-0.2c0.3,0,0.7,0.1,0.9,0.3c0.3,0.2,0.5,0.4,0.6,0.8
							s0.2,0.7,0.2,1.1l0,0.5c0,0.6-0.1,1.1-0.4,1.5c-0.2,0.4-0.6,0.8-1,1c-0.4,0.2-0.9,0.3-1.5,0.3l-0.1,0l0-1l0.2,0
							C917.5,70.4,918,70,918.1,69.3z M917.6,68.7c0.3,0,0.5-0.1,0.6-0.3l0-0.5c0-0.3,0-0.6-0.2-0.8c-0.1-0.2-0.3-0.3-0.5-0.3
							c-0.2,0-0.3,0.1-0.4,0.3c-0.1,0.2-0.2,0.4-0.2,0.7c0,0.3,0.1,0.5,0.2,0.7C917.2,68.6,917.4,68.7,917.6,68.7z"/>
						<path class="st4" d="M927,67.5c0,0.3-0.1,0.5-0.2,0.7c-0.1,0.2-0.3,0.4-0.5,0.5c0.2,0.1,0.4,0.3,0.6,0.5
							c0.1,0.2,0.2,0.5,0.2,0.8c0,0.5-0.2,0.9-0.5,1.1c-0.3,0.3-0.8,0.4-1.3,0.4c-0.6,0-1-0.2-1.3-0.4c-0.3-0.3-0.5-0.7-0.5-1.1
							c0-0.3,0.1-0.5,0.2-0.8c0.1-0.2,0.4-0.4,0.6-0.5c-0.2-0.1-0.4-0.3-0.5-0.5c-0.1-0.2-0.2-0.4-0.2-0.7c0-0.5,0.2-0.8,0.5-1.1
							c0.3-0.3,0.7-0.4,1.3-0.4c0.5,0,1,0.2,1.3,0.4C926.8,66.7,927,67.1,927,67.5z M925.8,69.9c0-0.2,0-0.4-0.2-0.5
							c-0.1-0.1-0.3-0.2-0.4-0.2c-0.2,0-0.3,0.1-0.4,0.2c-0.1,0.1-0.2,0.3-0.2,0.5c0,0.2,0.1,0.4,0.2,0.5c0.1,0.1,0.3,0.2,0.4,0.2
							c0.2,0,0.3-0.1,0.4-0.2C925.8,70.3,925.8,70.1,925.8,69.9z M925.3,66.9c-0.2,0-0.3,0.1-0.4,0.2c-0.1,0.1-0.1,0.3-0.1,0.5
							c0,0.2,0,0.3,0.1,0.5s0.2,0.2,0.4,0.2c0.2,0,0.3-0.1,0.4-0.2c0.1-0.1,0.1-0.3,0.1-0.5s0-0.3-0.1-0.5
							C925.6,67,925.4,66.9,925.3,66.9z"/>
						<path class="st4" d="M934.8,66.9l-2,4.7l-1.3,0l2-4.4l-2.5,0l0-1l3.8,0.1L934.8,66.9z"/>
						<path class="st4" d="M941.8,66.2l0,1l-0.1,0c-0.5,0-0.8,0.1-1.1,0.3c-0.3,0.2-0.5,0.5-0.6,0.9c0.3-0.3,0.6-0.4,1-0.4
							c0.5,0,0.8,0.2,1.1,0.5c0.3,0.3,0.4,0.8,0.4,1.4c0,0.3-0.1,0.7-0.3,0.9c-0.2,0.3-0.4,0.5-0.7,0.7c-0.3,0.2-0.6,0.2-0.9,0.2
							c-0.4,0-0.7-0.1-1-0.3c-0.3-0.2-0.5-0.4-0.7-0.8c-0.2-0.3-0.2-0.7-0.2-1.1l0-0.5c0-0.6,0.1-1.1,0.4-1.5c0.2-0.4,0.6-0.8,1-1
							c0.4-0.2,0.9-0.4,1.4-0.4L941.8,66.2z M940.7,69c-0.2,0-0.3,0-0.4,0.1c-0.1,0.1-0.2,0.2-0.2,0.3l0,0.4c0,0.7,0.2,1,0.7,1
							c0.2,0,0.3-0.1,0.5-0.2c0.1-0.2,0.2-0.4,0.2-0.6c0-0.3-0.1-0.5-0.2-0.7C941.1,69.1,940.9,69,940.7,69z"/>
						<path class="st4" d="M946.6,69.1l0.4-2.8l3.1,0l0,1l-2.1,0l-0.1,1.1c0.1-0.1,0.2-0.1,0.3-0.1c0.1,0,0.3-0.1,0.4-0.1
							c0.5,0,0.9,0.2,1.2,0.5c0.3,0.3,0.4,0.8,0.4,1.3c0,0.3-0.1,0.7-0.2,0.9s-0.4,0.5-0.6,0.6c-0.3,0.1-0.6,0.2-1,0.2
							c-0.3,0-0.6-0.1-0.9-0.2c-0.3-0.1-0.5-0.3-0.7-0.6c-0.2-0.2-0.2-0.5-0.2-0.8l1.2,0c0,0.2,0.1,0.4,0.2,0.5
							c0.1,0.1,0.3,0.2,0.4,0.2c0.4,0,0.6-0.3,0.6-0.9c0-0.6-0.2-0.9-0.7-0.9c-0.3,0-0.5,0.1-0.6,0.3L946.6,69.1z"/>
						<path class="st4" d="M957.5,69.8l0.5,0l0,1l-0.5,0l0,1.1l-1.2,0l0-1.1l-2,0l-0.1-0.8l2.2-3.5l0,0l1.2,0L957.5,69.8z
							 M955.3,69.8l0.9,0l0-1.7l-0.1,0.1L955.3,69.8z"/>
						<path class="st4" d="M963.1,68.8l0.6,0c0.5,0,0.7-0.2,0.7-0.7c0-0.2,0-0.3-0.2-0.4s-0.3-0.2-0.5-0.2c-0.2,0-0.3,0-0.4,0.1
							s-0.2,0.2-0.2,0.4l-1.2,0c0-0.3,0.1-0.5,0.2-0.8c0.2-0.2,0.4-0.4,0.6-0.5c0.3-0.1,0.6-0.2,0.9-0.2c0.6,0,1,0.2,1.4,0.4
							s0.5,0.7,0.5,1.1c0,0.2-0.1,0.5-0.2,0.7c-0.1,0.2-0.3,0.4-0.6,0.5c0.3,0.1,0.5,0.3,0.6,0.5c0.2,0.2,0.2,0.5,0.2,0.8
							c0,0.5-0.2,0.9-0.6,1.2c-0.4,0.3-0.8,0.4-1.4,0.4c-0.3,0-0.7-0.1-1-0.2c-0.3-0.1-0.5-0.3-0.7-0.6c-0.1-0.2-0.2-0.5-0.2-0.8
							l1.2,0c0,0.2,0.1,0.3,0.2,0.4c0.1,0.1,0.3,0.2,0.5,0.2c0.2,0,0.4-0.1,0.5-0.2c0.1-0.1,0.2-0.3,0.2-0.5c0-0.3-0.1-0.5-0.2-0.6
							c-0.1-0.1-0.3-0.2-0.5-0.2l-0.6,0L963.1,68.8z"/>
						<path class="st4" d="M973.3,72.2l-3.7-0.1l0-0.8l1.7-1.8c0.4-0.5,0.6-0.9,0.6-1.2c0-0.2,0-0.4-0.1-0.5
							c-0.1-0.1-0.2-0.2-0.4-0.2c-0.2,0-0.3,0.1-0.5,0.2c-0.1,0.2-0.2,0.4-0.2,0.6l-1.2,0c0-0.3,0.1-0.6,0.3-0.9
							c0.2-0.3,0.4-0.5,0.7-0.6c0.3-0.2,0.6-0.2,1-0.2c0.6,0,1,0.2,1.3,0.4c0.3,0.3,0.4,0.7,0.4,1.2c0,0.2,0,0.4-0.1,0.6
							c-0.1,0.2-0.2,0.4-0.4,0.6c-0.2,0.2-0.4,0.5-0.8,0.9l-0.7,0.8l2.1,0L973.3,72.2z"/>
						<path class="st4" d="M980,72.3l-1.2,0l0.1-4l-1.2,0.3l0-1l2.3-0.8l0.1,0L980,72.3z"/>
					</g>
				</g>
				
					<rect x="702.8" y="92.2" transform="matrix(0.9999 1.536920e-02 -1.536920e-02 0.9999 1.6161 -12.987)" class="st4" width="286" height="13"/>
				
					<rect x="699.9" y="280" transform="matrix(0.9999 1.536920e-02 -1.536920e-02 0.9999 4.4945 -11.806)" class="st4" width="141" height="13"/>
				
					<rect x="699.4" y="311" transform="matrix(0.9999 1.536920e-02 -1.536920e-02 0.9999 4.9708 -11.795)" class="st4" width="141" height="13"/>
				
					<rect x="698.9" y="343.1" transform="matrix(0.9999 1.536920e-02 -1.536920e-02 0.9999 5.4728 -12.8981)" class="st4" width="286" height="13"/>
				
					<rect x="698.4" y="374.1" transform="matrix(0.9999 1.536920e-02 -1.536920e-02 0.9999 5.9492 -12.8871)" class="st4" width="286" height="13"/>
				
					<rect x="890.8" y="282.6" transform="matrix(0.9999 1.536920e-02 -1.536920e-02 0.9999 4.554 -14.3874)" class="st4" width="95" height="13"/>
				
					<rect x="890.4" y="313.6" transform="matrix(0.9999 1.536920e-02 -1.536920e-02 0.9999 5.0303 -14.3764)" class="st4" width="95" height="13"/>
				<g>
					<path class="st4" d="M710.2,133.1l270,4.1l-1.7,113l-270-4.1L710.2,133.1 M702.3,124.9l-2,129l286,4.4l2-129L702.3,124.9
						L702.3,124.9z"/>
				</g>
				<g>
					<line class="st5" x1="707.1" y1="170" x2="982.1" y2="174.3"/>
				</g>
				<line class="st5" x1="708" y1="211" x2="980" y2="215.2"/>
				<line class="st5" x1="889.2" y1="132.8" x2="887.3" y2="256.8"/>
			</g>
			<linearGradient id="SVGID_4_" gradientUnits="userSpaceOnUse" x1="1022.6491" y1="11.7377" x2="665.6956" y2="418.3342">
				<stop  offset="0" style="stop-color:#F9F9F9"/>
				<stop  offset="0.265" style="stop-color:#F6F6F6"/>
				<stop  offset="0.4566" style="stop-color:#EDEDED"/>
				<stop  offset="0.6252" style="stop-color:#DDDDDD"/>
				<stop  offset="0.7795" style="stop-color:#C7C7C7"/>
				<stop  offset="0.8548" style="stop-color:#B9B9B9"/>
				<stop  offset="1" style="stop-color:#D6D6D7"/>
			</linearGradient>
			<path class="st8" d="M680.3,1l329.4,1.2l-1.5,426.9l-329.4-1.2L680.3,1 M679.3,0l-1.6,428.9l331.4,1.2l1.6-428.9L679.3,0L679.3,0
				z"/>
		</g>
	</g>
</g>
</svg>
