<?xml version="1.0" encoding="utf-8"?>
<!-- Generator: Adobe Illustrator 22.1.0, SVG Export Plug-In . SVG Version: 6.00 Build 0)  -->
<svg version="1.1" id="Capa_1" xmlns="http://www.w3.org/2000/svg" xmlns:xlink="http://www.w3.org/1999/xlink" x="0px" y="0px"
	 viewBox="0 0 248.7 534" style="enable-background:new 0 0 248.7 534;" xml:space="preserve">
<style type="text/css">
	.st0{fill-rule:evenodd;clip-rule:evenodd;fill:#D3D3D4;}
	.st1{fill-rule:evenodd;clip-rule:evenodd;fill:#A4ACBE;}
	.st2{fill-rule:evenodd;clip-rule:evenodd;fill:none;stroke:#A4ACBE;stroke-miterlimit:10;}
	.st3{fill-rule:evenodd;clip-rule:evenodd;fill:#FFFFFF;}
	.st4{fill:url(#SVGID_1_);}
	.st5{fill:#FFFFFF;}
	.st6{fill:#E30613;}
	.st7{fill:#333333;}
	.st8{fill:#FF0000;}
	.st9{fill:#666666;}
	.st10{fill:#000066;}
	.st11{fill-rule:evenodd;clip-rule:evenodd;fill:none;stroke:#D0D0D0;stroke-miterlimit:10;}
	.st12{fill:#4D4D4D;}
</style>
<g>
	<path class="st0" d="M29,0h190.8c16,0,29,13.1,29,29.3v475.5c0,16.2-13,29.3-29,29.3H29c-16,0-29-13.1-29-29.3V29.3
		C0,13.1,13,0,29,0z"/>
	<path class="st1" d="M125.6,15.8c2,0,3.6,1.6,3.6,3.7s-1.6,3.7-3.6,3.7c-2,0-3.6-1.6-3.6-3.7S123.6,15.8,125.6,15.8z"/>
	<path class="st2" d="M119.2,486.5h10.3c1.1,0,2.1,0.9,2.1,2.1V499c0,1.2-0.9,2.1-2.1,2.1h-10.3c-1.1,0-2.1-0.9-2.1-2.1v-10.5
		C117.1,487.4,118,486.5,119.2,486.5z"/>
	<path class="st1" d="M108,39h35.2c2.3,0,4.1,1.6,4.1,3.7c0,2-1.9,3.7-4.1,3.7H108c-2.3,0-4.1-1.6-4.1-3.7
		C103.8,40.7,105.7,39,108,39z"/>
	<g>
		<rect x="16.1" y="77.5" class="st3" width="216.4" height="381.2"/>
		<linearGradient id="SVGID_1_" gradientUnits="userSpaceOnUse" x1="15.8512" y1="225.5" x2="232.8512" y2="225.5">
			<stop  offset="0.922" style="stop-color:#DCDCDC"/>
			<stop  offset="1" style="stop-color:#B2B2B2"/>
		</linearGradient>
		<rect x="15.9" y="157" class="st4" width="217" height="137"/>
		<rect x="15.9" y="183" class="st5" width="217" height="17"/>
		<g>
			<path d="M140.6,109c-0.3-0.5-0.6-0.8-0.9-1c1.4-0.5,2-1.2,2-2.6c0-2.1-1.3-3.1-3.8-3.1h-4v10.4h2.7c0,0,0-3.9,0-4.1
				c0.1,0,0.3,0,0.3,0c0.6,0,0.8,0.2,1.3,1l1.9,3.1h2.9L140.6,109z M137.7,106.8c0,0-1,0-1.2,0v-2.5c0.2,0,1.2,0,1.2,0
				c1,0,1.4,0.3,1.4,1.2C139.1,106.5,138.7,106.8,137.7,106.8z"/>
			<path d="M127.3,110.6v-2.2c0.2,0,3.5,0,3.5,0v-2c0,0-3.3,0-3.5,0v-2c0.2,0,4.5,0,4.5,0v-2.1h-7.1v10.4h7.3l0.2-2.1
				C132.2,110.6,127.5,110.6,127.3,110.6"/>
			<path d="M119.2,107.2c0.1-0.1,3.9-4.9,3.9-4.9h-2.8c0,0-3,4-3.4,4.5c0-0.6,0-4.5,0-4.5h-2.7v10.4h2.7c0,0,0-3.8,0-4.4
				c0.3,0.5,3.3,4.4,3.3,4.4h3.1C123.4,112.8,119.3,107.4,119.2,107.2"/>
			<path d="M109.8,102.3c0,0,0,5.1,0,5.7c-0.4-0.5-4.3-5.7-4.3-5.7h-2.2v10.4h2.2c0,0,0-5.7,0-6.3c0.4,0.5,4.7,6.3,4.7,6.3h1.8
				v-10.4H109.8"/>
			<path d="M96.8,110.6v-2.2c0.2,0,3.5,0,3.5,0v-2c0,0-3.3,0-3.5,0v-2c0.2,0,4.5,0,4.5,0v-2.1h-7.1v10.4h7.3l0.2-2.1
				C101.6,110.6,97,110.6,96.8,110.6"/>
			<path d="M89.2,102.3c0,0,0,3.8,0,4.1h-3.7c0-0.2,0-4.1,0-4.1h-2.7v10.4h2.7c0,0,0-4.1,0-4.3h3.7c0,0.2,0,4.3,0,4.3h2.7v-10.4
				H89.2"/>
			<path d="M81,110.4c-1,0.4-1.6,0.5-2.4,0.5c-1.7,0-2.4-0.9-2.4-3.3c0-2.5,0.6-3.4,2.4-3.4c0.8,0,1.5,0.2,2.4,0.5l0.2,0.1v-2.2
				l-0.1,0c-0.8-0.3-1.6-0.4-2.5-0.4c-1.4,0-2.7,0.4-3.5,1.2c-1.1,1-1.6,2.3-1.6,4.3c0,1.7,0.4,2.9,1.1,3.8c0.9,1,2.2,1.6,4,1.6
				c1,0,1.9-0.2,2.7-0.6l0.1,0v-2L81,110.4"/>
			<path d="M69.7,106.5l-0.2-0.1c-1.1-0.5-1.1-0.5-1.4-0.7c-0.4-0.3-0.5-0.4-0.5-0.8c0-0.6,0.5-0.9,1.4-0.9c0.8,0,1.4,0.2,2.4,0.6
				l0.2,0.1v-2.2l-0.1,0c-0.9-0.3-1.7-0.5-2.6-0.5c-2.4,0-3.7,1.1-3.7,3.2c0,1.5,0.7,2.4,2.4,3.1c1.9,0.8,2,1,2,1.6
				c0,0.7-0.6,1-1.6,1c-0.9,0-1.7-0.2-2.7-0.7l-0.2-0.1v2.2l0.1,0c1,0.5,1.8,0.6,3,0.6c2.6,0,4-1.1,4-3.3
				C72.2,108.1,71.6,107.3,69.7,106.5"/>
			<path class="st6" d="M56,97.2H34.8c-1.5,0-2.7,1.2-2.7,2.7v13.4c0,1.5,1.2,2.7,2.7,2.7H56c1.4,0,2.6-1.2,2.6-2.7V99.9
				C58.6,98.4,57.4,97.2,56,97.2z M56.7,113.3c0,0.4-0.3,0.8-0.7,0.8H34.8c-0.4,0-0.7-0.3-0.7-0.8V99.9c0-0.4,0.3-0.8,0.7-0.8H56
				c0.4,0,0.7,0.3,0.7,0.8V113.3z"/>
			<path class="st6" d="M40.3,100.5h-4.5v12.3h4.4c3.7,0,4.8-2.7,4.8-6.2C45.1,102.4,43.4,100.5,40.3,100.5z M39.8,110.8h-1v-8.4
				h0.6c2.6,0,2.9,1.9,2.9,4.4C42.2,109.5,41.3,110.8,39.8,110.8z"/>
			<path class="st6" d="M52.8,106.3c1.1-0.6,2-1.4,2-2.6c0-2.3-1.2-3.3-3.6-3.3h-4.9v12.3h4.7c2.2,0,4.3-1.1,4.3-3.6
				C55.3,107.7,54.3,106.7,52.8,106.3z M49.2,102.4h0.8c0.9,0,1.8,0.3,1.8,1.5c0,1-0.7,1.5-1.7,1.5h-1V102.4z M50.3,110.8h-1v-3.2h1
				c1.1,0,1.9,0.3,1.9,1.5C52.2,110.4,51.3,110.8,50.3,110.8z"/>
		</g>
		<g>
			<path class="st7" d="M27,178.5c-0.2,0-0.5-0.1-0.7-0.2c-0.2,0-0.3-0.1-0.4-0.1l0.1-1.4h0.6l0.2,1c0.1,0.1,0.2,0.1,0.3,0.2
				s0.4,0.1,0.6,0.1c0.3,0,0.6-0.1,0.8-0.2c0.2-0.1,0.3-0.4,0.3-0.6c0-0.2-0.1-0.3-0.2-0.5s-0.2-0.2-0.4-0.3
				c-0.2-0.1-0.4-0.2-0.7-0.4c-0.4-0.2-0.8-0.4-1-0.7c-0.3-0.3-0.4-0.6-0.4-1.1c0-0.3,0.1-0.5,0.2-0.8c0.1-0.2,0.4-0.4,0.6-0.5
				c0.3-0.1,0.6-0.2,1.1-0.2c0.2,0,0.5,0,0.6,0.1s0.4,0.1,0.6,0.1c0.1,0,0.2,0.1,0.3,0.1l0,1.3h-0.6l-0.2-0.9c0,0-0.1-0.1-0.3-0.1
				c-0.1,0-0.3-0.1-0.5-0.1c-0.3,0-0.5,0.1-0.7,0.2c-0.2,0.1-0.2,0.3-0.2,0.6c0,0.2,0.1,0.3,0.2,0.5c0.1,0.1,0.2,0.2,0.4,0.3
				c0.2,0.1,0.4,0.2,0.8,0.4c0.3,0.1,0.5,0.3,0.7,0.4c0.2,0.1,0.4,0.3,0.5,0.5c0.1,0.2,0.2,0.5,0.2,0.7c0,0.3-0.1,0.5-0.2,0.8
				s-0.4,0.5-0.7,0.6s-0.7,0.2-1.2,0.2C27.4,178.6,27.2,178.5,27,178.5z"/>
			<path class="st7" d="M30.8,175l-0.5-0.1v-0.5l1.4-0.2h0l0.2,0.1v3.6l0.5,0.1v0.5h-2.1V178l0.5-0.1V175z M30.8,173.5
				c-0.1-0.1-0.2-0.2-0.2-0.4c0-0.2,0.1-0.3,0.2-0.5c0.1-0.1,0.3-0.2,0.5-0.2c0.2,0,0.4,0.1,0.5,0.2s0.2,0.2,0.2,0.4
				c0,0.2-0.1,0.4-0.2,0.5c-0.1,0.1-0.3,0.2-0.5,0.2h0C31,173.6,30.9,173.6,30.8,173.5z"/>
			<path class="st7" d="M33.8,177.9c0,0.1,0.1,0.1,0.3,0.2c0.1,0.1,0.3,0.1,0.4,0.1c0.2,0,0.4,0,0.5-0.1c0.1-0.1,0.2-0.2,0.2-0.4
				c0-0.2-0.1-0.3-0.2-0.4s-0.4-0.2-0.7-0.4l-0.2-0.1c-0.3-0.1-0.6-0.3-0.8-0.5s-0.3-0.5-0.3-0.8c0-0.2,0.1-0.4,0.2-0.6
				c0.1-0.2,0.3-0.3,0.6-0.4c0.2-0.1,0.5-0.1,0.8-0.1c0.2,0,0.4,0,0.6,0c0.2,0,0.3,0.1,0.5,0.1c0.1,0,0.2,0.1,0.2,0.1v1h-0.6
				l-0.2-0.6c0,0-0.1-0.1-0.2-0.1c-0.1,0-0.2-0.1-0.4-0.1c-0.2,0-0.4,0-0.5,0.1s-0.2,0.2-0.2,0.4c0,0.1,0,0.3,0.1,0.3
				c0.1,0.1,0.2,0.2,0.3,0.2c0.1,0,0.3,0.1,0.6,0.2c0.3,0.1,0.5,0.2,0.7,0.3s0.3,0.2,0.4,0.4c0.1,0.2,0.2,0.4,0.2,0.6
				c0,0.4-0.1,0.7-0.4,0.9c-0.3,0.2-0.7,0.3-1.3,0.3c-0.3,0-0.5,0-0.7-0.1s-0.4-0.1-0.7-0.2l-0.2-0.1v-1h0.6L33.8,177.9z"/>
			<path class="st7" d="M37.4,178.3c-0.2-0.1-0.2-0.4-0.2-0.7v-2.8h-0.5v-0.4c0,0,0.1,0,0.2-0.1c0.1,0,0.2-0.1,0.2-0.1
				c0.1-0.1,0.2-0.2,0.2-0.3c0-0.1,0.1-0.4,0.2-0.8h0.6l0,1.1h1.1v0.6h-1.1v2.1c0,0.3,0,0.5,0,0.6c0,0.1,0,0.2,0.1,0.2
				c0.1,0,0.1,0,0.3,0s0.3,0,0.4,0c0.1,0,0.2-0.1,0.3-0.1l0.1,0.4c-0.1,0.1-0.3,0.2-0.6,0.3s-0.5,0.1-0.8,0.1
				C37.8,178.5,37.5,178.5,37.4,178.3z"/>
			<path class="st7" d="M40.3,178c-0.3-0.4-0.5-0.9-0.5-1.6c0-0.5,0.1-0.8,0.3-1.2c0.2-0.3,0.4-0.6,0.7-0.8c0.3-0.2,0.7-0.3,1.1-0.3
				c0.5,0,0.9,0.1,1.2,0.4c0.3,0.3,0.4,0.6,0.4,1.1c0,0.3,0,0.6-0.1,0.7h-2.4c0,0.5,0.1,0.8,0.3,1.1s0.5,0.4,0.8,0.4
				c0.2,0,0.4,0,0.6-0.1c0.2-0.1,0.4-0.1,0.5-0.2l0.2,0.4c-0.1,0.1-0.4,0.3-0.7,0.4c-0.3,0.1-0.6,0.2-0.9,0.2
				C41.1,178.6,40.6,178.4,40.3,178z M42.3,176c0-0.1,0-0.2,0-0.3c0-0.7-0.2-1-0.7-1c-0.2,0-0.4,0.1-0.6,0.3c-0.1,0.2-0.2,0.5-0.2,1
				H42.3z"/>
			<path class="st7" d="M44,178l0.4-0.1V175l-0.5-0.1v-0.5l1.2-0.2l0.1,0.1l0.1,0.2v0.3c0.2-0.2,0.4-0.3,0.7-0.4s0.6-0.2,0.8-0.2
				c0.3,0,0.5,0,0.7,0.1c0.2,0.1,0.3,0.2,0.4,0.4c0.2-0.2,0.4-0.3,0.7-0.4s0.5-0.2,0.8-0.2c0.4,0,0.8,0.1,0.9,0.4
				c0.2,0.3,0.3,0.7,0.3,1.3v2.1l0.5,0.1v0.5h-1.9V178l0.4-0.1v-2c0-0.4,0-0.7-0.1-0.8c-0.1-0.2-0.3-0.2-0.5-0.2
				c-0.1,0-0.3,0-0.4,0.1c-0.1,0.1-0.3,0.1-0.4,0.2c0,0.2,0.1,0.4,0.1,0.7v2.1l0.5,0.1v0.5h-2V178L47,178v-2.1c0-0.3,0-0.5,0-0.6
				s-0.1-0.3-0.2-0.3s-0.2-0.1-0.4-0.1c-0.2,0-0.3,0-0.5,0.1c-0.2,0.1-0.3,0.2-0.4,0.3v2.7l0.4,0.1v0.5H44V178z"/>
			<path class="st7" d="M52.2,176.3c0.5-0.2,1-0.3,1.8-0.4v-0.2c0-0.2,0-0.4-0.1-0.5c0-0.1-0.1-0.2-0.2-0.3
				c-0.1-0.1-0.3-0.1-0.5-0.1c-0.2,0-0.5,0-0.7,0.1s-0.4,0.1-0.6,0.2l-0.2-0.5c0.1-0.1,0.2-0.1,0.4-0.2c0.2-0.1,0.4-0.2,0.6-0.2
				s0.5-0.1,0.8-0.1c0.4,0,0.7,0,0.9,0.1c0.2,0.1,0.4,0.3,0.5,0.5c0.1,0.2,0.1,0.5,0.1,0.9v2.3h0.4v0.4c-0.1,0-0.2,0-0.4,0.1
				s-0.3,0-0.5,0c-0.2,0-0.3,0-0.3-0.1c-0.1,0-0.1-0.2-0.1-0.3V178c-0.1,0.1-0.3,0.3-0.5,0.4c-0.2,0.1-0.5,0.2-0.7,0.2
				c-0.2,0-0.4,0-0.6-0.1c-0.2-0.1-0.3-0.2-0.5-0.4s-0.2-0.4-0.2-0.7C51.5,176.8,51.7,176.5,52.2,176.3z M53.6,177.8
				c0.1-0.1,0.3-0.1,0.4-0.2v-1.2c-0.4,0-0.8,0.1-1,0.2c-0.2,0.2-0.3,0.3-0.3,0.6c0,0.2,0.1,0.4,0.2,0.5c0.1,0.1,0.3,0.2,0.5,0.2
				C53.4,177.9,53.5,177.9,53.6,177.8z"/>
			<path class="st7" d="M58.4,178.3c-0.2-0.1-0.4-0.4-0.6-0.7c-0.1-0.3-0.2-0.7-0.2-1.2c0-0.4,0.1-0.8,0.3-1.2s0.4-0.6,0.8-0.8
				c0.3-0.2,0.7-0.3,1.2-0.3c0.2,0,0.4,0,0.5,0.1V173l-0.7-0.1v-0.4l1.5-0.1h0l0.2,0.2v5.5h0.4v0.4c-0.4,0.1-0.7,0.1-0.9,0.1
				c-0.2,0-0.3,0-0.3-0.1c-0.1-0.1-0.1-0.2-0.1-0.3V178c-0.1,0.2-0.3,0.3-0.5,0.4c-0.2,0.1-0.5,0.2-0.7,0.2
				C58.9,178.6,58.6,178.5,58.4,178.3z M60,177.8c0.1-0.1,0.2-0.1,0.3-0.2v-2.7c0,0-0.1-0.1-0.2-0.1c-0.1,0-0.2-0.1-0.4-0.1
				c-0.3,0-0.6,0.1-0.8,0.4c-0.2,0.3-0.3,0.7-0.3,1.3c0,0.5,0.1,0.9,0.2,1.1c0.2,0.2,0.4,0.4,0.7,0.4
				C59.7,177.9,59.9,177.9,60,177.8z"/>
			<path class="st7" d="M62.7,178c-0.3-0.4-0.5-0.9-0.5-1.6c0-0.5,0.1-0.8,0.3-1.2c0.2-0.3,0.4-0.6,0.7-0.8c0.3-0.2,0.7-0.3,1.1-0.3
				c0.5,0,0.9,0.1,1.2,0.4c0.3,0.3,0.4,0.6,0.4,1.1c0,0.3,0,0.6-0.1,0.7h-2.4c0,0.5,0.1,0.8,0.3,1.1c0.2,0.3,0.5,0.4,0.8,0.4
				c0.2,0,0.4,0,0.6-0.1s0.4-0.1,0.5-0.2l0.2,0.4c-0.1,0.1-0.4,0.3-0.7,0.4c-0.3,0.1-0.6,0.2-0.9,0.2
				C63.5,178.6,63.1,178.4,62.7,178z M64.8,176c0-0.1,0-0.2,0-0.3c0-0.7-0.2-1-0.7-1c-0.2,0-0.4,0.1-0.6,0.3s-0.2,0.5-0.2,1H64.8z"
				/>
			<path class="st7" d="M68.8,173.5l-0.6-0.1v-0.5h1.1c0.1,0,0.3,0,0.5,0c0.3,0,0.6,0,0.8,0c0.5,0,0.9,0.1,1.2,0.2s0.5,0.3,0.6,0.5
				c0.1,0.2,0.2,0.5,0.2,0.9c0,0.6-0.2,1.1-0.6,1.5s-0.9,0.5-1.6,0.5c-0.3,0-0.5,0-0.6,0v1.5l1,0.1v0.5h-2.7V178l0.6-0.1V173.5z
				 M70.4,176c0.3,0,0.6-0.1,0.8-0.3c0.2-0.2,0.3-0.6,0.3-1.2c0-0.4-0.1-0.7-0.3-0.9s-0.5-0.3-0.8-0.3c-0.1,0-0.3,0-0.4,0
				c-0.1,0-0.1,0-0.2,0v2.6C70,176,70.2,176,70.4,176z"/>
			<path class="st7" d="M73.2,178l0.5-0.1v-3l-0.5-0.1v-0.5l1.2-0.2h0l0.2,0.1v0.2l0,0.6h0c0-0.1,0.1-0.2,0.2-0.4
				c0.1-0.1,0.3-0.3,0.5-0.4c0.2-0.1,0.4-0.2,0.6-0.2c0.1,0,0.2,0,0.3,0v1.1c-0.2-0.1-0.3-0.2-0.5-0.2c-0.4,0-0.7,0.1-1,0.3v2.5
				l0.9,0.1v0.4h-2.4V178z"/>
			<path class="st7" d="M77.1,178c-0.3-0.4-0.5-0.9-0.5-1.6c0-0.5,0.1-0.8,0.3-1.2c0.2-0.3,0.4-0.6,0.7-0.8c0.3-0.2,0.7-0.3,1.1-0.3
				c0.5,0,0.9,0.1,1.2,0.4c0.3,0.3,0.4,0.6,0.4,1.1c0,0.3,0,0.6-0.1,0.7h-2.4c0,0.5,0.1,0.8,0.3,1.1s0.5,0.4,0.8,0.4
				c0.2,0,0.4,0,0.6-0.1c0.2-0.1,0.4-0.1,0.5-0.2l0.2,0.4c-0.1,0.1-0.4,0.3-0.7,0.4c-0.3,0.1-0.6,0.2-0.9,0.2
				C77.9,178.6,77.4,178.4,77.1,178z M79.2,176c0-0.1,0-0.2,0-0.3c0-0.7-0.2-1-0.7-1c-0.2,0-0.4,0.1-0.6,0.3c-0.1,0.2-0.2,0.5-0.2,1
				H79.2z"/>
			<path class="st7" d="M81.7,177.9c0,0.1,0.1,0.1,0.3,0.2c0.1,0.1,0.3,0.1,0.4,0.1c0.2,0,0.4,0,0.5-0.1s0.2-0.2,0.2-0.4
				c0-0.2-0.1-0.3-0.2-0.4s-0.4-0.2-0.7-0.4l-0.2-0.1c-0.3-0.1-0.6-0.3-0.8-0.5s-0.3-0.5-0.3-0.8c0-0.2,0.1-0.4,0.2-0.6
				c0.1-0.2,0.3-0.3,0.6-0.4c0.2-0.1,0.5-0.1,0.8-0.1c0.2,0,0.4,0,0.6,0c0.2,0,0.3,0.1,0.5,0.1c0.1,0,0.2,0.1,0.2,0.1v1h-0.6
				l-0.2-0.6c0,0-0.1-0.1-0.2-0.1c-0.1,0-0.2-0.1-0.4-0.1c-0.2,0-0.4,0-0.5,0.1s-0.2,0.2-0.2,0.4c0,0.1,0,0.3,0.1,0.3
				c0.1,0.1,0.2,0.2,0.3,0.2c0.1,0,0.3,0.1,0.6,0.2c0.3,0.1,0.5,0.2,0.7,0.3c0.2,0.1,0.3,0.2,0.4,0.4c0.1,0.2,0.2,0.4,0.2,0.6
				c0,0.4-0.1,0.7-0.4,0.9c-0.3,0.2-0.7,0.3-1.3,0.3c-0.3,0-0.5,0-0.7-0.1s-0.4-0.1-0.7-0.2l-0.2-0.1v-1h0.6L81.7,177.9z"/>
			<path class="st7" d="M87.7,178.4c-0.1-0.1-0.1-0.2-0.1-0.3v-0.2c-0.1,0.2-0.3,0.3-0.6,0.4s-0.5,0.2-0.7,0.2c-0.5,0-0.8-0.1-1-0.4
				S85,177.5,85,177v-2.1l-0.4-0.1v-0.4l1.3-0.1h0l0.2,0.1v2.6c0,0.4,0,0.6,0.1,0.8s0.3,0.2,0.5,0.2c0.3,0,0.6-0.1,0.8-0.3v-2.8
				l-0.5-0.1v-0.4l1.4-0.1h0l0.2,0.1v3.7H89l0,0.4c0,0-0.1,0-0.3,0.1c-0.2,0-0.4,0.1-0.6,0.1C87.9,178.5,87.8,178.5,87.7,178.4z"/>
			<path class="st7" d="M93.4,177.4c-0.2,0.4-0.4,0.6-0.8,0.8c-0.3,0.2-0.7,0.3-1.2,0.3c-0.1,0-0.2,0-0.3,0s-0.2,0-0.3-0.1l0,0.6
				v0.7l0.7,0.1v0.4h-2.2v-0.4l0.5-0.1V175l-0.5-0.1v-0.5l1.2-0.2h0l0.2,0.1v0.4c0.1-0.2,0.3-0.3,0.5-0.4c0.2-0.1,0.5-0.2,0.7-0.2
				c0.5,0,0.9,0.2,1.2,0.5c0.3,0.3,0.5,0.9,0.5,1.5C93.7,176.7,93.6,177.1,93.4,177.4z M91.2,174.9c-0.1,0.1-0.2,0.1-0.3,0.2v2.8
				c0,0.1,0.1,0.1,0.2,0.1c0.1,0,0.2,0.1,0.4,0.1c0.3,0,0.6-0.1,0.8-0.4c0.2-0.3,0.3-0.7,0.3-1.3c0-0.5-0.1-0.9-0.2-1.1
				c-0.2-0.3-0.4-0.4-0.7-0.4C91.5,174.8,91.4,174.9,91.2,174.9z"/>
			<path class="st7" d="M97.3,178.4c-0.1-0.1-0.1-0.2-0.1-0.3v-0.2c-0.1,0.2-0.3,0.3-0.6,0.4s-0.5,0.2-0.7,0.2c-0.5,0-0.8-0.1-1-0.4
				s-0.3-0.7-0.3-1.2v-2.1l-0.4-0.1v-0.4l1.3-0.1h0l0.2,0.1v2.6c0,0.4,0,0.6,0.1,0.8s0.3,0.2,0.5,0.2c0.3,0,0.6-0.1,0.8-0.3v-2.8
				l-0.5-0.1v-0.4l1.4-0.1h0l0.2,0.1v3.7h0.4l0,0.4c0,0-0.1,0-0.3,0.1c-0.2,0-0.4,0.1-0.6,0.1C97.5,178.5,97.4,178.5,97.3,178.4z"/>
			<path class="st7" d="M99.5,178c-0.3-0.4-0.5-0.9-0.5-1.6c0-0.5,0.1-0.8,0.3-1.2s0.4-0.6,0.7-0.8c0.3-0.2,0.7-0.3,1.1-0.3
				c0.5,0,0.9,0.1,1.2,0.4c0.3,0.3,0.4,0.6,0.4,1.1c0,0.3,0,0.6-0.1,0.7h-2.4c0,0.5,0.1,0.8,0.3,1.1c0.2,0.3,0.5,0.4,0.8,0.4
				c0.2,0,0.4,0,0.6-0.1s0.4-0.1,0.5-0.2l0.2,0.4c-0.1,0.1-0.4,0.3-0.7,0.4c-0.3,0.1-0.6,0.2-0.9,0.2
				C100.3,178.6,99.8,178.4,99.5,178z M101.5,176c0-0.1,0-0.2,0-0.3c0-0.7-0.2-1-0.7-1c-0.2,0-0.4,0.1-0.6,0.3
				c-0.1,0.2-0.2,0.5-0.2,1H101.5z"/>
			<path class="st7" d="M104,177.9c0,0.1,0.1,0.1,0.3,0.2c0.1,0.1,0.3,0.1,0.4,0.1c0.2,0,0.4,0,0.5-0.1s0.2-0.2,0.2-0.4
				c0-0.2-0.1-0.3-0.2-0.4c-0.1-0.1-0.4-0.2-0.7-0.4l-0.2-0.1c-0.3-0.1-0.6-0.3-0.8-0.5s-0.3-0.5-0.3-0.8c0-0.2,0.1-0.4,0.2-0.6
				c0.1-0.2,0.3-0.3,0.6-0.4s0.5-0.1,0.8-0.1c0.2,0,0.4,0,0.6,0c0.2,0,0.3,0.1,0.5,0.1c0.1,0,0.2,0.1,0.2,0.1v1h-0.6l-0.2-0.6
				c0,0-0.1-0.1-0.2-0.1s-0.2-0.1-0.4-0.1c-0.2,0-0.4,0-0.5,0.1c-0.1,0.1-0.2,0.2-0.2,0.4c0,0.1,0,0.3,0.1,0.3
				c0.1,0.1,0.2,0.2,0.3,0.2c0.1,0,0.3,0.1,0.6,0.2c0.3,0.1,0.5,0.2,0.7,0.3c0.2,0.1,0.3,0.2,0.4,0.4c0.1,0.2,0.2,0.4,0.2,0.6
				c0,0.4-0.1,0.7-0.4,0.9c-0.3,0.2-0.7,0.3-1.3,0.3c-0.3,0-0.5,0-0.7-0.1c-0.2,0-0.4-0.1-0.7-0.2l-0.2-0.1v-1h0.6L104,177.9z"/>
			<path class="st7" d="M107.6,178.3c-0.2-0.1-0.2-0.4-0.2-0.7v-2.8h-0.5v-0.4c0,0,0.1,0,0.2-0.1c0.1,0,0.2-0.1,0.2-0.1
				c0.1-0.1,0.2-0.2,0.2-0.3c0-0.1,0.1-0.4,0.2-0.8h0.6l0,1.1h1.1v0.6h-1.1v2.1c0,0.3,0,0.5,0,0.6c0,0.1,0,0.2,0.1,0.2
				c0,0,0.1,0,0.3,0s0.3,0,0.4,0c0.1,0,0.2-0.1,0.3-0.1l0.1,0.4c-0.1,0.1-0.3,0.2-0.6,0.3c-0.3,0.1-0.5,0.1-0.8,0.1
				C108,178.5,107.8,178.5,107.6,178.3z"/>
			<path class="st7" d="M110.4,175.2c0.2-0.3,0.4-0.6,0.8-0.7c0.3-0.2,0.7-0.3,1-0.3c0.6,0,1.1,0.2,1.5,0.6c0.3,0.4,0.5,0.9,0.5,1.6
				c0,0.5-0.1,0.9-0.3,1.2s-0.4,0.6-0.8,0.7c-0.3,0.2-0.7,0.2-1,0.2c-0.6,0-1.1-0.2-1.5-0.6c-0.3-0.4-0.5-0.9-0.5-1.6
				C110.1,175.9,110.2,175.5,110.4,175.2z M113,176.4c0-0.6-0.1-1-0.2-1.3c-0.1-0.3-0.4-0.4-0.7-0.4c-0.6,0-0.9,0.5-0.9,1.6
				c0,0.6,0.1,1,0.2,1.3s0.4,0.4,0.7,0.4C112.7,178.1,113,177.5,113,176.4z"/>
			<path class="st7" d="M115.7,177.9c0,0.1,0.1,0.1,0.3,0.2c0.1,0.1,0.3,0.1,0.4,0.1c0.2,0,0.4,0,0.5-0.1s0.2-0.2,0.2-0.4
				c0-0.2-0.1-0.3-0.2-0.4c-0.1-0.1-0.4-0.2-0.7-0.4l-0.2-0.1c-0.3-0.1-0.6-0.3-0.8-0.5s-0.3-0.5-0.3-0.8c0-0.2,0.1-0.4,0.2-0.6
				c0.1-0.2,0.3-0.3,0.6-0.4s0.5-0.1,0.8-0.1c0.2,0,0.4,0,0.6,0c0.2,0,0.3,0.1,0.5,0.1c0.1,0,0.2,0.1,0.2,0.1v1h-0.6l-0.2-0.6
				c0,0-0.1-0.1-0.2-0.1s-0.2-0.1-0.4-0.1c-0.2,0-0.4,0-0.5,0.1c-0.1,0.1-0.2,0.2-0.2,0.4c0,0.1,0,0.3,0.1,0.3
				c0.1,0.1,0.2,0.2,0.3,0.2c0.1,0,0.3,0.1,0.6,0.2c0.3,0.1,0.5,0.2,0.7,0.3c0.2,0.1,0.3,0.2,0.4,0.4c0.1,0.2,0.2,0.4,0.2,0.6
				c0,0.4-0.1,0.7-0.4,0.9c-0.3,0.2-0.7,0.3-1.3,0.3c-0.3,0-0.5,0-0.7-0.1c-0.2,0-0.4-0.1-0.7-0.2l-0.2-0.1v-1h0.6L115.7,177.9z"/>
			<g>
				<path class="st8" d="M27.6,190.4l-1.1,0l-0.3,1.6h-0.6l0.1-2.2h4.8l0.1,2.2H30l-0.3-1.6l-1.1,0v4.6l1.1,0.1v0.5h-3.1V195l1-0.1
					V190.4z"/>
			</g>
			<g>
				<path class="st8" d="M31.1,195l0.5-0.1v-3l-0.5-0.1v-0.5l1.2-0.2h0l0.2,0.1v0.2l0,0.6h0c0-0.1,0.1-0.2,0.2-0.4
					c0.1-0.1,0.3-0.3,0.5-0.4c0.2-0.1,0.4-0.2,0.6-0.2c0.1,0,0.2,0,0.3,0v1.1c-0.2-0.1-0.3-0.2-0.5-0.2c-0.4,0-0.7,0.1-1,0.3v2.5
					l0.9,0.1v0.4h-2.4V195z"/>
			</g>
			<g>
				<path class="st8" d="M35.3,193.3c0.5-0.2,1-0.3,1.8-0.4v-0.2c0-0.2,0-0.4-0.1-0.5c0-0.1-0.1-0.2-0.2-0.3
					c-0.1-0.1-0.3-0.1-0.5-0.1c-0.2,0-0.5,0-0.7,0.1c-0.2,0.1-0.4,0.1-0.6,0.2l-0.2-0.5c0.1-0.1,0.2-0.1,0.4-0.2
					c0.2-0.1,0.4-0.2,0.6-0.2s0.5-0.1,0.8-0.1c0.4,0,0.7,0,0.9,0.1s0.4,0.3,0.5,0.5c0.1,0.2,0.1,0.5,0.1,0.9v2.3h0.4v0.4
					c-0.1,0-0.2,0-0.4,0.1s-0.3,0-0.5,0c-0.2,0-0.3,0-0.3-0.1c-0.1,0-0.1-0.2-0.1-0.3V195c-0.1,0.1-0.3,0.3-0.5,0.4
					c-0.2,0.1-0.5,0.2-0.7,0.2c-0.2,0-0.4,0-0.6-0.1c-0.2-0.1-0.3-0.2-0.5-0.4c-0.1-0.2-0.2-0.4-0.2-0.7
					C34.6,193.8,34.8,193.5,35.3,193.3z M36.7,194.8c0.1-0.1,0.3-0.1,0.4-0.2v-1.2c-0.5,0-0.8,0.1-1,0.2c-0.2,0.2-0.3,0.3-0.3,0.6
					c0,0.2,0.1,0.4,0.2,0.5c0.1,0.1,0.3,0.2,0.5,0.2C36.4,194.9,36.6,194.9,36.7,194.8z"/>
			</g>
			<g>
				<path class="st8" d="M39.3,192l-0.5-0.1v-0.5l1.2-0.2h0l0.2,0.1v0.3l0,0.2c0.2-0.2,0.4-0.3,0.7-0.4c0.3-0.1,0.6-0.2,0.8-0.2
					c0.3,0,0.5,0.1,0.7,0.2c0.2,0.1,0.3,0.3,0.4,0.5c0.1,0.2,0.1,0.6,0.1,1v2.1l0.5,0.1v0.5h-1.9V195L42,195v-2.1
					c0-0.3,0-0.5-0.1-0.6s-0.1-0.3-0.2-0.3c-0.1-0.1-0.2-0.1-0.4-0.1c-0.3,0-0.6,0.1-0.9,0.4v2.7l0.4,0.1v0.5h-2V195l0.4-0.1V192z"
					/>
			</g>
			<g>
				<path class="st8" d="M44.9,194.9c0,0.1,0.1,0.1,0.3,0.2c0.1,0.1,0.3,0.1,0.4,0.1c0.2,0,0.4,0,0.5-0.1c0.1-0.1,0.2-0.2,0.2-0.4
					c0-0.2-0.1-0.3-0.2-0.4s-0.4-0.2-0.7-0.4l-0.2-0.1c-0.3-0.1-0.6-0.3-0.8-0.5s-0.3-0.5-0.3-0.8c0-0.2,0.1-0.4,0.2-0.6
					c0.1-0.2,0.3-0.3,0.6-0.4c0.2-0.1,0.5-0.1,0.8-0.1c0.2,0,0.4,0,0.6,0c0.2,0,0.3,0.1,0.5,0.1c0.1,0,0.2,0.1,0.2,0.1v1h-0.6
					l-0.2-0.6c0,0-0.1-0.1-0.2-0.1c-0.1,0-0.2-0.1-0.4-0.1c-0.2,0-0.4,0-0.5,0.1S45,192,45,192.1c0,0.1,0,0.3,0.1,0.3
					c0.1,0.1,0.2,0.2,0.3,0.2c0.1,0,0.3,0.1,0.6,0.2c0.3,0.1,0.5,0.2,0.7,0.3s0.3,0.2,0.4,0.4c0.1,0.2,0.2,0.4,0.2,0.6
					c0,0.4-0.1,0.7-0.4,0.9c-0.3,0.2-0.7,0.3-1.3,0.3c-0.3,0-0.5,0-0.7-0.1s-0.4-0.1-0.7-0.2l-0.2-0.1v-1h0.6L44.9,194.9z"/>
			</g>
			<g>
				<path class="st8" d="M51.8,194.4c-0.2,0.4-0.4,0.6-0.8,0.8s-0.7,0.3-1.2,0.3c-0.1,0-0.2,0-0.3,0s-0.2,0-0.3-0.1l0,0.6v0.7
					l0.7,0.1v0.4h-2.2v-0.4l0.5-0.1V192l-0.5-0.1v-0.5l1.2-0.2h0l0.2,0.1v0.4c0.1-0.2,0.3-0.3,0.5-0.4c0.2-0.1,0.5-0.2,0.7-0.2
					c0.5,0,0.9,0.2,1.2,0.5c0.3,0.3,0.5,0.9,0.5,1.5C52.1,193.7,52,194.1,51.8,194.4z M49.6,191.9c-0.1,0.1-0.2,0.1-0.3,0.2v2.8
					c0,0.1,0.1,0.1,0.2,0.1c0.1,0,0.2,0.1,0.4,0.1c0.3,0,0.6-0.1,0.8-0.4c0.2-0.3,0.3-0.7,0.3-1.3c0-0.5-0.1-0.9-0.2-1.1
					c-0.2-0.3-0.4-0.4-0.7-0.4C49.9,191.8,49.7,191.9,49.6,191.9z"/>
			</g>
			<g>
				<path class="st8" d="M53,192.2c0.2-0.3,0.4-0.6,0.8-0.7c0.3-0.2,0.7-0.3,1-0.3c0.6,0,1.1,0.2,1.5,0.6c0.3,0.4,0.5,0.9,0.5,1.6
					c0,0.5-0.1,0.9-0.3,1.2s-0.4,0.6-0.8,0.7c-0.3,0.2-0.7,0.2-1,0.2c-0.6,0-1.1-0.2-1.5-0.6c-0.3-0.4-0.5-0.9-0.5-1.6
					C52.7,192.9,52.8,192.5,53,192.2z M55.6,193.4c0-0.6-0.1-1-0.2-1.3s-0.4-0.4-0.7-0.4c-0.6,0-0.9,0.5-0.9,1.6
					c0,0.6,0.1,1,0.2,1.3s0.4,0.4,0.7,0.4C55.3,195.1,55.6,194.5,55.6,193.4z"/>
			</g>
			<g>
				<path class="st8" d="M57.4,195l0.5-0.1v-3l-0.5-0.1v-0.5l1.2-0.2h0l0.2,0.1v0.2l0,0.6h0c0-0.1,0.1-0.2,0.2-0.4
					c0.1-0.1,0.3-0.3,0.5-0.4c0.2-0.1,0.4-0.2,0.6-0.2c0.1,0,0.2,0,0.3,0v1.1c-0.1-0.1-0.3-0.2-0.5-0.2c-0.4,0-0.7,0.1-1,0.3v2.5
					l0.9,0.1v0.4h-2.4V195z"/>
			</g>
			<g>
				<path class="st8" d="M61.5,195.3c-0.1-0.1-0.2-0.4-0.2-0.7v-2.8h-0.5v-0.4c0,0,0.1,0,0.2-0.1c0.1,0,0.2-0.1,0.2-0.1
					c0.1-0.1,0.2-0.2,0.2-0.3c0-0.1,0.1-0.4,0.2-0.8h0.6l0,1.1h1.1v0.6h-1.1v2.1c0,0.3,0,0.5,0,0.6c0,0.1,0,0.2,0.1,0.2
					c0,0,0.1,0,0.3,0s0.3,0,0.4,0c0.1,0,0.2-0.1,0.3-0.1l0.1,0.4c-0.1,0.1-0.3,0.2-0.6,0.3c-0.3,0.1-0.5,0.1-0.8,0.1
					C61.9,195.5,61.6,195.5,61.5,195.3z"/>
			</g>
			<g>
				<path class="st8" d="M64.4,195c-0.3-0.4-0.5-0.9-0.5-1.6c0-0.5,0.1-0.8,0.3-1.2c0.2-0.3,0.4-0.6,0.7-0.8
					c0.3-0.2,0.7-0.3,1.1-0.3c0.5,0,0.9,0.1,1.2,0.4c0.3,0.3,0.4,0.6,0.4,1.1c0,0.3,0,0.6-0.1,0.7H65c0,0.5,0.1,0.8,0.3,1.1
					s0.5,0.4,0.8,0.4c0.2,0,0.4,0,0.6-0.1c0.2-0.1,0.4-0.1,0.5-0.2l0.2,0.4c-0.1,0.1-0.4,0.3-0.7,0.4c-0.3,0.1-0.6,0.2-0.9,0.2
					C65.2,195.6,64.7,195.4,64.4,195z M66.5,193c0-0.1,0-0.2,0-0.3c0-0.7-0.2-1-0.7-1c-0.2,0-0.4,0.1-0.6,0.3s-0.2,0.5-0.2,1H66.5z"
					/>
			</g>
			<g>
				<path class="st8" d="M71.6,189.9h1.1l1.7,5.1l0.4,0.1v0.5h-2.2V195l0.6-0.1l-0.3-1H71l-0.3,1l0.6,0.1v0.5h-1.9l0-0.5l0.4-0.1
					L71.6,189.9z M72.1,191.1l-0.1-0.6l-0.1,0.6l-0.7,2.3h1.6L72.1,191.1z"/>
			</g>
			<g>
				<path class="st8" d="M75.6,195c-0.3-0.4-0.5-0.9-0.5-1.6c0-0.5,0.1-0.8,0.3-1.2c0.2-0.3,0.4-0.6,0.7-0.8
					c0.3-0.2,0.7-0.3,1.1-0.3c0.5,0,0.9,0.1,1.2,0.4c0.3,0.3,0.4,0.6,0.4,1.1c0,0.3,0,0.6-0.1,0.7h-2.4c0,0.5,0.1,0.8,0.3,1.1
					c0.2,0.3,0.5,0.4,0.8,0.4c0.2,0,0.4,0,0.6-0.1s0.4-0.1,0.5-0.2l0.2,0.4c-0.1,0.1-0.4,0.3-0.7,0.4c-0.3,0.1-0.6,0.2-0.9,0.2
					C76.4,195.6,75.9,195.4,75.6,195z M77.6,193c0-0.1,0-0.2,0-0.3c0-0.7-0.2-1-0.7-1c-0.2,0-0.4,0.1-0.6,0.3s-0.2,0.5-0.2,1H77.6z
					 M76.3,190.3l1.3-1.6l0.7,0.6c-0.1,0.2-0.4,0.4-0.7,0.7c-0.3,0.3-0.6,0.5-0.8,0.6L76.3,190.3z"/>
			</g>
			<g>
				<path class="st8" d="M79.3,195l0.5-0.1v-3l-0.5-0.1v-0.5l1.2-0.2h0l0.2,0.1v0.2l0,0.6h0c0-0.1,0.1-0.2,0.2-0.4
					c0.1-0.1,0.3-0.3,0.5-0.4c0.2-0.1,0.4-0.2,0.6-0.2c0.1,0,0.2,0,0.3,0v1.1c-0.1-0.1-0.3-0.2-0.5-0.2c-0.4,0-0.7,0.1-1,0.3v2.5
					l0.9,0.1v0.4h-2.4V195z"/>
			</g>
			<g>
				<path class="st8" d="M83.2,195c-0.3-0.4-0.5-0.9-0.5-1.6c0-0.5,0.1-0.8,0.3-1.2s0.4-0.6,0.7-0.8c0.3-0.2,0.7-0.3,1.1-0.3
					c0.5,0,0.9,0.1,1.2,0.4c0.3,0.3,0.4,0.6,0.4,1.1c0,0.3,0,0.6-0.1,0.7h-2.4c0,0.5,0.1,0.8,0.3,1.1c0.2,0.3,0.5,0.4,0.8,0.4
					c0.2,0,0.4,0,0.6-0.1s0.4-0.1,0.5-0.2l0.2,0.4c-0.1,0.1-0.4,0.3-0.7,0.4c-0.3,0.1-0.6,0.2-0.9,0.2C84,195.6,83.5,195.4,83.2,195
					z M85.3,193c0-0.1,0-0.2,0-0.3c0-0.7-0.2-1-0.7-1c-0.2,0-0.4,0.1-0.6,0.3c-0.1,0.2-0.2,0.5-0.2,1H85.3z"/>
			</g>
			<g>
				<path class="st8" d="M87.2,192.2c0.2-0.3,0.4-0.6,0.8-0.7c0.3-0.2,0.7-0.3,1-0.3c0.6,0,1.1,0.2,1.5,0.6c0.3,0.4,0.5,0.9,0.5,1.6
					c0,0.5-0.1,0.9-0.3,1.2s-0.4,0.6-0.8,0.7c-0.3,0.2-0.7,0.2-1,0.2c-0.6,0-1.1-0.2-1.5-0.6c-0.3-0.4-0.5-0.9-0.5-1.6
					C86.9,192.9,87,192.5,87.2,192.2z M89.8,193.4c0-0.6-0.1-1-0.2-1.3s-0.4-0.4-0.7-0.4c-0.6,0-0.9,0.5-0.9,1.6
					c0,0.6,0.1,1,0.2,1.3s0.4,0.4,0.7,0.4C89.5,195.1,89.8,194.5,89.8,193.4z"/>
			</g>
			<path class="st7" d="M27.6,207.4l-1.1,0l-0.3,1.6h-0.6l0.1-2.2h4.8l0.1,2.2H30l-0.3-1.6l-1.1,0v4.6l1.1,0.1v0.5h-3.1V212l1-0.1
				V207.4z"/>
			<path class="st7" d="M31.1,212l0.5-0.1v-3l-0.5-0.1v-0.5l1.2-0.2h0l0.2,0.1v0.2l0,0.6h0c0-0.1,0.1-0.2,0.2-0.4
				c0.1-0.1,0.3-0.3,0.5-0.4c0.2-0.1,0.4-0.2,0.6-0.2c0.1,0,0.2,0,0.3,0v1.1c-0.2-0.1-0.3-0.2-0.5-0.2c-0.4,0-0.7,0.1-1,0.3v2.5
				l0.9,0.1v0.4h-2.4V212z"/>
			<path class="st7" d="M35.3,210.3c0.5-0.2,1-0.3,1.8-0.4v-0.2c0-0.2,0-0.4-0.1-0.5c0-0.1-0.1-0.2-0.2-0.3
				c-0.1-0.1-0.3-0.1-0.5-0.1c-0.2,0-0.5,0-0.7,0.1c-0.2,0.1-0.4,0.1-0.6,0.2l-0.2-0.5c0.1-0.1,0.2-0.1,0.4-0.2
				c0.2-0.1,0.4-0.2,0.6-0.2s0.5-0.1,0.8-0.1c0.4,0,0.7,0,0.9,0.1s0.4,0.3,0.5,0.5c0.1,0.2,0.1,0.5,0.1,0.9v2.3h0.4v0.4
				c-0.1,0-0.2,0-0.4,0.1s-0.3,0-0.5,0c-0.2,0-0.3,0-0.3-0.1c-0.1,0-0.1-0.2-0.1-0.3V212c-0.1,0.1-0.3,0.3-0.5,0.4
				c-0.2,0.1-0.5,0.2-0.7,0.2c-0.2,0-0.4,0-0.6-0.1c-0.2-0.1-0.3-0.2-0.5-0.4c-0.1-0.2-0.2-0.4-0.2-0.7
				C34.6,210.8,34.8,210.5,35.3,210.3z M36.7,211.8c0.1-0.1,0.3-0.1,0.4-0.2v-1.2c-0.5,0-0.8,0.1-1,0.2c-0.2,0.2-0.3,0.3-0.3,0.6
				c0,0.2,0.1,0.4,0.2,0.5c0.1,0.1,0.3,0.2,0.5,0.2C36.4,211.9,36.6,211.9,36.7,211.8z"/>
			<path class="st7" d="M39.3,209l-0.5-0.1v-0.5l1.2-0.2h0l0.2,0.1v0.3l0,0.2c0.2-0.2,0.4-0.3,0.7-0.4c0.3-0.1,0.6-0.2,0.8-0.2
				c0.3,0,0.5,0.1,0.7,0.2c0.2,0.1,0.3,0.3,0.4,0.5c0.1,0.2,0.1,0.6,0.1,1v2.1l0.5,0.1v0.5h-1.9V212L42,212v-2.1
				c0-0.3,0-0.5-0.1-0.6s-0.1-0.3-0.2-0.3c-0.1-0.1-0.2-0.1-0.4-0.1c-0.3,0-0.6,0.1-0.9,0.4v2.7l0.4,0.1v0.5h-2V212l0.4-0.1V209z"/>
			<path class="st7" d="M44.9,211.9c0,0.1,0.1,0.1,0.3,0.2c0.1,0.1,0.3,0.1,0.4,0.1c0.2,0,0.4,0,0.5-0.1c0.1-0.1,0.2-0.2,0.2-0.4
				c0-0.2-0.1-0.3-0.2-0.4s-0.4-0.2-0.7-0.4l-0.2-0.1c-0.3-0.1-0.6-0.3-0.8-0.5s-0.3-0.5-0.3-0.8c0-0.2,0.1-0.4,0.2-0.6
				c0.1-0.2,0.3-0.3,0.6-0.4c0.2-0.1,0.5-0.1,0.8-0.1c0.2,0,0.4,0,0.6,0c0.2,0,0.3,0.1,0.5,0.1c0.1,0,0.2,0.1,0.2,0.1v1h-0.6
				l-0.2-0.6c0,0-0.1-0.1-0.2-0.1c-0.1,0-0.2-0.1-0.4-0.1c-0.2,0-0.4,0-0.5,0.1S45,209,45,209.1c0,0.1,0,0.3,0.1,0.3
				c0.1,0.1,0.2,0.2,0.3,0.2c0.1,0,0.3,0.1,0.6,0.2c0.3,0.1,0.5,0.2,0.7,0.3s0.3,0.2,0.4,0.4c0.1,0.2,0.2,0.4,0.2,0.6
				c0,0.4-0.1,0.7-0.4,0.9c-0.3,0.2-0.7,0.3-1.3,0.3c-0.3,0-0.5,0-0.7-0.1s-0.4-0.1-0.7-0.2l-0.2-0.1v-1h0.6L44.9,211.9z"/>
			<path class="st7" d="M51.8,211.4c-0.2,0.4-0.4,0.6-0.8,0.8s-0.7,0.3-1.2,0.3c-0.1,0-0.2,0-0.3,0s-0.2,0-0.3-0.1l0,0.6v0.7
				l0.7,0.1v0.4h-2.2v-0.4l0.5-0.1V209l-0.5-0.1v-0.5l1.2-0.2h0l0.2,0.1v0.4c0.1-0.2,0.3-0.3,0.5-0.4c0.2-0.1,0.5-0.2,0.7-0.2
				c0.5,0,0.9,0.2,1.2,0.5c0.3,0.3,0.5,0.9,0.5,1.5C52.1,210.7,52,211.1,51.8,211.4z M49.6,208.9c-0.1,0.1-0.2,0.1-0.3,0.2v2.8
				c0,0.1,0.1,0.1,0.2,0.1c0.1,0,0.2,0.1,0.4,0.1c0.3,0,0.6-0.1,0.8-0.4c0.2-0.3,0.3-0.7,0.3-1.3c0-0.5-0.1-0.9-0.2-1.1
				c-0.2-0.3-0.4-0.4-0.7-0.4C49.9,208.8,49.7,208.9,49.6,208.9z"/>
			<path class="st7" d="M53,209.2c0.2-0.3,0.4-0.6,0.8-0.7c0.3-0.2,0.7-0.3,1-0.3c0.6,0,1.1,0.2,1.5,0.6c0.3,0.4,0.5,0.9,0.5,1.6
				c0,0.5-0.1,0.9-0.3,1.2s-0.4,0.6-0.8,0.7c-0.3,0.2-0.7,0.2-1,0.2c-0.6,0-1.1-0.2-1.5-0.6c-0.3-0.4-0.5-0.9-0.5-1.6
				C52.7,209.9,52.8,209.5,53,209.2z M55.6,210.4c0-0.6-0.1-1-0.2-1.3s-0.4-0.4-0.7-0.4c-0.6,0-0.9,0.5-0.9,1.6c0,0.6,0.1,1,0.2,1.3
				s0.4,0.4,0.7,0.4C55.3,212.1,55.6,211.5,55.6,210.4z"/>
			<path class="st7" d="M57.4,212l0.5-0.1v-3l-0.5-0.1v-0.5l1.2-0.2h0l0.2,0.1v0.2l0,0.6h0c0-0.1,0.1-0.2,0.2-0.4
				c0.1-0.1,0.3-0.3,0.5-0.4c0.2-0.1,0.4-0.2,0.6-0.2c0.1,0,0.2,0,0.3,0v1.1c-0.1-0.1-0.3-0.2-0.5-0.2c-0.4,0-0.7,0.1-1,0.3v2.5
				l0.9,0.1v0.4h-2.4V212z"/>
			<path class="st7" d="M61.5,212.3c-0.1-0.1-0.2-0.4-0.2-0.7v-2.8h-0.5v-0.4c0,0,0.1,0,0.2-0.1c0.1,0,0.2-0.1,0.2-0.1
				c0.1-0.1,0.2-0.2,0.2-0.3c0-0.1,0.1-0.4,0.2-0.8h0.6l0,1.1h1.1v0.6h-1.1v2.1c0,0.3,0,0.5,0,0.6c0,0.1,0,0.2,0.1,0.2
				c0,0,0.1,0,0.3,0s0.3,0,0.4,0c0.1,0,0.2-0.1,0.3-0.1l0.1,0.4c-0.1,0.1-0.3,0.2-0.6,0.3c-0.3,0.1-0.5,0.1-0.8,0.1
				C61.9,212.5,61.6,212.5,61.5,212.3z"/>
			<path class="st7" d="M64.4,212c-0.3-0.4-0.5-0.9-0.5-1.6c0-0.5,0.1-0.8,0.3-1.2c0.2-0.3,0.4-0.6,0.7-0.8c0.3-0.2,0.7-0.3,1.1-0.3
				c0.5,0,0.9,0.1,1.2,0.4c0.3,0.3,0.4,0.6,0.4,1.1c0,0.3,0,0.6-0.1,0.7H65c0,0.5,0.1,0.8,0.3,1.1s0.5,0.4,0.8,0.4
				c0.2,0,0.4,0,0.6-0.1c0.2-0.1,0.4-0.1,0.5-0.2l0.2,0.4c-0.1,0.1-0.4,0.3-0.7,0.4c-0.3,0.1-0.6,0.2-0.9,0.2
				C65.2,212.6,64.7,212.4,64.4,212z M66.5,210c0-0.1,0-0.2,0-0.3c0-0.7-0.2-1-0.7-1c-0.2,0-0.4,0.1-0.6,0.3s-0.2,0.5-0.2,1H66.5z"
				/>
			<path class="st7" d="M70.7,207.5l-0.8-0.1v-0.5h2.3l0.9,3.2l0.2,0.9l0.2-0.9l0.9-3.2h2.3v0.5l-0.8,0.1l0.6,4.5l0.6,0.1v0.5h-2.4
				V212l0.7-0.1l-0.3-3.3l-0.1-1.4l-0.3,1.2l-1.1,3.8h-0.8l-1.1-3.6l-0.4-1.4l-0.1,1.4l-0.3,3.3l0.8,0.1v0.5h-2.1V212l0.6-0.1
				L70.7,207.5z"/>
			<path class="st7" d="M78.1,210.3c0.5-0.2,1-0.3,1.8-0.4v-0.2c0-0.2,0-0.4-0.1-0.5c0-0.1-0.1-0.2-0.2-0.3
				c-0.1-0.1-0.3-0.1-0.5-0.1c-0.2,0-0.5,0-0.7,0.1s-0.4,0.1-0.6,0.2l-0.2-0.5c0.1-0.1,0.2-0.1,0.4-0.2c0.2-0.1,0.4-0.2,0.6-0.2
				s0.5-0.1,0.8-0.1c0.4,0,0.7,0,0.9,0.1c0.2,0.1,0.4,0.3,0.5,0.5c0.1,0.2,0.1,0.5,0.1,0.9v2.3h0.4v0.4c-0.1,0-0.2,0-0.4,0.1
				s-0.3,0-0.5,0c-0.2,0-0.3,0-0.3-0.1c-0.1,0-0.1-0.2-0.1-0.3V212c-0.1,0.1-0.3,0.3-0.5,0.4c-0.2,0.1-0.5,0.2-0.7,0.2
				c-0.2,0-0.4,0-0.6-0.1c-0.2-0.1-0.3-0.2-0.5-0.4s-0.2-0.4-0.2-0.7C77.4,210.8,77.7,210.5,78.1,210.3z M79.5,211.8
				c0.1-0.1,0.3-0.1,0.4-0.2v-1.2c-0.4,0-0.8,0.1-1,0.2c-0.2,0.2-0.3,0.3-0.3,0.6c0,0.2,0.1,0.4,0.2,0.5c0.1,0.1,0.3,0.2,0.5,0.2
				C79.3,211.9,79.4,211.9,79.5,211.8z"/>
			<path class="st7" d="M81.8,212l0.5-0.1v-3l-0.5-0.1v-0.5l1.2-0.2h0l0.2,0.1v0.2l0,0.6h0c0-0.1,0.1-0.2,0.2-0.4
				c0.1-0.1,0.3-0.3,0.5-0.4c0.2-0.1,0.4-0.2,0.6-0.2c0.1,0,0.2,0,0.3,0v1.1c-0.1-0.1-0.3-0.2-0.5-0.2c-0.4,0-0.7,0.1-1,0.3v2.5
				l0.9,0.1v0.4h-2.4V212z"/>
			<path class="st7" d="M85.8,209l-0.5-0.1v-0.5l1.4-0.2h0l0.2,0.1v3.6l0.5,0.1v0.5h-2.1V212l0.5-0.1V209z M85.8,207.5
				c-0.1-0.1-0.2-0.2-0.2-0.4c0-0.2,0.1-0.3,0.2-0.5c0.1-0.1,0.3-0.2,0.5-0.2c0.2,0,0.4,0.1,0.5,0.2s0.2,0.2,0.2,0.4
				c0,0.2-0.1,0.4-0.2,0.5c-0.1,0.1-0.3,0.2-0.5,0.2h0C86,207.6,85.9,207.6,85.8,207.5z"/>
			<path class="st7" d="M88.5,212.3c-0.1-0.1-0.2-0.4-0.2-0.7v-2.8h-0.5v-0.4c0,0,0.1,0,0.2-0.1c0.1,0,0.2-0.1,0.2-0.1
				c0.1-0.1,0.2-0.2,0.2-0.3c0-0.1,0.1-0.4,0.2-0.8h0.6l0,1.1h1.1v0.6h-1.1v2.1c0,0.3,0,0.5,0,0.6c0,0.1,0,0.2,0.1,0.2
				c0,0,0.1,0,0.3,0s0.3,0,0.4,0c0.1,0,0.2-0.1,0.3-0.1l0.1,0.4c-0.1,0.1-0.3,0.2-0.6,0.3s-0.5,0.1-0.8,0.1
				C88.8,212.5,88.6,212.5,88.5,212.3z"/>
			<path class="st7" d="M91.4,209l-0.5-0.1v-0.5l1.4-0.2h0l0.2,0.1v3.6L93,212v0.5h-2.1V212l0.5-0.1V209z M91.4,207.5
				c-0.1-0.1-0.2-0.2-0.2-0.4c0-0.2,0.1-0.3,0.2-0.5c0.1-0.1,0.3-0.2,0.5-0.2c0.2,0,0.4,0.1,0.5,0.2s0.2,0.2,0.2,0.4
				c0,0.2-0.1,0.4-0.2,0.5c-0.1,0.1-0.3,0.2-0.5,0.2h0C91.7,207.6,91.5,207.6,91.4,207.5z"/>
			<path class="st7" d="M93.6,212L94,212V209l-0.5-0.1v-0.5l1.2-0.2l0.1,0.1l0.1,0.2v0.3c0.2-0.2,0.4-0.3,0.7-0.4
				c0.3-0.1,0.6-0.2,0.8-0.2c0.3,0,0.5,0,0.7,0.1c0.2,0.1,0.3,0.2,0.4,0.4c0.2-0.2,0.4-0.3,0.7-0.4s0.5-0.2,0.8-0.2
				c0.4,0,0.8,0.1,0.9,0.4c0.2,0.3,0.3,0.7,0.3,1.3v2.1l0.5,0.1v0.5h-1.9V212l0.4-0.1v-2c0-0.4,0-0.7-0.1-0.8
				c-0.1-0.2-0.3-0.2-0.5-0.2c-0.1,0-0.3,0-0.4,0.1c-0.1,0.1-0.3,0.1-0.4,0.2c0,0.2,0.1,0.4,0.1,0.7v2.1l0.5,0.1v0.5h-2V212l0.4-0.1
				v-2.1c0-0.3,0-0.5,0-0.6s-0.1-0.3-0.2-0.3c-0.1-0.1-0.2-0.1-0.4-0.1c-0.2,0-0.3,0-0.5,0.1c-0.2,0.1-0.3,0.2-0.4,0.3v2.7l0.4,0.1
				v0.5h-1.9V212z"/>
			<path class="st7" d="M101.4,209.2c0.2-0.3,0.4-0.6,0.8-0.7c0.3-0.2,0.7-0.3,1-0.3c0.6,0,1.1,0.2,1.5,0.6c0.3,0.4,0.5,0.9,0.5,1.6
				c0,0.5-0.1,0.9-0.3,1.2s-0.4,0.6-0.8,0.7c-0.3,0.2-0.7,0.2-1,0.2c-0.6,0-1.1-0.2-1.5-0.6c-0.3-0.4-0.5-0.9-0.5-1.6
				C101.2,209.9,101.2,209.5,101.4,209.2z M104,210.4c0-0.6-0.1-1-0.2-1.3c-0.1-0.3-0.4-0.4-0.7-0.4c-0.6,0-0.9,0.5-0.9,1.6
				c0,0.6,0.1,1,0.2,1.3s0.4,0.4,0.7,0.4C103.8,212.1,104,211.5,104,210.4z"/>
			<path class="st7" d="M27.6,224.4l-1.1,0l-0.3,1.6h-0.6l0.1-2.2h4.8l0.1,2.2H30l-0.3-1.6l-1.1,0v4.6l1.1,0.1v0.5h-3.1V229l1-0.1
				V224.4z"/>
			<path class="st7" d="M31.1,229l0.5-0.1v-3l-0.5-0.1v-0.5l1.2-0.2h0l0.2,0.1v0.2l0,0.6h0c0-0.1,0.1-0.2,0.2-0.4
				c0.1-0.1,0.3-0.3,0.5-0.4c0.2-0.1,0.4-0.2,0.6-0.2c0.1,0,0.2,0,0.3,0v1.1c-0.2-0.1-0.3-0.2-0.5-0.2c-0.4,0-0.7,0.1-1,0.3v2.5
				l0.9,0.1v0.4h-2.4V229z"/>
			<path class="st7" d="M35.3,227.3c0.5-0.2,1-0.3,1.8-0.4v-0.2c0-0.2,0-0.4-0.1-0.5c0-0.1-0.1-0.2-0.2-0.3
				c-0.1-0.1-0.3-0.1-0.5-0.1c-0.2,0-0.5,0-0.7,0.1c-0.2,0.1-0.4,0.1-0.6,0.2l-0.2-0.5c0.1-0.1,0.2-0.1,0.4-0.2
				c0.2-0.1,0.4-0.2,0.6-0.2s0.5-0.1,0.8-0.1c0.4,0,0.7,0,0.9,0.1s0.4,0.3,0.5,0.5c0.1,0.2,0.1,0.5,0.1,0.9v2.3h0.4v0.4
				c-0.1,0-0.2,0-0.4,0.1s-0.3,0-0.5,0c-0.2,0-0.3,0-0.3-0.1c-0.1,0-0.1-0.2-0.1-0.3V229c-0.1,0.1-0.3,0.3-0.5,0.4
				c-0.2,0.1-0.5,0.2-0.7,0.2c-0.2,0-0.4,0-0.6-0.1c-0.2-0.1-0.3-0.2-0.5-0.4c-0.1-0.2-0.2-0.4-0.2-0.7
				C34.6,227.8,34.8,227.5,35.3,227.3z M36.7,228.8c0.1-0.1,0.3-0.1,0.4-0.2v-1.2c-0.5,0-0.8,0.1-1,0.2c-0.2,0.2-0.3,0.3-0.3,0.6
				c0,0.2,0.1,0.4,0.2,0.5c0.1,0.1,0.3,0.2,0.5,0.2C36.4,228.9,36.6,228.9,36.7,228.8z"/>
			<path class="st7" d="M39.3,226l-0.5-0.1v-0.5l1.2-0.2h0l0.2,0.1v0.3l0,0.2c0.2-0.2,0.4-0.3,0.7-0.4c0.3-0.1,0.6-0.2,0.8-0.2
				c0.3,0,0.5,0.1,0.7,0.2c0.2,0.1,0.3,0.3,0.4,0.5c0.1,0.2,0.1,0.6,0.1,1v2.1l0.5,0.1v0.5h-1.9V229L42,229v-2.1
				c0-0.3,0-0.5-0.1-0.6s-0.1-0.3-0.2-0.3c-0.1-0.1-0.2-0.1-0.4-0.1c-0.3,0-0.6,0.1-0.9,0.4v2.7l0.4,0.1v0.5h-2V229l0.4-0.1V226z"/>
			<path class="st7" d="M44.9,228.9c0,0.1,0.1,0.1,0.3,0.2c0.1,0.1,0.3,0.1,0.4,0.1c0.2,0,0.4,0,0.5-0.1c0.1-0.1,0.2-0.2,0.2-0.4
				c0-0.2-0.1-0.3-0.2-0.4s-0.4-0.2-0.7-0.4l-0.2-0.1c-0.3-0.1-0.6-0.3-0.8-0.5s-0.3-0.5-0.3-0.8c0-0.2,0.1-0.4,0.2-0.6
				c0.1-0.2,0.3-0.3,0.6-0.4c0.2-0.1,0.5-0.1,0.8-0.1c0.2,0,0.4,0,0.6,0c0.2,0,0.3,0.1,0.5,0.1c0.1,0,0.2,0.1,0.2,0.1v1h-0.6
				l-0.2-0.6c0,0-0.1-0.1-0.2-0.1c-0.1,0-0.2-0.1-0.4-0.1c-0.2,0-0.4,0-0.5,0.1S45,226,45,226.1c0,0.1,0,0.3,0.1,0.3
				c0.1,0.1,0.2,0.2,0.3,0.2c0.1,0,0.3,0.1,0.6,0.2c0.3,0.1,0.5,0.2,0.7,0.3s0.3,0.2,0.4,0.4c0.1,0.2,0.2,0.4,0.2,0.6
				c0,0.4-0.1,0.7-0.4,0.9c-0.3,0.2-0.7,0.3-1.3,0.3c-0.3,0-0.5,0-0.7-0.1s-0.4-0.1-0.7-0.2l-0.2-0.1v-1h0.6L44.9,228.9z"/>
			<path class="st7" d="M51.8,228.4c-0.2,0.4-0.4,0.6-0.8,0.8s-0.7,0.3-1.2,0.3c-0.1,0-0.2,0-0.3,0s-0.2,0-0.3-0.1l0,0.6v0.7
				l0.7,0.1v0.4h-2.2v-0.4l0.5-0.1V226l-0.5-0.1v-0.5l1.2-0.2h0l0.2,0.1v0.4c0.1-0.2,0.3-0.3,0.5-0.4c0.2-0.1,0.5-0.2,0.7-0.2
				c0.5,0,0.9,0.2,1.2,0.5c0.3,0.3,0.5,0.9,0.5,1.5C52.1,227.7,52,228.1,51.8,228.4z M49.6,225.9c-0.1,0.1-0.2,0.1-0.3,0.2v2.8
				c0,0.1,0.1,0.1,0.2,0.1c0.1,0,0.2,0.1,0.4,0.1c0.3,0,0.6-0.1,0.8-0.4c0.2-0.3,0.3-0.7,0.3-1.3c0-0.5-0.1-0.9-0.2-1.1
				c-0.2-0.3-0.4-0.4-0.7-0.4C49.9,225.8,49.7,225.9,49.6,225.9z"/>
			<path class="st7" d="M53,226.2c0.2-0.3,0.4-0.6,0.8-0.7c0.3-0.2,0.7-0.3,1-0.3c0.6,0,1.1,0.2,1.5,0.6c0.3,0.4,0.5,0.9,0.5,1.6
				c0,0.5-0.1,0.9-0.3,1.2s-0.4,0.6-0.8,0.7c-0.3,0.2-0.7,0.2-1,0.2c-0.6,0-1.1-0.2-1.5-0.6c-0.3-0.4-0.5-0.9-0.5-1.6
				C52.7,226.9,52.8,226.5,53,226.2z M55.6,227.4c0-0.6-0.1-1-0.2-1.3s-0.4-0.4-0.7-0.4c-0.6,0-0.9,0.5-0.9,1.6c0,0.6,0.1,1,0.2,1.3
				s0.4,0.4,0.7,0.4C55.3,229.1,55.6,228.5,55.6,227.4z"/>
			<path class="st7" d="M57.4,229l0.5-0.1v-3l-0.5-0.1v-0.5l1.2-0.2h0l0.2,0.1v0.2l0,0.6h0c0-0.1,0.1-0.2,0.2-0.4
				c0.1-0.1,0.3-0.3,0.5-0.4c0.2-0.1,0.4-0.2,0.6-0.2c0.1,0,0.2,0,0.3,0v1.1c-0.1-0.1-0.3-0.2-0.5-0.2c-0.4,0-0.7,0.1-1,0.3v2.5
				l0.9,0.1v0.4h-2.4V229z"/>
			<path class="st7" d="M61.5,229.3c-0.1-0.1-0.2-0.4-0.2-0.7v-2.8h-0.5v-0.4c0,0,0.1,0,0.2-0.1c0.1,0,0.2-0.1,0.2-0.1
				c0.1-0.1,0.2-0.2,0.2-0.3c0-0.1,0.1-0.4,0.2-0.8h0.6l0,1.1h1.1v0.6h-1.1v2.1c0,0.3,0,0.5,0,0.6c0,0.1,0,0.2,0.1,0.2
				c0,0,0.1,0,0.3,0s0.3,0,0.4,0c0.1,0,0.2-0.1,0.3-0.1l0.1,0.4c-0.1,0.1-0.3,0.2-0.6,0.3c-0.3,0.1-0.5,0.1-0.8,0.1
				C61.9,229.5,61.6,229.5,61.5,229.3z"/>
			<path class="st7" d="M64.4,229c-0.3-0.4-0.5-0.9-0.5-1.6c0-0.5,0.1-0.8,0.3-1.2c0.2-0.3,0.4-0.6,0.7-0.8c0.3-0.2,0.7-0.3,1.1-0.3
				c0.5,0,0.9,0.1,1.2,0.4c0.3,0.3,0.4,0.6,0.4,1.1c0,0.3,0,0.6-0.1,0.7H65c0,0.5,0.1,0.8,0.3,1.1s0.5,0.4,0.8,0.4
				c0.2,0,0.4,0,0.6-0.1c0.2-0.1,0.4-0.1,0.5-0.2l0.2,0.4c-0.1,0.1-0.4,0.3-0.7,0.4c-0.3,0.1-0.6,0.2-0.9,0.2
				C65.2,229.6,64.7,229.4,64.4,229z M66.5,227c0-0.1,0-0.2,0-0.3c0-0.7-0.2-1-0.7-1c-0.2,0-0.4,0.1-0.6,0.3s-0.2,0.5-0.2,1H66.5z"
				/>
			<path class="st7" d="M71.7,224.4l-1.1,0l-0.3,1.6h-0.6l0.1-2.2h4.8l0.1,2.2h-0.6l-0.3-1.6l-1.1,0v4.6l1.1,0.1v0.5h-3.1V229l1-0.1
				V224.4z"/>
			<path class="st7" d="M75.6,229c-0.3-0.4-0.5-0.9-0.5-1.6c0-0.5,0.1-0.8,0.3-1.2s0.4-0.6,0.7-0.8c0.3-0.2,0.7-0.3,1.1-0.3
				c0.5,0,0.9,0.1,1.2,0.4c0.3,0.3,0.4,0.6,0.4,1.1c0,0.3,0,0.6-0.1,0.7h-2.4c0,0.5,0.1,0.8,0.3,1.1c0.2,0.3,0.5,0.4,0.8,0.4
				c0.2,0,0.4,0,0.6-0.1s0.4-0.1,0.5-0.2l0.2,0.4c-0.1,0.1-0.4,0.3-0.7,0.4c-0.3,0.1-0.6,0.2-0.9,0.2C76.5,229.6,76,229.4,75.6,229z
				 M77.7,227c0-0.1,0-0.2,0-0.3c0-0.7-0.2-1-0.7-1c-0.2,0-0.4,0.1-0.6,0.3c-0.1,0.2-0.2,0.5-0.2,1H77.7z"/>
			<path class="st7" d="M79.4,229l0.5-0.1v-3l-0.5-0.1v-0.5l1.2-0.2h0l0.2,0.1v0.2l0,0.6h0c0-0.1,0.1-0.2,0.2-0.4
				c0.1-0.1,0.3-0.3,0.5-0.4c0.2-0.1,0.4-0.2,0.6-0.2c0.1,0,0.2,0,0.3,0v1.1c-0.2-0.1-0.3-0.2-0.5-0.2c-0.4,0-0.7,0.1-1,0.3v2.5
				l0.9,0.1v0.4h-2.4V229z"/>
			<path class="st7" d="M82.9,229l0.5-0.1v-3l-0.5-0.1v-0.5l1.2-0.2h0l0.2,0.1v0.2l0,0.6h0c0-0.1,0.1-0.2,0.2-0.4
				c0.1-0.1,0.3-0.3,0.5-0.4c0.2-0.1,0.4-0.2,0.6-0.2c0.1,0,0.2,0,0.3,0v1.1c-0.1-0.1-0.3-0.2-0.5-0.2c-0.4,0-0.7,0.1-1,0.3v2.5
				l0.9,0.1v0.4h-2.4V229z"/>
			<path class="st7" d="M86.8,229c-0.3-0.4-0.5-0.9-0.5-1.6c0-0.5,0.1-0.8,0.3-1.2s0.4-0.6,0.7-0.8c0.3-0.2,0.7-0.3,1.1-0.3
				c0.5,0,0.9,0.1,1.2,0.4c0.3,0.3,0.4,0.6,0.4,1.1c0,0.3,0,0.6-0.1,0.7h-2.4c0,0.5,0.1,0.8,0.3,1.1c0.2,0.3,0.5,0.4,0.8,0.4
				c0.2,0,0.4,0,0.6-0.1s0.4-0.1,0.5-0.2l0.2,0.4c-0.1,0.1-0.4,0.3-0.7,0.4c-0.3,0.1-0.6,0.2-0.9,0.2
				C87.6,229.6,87.2,229.4,86.8,229z M88.9,227c0-0.1,0-0.2,0-0.3c0-0.7-0.2-1-0.7-1c-0.2,0-0.4,0.1-0.6,0.3c-0.1,0.2-0.2,0.5-0.2,1
				H88.9z"/>
			<path class="st7" d="M91.4,228.9c0,0.1,0.1,0.1,0.3,0.2c0.1,0.1,0.3,0.1,0.4,0.1c0.2,0,0.4,0,0.5-0.1s0.2-0.2,0.2-0.4
				c0-0.2-0.1-0.3-0.2-0.4c-0.1-0.1-0.4-0.2-0.7-0.4l-0.2-0.1c-0.3-0.1-0.6-0.3-0.8-0.5s-0.3-0.5-0.3-0.8c0-0.2,0.1-0.4,0.2-0.6
				c0.1-0.2,0.3-0.3,0.6-0.4s0.5-0.1,0.8-0.1c0.2,0,0.4,0,0.6,0c0.2,0,0.3,0.1,0.5,0.1c0.1,0,0.2,0.1,0.2,0.1v1H93l-0.2-0.6
				c0,0-0.1-0.1-0.2-0.1s-0.2-0.1-0.4-0.1c-0.2,0-0.4,0-0.5,0.1c-0.1,0.1-0.2,0.2-0.2,0.4c0,0.1,0,0.3,0.1,0.3
				c0.1,0.1,0.2,0.2,0.3,0.2c0.1,0,0.3,0.1,0.6,0.2c0.3,0.1,0.5,0.2,0.7,0.3c0.2,0.1,0.3,0.2,0.4,0.4c0.1,0.2,0.2,0.4,0.2,0.6
				c0,0.4-0.1,0.7-0.4,0.9c-0.3,0.2-0.7,0.3-1.3,0.3c-0.3,0-0.5,0-0.7-0.1c-0.2,0-0.4-0.1-0.7-0.2l-0.2-0.1v-1h0.6L91.4,228.9z"/>
			<path class="st7" d="M95,229.3c-0.2-0.1-0.2-0.4-0.2-0.7v-2.8h-0.5v-0.4c0,0,0.1,0,0.2-0.1c0.1,0,0.2-0.1,0.2-0.1
				c0.1-0.1,0.2-0.2,0.2-0.3c0-0.1,0.1-0.4,0.2-0.8h0.6l0,1.1H97v0.6h-1.1v2.1c0,0.3,0,0.5,0,0.6c0,0.1,0,0.2,0.1,0.2
				c0,0,0.1,0,0.3,0s0.3,0,0.4,0c0.1,0,0.2-0.1,0.3-0.1l0.1,0.4c-0.1,0.1-0.3,0.2-0.6,0.3c-0.3,0.1-0.5,0.1-0.8,0.1
				C95.4,229.5,95.1,229.5,95,229.3z"/>
			<path class="st7" d="M97.5,229L98,229v-3l-0.5-0.1v-0.5l1.2-0.2h0l0.2,0.1v0.2l0,0.6h0c0-0.1,0.1-0.2,0.2-0.4
				c0.1-0.1,0.3-0.3,0.5-0.4c0.2-0.1,0.4-0.2,0.6-0.2c0.1,0,0.2,0,0.3,0v1.1c-0.2-0.1-0.3-0.2-0.5-0.2c-0.4,0-0.7,0.1-1,0.3v2.5
				l0.9,0.1v0.4h-2.4V229z"/>
			<path class="st7" d="M101.4,229c-0.3-0.4-0.5-0.9-0.5-1.6c0-0.5,0.1-0.8,0.3-1.2c0.2-0.3,0.4-0.6,0.7-0.8
				c0.3-0.2,0.7-0.3,1.1-0.3c0.5,0,0.9,0.1,1.2,0.4c0.3,0.3,0.4,0.6,0.4,1.1c0,0.3,0,0.6-0.1,0.7h-2.4c0,0.5,0.1,0.8,0.3,1.1
				s0.5,0.4,0.8,0.4c0.2,0,0.4,0,0.6-0.1c0.2-0.1,0.4-0.1,0.5-0.2l0.2,0.4c-0.1,0.1-0.4,0.3-0.7,0.4c-0.3,0.1-0.6,0.2-0.9,0.2
				C102.3,229.6,101.8,229.4,101.4,229z M103.5,227c0-0.1,0-0.2,0-0.3c0-0.7-0.2-1-0.7-1c-0.2,0-0.4,0.1-0.6,0.3
				c-0.1,0.2-0.2,0.5-0.2,1H103.5z"/>
			<path class="st7" d="M27.5,240.9h1.1l1.7,5.1l0.4,0.1v0.5h-2.2V246l0.6-0.1l-0.3-1h-1.9l-0.3,1l0.6,0.1v0.5h-1.9l0-0.5l0.4-0.1
				L27.5,240.9z M28,242.1l-0.1-0.6l-0.1,0.6l-0.7,2.3h1.6L28,242.1z"/>
			<path class="st7" d="M31.8,246.3c-0.2-0.1-0.4-0.4-0.6-0.7c-0.1-0.3-0.2-0.7-0.2-1.2c0-0.4,0.1-0.8,0.3-1.2s0.4-0.6,0.8-0.8
				c0.3-0.2,0.7-0.3,1.2-0.3c0.2,0,0.4,0,0.5,0.1V241l-0.7-0.1v-0.4l1.5-0.1h0l0.2,0.2v5.5h0.4v0.4c-0.4,0.1-0.7,0.1-0.9,0.1
				c-0.2,0-0.3,0-0.3-0.1c-0.1-0.1-0.1-0.2-0.1-0.3V246c-0.1,0.2-0.3,0.3-0.5,0.4c-0.2,0.1-0.5,0.2-0.7,0.2
				C32.3,246.6,32,246.5,31.8,246.3z M33.5,245.8c0.1-0.1,0.2-0.1,0.3-0.2v-2.7c0,0-0.1-0.1-0.2-0.1c-0.1,0-0.2-0.1-0.4-0.1
				c-0.3,0-0.6,0.1-0.8,0.4c-0.2,0.3-0.3,0.7-0.3,1.3c0,0.5,0.1,0.9,0.2,1.1c0.2,0.2,0.4,0.4,0.7,0.4
				C33.2,245.9,33.3,245.9,33.5,245.8z"/>
			<path class="st7" d="M38.8,246.4c-0.1-0.1-0.1-0.2-0.1-0.3v-0.2c-0.1,0.2-0.3,0.3-0.6,0.4s-0.5,0.2-0.7,0.2c-0.5,0-0.8-0.1-1-0.4
				S36,245.5,36,245v-2.1l-0.4-0.1v-0.4l1.3-0.1h0l0.2,0.1v2.6c0,0.4,0,0.6,0.1,0.8s0.3,0.2,0.5,0.2c0.3,0,0.6-0.1,0.8-0.3v-2.8
				l-0.5-0.1v-0.4l1.4-0.1h0l0.2,0.1v3.7H40l0,0.4c0,0-0.1,0-0.3,0.1c-0.2,0-0.4,0.1-0.6,0.1C39,246.5,38.9,246.5,38.8,246.4z"/>
			<path class="st7" d="M41.2,244.3c0.5-0.2,1-0.3,1.8-0.4v-0.2c0-0.2,0-0.4-0.1-0.5c0-0.1-0.1-0.2-0.2-0.3
				c-0.1-0.1-0.3-0.1-0.5-0.1c-0.2,0-0.5,0-0.7,0.1s-0.4,0.1-0.6,0.2l-0.2-0.5c0.1-0.1,0.2-0.1,0.4-0.2c0.2-0.1,0.4-0.2,0.6-0.2
				s0.5-0.1,0.8-0.1c0.4,0,0.7,0,0.9,0.1c0.2,0.1,0.4,0.3,0.5,0.5c0.1,0.2,0.1,0.5,0.1,0.9v2.3h0.4v0.4c-0.1,0-0.2,0-0.4,0.1
				s-0.3,0-0.5,0c-0.2,0-0.3,0-0.3-0.1c-0.1,0-0.1-0.2-0.1-0.3V246c-0.1,0.1-0.3,0.3-0.5,0.4c-0.2,0.1-0.5,0.2-0.7,0.2
				c-0.2,0-0.4,0-0.6-0.1c-0.2-0.1-0.3-0.2-0.5-0.4s-0.2-0.4-0.2-0.7C40.5,244.8,40.7,244.5,41.2,244.3z M42.6,245.8
				c0.1-0.1,0.3-0.1,0.4-0.2v-1.2c-0.4,0-0.8,0.1-1,0.2c-0.2,0.2-0.3,0.3-0.3,0.6c0,0.2,0.1,0.4,0.2,0.5c0.1,0.1,0.3,0.2,0.5,0.2
				C42.3,245.9,42.4,245.9,42.6,245.8z"/>
			<path class="st7" d="M45.2,243l-0.5-0.1v-0.5l1.2-0.2h0l0.2,0.1v0.3l0,0.2c0.2-0.2,0.4-0.3,0.7-0.4c0.3-0.1,0.6-0.2,0.8-0.2
				c0.3,0,0.5,0.1,0.7,0.2c0.2,0.1,0.3,0.3,0.4,0.5c0.1,0.2,0.1,0.6,0.1,1v2.1l0.5,0.1v0.5h-1.9V246l0.4-0.1v-2.1
				c0-0.3,0-0.5-0.1-0.6c0-0.1-0.1-0.3-0.2-0.3s-0.2-0.1-0.4-0.1c-0.3,0-0.6,0.1-0.9,0.4v2.7l0.5,0.1v0.5h-2V246l0.4-0.1V243z"/>
			<path class="st7" d="M50.5,244.3c0.5-0.2,1-0.3,1.8-0.4v-0.2c0-0.2,0-0.4-0.1-0.5c0-0.1-0.1-0.2-0.2-0.3
				c-0.1-0.1-0.3-0.1-0.5-0.1c-0.2,0-0.5,0-0.7,0.1c-0.2,0.1-0.4,0.1-0.6,0.2l-0.2-0.5c0.1-0.1,0.2-0.1,0.4-0.2
				c0.2-0.1,0.4-0.2,0.6-0.2s0.5-0.1,0.8-0.1c0.4,0,0.7,0,0.9,0.1s0.4,0.3,0.5,0.5c0.1,0.2,0.1,0.5,0.1,0.9v2.3h0.4v0.4
				c-0.1,0-0.2,0-0.4,0.1s-0.3,0-0.5,0c-0.2,0-0.3,0-0.3-0.1c-0.1,0-0.1-0.2-0.1-0.3V246c-0.1,0.1-0.3,0.3-0.5,0.4
				c-0.2,0.1-0.5,0.2-0.7,0.2c-0.2,0-0.4,0-0.6-0.1c-0.2-0.1-0.3-0.2-0.5-0.4c-0.1-0.2-0.2-0.4-0.2-0.7
				C49.8,244.8,50,244.5,50.5,244.3z M51.9,245.8c0.1-0.1,0.3-0.1,0.4-0.2v-1.2c-0.5,0-0.8,0.1-1,0.2c-0.2,0.2-0.3,0.3-0.3,0.6
				c0,0.2,0.1,0.4,0.2,0.5c0.1,0.1,0.3,0.2,0.5,0.2C51.7,245.9,51.8,245.9,51.9,245.8z"/>
			<path class="st7" d="M27.5,257.9h1.1l1.7,5.1l0.4,0.1v0.5h-2.2V263l0.6-0.1l-0.3-1h-1.9l-0.3,1l0.6,0.1v0.5h-1.9l0-0.5l0.4-0.1
				L27.5,257.9z M28,259.1l-0.1-0.6l-0.1,0.6l-0.7,2.3h1.6L28,259.1z"/>
			<path class="st7" d="M31.5,258l-0.6-0.1v-0.4l1.4-0.2h0l0.2,0.1v5.5l0.5,0.1v0.5H31V263l0.5-0.1V258z"/>
			<path class="st7" d="M33.6,263L34,263V260l-0.5-0.1v-0.5l1.2-0.2l0.1,0.1l0.1,0.2v0.3c0.2-0.2,0.4-0.3,0.7-0.4
				c0.3-0.1,0.6-0.2,0.8-0.2c0.3,0,0.5,0,0.7,0.1c0.2,0.1,0.3,0.2,0.4,0.4c0.2-0.2,0.4-0.3,0.7-0.4c0.3-0.1,0.5-0.2,0.8-0.2
				c0.4,0,0.8,0.1,0.9,0.4c0.2,0.3,0.3,0.7,0.3,1.3v2.1l0.5,0.1v0.5h-1.9V263l0.4-0.1v-2c0-0.4,0-0.7-0.1-0.8
				c-0.1-0.2-0.3-0.2-0.5-0.2c-0.1,0-0.3,0-0.4,0.1c-0.1,0.1-0.3,0.1-0.4,0.2c0,0.2,0.1,0.4,0.1,0.7v2.1l0.5,0.1v0.5h-2V263l0.4-0.1
				v-2.1c0-0.3,0-0.5,0-0.6c0-0.1-0.1-0.3-0.2-0.3c-0.1-0.1-0.2-0.1-0.4-0.1c-0.2,0-0.3,0-0.5,0.1c-0.2,0.1-0.3,0.2-0.4,0.3v2.7
				l0.4,0.1v0.5h-1.9V263z"/>
			<path class="st7" d="M41.8,261.3c0.5-0.2,1-0.3,1.8-0.4v-0.2c0-0.2,0-0.4-0.1-0.5c0-0.1-0.1-0.2-0.2-0.3
				c-0.1-0.1-0.3-0.1-0.5-0.1c-0.2,0-0.5,0-0.7,0.1s-0.4,0.1-0.6,0.2l-0.2-0.5c0.1-0.1,0.2-0.1,0.4-0.2c0.2-0.1,0.4-0.2,0.6-0.2
				c0.2-0.1,0.5-0.1,0.8-0.1c0.4,0,0.7,0,0.9,0.1c0.2,0.1,0.4,0.3,0.5,0.5c0.1,0.2,0.1,0.5,0.1,0.9v2.3H45v0.4c-0.1,0-0.2,0-0.4,0.1
				c-0.2,0-0.3,0-0.5,0c-0.2,0-0.3,0-0.3-0.1c-0.1,0-0.1-0.2-0.1-0.3V263c-0.1,0.1-0.3,0.3-0.5,0.4c-0.2,0.1-0.5,0.2-0.7,0.2
				c-0.2,0-0.4,0-0.6-0.1c-0.2-0.1-0.3-0.2-0.5-0.4s-0.2-0.4-0.2-0.7C41.1,261.8,41.4,261.5,41.8,261.3z M43.2,262.8
				c0.1-0.1,0.3-0.1,0.4-0.2v-1.2c-0.4,0-0.8,0.1-1,0.2c-0.2,0.2-0.3,0.3-0.3,0.6c0,0.2,0.1,0.4,0.2,0.5c0.1,0.1,0.3,0.2,0.5,0.2
				C43,262.9,43.1,262.9,43.2,262.8z"/>
			<path class="st7" d="M45.6,260.3c0.2-0.3,0.4-0.6,0.7-0.8s0.7-0.3,1.1-0.3c0.2,0,0.4,0,0.5,0c0.1,0,0.3,0.1,0.5,0.1l0.2,0.1
				l0,1.3H48l-0.2-0.8c0-0.1-0.2-0.2-0.4-0.2c-0.3,0-0.5,0.1-0.7,0.4c-0.2,0.2-0.2,0.6-0.2,1.1c0,0.5,0.1,1,0.3,1.3
				c0.2,0.3,0.4,0.4,0.8,0.4c0.4,0,0.7-0.1,1.1-0.3l0.2,0.4c-0.1,0.1-0.3,0.3-0.6,0.4c-0.3,0.1-0.6,0.2-0.9,0.2
				c-0.6,0-1.1-0.2-1.4-0.6s-0.5-0.9-0.5-1.6C45.4,261,45.4,260.6,45.6,260.3z"/>
			<path class="st7" d="M49.8,263c-0.3-0.4-0.5-0.9-0.5-1.6c0-0.5,0.1-0.8,0.3-1.2c0.2-0.3,0.4-0.6,0.7-0.8c0.3-0.2,0.7-0.3,1.1-0.3
				c0.5,0,0.9,0.1,1.2,0.4c0.3,0.3,0.4,0.6,0.4,1.1c0,0.3,0,0.6-0.1,0.7h-2.4c0,0.5,0.1,0.8,0.3,1.1s0.5,0.4,0.8,0.4
				c0.2,0,0.4,0,0.6-0.1c0.2-0.1,0.4-0.1,0.5-0.2l0.2,0.4c-0.1,0.1-0.4,0.3-0.7,0.4c-0.3,0.1-0.6,0.2-0.9,0.2
				C50.6,263.6,50.1,263.4,49.8,263z M51.8,261c0-0.1,0-0.2,0-0.3c0-0.7-0.2-1-0.7-1c-0.2,0-0.4,0.1-0.6,0.3c-0.1,0.2-0.2,0.5-0.2,1
				H51.8z"/>
			<path class="st7" d="M53.9,260l-0.5-0.1v-0.5l1.2-0.2h0l0.2,0.1v0.3l0,0.2c0.2-0.2,0.4-0.3,0.7-0.4c0.3-0.1,0.6-0.2,0.8-0.2
				c0.3,0,0.5,0.1,0.7,0.2c0.2,0.1,0.3,0.3,0.4,0.5c0.1,0.2,0.1,0.6,0.1,1v2.1L58,263v0.5h-1.9V263l0.4-0.1v-2.1
				c0-0.3,0-0.5-0.1-0.6c0-0.1-0.1-0.3-0.2-0.3s-0.2-0.1-0.4-0.1c-0.3,0-0.6,0.1-0.9,0.4v2.7l0.5,0.1v0.5h-2V263l0.4-0.1V260z"/>
			<path class="st7" d="M59.2,261.3c0.5-0.2,1-0.3,1.8-0.4v-0.2c0-0.2,0-0.4-0.1-0.5c0-0.1-0.1-0.2-0.2-0.3
				c-0.1-0.1-0.3-0.1-0.5-0.1c-0.2,0-0.5,0-0.7,0.1c-0.2,0.1-0.4,0.1-0.6,0.2l-0.2-0.5c0.1-0.1,0.2-0.1,0.4-0.2
				c0.2-0.1,0.4-0.2,0.6-0.2c0.2-0.1,0.5-0.1,0.8-0.1c0.4,0,0.7,0,0.9,0.1c0.2,0.1,0.4,0.3,0.5,0.5c0.1,0.2,0.1,0.5,0.1,0.9v2.3h0.4
				v0.4c-0.1,0-0.2,0-0.4,0.1c-0.2,0-0.3,0-0.5,0c-0.2,0-0.3,0-0.3-0.1c-0.1,0-0.1-0.2-0.1-0.3V263c-0.1,0.1-0.3,0.3-0.5,0.4
				c-0.2,0.1-0.5,0.2-0.7,0.2c-0.2,0-0.4,0-0.6-0.1c-0.2-0.1-0.3-0.2-0.5-0.4c-0.1-0.2-0.2-0.4-0.2-0.7
				C58.5,261.8,58.7,261.5,59.2,261.3z M60.6,262.8c0.1-0.1,0.3-0.1,0.4-0.2v-1.2c-0.5,0-0.8,0.1-1,0.2c-0.2,0.2-0.3,0.3-0.3,0.6
				c0,0.2,0.1,0.4,0.2,0.5s0.3,0.2,0.5,0.2C60.3,262.9,60.5,262.9,60.6,262.8z"/>
			<path class="st7" d="M62.8,259.4l1.4-0.2h0l0.2,0.1v4.1c0,0.4-0.1,0.7-0.2,1c-0.1,0.3-0.3,0.5-0.6,0.6c-0.2,0.1-0.4,0.2-0.7,0.2
				c-0.3,0-0.4,0-0.5,0l-0.1-0.4c0.1,0,0.3,0,0.4-0.1c0.2-0.1,0.3-0.3,0.4-0.5s0.1-0.6,0.1-1l0-3.2l-0.5-0.1V259.4z M63.3,258.5
				c-0.1-0.1-0.2-0.2-0.2-0.4c0-0.2,0.1-0.3,0.2-0.5c0.1-0.1,0.3-0.2,0.5-0.2c0.2,0,0.4,0.1,0.5,0.2s0.2,0.2,0.2,0.4
				c0,0.2-0.1,0.4-0.2,0.5c-0.1,0.1-0.3,0.2-0.5,0.2h0C63.5,258.6,63.4,258.6,63.3,258.5z"/>
			<path class="st7" d="M65.7,263c-0.3-0.4-0.5-0.9-0.5-1.6c0-0.5,0.1-0.8,0.3-1.2c0.2-0.3,0.4-0.6,0.7-0.8c0.3-0.2,0.7-0.3,1.1-0.3
				c0.5,0,0.9,0.1,1.2,0.4c0.3,0.3,0.4,0.6,0.4,1.1c0,0.3,0,0.6-0.1,0.7h-2.4c0,0.5,0.1,0.8,0.3,1.1s0.5,0.4,0.8,0.4
				c0.2,0,0.4,0,0.6-0.1c0.2-0.1,0.4-0.1,0.5-0.2l0.2,0.4c-0.1,0.1-0.4,0.3-0.7,0.4c-0.3,0.1-0.6,0.2-0.9,0.2
				C66.5,263.6,66,263.4,65.7,263z M67.8,261c0-0.1,0-0.2,0-0.3c0-0.7-0.2-1-0.7-1c-0.2,0-0.4,0.1-0.6,0.3c-0.1,0.2-0.2,0.5-0.2,1
				H67.8z"/>
			<path class="st7" d="M25.3,274.9h2.3v0.5l-0.6,0.1l1.1,3.4l0.2,0.8l0.2-0.8l1.1-3.4l-0.6-0.1v-0.5h1.8v0.5l-0.5,0.1l-1.7,5.1
				h-0.9l-1.9-5.1l-0.4-0.1V274.9z"/>
			<path class="st7" d="M31.2,277.2c0.2-0.3,0.4-0.6,0.8-0.7c0.3-0.2,0.7-0.3,1-0.3c0.6,0,1.1,0.2,1.5,0.6c0.3,0.4,0.5,0.9,0.5,1.6
				c0,0.5-0.1,0.9-0.3,1.2s-0.4,0.6-0.8,0.7c-0.3,0.2-0.7,0.2-1,0.2c-0.6,0-1.1-0.2-1.5-0.6c-0.3-0.4-0.5-0.9-0.5-1.6
				C30.9,277.9,31,277.5,31.2,277.2z M33.8,278.4c0-0.6-0.1-1-0.2-1.3c-0.1-0.3-0.4-0.4-0.7-0.4c-0.6,0-0.9,0.5-0.9,1.6
				c0,0.6,0.1,1,0.2,1.3s0.4,0.4,0.7,0.4C33.5,280.1,33.8,279.5,33.8,278.4z"/>
			<path class="st7" d="M36.1,275l-0.6-0.1v-0.4l1.4-0.2h0l0.2,0.1v5.5l0.5,0.1v0.5h-2.1V280l0.5-0.1V275z"/>
			<path class="st7" d="M37.8,276.3h2v0.4l-0.5,0.1l0.7,2l0.2,0.8l0.2-0.8l0.7-2.1l-0.5-0.1v-0.4h1.7v0.4l-0.4,0.1l-1.4,3.7h-0.9
				l-1.5-3.7l-0.3-0.1V276.3z"/>
			<path class="st7" d="M42.9,280c-0.3-0.4-0.5-0.9-0.5-1.6c0-0.5,0.1-0.8,0.3-1.2c0.2-0.3,0.4-0.6,0.7-0.8c0.3-0.2,0.7-0.3,1.1-0.3
				c0.5,0,0.9,0.1,1.2,0.4c0.3,0.3,0.4,0.6,0.4,1.1c0,0.3,0,0.6-0.1,0.7h-2.4c0,0.5,0.1,0.8,0.3,1.1c0.2,0.3,0.5,0.4,0.8,0.4
				c0.2,0,0.4,0,0.6-0.1s0.4-0.1,0.5-0.2L46,280c-0.1,0.1-0.4,0.3-0.7,0.4c-0.3,0.1-0.6,0.2-0.9,0.2C43.7,280.6,43.2,280.4,42.9,280
				z M45,278c0-0.1,0-0.2,0-0.3c0-0.7-0.2-1-0.7-1c-0.2,0-0.4,0.1-0.6,0.3s-0.2,0.5-0.2,1H45z"/>
			<path class="st7" d="M46.6,280l0.5-0.1v-3l-0.5-0.1v-0.5l1.2-0.2h0l0.2,0.1v0.2l0,0.6h0c0-0.1,0.1-0.2,0.2-0.4s0.3-0.3,0.5-0.4
				c0.2-0.1,0.4-0.2,0.6-0.2c0.1,0,0.2,0,0.3,0v1.1c-0.1-0.1-0.3-0.2-0.5-0.2c-0.4,0-0.7,0.1-1,0.3v2.5L49,280v0.4h-2.4V280z"/>
			<path class="st7" d="M52.5,278.3c0.5-0.2,1-0.3,1.8-0.4v-0.2c0-0.2,0-0.4-0.1-0.5c0-0.1-0.1-0.2-0.2-0.3
				c-0.1-0.1-0.3-0.1-0.5-0.1c-0.2,0-0.5,0-0.7,0.1s-0.4,0.1-0.6,0.2l-0.2-0.5c0.1-0.1,0.2-0.1,0.4-0.2c0.2-0.1,0.4-0.2,0.6-0.2
				c0.2-0.1,0.5-0.1,0.8-0.1c0.4,0,0.7,0,0.9,0.1c0.2,0.1,0.4,0.3,0.5,0.5c0.1,0.2,0.1,0.5,0.1,0.9v2.3h0.4v0.4
				c-0.1,0-0.2,0-0.4,0.1s-0.3,0-0.5,0c-0.2,0-0.3,0-0.3-0.1c-0.1,0-0.1-0.2-0.1-0.3V280c-0.1,0.1-0.3,0.3-0.5,0.4
				c-0.2,0.1-0.5,0.2-0.7,0.2c-0.2,0-0.4,0-0.6-0.1c-0.2-0.1-0.3-0.2-0.5-0.4s-0.2-0.4-0.2-0.7C51.8,278.8,52.1,278.5,52.5,278.3z
				 M54,279.8c0.1-0.1,0.3-0.1,0.4-0.2v-1.2c-0.4,0-0.8,0.1-1,0.2c-0.2,0.2-0.3,0.3-0.3,0.6c0,0.2,0.1,0.4,0.2,0.5
				c0.1,0.1,0.3,0.2,0.5,0.2C53.7,279.9,53.8,279.9,54,279.8z"/>
			<path class="st7" d="M56.6,275l-0.6-0.1v-0.4l1.4-0.2h0l0.2,0.1v5.5l0.5,0.1v0.5h-2.1V280l0.5-0.1V275z"/>
			<path class="st7" d="M60,274.9h2.3v0.5l-0.7,0.1l0.9,3.4l0.2,0.8l0.2-0.8l0.8-2.7l-0.2-0.6l-0.5-0.1v-0.5h2.3v0.5l-0.7,0.1
				l0.9,3.4l0.2,0.9l0.2-0.9l0.9-3.4l-0.7-0.1v-0.5h1.8v0.5l-0.5,0.1l-1.4,5h-1l-1-3.5l-1,3.5h-1l-1.5-5l-0.5-0.1V274.9z"/>
			<path class="st7" d="M68.5,280c-0.3-0.4-0.5-0.9-0.5-1.6c0-0.5,0.1-0.8,0.3-1.2c0.2-0.3,0.4-0.6,0.7-0.8c0.3-0.2,0.7-0.3,1.1-0.3
				c0.5,0,0.9,0.1,1.2,0.4c0.3,0.3,0.4,0.6,0.4,1.1c0,0.3,0,0.6-0.1,0.7h-2.4c0,0.5,0.1,0.8,0.3,1.1s0.5,0.4,0.8,0.4
				c0.2,0,0.4,0,0.6-0.1c0.2-0.1,0.4-0.1,0.5-0.2l0.2,0.4c-0.1,0.1-0.4,0.3-0.7,0.4c-0.3,0.1-0.6,0.2-0.9,0.2
				C69.4,280.6,68.9,280.4,68.5,280z M70.6,278c0-0.1,0-0.2,0-0.3c0-0.7-0.2-1-0.7-1c-0.2,0-0.4,0.1-0.6,0.3c-0.1,0.2-0.2,0.5-0.2,1
				H70.6z"/>
			<path class="st7" d="M71.9,274.5l1.4-0.2h0l0.2,0.1v2.2c0.1-0.1,0.3-0.2,0.5-0.3c0.2-0.1,0.4-0.1,0.6-0.1c0.5,0,0.9,0.2,1.2,0.5
				c0.3,0.3,0.5,0.9,0.5,1.5c0,0.4-0.1,0.8-0.3,1.2c-0.2,0.3-0.4,0.6-0.8,0.8c-0.3,0.2-0.7,0.3-1.2,0.3c-0.4,0-0.7,0-1-0.1
				c-0.3-0.1-0.5-0.1-0.6-0.2V275l-0.6-0.1V274.5z M73.8,277c-0.1,0.1-0.2,0.1-0.3,0.2v2.7c0,0.1,0.1,0.1,0.2,0.1
				c0.1,0,0.2,0.1,0.4,0.1c0.3,0,0.6-0.1,0.8-0.4s0.3-0.7,0.3-1.3c0-0.5-0.1-0.9-0.2-1.1c-0.2-0.2-0.4-0.4-0.7-0.4
				C74.1,276.9,74,276.9,73.8,277z"/>
			<path class="st7" d="M79.8,280.5c-0.2,0-0.5-0.1-0.7-0.2c-0.2,0-0.3-0.1-0.4-0.1l0.1-1.4h0.6l0.2,1c0.1,0.1,0.2,0.1,0.3,0.2
				c0.2,0.1,0.4,0.1,0.6,0.1c0.3,0,0.6-0.1,0.8-0.2s0.3-0.4,0.3-0.6c0-0.2,0-0.3-0.1-0.5c-0.1-0.1-0.2-0.2-0.4-0.3s-0.4-0.2-0.7-0.4
				c-0.4-0.2-0.8-0.4-1-0.7s-0.4-0.6-0.4-1.1c0-0.3,0.1-0.5,0.2-0.8s0.4-0.4,0.6-0.5c0.3-0.1,0.6-0.2,1.1-0.2c0.2,0,0.5,0,0.6,0.1
				s0.4,0.1,0.6,0.1c0.1,0,0.2,0.1,0.3,0.1l0,1.3h-0.6l-0.2-0.9c0,0-0.1-0.1-0.3-0.1c-0.1,0-0.3-0.1-0.5-0.1c-0.3,0-0.5,0.1-0.7,0.2
				c-0.2,0.1-0.2,0.3-0.2,0.6c0,0.2,0.1,0.3,0.2,0.5c0.1,0.1,0.2,0.2,0.4,0.3c0.2,0.1,0.4,0.2,0.8,0.4c0.3,0.1,0.5,0.3,0.7,0.4
				s0.4,0.3,0.5,0.5s0.2,0.5,0.2,0.7c0,0.3-0.1,0.5-0.2,0.8c-0.1,0.3-0.4,0.5-0.7,0.6s-0.7,0.2-1.2,0.2
				C80.3,280.6,80,280.5,79.8,280.5z"/>
			<path class="st7" d="M83.7,277l-0.5-0.1v-0.5l1.4-0.2h0l0.2,0.1v3.6l0.5,0.1v0.5h-2.1V280l0.5-0.1V277z M83.7,275.5
				c-0.1-0.1-0.2-0.2-0.2-0.4c0-0.2,0.1-0.3,0.2-0.5c0.1-0.1,0.3-0.2,0.5-0.2s0.4,0.1,0.5,0.2c0.1,0.1,0.2,0.2,0.2,0.4
				c0,0.2-0.1,0.4-0.2,0.5c-0.1,0.1-0.3,0.2-0.5,0.2h0C83.9,275.6,83.8,275.6,83.7,275.5z"/>
			<path class="st7" d="M86.4,280.3c-0.1-0.1-0.2-0.4-0.2-0.7v-2.8h-0.5v-0.4c0,0,0.1,0,0.2-0.1c0.1,0,0.2-0.1,0.2-0.1
				c0.1-0.1,0.2-0.2,0.2-0.3c0-0.1,0.1-0.4,0.2-0.8h0.6l0,1.1h1.1v0.6h-1.1v2.1c0,0.3,0,0.5,0,0.6c0,0.1,0,0.2,0.1,0.2
				c0,0,0.1,0,0.3,0s0.3,0,0.4,0c0.1,0,0.2-0.1,0.3-0.1l0.1,0.4c-0.1,0.1-0.3,0.2-0.6,0.3s-0.5,0.1-0.8,0.1
				C86.7,280.5,86.5,280.5,86.4,280.3z"/>
			<path class="st7" d="M89.3,280c-0.3-0.4-0.5-0.9-0.5-1.6c0-0.5,0.1-0.8,0.3-1.2s0.4-0.6,0.7-0.8c0.3-0.2,0.7-0.3,1.1-0.3
				c0.5,0,0.9,0.1,1.2,0.4c0.3,0.3,0.4,0.6,0.4,1.1c0,0.3,0,0.6-0.1,0.7h-2.4c0,0.5,0.1,0.8,0.3,1.1c0.2,0.3,0.5,0.4,0.8,0.4
				c0.2,0,0.4,0,0.6-0.1s0.4-0.1,0.5-0.2l0.2,0.4c-0.1,0.1-0.4,0.3-0.7,0.4c-0.3,0.1-0.6,0.2-0.9,0.2
				C90.1,280.6,89.6,280.4,89.3,280z M91.3,278c0-0.1,0-0.2,0-0.3c0-0.7-0.2-1-0.7-1c-0.2,0-0.4,0.1-0.6,0.3c-0.1,0.2-0.2,0.5-0.2,1
				H91.3z"/>
		</g>
		<g>
			<path class="st9" d="M30.7,314.6l-2.7,0.1l-0.7,4.1h-1.6l0.3-5.5h12.3l0.2,5.5h-1.5l-0.7-4.1l-2.7-0.1v11.5l2.7,0.2v1.1h-7.9
				v-1.1l2.4-0.2V314.6z"/>
			<path class="st9" d="M39.7,326.4l1.3-0.2v-7.5l-1.2-0.3v-1.3l2.9-0.4h0.1l0.5,0.4v0.4l-0.1,1.5h0.1c0.1-0.3,0.3-0.6,0.6-0.9
				c0.3-0.4,0.7-0.7,1.2-1c0.5-0.3,1-0.4,1.6-0.4c0.3,0,0.5,0,0.7,0.1v2.8c-0.4-0.3-0.8-0.4-1.4-0.4c-0.9,0-1.7,0.2-2.4,0.7v6.2
				l2.2,0.2v1.1h-6.1V326.4z"/>
			<path class="st9" d="M50.2,321.9c1.2-0.6,2.7-0.9,4.5-0.9v-0.4c0-0.5-0.1-0.9-0.2-1.2s-0.3-0.5-0.6-0.7c-0.3-0.1-0.7-0.2-1.2-0.2
				c-0.6,0-1.2,0.1-1.7,0.2c-0.5,0.2-1,0.4-1.5,0.6l-0.6-1.2c0.2-0.2,0.5-0.4,1-0.6c0.4-0.2,1-0.4,1.6-0.6c0.6-0.2,1.3-0.3,1.9-0.3
				c1,0,1.7,0.1,2.3,0.4c0.6,0.3,0.9,0.7,1.2,1.2c0.2,0.6,0.4,1.3,0.4,2.2v5.8h1v1.1c-0.3,0.1-0.6,0.1-1.1,0.2s-0.9,0.1-1.2,0.1
				c-0.4,0-0.7-0.1-0.9-0.2c-0.1-0.1-0.2-0.4-0.2-0.8v-0.5c-0.3,0.4-0.8,0.7-1.3,1c-0.5,0.3-1.2,0.5-1.8,0.5c-0.6,0-1.1-0.1-1.6-0.4
				c-0.5-0.2-0.9-0.6-1.2-1.1c-0.3-0.5-0.4-1-0.4-1.7C48.4,323.4,49,322.5,50.2,321.9z M53.8,325.9c0.3-0.2,0.6-0.4,0.9-0.6v-3.1
				c-1.1,0-2,0.2-2.6,0.6c-0.6,0.4-0.8,0.9-0.8,1.5s0.1,1.1,0.4,1.4c0.3,0.3,0.7,0.5,1.2,0.5C53.1,326.1,53.4,326,53.8,325.9z"/>
			<path class="st9" d="M60.5,318.7l-1.2-0.3v-1.3l3.2-0.4h0.1l0.5,0.4v0.7l0,0.5c0.4-0.4,1-0.8,1.7-1.1c0.7-0.3,1.4-0.5,2.1-0.5
				c0.8,0,1.4,0.1,1.8,0.4c0.4,0.3,0.8,0.7,0.9,1.3s0.3,1.4,0.3,2.5v5.2l1.2,0.2v1.1h-4.9v-1.1l1-0.2v-5.2c0-0.7,0-1.2-0.1-1.5
				c-0.1-0.4-0.3-0.6-0.5-0.8s-0.6-0.3-1-0.3c-0.7,0-1.5,0.3-2.3,0.9v6.9l1.1,0.2v1.1h-5v-1.1l1.1-0.2V318.7z"/>
			<path class="st9" d="M74.5,325.9c0.1,0.2,0.3,0.3,0.7,0.4c0.4,0.1,0.7,0.2,1.1,0.2c0.6,0,1-0.1,1.3-0.4c0.3-0.2,0.4-0.6,0.4-1
				c0-0.4-0.2-0.8-0.6-1s-1-0.6-1.9-1l-0.5-0.2c-0.9-0.4-1.5-0.8-2-1.3c-0.4-0.5-0.6-1.2-0.6-2c0-0.6,0.2-1.1,0.5-1.5
				s0.8-0.8,1.4-1.1c0.6-0.3,1.3-0.4,2.1-0.4c0.6,0,1.1,0,1.5,0.1c0.4,0.1,0.9,0.2,1.3,0.3c0.3,0.1,0.4,0.1,0.6,0.2v2.5h-1.5
				l-0.4-1.4c-0.1-0.1-0.2-0.2-0.5-0.3c-0.3-0.1-0.6-0.2-0.9-0.2c-0.5,0-0.9,0.1-1.2,0.3s-0.5,0.5-0.5,0.9c0,0.4,0.1,0.6,0.3,0.9
				c0.2,0.2,0.5,0.4,0.7,0.5c0.3,0.1,0.7,0.3,1.4,0.6c0.7,0.3,1.3,0.6,1.7,0.8c0.4,0.3,0.8,0.6,1.1,1c0.3,0.4,0.4,0.9,0.4,1.5
				c0,0.9-0.4,1.7-1.1,2.3c-0.7,0.6-1.8,0.9-3.2,0.9c-0.6,0-1.2-0.1-1.7-0.2c-0.5-0.1-1.1-0.3-1.8-0.5l-0.4-0.1v-2.5H74L74.5,325.9z
				"/>
			<path class="st9" d="M92.1,324.8c-0.4,0.9-1.1,1.6-1.9,2.1c-0.8,0.5-1.8,0.8-3,0.8c-0.3,0-0.5,0-0.8-0.1c-0.3,0-0.5-0.1-0.7-0.2
				l0.1,1.6v1.7l1.8,0.2v1.1h-5.6V331l1.2-0.2v-12l-1.2-0.3v-1.3l3.1-0.4h0l0.5,0.4v1.1c0.3-0.4,0.7-0.7,1.3-1
				c0.5-0.3,1.1-0.4,1.8-0.4c1.2,0,2.2,0.4,3,1.3s1.2,2.2,1.2,3.9C92.7,322.9,92.5,323.9,92.1,324.8z M86.5,318.5
				c-0.3,0.2-0.6,0.3-0.8,0.6v7c0.1,0.1,0.3,0.2,0.5,0.3c0.3,0.1,0.6,0.1,0.9,0.1c0.8,0,1.5-0.4,2-1.1c0.5-0.7,0.7-1.8,0.7-3.4
				c0-1.3-0.2-2.3-0.6-2.9s-1-1-1.7-1C87.2,318.2,86.9,318.3,86.5,318.5z"/>
			<path class="st9" d="M95,319.2c0.5-0.8,1.1-1.5,1.9-1.9s1.7-0.6,2.6-0.6c1.6,0,2.8,0.5,3.7,1.5c0.9,1,1.3,2.3,1.3,4
				c0,1.2-0.2,2.2-0.7,3.1c-0.5,0.8-1.1,1.5-1.9,1.9c-0.8,0.4-1.7,0.6-2.6,0.6c-1.6,0-2.8-0.5-3.7-1.5c-0.9-1-1.3-2.3-1.3-4
				C94.3,321,94.5,320,95,319.2z M101.6,322.3c0-1.4-0.2-2.5-0.5-3.3c-0.3-0.8-0.9-1.1-1.7-1.1c-1.5,0-2.2,1.4-2.2,4.1
				c0,1.4,0.2,2.5,0.5,3.3c0.4,0.8,0.9,1.1,1.7,1.1C100.9,326.4,101.6,325.1,101.6,322.3z"/>
			<path class="st9" d="M106.2,326.4l1.3-0.2v-7.5l-1.2-0.3v-1.3l2.9-0.4h0.1l0.5,0.4v0.4l-0.1,1.5h0.1c0.1-0.3,0.3-0.6,0.6-0.9
				c0.3-0.4,0.7-0.7,1.2-1c0.5-0.3,1-0.4,1.6-0.4c0.3,0,0.5,0,0.7,0.1v2.8c-0.4-0.3-0.8-0.4-1.4-0.4c-0.9,0-1.7,0.2-2.4,0.7v6.2
				l2.2,0.2v1.1h-6.1V326.4z"/>
			<path class="st9" d="M116.6,327.1c-0.4-0.4-0.6-1-0.6-1.7v-7h-1.2v-1c0.1,0,0.3-0.1,0.6-0.2c0.3-0.1,0.5-0.2,0.6-0.2
				c0.2-0.2,0.4-0.4,0.6-0.9c0.1-0.3,0.3-0.9,0.6-2h1.5l0.1,2.8h2.9v1.5h-2.9v5.3c0,0.7,0,1.2,0.1,1.5c0,0.3,0.1,0.5,0.2,0.6
				c0.1,0.1,0.3,0.1,0.7,0.1s0.6,0,1-0.1c0.3-0.1,0.6-0.2,0.9-0.3l0.4,1.1c-0.4,0.3-0.9,0.5-1.6,0.7s-1.3,0.3-2,0.3
				C117.6,327.6,117,327.5,116.6,327.1z"/>
			<path class="st9" d="M124,326.2c-0.8-1-1.2-2.3-1.2-4c0-1.1,0.2-2.1,0.6-3s1-1.5,1.8-1.9c0.8-0.4,1.7-0.7,2.7-0.7
				c1.3,0,2.2,0.3,2.9,1c0.7,0.7,1,1.6,1.1,2.8c0,0.8-0.1,1.5-0.2,1.9h-6.2c0.1,1.2,0.3,2,0.8,2.7s1.2,1,2.1,1c0.5,0,1-0.1,1.5-0.2
				s0.9-0.4,1.2-0.6l0.5,1c-0.3,0.4-0.9,0.7-1.7,1c-0.8,0.3-1.5,0.5-2.3,0.5C126,327.7,124.8,327.2,124,326.2z M129.2,321.2
				c0-0.4,0-0.6,0-0.8c0-1.7-0.6-2.5-1.7-2.5c-0.6,0-1.1,0.2-1.4,0.7s-0.5,1.4-0.6,2.6H129.2z"/>
			<path class="st9" d="M142.2,313.3h2.9l4.4,12.9l1.1,0.2v1.1H145v-1.1l1.4-0.2l-0.7-2.5h-4.9l-0.7,2.5l1.5,0.2v1.1h-4.8l0-1.1
				l1.1-0.2L142.2,313.3z M143.5,316.5l-0.3-1.5l-0.4,1.5l-1.7,5.8h4.2L143.5,316.5z"/>
			<path class="st9" d="M152.3,326.2c-0.8-1-1.2-2.3-1.2-4c0-1.1,0.2-2.1,0.6-3c0.4-0.8,1-1.5,1.8-1.9c0.8-0.4,1.7-0.7,2.7-0.7
				c1.3,0,2.2,0.3,2.9,1c0.7,0.7,1,1.6,1.1,2.8c0,0.8-0.1,1.5-0.2,1.9h-6.2c0,1.2,0.3,2,0.8,2.7s1.2,1,2.1,1c0.5,0,1-0.1,1.5-0.2
				s0.9-0.4,1.2-0.6l0.5,1c-0.3,0.4-0.9,0.7-1.7,1c-0.8,0.3-1.5,0.5-2.3,0.5C154.3,327.7,153.1,327.2,152.3,326.2z M157.5,321.2
				c0-0.4,0-0.6,0-0.8c0-1.7-0.6-2.5-1.7-2.5c-0.6,0-1.1,0.2-1.4,0.7c-0.3,0.5-0.5,1.4-0.6,2.6H157.5z M154.2,314.4l3.2-4l1.7,1.5
				c-0.3,0.5-0.9,1.1-1.8,1.9c-0.9,0.7-1.6,1.2-2.1,1.4L154.2,314.4z"/>
			<path class="st9" d="M161.7,326.4l1.3-0.2v-7.5l-1.2-0.3v-1.3l2.9-0.4h0.1l0.5,0.4v0.4l-0.1,1.5h0.1c0.1-0.3,0.3-0.6,0.6-0.9
				c0.3-0.4,0.7-0.7,1.2-1c0.5-0.3,1-0.4,1.6-0.4c0.3,0,0.5,0,0.7,0.1v2.8c-0.4-0.3-0.8-0.4-1.4-0.4c-0.9,0-1.7,0.2-2.4,0.7v6.2
				l2.2,0.2v1.1h-6.1V326.4z"/>
			<path class="st9" d="M171.7,326.2c-0.8-1-1.2-2.3-1.2-4c0-1.1,0.2-2.1,0.6-3s1-1.5,1.8-1.9c0.8-0.4,1.7-0.7,2.7-0.7
				c1.3,0,2.2,0.3,2.9,1c0.7,0.7,1,1.6,1.1,2.8c0,0.8-0.1,1.5-0.2,1.9h-6.2c0.1,1.2,0.3,2,0.8,2.7s1.2,1,2.1,1c0.5,0,1-0.1,1.5-0.2
				s0.9-0.4,1.2-0.6l0.5,1c-0.3,0.4-0.9,0.7-1.7,1c-0.8,0.3-1.5,0.5-2.3,0.5C173.7,327.7,172.5,327.2,171.7,326.2z M176.9,321.2
				c0-0.4,0-0.6,0-0.8c0-1.7-0.6-2.5-1.7-2.5c-0.6,0-1.1,0.2-1.4,0.7s-0.5,1.4-0.6,2.6H176.9z"/>
			<path class="st9" d="M181.8,319.2c0.5-0.8,1.1-1.5,1.9-1.9s1.7-0.6,2.6-0.6c1.6,0,2.8,0.5,3.7,1.5c0.9,1,1.3,2.3,1.3,4
				c0,1.2-0.2,2.2-0.7,3.1c-0.5,0.8-1.1,1.5-1.9,1.9c-0.8,0.4-1.7,0.6-2.6,0.6c-1.6,0-2.8-0.5-3.7-1.5c-0.9-1-1.3-2.3-1.3-4
				C181.1,321,181.3,320,181.8,319.2z M188.4,322.3c0-1.4-0.2-2.5-0.5-3.3c-0.3-0.8-0.9-1.1-1.7-1.1c-1.5,0-2.2,1.4-2.2,4.1
				c0,1.4,0.2,2.5,0.5,3.3c0.4,0.8,0.9,1.1,1.7,1.1C187.6,326.4,188.4,325.1,188.4,322.3z"/>
		</g>
		<g>
			<path class="st7" d="M26.2,341.5l-0.6-0.1v-0.5h1.1c0.2,0,0.4,0,0.7,0c0.1,0,0.2,0,0.3,0c0.1,0,0.3,0,0.4,0
				c0.9,0,1.6,0.2,2.1,0.7s0.7,1.1,0.7,2c0,0.6-0.1,1.1-0.3,1.6c-0.2,0.5-0.6,0.8-1,1.1s-0.9,0.4-1.5,0.4c-0.1,0-0.4,0-0.7,0
				c-0.3,0-0.5,0-0.6,0h-1.1V346l0.6-0.1V341.5z M28,346c0.5,0,0.9-0.2,1.2-0.6c0.3-0.4,0.4-1,0.4-1.8c0-0.7-0.1-1.3-0.4-1.7
				s-0.7-0.6-1.3-0.6c-0.1,0-0.2,0-0.4,0c-0.1,0-0.2,0-0.2,0v4.6C27.5,346,27.7,346,28,346z"/>
			<path class="st7" d="M32,344.3c0.5-0.2,1-0.3,1.8-0.4v-0.2c0-0.2,0-0.4-0.1-0.5c0-0.1-0.1-0.2-0.2-0.3c-0.1-0.1-0.3-0.1-0.5-0.1
				c-0.2,0-0.5,0-0.7,0.1s-0.4,0.1-0.6,0.2l-0.2-0.5c0.1-0.1,0.2-0.1,0.4-0.2c0.2-0.1,0.4-0.2,0.6-0.2s0.5-0.1,0.8-0.1
				c0.4,0,0.7,0,0.9,0.1c0.2,0.1,0.4,0.3,0.5,0.5c0.1,0.2,0.1,0.5,0.1,0.9v2.3h0.4v0.4c-0.1,0-0.2,0-0.4,0.1s-0.3,0-0.5,0
				c-0.2,0-0.3,0-0.3-0.1c-0.1,0-0.1-0.2-0.1-0.3V346c-0.1,0.1-0.3,0.3-0.5,0.4c-0.2,0.1-0.5,0.2-0.7,0.2c-0.2,0-0.4,0-0.6-0.1
				c-0.2-0.1-0.3-0.2-0.5-0.4s-0.2-0.4-0.2-0.7C31.3,344.8,31.5,344.5,32,344.3z M33.4,345.8c0.1-0.1,0.3-0.1,0.4-0.2v-1.2
				c-0.4,0-0.8,0.1-1,0.2c-0.2,0.2-0.3,0.3-0.3,0.6c0,0.2,0.1,0.4,0.2,0.5c0.1,0.1,0.3,0.2,0.5,0.2
				C33.1,345.9,33.3,345.9,33.4,345.8z"/>
			<path class="st7" d="M36.2,346.3c-0.1-0.1-0.2-0.4-0.2-0.7v-2.8h-0.5v-0.4c0,0,0.1,0,0.2-0.1c0.1,0,0.2-0.1,0.2-0.1
				c0.1-0.1,0.2-0.2,0.2-0.3c0-0.1,0.1-0.4,0.2-0.8H37l0,1.1h1.1v0.6H37v2.1c0,0.3,0,0.5,0,0.6c0,0.1,0,0.2,0.1,0.2c0,0,0.1,0,0.3,0
				s0.3,0,0.4,0c0.1,0,0.2-0.1,0.3-0.1l0.1,0.4c-0.1,0.1-0.3,0.2-0.6,0.3c-0.3,0.1-0.5,0.1-0.8,0.1
				C36.6,346.5,36.3,346.5,36.2,346.3z"/>
			<path class="st7" d="M39,343.2c0.2-0.3,0.4-0.6,0.8-0.7c0.3-0.2,0.7-0.3,1-0.3c0.6,0,1.1,0.2,1.5,0.6c0.3,0.4,0.5,0.9,0.5,1.6
				c0,0.5-0.1,0.9-0.3,1.2s-0.4,0.6-0.8,0.7c-0.3,0.2-0.7,0.2-1,0.2c-0.6,0-1.1-0.2-1.5-0.6c-0.3-0.4-0.5-0.9-0.5-1.6
				C38.7,343.9,38.8,343.5,39,343.2z M41.6,344.4c0-0.6-0.1-1-0.2-1.3s-0.4-0.4-0.7-0.4c-0.6,0-0.9,0.5-0.9,1.6c0,0.6,0.1,1,0.2,1.3
				s0.4,0.4,0.7,0.4C41.3,346.1,41.6,345.5,41.6,344.4z"/>
			<path class="st7" d="M44.2,345.9c0,0.1,0.1,0.1,0.3,0.2c0.1,0.1,0.3,0.1,0.4,0.1c0.2,0,0.4,0,0.5-0.1c0.1-0.1,0.2-0.2,0.2-0.4
				c0-0.2-0.1-0.3-0.2-0.4c-0.1-0.1-0.4-0.2-0.7-0.4l-0.2-0.1c-0.3-0.1-0.6-0.3-0.8-0.5s-0.3-0.5-0.3-0.8c0-0.2,0.1-0.4,0.2-0.6
				c0.1-0.2,0.3-0.3,0.6-0.4c0.2-0.1,0.5-0.1,0.8-0.1c0.2,0,0.4,0,0.6,0c0.2,0,0.3,0.1,0.5,0.1c0.1,0,0.2,0.1,0.2,0.1v1h-0.6
				l-0.2-0.6c0,0-0.1-0.1-0.2-0.1s-0.2-0.1-0.4-0.1c-0.2,0-0.4,0-0.5,0.1c-0.1,0.1-0.2,0.2-0.2,0.4c0,0.1,0,0.3,0.1,0.3
				c0.1,0.1,0.2,0.2,0.3,0.2c0.1,0,0.3,0.1,0.6,0.2c0.3,0.1,0.5,0.2,0.7,0.3s0.3,0.2,0.4,0.4c0.1,0.2,0.2,0.4,0.2,0.6
				c0,0.4-0.1,0.7-0.4,0.9c-0.3,0.2-0.7,0.3-1.3,0.3c-0.3,0-0.5,0-0.7-0.1c-0.2,0-0.4-0.1-0.7-0.2l-0.2-0.1v-1H44L44.2,345.9z"/>
			<path class="st7" d="M49.8,346.3c-0.2-0.1-0.4-0.4-0.6-0.7c-0.1-0.3-0.2-0.7-0.2-1.2c0-0.4,0.1-0.8,0.3-1.2s0.4-0.6,0.8-0.8
				c0.3-0.2,0.7-0.3,1.2-0.3c0.2,0,0.4,0,0.5,0.1V341l-0.7-0.1v-0.4l1.5-0.1h0l0.2,0.2v5.5h0.4v0.4c-0.4,0.1-0.7,0.1-0.9,0.1
				c-0.2,0-0.3,0-0.3-0.1c-0.1-0.1-0.1-0.2-0.1-0.3V346c-0.1,0.2-0.3,0.3-0.5,0.4c-0.2,0.1-0.5,0.2-0.7,0.2
				C50.3,346.6,50,346.5,49.8,346.3z M51.5,345.8c0.1-0.1,0.2-0.1,0.3-0.2v-2.7c0,0-0.1-0.1-0.2-0.1c-0.1,0-0.2-0.1-0.4-0.1
				c-0.3,0-0.6,0.1-0.8,0.4c-0.2,0.3-0.3,0.7-0.3,1.3c0,0.5,0.1,0.9,0.2,1.1c0.2,0.2,0.4,0.4,0.7,0.4
				C51.2,345.9,51.3,345.9,51.5,345.8z"/>
			<path class="st7" d="M54.2,346c-0.3-0.4-0.5-0.9-0.5-1.6c0-0.5,0.1-0.8,0.3-1.2c0.2-0.3,0.4-0.6,0.7-0.8c0.3-0.2,0.7-0.3,1.1-0.3
				c0.5,0,0.9,0.1,1.2,0.4c0.3,0.3,0.4,0.6,0.4,1.1c0,0.3,0,0.6-0.1,0.7h-2.4c0,0.5,0.1,0.8,0.3,1.1s0.5,0.4,0.8,0.4
				c0.2,0,0.4,0,0.6-0.1c0.2-0.1,0.4-0.1,0.5-0.2l0.2,0.4c-0.1,0.1-0.4,0.3-0.7,0.4c-0.3,0.1-0.6,0.2-0.9,0.2
				C55,346.6,54.5,346.4,54.2,346z M56.2,344c0-0.1,0-0.2,0-0.3c0-0.7-0.2-1-0.7-1c-0.2,0-0.4,0.1-0.6,0.3c-0.1,0.2-0.2,0.5-0.2,1
				H56.2z"/>
			<path class="st7" d="M58.3,341l-0.6-0.1v-0.4l1.4-0.2h0l0.2,0.1v5.5l0.5,0.1v0.5h-2.1V346l0.5-0.1V341z"/>
			<path class="st7" d="M62.8,345.8c-0.5-0.5-0.7-1.2-0.7-2.1c0-0.6,0.1-1.1,0.4-1.5c0.2-0.4,0.6-0.8,1-1c0.4-0.2,0.9-0.4,1.4-0.4
				c0.2,0,0.4,0,0.6,0c0.2,0,0.4,0.1,0.7,0.1c0.2,0,0.3,0.1,0.3,0.1l-0.1,1.5h-0.7l-0.2-1.1c-0.1-0.1-0.2-0.1-0.3-0.1
				c-0.1,0-0.3-0.1-0.5-0.1c-0.4,0-0.8,0.2-1,0.6c-0.3,0.4-0.4,1-0.4,1.7c0,0.7,0.1,1.3,0.4,1.8c0.2,0.5,0.6,0.7,1.1,0.7
				c0.2,0,0.4,0,0.5-0.1s0.2-0.1,0.3-0.2l0.3-0.8l0.6,0.1l-0.2,1.2c-0.1,0-0.2,0-0.3,0.1c-0.1,0-0.2,0-0.2,0
				c-0.2,0.1-0.4,0.1-0.6,0.1c-0.2,0-0.4,0-0.6,0C63.9,346.6,63.2,346.3,62.8,345.8z"/>
			<path class="st7" d="M67.6,341l-0.6-0.1v-0.4l1.4-0.2h0l0.2,0.1v5.5l0.5,0.1v0.5h-2.1V346l0.5-0.1V341z"/>
			<path class="st7" d="M70.2,343l-0.5-0.1v-0.5l1.4-0.2h0l0.2,0.1v3.6l0.5,0.1v0.5h-2.1V346l0.5-0.1V343z M70.2,341.5
				c-0.1-0.1-0.2-0.2-0.2-0.4c0-0.2,0.1-0.3,0.2-0.5c0.1-0.1,0.3-0.2,0.5-0.2s0.4,0.1,0.5,0.2c0.1,0.1,0.2,0.2,0.2,0.4
				c0,0.2-0.1,0.4-0.2,0.5c-0.1,0.1-0.3,0.2-0.5,0.2h0C70.4,341.6,70.3,341.6,70.2,341.5z"/>
			<path class="st7" d="M72.7,346c-0.3-0.4-0.5-0.9-0.5-1.6c0-0.5,0.1-0.8,0.3-1.2c0.2-0.3,0.4-0.6,0.7-0.8c0.3-0.2,0.7-0.3,1.1-0.3
				c0.5,0,0.9,0.1,1.2,0.4c0.3,0.3,0.4,0.6,0.4,1.1c0,0.3,0,0.6-0.1,0.7h-2.4c0,0.5,0.1,0.8,0.3,1.1c0.2,0.3,0.5,0.4,0.8,0.4
				c0.2,0,0.4,0,0.6-0.1s0.4-0.1,0.5-0.2l0.2,0.4c-0.1,0.1-0.4,0.3-0.7,0.4c-0.3,0.1-0.6,0.2-0.9,0.2C73.5,346.6,73,346.4,72.7,346z
				 M74.8,344c0-0.1,0-0.2,0-0.3c0-0.7-0.2-1-0.7-1c-0.2,0-0.4,0.1-0.6,0.3s-0.2,0.5-0.2,1H74.8z"/>
			<path class="st7" d="M76.8,343l-0.5-0.1v-0.5l1.2-0.2h0l0.2,0.1v0.3l0,0.2c0.2-0.2,0.4-0.3,0.7-0.4c0.3-0.1,0.6-0.2,0.8-0.2
				c0.3,0,0.5,0.1,0.7,0.2c0.2,0.1,0.3,0.3,0.4,0.5c0.1,0.2,0.1,0.6,0.1,1v2.1L81,346v0.5h-1.9V346l0.4-0.1v-2.1
				c0-0.3,0-0.5-0.1-0.6c0-0.1-0.1-0.3-0.2-0.3c-0.1-0.1-0.2-0.1-0.4-0.1c-0.3,0-0.6,0.1-0.9,0.4v2.7l0.4,0.1v0.5h-2V346l0.4-0.1
				V343z"/>
			<path class="st7" d="M82.1,346.3c-0.1-0.1-0.2-0.4-0.2-0.7v-2.8h-0.5v-0.4c0,0,0.1,0,0.2-0.1c0.1,0,0.2-0.1,0.2-0.1
				c0.1-0.1,0.2-0.2,0.2-0.3c0-0.1,0.1-0.4,0.2-0.8h0.6l0,1.1h1.1v0.6h-1.1v2.1c0,0.3,0,0.5,0,0.6c0,0.1,0,0.2,0.1,0.2
				c0,0,0.1,0,0.3,0s0.3,0,0.4,0c0.1,0,0.2-0.1,0.3-0.1l0.1,0.4c-0.1,0.1-0.3,0.2-0.6,0.3s-0.5,0.1-0.8,0.1
				C82.5,346.5,82.2,346.5,82.1,346.3z"/>
			<path class="st7" d="M85,346c-0.3-0.4-0.5-0.9-0.5-1.6c0-0.5,0.1-0.8,0.3-1.2c0.2-0.3,0.4-0.6,0.7-0.8c0.3-0.2,0.7-0.3,1.1-0.3
				c0.5,0,0.9,0.1,1.2,0.4c0.3,0.3,0.4,0.6,0.4,1.1c0,0.3,0,0.6-0.1,0.7h-2.4c0,0.5,0.1,0.8,0.3,1.1s0.5,0.4,0.8,0.4
				c0.2,0,0.4,0,0.6-0.1c0.2-0.1,0.4-0.1,0.5-0.2l0.2,0.4c-0.1,0.1-0.4,0.3-0.7,0.4c-0.3,0.1-0.6,0.2-0.9,0.2
				C85.8,346.6,85.3,346.4,85,346z M87.1,344c0-0.1,0-0.2,0-0.3c0-0.7-0.2-1-0.7-1c-0.2,0-0.4,0.1-0.6,0.3c-0.1,0.2-0.2,0.5-0.2,1
				H87.1z"/>
		</g>
		<g>
			<path class="st7" d="M26.3,364.4l-0.6-0.1v-0.4h3.8l0.1,1.2h-0.4l-0.2-0.7l-1.9,0v2.1l1.3,0l0.1-0.6h0.4v1.7h-0.4l-0.1-0.6
				l-1.3,0v2.2l2.1-0.1l0.4-0.9l0.4,0.1l-0.2,1.3h-4.2v-0.4l0.6-0.1V364.4z"/>
			<path class="st7" d="M30.5,369.1L31,369v-3.1l-0.5-0.1v-0.4l1.1-0.1l0.1,0.1l0,0.3l0,0.2c0.2-0.2,0.4-0.3,0.7-0.4
				c0.3-0.1,0.6-0.2,0.8-0.2c0.3,0,0.5,0,0.7,0.1c0.2,0.1,0.3,0.2,0.4,0.4c0.2-0.1,0.4-0.3,0.7-0.4c0.3-0.1,0.6-0.2,0.8-0.2
				c0.3,0,0.6,0.1,0.7,0.2c0.2,0.1,0.3,0.3,0.4,0.5c0.1,0.2,0.1,0.6,0.1,1v2.1l0.5,0.1v0.4h-1.8v-0.4l0.5-0.1V367
				c0-0.3,0-0.5-0.1-0.7c0-0.2-0.1-0.3-0.2-0.4s-0.3-0.1-0.5-0.1c-0.2,0-0.3,0-0.5,0.1c-0.2,0.1-0.3,0.2-0.5,0.3
				c0,0.2,0.1,0.5,0.1,0.8v2.1l0.5,0.1v0.4h-1.8v-0.4l0.5-0.1v-2.1c0-0.3,0-0.5-0.1-0.7c0-0.2-0.1-0.3-0.2-0.4s-0.3-0.1-0.5-0.1
				c-0.2,0-0.4,0-0.6,0.1c-0.2,0.1-0.4,0.2-0.5,0.3v2.8l0.5,0.1v0.4h-1.7V369.1z"/>
			<path class="st7" d="M41.8,368.4c-0.2,0.4-0.4,0.6-0.8,0.8c-0.3,0.2-0.7,0.3-1.1,0.3c-0.1,0-0.3,0-0.4,0c-0.1,0-0.3,0-0.3-0.1
				l0,0.6v0.8l0.8,0.1v0.4h-2.1v-0.4l0.5-0.1v-4.9l-0.5-0.1v-0.4l1.1-0.1h0l0.2,0.1v0.4c0.1-0.2,0.3-0.3,0.6-0.4s0.5-0.2,0.7-0.2
				c0.3,0,0.6,0.1,0.8,0.2c0.2,0.1,0.4,0.4,0.6,0.7c0.1,0.3,0.2,0.7,0.2,1.2C42.1,367.7,42,368.1,41.8,368.4z M39.6,365.8
				c-0.2,0.1-0.3,0.2-0.4,0.3v2.8c0,0.1,0.1,0.1,0.3,0.2c0.1,0,0.3,0.1,0.5,0.1c0.4,0,0.7-0.2,0.9-0.5c0.2-0.3,0.4-0.8,0.4-1.4
				c0-0.5-0.1-0.9-0.3-1.2c-0.2-0.3-0.5-0.4-0.8-0.4C39.9,365.7,39.8,365.8,39.6,365.8z"/>
			<path class="st7" d="M42.7,369.1l0.6,0v-3.2l-0.5-0.1v-0.4l1-0.1h0l0.2,0.1v0.1l0,0.6h0c0.1-0.1,0.1-0.2,0.3-0.3
				c0.1-0.1,0.3-0.3,0.5-0.4c0.2-0.1,0.4-0.2,0.7-0.2c0.1,0,0.2,0,0.2,0v0.8c0,0-0.1,0-0.2-0.1c-0.1,0-0.2,0-0.3,0
				c-0.4,0-0.8,0.1-1.2,0.4v2.7l1,0.1v0.4h-2.3V369.1z"/>
			<path class="st7" d="M46.6,369c-0.3-0.4-0.5-0.9-0.5-1.6c0-0.4,0.1-0.8,0.2-1.1c0.2-0.3,0.4-0.6,0.7-0.8c0.3-0.2,0.6-0.3,1-0.3
				c0.5,0,0.8,0.1,1.1,0.4c0.3,0.3,0.4,0.6,0.4,1.1c0,0.3,0,0.5-0.1,0.7H47c0,0.5,0.1,0.9,0.3,1.2c0.2,0.3,0.5,0.5,0.9,0.5
				c0.2,0,0.4,0,0.6-0.1c0.2-0.1,0.4-0.2,0.5-0.3l0.1,0.3c-0.1,0.2-0.4,0.3-0.6,0.4c-0.3,0.1-0.6,0.2-0.9,0.2
				C47.4,369.6,46.9,369.4,46.6,369z M48.8,367c0-0.1,0-0.2,0-0.3c0-0.3-0.1-0.6-0.2-0.8c-0.1-0.2-0.3-0.3-0.6-0.3
				c-0.3,0-0.5,0.1-0.7,0.3c-0.2,0.2-0.3,0.6-0.3,1.1H48.8z"/>
			<path class="st7" d="M50.9,368.9c0,0.1,0.2,0.1,0.3,0.2c0.2,0.1,0.3,0.1,0.5,0.1c0.3,0,0.5-0.1,0.6-0.2c0.1-0.1,0.2-0.3,0.2-0.5
				c0-0.1,0-0.3-0.1-0.4c-0.1-0.1-0.2-0.2-0.4-0.3c-0.2-0.1-0.4-0.2-0.7-0.3c-0.4-0.1-0.7-0.3-0.8-0.5c-0.2-0.2-0.3-0.5-0.3-0.8
				c0-0.2,0.1-0.4,0.2-0.6c0.1-0.2,0.3-0.3,0.5-0.4c0.2-0.1,0.5-0.1,0.8-0.1c0.2,0,0.4,0,0.6,0.1c0.2,0,0.3,0.1,0.4,0.1
				c0.1,0,0.2,0.1,0.2,0.1v0.9h-0.5l-0.1-0.6c0-0.1-0.1-0.1-0.2-0.2s-0.3-0.1-0.4-0.1c-0.2,0-0.4,0-0.5,0.1
				c-0.1,0.1-0.2,0.2-0.2,0.4c0,0.2,0,0.3,0.1,0.4c0.1,0.1,0.2,0.2,0.3,0.2c0.1,0.1,0.3,0.1,0.4,0.2L52,367c0.3,0.1,0.5,0.2,0.7,0.3
				c0.2,0.1,0.3,0.2,0.4,0.4s0.2,0.4,0.2,0.6c0,0.4-0.1,0.7-0.4,0.9c-0.3,0.2-0.7,0.3-1.2,0.3c-0.2,0-0.5,0-0.8-0.1
				c-0.3-0.1-0.5-0.1-0.7-0.2v-1h0.5L50.9,368.9z"/>
			<path class="st7" d="M54.7,367.3c0.5-0.2,1.1-0.3,1.8-0.4v-0.2c0-0.2,0-0.4-0.1-0.6c0-0.1-0.1-0.2-0.3-0.3s-0.3-0.1-0.5-0.1
				c-0.3,0-0.5,0-0.7,0.1c-0.2,0.1-0.4,0.2-0.6,0.3l-0.2-0.4c0.1-0.1,0.2-0.1,0.4-0.2c0.2-0.1,0.4-0.2,0.6-0.2
				c0.2-0.1,0.5-0.1,0.7-0.1c0.4,0,0.6,0,0.8,0.1c0.2,0.1,0.4,0.3,0.4,0.5c0.1,0.2,0.1,0.5,0.1,0.9v2.4h0.4v0.3
				c-0.1,0-0.2,0-0.4,0.1c-0.2,0-0.3,0-0.4,0c-0.1,0-0.2,0-0.3-0.1c-0.1,0-0.1-0.1-0.1-0.3V369c-0.1,0.2-0.3,0.3-0.6,0.4
				c-0.2,0.1-0.5,0.2-0.7,0.2c-0.4,0-0.7-0.1-0.9-0.3c-0.2-0.2-0.4-0.5-0.4-0.9C54,367.9,54.3,367.5,54.7,367.3z M56,368.9
				c0.2-0.1,0.3-0.2,0.5-0.3v-1.3c-0.5,0-1,0.1-1.2,0.3c-0.3,0.2-0.4,0.4-0.4,0.7c0,0.3,0.1,0.5,0.2,0.6c0.1,0.1,0.3,0.2,0.5,0.2
				C55.7,369,55.9,369,56,368.9z"/>
			<path class="st7" d="M58.8,366.3c-0.1-0.1-0.1-0.2-0.1-0.3c0-0.2,0.1-0.3,0.2-0.4c0.1-0.1,0.2-0.2,0.4-0.2c0.2,0,0.3,0,0.4,0.1
				c0.1,0.1,0.1,0.2,0.1,0.3c0,0.2-0.1,0.3-0.2,0.4s-0.2,0.2-0.4,0.2C59,366.4,58.9,366.4,58.8,366.3z M58.8,369.4
				c-0.1-0.1-0.1-0.2-0.1-0.3c0-0.2,0.1-0.3,0.2-0.4c0.1-0.1,0.2-0.2,0.4-0.2c0.1,0,0.3,0,0.3,0.1c0.1,0.1,0.1,0.2,0.1,0.3
				c0,0.2-0.1,0.3-0.2,0.4s-0.2,0.2-0.4,0.2C59,369.5,58.9,369.5,58.8,369.4z"/>
		</g>
		<rect x="16.1" y="135" class="st10" width="216.4" height="22"/>
		<rect x="25.3" y="378" class="st11" width="176" height="14"/>
		<g>
			<path class="st7" d="M26.3,402.9l-0.6-0.1v-0.4h1.4l2.5,3.7l0.4,0.8v-4l-0.7-0.1v-0.4h1.8v0.4l-0.6,0.1v5.1h-0.6l-2.5-3.7l-0.6-1
				v4.3l0.7,0.1v0.4h-1.8v-0.4l0.6-0.1V402.9z"/>
			<path class="st7" d="M31.9,404.7c0.2-0.3,0.4-0.6,0.7-0.8c0.3-0.2,0.6-0.3,1-0.3c0.6,0,1.1,0.2,1.4,0.6c0.3,0.4,0.5,0.9,0.5,1.6
				c0,0.5-0.1,0.8-0.3,1.2c-0.2,0.3-0.4,0.6-0.7,0.8s-0.6,0.3-1,0.3c-0.6,0-1.1-0.2-1.4-0.6c-0.3-0.4-0.5-0.9-0.5-1.6
				C31.7,405.4,31.7,405,31.9,404.7z M34.4,407.2c0.2-0.3,0.3-0.7,0.3-1.3c0-0.6-0.1-1-0.3-1.3c-0.2-0.3-0.4-0.5-0.8-0.5
				c-0.3,0-0.6,0.1-0.8,0.4s-0.3,0.7-0.3,1.3c0,0.6,0.1,1,0.3,1.3c0.2,0.3,0.4,0.5,0.8,0.5C33.9,407.6,34.2,407.5,34.4,407.2z"/>
			<path class="st7" d="M36.2,407.6l0.5-0.1v-3.1l-0.5-0.1v-0.4l1.1-0.1l0.1,0.1l0,0.3l0,0.2c0.2-0.2,0.4-0.3,0.7-0.4
				c0.3-0.1,0.6-0.2,0.8-0.2c0.3,0,0.5,0,0.7,0.1c0.2,0.1,0.3,0.2,0.4,0.4c0.2-0.1,0.4-0.3,0.7-0.4c0.3-0.1,0.6-0.2,0.8-0.2
				c0.3,0,0.6,0.1,0.7,0.2c0.2,0.1,0.3,0.3,0.4,0.5c0.1,0.2,0.1,0.6,0.1,1v2.1l0.5,0.1v0.4h-1.8v-0.4l0.5-0.1v-2.1
				c0-0.3,0-0.5-0.1-0.7c0-0.2-0.1-0.3-0.2-0.4s-0.3-0.1-0.5-0.1c-0.2,0-0.3,0-0.5,0.1c-0.2,0.1-0.3,0.2-0.5,0.3
				c0,0.2,0.1,0.5,0.1,0.8v2.1l0.5,0.1v0.4h-1.8v-0.4l0.5-0.1v-2.1c0-0.3,0-0.5-0.1-0.7c0-0.2-0.1-0.3-0.2-0.4s-0.3-0.1-0.5-0.1
				c-0.2,0-0.4,0-0.6,0.1c-0.2,0.1-0.4,0.2-0.5,0.3v2.8l0.5,0.1v0.4h-1.7V407.6z"/>
			<path class="st7" d="M43.3,402l1.2-0.1h0l0.2,0.1v2.3c0.2-0.1,0.3-0.3,0.5-0.4c0.2-0.1,0.4-0.1,0.7-0.1c0.3,0,0.6,0.1,0.8,0.2
				c0.2,0.1,0.4,0.4,0.6,0.7c0.1,0.3,0.2,0.7,0.2,1.2c0,0.4-0.1,0.8-0.3,1.2c-0.2,0.3-0.4,0.6-0.8,0.8s-0.7,0.3-1.1,0.3
				c-0.3,0-0.7,0-0.9-0.1c-0.3-0.1-0.5-0.1-0.5-0.2v-5.4l-0.6-0.1V402z M45.1,404.4c-0.2,0.1-0.3,0.2-0.4,0.3v2.8
				c0,0.1,0.1,0.1,0.3,0.2s0.3,0.1,0.5,0.1c0.4,0,0.7-0.2,0.9-0.5s0.4-0.8,0.4-1.4c0-0.5-0.1-0.9-0.3-1.2s-0.5-0.4-0.8-0.4
				C45.4,404.2,45.3,404.3,45.1,404.4z"/>
			<path class="st7" d="M48.2,407.6l0.6,0v-3.2l-0.5-0.1v-0.4l1-0.1h0l0.2,0.1v0.1l0,0.6h0c0-0.1,0.1-0.2,0.3-0.3
				c0.1-0.1,0.3-0.3,0.5-0.4c0.2-0.1,0.4-0.2,0.7-0.2c0.1,0,0.2,0,0.2,0v0.8c0,0-0.1,0-0.2-0.1c-0.1,0-0.2,0-0.3,0
				c-0.4,0-0.8,0.1-1.2,0.4v2.7l1,0.1v0.4h-2.3V407.6z"/>
			<path class="st7" d="M52.1,407.5c-0.3-0.4-0.5-0.9-0.5-1.6c0-0.4,0.1-0.8,0.2-1.1c0.2-0.3,0.4-0.6,0.7-0.8c0.3-0.2,0.6-0.3,1-0.3
				c0.5,0,0.8,0.1,1.1,0.4c0.3,0.3,0.4,0.6,0.4,1.1c0,0.3,0,0.5-0.1,0.7h-2.6c0,0.5,0.1,0.9,0.3,1.2s0.5,0.5,0.9,0.5
				c0.2,0,0.4,0,0.6-0.1c0.2-0.1,0.4-0.2,0.5-0.3l0.1,0.3c-0.1,0.2-0.4,0.3-0.6,0.4s-0.6,0.2-0.9,0.2
				C52.9,408.1,52.4,407.9,52.1,407.5z M54.3,405.5c0-0.1,0-0.2,0-0.3c0-0.3-0.1-0.6-0.2-0.8c-0.1-0.2-0.3-0.3-0.6-0.3
				c-0.3,0-0.5,0.1-0.7,0.3c-0.2,0.2-0.3,0.6-0.3,1.1H54.3z"/>
			<path class="st7" d="M57.9,409.8c-0.1,0-0.1,0-0.2,0v-0.7c0,0,0.1,0,0.2,0c0.1,0,0.2,0,0.3,0c0.2,0,0.5-0.1,0.6-0.3
				c0.2-0.2,0.4-0.5,0.5-1h-0.4l-1.4-3.7l-0.3-0.1v-0.4H59v0.4l-0.6,0.1l0.7,2.2l0.3,1.1l0.3-1.1l0.7-2.2l-0.5-0.1v-0.4h1.5v0.4
				l-0.4,0.1c-0.7,2.3-1.2,3.5-1.3,3.8c-0.2,0.4-0.3,0.8-0.5,1c-0.1,0.2-0.3,0.4-0.5,0.6s-0.4,0.2-0.7,0.2
				C58,409.8,58,409.8,57.9,409.8z"/>
			<path class="st7" d="M65.4,402.4h0.8l1.8,5.2l0.5,0.1v0.4h-2v-0.4l0.6-0.1l-0.4-1.1h-2.2l-0.4,1.1l0.6,0.1v0.4h-1.8v-0.4l0.5-0.1
				L65.4,402.4z M65.9,403.6l-0.2-0.7l-0.2,0.7l-0.8,2.4h1.9L65.9,403.6z"/>
			<path class="st7" d="M72.6,406.9c-0.2,0.4-0.4,0.6-0.8,0.8c-0.3,0.2-0.7,0.3-1.1,0.3c-0.1,0-0.3,0-0.4,0s-0.3,0-0.3-0.1l0,0.6
				v0.8l0.8,0.1v0.4h-2.1v-0.4l0.5-0.1v-4.9l-0.5-0.1v-0.4l1.1-0.1h0l0.2,0.1v0.4c0.2-0.2,0.3-0.3,0.6-0.4s0.5-0.2,0.7-0.2
				c0.3,0,0.6,0.1,0.8,0.2c0.2,0.1,0.4,0.4,0.6,0.7c0.2,0.3,0.2,0.7,0.2,1.2C72.8,406.2,72.7,406.6,72.6,406.9z M70.4,404.3
				c-0.2,0.1-0.3,0.2-0.4,0.3v2.8c0,0.1,0.1,0.1,0.3,0.2c0.1,0,0.3,0.1,0.5,0.1c0.4,0,0.7-0.2,0.9-0.5c0.2-0.3,0.4-0.8,0.4-1.4
				c0-0.5-0.1-0.9-0.3-1.2c-0.2-0.3-0.5-0.4-0.8-0.4C70.7,404.2,70.5,404.3,70.4,404.3z"/>
			<path class="st7" d="M73.9,407.5c-0.3-0.4-0.5-0.9-0.5-1.6c0-0.4,0.1-0.8,0.2-1.1c0.2-0.3,0.4-0.6,0.7-0.8c0.3-0.2,0.6-0.3,1-0.3
				c0.5,0,0.8,0.1,1.1,0.4c0.3,0.3,0.4,0.6,0.4,1.1c0,0.3,0,0.5-0.1,0.7h-2.6c0,0.5,0.1,0.9,0.3,1.2s0.5,0.5,0.9,0.5
				c0.2,0,0.4,0,0.6-0.1c0.2-0.1,0.4-0.2,0.5-0.3l0.1,0.3c-0.1,0.2-0.4,0.3-0.6,0.4s-0.6,0.2-0.9,0.2
				C74.7,408.1,74.3,407.9,73.9,407.5z M76.1,405.5c0-0.1,0-0.2,0-0.3c0-0.3-0.1-0.6-0.2-0.8c-0.1-0.2-0.3-0.3-0.6-0.3
				c-0.3,0-0.5,0.1-0.7,0.3c-0.2,0.2-0.3,0.6-0.3,1.1H76.1z"/>
			<path class="st7" d="M78.1,402.4l-0.6-0.1V402l1.2-0.1h0l0.2,0.1v5.6l0.6,0.1v0.4h-2v-0.4l0.6-0.1V402.4z"/>
			<path class="st7" d="M80.6,402.4l-0.6-0.1V402l1.2-0.1h0l0.2,0.1v5.6l0.6,0.1v0.4h-2v-0.4l0.6-0.1V402.4z"/>
			<path class="st7" d="M83.1,404.4l-0.6-0.1v-0.4l1.2-0.1h0l0.2,0.1v3.7l0.6,0.1v0.4h-2v-0.4l0.6-0.1V404.4z M83.1,402.9
				c-0.1-0.1-0.1-0.2-0.1-0.3c0-0.2,0-0.3,0.1-0.4c0.1-0.1,0.2-0.2,0.4-0.2s0.3,0,0.4,0.1s0.1,0.2,0.1,0.3c0,0.2,0,0.3-0.1,0.4
				c-0.1,0.1-0.2,0.2-0.4,0.2h0C83.3,403.1,83.2,403,83.1,402.9z"/>
			<path class="st7" d="M85.9,407.8c-0.3-0.1-0.4-0.4-0.6-0.7c-0.1-0.3-0.2-0.7-0.2-1.1c0-0.4,0.1-0.8,0.3-1.2
				c0.2-0.3,0.4-0.6,0.8-0.8c0.3-0.2,0.7-0.3,1.2-0.3c0.3,0,0.5,0,0.7,0.1v-1.4l-0.8-0.1V402l1.4-0.1h0l0.2,0.1v5.6h0.4v0.3
				c-0.2,0-0.3,0.1-0.4,0.1c-0.1,0-0.2,0-0.4,0c-0.1,0-0.2,0-0.3-0.1s-0.1-0.1-0.1-0.3v-0.2c-0.1,0.2-0.3,0.3-0.6,0.4
				c-0.2,0.1-0.5,0.2-0.7,0.2C86.4,408.1,86.1,408,85.9,407.8z M87.5,407.4c0.2-0.1,0.3-0.2,0.4-0.3v-2.7c0-0.1-0.1-0.1-0.3-0.2
				c-0.1,0-0.3-0.1-0.5-0.1c-0.4,0-0.7,0.1-0.9,0.4c-0.2,0.3-0.3,0.8-0.3,1.4c0,0.5,0.1,0.9,0.3,1.2s0.5,0.4,0.8,0.4
				C87.2,407.5,87.4,407.5,87.5,407.4z"/>
			<path class="st7" d="M90,404.7c0.2-0.3,0.4-0.6,0.7-0.8c0.3-0.2,0.6-0.3,1-0.3c0.6,0,1.1,0.2,1.4,0.6c0.3,0.4,0.5,0.9,0.5,1.6
				c0,0.5-0.1,0.8-0.3,1.2s-0.4,0.6-0.7,0.8c-0.3,0.2-0.6,0.3-1,0.3c-0.6,0-1.1-0.2-1.4-0.6c-0.3-0.4-0.5-0.9-0.5-1.6
				C89.7,405.4,89.8,405,90,404.7z M92.5,407.2c0.2-0.3,0.3-0.7,0.3-1.3c0-0.6-0.1-1-0.3-1.3c-0.2-0.3-0.4-0.5-0.8-0.5
				c-0.3,0-0.6,0.1-0.8,0.4s-0.3,0.7-0.3,1.3c0,0.6,0.1,1,0.3,1.3c0.2,0.3,0.4,0.5,0.8,0.5C92,407.6,92.3,407.5,92.5,407.2z"/>
			<path class="st7" d="M94.8,404.8c-0.1-0.1-0.1-0.2-0.1-0.3c0-0.2,0.1-0.3,0.2-0.4c0.1-0.1,0.2-0.2,0.4-0.2c0.2,0,0.3,0,0.4,0.1
				c0.1,0.1,0.1,0.2,0.1,0.3c0,0.2-0.1,0.3-0.2,0.4s-0.2,0.2-0.4,0.2C95,404.9,94.9,404.9,94.8,404.8z M94.8,407.9
				c-0.1-0.1-0.1-0.2-0.1-0.3c0-0.2,0.1-0.3,0.2-0.4c0.1-0.1,0.2-0.2,0.4-0.2c0.2,0,0.3,0,0.3,0.1c0.1,0.1,0.1,0.2,0.1,0.3
				c0,0.2-0.1,0.3-0.2,0.4s-0.2,0.2-0.4,0.2C95,408,94.9,408,94.8,407.9z"/>
			<path class="st12" d="M100.5,403.7l-0.7-0.2l-0.9-0.4l0.3-0.6l0.9,0.6l0.5,0.5l-0.2-0.7l-0.1-1h0.7l-0.1,1l-0.2,0.7l0.5-0.5
				l0.9-0.6l0.3,0.6l-0.9,0.5l-0.7,0.2l0.7,0.2l0.9,0.4l-0.4,0.6l-0.8-0.6l-0.6-0.5l0.2,0.7l0.1,1l-0.7,0l0.1-1.1l0.1-0.7l-0.5,0.5
				l-0.8,0.6l-0.4-0.6l0.9-0.5L100.5,403.7z"/>
		</g>
		<rect x="25.3" y="416.5" class="st11" width="176" height="14"/>
	</g>
</g>
</svg>
