<?xml version="1.0" encoding="utf-8"?>
<!-- Generator: Adobe Illustrator 22.1.0, SVG Export Plug-In . SVG Version: 6.00 Build 0)  -->
<svg version="1.1" id="Capa_1" xmlns="http://www.w3.org/2000/svg" xmlns:xlink="http://www.w3.org/1999/xlink" x="0px" y="0px"
	 viewBox="0 0 511 487.3" style="enable-background:new 0 0 511 487.3;" xml:space="preserve">
<style type="text/css">
	.st0{fill-rule:evenodd;clip-rule:evenodd;fill:#D3D3D4;}
	.st1{fill-rule:evenodd;clip-rule:evenodd;fill:#BFBEBE;}
	.st2{fill-rule:evenodd;clip-rule:evenodd;fill:#A4ACBE;}
	.st3{fill-rule:evenodd;clip-rule:evenodd;fill:#000065;}
	.st4{fill:#FFFFFF;}
	.st5{fill:#E30613;}
	.st6{fill-rule:evenodd;clip-rule:evenodd;fill:#FFFFFF;stroke:#CCCCCC;stroke-miterlimit:10;}
	.st7{fill-rule:evenodd;clip-rule:evenodd;fill:#EEEEEE;stroke:#CCCCCC;stroke-miterlimit:10;}
	.st8{fill:#333333;}
	.st9{fill:#555555;}
	.st10{fill-rule:evenodd;clip-rule:evenodd;fill:#333333;}
	.st11{fill-rule:evenodd;clip-rule:evenodd;fill:#F7F7F7;}
	.st12{fill:#F9AE41;}
	.st13{fill:#EE4035;}
	.st14{fill:#4F91CD;}
	.st15{fill:#7AC043;}
</style>
<g>
	<g>
		<path class="st0" d="M438.1,205.2H73c-12.1,0-21.9,9.8-21.9,21.9v216.4v10.2v23.4H460v-23.4v-10.2V227.2
			C460,215.1,450.2,205.2,438.1,205.2z"/>
		<path class="st1" d="M2.8,475.7c168.5,0,336.9,0,505.4,0c1.6,0,3,1.2,2.8,2.7c-0.2,1.8-0.9,3.7-2.9,5.7c-1.6,1.7-5.4,3.1-7,3.1
			c-161.4-0.7-329.8-0.8-491.1-0.7c-1.5,0-5.4-1.2-7-2.8c-2.1-1.8-2.7-3.6-3-5.4C-0.2,476.9,1.2,475.7,2.8,475.7L2.8,475.7
			L2.8,475.7z"/>
		<path class="st2" d="M292.1,475.7c0,1,0,1.9-0.5,2.9c-0.8,1.6-5.2,3-6.9,3c-18.4-0.1-39.8-0.1-58.2-0.1c-1.7,0-6.1-1.3-6.9-2.9
			c-0.5-1-0.5-1.9-0.5-2.9c0,0,18.3,0,36.5,0C273.8,475.7,292.1,475.7,292.1,475.7L292.1,475.7z"/>
		<g>
			<path class="st3" d="M73,225.7h365c1.6,0,2.9,1.3,2.9,2.9v228.1c0,1.6-1.3,2.9-2.9,2.9H73c-1.6,0-2.9-1.3-2.9-2.9V228.6
				C70.1,227,71.4,225.7,73,225.7z"/>
			<g>
				<path class="st4" d="M325.5,414.7H185.6c-1.1,0-2-0.9-2-2V272.7c0-1.1,0.9-2,2-2h139.9c1.1,0,2,0.9,2,2v139.9
					C327.6,413.8,326.7,414.7,325.5,414.7z"/>
				<g>
					<path d="M311.2,297.6c-0.3-0.5-0.6-0.8-1-1c1.4-0.5,2.1-1.3,2.1-2.7c0-2.2-1.3-3.2-4-3.2h-4.2v11h2.8c0,0,0-4.1,0-4.3
						c0.1,0,0.3,0,0.3,0c0.6,0,0.9,0.2,1.3,1l1.9,3.3h3L311.2,297.6z M308.2,295.4c0,0-1.1,0-1.3,0v-2.6c0.2,0,1.3,0,1.3,0
						c1.1,0,1.4,0.3,1.4,1.3S309.2,295.4,308.2,295.4z"/>
					<path d="M297.3,299.4v-2.3c0.2,0,3.7,0,3.7,0V295c0,0-3.5,0-3.7,0v-2.1c0.2,0,4.7,0,4.7,0v-2.2h-7.5v11h7.7l0.2-2.2
						C302.4,299.4,297.5,299.4,297.3,299.4"/>
					<path d="M288.8,295.8c0.1-0.1,4.1-5.2,4.1-5.2H290c0,0-3.2,4.2-3.6,4.7c0-0.6,0-4.7,0-4.7h-2.8v11h2.8c0,0,0-4,0-4.6
						c0.3,0.5,3.5,4.6,3.5,4.6h3.3C293.2,301.6,288.9,295.9,288.8,295.8"/>
					<path d="M278.9,290.7c0,0,0,5.4,0,6c-0.4-0.5-4.5-6-4.5-6h-2.3v10.9h2.4c0,0,0-6,0-6.6c0.4,0.5,4.9,6.6,4.9,6.6h1.8v-10.9
						H278.9"/>
					<path d="M265.3,299.4v-2.3c0.2,0,3.7,0,3.7,0V295c0,0-3.5,0-3.7,0v-2.1c0.2,0,4.7,0,4.7,0v-2.2h-7.5v11h7.7l0.2-2.2
						C270.4,299.4,265.5,299.4,265.3,299.4"/>
					<path d="M257.4,290.7c0,0,0,4,0,4.2h-3.8c0-0.2,0-4.2,0-4.2h-2.8v10.9h2.8c0,0,0-4.3,0-4.5h3.8c0,0.2,0,4.5,0,4.5h2.8v-10.9
						H257.4"/>
					<path d="M248.8,299.1c-1,0.4-1.7,0.5-2.6,0.5c-1.8,0-2.5-1-2.5-3.5c0-2.6,0.7-3.6,2.5-3.6c0.9,0,1.6,0.2,2.5,0.5l0.2,0.1v-2.3
						l-0.1,0c-0.8-0.3-1.7-0.5-2.6-0.5c-1.5,0-2.8,0.4-3.7,1.2c-1.1,1-1.7,2.5-1.7,4.5c0,1.8,0.4,3,1.1,4c0.9,1.1,2.3,1.7,4.1,1.7
						c1,0,2-0.2,2.8-0.6l0.1,0v-2.1L248.8,299.1"/>
					<path d="M236.9,295l-0.2-0.1c-1.1-0.5-1.2-0.5-1.4-0.7c-0.4-0.3-0.5-0.5-0.5-0.8c0-0.6,0.5-0.9,1.5-0.9c0.9,0,1.5,0.2,2.5,0.6
						l0.2,0.1v-2.3l-0.1,0c-1-0.3-1.8-0.5-2.7-0.5c-2.5,0-3.9,1.2-3.9,3.3c0,1.6,0.7,2.5,2.5,3.3c1.9,0.8,2.1,1,2.1,1.6
						c0,0.7-0.6,1-1.7,1c-1,0-1.7-0.2-2.8-0.7l-0.2-0.1v2.3l0.1,0c1,0.5,1.9,0.7,3.1,0.7c2.7,0,4.2-1.2,4.2-3.4
						C239.5,296.7,238.9,295.9,236.9,295"/>
					<path class="st5" d="M222.5,285.3h-22.2c-1.5,0-2.8,1.2-2.8,2.8v14c0,1.6,1.3,2.8,2.8,2.8h22.2c1.5,0,2.8-1.3,2.8-2.8v-14
						C225.3,286.5,224,285.3,222.5,285.3z M223.3,302.1c0,0.5-0.3,0.8-0.7,0.8h-22.2c-0.4,0-0.7-0.3-0.7-0.8v-14
						c0-0.5,0.3-0.8,0.7-0.8h22.2c0.4,0,0.7,0.3,0.7,0.8V302.1z"/>
					<path class="st5" d="M206.1,288.7h-4.7v12.9h4.6c3.9,0,5-2.8,5.1-6.5C211.1,290.8,209.3,288.7,206.1,288.7z M205.5,299.5h-1.1
						v-8.8h0.6c2.8,0,3,2,3,4.6C208.1,298.2,207.1,299.5,205.5,299.5z"/>
					<path class="st5" d="M219.2,294.8c1.1-0.6,2.1-1.5,2.1-2.7c0-2.4-1.3-3.4-3.7-3.4h-5.2v12.9h4.9c2.3,0,4.5-1.1,4.5-3.7
						C221.8,296.2,220.7,295.3,219.2,294.8z M215.5,290.7h0.9c1,0,1.9,0.3,1.9,1.5c0,1.1-0.7,1.5-1.7,1.5h-1.1V290.7z M216.5,299.5
						h-1.1v-3.3h1.1c1.2,0,2,0.3,2,1.6C218.6,299.1,217.6,299.5,216.5,299.5z"/>
				</g>
				<path class="st6" d="M316.4,336.7H194.7c-1.2,0-2.1-1-2.1-2.1v-8.7c0-1.2,1-2.1,2.1-2.1h121.7c1.2,0,2.1,1,2.1,2.1v8.7
					C318.6,335.7,317.6,336.7,316.4,336.7z"/>
				<path class="st7" d="M206.6,323.7h-11.9c-1.2,0-2.1,1-2.1,2.1v8.7c0,1.2,1,2.1,2.1,2.1h11.9V323.7z"/>
				<path class="st7" d="M316.4,323.7h-18.9v13h18.9c1.2,0,2.1-1,2.1-2.1v-8.7C318.6,324.6,317.6,323.7,316.4,323.7z"/>
				<path class="st6" d="M316.4,354.2H194.7c-1.2,0-2.1-1-2.1-2.1v-8.7c0-1.2,1-2.1,2.1-2.1h121.7c1.2,0,2.1,1,2.1,2.1v8.7
					C318.6,353.2,317.6,354.2,316.4,354.2z"/>
				<path class="st7" d="M206.6,341.2h-11.9c-1.2,0-2.1,1-2.1,2.1v8.7c0,1.2,1,2.1,2.1,2.1h11.9V341.2z"/>
				<path class="st7" d="M316.4,341.2h-18.9v13h18.9c1.2,0,2.1-1,2.1-2.1v-8.7C318.6,342.1,317.6,341.2,316.4,341.2z"/>
				<path class="st6" d="M316.4,372.2H194.7c-1.2,0-2.1-1-2.1-2.1v-8.7c0-1.2,1-2.1,2.1-2.1h121.7c1.2,0,2.1,1,2.1,2.1v8.7
					C318.6,371.2,317.6,372.2,316.4,372.2z"/>
				<path class="st7" d="M206.6,359.2h-11.9c-1.2,0-2.1,1-2.1,2.1v8.7c0,1.2,1,2.1,2.1,2.1h11.9V359.2z"/>
				<path class="st3" d="M315.9,401.7H195.2c-1.2,0-2.1-1-2.1-2.1v-17.2c0-1.2,1-2.1,2.1-2.1h120.7c1.2,0,2.1,1,2.1,2.1v17.2
					C318.1,400.7,317.1,401.7,315.9,401.7z"/>
				<path class="st8" d="M307.5,331.8h1.1v1.1h-1.1V331.8z M309.7,328c0.3,0,0.5,0.2,0.5,0.5v1.6l-1.6,1.1h-1.1v-0.5l1.6-1.1v-0.5
					h-2.7V328H309.7z M308.1,326.7c-0.9,0-1.8,0.4-2.5,1c-0.7,0.7-1,1.5-1,2.5c0,0.9,0.4,1.8,1,2.5c0.7,0.7,1.5,1,2.5,1
					s1.8-0.4,2.5-1c0.7-0.7,1-1.5,1-2.5c0-0.9-0.4-1.8-1-2.5C309.9,327.1,309,326.7,308.1,326.7z"/>
				<path class="st8" d="M307.5,349.3h1.1v1.1h-1.1V349.3z M309.7,345.5c0.3,0,0.5,0.2,0.5,0.5v1.6l-1.6,1.1h-1.1v-0.5l1.6-1.1v-0.5
					h-2.7v-1.1H309.7z M308.1,344.2c-0.9,0-1.8,0.4-2.5,1c-0.7,0.7-1,1.5-1,2.5c0,0.9,0.4,1.8,1,2.5c0.7,0.7,1.5,1,2.5,1
					s1.8-0.4,2.5-1c0.7-0.7,1-1.5,1-2.5c0-0.9-0.4-1.8-1-2.5C309.9,344.6,309,344.2,308.1,344.2z"/>
				<path class="st4" d="M234.5,390.1h-0.1v-1.6c0-0.9-0.7-1.6-1.6-1.6h-1.1c-0.9,0-1.6,0.7-1.6,1.6v1.6H230c-0.2,0-0.4,0.2-0.4,0.4
					v4c0,0.2,0.2,0.4,0.4,0.4h4.5c0.2,0,0.4-0.2,0.4-0.4v-4C234.9,390.3,234.7,390.1,234.5,390.1z M231.2,388.5
					c0-0.3,0.2-0.5,0.5-0.5h1.1c0.3,0,0.5,0.2,0.5,0.5v1.6h-2.1V388.5z"/>
				<path class="st8" d="M201.5,347h-0.1v-1.4c0-0.8-0.6-1.4-1.4-1.4h-0.9c-0.8,0-1.4,0.6-1.4,1.4v1.4h-0.1c-0.2,0-0.3,0.2-0.3,0.3
					v3.5c0,0.2,0.2,0.3,0.3,0.3h3.9c0.2,0,0.3-0.2,0.3-0.3v-3.5C201.9,347.1,201.7,347,201.5,347z M198.6,345.6
					c0-0.3,0.2-0.5,0.5-0.5h0.9c0.3,0,0.5,0.2,0.5,0.5v1.4h-1.9V345.6z"/>
				<path class="st8" d="M200,331.3V331c0.5-0.3,0.9-1,0.9-1.7c0-1.1,0-2.1-1.4-2.1c-1.4,0-1.4,0.9-1.4,2.1c0,0.7,0.4,1.4,0.9,1.7
					v0.4c-1.6,0.1-2.8,0.9-2.8,1.8h6.4C202.8,332.2,201.6,331.5,200,331.3z"/>
				<path class="st8" d="M199.6,362.5c1.9,0,3.4,1.2,3.4,2.8c0,1.5-1.5,2.8-3.4,2.8c-0.2,0-0.4,0-0.5,0c-0.7,0.7-1.6,0.9-2.5,0.9
					v-0.2c0.5-0.2,0.9-0.6,0.9-1.1c0-0.1,0-0.1,0-0.2c-0.8-0.5-1.3-1.3-1.3-2.2C196.1,363.7,197.7,362.5,199.6,362.5z"/>
				<g>
					<path class="st9" d="M215.1,328v2.9c0,0.4-0.1,0.7-0.4,1c-0.3,0.3-0.6,0.4-1,0.4l-0.1,0c-0.5,0-0.8-0.1-1.1-0.4s-0.4-0.6-0.4-1
						V328h0.6v2.9c0,0.3,0.1,0.5,0.3,0.7c0.2,0.2,0.4,0.3,0.7,0.3c0.3,0,0.6-0.1,0.7-0.3c0.2-0.2,0.3-0.4,0.3-0.7V328H215.1z"/>
					<path class="st9" d="M217.7,331.5c0-0.1-0.1-0.3-0.2-0.3c-0.1-0.1-0.3-0.2-0.6-0.2c-0.3-0.1-0.5-0.1-0.7-0.2
						c-0.2-0.1-0.3-0.2-0.4-0.3c-0.1-0.1-0.1-0.2-0.1-0.4c0-0.3,0.1-0.5,0.3-0.7c0.2-0.2,0.5-0.3,0.8-0.3c0.4,0,0.7,0.1,0.9,0.3
						c0.2,0.2,0.3,0.4,0.3,0.7h-0.5c0-0.1-0.1-0.3-0.2-0.4c-0.1-0.1-0.3-0.2-0.5-0.2c-0.2,0-0.4,0-0.5,0.1s-0.2,0.2-0.2,0.3
						c0,0.1,0.1,0.2,0.2,0.3s0.3,0.1,0.6,0.2c0.3,0.1,0.5,0.1,0.7,0.2s0.3,0.2,0.4,0.3c0.1,0.1,0.1,0.3,0.1,0.4
						c0,0.3-0.1,0.5-0.3,0.7s-0.5,0.3-0.9,0.3c-0.3,0-0.5,0-0.7-0.1s-0.3-0.2-0.5-0.4c-0.1-0.2-0.2-0.3-0.2-0.5h0.5
						c0,0.2,0.1,0.3,0.2,0.4c0.1,0.1,0.3,0.2,0.5,0.2c0.2,0,0.4,0,0.5-0.1C217.7,331.7,217.7,331.6,217.7,331.5z"/>
					<path class="st9" d="M220.9,332c-0.2,0.2-0.5,0.4-0.9,0.4c-0.3,0-0.6-0.1-0.8-0.3c-0.2-0.2-0.3-0.5-0.3-0.9v-2.1h0.5v2
						c0,0.5,0.2,0.7,0.6,0.7c0.4,0,0.7-0.2,0.8-0.5v-2.3h0.5v3.2h-0.5L220.9,332z"/>
					<path class="st9" d="M224.2,332.3c0-0.1-0.1-0.2-0.1-0.3c-0.3,0.3-0.6,0.4-0.9,0.4c-0.3,0-0.6-0.1-0.8-0.3
						c-0.2-0.2-0.3-0.4-0.3-0.7c0-0.3,0.1-0.6,0.4-0.8c0.3-0.2,0.6-0.3,1.1-0.3h0.5v-0.2c0-0.2-0.1-0.3-0.2-0.5s-0.3-0.2-0.5-0.2
						c-0.2,0-0.4,0-0.5,0.1s-0.2,0.2-0.2,0.4h-0.5c0-0.2,0.1-0.3,0.2-0.5c0.1-0.1,0.3-0.3,0.5-0.3c0.2-0.1,0.4-0.1,0.6-0.1
						c0.4,0,0.7,0.1,0.9,0.3c0.2,0.2,0.3,0.4,0.3,0.8v1.5c0,0.3,0,0.5,0.1,0.7v0H224.2z M223.3,331.9c0.2,0,0.3,0,0.5-0.1
						s0.3-0.2,0.3-0.3v-0.7h-0.4c-0.7,0-1,0.2-1,0.6c0,0.2,0.1,0.3,0.2,0.4S223.2,331.9,223.3,331.9z"/>
					<path class="st9" d="M227.1,329.6c-0.1,0-0.2,0-0.3,0c-0.4,0-0.6,0.2-0.7,0.5v2.3h-0.5v-3.2h0.5l0,0.4c0.2-0.3,0.4-0.4,0.8-0.4
						c0.1,0,0.2,0,0.2,0V329.6z"/>
					<path class="st9" d="M227.6,328.3c0-0.1,0-0.2,0.1-0.2c0.1-0.1,0.1-0.1,0.2-0.1s0.2,0,0.2,0.1s0.1,0.1,0.1,0.2s0,0.2-0.1,0.2
						s-0.1,0.1-0.2,0.1s-0.2,0-0.2-0.1C227.6,328.5,227.6,328.4,227.6,328.3z M228.2,332.3h-0.5v-3.2h0.5V332.3z"/>
					<path class="st9" d="M228.9,330.7c0-0.3,0.1-0.6,0.2-0.8c0.1-0.2,0.3-0.4,0.5-0.6c0.2-0.1,0.5-0.2,0.7-0.2c0.4,0,0.8,0.1,1,0.4
						c0.3,0.3,0.4,0.7,0.4,1.2v0c0,0.3-0.1,0.6-0.2,0.8c-0.1,0.2-0.3,0.4-0.5,0.6c-0.2,0.1-0.5,0.2-0.8,0.2c-0.4,0-0.8-0.1-1-0.4
						C229,331.6,228.9,331.2,228.9,330.7L228.9,330.7z M229.4,330.8c0,0.4,0.1,0.6,0.2,0.8c0.2,0.2,0.4,0.3,0.7,0.3
						c0.3,0,0.5-0.1,0.7-0.3s0.2-0.5,0.2-0.9c0-0.3-0.1-0.6-0.2-0.8c-0.2-0.2-0.4-0.3-0.7-0.3c-0.3,0-0.5,0.1-0.6,0.3
						S229.4,330.4,229.4,330.8z"/>
				</g>
				<g>
					<path class="st9" d="M215.2,348.5c-0.1,0.5-0.2,0.8-0.5,1c-0.3,0.2-0.7,0.4-1.1,0.4c-0.5,0-0.9-0.2-1.2-0.5
						c-0.3-0.4-0.5-0.8-0.5-1.5v-0.4c0-0.4,0.1-0.7,0.2-1c0.1-0.3,0.3-0.5,0.6-0.7c0.3-0.2,0.6-0.2,0.9-0.2c0.5,0,0.8,0.1,1.1,0.4
						c0.3,0.3,0.4,0.6,0.5,1.1h-0.6c0-0.3-0.2-0.6-0.3-0.7c-0.2-0.2-0.4-0.2-0.7-0.2c-0.4,0-0.6,0.1-0.8,0.4
						c-0.2,0.3-0.3,0.6-0.3,1.1v0.4c0,0.5,0.1,0.8,0.3,1.1c0.2,0.3,0.5,0.4,0.8,0.4c0.3,0,0.6-0.1,0.7-0.2c0.2-0.1,0.3-0.4,0.3-0.7
						H215.2z"/>
					<path class="st9" d="M215.7,348.3c0-0.3,0.1-0.6,0.2-0.8c0.1-0.2,0.3-0.4,0.5-0.6c0.2-0.1,0.5-0.2,0.7-0.2c0.4,0,0.8,0.1,1,0.4
						c0.3,0.3,0.4,0.7,0.4,1.2v0c0,0.3-0.1,0.6-0.2,0.8c-0.1,0.2-0.3,0.4-0.5,0.6c-0.2,0.1-0.5,0.2-0.8,0.2c-0.4,0-0.8-0.1-1-0.4
						C215.9,349.2,215.7,348.8,215.7,348.3L215.7,348.3z M216.3,348.3c0,0.4,0.1,0.6,0.2,0.8c0.2,0.2,0.4,0.3,0.7,0.3
						c0.3,0,0.5-0.1,0.7-0.3s0.2-0.5,0.2-0.9c0-0.3-0.1-0.6-0.2-0.8c-0.2-0.2-0.4-0.3-0.7-0.3c-0.3,0-0.5,0.1-0.6,0.3
						S216.3,347.9,216.3,348.3z"/>
					<path class="st9" d="M219.8,346.7l0,0.4c0.2-0.3,0.6-0.5,0.9-0.5c0.7,0,1,0.4,1,1.1v2.1h-0.5v-2.1c0-0.2-0.1-0.4-0.2-0.5
						c-0.1-0.1-0.3-0.2-0.5-0.2c-0.2,0-0.3,0-0.5,0.1s-0.2,0.2-0.3,0.4v2.3h-0.5v-3.2H219.8z"/>
					<path class="st9" d="M223.4,345.9v0.8h0.6v0.4h-0.6v2c0,0.1,0,0.2,0.1,0.3s0.1,0.1,0.3,0.1c0.1,0,0.1,0,0.3,0v0.4
						c-0.1,0-0.3,0.1-0.4,0.1c-0.2,0-0.4-0.1-0.5-0.2s-0.2-0.4-0.2-0.6v-2h-0.6v-0.4h0.6v-0.8H223.4z"/>
					<path class="st9" d="M226.1,347.2c-0.1,0-0.2,0-0.3,0c-0.4,0-0.6,0.2-0.7,0.5v2.3h-0.5v-3.2h0.5l0,0.4c0.2-0.3,0.4-0.4,0.8-0.4
						c0.1,0,0.2,0,0.2,0V347.2z"/>
					<path class="st9" d="M228.4,349.9c0-0.1-0.1-0.2-0.1-0.3c-0.3,0.3-0.6,0.4-0.9,0.4c-0.3,0-0.6-0.1-0.8-0.3
						c-0.2-0.2-0.3-0.4-0.3-0.7c0-0.3,0.1-0.6,0.4-0.8c0.3-0.2,0.6-0.3,1.1-0.3h0.5v-0.2c0-0.2-0.1-0.3-0.2-0.5s-0.3-0.2-0.5-0.2
						c-0.2,0-0.4,0-0.5,0.1s-0.2,0.2-0.2,0.4h-0.5c0-0.2,0.1-0.3,0.2-0.5c0.1-0.1,0.3-0.3,0.5-0.3c0.2-0.1,0.4-0.1,0.6-0.1
						c0.4,0,0.7,0.1,0.9,0.3c0.2,0.2,0.3,0.4,0.3,0.8v1.5c0,0.3,0,0.5,0.1,0.7v0H228.4z M227.5,349.5c0.2,0,0.3,0,0.5-0.1
						s0.3-0.2,0.3-0.3v-0.7h-0.4c-0.7,0-1,0.2-1,0.6c0,0.2,0.1,0.3,0.2,0.4S227.4,349.5,227.5,349.5z"/>
					<path class="st9" d="M231.6,349c0-0.1-0.1-0.3-0.2-0.3c-0.1-0.1-0.3-0.2-0.6-0.2c-0.3-0.1-0.5-0.1-0.7-0.2
						c-0.2-0.1-0.3-0.2-0.4-0.3c-0.1-0.1-0.1-0.2-0.1-0.4c0-0.3,0.1-0.5,0.3-0.7c0.2-0.2,0.5-0.3,0.8-0.3c0.4,0,0.7,0.1,0.9,0.3
						c0.2,0.2,0.3,0.4,0.3,0.7h-0.5c0-0.1-0.1-0.3-0.2-0.4c-0.1-0.1-0.3-0.2-0.5-0.2c-0.2,0-0.4,0-0.5,0.1s-0.2,0.2-0.2,0.3
						c0,0.1,0.1,0.2,0.2,0.3s0.3,0.1,0.6,0.2c0.3,0.1,0.5,0.1,0.7,0.2s0.3,0.2,0.4,0.3c0.1,0.1,0.1,0.3,0.1,0.4
						c0,0.3-0.1,0.5-0.3,0.7s-0.5,0.3-0.9,0.3c-0.3,0-0.5,0-0.7-0.1s-0.3-0.2-0.5-0.4c-0.1-0.2-0.2-0.3-0.2-0.5h0.5
						c0,0.2,0.1,0.3,0.2,0.4c0.1,0.1,0.3,0.2,0.5,0.2c0.2,0,0.4,0,0.5-0.1C231.5,349.3,231.6,349.2,231.6,349z"/>
					<path class="st9" d="M234.2,349.9c-0.4,0-0.8-0.1-1-0.4c-0.3-0.3-0.4-0.7-0.4-1.1v-0.1c0-0.3,0.1-0.6,0.2-0.8
						c0.1-0.2,0.3-0.4,0.5-0.6c0.2-0.1,0.5-0.2,0.7-0.2c0.4,0,0.7,0.1,1,0.4s0.3,0.7,0.3,1.2v0.2h-2.1c0,0.3,0.1,0.6,0.3,0.8
						c0.2,0.2,0.4,0.3,0.7,0.3c0.2,0,0.4,0,0.5-0.1s0.2-0.2,0.3-0.3l0.3,0.3C235.1,349.7,234.7,349.9,234.2,349.9z M234.1,347.1
						c-0.2,0-0.4,0.1-0.6,0.2c-0.1,0.2-0.2,0.4-0.3,0.7h1.6v0c0-0.3-0.1-0.5-0.2-0.6C234.5,347.2,234.3,347.1,234.1,347.1z"/>
					<path class="st9" d="M236.5,346.7l0,0.4c0.2-0.3,0.6-0.5,0.9-0.5c0.7,0,1,0.4,1,1.1v2.1H238v-2.1c0-0.2-0.1-0.4-0.2-0.5
						c-0.1-0.1-0.3-0.2-0.5-0.2c-0.2,0-0.3,0-0.5,0.1s-0.2,0.2-0.3,0.4v2.3H236v-3.2H236.5z M238.3,345.5c0,0.2-0.1,0.4-0.2,0.5
						c-0.1,0.1-0.3,0.2-0.4,0.2c-0.1,0-0.1,0-0.2,0s-0.1-0.1-0.2-0.1c-0.1-0.1-0.2-0.1-0.2-0.1c0,0-0.1,0-0.1,0
						c-0.1,0-0.1,0-0.2,0.1c-0.1,0.1-0.1,0.1-0.1,0.2l-0.4,0c0-0.2,0.1-0.4,0.2-0.5c0.1-0.1,0.3-0.2,0.4-0.2c0.1,0,0.1,0,0.2,0
						s0.1,0.1,0.2,0.1s0.2,0.1,0.2,0.1c0,0,0.1,0,0.2,0c0.1,0,0.2,0,0.2-0.1c0.1-0.1,0.1-0.1,0.1-0.2L238.3,345.5z"/>
					<path class="st9" d="M241.3,349.9c0-0.1-0.1-0.2-0.1-0.3c-0.3,0.3-0.6,0.4-0.9,0.4c-0.3,0-0.6-0.1-0.8-0.3
						c-0.2-0.2-0.3-0.4-0.3-0.7c0-0.3,0.1-0.6,0.4-0.8c0.3-0.2,0.6-0.3,1.1-0.3h0.5v-0.2c0-0.2-0.1-0.3-0.2-0.5s-0.3-0.2-0.5-0.2
						c-0.2,0-0.4,0-0.5,0.1s-0.2,0.2-0.2,0.4h-0.5c0-0.2,0.1-0.3,0.2-0.5c0.1-0.1,0.3-0.3,0.5-0.3c0.2-0.1,0.4-0.1,0.6-0.1
						c0.4,0,0.7,0.1,0.9,0.3c0.2,0.2,0.3,0.4,0.3,0.8v1.5c0,0.3,0,0.5,0.1,0.7v0H241.3z M240.4,349.5c0.2,0,0.3,0,0.5-0.1
						s0.3-0.2,0.3-0.3v-0.7h-0.4c-0.7,0-1,0.2-1,0.6c0,0.2,0.1,0.3,0.2,0.4S240.2,349.5,240.4,349.5z"/>
				</g>
				<g>
					<path class="st9" d="M212.7,367.9h-0.6v-4.3h0.6V367.9z"/>
					<path class="st9" d="M213.5,366.3c0-0.5,0.1-0.9,0.3-1.2c0.2-0.3,0.5-0.4,0.9-0.4c0.4,0,0.7,0.1,0.9,0.4v-1.7h0.5v4.5h-0.5
						l0-0.3c-0.2,0.3-0.5,0.4-0.9,0.4c-0.4,0-0.7-0.2-0.9-0.5C213.6,367.2,213.5,366.8,213.5,366.3L213.5,366.3z M214,366.3
						c0,0.4,0.1,0.6,0.2,0.8s0.4,0.3,0.6,0.3c0.3,0,0.6-0.2,0.8-0.5v-1.5c-0.2-0.3-0.4-0.4-0.7-0.4c-0.3,0-0.5,0.1-0.6,0.3
						S214,365.9,214,366.3z"/>
					<path class="st9" d="M217,363.9c0-0.1,0-0.2,0.1-0.2c0.1-0.1,0.1-0.1,0.2-0.1s0.2,0,0.2,0.1s0.1,0.1,0.1,0.2s0,0.2-0.1,0.2
						s-0.1,0.1-0.2,0.1s-0.2,0-0.2-0.1C217,364.1,217,364,217,363.9z M217.6,367.9H217v-3.2h0.5V367.9z"/>
					<path class="st9" d="M218.3,366.3c0-0.3,0.1-0.6,0.2-0.8c0.1-0.2,0.3-0.4,0.5-0.6c0.2-0.1,0.5-0.2,0.7-0.2c0.4,0,0.8,0.1,1,0.4
						c0.3,0.3,0.4,0.7,0.4,1.2v0c0,0.3-0.1,0.6-0.2,0.8c-0.1,0.2-0.3,0.4-0.5,0.6c-0.2,0.1-0.5,0.2-0.8,0.2c-0.4,0-0.8-0.1-1-0.4
						C218.4,367.2,218.3,366.8,218.3,366.3L218.3,366.3z M218.9,366.3c0,0.4,0.1,0.6,0.2,0.8c0.2,0.2,0.4,0.3,0.7,0.3
						c0.3,0,0.5-0.1,0.7-0.3s0.2-0.5,0.2-0.9c0-0.3-0.1-0.6-0.2-0.8c-0.2-0.2-0.4-0.3-0.7-0.3c-0.3,0-0.5,0.1-0.6,0.3
						S218.9,366,218.9,366.3z"/>
					<path class="st9" d="M222.4,364.7l0,0.4c0.2-0.3,0.5-0.4,0.9-0.4c0.4,0,0.7,0.2,0.9,0.5c0.1-0.2,0.2-0.3,0.4-0.4
						c0.2-0.1,0.4-0.1,0.6-0.1c0.7,0,1,0.4,1.1,1.1v2.1h-0.5v-2.1c0-0.2-0.1-0.4-0.2-0.5s-0.3-0.2-0.5-0.2c-0.2,0-0.4,0.1-0.5,0.2
						c-0.1,0.1-0.2,0.3-0.2,0.5v2.1h-0.5v-2.1c0-0.5-0.2-0.7-0.7-0.7c-0.4,0-0.6,0.2-0.7,0.5v2.3h-0.5v-3.2H222.4z"/>
					<path class="st9" d="M229.1,367.9c0-0.1-0.1-0.2-0.1-0.3c-0.3,0.3-0.6,0.4-0.9,0.4c-0.3,0-0.6-0.1-0.8-0.3
						c-0.2-0.2-0.3-0.4-0.3-0.7c0-0.3,0.1-0.6,0.4-0.8c0.3-0.2,0.6-0.3,1.1-0.3h0.5v-0.2c0-0.2-0.1-0.3-0.2-0.5s-0.3-0.2-0.5-0.2
						c-0.2,0-0.4,0-0.5,0.1s-0.2,0.2-0.2,0.4h-0.5c0-0.2,0.1-0.3,0.2-0.5c0.1-0.1,0.3-0.3,0.5-0.3c0.2-0.1,0.4-0.1,0.6-0.1
						c0.4,0,0.7,0.1,0.9,0.3c0.2,0.2,0.3,0.4,0.3,0.8v1.5c0,0.3,0,0.5,0.1,0.7v0H229.1z M228.2,367.5c0.2,0,0.3,0,0.5-0.1
						s0.3-0.2,0.3-0.3v-0.7h-0.4c-0.7,0-1,0.2-1,0.6c0,0.2,0.1,0.3,0.2,0.4S228,367.5,228.2,367.5z"/>
					<path class="st9" d="M233,366.3h-1.4v-0.4h1.4V366.3z"/>
					<path class="st9" d="M235.7,366.2v1.7h-0.6v-4.3h1.6c0.5,0,0.8,0.1,1.1,0.4c0.3,0.2,0.4,0.6,0.4,0.9c0,0.4-0.1,0.7-0.4,1
						c-0.3,0.2-0.6,0.3-1.1,0.3H235.7z M235.7,365.8h1c0.3,0,0.5-0.1,0.7-0.2s0.2-0.3,0.2-0.6c0-0.3-0.1-0.5-0.2-0.6
						c-0.2-0.2-0.4-0.2-0.7-0.2h-1V365.8z"/>
					<path class="st9" d="M240.3,365.2c-0.1,0-0.2,0-0.3,0c-0.4,0-0.6,0.2-0.7,0.5v2.3h-0.5v-3.2h0.5l0,0.4c0.2-0.3,0.4-0.4,0.8-0.4
						c0.1,0,0.2,0,0.2,0V365.2z"/>
					<path class="st9" d="M242.1,368c-0.4,0-0.8-0.1-1-0.4c-0.3-0.3-0.4-0.7-0.4-1.1v-0.1c0-0.3,0.1-0.6,0.2-0.8
						c0.1-0.2,0.3-0.4,0.5-0.6c0.2-0.1,0.5-0.2,0.7-0.2c0.4,0,0.7,0.1,1,0.4s0.3,0.7,0.3,1.2v0.2h-2.1c0,0.3,0.1,0.6,0.3,0.8
						c0.2,0.2,0.4,0.3,0.7,0.3c0.2,0,0.4,0,0.5-0.1s0.2-0.2,0.3-0.3l0.3,0.3C243,367.8,242.6,368,242.1,368z M242,365.1
						c-0.2,0-0.4,0.1-0.6,0.2c-0.1,0.2-0.2,0.4-0.3,0.7h1.6v0c0-0.3-0.1-0.5-0.2-0.6C242.4,365.2,242.3,365.1,242,365.1z"/>
					<path class="st9" d="M243.8,366.3c0-0.5,0.1-0.9,0.3-1.2c0.2-0.3,0.5-0.4,0.9-0.4c0.4,0,0.7,0.1,0.9,0.4v-1.7h0.5v4.5H246
						l0-0.3c-0.2,0.3-0.5,0.4-0.9,0.4c-0.4,0-0.7-0.2-0.9-0.5C243.9,367.2,243.8,366.8,243.8,366.3L243.8,366.3z M244.4,366.3
						c0,0.4,0.1,0.6,0.2,0.8s0.4,0.3,0.6,0.3c0.3,0,0.6-0.2,0.8-0.5v-1.5c-0.2-0.3-0.4-0.4-0.7-0.4c-0.3,0-0.5,0.1-0.6,0.3
						S244.4,365.9,244.4,366.3z"/>
					<path class="st9" d="M248.7,368c-0.4,0-0.8-0.1-1-0.4c-0.3-0.3-0.4-0.7-0.4-1.1v-0.1c0-0.3,0.1-0.6,0.2-0.8
						c0.1-0.2,0.3-0.4,0.5-0.6c0.2-0.1,0.5-0.2,0.7-0.2c0.4,0,0.7,0.1,1,0.4s0.3,0.7,0.3,1.2v0.2h-2.1c0,0.3,0.1,0.6,0.3,0.8
						c0.2,0.2,0.4,0.3,0.7,0.3c0.2,0,0.4,0,0.5-0.1s0.2-0.2,0.3-0.3l0.3,0.3C249.6,367.8,249.2,368,248.7,368z M248.6,365.1
						c-0.2,0-0.4,0.1-0.6,0.2c-0.1,0.2-0.2,0.4-0.3,0.7h1.6v0c0-0.3-0.1-0.5-0.2-0.6C249,365.2,248.8,365.1,248.6,365.1z"/>
					<path class="st9" d="M251.3,364v0.8h0.6v0.4h-0.6v2c0,0.1,0,0.2,0.1,0.3s0.1,0.1,0.3,0.1c0.1,0,0.1,0,0.3,0v0.4
						c-0.1,0-0.3,0.1-0.4,0.1c-0.2,0-0.4-0.1-0.5-0.2s-0.2-0.4-0.2-0.6v-2h-0.6v-0.4h0.6V364H251.3z"/>
					<path class="st9" d="M253.8,368c-0.4,0-0.8-0.1-1-0.4c-0.3-0.3-0.4-0.7-0.4-1.1v-0.1c0-0.3,0.1-0.6,0.2-0.8
						c0.1-0.2,0.3-0.4,0.5-0.6c0.2-0.1,0.5-0.2,0.7-0.2c0.4,0,0.7,0.1,1,0.4s0.3,0.7,0.3,1.2v0.2h-2.1c0,0.3,0.1,0.6,0.3,0.8
						c0.2,0.2,0.4,0.3,0.7,0.3c0.2,0,0.4,0,0.5-0.1s0.2-0.2,0.3-0.3l0.3,0.3C254.7,367.8,254.3,368,253.8,368z M253.7,365.1
						c-0.2,0-0.4,0.1-0.6,0.2c-0.1,0.2-0.2,0.4-0.3,0.7h1.6v0c0-0.3-0.1-0.5-0.2-0.6C254.1,365.2,254,365.1,253.7,365.1z"/>
					<path class="st9" d="M257.2,365.2c-0.1,0-0.2,0-0.3,0c-0.4,0-0.6,0.2-0.7,0.5v2.3h-0.5v-3.2h0.5l0,0.4c0.2-0.3,0.4-0.4,0.8-0.4
						c0.1,0,0.2,0,0.2,0V365.2z"/>
					<path class="st9" d="M258.2,364.7l0,0.4c0.2-0.3,0.5-0.4,0.9-0.4c0.4,0,0.7,0.2,0.9,0.5c0.1-0.2,0.2-0.3,0.4-0.4
						c0.2-0.1,0.4-0.1,0.6-0.1c0.7,0,1,0.4,1.1,1.1v2.1h-0.5v-2.1c0-0.2-0.1-0.4-0.2-0.5s-0.3-0.2-0.5-0.2c-0.2,0-0.4,0.1-0.5,0.2
						c-0.1,0.1-0.2,0.3-0.2,0.5v2.1h-0.5v-2.1c0-0.5-0.2-0.7-0.7-0.7c-0.4,0-0.6,0.2-0.7,0.5v2.3h-0.5v-3.2H258.2z"/>
					<path class="st9" d="M263,363.9c0-0.1,0-0.2,0.1-0.2c0.1-0.1,0.1-0.1,0.2-0.1s0.2,0,0.2,0.1s0.1,0.1,0.1,0.2s0,0.2-0.1,0.2
						s-0.1,0.1-0.2,0.1s-0.2,0-0.2-0.1C263,364.1,263,364,263,363.9z M263.5,367.9H263v-3.2h0.5V367.9z"/>
					<path class="st9" d="M264.9,364.7l0,0.4c0.2-0.3,0.6-0.5,0.9-0.5c0.7,0,1,0.4,1,1.1v2.1h-0.5v-2.1c0-0.2-0.1-0.4-0.2-0.5
						c-0.1-0.1-0.3-0.2-0.5-0.2c-0.2,0-0.3,0-0.5,0.1s-0.2,0.2-0.3,0.4v2.3h-0.5v-3.2H264.9z"/>
					<path class="st9" d="M269.7,367.9c0-0.1-0.1-0.2-0.1-0.3c-0.3,0.3-0.6,0.4-0.9,0.4c-0.3,0-0.6-0.1-0.8-0.3
						c-0.2-0.2-0.3-0.4-0.3-0.7c0-0.3,0.1-0.6,0.4-0.8c0.3-0.2,0.6-0.3,1.1-0.3h0.5v-0.2c0-0.2-0.1-0.3-0.2-0.5s-0.3-0.2-0.5-0.2
						c-0.2,0-0.4,0-0.5,0.1s-0.2,0.2-0.2,0.4h-0.5c0-0.2,0.1-0.3,0.2-0.5c0.1-0.1,0.3-0.3,0.5-0.3c0.2-0.1,0.4-0.1,0.6-0.1
						c0.4,0,0.7,0.1,0.9,0.3c0.2,0.2,0.3,0.4,0.3,0.8v1.5c0,0.3,0,0.5,0.1,0.7v0H269.7z M268.8,367.5c0.2,0,0.3,0,0.5-0.1
						s0.3-0.2,0.3-0.3v-0.7h-0.4c-0.7,0-1,0.2-1,0.6c0,0.2,0.1,0.3,0.2,0.4S268.6,367.5,268.8,367.5z"/>
					<path class="st9" d="M270.8,366.3c0-0.5,0.1-0.9,0.3-1.2c0.2-0.3,0.5-0.4,0.9-0.4c0.4,0,0.7,0.1,0.9,0.4v-1.7h0.5v4.5H273
						l0-0.3c-0.2,0.3-0.5,0.4-0.9,0.4c-0.4,0-0.7-0.2-0.9-0.5C271,367.2,270.8,366.8,270.8,366.3L270.8,366.3z M271.4,366.3
						c0,0.4,0.1,0.6,0.2,0.8s0.4,0.3,0.6,0.3c0.3,0,0.6-0.2,0.8-0.5v-1.5c-0.2-0.3-0.4-0.4-0.7-0.4c-0.3,0-0.5,0.1-0.6,0.3
						S271.4,365.9,271.4,366.3z"/>
					<path class="st9" d="M274.2,366.3c0-0.3,0.1-0.6,0.2-0.8s0.3-0.4,0.5-0.6s0.5-0.2,0.7-0.2c0.4,0,0.8,0.1,1,0.4
						c0.3,0.3,0.4,0.7,0.4,1.2v0c0,0.3-0.1,0.6-0.2,0.8s-0.3,0.4-0.5,0.6c-0.2,0.1-0.5,0.2-0.8,0.2c-0.4,0-0.8-0.1-1-0.4
						C274.4,367.2,274.2,366.8,274.2,366.3L274.2,366.3z M274.8,366.3c0,0.4,0.1,0.6,0.2,0.8c0.2,0.2,0.4,0.3,0.7,0.3
						c0.3,0,0.5-0.1,0.7-0.3s0.2-0.5,0.2-0.9c0-0.3-0.1-0.6-0.2-0.8c-0.2-0.2-0.4-0.3-0.7-0.3c-0.3,0-0.5,0.1-0.6,0.3
						S274.8,366,274.8,366.3z"/>
				</g>
				<g>
					<path class="st4" d="M244.4,392c-0.1,0.6-0.3,1.1-0.7,1.4s-0.9,0.5-1.5,0.5c-0.7,0-1.2-0.2-1.6-0.7s-0.6-1.1-0.6-1.9v-0.5
						c0-0.5,0.1-1,0.3-1.4s0.5-0.7,0.8-0.9s0.7-0.3,1.2-0.3c0.6,0,1.1,0.2,1.5,0.5s0.6,0.8,0.6,1.4h-0.8c-0.1-0.5-0.2-0.8-0.4-1
						s-0.5-0.3-0.9-0.3c-0.5,0-0.9,0.2-1.1,0.5c-0.3,0.4-0.4,0.9-0.4,1.5v0.6c0,0.6,0.1,1.1,0.4,1.5c0.3,0.4,0.6,0.5,1.1,0.5
						c0.4,0,0.7-0.1,1-0.3s0.4-0.5,0.4-1H244.4z"/>
					<path class="st4" d="M249.8,391.1c0,0.6-0.1,1-0.3,1.5s-0.5,0.7-0.8,1s-0.7,0.3-1.2,0.3c-0.4,0-0.8-0.1-1.2-0.3
						s-0.6-0.5-0.8-0.9s-0.3-0.9-0.3-1.4v-0.4c0-0.5,0.1-1,0.3-1.4s0.5-0.7,0.8-1s0.7-0.3,1.2-0.3c0.5,0,0.9,0.1,1.2,0.3
						s0.6,0.5,0.8,1s0.3,0.9,0.3,1.5V391.1z M249.1,390.7c0-0.7-0.1-1.2-0.4-1.6s-0.7-0.5-1.1-0.5c-0.5,0-0.8,0.2-1.1,0.5
						s-0.4,0.9-0.4,1.5v0.4c0,0.7,0.1,1.2,0.4,1.5s0.7,0.6,1.1,0.6c0.5,0,0.9-0.2,1.1-0.5s0.4-0.9,0.4-1.5V390.7z"/>
					<path class="st4" d="M255.3,393.8h-0.8l-2.9-4.4v4.4h-0.8v-5.7h0.8l2.9,4.4v-4.4h0.7V393.8z"/>
					<path class="st4" d="M259.9,391.1h-2.5v2h2.9v0.6h-3.6v-5.7h3.6v0.6h-2.8v1.8h2.5V391.1z"/>
					<path class="st4" d="M265.4,392c-0.1,0.6-0.3,1.1-0.7,1.4s-0.9,0.5-1.5,0.5c-0.7,0-1.2-0.2-1.6-0.7s-0.6-1.1-0.6-1.9v-0.5
						c0-0.5,0.1-1,0.3-1.4s0.5-0.7,0.8-0.9s0.7-0.3,1.2-0.3c0.6,0,1.1,0.2,1.5,0.5s0.6,0.8,0.6,1.4h-0.8c-0.1-0.5-0.2-0.8-0.4-1
						s-0.5-0.3-0.9-0.3c-0.5,0-0.9,0.2-1.1,0.5c-0.3,0.4-0.4,0.9-0.4,1.5v0.6c0,0.6,0.1,1.1,0.4,1.5c0.3,0.4,0.6,0.5,1.1,0.5
						c0.4,0,0.7-0.1,1-0.3s0.4-0.5,0.4-1H265.4z"/>
					<path class="st4" d="M270.2,388.7h-1.8v5.1h-0.7v-5.1h-1.8v-0.6h4.4V388.7z"/>
					<path class="st4" d="M273.9,392.3h-2.4l-0.5,1.5h-0.8l2.2-5.7h0.7l2.2,5.7h-0.8L273.9,392.3z M271.7,391.7h1.9l-1-2.7
						L271.7,391.7z"/>
					<path class="st4" d="M278.1,391.5h-1.3v2.3H276v-5.7h1.9c0.6,0,1.1,0.1,1.5,0.4s0.5,0.7,0.5,1.3c0,0.4-0.1,0.7-0.3,0.9
						s-0.5,0.5-0.8,0.6l1.3,2.4v0h-0.8L278.1,391.5z M276.7,390.9h1.2c0.4,0,0.7-0.1,0.9-0.3c0.2-0.2,0.3-0.5,0.3-0.8
						c0-0.4-0.1-0.6-0.3-0.8c-0.2-0.2-0.5-0.3-0.9-0.3h-1.1V390.9z"/>
				</g>
				<polygon class="st10" points="311.1,364.4 312.6,364.4 311.8,365.7 311.1,367 310.3,365.7 309.6,364.4 				"/>
				<rect x="194.1" y="313.7" class="st11" width="123" height="1"/>
			</g>
		</g>
		<path class="st2" d="M255.6,212.6c1.6,0,2.9,1.3,2.9,2.9s-1.3,2.9-2.9,2.9c-1.6,0-2.9-1.3-2.9-2.9S254,212.6,255.6,212.6z"/>
	</g>
	<g>
		<path class="st12" d="M334.3,21.5c0-11.5-9.3-20.8-20.8-20.8c-10.5,0-19.2,7.8-20.6,17.9c-0.1-0.1-0.2-0.1-0.2-0.1
			c-17-7.7-31.4,5.9-31.4,5.9l-38,38.1l15,14.4l30.6-30c14.3-14.3,22-4.6,22-4.6c10.7,9.1,0.4,19.8,0.4,19.8L306.7,77
			c12.6-13.6,13.3-25.4,9.5-34.8C326.4,40.9,334.3,32.1,334.3,21.5"/>
		<path class="st13" d="M316.3,117.3c0.1-0.1,0.1-0.2,0.1-0.2c7.7-17-5.9-31.4-5.9-31.4l-38.1-38l-14.4,15l30,30.6
			c14.3,14.3,4.6,22,4.6,22c-9.1,10.7-19.8,0.4-19.8,0.4l-14.8,15.4c13.6,12.6,25.4,13.3,34.8,9.5c1.3,10.3,10,18.2,20.7,18.2
			c11.5,0,20.8-9.3,20.8-20.8C334.2,127.4,326.4,118.8,316.3,117.3"/>
		<path class="st14" d="M272.7,81.8l-30.6,30c-14.3,14.3-22,4.6-22,4.6c-10.7-9.1-0.4-19.8-0.4-19.8l-15.4-14.8
			c-12.6,13.6-13.3,25.4-9.5,34.8c-10.3,1.3-18.2,10-18.2,20.7c0,11.5,9.3,20.8,20.8,20.8c10.5,0,19.2-7.8,20.6-17.9
			c0.1,0.1,0.2,0.1,0.2,0.1c17,7.7,31.4-5.9,31.4-5.9l38-38.1L272.7,81.8"/>
		<path class="st15" d="M223.1,65.5c-14.3-14.3-4.6-22-4.6-22c9.1-10.7,19.8-0.4,19.8-0.4l14.8-15.4c-13.6-12.6-25.4-13.3-34.8-9.5
			C217,7.9,208.3,0,197.6,0c-11.5,0-20.8,9.3-20.8,20.8c0,10.5,7.8,19.2,17.9,20.6c-0.1,0.1-0.1,0.2-0.1,0.2
			c-7.7,17,5.9,31.4,5.9,31.4l38.1,38l14.4-15L223.1,65.5"/>
	</g>
</g>
</svg>
