<?xml version="1.0" encoding="utf-8"?>
<!-- Generator: Adobe Illustrator 22.1.0, SVG Export Plug-In . SVG Version: 6.00 Build 0)  -->
<svg version="1.1" id="Capa_1" xmlns="http://www.w3.org/2000/svg" xmlns:xlink="http://www.w3.org/1999/xlink" x="0px" y="0px"
	 viewBox="0 0 687 116.6" style="enable-background:new 0 0 687 116.6;" xml:space="preserve">
<style type="text/css">
	.st0{fill:#E30613;}
</style>
<g>
	<path d="M673.2,73.1c-1.7-3-3.6-4.9-5.7-6.2c8.4-2.8,12.2-7.6,12.2-16.1c0-13-7.9-19.1-23.9-19.1h-24.7v64.9h16.5
		c0,0,0-24.2,0-25.5c0.8,0,2.1,0,2.1,0c3.6,0,5.1,0.9,7.9,6l11.5,19.5H687L673.2,73.1z M655,59.6c0,0-6.3,0-7.4,0V44.3
		c1.1,0,7.4,0,7.4,0c6.3,0,8.4,1.9,8.4,7.6C663.4,57.6,661.2,59.6,655,59.6z"/>
	<path d="M590.5,83.4V69.8c1.3,0,21.8,0,21.8,0V57.3c0,0-20.7,0-21.8,0V44.8c1.3,0,27.7,0,27.7,0V31.6h-44.1v64.9h45.6l1.1-13.1
		C620.7,83.4,591.8,83.4,590.5,83.4"/>
	<path d="M540.4,62.2c0.6-0.8,24-30.5,24-30.5h-17.1c0,0-18.8,24.8-21,27.7c0-3.5,0-27.7,0-27.7h-16.5v64.9h16.5c0,0,0-23.9,0-27.4
		C528.3,72,547,96.5,547,96.5h19.5C566.5,96.5,541,63.1,540.4,62.2"/>
	<path d="M482,31.8c0,0,0,31.8,0,35.4c-2.2-2.8-26.4-35.4-26.4-35.4h-13.8v64.7h13.9c0,0,0-35.6,0-39.1c2.2,2.8,29.3,39.1,29.3,39.1
		h10.9V31.8H482"/>
	<path d="M401,83.4V69.8c1.3,0,21.8,0,21.8,0V57.3c0,0-20.7,0-21.8,0V44.8c1.3,0,27.7,0,27.7,0V31.6h-44.1v64.9h45.6l1.1-13.1
		C431.2,83.4,402.3,83.4,401,83.4"/>
	<path d="M354.2,31.8c0,0,0,23.9,0,25.2h-22.8c0-1.3,0-25.2,0-25.2h-16.5v64.7h16.5c0,0,0-25.5,0-26.7h22.8c0,1.3,0,26.7,0,26.7
		h16.5V31.8H354.2"/>
	<path d="M303.2,81.8c-6,2.4-10,3.2-15.2,3.2c-10.6,0-14.9-5.7-14.9-20.6c0-15.5,4-21.2,14.9-21.2c5.1,0,9.5,0.9,14.7,3l0.9,0.3
		V33.1l-0.5-0.2c-4.9-1.7-10-2.7-15.7-2.7c-8.9,0-16.5,2.5-21.8,7.3c-6.8,6-10,14.6-10,26.9c0,10.4,2.2,17.9,6.8,23.6
		c5.4,6.5,13.8,9.8,24.5,9.8c6,0,11.7-1.3,16.5-3.5l0.3-0.2V81.6L303.2,81.8"/>
	<path d="M232.7,57.7l-0.9-0.5c-6.6-2.8-7-3-8.4-4.1c-2.2-1.6-2.8-2.7-2.8-4.7c0-3.5,2.8-5.4,8.7-5.4c5.1,0,8.9,0.9,14.7,3.5
		l0.9,0.5V33.4l-0.5-0.2c-5.7-2.1-10.4-3-16-3c-14.7,0-23.1,7.1-23.1,19.6c0,9.5,4.3,14.9,15,19.3c11.5,4.9,12.5,6,12.5,9.6
		c0,4.1-3.5,6.2-10.1,6.2c-5.9,0-10.3-1.1-16.8-4.4L205,80v13.6l0.3,0.2c6.2,2.8,11.4,4,18.3,4c16.1,0,25-7.1,25-20.2
		C248.5,67.7,244.6,62.6,232.7,57.7"/>
	<path class="st0" d="M147.7,0H16.5C7.4,0,0,7.3,0,16.6v83.2c0,9.3,7.4,16.8,16.5,16.8h131.3c8.9,0,16.3-7.4,16.3-16.8V16.6
		C164,7.3,156.6,0,147.7,0z M152.2,99.8c0,2.7-1.7,4.7-4.3,4.7H16.6c-2.5,0-4.4-2.1-4.4-4.7V16.6c0-2.7,1.9-4.7,4.4-4.7h131.3
		c2.5,0,4.3,2.1,4.3,4.7V99.8z"/>
	<path class="st0" d="M50.3,20.1H22.6v76.4h27.5C73.1,96.3,80,80,80.2,57.9C80.2,32.4,69.8,20.1,50.3,20.1z M47.1,84h-6.5V32.1h3.6
		c16.3,0,17.9,12,17.9,27.4C62.2,76.2,56.6,84.2,47.1,84z"/>
	<path class="st0" d="M128.1,56.5c6.6-3.5,12.7-8.7,12.7-16.1c0-14.2-7.8-20.2-22.1-20.2H88.1v76.4h29.1c13.6,0,26.4-6.6,26.4-22.1
		C143.6,64.9,137.3,59.2,128.1,56.5z M106,32h5.2c5.9,0,11.4,1.9,11.4,9.2c0,6.5-4.4,9.2-10.3,9.2H106V32z M112.3,84.2H106V64.5h6.5
		c7.1,0,12,1.7,12,9.5C124.5,81.9,118.8,84.2,112.3,84.2z"/>
</g>
</svg>
