<?xml version="1.0" encoding="utf-8"?>
<!-- Generator: Adobe Illustrator 22.1.0, SVG Export Plug-In . SVG Version: 6.00 Build 0)  -->
<svg version="1.1" id="Capa_1" xmlns="http://www.w3.org/2000/svg" xmlns:xlink="http://www.w3.org/1999/xlink" x="0px" y="0px"
	 viewBox="0 0 700 210" style="enable-background:new 0 0 700 210;" xml:space="preserve">
<style type="text/css">
	.st0{fill:#FFFFFF;}
</style>
<path class="st0" d="M105,0C46.9,0,0,46.9,0,105s46.9,105,105,105s105-46.9,105-105S162.9,0,105,0L105,0z M153.1,151.4
	c-1.9,3-5.8,4-9.1,2.1c-24.7-15.2-55.8-18.4-92.2-10c-3.5,0.7-7-1.4-7.9-4.9c-0.7-3.5,1.4-7,4.9-7.9c39.9-9.1,74.2-5.1,102,11.7
	C154,144.4,154.9,148.4,153.1,151.4z M165.9,123c-2.3,4-7.5,5.1-11.2,2.8c-28.2-17.3-71.2-22.4-104.5-12.1
	c-4.4,1.4-8.9-1.2-10.3-5.4c-1.4-4.4,1.2-8.9,5.4-10.3c38-11.7,85.6-6.1,118.1,14C167.1,113.9,168.2,119,165.9,123L165.9,123z
	 M167.1,93.1C133.2,73,77.5,71.2,45,81c-5.1,1.6-10.7-1.4-12.1-6.5c-1.6-5.1,1.4-10.7,6.5-12.4c37.1-11.2,98.7-9.1,137.7,14
	c4.7,2.8,6.3,8.9,3.5,13.5C177.8,94.3,171.7,95.9,167.1,93.1L167.1,93.1z M285.6,96.8c-18.2-4.4-21.5-7.5-21.5-13.8
	c0-6.1,5.6-10,14-10c8.2,0,16.3,3,24.7,9.3c0.2,0.2,0.5,0.2,0.9,0.2c0.2,0,0.7-0.2,0.7-0.5l8.9-12.4c0.5-0.5,0.2-1.2-0.2-1.6
	C303.1,60,291.7,56,278.4,56C258.8,56,245,67.7,245,84.5c0,18,11.9,24.5,32.2,29.4c17.3,4,20.3,7.2,20.3,13.3
	c0,6.5-5.8,10.7-15.4,10.7c-10.5,0-19.1-3.5-28.9-11.9c-0.2-0.2-0.5-0.2-0.9-0.2c-0.2,0-0.7,0.2-0.7,0.5l-10,11.9
	c-0.5,0.5-0.5,1.2,0,1.6c11.2,10,25,15.4,39.9,15.4c21,0,34.8-11.4,34.8-29.4C316.6,110.6,307.8,102.4,285.6,96.8L285.6,96.8z
	 M364.5,79.1c-9.1,0-16.6,3.5-22.9,11v-8.4c0-0.7-0.5-1.2-1.2-1.2h-16.3c-0.7,0-1.2,0.5-1.2,1.2v92.4c0,0.7,0.5,1.2,1.2,1.2h16.3
	c0.7,0,1.2-0.5,1.2-1.2v-29.2c6.3,7,13.8,10.3,22.9,10.3c17,0,34.3-13.1,34.3-38C398.5,92.2,381.5,79.1,364.5,79.1L364.5,79.1
	L364.5,79.1z M379.6,117.1c0,12.8-7.9,21.7-19.1,21.7s-19.4-9.3-19.4-21.7s8.4-21.7,19.4-21.7C371.7,95.4,379.6,104.5,379.6,117.1
	L379.6,117.1z M442.6,79.1c-21.9,0-39,16.8-39,38.3c0,21.2,17,38,38.7,38c21.9,0,39.2-16.8,39.2-38.3S464.6,79.1,442.6,79.1
	L442.6,79.1z M442.6,138.8c-11.7,0-20.3-9.3-20.3-21.7s8.4-21.5,20.1-21.5c11.7,0,20.5,9.3,20.5,21.7S454.3,138.8,442.6,138.8z
	 M528.3,80.5h-18V62.3c0-0.7-0.5-1.2-1.2-1.2h-16.3c-0.7,0-1.2,0.5-1.2,1.2v18.2h-7.7c-0.7,0-1.2,0.5-1.2,1.2v14
	c0,0.7,0.5,1.2,1.2,1.2h7.7V133c0,14.5,7.2,21.9,21.7,21.9c5.8,0,10.7-1.2,15.2-3.7c0.5-0.2,0.7-0.7,0.7-0.9V137
	c0-0.5-0.2-0.7-0.5-0.9c-0.5-0.2-0.7-0.2-1.2,0c-3,1.6-6.1,2.3-9.6,2.3c-5.1,0-7.5-2.3-7.5-7.7V97.1h18c0.7,0,1.2-0.5,1.2-1.2v-14
	C529.4,81,529,80.5,528.3,80.5L528.3,80.5L528.3,80.5z M590.6,80.5v-2.3c0-6.5,2.6-9.6,8.2-9.6c3.5,0,6.1,0.7,9.1,1.6
	c0.5,0.2,0.7,0,1.2-0.2c0.2-0.2,0.5-0.7,0.5-0.9V55.3c0-0.5-0.2-0.9-0.9-1.2c-3.3-0.9-7.2-1.9-13.5-1.9c-14.9,0-22.9,8.4-22.9,24.5
	v3.5h-7.7c-0.7,0-1.2,0.5-1.2,1.2v14c0,0.7,0.5,1.2,1.2,1.2h7.7v55.8c0,0.7,0.5,1.2,1.2,1.2h16.3c0.7,0,1.2-0.5,1.2-1.2V96.6H606
	l23.3,55.8c-2.6,5.8-5.1,7-8.9,7c-2.8,0-5.8-0.9-8.9-2.6c-0.2-0.2-0.7-0.2-0.9,0c-0.2,0-0.5,0.2-0.7,0.7l-5.6,12.1
	c-0.2,0.5,0,1.2,0.5,1.6c5.8,3,11,4.4,17.3,4.4c11.9,0,18.7-5.6,24.5-20.5l28.2-72.8c0.2-0.5,0-0.7-0.2-1.2
	c-0.2-0.2-0.5-0.5-0.9-0.5h-16.8c-0.5,0-0.9,0.2-1.2,0.7l-17.3,49.5l-18.9-49.5c-0.2-0.5-0.7-0.7-1.2-0.7L590.6,80.5L590.6,80.5
	L590.6,80.5z M554.4,80.5h-16.3c-0.7,0-1.2,0.5-1.2,1.2v70.9c0,0.7,0.5,1.2,1.2,1.2h16.3c0.7,0,1.2-0.5,1.2-1.2V81.7
	C555.6,81,555.1,80.5,554.4,80.5L554.4,80.5z M546.5,48.3c-6.5,0-11.7,5.1-11.7,11.7s5.1,11.7,11.7,11.7c6.5,0,11.7-5.1,11.7-11.7
	S552.8,48.3,546.5,48.3z M688.6,103.4c-6.5,0-11.4-5.1-11.4-11.4c0-6.3,5.1-11.4,11.4-11.4c6.5,0,11.4,5.1,11.4,11.4
	C700,98,695.1,103.4,688.6,103.4L688.6,103.4z M688.6,81.4c-5.8,0-10.3,4.7-10.3,10.3c0,5.6,4.4,10.3,10.3,10.3
	c5.8,0,10.3-4.7,10.3-10.3C698.8,86.1,694.4,81.4,688.6,81.4z M691.1,93.1l3.3,4.4h-2.8l-2.8-4.2h-2.6v4.2h-2.3V85.6h5.4
	c2.8,0,4.7,1.4,4.7,3.7C693.9,91.2,692.8,92.4,691.1,93.1L691.1,93.1z M689.3,87.5h-3v3.7h3c1.4,0,2.3-0.7,2.3-1.9
	C691.6,88.2,690.7,87.5,689.3,87.5z"/>
</svg>
