<?xml version="1.0" encoding="utf-8"?>
<!-- Generator: Adobe Illustrator 21.0.2, SVG Export Plug-In . SVG Version: 6.00 Build 0)  -->
<svg xml:space="preserve" xmlns:xlink="http://www.w3.org/1999/xlink" enable-background="new 0 0 335.29 469.677" version="1.1" viewBox="0 0 335.29 469.677" x="0px" xmlns="http://www.w3.org/2000/svg" y="0px"><polygon fill="#265AA6" points="303.853,433 167.644,469.677 31.432,433 0,92.476 335.29,92.476 "></polygon><polygon fill="#449DD7" points="167.642,120.058 167.642,440.425 167.949,440.508 278.179,410.827 303.621,120.058 "></polygon><polygon fill="#FFFFFF" points="90.338,42.446 90.338,22.178 119.909,22.178 119.909,0 68.16,0 68.16,62.684 119.909,62.684 
            119.909,42.446 "></polygon><path d="M173.104,22.178h20.673V0h-51.753c0,0,0,11.132,0,22.178c6.923,6.924,10.535,10.238,20.548,20.252
            c-5.853,0-20.548,0.021-20.548,0.02v20.234h51.753V42.446L173.104,22.178z" fill="#FFFFFF"></path><path d="M246.457,22.178h20.673V0h-51.757c0,0,0,11.132,0,22.178c6.924,6.924,10.537,10.238,20.551,20.252
            c-5.852,0-20.551,0.021-20.551,0.02v20.234h51.757V42.446L246.457,22.178z" fill="#FFFFFF"></path><polygon fill="#FFFFFF" points="167.521,205.203 70.03,245.806 73.264,286.004 167.521,245.703 267.785,202.836 271.943,161.714 "></polygon><linearGradient gradientUnits="userSpaceOnUse" id="SVGID_1_" x1="118.7759" x2="118.7759" y1="286.0039" y2="205.2026"><stop offset="0.3865" style="stop-color:#DADADA;stop-opacity:0"></stop><stop offset="1" style="stop-color:#DADADA"></stop></linearGradient><polygon fill="url(#SVGID_1_)" points="70.03,245.806 73.264,286.004 167.521,245.703 167.521,205.203 "></polygon><linearGradient gradientUnits="userSpaceOnUse" id="SVGID_2_" x1="219.7324" x2="219.7324" y1="245.7031" y2="161.7143"><stop offset="0.3865" style="stop-color:#DADADA;stop-opacity:0"></stop><stop offset="1" style="stop-color:#DADADA"></stop></linearGradient><polygon fill="url(#SVGID_2_)" points="271.943,161.714 167.521,205.203 167.521,245.703 267.785,202.836 "></polygon><linearGradient gradientUnits="userSpaceOnUse" id="SVGID_3_" x1="70.1802" x2="264.2441" y1="322.0429" y2="322.0429"><stop offset="0" style="stop-color:#EEEDED"></stop><stop offset="1" style="stop-color:#FFFFFF"></stop></linearGradient><polygon fill="url(#SVGID_3_)" points="70.18,245.806 73.415,286.004 218.039,286.466 214.805,340.063 167.215,353.462 
            121.467,341.911 118.695,308.643 76.187,308.643 81.731,372.868 167.676,398.28 253.154,373.329 264.244,245.806 "></polygon><g opacity="0.05"><polygon points="167.521,245.806 70.03,245.806 73.264,286.004 167.521,286.305 	"></polygon><polygon points="167.521,353.332 167.06,353.462 121.317,341.911 118.545,308.643 76.037,308.643 81.581,372.868 167.521,398.28 	
              "></polygon></g><linearGradient gradientUnits="userSpaceOnUse" id="SVGID_4_" x1="61.2515" x2="271.9434" y1="182.2751" y2="182.2751"><stop offset="0" style="stop-color:#EEEDED"></stop><stop offset="1" style="stop-color:#FFFFFF"></stop></linearGradient><polygon fill="url(#SVGID_4_)" points="61.251,161.714 271.943,161.714 267.785,202.836 66.333,202.836 "></polygon><polygon opacity="0.05" points="167.521,161.714 61.251,161.714 66.333,202.836 167.521,202.836 "></polygon></svg>