<?xml version="1.0" encoding="utf-8"?>
<!-- Generator: Adobe Illustrator 22.1.0, SVG Export Plug-In . SVG Version: 6.00 Build 0)  -->
<svg version="1.1" id="Layer_1" xmlns="http://www.w3.org/2000/svg" xmlns:xlink="http://www.w3.org/1999/xlink" x="0px" y="0px"
	 viewBox="-3 -7 28.4 31.9" style="enable-background:new -3 -7 28.4 31.9;" xml:space="preserve" width="60" height="60">
<style type="text/css">
	.st0{fill-rule:evenodd;clip-rule:evenodd;fill:#2baf61;}
</style>
<path class="st0" d="M16,24.2c0-0.5,0-2.3,0-4.5c0-1.5-0.5-2.5-1.1-3c3.6-0.4,7.4-1.8,7.4-8c0-1.8-0.6-3.2-1.7-4.4
	c0.2-0.4,0.7-2.1-0.2-4.3c0,0-1.4-0.4-4.5,1.7c-1.3-0.4-2.7-0.5-4.1-0.5c-1.4,0-2.8,0.2-4.1,0.5C4.8-0.4,3.4,0,3.4,0
	C2.5,2.3,3.1,3.9,3.3,4.3c-1,1.1-1.7,2.6-1.7,4.4c0,6.2,3.8,7.6,7.4,8.1c-0.5,0.4-0.9,1.1-1,2.2c-0.9,0.4-3.3,1.1-4.7-1.4
	c0,0-0.9-1.6-2.5-1.7c0,0-1.6,0-0.1,1c0,0,1.1,0.5,1.8,2.4c0,0,1,3.2,5.5,2.2c0,1.4,0,2.4,0,2.8c0,0.4-0.3,0.9-1.1,0.8
	c1.6,0.5,3.3,0.8,5.1,0.8c1.8,0,3.5-0.3,5.1-0.8C16.3,25.2,16,24.7,16,24.2z"/>
</svg>
