<?xml version="1.0" encoding="utf-8"?>
<!-- Generator: Adobe Illustrator 22.1.0, SVG Export Plug-In . SVG Version: 6.00 Build 0)  -->
<svg version="1.1" id="Layer_1" xmlns="http://www.w3.org/2000/svg" xmlns:xlink="http://www.w3.org/1999/xlink" x="0px" y="0px"
	 viewBox="0 0 96 96" style="enable-background:new 0 0 96 96;" xml:space="preserve">
<style type="text/css">
	.st0{fill:#FFFFFF;}
</style>
<path class="st0" d="M48,0C35,0,33.3,0.1,28.2,0.3c-5.1,0.2-8.6,1-11.7,2.2c-3.2,1.2-5.8,2.9-8.5,5.5c-2.7,2.7-4.3,5.3-5.5,8.5
	c-1.2,3.1-2,6.5-2.2,11.7C0.1,33.3,0,35,0,48s0.1,14.7,0.3,19.8c0.2,5.1,1,8.6,2.2,11.7c1.2,3.2,2.9,5.8,5.5,8.5
	c2.7,2.7,5.3,4.3,8.5,5.5c3.1,1.2,6.5,2,11.7,2.2C33.3,95.9,35,96,48,96c13,0,14.7-0.1,19.8-0.3c5.1-0.2,8.6-1,11.7-2.2
	c3.2-1.2,5.8-2.9,8.5-5.5c2.7-2.7,4.3-5.3,5.5-8.5c1.2-3.1,2-6.5,2.2-11.6C95.9,62.7,96,61,96,48s-0.1-14.7-0.3-19.8
	c-0.2-5.1-1.1-8.6-2.2-11.7c-1.2-3.2-2.9-5.8-5.5-8.5c-2.7-2.7-5.3-4.3-8.5-5.5c-3.1-1.2-6.6-2-11.7-2.2C62.7,0.1,61,0,48,0
	C48,0,48,0,48,0z M43.7,8.7c1.3,0,2.7,0,4.3,0c12.8,0,14.3,0,19.4,0.3c4.7,0.2,7.2,1,8.9,1.7c2.2,0.9,3.8,1.9,5.5,3.6
	s2.7,3.3,3.6,5.5c0.7,1.7,1.4,4.2,1.7,8.9c0.2,5.1,0.3,6.6,0.3,19.4s-0.1,14.3-0.3,19.4c-0.2,4.7-1,7.2-1.7,8.9
	c-0.9,2.2-1.9,3.8-3.6,5.5c-1.7,1.7-3.3,2.7-5.5,3.6c-1.7,0.7-4.2,1.4-8.9,1.7c-5.1,0.2-6.6,0.3-19.4,0.3c-12.8,0-14.3-0.1-19.4-0.3
	c-4.7-0.2-7.2-1-8.9-1.7c-2.2-0.9-3.8-1.9-5.5-3.6c-1.7-1.7-2.7-3.3-3.6-5.5c-0.7-1.7-1.4-4.2-1.7-8.9C8.7,62.3,8.7,60.8,8.7,48
	s0-14.3,0.3-19.4c0.2-4.7,1-7.2,1.7-8.9c0.9-2.2,1.9-3.8,3.6-5.5c1.7-1.7,3.3-2.7,5.5-3.6c1.7-0.7,4.2-1.4,8.9-1.7
	C33,8.7,34.8,8.6,43.7,8.7L43.7,8.7L43.7,8.7z M73.6,16.6c-3.2,0-5.8,2.6-5.8,5.8c0,3.2,2.6,5.8,5.8,5.8s5.8-2.6,5.8-5.8
	S76.8,16.6,73.6,16.6L73.6,16.6z M48,23.4c-13.6,0-24.7,11-24.7,24.6s11,24.6,24.7,24.6c13.6,0,24.6-11,24.6-24.6S61.6,23.4,48,23.4
	L48,23.4z M48,32c8.8,0,16,7.2,16,16c0,8.8-7.2,16-16,16c-8.8,0-16-7.2-16-16C32,39.2,39.2,32,48,32z"/>
</svg>
