<?xml version="1.0" encoding="utf-8"?>
<!-- Generator: Adobe Illustrator 21.0.2, SVG Export Plug-In . SVG Version: 6.00 Build 0)  -->
<svg xml:space="preserve" xmlns:xlink="http://www.w3.org/1999/xlink" style="enable-background:new 0 0 80.6 113.4;" version="1.1" viewBox="0 0 80.6 113.4" x="0px" xmlns="http://www.w3.org/2000/svg" y="0px"><polygon fill="#E6A329" points="80.6,22.2 40.3,22.2 40.3,22.2 0,22.2 7.5,104.1 40.3,113.4 40.3,113.4 40.3,113.4 40.3,113.4 
            40.3,113.4 73,104.1 	"></polygon><polygon fill="#F1BF22" points="40.3,28.9 40.3,106.5 40.3,106.5 66.8,98.9 73.2,28.9 	"></polygon><polygon fill="#FFFFFF" points="61.4,38.9 20.6,38.9 17.8,69.6 17.8,69.4 52.5,69.4 51.3,82.4 40.3,85.6 29.1,82.3 28.4,74.5 
            18.2,74.5 19.7,90.2 40.3,96 60.9,90.2 63.7,59.4 27,59.4 27.5,49.1 53,49.1 53.3,55 63.6,55 	"></polygon><g><polygon fill="#FFFFFF" points="32.4,10.1 25.3,10.1 25.3,15.3 32.4,15.3 36.3,15.3 37.6,15.3 37.6,0 32.4,0 		"></polygon><path d="M55.3,0.1H42.8c0,0,0,2.7,0,5.4c1.7,1.7,2.5,2.5,5,4.9c-1.4,0-5,0-5,0v4.9h12.5v-4.9l-5-4.9h5V0.1z" fill="#FFFFFF"></path></g></svg>