<?xml version="1.0" encoding="utf-8"?>
<!-- Generator: Adobe Illustrator 22.1.0, SVG Export Plug-In . SVG Version: 6.00 Build 0)  -->
<svg version="1.1" id="Layer_1" xmlns="http://www.w3.org/2000/svg" xmlns:xlink="http://www.w3.org/1999/xlink" x="0px" y="0px"
	 viewBox="0 0 25.8 25.7" style="enable-background:new 0 0 25.8 25.7;" xml:space="preserve">
<style type="text/css">
	.st0{fill:#FFFFFF;}
</style>
<path class="st0" d="M19.4,8.1c-2.6,0-4.3,1.4-5.1,2.8h-0.1V8.5H9.1v17.2h5.3v-8.5c0-2.2,0.4-4.4,3.2-4.4c2.7,0,2.8,2.6,2.8,4.6v8.4
	h5.3v-9.4C25.8,11.7,24.8,8.1,19.4,8.1z"/>
<rect x="0.4" y="8.5" class="st0" width="5.3" height="17.2"/>
<path class="st0" d="M3.1,0C1.4,0,0,1.4,0,3.1c0,1.7,1.4,3.1,3.1,3.1c1.7,0,3.1-1.4,3.1-3.1C6.2,1.4,4.8,0,3.1,0z"/>
</svg>
