<?xml version="1.0" encoding="utf-8"?>
<!-- Generator: Adobe Illustrator 22.1.0, SVG Export Plug-In . SVG Version: 6.00 Build 0)  -->
<svg version="1.1"
	 id="svg2" inkscape:version="0.91 r13725" sodipodi:docname="Microsoft_Skype_for_Business_logo.svg" xmlns:cc="http://creativecommons.org/ns#" xmlns:dc="http://purl.org/dc/elements/1.1/" xmlns:inkscape="http://www.inkscape.org/namespaces/inkscape" xmlns:rdf="http://www.w3.org/1999/02/22-rdf-syntax-ns#" xmlns:sodipodi="http://sodipodi.sourceforge.net/DTD/sodipodi-0.dtd" xmlns:svg="http://www.w3.org/2000/svg"
	 xmlns="http://www.w3.org/2000/svg" xmlns:xlink="http://www.w3.org/1999/xlink" x="0px" y="0px" viewBox="0 0 236.1 236"
	 style="enable-background:new 0 0 236.1 236;" xml:space="preserve" width="35" height="35">
<path fill="#2baf61" d="M227.4,137.2c3.2-18.4,1.8-37.7-4.3-55.3c-8.9-26.1-28-48.6-52.3-61.6C149,8.4,123.2,4.4,98.8,8.6C77.1-4,48.4-2.7,28,12
	C14.6,21.4,4.8,36,1.5,52.1c-3.4,15.7-0.8,32.7,7.2,46.6C5.3,118.2,7.1,138.5,14,157c9.6,25.9,29.3,47.8,53.9,60.1
	c21.2,10.8,45.9,14.3,69.3,10.3c21,12.2,48.8,11.4,69-2.2c14.6-9.5,25.1-25,28.5-42.2C237.9,167.5,235.2,151,227.4,137.2z
	 M202.1,207.1c-12,10.6-29.3,14.6-44.7,10.4c-6.1-1.5-11.7-4.7-17.1-7.8c-18.6,4.1-38.4,3.2-56.1-3.8c-26.2-10-47.4-32.3-55.8-59.1
	c-5.4-16.5-5.7-34.3-2-51.1c-5.7-8.8-9.7-19-9.5-29.7C16.7,49.7,25.4,33.8,39,25c12.3-8.3,28.5-10.4,42.6-5.6c5,1.6,9.5,4.3,14,6.9
	c17.6-3.9,36.4-3.3,53.4,2.8c27.2,9.4,49.3,31.9,58.3,59.3c5.7,16.7,6,34.8,2.3,51.9c4.4,7.2,8.2,15,9.1,23.5
	C220.9,179.8,214.4,196.6,202.1,207.1z"/>
<path fill="#2baf61" id="path10" d="M103.4,50.8c16-2.4,32.8,0,47.1,7.8c6.2,3.5,12.3,8.1,15.2,14.9c1.9,4.4,2.1,10.2-1.4,13.9
	c-3.8,3.9-9.9,5.1-15,3.4c-5.9-2.5-8.8-8.6-13.8-12.3c-6.3-5.2-14.7-6.5-22.6-6.4c-5.8,0.3-12,1.6-16.2,5.8
	c-3.9,4.2-5.3,11.3-1.5,15.9c3.6,4.1,9.1,5.7,14.2,7.1c9.7,2.4,19.4,4.4,29.2,6.7c10.1,2.3,20.3,6.7,27,15
	c11.5,14.9,8.9,38.5-5.4,50.7c-11.4,10.1-27.4,12.9-42.2,13c-15.8-0.2-32.7-3.5-44.9-14.3c-6.1-5.5-11.2-13.8-9.4-22.3
	c2-8.4,13.6-11.6,20.2-6.4c5,4,7.7,10.2,12.6,14.4c5.8,5.3,13.9,7.4,21.6,7.2c7.6,0.2,15.6-2.1,20.8-7.9c3.5-3.9,5.4-9.8,3.1-14.8
	c-1.9-4.7-6.7-7.2-11.3-8.5c-8.5-2.2-17.1-4.3-25.6-6.5c-9.4-2.3-19.1-4.4-27.1-10c-6.3-4.2-11-10.7-12.6-18.1
	c-2.6-11.6-0.7-25.1,7.7-34C80.8,56.5,92.3,52.5,103.4,50.8z"/>
</svg>
