<?xml version="1.0" encoding="utf-8"?>
<!-- Generator: Adobe Illustrator 22.1.0, SVG Export Plug-In . SVG Version: 6.00 Build 0)  -->
<svg version="1.1" id="Capa_1" xmlns="http://www.w3.org/2000/svg" xmlns:xlink="http://www.w3.org/1999/xlink" x="0px" y="0px"
	 viewBox="0 0 233.1 116.5" style="enable-background:new 0 0 233.1 116.5;" xml:space="preserve" width="30" height="30">
<path fill="#2baf61" d="M58.3,116.5h14.6V24.8c-5.5,1.5-10.4,4.3-14.6,8V116.5z M29.1,54.5v61.9l0.9,0.1h13.6V54.4H30.1L29.1,54.5L29.1,54.5z
	 M0,85.4c0,11.3,5.9,21.1,14.6,26.5v-53C5.9,64.4,0,74.2,0,85.4L0,85.4z M87.4,116.5H102V28.8c-4.4-2.7-9.3-4.5-14.6-5.2V116.5z
	 M203,54.4h-8.2c0.4-2.5,0.7-5.1,0.7-7.8c0-25.7-20.2-46.6-45.1-46.6c-13.5,0-25.6,6.2-33.8,16v100.6H203
	c16.6,0,30.1-13.9,30.1-31.1C233.1,68.3,219.6,54.4,203,54.4L203,54.4z M203,54.4"/>
</svg>
