<?xml version="1.0" encoding="utf-8"?>
<!-- Generator: Adobe Illustrator 21.0.2, SVG Export Plug-In . SVG Version: 6.00 Build 0)  -->
<svg version="1.1" id="Layer_1" xmlns="http://www.w3.org/2000/svg" xmlns:xlink="http://www.w3.org/1999/xlink" x="0px" y="0px"
	 viewBox="0 0 405.8 607.3" style="enable-background:new 0 0 405.8 607.3;" xml:space="preserve">
<style type="text/css">
	.st0{fill:#991B1E;}
	.st1{fill:#ED1C24;}
</style>
<g id="XMLID_6_">
	<path id="XMLID_8_" class="st0" d="M321.9,492.1c0,0-7-34.1-15.2-48L189.3,245.2c0,0-16.6-25.8-16.6-68c0-33.2,14.1-56.1,14.1-56.1
		s137,230.3,137,230.3c0,0,19.2,24.9,19.2,70.6C343,459.8,321.9,492.1,321.9,492.1 M98.5,444.3c0,0-13.6,25-14.9,47.6
		c-22.6-35.4-21-70.8-21-70.8c0-36.9,18.1-67.4,18.1-67.4l50.9-83.5l35.8,60.5L98.5,444.3z M372.1,312.3L186.8,0l-52.2,87.1
		c-25.4,40.4-25,98.2-25,98.2L26.4,323c0,0-26.4,41.5-26.4,95.7c0,145,139.3,188.5,139.3,188.5l34.5-58c-18-9.8-28-28.5-28-48.2
		c0-11.6,3.9-22.6,10-31.6l47.6-77.6l51.4,86.9c0,0,5.3,10.1,5.3,22c0,20.4-12.3,38.7-28.8,48.8l34.5,57.8c0,0,26.1-6.4,55.5-27.4
		c37.3-26.7,84.5-81.2,84.5-161.2C405.8,379,393.8,346.5,372.1,312.3"/>
	<path id="XMLID_7_" class="st1" d="M114.4,221.3c3.4,16.8,17.1,49,17.1,49l123.3,208.5c0,0,5.3,10.1,5.3,22
		c0,20.4-12.3,38.7-28.8,48.8l34.5,57.8c0,0,26.1-6.4,55.5-27.4c37.3-26.7,84.5-81.2,84.5-161.2c0-39.7-12-72.2-33.6-106.4
		L230.6,73.8l-19.7,34.3c0,0-16.4,22.7-1,51.8c39,65.6,113.9,191.5,113.9,191.5c0,0,19.2,24.9,19.2,70.6c0,37.8-21.1,70-21.1,70
		s-7-34.1-15.2-48L189.3,245.2c0,0-16.6-25.8-16.6-68c0-33.2,14.1-56.1,14.1-56.1l36-60.4L186.8,0l-52.2,87.1
		c-25.5,40.4-25,98.2-25,98.2S111,204.5,114.4,221.3"/>
</g>
<path id="XMLID_14_" class="st1" d="M181,378.7l-21.2-35.4l-61.3,101c0,0-13.6,25-14.9,47.6c-22.6-35.4-21-70.8-21-70.8
	c0-36.9,18.1-67.4,18.1-67.4l43-70.6l-36.4-60.8l-0.1,0L26.4,323c0,0-26.4,41.5-26.4,95.7c0,145,139.3,188.5,139.3,188.5l34.5-58
	c-18-9.8-28-28.5-28-48.2c0-11.6,3.9-22.6,10.1-31.6l24-39.2v0C179.8,430.3,195.4,404.4,181,378.7"/>
</svg>
