<?xml version="1.0" encoding="utf-8"?>
<!-- Generator: Adobe Illustrator 21.0.2, SVG Export Plug-In . SVG Version: 6.00 Build 0)  -->
<svg version="1.1" id="Capa_1" xmlns="http://www.w3.org/2000/svg" xmlns:xlink="http://www.w3.org/1999/xlink" x="0px" y="0px"
	 viewBox="0 0 236.2 72.2" style="enable-background:new 0 0 236.2 72.2;" xml:space="preserve">
<style type="text/css">
	.st0{fill:none;stroke:#FF7F00;stroke-width:4;stroke-miterlimit:10;}
	.st1{fill:none;stroke:#FFFFFF;stroke-width:4;stroke-miterlimit:10;}
	.st2{fill:#FFFFFF;}
	.st3{fill:#FF7F00;}
</style>
<g>
	<line class="st0" x1="4.6" y1="1.8" x2="80.3" y2="43.3"/>
	<line class="st0" x1="20.4" y1="27.7" x2="54.6" y2="40.5"/>
	<line class="st0" x1="0.4" y1="35.8" x2="84.3" y2="52.9"/>
	<path class="st1" d="M51.7,1.8c0,0,22.1,14.1,17.7,38.8c0,0-1.8,21.3-27,29.7"/>
	<g>
		<path class="st2" d="M110.4,52.3l3,0.8c-0.6,2.5-1.8,4.4-3.4,5.7c-1.7,1.3-3.7,2-6.1,2c-2.5,0-4.5-0.5-6-1.5
			c-1.5-1-2.7-2.5-3.5-4.4c-0.8-1.9-1.2-4-1.2-6.1c0-2.4,0.5-4.5,1.4-6.2c0.9-1.8,2.2-3.1,3.9-4c1.7-0.9,3.5-1.4,5.6-1.4
			c2.3,0,4.2,0.6,5.8,1.8c1.6,1.2,2.7,2.8,3.3,4.9l-3,0.7c-0.5-1.7-1.3-2.9-2.3-3.6c-1-0.8-2.3-1.1-3.8-1.1c-1.8,0-3.2,0.4-4.4,1.3
			c-1.2,0.8-2,2-2.5,3.4c-0.5,1.4-0.7,2.9-0.7,4.4c0,1.9,0.3,3.6,0.9,5.1c0.6,1.5,1.5,2.5,2.6,3.3c1.2,0.7,2.5,1.1,3.9,1.1
			c1.7,0,3.1-0.5,4.3-1.5C109.2,55.7,110,54.2,110.4,52.3z"/>
		<path class="st2" d="M116.5,52.1c0-3.1,0.9-5.3,2.6-6.8c1.4-1.2,3.2-1.8,5.2-1.8c2.3,0,4.1,0.7,5.6,2.2c1.4,1.5,2.2,3.6,2.2,6.2
			c0,2.1-0.3,3.8-1,5c-0.6,1.2-1.6,2.2-2.8,2.9c-1.2,0.7-2.6,1-4,1c-2.3,0-4.2-0.7-5.6-2.2C117.2,57,116.5,54.9,116.5,52.1z
			 M119.4,52.1c0,2.1,0.5,3.7,1.4,4.8c0.9,1.1,2.1,1.6,3.5,1.6c1.4,0,2.6-0.5,3.5-1.6c0.9-1.1,1.4-2.7,1.4-4.9
			c0-2.1-0.5-3.6-1.4-4.7c-0.9-1.1-2.1-1.6-3.5-1.6c-1.4,0-2.6,0.5-3.5,1.6C119.8,48.3,119.4,49.9,119.4,52.1z"/>
		<path class="st2" d="M136,60.3V43.8h2.5v2.4c1.2-1.8,3-2.7,5.3-2.7c1,0,1.9,0.2,2.8,0.5c0.8,0.4,1.5,0.8,1.9,1.4
			c0.4,0.6,0.7,1.3,0.9,2.1c0.1,0.5,0.2,1.4,0.2,2.7v10.2h-2.8V50.3c0-1.1-0.1-2-0.3-2.6c-0.2-0.6-0.6-1-1.2-1.4
			c-0.6-0.3-1.2-0.5-2-0.5c-1.2,0-2.2,0.4-3.1,1.1c-0.9,0.8-1.3,2.2-1.3,4.3v9.1H136z"/>
		<path class="st2" d="M160.6,57.8l0.4,2.5c-0.8,0.2-1.5,0.3-2.1,0.3c-1,0-1.8-0.2-2.4-0.5s-1-0.7-1.2-1.3c-0.2-0.5-0.3-1.6-0.3-3.3
			v-9.5h-2.1v-2.2h2.1v-4.1l2.8-1.7v5.8h2.8v2.2h-2.8v9.7c0,0.8,0,1.3,0.1,1.5c0.1,0.2,0.3,0.4,0.5,0.5c0.2,0.1,0.5,0.2,1,0.2
			C159.7,57.9,160.1,57.9,160.6,57.8z"/>
		<path class="st2" d="M174.8,58.3c-1,0.9-2,1.5-3,1.9c-1,0.4-2,0.5-3.1,0.5c-1.8,0-3.2-0.4-4.2-1.3c-1-0.9-1.5-2-1.5-3.4
			c0-0.8,0.2-1.6,0.6-2.2c0.4-0.7,0.9-1.2,1.5-1.6c0.6-0.4,1.3-0.7,2-0.9c0.6-0.1,1.4-0.3,2.5-0.4c2.3-0.3,3.9-0.6,5-1
			c0-0.4,0-0.6,0-0.7c0-1.1-0.3-2-0.8-2.4c-0.7-0.6-1.8-1-3.2-1c-1.3,0-2.3,0.2-2.9,0.7c-0.6,0.5-1.1,1.3-1.4,2.5l-2.8-0.4
			c0.3-1.2,0.7-2.1,1.2-2.9c0.6-0.7,1.4-1.3,2.5-1.7c1.1-0.4,2.3-0.6,3.8-0.6c1.4,0,2.6,0.2,3.5,0.5c0.9,0.3,1.5,0.8,2,1.3
			c0.4,0.5,0.7,1.1,0.9,1.9c0.1,0.5,0.1,1.3,0.1,2.6v3.8c0,2.6,0.1,4.3,0.2,5c0.1,0.7,0.4,1.4,0.7,2h-2.9
			C175.1,59.8,174.9,59.1,174.8,58.3z M174.6,52c-1,0.4-2.6,0.8-4.6,1.1c-1.2,0.2-2,0.4-2.5,0.6c-0.5,0.2-0.8,0.5-1.1,0.9
			c-0.3,0.4-0.4,0.8-0.4,1.3c0,0.8,0.3,1.4,0.9,1.9c0.6,0.5,1.4,0.8,2.5,0.8c1.1,0,2-0.2,2.9-0.7c0.8-0.5,1.5-1.1,1.9-1.9
			c0.3-0.6,0.5-1.6,0.5-2.8V52z"/>
		<path class="st2" d="M193.3,54.3l2.8,0.4c-0.3,1.9-1.1,3.4-2.3,4.5c-1.2,1.1-2.8,1.6-4.6,1.6c-2.3,0-4.1-0.7-5.5-2.2
			c-1.4-1.5-2.1-3.6-2.1-6.4c0-1.8,0.3-3.4,0.9-4.7s1.5-2.4,2.7-3c1.2-0.7,2.5-1,4-1c1.8,0,3.3,0.5,4.4,1.4c1.1,0.9,1.9,2.2,2.2,3.9
			l-2.7,0.4c-0.3-1.1-0.7-2-1.4-2.5c-0.7-0.6-1.5-0.8-2.4-0.8c-1.4,0-2.6,0.5-3.5,1.5c-0.9,1-1.3,2.6-1.3,4.8c0,2.2,0.4,3.8,1.3,4.9
			c0.9,1,2,1.5,3.3,1.5c1.1,0,2-0.3,2.8-1C192.6,56.7,193.1,55.7,193.3,54.3z"/>
		<path class="st2" d="M205.3,57.8l0.4,2.5c-0.8,0.2-1.5,0.3-2.1,0.3c-1,0-1.8-0.2-2.4-0.5s-1-0.7-1.2-1.3c-0.2-0.5-0.3-1.6-0.3-3.3
			v-9.5h-2.1v-2.2h2.1v-4.1l2.8-1.7v5.8h2.8v2.2h-2.8v9.7c0,0.8,0,1.3,0.1,1.5c0.1,0.2,0.3,0.4,0.5,0.5c0.2,0.1,0.5,0.2,1,0.2
			C204.4,57.9,204.8,57.9,205.3,57.8z"/>
		<path class="st3" d="M219.5,58.3c-1,0.9-2,1.5-3,1.9c-1,0.4-2,0.5-3.1,0.5c-1.8,0-3.2-0.4-4.2-1.3c-1-0.9-1.5-2-1.5-3.4
			c0-0.8,0.2-1.6,0.6-2.2c0.4-0.7,0.9-1.2,1.5-1.6c0.6-0.4,1.3-0.7,2-0.9c0.6-0.1,1.4-0.3,2.5-0.4c2.3-0.3,3.9-0.6,5-1
			c0-0.4,0-0.6,0-0.7c0-1.1-0.3-2-0.8-2.4c-0.7-0.6-1.8-1-3.2-1c-1.3,0-2.3,0.2-2.9,0.7c-0.6,0.5-1.1,1.3-1.4,2.5l-2.8-0.4
			c0.3-1.2,0.7-2.1,1.2-2.9c0.6-0.7,1.4-1.3,2.5-1.7c1.1-0.4,2.3-0.6,3.8-0.6c1.4,0,2.6,0.2,3.5,0.5c0.9,0.3,1.5,0.8,2,1.3
			c0.4,0.5,0.7,1.1,0.9,1.9c0.1,0.5,0.1,1.3,0.1,2.6v3.8c0,2.6,0.1,4.3,0.2,5c0.1,0.7,0.4,1.4,0.7,2h-2.9
			C219.8,59.8,219.6,59.1,219.5,58.3z M219.3,52c-1,0.4-2.6,0.8-4.6,1.1c-1.2,0.2-2,0.4-2.5,0.6c-0.5,0.2-0.8,0.5-1.1,0.9
			c-0.3,0.4-0.4,0.8-0.4,1.3c0,0.8,0.3,1.4,0.9,1.9c0.6,0.5,1.4,0.8,2.5,0.8c1.1,0,2-0.2,2.9-0.7c0.8-0.5,1.5-1.1,1.9-1.9
			c0.3-0.6,0.5-1.6,0.5-2.8V52z"/>
		<path class="st3" d="M227.2,60.3V43.8h2.5v2.5c0.6-1.2,1.2-2,1.8-2.3s1.1-0.6,1.8-0.6c0.9,0,1.9,0.3,2.9,0.9l-1,2.6
			c-0.7-0.4-1.4-0.6-2.1-0.6c-0.6,0-1.2,0.2-1.7,0.6c-0.5,0.4-0.8,0.9-1,1.5c-0.3,1-0.5,2.1-0.5,3.3v8.7H227.2z"/>
	</g>
</g>
</svg>
