<?xml version="1.0" encoding="utf-8"?>
<!-- Generator: Adobe Illustrator 21.0.2, SVG Export Plug-In . SVG Version: 6.00 Build 0)  -->
<svg version="1.1" id="Layer_1" xmlns="http://www.w3.org/2000/svg" xmlns:xlink="http://www.w3.org/1999/xlink" x="0px" y="0px"
	 viewBox="0 0 238.3 238.4" style="enable-background:new 0 0 238.3 238.4;" xml:space="preserve">
<style type="text/css">
	.st0{fill:#FFFFFF;}
</style>
<g>
	<path class="st0" d="M234.5,91.7c0,63.6-51.7,115.3-115.3,115.3C55.6,207,3.8,155.3,3.8,91.7H0c0,65.7,53.5,119.2,119.2,119.2
		c65.7,0,119.2-53.5,119.2-119.2H234.5z"/>
	<path class="st0" d="M119.2,161.8c-38.7,0-70.1-31.5-70.1-70.1h-3.8c0,40.8,33.2,74,74,74c40.8,0,74-33.2,74-74h-3.8
		C189.3,130.4,157.8,161.8,119.2,161.8z"/>
	<path class="st0" d="M70.9,224.9c0,3.1,0.1,5.7,0.3,8.4h-0.1c-0.9-2.2-2.1-4.5-3.4-6.8l-5.2-8.7h-4.2V238h3.4v-7.2
		c0-3.3,0-6-0.2-8.6l0.1,0c1,2.3,2.3,4.8,3.6,7l5.3,8.9h3.8v-20.2h-3.4V224.9z"/>
	<path class="st0" d="M93.2,217.8h-4.6l-5.3,7.1c-0.5,0.7-1,1.4-1.5,2.2h-0.1v-9.3h-3.7V238h3.7v-7.1l1.8-2.2l5.7,9.3h4.3l-7.4-11.6
		L93.2,217.8z"/>
	<polygon class="st0" points="110.6,217.8 95.3,217.8 95.3,220.9 101.1,220.9 101.1,238 104.8,238 104.8,220.9 110.6,220.9 	"/>
	<rect x="108.9" y="228.8" class="st0" width="7.6" height="2.5"/>
	<rect x="120.7" y="217.8" class="st0" width="3.7" height="20.2"/>
	<path class="st0" d="M143.5,217.8h-4.6l-5.3,7.1c-0.5,0.7-1,1.4-1.5,2.2h-0.1v-9.3h-3.7V238h3.7v-7.1l1.8-2.2l5.7,9.3h4.3
		l-7.4-11.6L143.5,217.8z"/>
	<path class="st0" d="M157.2,227.2L157.2,227.2c2.2-0.9,3.4-2.6,3.4-4.4c0-1.7-0.8-3-2.1-3.8c-1.4-1-3.1-1.3-5.8-1.3
		c-2.1,0-4.2,0.2-5.4,0.4V238c0.9,0.1,2.5,0.3,4.5,0.3c3.7,0,6.1-0.6,7.5-1.9c1.2-1,1.9-2.4,1.9-4.2
		C161.3,229.4,159.3,227.7,157.2,227.2z M151,220.6c0.4-0.1,1-0.1,2.1-0.1c2.3,0,3.8,0.9,3.8,2.8c0,1.7-1.4,2.9-4,2.9H151V220.6z
		 M152.9,235.5c-0.8,0-1.5,0-1.9-0.1v-6.6h1.8c2.5,0,4.6,1,4.6,3.3C157.4,234.6,155.3,235.5,152.9,235.5z"/>
	<path class="st0" d="M176.3,229.6c0,4-1.6,5.8-4.3,5.8c-2.5,0-4.1-1.8-4.4-5.8v-11.8h-3.4v11.6c0,6.4,3,9,7.7,9
		c4.9,0,8.1-2.8,8.1-9v-11.5h-3.7V229.6z"/>
	<path class="st0" d="M84.7,22.6l1.6,13.2c0,0.3,0.2,0.8,0.3,1c0.1,0.2,0.9,0.6,1.2,0.7c0,0,0.2,0.1,0.8,0c0.6,0,0.6-0.2,0.7-0.5
		c0.1-0.2,0-1.1,0-1.5l-2.6-14.9c-0.1-0.3-0.2-0.9-0.2-1.2c0,0-0.1-0.3-0.1-0.5c-0.1-0.2-0.4-0.8-0.4-0.8c-0.2-0.3-0.3-0.6-0.4-0.6
		c0-0.1-0.2-0.3-0.3-0.5c-0.1-0.2-0.4-0.3-0.4-0.2c-0.1,0.1-0.2,0.9-0.2,1.3l-0.1,0.7c0,0.3-0.1,0.9-0.1,1.2c0,0,0,0.3,0,0.5
		c0,0.2,0.1,0.8,0.1,0.8C84.6,21.7,84.6,22.3,84.7,22.6z"/>
	<path class="st0" d="M66.3,27.4c0.2,0.3,0.4,0.8,0.6,1l7.5,11.8c0.2,0.3,0.5,0.7,0.7,0.9c0.2,0.2,0.4,0.4,0.8,0.6c0,0,0,0,0.4-0.3
		c0.4-0.3,0.4-0.3,0.4-0.3c0.2-0.3,0.3-0.7,0.4-1c0.1-0.3-0.3-1.1-0.5-1.3l-6.2-8.9c-0.2-0.3-0.5-0.7-0.7-1c0,0-0.2-0.3-0.4-0.5
		c-0.2-0.2-0.7-0.8-0.7-0.8c-0.2-0.2-0.6-0.6-0.8-0.9l-0.6-0.6c-0.2-0.2-0.6-0.6-0.9-0.8c0,0-0.2-0.2-0.3-0.2
		c-0.1,0-0.2,0.4-0.2,0.6c0,0.1,0.1,0.5,0.1,0.7C65.9,26.7,66.3,27.4,66.3,27.4z"/>
	<path class="st0" d="M67.2,50.1c0,0,0,0,0.3-0.5c0.3-0.5,0.5-0.8,0.5-0.8c0.2-0.3,0.3-0.7,0.3-1c0-0.2-0.6-0.8-0.9-0.9l-11.9-6.6
		c-0.3-0.2-0.8-0.4-1.1-0.6c0,0-0.4-0.2-0.6-0.3c-0.2-0.1-0.9-0.4-0.9-0.4c-0.3-0.1-0.6-0.2-0.7-0.3c-0.1,0-0.4-0.1-0.7-0.2
		c0,0-0.3-0.1-0.4-0.1c-0.1,0,0.2,0.4,0.2,0.4c0.2,0.3,0.4,0.6,0.5,0.7c0.1,0.1,0.4,0.4,0.6,0.7c0,0,0.3,0.3,0.4,0.5
		c0.2,0.2,0.8,0.6,0.8,0.6c0.3,0.2,0.7,0.5,1,0.7l10.6,7.2c0.3,0.2,0.7,0.4,1,0.6C66.6,50,66.8,50.1,67.2,50.1z"/>
	<path class="st0" d="M62.4,60.1c-0.2-0.1-0.7-0.3-1-0.3l-11.5-1.9c-0.3-0.1-0.9-0.1-1.2-0.2c0,0-0.4-0.1-0.6-0.1
		c-0.2,0-0.9-0.1-0.9-0.1c-0.3,0-0.9-0.1-1.2-0.1l-0.6,0c-0.3,0-0.9,0-1.2,0c0,0-0.4,0-0.3,0.2c0.1,0.1,0.4,0.4,0.6,0.5
		c0.2,0.1,0.5,0.3,0.5,0.3c0.3,0.1,0.7,0.3,0.8,0.3c0.1,0.1,0.5,0.2,0.8,0.3c0.3,0.1,1.2,0.4,1.5,0.4l12.8,3.2
		c0.3,0.1,0.8,0.1,1.1,0.1c0.3,0,0.8-0.4,0.9-0.5c0,0,0,0,0.1-0.4c0.1-0.4,0.1-0.4,0.1-0.4C63,60.9,62.6,60.2,62.4,60.1z"/>
	<path class="st0" d="M137.7,45.9c-0.4,0.1-1.3,0.5-1.3,0.5c-0.3,0.1-0.8,0.3-1.1,0.5l-7,3c-0.3,0.1-0.7,0-1-0.2l-2.3-2.5
		c-0.2-0.2-0.5-0.6-0.5-0.7c-0.1-0.1-0.6-0.1-0.3-0.3l8.5-6.8c0.3-0.2,0.7-0.5,0.9-0.8c0,0,0.3-0.2,0.4-0.4c0.2-0.2,0.7-0.8,0.8-1
		c0.2-0.2,0.3-0.5,0.4-0.6c0-0.1-0.3,0.1-0.3,0.1c-0.3,0.2-0.7,0.4-1,0.6l-8.6,5.6c-0.3,0.2-0.7,0.5-1,0.7c0,0-0.3,0.2-0.5,0.3
		c-0.2,0.1-0.7,0.5-0.7,0.5c-0.3,0.2-0.7,0.5-1,0.7l-2.9,2.1c-0.3,0.2-0.6,0.5-0.8,0.7c-0.2,0.2-0.5,0.7-0.5,0.7c0,0,0,0,0.3,0.4
		c0.3,0.4,0.3,0.4,0.3,0.4c0.3,0.1,0.7,0.3,0.9,0.3c0.2,0,0.9-0.4,1.2-0.6l2.1-1.7c0.3-0.2,0.3-0.1,0.1,0.1c0,0-0.8,1.2-1.6,2.7
		c-0.6,1.1-5.4,7.9-5.4,7.9c-0.2,0.3-0.4,0.2-0.5-0.1c0,0-1.7-4.9-3.3-7.3c-1.8-2.7-7-6.4-13.1-7.4C92.9,42.3,89,43,86,43.8
		c-3,0.8-6.8,2.3-10.3,5.7c-3.4,3.5-4.6,6.2-6.3,9.9c-1.7,3.7-1.2,7-1.1,11c0.2,3.9,2.1,6.6,3.7,9.2c1.6,2.6,4.6,4.9,6.5,6.2
		c1,0.6,2.6,1.2,2.6,1.2c0.3,0.1,0.4,0.4,0.1,0.6c0,0-2.2,2.2-4,3.6C75.6,92.7,72,95,72,95c-0.3,0.2-0.6,0.1-0.6-0.2L71,93.3
		c-0.1-0.3,0-0.8,0.2-1l1.6-1.5c0.2-0.2,0.6-0.6,0.7-0.9c0.1-0.2,0.4-0.9,0.4-1.2c0.1-0.2-0.4-0.9-0.5-1c-0.1-0.1-0.4-0.2-0.7-0.3
		c-0.3-0.1-0.8,0-1.1,0.1c-0.3,0.1-1,0.7-1.2,1l-0.6,0.7c-0.2,0.2-0.6,0.2-0.7-0.1l-1.4-2c-0.2-0.2-0.2-0.6,0.1-0.7l1.1-0.6
		c0.3-0.2,0.7-0.5,0.9-0.7c0.2-0.2,0.4-0.4,0.5-0.8c0,0,0,0-0.4-0.5c-0.4-0.5-0.6-0.6-0.6-0.6c-0.3-0.2-0.7-0.4-1-0.4
		c-0.3-0.1-1,0.3-1.3,0.5l-1.4,1.1c-0.3,0.2-0.7,0.2-1,0.1l-3.3-1.7c-0.3-0.1-0.3-0.3,0-0.5l3.4-1.9c0.3-0.2,0.7-0.5,0.9-0.7
		c0.2-0.2,0.4-0.4,0.5-0.8c0,0,0,0-0.3-0.5c-0.3-0.5-0.4-0.6-0.4-0.6c-0.2-0.2-0.6-0.5-0.9-0.6c-0.2-0.1-1,0.2-1.3,0.4l-5.8,4
		c-0.3,0.2-0.5,0.3-0.5,0.3c0,0,0,0,0,0c-2.9-0.2-7,1-9.1,2.1c-2.1,1.1-2.5,2.5-2.2,2.9c0.5,0.7,1.6-0.3,4.8-1.1
		c3.2-0.8,8.6-0.2,11.3,2.3c2.7,2.5,4.8,4.4,5.1,9.2c0.2,2.8-0.3,4.8-0.3,4.8c-0.1,0.3-0.3,0.8-0.6,1c0,0-3.8,2.9-5,4.5
		c-1.7,2.3-1.1,3-0.9,3.8c0.2,0.7,1,0,1.9-1.2c0.9-1.2,3.9-3.6,7.7-4.4c3.8-0.8,7.6,1.4,9.6,2.8c2,1.4,3.2,4.3,3.5,6.3
		c0.3,2,0,3.7,0.2,4.1c0.2,0.5,0.9,0.1,2.5-0.1c1.6-0.3,4.3,0.4,5.6,1.1c1.3,0.6,3.8,1.9,5.5,5c1.7,3.1,0.5,7.5,0.5,7.8
		c0,0.3-0.2,0.2-0.8,0c-0.6-0.2-2.9-0.7-7-0.4c-4.1,0.3-7.5,2.7-9.1,4.4c-1.6,1.7-1.6,2.9-1.6,3.3c0,0.4,0.9,0.3,1.7-0.5
		c0.8-0.8,3.6-2.8,7-3.2c3.4-0.4,7.5,0.1,9.9,2.5c2.5,2.4,3.9,3.8,3.9,7.6c0,3.8-2.5,5.4-3,5.9c-0.6,0.5-0.3,0.8,1.1,0.7
		c1.4-0.2,3.2-2.4,4.6-4.7c1.4-2.3,1-6.2,0.8-7.4c-0.2-1.1-0.4-1.4-0.1-1.6c0.2-0.2,4-3.2,8.5-3.1c4.5,0.2,6.6,2,7.9,3
		c1.3,1,1.8,2.6,1.6,2.8c-0.2,0.2-1.2,0.4-3.3,2.2c-2.1,1.9-3.5,5.4-3.6,7.3c-0.2,1.9,0.4,3.6,0.7,4.1c0.3,0.5,1.2,0.6,1.5,0.3
		c0.3-0.3-0.1-2,0.1-3.2c0.1-1.3,1.1-3.2,2.2-4.4c1.1-1.2,1.8-2.3,5.2-2.7c3.4-0.4,6.3,1,6.5,1.2c0.2,0.2,0.2,1.9,1.5,4.2
		c1.3,2.3,4.3,3.3,5.1,3c0.8-0.3,0.4-0.8-0.1-1.1c-0.5-0.3-1.6-1.1-3-3.5c-1.4-2.3-1.1-5.1,0.3-8.2c1.3-3.1,4.3-4.6,6.5-5.1
		c2.2-0.5,6.1,0,6.2,0.9c0.1,0.9,1,4.4,3,6.3c2,1.9,4.4,2.1,5.2,1.8c0.9-0.3,0.2-0.8-1.3-1.7c-1.6-0.9-3.3-3.9-3.4-7.6
		c-0.2-3.7,2.5-6.8,5.3-8.3c2.9-1.5,5.6-1.9,9.1-1.2c3.6,0.7,4.5,4.1,4.7,4.5c0.2,0.4,0.4,0.4,0.9,0c0.4-0.4,0.5-1.7-0.1-3.1
		c-0.5-1.4-2.6-4.1-6.9-5.6c-2.8-0.9-7.5,0.5-7.9,0.7c-0.4,0.2-0.4,0.2-0.4,0.2c-0.1-0.1-0.3-0.5-0.4-0.8c0,0-1.2-3.6-1.1-5
		c0.1-1.4,0.5-4.4,3.1-6.3c2.7-1.9,5.3-1.5,6.8-1.4c1.5,0.1,3,1.6,3.5,1.4c0.6-0.2,0.3-1.2-0.8-2.4c-1.1-1.3-2.1-4.2-1.9-7.2
		c0.2-3,1.4-5,4.2-7.8c2.8-2.8,7-2.7,9.7-2.5c2.7,0.2,5.7,2.5,5.7,2.5c0.3,0.2,0.6,0.6,0.8,0.9c0,0,0.1,0.1,0.4-0.4
		c0.3-0.5-1.1-2.7-1.7-3.3c-0.6-0.6-3.7-2.7-5.2-3.2c-1.5-0.5-5.4-1.3-8.2-0.5c-1,0.3-2.5,1.2-2.5,1.2c-0.3,0.2-0.6,0.1-0.8-0.2
		c0,0-1.5-2.9-2.3-4.4c-1.3-2.5-1.3-3.3-1.8-3.6c-0.6-0.4-1.4-0.6-2.7-1c-1.3-0.4-2.4-0.7-5.4-2.2c-3.1-1.5-6.4-2.8-9.5-7
		c-1.2-1.6-2.1-3.6-2.1-3.6c-0.2-0.3-0.1-0.5,0.3-0.5l12.7-0.6c0.3,0,0.9,0,1.2-0.1c0.3,0,1.3-0.1,1.6-0.2c0,0,0.3,0,0.9-0.3
		c0.6-0.2,0.6-0.2,0.6-0.2c0,0-0.3-0.1-0.6-0.3c-0.3-0.1-1.2-0.3-1.6-0.3l-2.8-0.2c-0.3,0-0.9-0.1-1.2-0.1c-0.3,0-1.2-0.2-1.4-0.2
		c-0.2,0-0.7-0.1-1-0.1c-0.3,0-1.3,0-1.6,0l-8.6,0c-0.3,0-0.7-0.2-0.9-0.5c0,0-0.3-0.5-0.6-1.1c-1.5-2.8-0.8-2.8-1.9-3.7
		c-0.2-0.2-0.5-0.3-0.5-0.3c-0.3-0.2-0.3-0.4,0-0.4c0.3-0.1,0.8-0.2,1.1-0.3c0.3-0.1,1.2-0.3,1.4-0.4c0.3-0.1,0.7-0.2,1-0.3
		c0.3-0.1,1.2-0.4,1.6-0.5l1-0.3c0.3-0.1,0.8-0.3,1.1-0.4c0,0,0.3-0.1,0.5-0.2c0.2-0.1-0.6-0.1-0.6-0.1c-0.3,0-0.9,0.1-1.2,0.1
		l-6,0.6c-0.3,0-0.9,0.1-1.2,0.1c-0.3,0-1.3,0.1-1.6,0.1l0,0c-0.3,0-0.8-0.1-1.1-0.3c0,0-0.2-0.1-0.6-0.4c-0.8-0.5-3.3-2.4-3.3-2.4
		c-0.3-0.2-0.2-0.5,0.1-0.6l10.2-5.1c0.3-0.1,0.8-0.4,1.1-0.5c0.3-0.1,1.1-0.6,1.4-0.8l3-1.7c0.3-0.2,0.7-0.5,1-0.6
		c0,0,0.3-0.2,0.4-0.4c0.1-0.2-0.5-0.1-0.5-0.1c-0.3,0.1-0.8,0.2-1.2,0.3l-6.4,2.2c-0.3,0.1-0.8,0.3-1.1,0.4
		C138.6,45.6,138.1,45.7,137.7,45.9z M77.4,79c-3.3-2.7-4.1-6.7-4.8-10.5c-0.6-3.8,0.6-6.6,1.9-10c1.3-3.4,4.6-7.1,10.1-9.9
		c5.6-2.9,13.6-1.4,17.2-0.2c3.6,1.3,4.1,1.5,7.2,5.5c2.2,2.8,2.6,8,2.6,8c0,0.3-0.2,0.8-0.4,1c0,0-1.3,1-2.2,1.5
		c-6.3,3.7-9.4,4.3-10.8,4.9c-1.4,0.6-6.7,2.7-7.5,2.9c-0.9,0.2-1.7,0.3-2.1,1.5c-0.3,1.2-1.4,5.4-3.9,9.7c-0.1,0.1-0.1,0.1-0.1,0.1
		c-0.1,0.1-0.4,0-0.6-0.1C84,83.4,80,81.1,77.4,79z M133.8,59.2c1.5,0.5,3.2,0.5,3.7,1.1c0.5,0.6,0.5,1.1,0.7,1.8
		c0.3,1.8,1.5,5.1,2.1,6.3c0.9,1.7,3.1,5.7,7.7,8.7c2.8,1.8,5.8,3.5,9,4.6c2.8,1,3.2,0.5,4.2,1.1c0.5,0.3,2.4,4.7,2.4,4.7
		c0.1,0.3,0,0.7-0.3,0.8c0,0-2.9,1.2-4.2,1.4c-1.4,0.2-3.2-0.2-3.2-0.2c-0.3-0.1-0.7-0.4-1-0.6c0,0-0.2-0.2-0.9-0.5
		c-0.7-0.3-2.2,0.4-2.9,0.5c-0.8,0.1-1.6,0.6-2.1-0.6c-0.5-1.2-0.7-1.6-1-2.5c-0.4-0.9-1-1-1.7-0.9c-0.7,0.1-1.6,0.4-2.8-0.4
		c-1.2-0.9-3.2-1.5-3.5-1.1c-0.3,0.4-0.1,2.1,0.5,2.6c0.6,0.4,2.1,0.7,3.5,1.2c1.4,0.6,1.7,2,1.5,2.9c-0.2,0.9-0.6,2.4-0.7,3.2
		c-0.1,0.8,0.2,1.1,0.8,0.9c0.6-0.2,0.9-0.4,1.6-0.2c0.7,0.2,1.2,0.4,1.7,0.3c0.5-0.1,1.8,0.5,1.3,1.5c-0.5,1-1.1,2.4-1.4,3
		c-0.2,0.6-0.5,1-1.1,0.9c-0.6-0.1-1.3,0.3-1.8,0.5c-0.5,0.2-1.9,0.7-3,0.2c-1.1-0.5-2.1-1.3-2.9-2.6c-0.8-1.3-1.5-0.5-1.9-0.3
		c-0.4,0.1-1.7,0.5-2.2-0.4c-0.5-0.9-0.6-2.2-0.4-3c0.3-0.8,0.9-2.3,0.8-3.2c-0.1-0.9-0.5-0.7-0.9-1.4c-0.4-0.8-0.6-1.9-1.2-1.9
		c-0.6,0-1.9,1.1-1.9,2.2c0,1.1,0.7,2.9,0.3,3.8s-1.4,1.9-1.3,2.6c0.1,0.7,0.4,1.6,1.3,2.7c0.9,1.1,0.9,2.5,2,2.7
		c1.2,0.2,2.1,0,2.8-0.4c0.7-0.4,1.5,0.1,2,0.8c0.5,0.7,2.5,3,5.2,2.7c2.7-0.3,4.2-1.6,4.6,0c0.5,1.6,0.7,2.3,1.8,3
		c1,0.7,1,2,0.7,2.3c-0.2,0.3-0.6,0.5-2,0.4c-1.3-0.1-2.7,0-3.1-1.3c-0.4-1.3-1.2-2.6-2.4-2.8c-1.2-0.1-2.9,0.7-3.6,0.4
		c-0.7-0.3-2.2-0.8-2.5-0.3c-0.3,0.5,0.9,1.4,1.8,2.1c1,0.6,2,2,2.2,3.1c0.2,1.1,0.2,1.8-0.3,2.9c-0.5,1-0.2,3.5,1,3.8
		c1.2,0.4,4.2,0.7,4,3.6c-0.3,2.9-2.6,4.9-5.9,5.9c-3.3,1-3.4,0.1-4.8,1.4c-1.3,1.3-2.3,1.7-3.1,0.9c-0.8-0.8-1.6-0.5-2.7-0.7
		c-1.1-0.2-1.8-0.6-2.7-1.5c-0.9-0.8-1.2-0.8-1.4-2.6c-0.2-1.8-0.4-2-1.3-1.9c-1,0.1-0.8,1-1.8,0.5c-1-0.4-0.5-1.1,0-1.9
		c0.5-0.8,1.3-1.7,0.6-2.1c-0.7-0.3-1.5-0.6-4.6-0.2c-3,0.4-3.3,1.2-5,0.8c-1.7-0.4-0.4-2.7,1.4-3.1c1.8-0.4,2.5-1.3,2.1-2.5
		c-0.4-1.2-1.1-2.2-1.3-2.9s-0.6-1.4,1.5-2.9c2.1-1.5,2.1-1.9,2.2-3.5c0-1.5-0.4-2.4-0.8-2.9c-0.5-0.5-2.2-0.4-1.3-1.6
		c0.9-1.2,2.1-2.4,1.7-3.8c-0.3-1.4-0.6-1.8-0.1-3c0.4-1.2,0.2-1.8,0-2.3c-0.2-0.6-0.3-0.8-0.2-1.3c0-0.5-0.7-0.8-1,0
		c-0.4,0.8-0.9,1.5-1.9,2.4c-0.9,0.9-1.1,2-0.7,2.6c0.4,0.6,1.2,1.3-0.1,1.8c-1.2,0.5-2,1.2-2.2,2.5c-0.1,1.3,0.7,2.1,0.5,2.8
		c-0.2,0.7-1,2.7-2.1,2.5c-1.1-0.2-1.2-1.8-1.3-3.3c-0.1-1.5-0.2-2.5-0.7-3.2c-0.5-0.7-1-0.7-0.9,0.6c0.1,1.3,0.5,3.1-1.3,4.6
		c-1.8,1.4-2.5,2.7-2.2,3.8c0.2,1.1,0.4,2.1,1.9,2.3c1.5,0.2,1.8,0.3,2.6-0.4c0.7-0.7,2-0.5,1.7,0.5c-0.4,1-0.2,1.4-1.6,2.2
		c-2.7,1.6-2.4,2-3.1,2.8c-0.6,0.7-1.8,1.3-2.9,1.3c-1.1-0.1-1.8-2.2-3.2-2.2c-1.4,0-1.2,0.2-2.3,0.1c-1.2-0.1-1.8,0.6-2.3,1.1
		c-0.5,0.5-1.2,0.7-3.6,0.3c-0.2,0-0.3-0.1-0.5-0.1c-0.1,0-0.1,0-0.2,0c-0.3-0.1-0.3-0.1-0.3-0.1c-0.2,0-0.7-0.1-1-0.1
		c0,0-0.1,0-0.4,0c-1.4-0.1-3.1,0.2-3.1,0.2c-0.3,0.1-0.6-0.1-0.6-0.5c0,0,0,0-0.1-2.1c-0.1-1-0.7-2.6-0.7-2.6
		c-0.1-0.3,0-0.7,0.3-0.8c0,0,2.4-1,3.6-1c1.3,0,2.1,0.8,1.3,1.9c-0.8,1.2-0.9,1.4-0.7,1.8c0.2,0.4,0.7,0.4,1.7-0.1
		c1-0.5,1.1,0,1.5,0.4c0.4,0.4,1.3-0.2,2.3-0.9c0.9-0.7,2.1-1.6,3.6-2.2c1.6-0.5,1.8-1,2-1.5c0.2-0.5,0.2-1.1,0.5-1.8
		c0.3-0.8,0.7-1.5,1.1-1.9c0.4-0.4,1-0.8,0.9-1.5c-0.1-0.7-0.1-0.8-1.3,0.1c-1.2,0.9-2,0.9-3,1c-1,0.1-0.5,0.6-0.6,1.5
		c-0.1,0.9-0.8,1.2-1.9,1.9c-1.1,0.7-2.8,1.4-3.4,1c-0.6-0.4,0.5-2,1-2.6c0.4-0.6,1.2-0.6,1.6-1.7c0.5-1.1,1-1.7,2-2.6
		c1-0.9,3-1.9,4.1-2.5c1.1-0.6,0.3-1.6,0.2-2.4c-0.2-0.8,0.7-1.5,1.2-2.2c0.5-0.7,0.7-1.5,0.4-2.7c-0.3-1.2-0.6-1.3-1.3-1.6
		c-0.7-0.3-0.8-0.6-0.3-1.9c0.5-1.3,2.5-2.9,3.5-3.4c1-0.6,1.2-0.8,1.3-1.5c0.2-0.7,0.5-1,1-2c0.5-1-0.1-0.9-0.9-0.7
		c-0.8,0.3-1.9,0.6-2.9,0.7c-1,0.1-1.3,0.5-2.2,1.5c-0.9,1-2.2,2-3.1,2.5c-0.8,0.5-0.5,0.9-0.1,1.6c0.4,0.7,0.2,0.9,0.1,1.6
		c-0.1,0.7,0,1.6-0.4,2.9c-0.4,1.3-0.9,1.8-2.4,2.3c-1.5,0.4-1.8-1-1.5-1.9c0.3-0.9,0.6-2.7-0.2-2.9c-0.8-0.2-1.7,2.3-2.4,3.5
		c-0.7,1.3-1.5,2.4-2.6,3.4c-1.1,1.1-0.9,2.2-0.8,3.3c0.1,1.1,0.3,1.8-0.5,3.3c-0.8,1.5-3.1,0.2-5.1,1c-1.9,0.8-3.2-0.4-3.8-0.9
		c-1.3-0.9-0.6-1.4-1.7-2.2c-1.1-0.9-5.4-0.1-5.4-0.1c-0.3,0.1-0.6-0.1-0.6-0.3c0-0.2,0.3-0.9,0.6-1.1c0,0,8-3.1,11.1-6
		c3.8-3.6,4.5-5.4,6.1-8.6c1.6-3.3,2.6-7.8,3-8.6c0.3-0.8,2.7-0.7,5.7-1.6c3.8-1.2,11-3.3,15.4-6.9c4.8-4,6.9-6.5,8.2-10.3
		c1.4-3.8,2.1-5.7,2.6-6.2c0.5-0.5,1.3,2.3,3.6,4.5C130.2,57.1,132.1,58.6,133.8,59.2z"/>
	<path class="st0" d="M127.2,60.2c-0.7-0.7-1.8-1.7-2.1-1.2c-0.3,0.5,1,2,0.8,3.8c-0.1,1.9,0.1,3.4,1.1,4.3c1,1,1.6,1.7,2.6,1.1
		c1-0.6,2.3-0.6,2.8,0.1c0.6,0.7,1,0.6,1.1-0.1c0.1-0.7,0.1-0.9,0.1-0.9c0-0.3,0-0.9,0.1-1.2c0,0,0.2-1.8-0.5-2.1
		c-0.7-0.4-1.6,0.2-2.3,0.4c-0.6,0.2-1.3,0.6-1.8,0.1c-0.5-0.6-0.9-1-0.6-1.9C128.7,61.8,127.9,60.9,127.2,60.2z"/>
	<path class="st0" d="M137.4,77.9c0.7,0.5,1.1,0.9,1.6,1.2c0.5,0.3,0.7,1,1.3,1.4c0.6,0.4,1.5,0.1,2,0.6c0.5,0.5,1,0.7,1.1,0.3
		c0.3-0.6-0.2-1.2-0.6-1.9c-0.4-0.7-0.5-1.3-2-1.7c-1.4-0.4-3-0.9-3.6-1.1c-0.7-0.2-1.3-0.4-1.3-0.1C136,76.9,136.8,77.3,137.4,77.9
		z"/>
	<path class="st0" d="M130.4,81.4c-0.6-0.6-1.3-0.6-1.5-1c-0.3-0.3-0.5-1-0.8-0.4c-0.3,0.6,0.2,1,0.6,1.9c0.4,0.9,0.4,1.1,0.9,2.3
		c0.5,1.2,1,1.2,1,1.2c0.3,0,0.9,0,1.2,0c0,0,0.2,0,0.7-0.2c0.5-0.2,0.5-0.6,0.3-1C132.5,83.7,131,82,130.4,81.4z"/>
	<path class="st0" d="M130.4,122c-0.3-0.8-0.8-1.2-1.2-1.4c-0.4-0.2-0.6-0.4-1.4-0.5c-0.5,0-0.7-0.1-0.7,0c-0.1,0.1,0,0.7,0.3,1.1
		c0.4,0.5,1,1.3,1.2,1.8c0.2,0.6,0.2,0.8,0.3,1.3c0.1,0.4,0.4,0.4,0.9,0.4c0.5,0,1,0.1,1.7,0.7c0.7,0.6,2.5,1.1,3.1,0.6
		c0.6-0.5,1.1-0.9,1.4-1.6c0.3-0.7,1-1.4,1.9-1.4c0.8,0,1.3,0.2,1.8-0.6c0.4-0.8,1.2-2,1-2.7c-0.2-0.5-0.6-0.3-1.2-0.2
		c-0.6,0.1-1.5,0.4-2.2,0.7c-0.7,0.3-1.4,0.5-2.2,0.3c-0.8-0.2-1.2-0.5-1.5-0.3c-0.4,0.2-0.5,0.7-0.7,1.2c-0.2,0.4-0.8,1.2-1.3,1.1
		C130.9,122.6,130.7,122.9,130.4,122z"/>
	<path class="st0" d="M119.7,82.9c-0.1-0.7,0.2-1.8-0.3-2.1c-0.5-0.3-1.1,0.5-1.4,1.4c-0.3,0.9-0.7,2.5-0.4,3.9
		c0.3,1.4,0.7,1.6,1.4,1.5c0.7-0.2,0.7-0.2,0.7-0.2c0.1-0.2,0.4-0.6,0.6-0.8c0,0,0.2-0.3-0.3-1.4C119.6,84,119.8,83.6,119.7,82.9z"
		/>
	<path class="st0" d="M99,37.6c0.5,0.1,0.6,0,0.6,0c0.3-0.1,0.7-0.3,0.9-0.4c0.2-0.1,0.5-0.9,0.5-1.3l2.6-15.4
		c0.1-0.3,0.1-0.8,0.2-1.1c0-0.3,0.1-1.2,0.1-1.6l0-0.5c0-0.3,0-0.9,0-1.2c0,0,0-0.4,0-0.6c0-0.3-0.1-0.3-0.3-0.1
		c-0.1,0.2-0.4,0.8-0.4,0.8c-0.1,0.3-0.3,0.7-0.4,0.8c-0.1,0.2-0.2,0.5-0.3,0.8c-0.1,0.3-0.3,1.2-0.4,1.5l-0.3,1.4
		c-0.1,0.3-0.2,0.8-0.2,1.1c-0.1,0.3-0.3,1.2-0.3,1.5l-2.8,12.1c-0.1,0.3-0.2,0.8-0.2,1.1C98.4,36.9,98.5,37.5,99,37.6z"/>
	<path class="st0" d="M109.2,41c0.1,0.2,0.2,0.5,0.4,0.8c0,0,0,0,0.4,0.2c0.4,0.2,0.4,0.2,0.4,0.2c0,0,0.2-0.2,0.4-0.3
		c0.2-0.2,0.6-0.8,0.8-1.1l8.1-13.7c0.2-0.3,0.4-0.8,0.6-1c0,0,0.1-0.2,0.2-0.4c0.1-0.2,0.2-0.7,0.2-0.7c0.1-0.3,0.2-0.7,0.3-0.9
		c0-0.2,0.1-0.6,0.2-0.9c0,0,0-0.1,0-0.2c0-0.1-0.2,0.1-0.2,0.1c-0.2,0.2-0.6,0.7-0.8,0.9l-0.9,1.2c-0.2,0.3-0.5,0.7-0.8,0.9
		c0,0-0.1,0.1-0.3,0.3c-0.1,0.2-0.4,0.6-0.4,0.6c-0.2,0.3-0.5,0.7-0.7,1l-7.6,11.8C109.5,40.1,109.2,40.8,109.2,41z"/>
	<path class="st0" d="M61.4,71.9l-14.8,3.6c-0.3,0.1-0.8,0.2-1.2,0.3c0,0-0.3,0.1-0.5,0.2c-0.2,0.1-0.9,0.5-1.2,0.7
		c-0.3,0.2-0.5,0.4-0.6,0.5c-0.1,0.1,0.3,0.1,0.3,0.1c0.3,0,0.9-0.1,1.2-0.1l10-1.2c0.3,0,0.9-0.1,1.2-0.1c0,0,0.3,0,0.5-0.1
		c0.2,0,0.9-0.1,0.9-0.1c0.3-0.1,0.9-0.2,1.2-0.2l3.4-0.6c0.3-0.1,0.8-0.2,1.1-0.3c0.3-0.1,0.7-0.5,0.8-0.5c0,0,0,0-0.1-0.5
		c-0.1-0.5-0.2-0.7-0.2-0.7c-0.2-0.3-0.5-0.6-0.7-0.8C62.6,71.8,61.8,71.8,61.4,71.9z"/>
	<path class="st0" d="M92.1,36.7c0.2,0.2,0.3,0.4,0.5,0.4c0.9,0,1.1,0,1.5,0c0,0,0,0,0.4,0c0.4,0,0.6-1.6,0.6-1.6
		c0-0.3,0.1-0.9,0.1-1.2L94.5,9.3c0-0.3,0-0.8,0-1.1c0-0.3-0.1-1.2-0.1-1.6l0-0.2c0-0.3-0.1-0.8-0.1-1.1c0-0.3-0.2-1.2-0.2-1.5
		l-0.4-2.2c-0.1-0.3-0.2-0.9-0.2-1.2c0,0,0-0.2-0.1-0.3c-0.1-0.1-0.1,0.3-0.1,0.3c-0.1,0.3-0.2,0.9-0.2,1.2l-0.5,3.9
		c0,0.3-0.1,0.9-0.2,1.2c0,0,0,0.3-0.1,0.5c0,0.2,0,0.8,0,0.8c0,0.3,0,0.9,0,1.2l-0.3,25.7c0,0.3,0,0.9,0.1,1.2
		C91.9,35.9,91.9,36.5,92.1,36.7z"/>
	<path class="st0" d="M26.7,67.8c0.3,0,0.9,0.1,1.2,0.1l5.5,0.5c0.3,0,0.9,0.1,1.2,0.1l0.9,0.1c0.3,0,0.8,0.1,1.1,0.1
		c0.3,0,0.8,0,1.1,0.1l0.9,0c0.3,0,0.9,0,1.2,0l21,0.3c0.3,0,1.4-0.2,1.6-0.4c0.2-0.2,0.5-0.6,0.7-0.9c0,0,0,0-0.1-0.8
		c-0.1-0.8-0.1-0.8-0.1-0.8c-0.1,0-0.4-0.2-0.7-0.3l-0.6-0.2c-0.3-0.1-0.9-0.1-1.2-0.1l-20.2,0.6c-0.3,0-0.9,0-1.2,0c0,0-0.7,0-1,0
		c-0.3,0-1.4,0.1-1.4,0.1c-0.3,0-0.9,0.1-1.2,0.1l-7.4,0.9c-0.3,0-0.9,0.1-1.2,0.2c0,0-0.8,0.1-0.7,0.2
		C26.1,67.8,26.7,67.8,26.7,67.8z"/>
	<path class="st0" d="M50.5,24.2c0.2,0.3,0.4,0.7,0.6,0.8c0.1,0.2,0.4,0.5,0.6,0.8c0,0,0.4,0.6,0.5,0.8c0.1,0.2,0.8,1,0.8,1
		c0.2,0.2,0.6,0.6,0.8,0.9l14.5,15.3c0.2,0.2,0.6,0.6,0.9,0.8l0.7,0.4c0.3,0.1,0.7,0.2,0.8,0.3c0,0,0,0,0.5-0.4
		c0.5-0.4,0.6-0.6,0.6-0.6c0.1-0.3,0.2-0.8,0.2-1.1c0-0.3-0.7-1.1-1-1.4L54.5,26.6c-0.2-0.2-0.6-0.6-0.9-0.8c0,0-0.6-0.5-0.7-0.7
		c-0.2-0.1-1-0.8-1-0.8c-0.3-0.2-0.7-0.5-0.9-0.7l-0.1-0.1c-0.3-0.2-0.7-0.5-1-0.7c0,0-0.3-0.2-0.1,0.1
		C49.9,23.3,50.5,24.2,50.5,24.2z"/>
	<path class="st0" d="M114,43.3c0,0.2-0.1,0.6,0,0.7c0,0,0,0,0.4,0.4c0.4,0.4,0.4,0.4,0.4,0.4c0.3,0,0.7,0,1,0c0.3,0,1-0.6,1.2-0.8
		l15.2-14.6c0.2-0.2,0.6-0.6,0.9-0.8c0,0,0.2-0.2,0.4-0.4c0.2-0.2,0.6-0.7,0.6-0.7c0.2-0.3,0.6-0.7,0.8-0.9l3.6-4.1
		c0.2-0.2,0.6-0.7,0.8-0.9c0,0,0.1-0.2,0.2-0.3c0-0.1-0.3,0.1-0.3,0.1c-0.3,0.2-0.7,0.5-1,0.7l-2.7,2c-0.3,0.2-0.7,0.5-1,0.7
		c0,0-0.3,0.2-0.5,0.3c-0.2,0.1-0.7,0.6-0.7,0.6c-0.3,0.2-0.7,0.6-0.9,0.8l-17.3,15.8C114.6,42.4,114,43.1,114,43.3z"/>
	<path class="st0" d="M73.5,17.1l0.2,0.5c0.1,0.3,0.2,0.8,0.3,1.2l0.2,0.6c0.1,0.3,0.2,0.7,0.3,0.8c0,0.2,0.2,0.5,0.3,0.8l0.2,0.6
		c0.1,0.3,0.3,0.8,0.4,1.1l5.4,14.1c0.1,0.3,0.4,0.8,0.5,1.1c0.2,0.3,0.8,0.7,0.9,0.8c0,0,0,0,0.6-0.2c0.6-0.2,0.8-0.5,0.8-0.5
		c0.2-0.3,0.4-0.7,0.4-1c0.1-0.3-0.2-1.2-0.4-1.5l-6.4-13.1c-0.1-0.3-0.4-0.8-0.5-1.1c0,0-0.3-0.6-0.5-1c-0.2-0.4-1.4-2.6-1.4-2.6
		c-0.2-0.3-0.4-0.8-0.6-1c-0.1-0.3-0.4-0.7-0.6-1c0,0-0.2-0.3-0.4-0.4c-0.1,0-0.1,0.6-0.1,0.6C73.3,16.3,73.4,16.8,73.5,17.1z"/>
	<path class="st0" d="M41.9,45.6c0.3,0.2,0.7,0.4,1,0.6l2.7,1.6c0.3,0.2,0.8,0.4,1,0.6l0.5,0.3c0.3,0.2,0.7,0.4,0.9,0.5
		c0.2,0.1,0.6,0.3,0.9,0.5l0.6,0.3c0.3,0.1,0.8,0.3,1.1,0.5l12,4.9c0.3,0.1,0.8,0.3,1.1,0.3c0.3,0,0.9-0.3,0.9-0.3c0,0,0,0,0.1-0.5
		c0.1-0.5,0.1-0.5,0.1-0.5c0-0.2,0-0.6-0.1-0.9c-0.1-0.2-0.9-0.7-1.2-0.8l-12.4-4.4c-0.3-0.1-0.8-0.3-1.1-0.4c0,0-0.5-0.2-0.7-0.2
		c-0.2-0.1-1-0.3-1-0.3c-0.3-0.1-0.8-0.2-1.2-0.3l-4.3-1.3c-0.3-0.1-0.8-0.2-1.2-0.3c0,0-0.5-0.1-0.5-0.1
		C41.5,45.4,41.9,45.6,41.9,45.6z"/>
	<path class="st0" d="M104.8,39.3c0.5,0.2,1,0.2,1,0.2c0.3,0,0.8-0.1,1-0.2c0.2-0.1,0.6-0.9,0.7-1.2l5.9-19c0.1-0.3,0.3-0.8,0.4-1.1
		c0,0,0.1-0.4,0.2-0.6c0.1-0.2,0.2-0.9,0.2-0.9c0.1-0.3,0.2-0.9,0.3-1.2l0.5-2c0.1-0.3,0.2-0.9,0.3-1.2c0,0,0.1-0.3,0-0.4
		c0-0.1-0.3,0.3-0.3,0.3c-0.2,0.3-0.5,0.7-0.6,1l-0.8,1.3c-0.2,0.3-0.4,0.7-0.6,1c-0.2,0.3-0.6,1.2-0.7,1.5l-0.1,0.2
		c-0.1,0.3-0.4,0.8-0.5,1.1c-0.1,0.3-0.5,1.2-0.6,1.5L104.6,37c-0.1,0.3-0.2,0.8-0.3,1.1C104.2,38.4,104.3,39.1,104.8,39.3z"/>
	<path class="st0" d="M104.2,140.7C104.2,140.7,104.2,140.7,104.2,140.7C104.3,140.8,104.3,140.7,104.2,140.7z"/>
	<path class="st0" d="M129.8,195.1c2-0.2,4-0.5,5.9-0.8c-4.2-3.8-7.9-7.8-11.3-12c2.5-3.6,4.6-6.9,6.7-10.6
		c-1.6,0.3-3.3,0.5-4.9,0.6c-1.8,3-3.3,5.4-5.4,8.5c-0.5,0.8-1.1,1.6-1.7,2.5c0,0-0.1,0-0.1,0c-0.1-3.5-0.1-7.1-0.2-10.6
		c-1.3,0-3.1,0-4.4,0c-0.2,7.7,0,15.3-0.2,23c1.7,0,3.4,0,5.1,0c-0.1-2.7-0.1-5-0.2-7.7c0.8-0.8,1.5-1.7,2.2-2.5
		C123.9,188.9,126.8,191.8,129.8,195.1z"/>
	<path class="st0" d="M165.1,185.7c2.6-1.2,4.1-3.4,4.1-5.5c0,0,0,0,0.1,0c0.5,0.7,1,1.5,1.5,2.2c1.3-0.7,2.6-1.4,3.8-2.2
		c-0.7-0.9-1.8-2.4-2.7-3.9c-3.9-6.1-7.3-11.7-11.1-17.8c-1.1,0.6-2.6,1.5-3.7,2.1c1.8,3.1,3.6,5.9,5.6,9.2c0,0,0,0-0.1,0
		c-1.3-0.7-3.2-0.8-5.2,0.2c-3.5,1.7-5.4,5.9-3.3,11.1C156.1,185.8,160.9,187.7,165.1,185.7z M159.9,172.4c1.7-0.8,3.6-0.3,4.8,0.9
		c0.2,0.3,0.5,0.6,0.7,0.9c0.4,0.7,0.8,1.5,1.3,2.2c0.2,0.4,0.4,0.8,0.5,1.1c0.5,1.8-0.4,3.6-2.2,4.5c-2.7,1.3-5.3-0.1-6.6-2.8
		C157.1,176.3,157.5,173.5,159.9,172.4z"/>
	<path class="st0" d="M192.3,140.7c0,0.9,0.2,1.9,0.6,2.9c0,0,0,0,0,0.1c-2-0.4-3.9,0.2-5.2,1.9c-1.6,2.2-1.2,4.1-0.8,5.6
		c0,0,0,0.1-0.1,0.1c-0.7-0.5-1.3-1-2-1.5c-0.8,0.9-1.7,1.9-2.5,2.8c1.1,0.9,2.4,2,3.8,3.3c2.9,2.7,5.8,5.4,8.7,8.1
		c1.1-1.1,2-2.1,3-3.3c-2.6-2.3-4.9-4.5-7.5-6.7c-0.4-0.3-0.7-0.7-0.9-1.1c-0.6-1.1-0.9-2.7,0.1-3.9c1.2-1.5,3.1-1.3,5,0.1
		c2.6,1.9,5.2,3.7,8,5.7c0.9-1.3,1.7-2.5,2.6-3.8c-2.8-1.9-5.6-3.8-8.4-5.7c-0.4-0.3-0.8-0.7-1.1-1c-0.8-1.1-1-2.6-0.3-3.8
		c1.1-1.8,3-1.8,5.4-0.4c2.7,1.6,5.3,2.9,8.2,4.5c0.8-1.4,1.4-2.7,2.2-4.2c-2.9-1.5-5.9-3-8.8-4.6c-4.8-2.4-7.7-0.7-9.1,1.6
		C192.4,138.4,192.2,139.5,192.3,140.7z"/>
	<path class="st0" d="M218.7,139.9c0.7-1.7,1.3-3.1,2-4.9c-3-1.3-5.8-2.6-8-3.6c0,0,0-0.1,0-0.1c1.6-0.4,3.2-2.2,4-4.7
		c1.5-4.6-0.4-10.3-6.2-11.7c-5.1-1.2-9,1.4-10.1,5.2c-0.8,2.6-0.4,4.6,0.9,6.5c0,0,0,0,0,0.1c-0.8-0.3-1.6-0.5-2.5-0.8
		c-0.5,1.2-1,2.6-1.5,3.8c1.5,0.6,3.1,1.3,5.1,2.3C207.8,134.7,213.3,137.3,218.7,139.9z M203.1,122.8c0.9-2.8,3.6-3.7,6.4-2.8
		c3.2,0.9,4.8,3.5,3.8,6.7c-0.7,2.1-2.4,3.3-4.2,3.1c-0.4,0-0.8-0.1-1.1-0.3c-0.8-0.3-1.6-0.7-2.4-1c-0.3-0.1-0.6-0.4-0.9-0.6
		C203.1,126.7,202.5,124.6,203.1,122.8z"/>
	<path class="st0" d="M143.8,193.1c2.8-0.7,4.8-2.4,5.3-4.5c0,0,0.1,0,0.1,0c0.3,0.8,0.7,1.6,1,2.5c1.4-0.4,2.9-0.9,4.3-1.4
		c-0.5-1-1.2-2.7-1.8-4.4c-1.4-3.8-2.8-7.5-4.3-11.3c-1.3,0.5-2.7,0.9-4,1.3c0.2,0.6,0.4,1.2,0.6,1.7c0,0,0,0-0.1,0
		c-1.1-1-3-1.4-5.2-0.9c-3.8,0.9-6.7,4.7-5.8,10.2C134.7,191.4,139.1,194.2,143.8,193.1z M141.5,179c1.9-0.5,3.6,0.4,4.5,1.9
		c0.2,0.3,0.3,0.7,0.4,1c0.3,0.8,0.5,1.6,0.8,2.4c0.1,0.4,0.2,0.8,0.2,1.2c0.1,1.9-1.2,3.5-3.1,3.9c-3,0.7-5.2-1.1-5.9-4.1
		C137.8,182.3,138.9,179.7,141.5,179z"/>
	<path class="st0" d="M211.4,112.5c5,1.2,9.1-2.1,9.7-7.6c0.3-3.3-0.7-6.3-2.5-7.7c0,0,0-0.1,0-0.1c0.9,0,1.8-0.1,2.6-0.1
		c0.1-1.8,0.1-3.6,0.1-5.4c-1.1,0.1-3,0.2-4.7,0.2c-4,0-8,0-12,0c0,1.7,0,3.4-0.1,5c0.6,0,1.2,0.1,1.8,0.1c0,0,0,0.1,0,0.1
		c-1.3,0.8-2.3,2.7-2.6,5.3C203.4,106.8,206,111.2,211.4,112.5z M210.5,97.3c0.3-0.1,0.8-0.1,1.1-0.1c0.8,0,1.7,0.1,2.5,0.1
		c0.4,0,0.9,0.1,1.2,0.3c1.8,0.6,2.8,2.8,2.6,5.1c-0.3,3.6-2.8,5.1-5.8,4.6c-3.1-0.5-5.2-2.6-4.9-5.8
		C207.4,99.2,208.8,97.7,210.5,97.3z"/>
	<path class="st0" d="M188.7,169.9c1.1-1,2.2-1.9,3.2-3c-0.9-0.8-2.2-2-3.5-3.3c-2.9-2.9-5.7-5.8-8.6-8.7c-1,1-2,1.9-3,2.8
		c0.4,0.5,0.8,0.9,1.2,1.4c0,0,0,0-0.1,0c-1.4-0.4-3.2-0.1-5,1.2c-3,2.3-3.9,6.9-0.8,11.6c2.9,4.3,7.9,5.2,11.6,2.4
		c2.2-1.7,3.2-4.1,2.8-6.3c0,0,0,0,0.1-0.1C187.4,168.6,188,169.2,188.7,169.9z M182.9,170.7c-2.4,1.9-5.1,1-6.9-1.5
		c-1.9-2.5-2.1-5.3,0-7c1.5-1.2,3.4-1.1,4.8-0.1c0.3,0.2,0.6,0.5,0.8,0.8c0.6,0.6,1.1,1.3,1.7,1.9c0.3,0.3,0.6,0.7,0.7,1
		C184.9,167.5,184.4,169.5,182.9,170.7z"/>
	<path class="st0" d="M16.5,110.2c1.3,1.5,3.1,2.3,5.1,1.8c3.1-0.7,4.5-3.6,4.8-6.6c0,0,0,0,0.1,0c1.3,2.8,3.5,3.9,5.5,3.4
		c1.9-0.4,3.2-1.7,3.9-3.3c0.9-1.8,1-3.8,0.7-7.2c-0.2-2.5-0.4-5.2-0.7-6.8c-7.5,0-15.1,0-22.6,0c-0.1,1.5-0.3,4.1-0.1,7.4
		C13.5,104.9,14.7,108.4,16.5,110.2z M33.2,96.5c0.1,0.5,0.2,1.3,0.3,2.7c0.2,3-0.5,4.9-2.7,5.2c-1.9,0.3-3.5-1.4-3.8-4.9
		c-0.1-0.9-0.1-1.7-0.1-2.6C29,96.7,31.1,96.6,33.2,96.5z M16.4,97.4c2.5-0.1,5-0.3,7.5-0.4c0,0.9,0.1,1.8,0.1,2.6
		c0.2,3.6-0.5,6.5-3.1,7c-2.8,0.5-4.2-2.5-4.5-6.1C16.3,99.2,16.3,98.2,16.4,97.4z"/>
	<path class="st0" d="M21.4,135.4c1.2-0.7,2.7-1.4,4.5-2.2c3.6-1.6,7.2-3.3,10.7-4.9c-0.5-1.3-1.1-2.7-1.5-4.1
		c-3.1,1.2-6.3,2.5-9.4,3.7c-0.4,0.2-0.9,0.2-1.3,0.2c-1.2-0.1-2.7-0.9-3.3-2.9c-0.8-2.6,0.7-4.2,3.3-5c2.9-0.9,5.8-1.8,8.7-2.7
		c-0.4-1.5-0.7-2.9-1.1-4.5c-3.2,0.8-6.4,1.6-9.5,2.4c-5.3,1.3-6.3,5.3-5.2,9.1c1.1,3.7,3.4,4.9,4.8,5.3c0,0,0,0,0,0.1
		c-0.8,0.4-1.5,0.8-2.3,1.2C20.2,132.6,20.8,134,21.4,135.4z"/>
	<path class="st0" d="M32.7,155.5c0.9-0.8,2.3-1.9,3.7-3c6.5-4.7,10.8-7.5,16.2-11.5c-0.7-1-1.7-2.5-2.4-3.6
		c-2.6,1.8-5.3,3.6-7.9,5.4c0,0,0,0,0-0.1c0.6-1.3,0.5-3.2-0.6-5.2c-2-3.4-6.4-5.2-11.5-2.7c-4.7,2.2-6.2,7.3-3.8,11.5
		c1.4,2.5,3.7,3.9,5.9,3.8c0,0,0,0,0,0.1c-0.7,0.6-1.4,1.1-2.1,1.7C31,153.1,31.9,154.3,32.7,155.5z M30,145.9
		c-1.6-2.7-0.4-5.4,2.3-6.9c2.8-1.5,5.6-1.3,7,1.1c1,1.7,0.6,3.6-0.5,4.9c-0.2,0.3-0.6,0.5-0.9,0.7c-0.7,0.5-1.4,1-2.1,1.4
		c-0.4,0.3-0.7,0.5-1.1,0.6C33,148.4,31,147.6,30,145.9z"/>
	<path class="st0" d="M51.5,148.1c0.9,1.1,2.3,1.1,3.2,0.2c1-0.9,1.2-2.2,0.3-3.2c-0.8-1-2.1-1-3.2-0.2
		C50.9,145.7,50.7,147,51.5,148.1z"/>
	<path class="st0" d="M51.3,151.5c-0.9-1-2-2.3-2.8-3.3c-4.4,3.6-9,6.8-13.4,10.4c1,1.3,2.1,2.6,3.2,3.8
		C42.8,158.6,47.1,155.2,51.3,151.5z"/>
	<path class="st0" d="M44.9,169.5c3.9,3.5,7.6,3.3,9.5,1c1.5-2,1.3-4.1-0.4-7c-1.2-2-1.4-3-0.7-3.8c0.7-0.8,1.8-0.7,3,0.3
		c1.1,1,1.8,2.3,2.1,3c0.9-0.6,1.7-1.2,2.6-1.8c-0.4-1-1.3-2.3-2.7-3.5c-2.8-2.5-6.2-2.6-8.4-0.6c-1.4,1.3-1.8,3.7,0.1,6.9
		c1.2,2,1.4,3,0.6,3.8c-0.7,0.8-2,0.8-3.5-0.6c-1.3-1.2-2.4-3.1-2.7-4.2c-1,0.5-1.9,1-2.9,1.5C41.9,166,43.1,167.9,44.9,169.5z"/>
	<path class="st0" d="M74.9,187.7c1.5,0.6,3,1.2,4.6,1.7c1.2-3.1,2.4-6.1,3.6-9.2c1.9-5,0-7.7-2.6-8.8c-1.3-0.5-2.4-0.7-3.5-0.5
		c-0.9,0.1-1.9,0.4-2.9,1c0,0,0,0-0.1,0c0.2-2-0.7-3.8-2.6-4.9c-2.4-1.4-4.2-0.8-5.7-0.2c0,0-0.1,0-0.1-0.1c0.4-0.7,0.8-1.4,1.3-2.1
		c-1-0.7-2.3-1.5-3.3-2.2c-0.8,1.2-1.7,2.5-2.9,4.1c-2.4,3.2-4.8,6.3-7.1,9.5c1.3,0.9,2.7,1.9,4,2.7c1.9-2.7,3.8-5.5,5.6-8.2
		c0.3-0.4,0.6-0.8,1-1c1-0.8,2.6-1.2,4-0.4c1.7,1,1.7,2.9,0.6,4.9c-1.6,2.8-3.3,5.6-4.9,8.4c1.4,0.8,2.9,1.5,4.3,2.2
		c1.6-3,3.1-5.9,4.7-8.9c0.2-0.4,0.6-0.8,0.9-1.2c1-0.9,2.4-1.3,3.8-0.7c1.9,0.8,2.2,2.7,1,5.3C77.4,182,76.2,184.8,74.9,187.7z"/>
	<path class="st0" d="M85.4,182.7c-1.8,5,0.8,9.4,5.9,10.5c4.6,1.1,9.7-1,10.6-7c0.8-5-1.7-8.8-6-9.8
		C91.5,175.3,87.3,177.5,85.4,182.7z M97.6,185.5c-0.7,3.3-2.9,5.3-5.4,4.7c-2.7-0.6-3.6-3.4-2.6-6.5c0.8-2.7,2.7-5.1,5.4-4.5
		C97.6,179.9,98.1,183,97.6,185.5z"/>
</g>
</svg>
