<?xml version="1.0" encoding="utf-8"?>
<!-- Generator: Adobe Illustrator 21.0.2, SVG Export Plug-In . SVG Version: 6.00 Build 0)  -->
<svg version="1.1" id="Capa_1" xmlns="http://www.w3.org/2000/svg" xmlns:xlink="http://www.w3.org/1999/xlink" x="0px" y="0px"
	 viewBox="0 0 192.9 66.1" style="enable-background:new 0 0 192.9 66.1;" xml:space="preserve">
<style type="text/css">
	.st0{fill:#FFFFFF;}
</style>
<g>
	<g>
		<path class="st0" d="M0,45.6h4.5v8.3l7.7-8.3h5.6l-8.1,9c0.7,1,2,2.8,3.9,5.4c1.9,2.6,3.3,4.6,4.2,5.9h-5.3l-5.9-8l-2,2.3v5.7H0
			V45.6z"/>
		<path class="st0" d="M20.6,45.6h4.5v20.3h-4.5V45.6z"/>
		<path class="st0" d="M44.3,45.6h4.5v20.3h-4.5l-9.7-12.7v12.7h-4.5V45.6h4.2l9.9,13V45.6z"/>
		<path class="st0" d="M67,55.6h4.6v7.2c-2,2.2-4.8,3.4-8.4,3.4c-3,0-5.5-1-7.5-3c-2-2-3-4.5-3-7.5s1-5.5,3.1-7.5c2.1-2,4.5-3,7.5-3
			c2.9,0,5.4,1,7.6,2.9l-2.3,3.4c-0.9-0.8-1.7-1.3-2.5-1.6c-0.8-0.3-1.6-0.4-2.5-0.4c-1.7,0-3.2,0.6-4.4,1.8
			c-1.2,1.2-1.8,2.7-1.8,4.6c0,1.9,0.6,3.4,1.7,4.6c1.1,1.2,2.5,1.7,4,1.7s2.9-0.3,3.9-0.9V55.6z"/>
		<path class="st0" d="M98.7,48.3c1.9,1.8,2.9,4.2,2.9,7.4s-0.9,5.6-2.8,7.5c-1.9,1.8-4.8,2.8-8.6,2.8h-6.9V45.6h7.2
			C94,45.6,96.8,46.5,98.7,48.3z M95.4,60.3c1.1-1,1.7-2.6,1.7-4.6c0-2-0.6-3.5-1.7-4.6c-1.1-1.1-2.8-1.6-5.1-1.6h-2.5v12.3h2.9
			C92.7,61.9,94.3,61.4,95.4,60.3z"/>
		<path class="st0" d="M120.1,45.6v4H110v4.2h9.1v3.9H110v4.2h10.4v4h-14.9V45.6H120.1z"/>
		<path class="st0" d="M129.2,49.7c-0.4,0.4-0.7,0.8-0.7,1.4c0,0.6,0.3,1.1,0.8,1.4c0.5,0.3,1.8,0.8,3.7,1.2
			c1.9,0.5,3.4,1.2,4.5,2.1c1.1,0.9,1.6,2.3,1.6,4.1c0,1.8-0.7,3.3-2,4.4c-1.4,1.1-3.2,1.7-5.4,1.7c-3.2,0-6.1-1.2-8.7-3.6l2.7-3.3
			c2.2,1.9,4.2,2.9,6.1,2.9c0.8,0,1.5-0.2,2-0.5c0.5-0.4,0.7-0.8,0.7-1.4c0-0.6-0.3-1.1-0.8-1.5c-0.5-0.4-1.5-0.7-3-1.1
			c-2.4-0.6-4.1-1.3-5.2-2.2c-1.1-0.9-1.6-2.3-1.6-4.2s0.7-3.4,2.1-4.5c1.4-1,3.1-1.6,5.2-1.6c1.4,0,2.7,0.2,4.1,0.7s2.5,1.1,3.5,2
			l-2.3,3.3c-1.8-1.3-3.6-2-5.5-2C130.2,49.1,129.6,49.3,129.2,49.7z"/>
		<path class="st0" d="M143,45.6h4.5v20.3H143V45.6z"/>
		<path class="st0" d="M165.6,55.6h4.6v7.2c-2,2.2-4.8,3.4-8.4,3.4c-3,0-5.5-1-7.5-3c-2-2-3-4.5-3-7.5s1-5.5,3.1-7.5
			c2.1-2,4.5-3,7.5-3c2.9,0,5.4,1,7.6,2.9l-2.3,3.4c-0.9-0.8-1.7-1.3-2.5-1.6s-1.6-0.4-2.5-0.4c-1.7,0-3.2,0.6-4.3,1.8
			c-1.2,1.2-1.8,2.7-1.8,4.6c0,1.9,0.6,3.4,1.7,4.6c1.1,1.2,2.5,1.7,4,1.7c1.6,0,2.9-0.3,3.9-0.9V55.6z"/>
		<path class="st0" d="M188.4,45.6h4.5v20.3h-4.5l-9.7-12.7v12.7h-4.5V45.6h4.2l9.9,13V45.6z"/>
	</g>
	<polygon class="st0" points="124.5,0.4 124.5,31.2 68.4,31.2 68.4,0 82.5,19.7 96.7,0 110.5,19.7 	"/>
</g>
</svg>
