<?xml version="1.0" encoding="utf-8"?>
<!-- Generator: Adobe Illustrator 21.0.2, SVG Export Plug-In . SVG Version: 6.00 Build 0)  -->
<svg version="1.1" id="Capa_1" xmlns="http://www.w3.org/2000/svg" xmlns:xlink="http://www.w3.org/1999/xlink" x="0px" y="0px"
	 viewBox="0 0 204.2 60.4" style="enable-background:new 0 0 204.2 60.4;" xml:space="preserve">
<style type="text/css">
	.st0{fill:#FFFFFF;}
	.st1{fill:#FFFFFF;stroke:#000000;stroke-miterlimit:10;}
	.st2{fill:#FC660A;}
</style>
<g>
	<path class="st0" d="M88,25.7l-4.8,10.7l-1.5,3c-0.8,1.5-1.4,2.6-1.8,3.2s-1,0.9-1.7,0.9c-0.8,0-1.3-0.9-1.6-2.7l-0.6-6.5
		c-0.2-1.9-0.3-4.7-0.4-8.3l-1.1,2.8L71,38.3l-0.8,2.5c-0.3,1-0.6,1.7-0.8,2.1c-0.2,0.4-0.4,0.6-0.7,0.8c-0.2,0.1-0.5,0.2-0.8,0.2
		c-0.8,0-1.3-0.4-1.3-1.3c0-0.4,0.2-1.3,0.5-2.5c0.3-1.3,0.9-2.7,1.6-4.3l2.5-6.3l1.8-4.9c0.7-1.9,1.3-3.3,1.9-4.2
		c0.6-0.9,1.3-1.3,2-1.3c0.6,0,1.1,0.4,1.3,1.3c0.2,0.8,0.3,2.7,0.4,5.6c0,3.2,0.2,7.4,0.7,12.4c2-4.2,4.1-8.8,6.2-13.8l0.8-2.3
		c0.8-2.2,1.8-3.4,3-3.4c1.1,0,1.6,1.5,1.6,4.5L90.8,28c0,3.3,0.2,6.3,0.5,9.1l0.3,2.7c0.1,1,0.2,1.8,0.2,2.3c0,0.6-0.2,1-0.6,1.4
		c-0.4,0.4-0.9,0.6-1.3,0.6c-1,0-1.6-1.1-1.7-3.4L88.1,38c-0.1-2-0.2-4-0.2-5.9C87.9,30,88,27.9,88,25.7z"/>
	<path class="st0" d="M103.5,35.5c-1.5-2.4-2.4-4.3-2.7-5.7c-0.3-1.2-0.8-2.6-1.7-4.2c-0.6-1.1-1.1-2.1-1.5-3
		c-0.4-0.9-0.6-1.5-0.6-1.7c0-0.4,0.2-0.9,0.6-1.2c0.4-0.4,0.8-0.6,1.3-0.6c0.5,0,0.9,0.2,1.2,0.7l1,2c1.1,2.2,1.8,3.6,2.1,4.4
		c0.3,0.8,0.6,1.6,0.8,2.5c0.2,0.8,0.7,2,1.6,3.5l5-8.7l1.7-2.5c0.6-0.9,1-1.4,1.2-1.6c0.2-0.2,0.6-0.3,1-0.3c0.4,0,0.7,0.1,1,0.4
		c0.3,0.3,0.4,0.6,0.4,0.9c0,0.5-0.6,1.6-1.8,3.2c-0.2,0.3-0.5,0.7-0.7,1.1l-3.7,6.6c-0.9,1.6-2.2,3.8-4,6.5l-2.5,3.5l-1.1,1.7
		c-0.4,0.6-0.9,0.9-1.5,0.9c-0.4,0-0.7-0.1-1-0.4c-0.3-0.3-0.4-0.6-0.4-0.9c0-0.4,0.7-1.6,2-3.6L103.5,35.5z"/>
	<path class="st0" d="M142.2,19.8c0.4-0.5,1-0.8,1.5-0.8c0.8,0,1.2,0.6,1.2,1.8c0,1.8-0.2,2.9-0.6,3.5c-0.4,0.6-0.9,0.9-1.5,0.9
		c-0.7,0-1.1-0.4-1.3-1.2c-0.2-0.8-0.5-1.2-0.7-1.3c-0.3-0.1-0.8-0.1-1.5-0.1c-1.8,0-4.1,1.6-6.8,4.8c-2.7,3.2-4,6-4,8.4
		c0,1.1,0.3,2,1,2.8c0.7,0.8,1.6,1.2,2.7,1.2c0.9,0,1.8-0.2,2.7-0.5c0.9-0.3,2.1-1.1,3.8-2.2c0.7-0.4,1.2-0.6,1.4-0.6
		c0.4,0,0.7,0.1,1,0.4c0.3,0.3,0.4,0.6,0.4,1c0,0.3-0.1,0.6-0.3,0.9c-0.2,0.3-0.9,0.9-2.2,1.7c-1.3,0.8-2.5,1.4-3.7,1.9
		c-1.2,0.4-2.4,0.6-3.5,0.6c-1.9,0-3.5-0.7-4.7-2c-1.2-1.3-1.8-2.9-1.8-4.7c0-3.3,1.7-7,5.1-11c3.4-4,6.5-6,9.4-6
		C141,19.5,141.8,19.6,142.2,19.8z"/>
	<path class="st0" d="M146.6,42.9c-0.9,0-1.3-0.4-1.3-1.2l0.6-4.8c0.1-1.3,0.4-2.9,0.9-4.8c0.4-1.8,0.6-3,0.7-3.7
		c0.2-1,0.8-1.6,1.8-1.6c0.9,0,1.3,0.4,1.3,1.2c0,0.3-0.3,1.6-0.8,4c-0.5,2.2-0.8,3.8-0.9,4.8c-0.2,1.8-0.4,3.3-0.6,4.4
		C148.2,42.3,147.6,42.9,146.6,42.9z M148.9,21.5c0-0.6,0.2-1,0.7-1.5s0.9-0.6,1.5-0.6c0.5,0,0.9,0.1,1.1,0.4
		c0.3,0.3,0.4,0.6,0.4,1.1c0,0.6-0.2,1-0.6,1.5c-0.4,0.4-0.9,0.6-1.5,0.6c-0.4,0-0.8-0.1-1.1-0.4C149,22.3,148.9,21.9,148.9,21.5z"
		/>
	<path class="st0" d="M156.3,42.5c-0.4,0.5-0.9,0.8-1.3,0.8c-0.4,0-0.6-0.1-0.9-0.3c-0.2-0.2-0.3-0.5-0.3-0.9c0-0.1,0-0.4,0.1-0.8
		c0.3-1.5,0.6-3.1,0.8-5c0.2-1.9,0.5-4.2,0.9-6.8l1.4-8.8c0.1-0.5,0.3-1.1,0.7-1.6c0.4-0.6,0.9-0.8,1.4-0.8c0.7,0,1,0.3,1,1
		c0,0.3-0.1,0.7-0.3,1.4c0,0.1-0.1,0.2-0.1,0.3l-1.2,7.4c2-1.2,3.7-1.9,5.2-1.9c1.9,0,3.4,0.6,4.5,1.9s1.7,2.9,1.7,4.8
		c0,2.9-1,5.3-2.9,7.3c-1.9,2-4.1,3-6.6,3C158.9,43.5,157.5,43.1,156.3,42.5z M158.1,31.6l-0.5,2.7l-0.7,5c1.2,0.6,2,0.9,2.4,1
		c0.5,0.1,1,0.2,1.6,0.2c1.7,0,3.1-0.7,4.3-2c1.2-1.3,1.8-3,1.8-4.9c0-1.3-0.3-2.3-1-3.1c-0.7-0.8-1.6-1.2-2.8-1.2
		C162,29.4,160.3,30.1,158.1,31.6z"/>
	<path class="st0" d="M174.8,38.1c0.9,1.7,2.5,2.6,4.8,2.6c0.8,0,1.8-0.2,2.9-0.5c1.1-0.3,1.9-0.8,2.3-1.3c0.4-0.6,0.9-0.8,1.3-0.8
		c0.3,0,0.6,0.1,0.9,0.4c0.2,0.2,0.3,0.5,0.3,0.8c0,1.1-0.9,2-2.7,2.9c-1.8,0.9-3.6,1.3-5.4,1.3c-2.2,0-4-0.5-5.2-1.6
		s-1.9-2.5-1.9-4.2c0-2.6,0.9-5.1,2.6-7.5c1.7-2.5,4-3.7,6.8-3.7c1.8,0,3.2,0.3,4.2,0.9c1,0.6,1.5,1.5,1.5,2.6
		c0,0.9-0.3,1.7-0.9,2.4c-0.6,0.7-1.3,1.2-2,1.5s-1.7,0.8-2.9,1.3L174.8,38.1z M175,35.2l5.1-2.3c2.2-1,3.6-1.8,4.4-2.4
		c-0.8-0.8-1.9-1.3-3.5-1.3C178.4,29.3,176.4,31.3,175,35.2z"/>
	<path class="st0" d="M203.9,31.2c-0.1,0.4-0.3,0.8-0.6,1.3c-0.3,0.4-0.8,0.7-1.3,0.7c-0.7,0-1.1-0.4-1.1-1.1l0.1-0.8
		c0-0.2,0-0.4,0-0.7l0.2-1.3c-3.1,0.3-5.4,1.8-7,4.4l-1.3,8.5c-0.2,1.1-0.8,1.6-1.8,1.6c-0.9,0-1.3-0.5-1.1-1.6l1.7-10.9
		c0.4-2.5,0.7-3.9,1-4.2s0.7-0.5,1.2-0.5c0.8,0,1.3,0.6,1.3,1.8c0,0.3,0,0.5-0.1,0.8c2.3-1.9,4.6-2.9,7.1-2.9c1.3,0,2,0.8,2,2.5
		c0,0.4,0,0.9-0.1,1.4L203.9,31.2z"/>
	<path class="st1" d="M54.7,20.3c0-4.7-3.8-8.5-8.5-8.5c-0.5,0-1,0.1-1.5,0.1c0-0.1,0-0.2,0-0.3c0-6.1-5-11.1-11.1-11.1
		c-4.2,0-7.9,2.4-9.8,5.9c-1.5-1.1-3.4-1.7-5.3-1.7c-5.1,0-9.3,4.2-9.3,9.3c0,0.6,0.1,1.3,0.2,1.9c-0.3,0-0.6-0.1-0.9-0.1
		c-4.3,0-7.9,3.5-7.9,7.9s3.5,7.9,7.9,7.9c0.1,0,0.3,0,0.4,0C8,33.7,7.6,36,7.6,38.4c0,11.9,9.7,21.5,21.5,21.5s21.5-9.7,21.5-21.5
		c0-3.6-0.9-6.9-2.4-9.9C51.9,27.6,54.7,24.3,54.7,20.3z"/>
	<circle cx="8.4" cy="23.7" r="4.9"/>
	<circle cx="33.6" cy="11.6" r="7.1"/>
	<circle cx="46.2" cy="20.3" r="5"/>
	<circle class="st2" cx="18.4" cy="14" r="6.3"/>
	<path class="st2" d="M29.1,21.4c-2.1,0-4.2,0.4-6.1,1.1c5.7,5.6,6.2,10.9,6.2,10.9c-3-3.9-8.1-6.3-11.7-7.5
		c-3.4,3.1-5.5,7.5-5.5,12.5c0,9.4,7.6,17,17,17c9.4,0,17-7.6,17-17C46.2,29,38.5,21.4,29.1,21.4z"/>
</g>
</svg>
