<?xml version="1.0" encoding="utf-8"?>
<!-- Generator: Adobe Illustrator 21.0.2, SVG Export Plug-In . SVG Version: 6.00 Build 0)  -->
<svg version="1.1" id="logo_1_" xmlns="http://www.w3.org/2000/svg" xmlns:xlink="http://www.w3.org/1999/xlink" x="0px" y="0px"
	 viewBox="0 0 103.3 103.3" style="enable-background:new 0 0 103.3 103.3;" xml:space="preserve">
<style type="text/css">
	.st0{fill:#FFFFFF;}
</style>
<path class="st0" d="M51.6,0C23.1,0,0,23.1,0,51.6s23.1,51.6,51.6,51.6s51.6-23.1,51.6-51.6S80.1,0,51.6,0z M38.9,62.9
	C38.9,62.9,38.9,62.9,38.9,62.9L38.9,62.9C38.9,62.9,38.9,62.9,38.9,62.9l-7.8,0c-0.1,0-0.2,0-0.3,0c-3.2,0-4.8-2.6-5.1-4.4l0-0.4
	V43.2c0-1.4,1.1-2.5,2.5-2.5s2.5,1.1,2.5,2.5v14.6c0,0.1,0.1,0.1,0.1,0.1c0,0,0,0,0.1,0c0,0,0,0,0.1,0l0.1,0l5.4,0l0-14.8
	c0-1.4,1.1-2.5,2.5-2.5c0,0,0,0,0,0c1.4,0,2.5,1.1,2.5,2.5l0,14.8l5.7,0l0-14.8c0-1.4,1.1-2.5,2.5-2.5c0,0,0,0,0,0
	c1.4,0,2.5,1.1,2.5,2.5l0,19.8L38.9,62.9z M77.5,57.4c-0.1,3.7-3.3,5.4-5.4,5.6l-0.1,0l-13.2,0c-1.4,0-2.5-1.1-2.5-2.5
	c0-1.4,1.1-2.5,2.5-2.5h0l12.9,0c0.8-0.1,0.8-0.6,0.8-0.8l0-0.4c0-0.1,0.2-1.8-0.7-2.5h-13c-1.4,0-2.5-1.1-2.5-2.5
	c0-0.1,0-0.1,0-0.2c0-0.1,0-0.1,0-0.2c0-1.4,1.1-2.5,2.5-2.5h0l12.9,0c0.8-0.1,0.8-0.6,0.8-0.8l0-0.4c0-0.1,0.2-1.8-0.7-2.5h-13
	c-1.4,0-2.5-1.1-2.5-2.5s1.1-2.5,2.5-2.5h14.1l0.4,0.2c3.9,1.6,4.4,5.7,4.2,7.9c0,1.4-0.5,2.6-1.2,3.4
	C77.6,53.6,77.7,55.9,77.5,57.4z"/>
</svg>
