<?xml version="1.0" encoding="utf-8"?>
<!-- Generator: Adobe Illustrator 22.1.0, SVG Export Plug-In . SVG Version: 6.00 Build 0)  -->
<svg version="1.1" id="Capa_1" xmlns="http://www.w3.org/2000/svg" xmlns:xlink="http://www.w3.org/1999/xlink" x="0px" y="0px"
	 viewBox="0 0 318.2 354.1" style="enable-background:new 0 0 318.2 354.1;" xml:space="preserve">
<style type="text/css">
	.st0{fill:#FFFFFF;}
</style>
<g>
	<g id="Techo_1_">
		<polygon class="st0" points="98.4,120.8 97.9,120 122.9,105.7 124.5,105.7 		"/>
		<polygon class="st0" points="116.6,120.1 115.9,119.5 131.5,105.2 132.2,105.9 		"/>
		<polygon class="st0" points="137.4,119 136.9,118.4 150.3,104.9 151,105.5 		"/>
		<polygon class="st0" points="217.1,119.5 194.3,106.5 194.8,105.7 218.9,119.5 		"/>
		<polygon class="st0" points="200.5,119.5 186.4,106.5 187.5,106.3 201.8,119.5 		"/>
		<polygon class="st0" points="180.4,119.2 170.1,108.1 171,107.3 181.8,119.2 		"/>
		<path class="st0" d="M80.7,118.8L80.7,118.8c0,0,0.3,0.8-0.2,1s-5,0-5,0s-0.5,0-0.3-1l0,0H80.7z"/>
		<path class="st0" d="M80.9,117.2c0.8,0.8-0.2,1.6-0.2,1.6l0,0h-5.5l0,0c-1-0.3-0.6-1.6-0.6-1.6l0,0H80.9L80.9,117.2z"/>
		<path class="st0" d="M71.8,113c-0.3-1.1,0.6-1.3,0.6-1.3s-0.6-5,5.2-6.5c-0.6-1.1,0.5-1.6,0.5-1.6s1.1,0.5,0.6,1.6
			c5.7,2.3,5.2,6.3,5.4,6.7c0.3-0.2,1,0.8,0.5,1.3c0.3,0.8-0.5,1-0.8,0.6c-0.3-0.3-0.6,0.2-0.6,0.6c-0.2,1.5-1.3,1.6-1.3,1.6
			s0.2,1.1-1,1.5l0,0h-6.3l0,0c0,0-0.6-0.5-0.2-1.5c-1,0-1.6-1-1.5-1.5c0.2-0.3-0.2-0.8-0.5-0.5C71.8,114.3,71.4,113.2,71.8,113z
			 M79.9,113.5c0,0,1.1,0,1.1-1.1c0-1.1,1-0.8,1-0.8s-0.2-4.9-2.8-4.7C79.9,108.8,79.9,113.5,79.9,113.5z M74.8,112.2
			c0,1.3,1.3,1.1,1.3,1.1s0-4.5,0.6-6.8c-2.6-0.2-2.9,4.7-2.9,4.7S74.8,111.1,74.8,112.2z"/>
		<path class="st0" d="M80.9,117.2L80.9,117.2L80.9,117.2L80.9,117.2L80.9,117.2z"/>
		<path class="st0" d="M237.4,119.8L237.4,119.8c0-0.2-0.3,0.8,0.2,1c0.5,0.2,5,0,5,0s0.5,0,0.3-1.1v0.2L237.4,119.8L237.4,119.8z"
			/>
		<path class="st0" d="M237.2,118.2c-0.8,0.8,0.2,1.6,0.2,1.6l0,0h5.5l0,0c1-0.3,0.6-1.6,0.6-1.6l0,0H237.2L237.2,118.2z"/>
		<path class="st0" d="M246.1,114c0.3-1.1-0.6-1.5-0.6-1.5s0.8-5-5.2-6.5c0.6-1.1-0.5-1.6-0.5-1.6s-1.1,0.5-0.6,1.6
			c-5.7,2.3-5.2,6.3-5.4,6.7c-0.3-0.2-1,0.8-0.5,1.3c-0.3,0.8,0.5,1,0.8,0.6c0.3-0.3,0.6,0.2,0.6,0.5c0.2,1.5,1.3,1.6,1.3,1.6
			s-0.2,1.1,1,1.5l0,0h6.3l0,0c0,0,0.6-0.6,0.2-1.5c1,0,1.6-1,1.5-1.5c-0.2-0.3,0.3-0.8,0.5-0.5C246.3,115.3,246.6,114.1,246.1,114z
			 M238,114.5c0,0-1.1,0-1.1-1.1c0-1.3-1-0.8-1-0.8s0.2-4.9,2.8-4.7C238.2,109.8,238,114.5,238,114.5z M243.2,113.2
			c0,1.3-1.3,1.1-1.3,1.1s0-4.5-0.6-6.8c2.6-0.2,2.9,4.7,2.9,4.7S243.2,112,243.2,113.2z"/>
		<path class="st0" d="M237.2,118L237.2,118L237.2,118C237.2,118.2,237.2,118.2,237.2,118C237.2,118.2,237.2,118.2,237.2,118z"/>
		<path class="st0" d="M286.6,117.7h8.4c0,0,0.2-1.8-1.5-2.6c-0.8,0-4.5-0.2-5.7,0C286.6,115.9,286.6,117.7,286.6,117.7z"/>
		<path class="st0" d="M287.7,114.1L287.7,114.1c0,0-0.3,1,0.2,1.1c0.5,0.2,5.8,0,5.8,0s0.6,0,0.3-1.1l0,0H287.7z"/>
		<path class="st0" d="M287.5,112.2c-1,1,0.2,1.8,0.2,1.8l0,0h6.3l0,0c1.1-0.5,0.6-1.9,0.6-1.9l0,0
			C294.7,112.2,287.5,112.2,287.5,112.2z"/>
		<path class="st0" d="M297.9,107.3c0.3-1.3-0.6-1.6-0.6-1.6s0.8-5.7-6-7.6c0.6-1.3-0.6-1.9-0.6-1.9s-1.3,0.6-0.8,1.9
			c-6.7,2.6-6,7.3-6.2,7.6c-0.3-0.2-1.1,1-0.6,1.5c-0.3,1,0.5,1.1,0.8,0.6c0.3-0.3,0.8,0.3,0.6,0.6c0.2,1.6,1.5,1.8,1.5,1.8
			s-0.2,1.5,1.1,1.6l0,0h7.3l0,0c0,0,0.8-0.6,0.2-1.6c1.1,0,1.9-1.1,1.6-1.6c-0.2-0.5,0.3-1,0.5-0.6
			C297.9,108.8,298.2,107.5,297.9,107.3z M288.5,107.8c0,0-1.3,0-1.3-1.3c0-1.5-1.1-1-1.1-1s0.3-5.7,3.1-5.5
			C288.5,102.4,288.5,107.8,288.5,107.8z M294.4,106.5c0,1.5-1.5,1.3-1.5,1.3s0-5.4-0.6-8c3.1-0.2,3.2,5.5,3.2,5.5
			S294.4,105,294.4,106.5z"/>
		<path class="st0" d="M287.4,112L287.4,112L287.4,112C287.5,112.2,287.5,112.2,287.4,112C287.5,112,287.5,112,287.4,112z"/>
		<path class="st0" d="M256.2,109.8h9.9c0,0,0.2-2.1-1.6-2.9c-0.8,0-5.4-0.2-6.7,0C256.2,107.6,256.2,109.8,256.2,109.8z"/>
		<path class="st0" d="M257.3,105.4L257.3,105.4c0-0.2-0.5,1.1,0.2,1.3c0.6,0.3,6.8,0,6.8,0s0.8,0,0.5-1.5v0.2L257.3,105.4
			L257.3,105.4z"/>
		<path class="st0" d="M257.2,103.1c-1.1,1.1,0.2,2.1,0.2,2.1l0,0h7.5l0,0c1.3-0.5,0.8-2.3,0.8-2.3l0,0h-8.4V103.1z"/>
		<path class="st0" d="M269.3,97.4c0.5-1.5-0.8-1.9-0.8-1.9s1-6.8-7-8.9c0.8-1.5-0.6-2.3-0.6-2.3s-1.5,0.8-0.8,2.3
			c-7.6,3.1-7,8.6-7.1,8.9c-0.3-0.3-1.3,1.1-0.6,1.8c-0.5,1.1,0.6,1.3,1.1,0.8c0.3-0.3,1,0.3,0.8,0.8c0.2,1.9,1.6,2.1,1.6,2.1
			s-0.2,1.6,1.3,1.9l0,0h8.6l0,0c0,0,1-0.8,0.2-1.9c1.3,0,2.1-1.5,1.9-1.9c-0.2-0.5,0.3-1.1,0.6-0.6
			C269.5,99.2,269.8,97.7,269.3,97.4z M258.5,98.1c0,0-1.6,0-1.6-1.6s-1.3-1.1-1.3-1.1s0.3-6.7,3.6-6.5
			C258.5,91.7,258.5,98.1,258.5,98.1z M265.3,96.4c0,1.6-1.8,1.6-1.8,1.6s-0.2-6.2-0.8-9.3c3.6-0.2,3.9,6.5,3.9,6.5
			S265.3,94.8,265.3,96.4z"/>
		<path class="st0" d="M257.2,103.1L257.2,103.1L257.2,103.1C257.2,103.1,257.3,103.1,257.2,103.1L257.2,103.1z"/>
		<polygon class="st0" points="215.1,61.7 160.2,58.9 160.1,59.7 160.1,59.7 160.1,59.7 160.1,59.7 105,61.7 82,68.4 83.3,71.9 
			85.1,71.9 87,71.3 109.3,78.6 108.9,73.7 94.5,69.8 103.3,65.8 160.1,62 216.9,65.8 225.7,69.8 213.2,73.4 212,75.8 211.4,78.4 
			233.1,71.3 235.1,71.9 236.9,71.9 238.2,68.4 		"/>
		<path class="st0" d="M218.5,59.7c0,0-3.4-0.8-8.3-1.9c-14.3-7.6-28.7-23.7-28.7-23.7l-4.4-1.8v-2.1h-3.2v-2.3h-2.6v-2.3H169v-2.3
			h-1.8v-1.8H165v-1.1h-5h-5v1.1h-2.3v1.8H151v2.3h-2.3v2.3h-2.6v2.3h-3.2v2.1l-4.4,1.8c0,0-14.4,16.1-28.7,23.7
			c-4.9,1.1-8.3,1.9-8.3,1.9l-24,8l3.1,8h2.6L83,74h-1.8l-1.9-5l25.5-7.3l55-2.1l55,2.1l25.5,7.3l-1.9,5h-1.8l-0.2,1.6h2.6l3.1-8
			L218.5,59.7z"/>
		<path class="st0" d="M156.3,20.6h8.1c0,0,0-1.8-1.3-2.4c-0.6,0-4.4-0.2-5.5,0C156.3,19,156.3,20.6,156.3,20.6z"/>
		<path class="st0" d="M157.3,17.2L157.3,17.2c0-0.2-0.3,0.8,0.2,1.1c0.5,0.2,5.7,0,5.7,0s0.6,0,0.3-1.1v0.2h-6.2V17.2z"/>
		<path class="st0" d="M157.2,15.3c-1,1,0.2,1.8,0.2,1.8l0,0h6.2l0,0c1.1-0.3,0.6-1.8,0.6-1.8l0,0H157.2z"/>
		<path class="st0" d="M167.1,10.6c0.3-1.3-0.6-1.5-0.6-1.5s0.8-5.5-5.7-7.3c0.6-1.1-0.6-1.8-0.6-1.8s-1.3,0.6-0.6,1.8
			c-6.3,2.4-5.8,7.1-5.8,7.3c-0.3-0.2-1.1,1-0.5,1.5c-0.3,1,0.5,1.1,0.8,0.6c0.3-0.3,0.8,0.3,0.6,0.6c0.2,1.6,1.3,1.8,1.3,1.8
			s-0.2,1.3,1.1,1.6l0,0h7l0,0c0,0,0.8-0.6,0.2-1.6c1.1,0,1.8-1.1,1.6-1.6c-0.2-0.5,0.3-1,0.5-0.5C167.2,12,167.6,10.9,167.1,10.6z
			 M158.1,11c0,0-1.3,0-1.3-1.3s-1-1-1-1s0.2-5.5,2.9-5.4C158.1,6,158.1,11,158.1,11z M163.8,9.7c0,1.5-1.5,1.3-1.5,1.3
			s-0.2-5-0.6-7.6c2.9-0.2,3.2,5.4,3.2,5.4S163.8,8.4,163.8,9.7z"/>
		<path class="st0" d="M157.2,15.3L157.2,15.3L157.2,15.3L157.2,15.3L157.2,15.3z"/>
		<path class="st0" d="M298.2,117.7h-15.6c0,0-1.6,0-1.6,1.8c0,2.1,2.9,2.3,2.9,2.3l0,0v3.2l-15.1-3.6v-0.6v-6.5l0,0
			c0,0,3.2,0.2,3.2-2.6c0-2.1-2.3-2.1-2.3-2.1h-18.2c0,0-1.9,0-1.9,2.1c0,2.4,3.4,2.6,3.4,2.6l0,0v5H168v-1.5v-6.8l0,0
			c0,0,3.2,0.2,3.2-2.6c0-2.1-2.3-2.1-2.3-2.1h-18.2c0,0-1.9,0-1.9,2.1c0,2.4,3.4,2.6,3.4,2.6l0,0v7.5h-87v-5.2l0,0
			c0,0,3.4-0.2,3.4-2.6c0-2.1-1.9-2.1-1.9-2.1H48.5c0,0-2.3,0-2.3,2.1c0,2.8,3.2,2.6,3.2,2.6l0,0v6.5v0.5l-15.1,3.6v-3.2l0,0
			c0,0,2.9-0.2,2.9-2.3c0-1.8-1.6-1.8-1.6-1.8H20.1c0,0-1.9,0-1.9,1.8c0,2.3,2.8,2.3,2.8,2.3l0,0v5.5v40.3h2.8v0.6l26.3,1v-0.8h3.9
			h11.2v-0.3l18.5,0.2l-20-0.5v-27.8h24.7v28.4h4.1v-28.6l25.8-0.2v28.7H101l51.5,0.3l15.7,0.8V168h1.8v-29.2h26v29.1h4.5v-28.6
			l25.8,0.2v28.3h4.1v-27.9h24.7v27.8h-1.6v0.3h11.2h3.9v1.1l26.5-1v-0.6h2.8v-40.3v-5.4l0,0c0,0,2.8,0.2,2.8-2.3
			C300.2,117.7,298.2,117.7,298.2,117.7z M31.5,167.1h-6.8v-21.6l6.8-1V167.1z M40.4,166.9h-7.3l0.3-22.9l7.1-1.1L40.4,166.9z
			 M48.5,167.1l-6.3,0.2v-24.5l6.3-1.1V167.1z M148.4,167.2h-26V138h26V167.2z M276,168.2l-6.3-0.2v-25.5l6.3,1.1V168.2z M278,168.2
			l-0.3-24.2l7.1,1.1l0.5,23.1H278z M293.4,167.9h-6.8v-22.4l6.8,1V167.9z"/>
		<polygon class="st0" points="113.6,79.7 113.6,108 115.3,107.5 115.4,79.2 121.1,77.9 121.1,106 127.3,105.9 127.3,92.4 
			127.3,77.1 153.8,75.2 153.8,105.2 158.5,105 165.1,105.4 165.1,74.7 191.6,76.8 191.6,92.7 191.6,106.5 197.8,106.7 197.8,77.4 
			203.4,78.9 203.4,107.6 205.1,108 205.5,79.2 211.4,80.5 212.5,75.2 197.9,70.8 160.6,69 160.4,69 160.4,69 123.1,70.8 
			108.5,75.2 109.6,80.5 		"/>
		<polygon class="st0" points="169.7,168.4 195.5,168.4 195.5,168 169.7,168.2 		"/>
		<polygon class="st0" points="200,168.4 225.8,168.4 225.8,167.9 200,168 		"/>
		<polygon class="st0" points="229.9,167.9 229.9,168.4 253,167.7 253,167.7 		"/>
		<polygon class="st0" points="92.2,167.4 100.7,167.4 92.2,167.2 		"/>
		<polygon class="st0" points="88.2,167.4 88.2,167.2 83.5,167.2 		"/>
		<polygon class="st0" points="113.6,107.8 113.6,108.8 121.1,106 121.1,106 121.1,105.2 		"/>
		<polygon class="st0" points="127.3,105.9 157.3,105.4 153.8,104.9 127.3,105.2 		"/>
		<polyline class="st0" points="205.1,109.4 205.1,108 197.6,106.7 196.5,106.7 196.1,107.5 		"/>
		<polygon class="st0" points="165.1,106 191.6,106.5 191.6,106 165.1,105.4 		"/>
		<polygon class="st0" points="209.6,65.3 160.4,62 160.4,62 110.9,65.3 103.3,65.8 108.5,76.1 122.9,71.3 160.1,69.7 160.1,69.7 
			197.6,71.3 212,76.1 216.9,65.8 		"/>
		<path class="st0" d="M155.4,106.3h9.9c0,0,0.2-2.1-1.6-2.9c-0.8,0-5.4-0.2-6.7,0C155.4,104.2,155.4,106.3,155.4,106.3z"/>
		<path class="st0" d="M156.7,102.1L156.7,102.1c0-0.2-0.5,1.1,0.2,1.3c0.6,0.3,6.8,0,6.8,0s0.8,0,0.5-1.5v0.2L156.7,102.1
			L156.7,102.1z"/>
		<path class="st0" d="M156.5,99.8c-1.1,1.1,0.2,2.1,0.2,2.1l0,0h7.5l0,0c1.3-0.5,0.8-2.3,0.8-2.3l0,0
			C165,99.8,156.5,99.8,156.5,99.8z"/>
		<path class="st0" d="M168.5,94.2c0.5-1.5-0.8-1.8-0.8-1.8s1-6.8-7-8.9c0.8-1.5-0.6-2.3-0.6-2.3s-1.5,0.8-0.8,2.3
			c-7.8,3.1-7,8.6-7.1,8.9c-0.5-0.3-1.3,1.1-0.6,1.8c-0.5,1.1,0.6,1.5,1,0.8c0.3-0.5,1,0.3,0.8,0.8c0.2,1.9,1.6,2.1,1.6,2.1
			s-0.2,1.6,1.3,1.9l0,0h8.6l0,0c0,0,1-0.8,0.3-1.9c1.3,0,2.1-1.5,1.9-1.9s0.3-1.1,0.6-0.6C168.7,96,169.2,94.3,168.5,94.2z
			 M157.6,94.7c0,0-1.6,0.2-1.6-1.6c0-1.6-1.3-1.1-1.3-1.1s0.3-6.7,3.6-6.5C157.6,88.5,157.6,94.7,157.6,94.7z M164.5,93
			c0,1.6-1.8,1.6-1.8,1.6s0-6.2-0.8-9.3c3.6-0.2,3.9,6.5,3.9,6.5S164.5,91.4,164.5,93z"/>
		<path class="st0" d="M156.3,99.7L156.3,99.7L156.3,99.7C156.5,99.8,156.5,99.8,156.3,99.7C156.5,99.7,156.3,99.7,156.3,99.7z"/>
		<path class="st0" d="M268.7,151"/>
		<path class="st0" d="M31.5,116.7h-8.4c0,0,0-1.8,1.5-2.6c0.8,0,4.5-0.2,5.7,0C31.5,114.9,31.5,116.7,31.5,116.7z"/>
		<path class="st0" d="M30.4,113.2L30.4,113.2c0,0,0.3,1-0.2,1.1c-0.5,0.2-5.8,0-5.8,0s-0.6,0-0.3-1.1l0,0H30.4z"/>
		<path class="st0" d="M30.5,111.2c1,1-0.2,1.9-0.2,1.9l0,0H24l0,0c-1.1-0.5-0.8-1.9-0.8-1.9l0,0H30.5z"/>
		<path class="st0" d="M20.1,106.3c-0.3-1.3,0.6-1.6,0.6-1.6S20,99,26.6,97.1c-0.6-1.3,0.6-1.9,0.6-1.9s1.3,0.6,0.6,1.8
			c6.7,2.6,6,7.3,6.2,7.6c0.3-0.2,1.1,1,0.6,1.5c0.3,1-0.5,1.1-1,0.6c-0.3-0.3-0.8,0.3-0.6,0.6c-0.2,1.6-1.5,1.8-1.5,1.8
			s0.2,1.5-1.1,1.6l0,0h-7.3l0,0c0,0-0.8-0.6-0.2-1.6c-1.1,0-1.8-1.1-1.6-1.6s-0.3-1-0.5-0.5C20.1,107.8,19.6,106.5,20.1,106.3z
			 M29.5,106.8c0,0,1.3,0,1.3-1.3s1-1,1-1s-0.2-5.7-3.1-5.5C29.4,101.5,29.5,106.8,29.5,106.8z M23.7,105.5c0,1.5,1.5,1.3,1.5,1.3
			s0-5.4,0.8-7.8c-3.1-0.2-3.4,5.5-3.4,5.5S23.7,104.1,23.7,105.5z"/>
		<path class="st0" d="M30.5,111.1L30.5,111.1L30.5,111.1C30.5,111.2,30.5,111.2,30.5,111.1C30.5,111.2,30.5,111.2,30.5,111.1z"/>
		<path class="st0" d="M61.9,108.8H52c0,0-0.2-2.1,1.6-2.9c0.8,0,5.4-0.2,6.7,0C61.9,106.7,61.9,108.8,61.9,108.8z"/>
		<path class="st0" d="M60.7,104.4L60.7,104.4c0-0.2,0.5,1.1-0.2,1.3c-0.6,0.3-6.8,0-6.8,0s-0.8,0-0.5-1.5v0.2L60.7,104.4
			L60.7,104.4z"/>
		<path class="st0" d="M60.7,102.1c1.1,1.1-0.2,2.1-0.2,2.1l0,0h-7.5l0,0c-1.3-0.5-0.8-2.3-0.8-2.3l0,0h8.4V102.1z"/>
		<path class="st0" d="M48.7,96.4c-0.5-1.5,0.8-1.8,0.8-1.8s-1-6.8,7-8.9c-0.8-1.5,0.6-2.3,0.6-2.3s1.5,0.8,0.8,2.3
			c7.8,2.9,7,8.6,7.1,8.9c0.5-0.3,1.3,1.1,0.6,1.8c0.5,1.1-0.6,1.5-1,0.8c-0.3-0.3-1,0.3-0.8,0.8c-0.2,1.9-1.6,2.1-1.6,2.1
			s0.2,1.6-1.3,1.9l0,0h-8.6l0,0c0,0-1-0.8-0.2-1.9c-1.3,0-2.1-1.5-1.9-1.9c0.2-0.5-0.3-1.1-0.6-0.6C48.5,98.2,48.1,96.8,48.7,96.4z
			 M59.6,97.1c0,0,1.6,0.2,1.6-1.6c0-1.6,1.3-1.1,1.3-1.1s-0.3-6.7-3.6-6.5C59.6,90.9,59.6,97.1,59.6,97.1z M52.8,95.5
			c0,1.6,1.8,1.6,1.8,1.6s0.2-6.2,0.8-9.3c-3.6-0.2-3.9,6.5-3.9,6.5S52.8,93.8,52.8,95.5z"/>
		<path class="st0" d="M60.9,102.1L60.9,102.1L60.9,102.1C60.7,102.1,60.7,102.1,60.9,102.1C60.7,102.1,60.9,102.1,60.9,102.1z"/>
	</g>
	<rect x="0.2" y="343.7" class="st0" width="318.1" height="10.4"/>
	<rect x="0.2" y="165.9" class="st0" width="318.1" height="5.4"/>
	<g>
		<path class="st0" d="M23.5,244.5h-6v-46.9H0v-5.5h41.1v5.5H23.5V244.5z"/>
		<path class="st0" d="M91.4,197.6h-32v17.9H88v5.4H59.4v18.3h32.3v5.4H53.6v-52.4h37.8V197.6L91.4,197.6z"/>
		<path class="st0" d="M130,230.2h-0.3l-19.2-27.9v42.4h-5.7v-52.4h6l19.2,28.6l19.2-28.6h6v52.4h-5.8v-42.4L130,230.2z"/>
		<path class="st0" d="M189.8,226.2H177v18.5h-5.8v-52.4h19.6c11.9,0,19.6,6.3,19.6,16.7C210.4,220.3,200.8,226.2,189.8,226.2z
			 M190.3,197.6H177v23.1h13c8.6,0,14.3-4.7,14.3-11.5C204.4,201.5,198.7,197.6,190.3,197.6z"/>
		<path class="st0" d="M222.4,192.2h5.8v46.9h29.5v5.5h-35.4V192.2z"/>
		<path class="st0" d="M291.3,245.5c-15.9,0-26.6-12.5-26.6-27c0-14.4,10.9-27.1,26.8-27.1c15.9,0,26.6,12.5,26.6,27
			C318.1,232.8,307.2,245.5,291.3,245.5z M291.3,196.8c-12,0-20.5,9.6-20.5,21.6c0,12,8.6,21.8,20.6,21.8c12,0,20.5-9.6,20.5-21.6
			C311.9,206.5,303.3,196.8,291.3,196.8z"/>
	</g>
	<g>
		<path class="st0" d="M25.8,290.1c12,2.9,18.2,7.1,18.2,16.7c0,10.7-8.3,17-20.3,17c-8.6,0-16.9-2.9-23.7-9.1l6-7.1
			c5.4,4.7,10.9,7.3,17.9,7.3c6.2,0,10.1-2.8,10.1-7.1c0-4.1-2.3-6.3-12.8-8.8c-12-2.9-18.8-6.5-18.8-17c0-9.9,8.1-16.6,19.3-16.6
			c8.3,0,14.8,2.4,20.6,7.1l-5.4,7.5c-5-3.7-10.2-5.8-15.4-5.8c-5.8,0-9.3,2.9-9.3,6.8C12.3,285.6,14.9,287.5,25.8,290.1z"/>
		<path class="st0" d="M67.9,266.3v56.8H58v-56.8H67.9z"/>
		<path class="st0" d="M124,266.3h9.7v56.8h-8.3l-31.3-40.4v40.4h-9.7v-56.8h9.3l30.4,39.3V266.3L124,266.3z"/>
		<path class="st0" d="M173.9,323.1h-10.1v-47.6h-18v-9.3h46.1v9.3h-18L173.9,323.1L173.9,323.1z"/>
		<path class="st0" d="M240.3,323.1l-14-19.8h-12.5v19.8h-9.9v-56.8h25.3c13,0,21.1,6.8,21.1,18c0,9.4-5.5,15.1-13.5,17.2l15.3,21.4
			h-11.9V323.1z M228.3,275.4h-14.4v19h14.6c7.1,0,11.7-3.7,11.7-9.6C240.1,278.6,235.7,275.4,228.3,275.4z"/>
		<path class="st0" d="M318.2,323.1h-10.6l-5.7-13.6h-26.8l-5.8,13.6h-10.2l25-57.1h9.3L318.2,323.1z M288.5,277.8l-9.7,22.7h19.5
			L288.5,277.8z"/>
	</g>
</g>
</svg>
