<?xml version="1.0" encoding="utf-8"?>
<!-- Generator: Adobe Illustrator 22.1.0, SVG Export Plug-In . SVG Version: 6.00 Build 0)  -->
<svg version="1.1" id="Capa_1" xmlns="http://www.w3.org/2000/svg" xmlns:xlink="http://www.w3.org/1999/xlink" x="0px" y="0px"
	 viewBox="0 0 787 273.3" style="enable-background:new 0 0 787 273.3;" xml:space="preserve">
<style type="text/css">
	.st0{fill:#FFFFFF;}
</style>
<g>
	<path class="st0" d="M80.4,207.6c-6.4,7.5-10.3,15.6-11.4,24.1c-1.3,10.9,7.6,20.4,11.9,24.4c12.5,9.7,32.6,16.4,73.1,17.1
		l-22.4-43.8C95.8,232,85,220.1,80.4,207.6"/>
	<path class="st0" d="M179.1,79.2C72.3,93.7,32.3,132.3,32.5,169.1c0.5,2.7,1.2,5.3,2.3,7.9c2.9,7,16.1,37.6,19.7,45.4
		c-0.2-38.2,55.1-68.8,131.8-81.9c6.1-1,17.4-6.1,11.8-18.5C193.7,112.1,183.2,88.4,179.1,79.2"/>
	<path class="st0" d="M174.4,60.9l21.9-3c0,0,13.4-1.5,5.9-16.8C194.6,25.6,181.7,0,181.7,0C41.2,13.2-15.1,60.1,3.4,104.5
		c2.5,5.9,12.3,28.8,17.5,40.4C27.8,117.4,57.6,76.7,174.4,60.9"/>
	<path class="st0" d="M451.7,223c0-17.9,16.8-32.7,37.3-32.7c20.1,0,37.1,15,37.1,32.7V240c0,18.4-16.8,33.3-37.1,33.3
		c-20.6,0-37.3-14.7-37.3-33.1V223z M508.1,223c0-8.9-8.7-16.6-18.9-16.6c-10.4,0-19.3,7.7-19.3,16.6V240c0,9.5,8.7,17.2,19.1,17.2
		c10.2,0,19.1-7.8,19.1-17V223z"/>
	<path class="st0" d="M692.7,211c-1.1,1.5-3.3,1.9-4.9,1.1c0,0-8.3-6.1-21-5.8c-8.2,0.2-13.2,3.2-13.2,8.5c0,5.1,3.9,7.7,12.1,8
		c16.9,0.5,21.6,1.5,27.4,6c6,4.4,9.5,11.4,9.5,18.8c0,15.7-13.5,25.7-34.1,25.7c-14.2,0-28.3-5.3-36.9-14.1l9.5-9.2
		c1.3-1.2,3.3-1.1,4.8-0.2c0,0,9.7,7.7,22.2,7.5c12-0.2,17.6-3.4,17.6-9.7c0-5.8-3.9-8-14.2-8.2c-14.6-0.2-20.5-1.7-26.3-6.5
		c-5.3-4.5-8.4-10.9-8.4-17.9c0-14.8,12.3-24.9,30.9-24.9c12.6,0,23.4,3.4,33,10.4L692.7,211z"/>
	<path class="st0" d="M425.4,251.7c0,0-7.6,5.2-14.6,5.2c-14,0-23.3-9.9-23.3-25.2c0-15.4,9.3-25.2,23.3-25.2c7,0,14.6,5.2,14.6,5.2
		c3.3,2.3,5.6-0.7,5.6-0.7l8.1-10.6c-8.1-6.8-17.4-10.3-27.9-10.3c-8,0-15.7,2.1-22.3,6c-13.1,7.8-18.8,18.5-19.1,35.6
		c0.3,17.1,6,27.8,19.1,35.6c6.7,3.9,14.4,6,22.3,6c10.5,0,19.9-3.5,27.9-10.3l-8.1-10.6C431,252.4,428.6,249.4,425.4,251.7"/>
	<path class="st0" d="M586.5,191.1c-13.3,0-21.5,7.8-21.5,7.8c-1.6,1.1-2.4,0.5-2.4-1.3v-34.4c0-1.9-1.5-3.4-3.4-3.4h-14.5v113.6
		h14.5c1.9,0,3.4-1.5,3.4-3.4v-44.5c0-11.3,7-18.2,18.2-18.2c10.4,0,18.2,7,18.2,17v49.1h14.5c1.9,0,3.4-1.5,3.4-3.4v-50
		C616.9,203.4,604.1,191.1,586.5,191.1"/>
	<path class="st0" d="M336.9,192.1c-1.9,0-3.4,1.5-3.4,3.4v77.7h14.4c1.9,0,3.4-1.5,3.4-3.4v-77.7H336.9z"/>
	<path class="st0" d="M347.9,159.7h-14.4v12.4c0,1.9,1.6,3.4,3.4,3.4h14.4v-12.4C351.3,161.2,349.7,159.7,347.9,159.7"/>
	<path class="st0" d="M318.9,159.7h-80.9v113.6h15.7c1.9,0,3.4-1.5,3.4-3.4v-45.5h43.8c1.9,0,3.4-1.5,3.4-3.4V209h-47v-33.1h58.3
		c1.9,0,3.4-1.5,3.4-3.4L318.9,159.7z"/>
	<path class="st0" d="M787,216v56.5h-14.5c-1.9,0-3.4-1.5-3.4-3.4v-2.3l0,0v-2.2c-4.3,6.2-10.5,8.8-21.2,8.8c-1.2,0-3.6,0-3.6,0
		c-17.6-1.1-29.5-10.8-29.5-25c0-9.7,3.6-24.2,30.3-24.2h22c0.9-0.4,1.6-1.1,1.9-1.9v-3.9c0,0-0.1-2.2-0.2-3.6
		c-0.2-1.1-0.9-4.7-6.1-6.8c-2.2-0.7-5.3-1.2-9.5-1.1c-1.2,0-2.3,0-3.4-0.1c-10.3,1-16.9,5.6-16.9,5.6c-1.6,0.9-3.7,0.4-4.9-1.1
		l-7.2-9.5c9.1-6.6,18.3-11.1,30-11.4c0,0,0,0,0.1,0c0.3,0,0.6,0,0.9,0C782.9,190.3,787,208.7,787,216 M768.8,238.6h-23.5
		c-9.3,0-13.4,2.8-13.4,9c0,6.7,5.7,9.9,17.4,9.9c15.9,0,19.5-2.2,19.5-12.5L768.8,238.6L768.8,238.6z"/>
</g>
</svg>
