<?xml version="1.0" encoding="utf-8"?>
<!-- Generator: Adobe Illustrator 22.1.0, SVG Export Plug-In . SVG Version: 6.00 Build 0)  -->
<svg version="1.1" id="Capa_1" xmlns="http://www.w3.org/2000/svg" xmlns:xlink="http://www.w3.org/1999/xlink" x="0px" y="0px"
	 viewBox="0 0 247.5 369.9" style="enable-background:new 0 0 247.5 369.9;" xml:space="preserve">
<style type="text/css">
	.st0{fill:#991B1E;}
	.st1{fill:#ED1C24;}
</style>
<g>
	<g id="XMLID_6_">
		<path id="XMLID_8_" class="st0" d="M196.2,299.7c0,0-4.3-20.8-9.2-29.2l-71.5-121.1c0,0-10.1-15.7-10.1-41.4
			c0-20.3,8.6-34.1,8.6-34.1l83.4,140.2c0,0,11.7,15.2,11.7,43C209.1,280.1,196.2,299.7,196.2,299.7 M60.1,270.7
			c0,0-8.2,15.2-9.1,29c-13.8-21.6-12.9-43.2-12.9-43.2c0-22.4,11-41,11-41l31-50.9l21.7,36.9L60.1,270.7z M226.7,190.3L113.9,0
			L82.1,53.1c-15.5,24.6-15.2,59.8-15.2,59.8l-50.7,83.9c0,0-16.1,25.2-16.1,58.3c0,88.3,84.9,114.8,84.9,114.8l21.1-35.3
			c-11-5.9-17-17.3-17-29.3c0-7.1,2.3-13.8,6.1-19.3l29-47.3l31.3,52.9c0,0,3.3,6.1,3.3,13.3c0,12.4-7.4,23.6-17.5,29.7l21.1,35.3
			c0,0,15.8-4,33.8-16.6c22.7-16.3,51.4-49.4,51.4-98.2C247.3,230.8,240.1,211.1,226.7,190.3"/>
		<path id="XMLID_7_" class="st1" d="M69.9,134.8c2.1,10.2,10.4,29.8,10.4,29.8l75.1,127c0,0,3.3,6.1,3.3,13.3
			c0,12.4-7.4,23.6-17.5,29.7l21.1,35.3c0,0,15.8-4,33.8-16.6c22.7-16.3,51.4-49.4,51.4-98.2c0-24.2-7.2-44-20.4-64.8L140.5,45
			l-12,20.9c0,0-10.1,13.8-0.7,31.5c23.7,39.9,69.4,116.7,69.4,116.7s11.7,15.2,11.7,43c0,23.1-12.9,42.7-12.9,42.7
			s-4.3-20.8-9.2-29.2l-71.3-121.1c0,0-10.1-15.7-10.1-41.4c0-20.3,8.6-34.1,8.6-34.1l21.9-36.7L113.9,0L82.1,53.1
			c-15.5,24.6-15.2,59.8-15.2,59.8S67.7,124.6,69.9,134.8"/>
	</g>
	<path id="XMLID_14_" class="st1" d="M110.4,230.7l-12.9-21.6l-37.4,61.6c0,0-8.2,15.2-9.1,29c-13.8-21.6-12.9-43.2-12.9-43.2
		c0-22.4,11-41,11-41l26.2-43l-22.2-37.1l0,0l-37.1,61.3c0,0-16.1,25.2-16.1,58.3c0,88.3,84.9,114.8,84.9,114.8l21.1-35.3
		c-11-5.9-17-17.3-17-29.3c0-7.1,2.3-13.8,6.1-19.3l14.7-23.9l0,0C109.7,262.1,119.1,246.3,110.4,230.7"/>
</g>
</svg>
