<?xml version="1.0" encoding="utf-8"?>
<!-- Generator: Adobe Illustrator 22.1.0, SVG Export Plug-In . SVG Version: 6.00 Build 0)  -->
<svg version="1.1" id="Capa_1" xmlns="http://www.w3.org/2000/svg" xmlns:xlink="http://www.w3.org/1999/xlink" x="0px" y="0px"
	 viewBox="0 0 275.1 580" style="enable-background:new 0 0 275.1 580;" xml:space="preserve">
<style type="text/css">
	.st0{fill:#AAAAAA;}
	.st1{fill:#FFFFFF;stroke:#B9B9BA;stroke-width:0.75;stroke-miterlimit:10;}
	.st2{fill:none;stroke:#B9B9BA;stroke-width:0.75;stroke-miterlimit:10;}
	.st3{fill:#FFFFFF;stroke:#DDDDDC;stroke-width:0.75;stroke-miterlimit:10;}
	.st4{fill:#231F20;}
	.st5{fill:#7E7D7D;}
	.st6{fill:none;stroke:#7C7C7C;stroke-width:0.5;stroke-miterlimit:10;}
	.st7{fill:#333333;}
	.st8{fill:#FFFFFF;}
	.st9{fill:#1A1F71;}
	.st10{fill:#FFBF00;}
	.st11{fill:url(#SVGID_1_);}
	.st12{fill:none;stroke:#FFBF00;stroke-miterlimit:10;}
	.st13{fill:#707072;}
	.st14{fill:#E2E2E2;}
</style>
<g>
	<path class="st0" d="M227.3,0c-0.4,0-19.6,0-19.6,0s-18.8,0-19.3,0c-2.7,0-2.7,1-2.7,1v3.6h21.9h21.9V1C229.7,1,229.7,0,227.3,0z"
		/>
	<path class="st0" d="M0,85.1c0,0.4,0,20.9,0,20.9s0,2.5,0,2.9c0,0.4,1,1,1,1h3.6v-3.9V84H1C1,84,0,84.6,0,85.1z"/>
	<path class="st0" d="M0,139c0,0.4,0,15.3,0,15.3s0,2.5,0,2.9c0,0.4,1,1,1,1h3.6v-3.9V138H1C1,138,0,138.6,0,139z"/>
	<path class="st0" d="M0,187c0,0.4,0,15.3,0,15.3s0,2.5,0,2.9c0,0.4,1,1,1,1h3.6v-3.9V186H1C1,186,0,186.6,0,187z"/>
	<g>
		<path class="st1" d="M274.8,538.8c0,22.5-18.4,40.8-40.8,40.8H46.2c-22.5,0-40.8-18.4-40.8-40.8V46.2c0-22.5,18.4-40.8,40.8-40.8
			h187.7c22.5,0,40.8,18.4,40.8,40.8V538.8z"/>
		<path class="st2" d="M274.8,538.8c0,22.5-18.4,40.8-40.8,40.8H46.2c-22.5,0-40.8-18.4-40.8-40.8V46.2c0-22.5,18.4-40.8,40.8-40.8
			h187.7c22.5,0,40.8,18.4,40.8,40.8V538.8z"/>
	</g>
	<path d="M258,495.5c0,1.8-1.5,3.3-3.3,3.3H25.3c-1.8,0-3.3-1.5-3.3-3.3V87.3c0-1.8,1.5-3.3,3.3-3.3h229.4c1.8,0,3.3,1.5,3.3,3.3
		V495.5z"/>
	<path class="st3" d="M165.8,536.4c0-14.2-11.5-25.7-25.7-25.7c-14.2,0-25.7,11.5-25.7,25.7c0,14.2,11.5,25.7,25.7,25.7
		C154.3,562.1,165.8,550.6,165.8,536.4z"/>
	<path class="st4" d="M145.2,32.6c0-2.9-2.3-5.2-5.2-5.2c-2.9,0-5.2,2.3-5.2,5.2c0,2.9,2.3,5.2,5.2,5.2
		C142.9,37.8,145.2,35.5,145.2,32.6z"/>
	<path class="st4" d="M105.4,54.1c0-2-1.6-3.5-3.5-3.5c-2,0-3.5,1.6-3.5,3.5s1.6,3.5,3.5,3.5C103.8,57.6,105.4,56.1,105.4,54.1z"/>
	<path class="st5" d="M162,54.1c0,1.6-1.5,2.9-3.3,2.9H120c-1.8,0-3.3-1.3-3.3-2.9c0-1.6,1.5-2.9,3.3-2.9h38.8
		C160.6,51.2,162,52.5,162,54.1z"/>
	<path class="st6" d="M149,542.1c0,1.8-1.5,3.3-3.3,3.3h-11.4c-1.8,0-3.3-1.5-3.3-3.3v-11.4c0-1.8,1.5-3.3,3.3-3.3h11.4
		c1.8,0,3.3,1.5,3.3,3.3V542.1z"/>
	<rect x="24.9" y="86.8" class="st7" width="230.5" height="409.4"/>
	<g>
		<rect x="24.9" y="86.8" class="st8" width="230.5" height="409.4"/>
		<rect x="24.9" y="86.8" class="st9" width="230.5" height="51.2"/>
		<rect x="24.9" y="137.9" class="st9" width="230.5" height="194.8"/>
		<rect x="24.9" y="332.8" class="st10" width="230.5" height="7"/>
		<linearGradient id="SVGID_1_" gradientUnits="userSpaceOnUse" x1="140.192" y1="149.8984" x2="140.192" y2="137.9092">
			<stop  offset="0.2103" style="stop-color:#000000;stop-opacity:0"/>
			<stop  offset="1" style="stop-color:#000000;stop-opacity:0.5"/>
		</linearGradient>
		<rect x="24.9" y="137.9" class="st11" width="230.5" height="12"/>
		<g>
			<polygon class="st8" points="132.2,120.4 135,104.4 139.3,104.4 136.6,120.4 			"/>
			<path class="st8" d="M152.4,104.7c-0.9-0.3-2.2-0.7-3.9-0.7c-4.3,0-7.3,2.2-7.4,5.3c0,2.3,2.2,3.6,3.8,4.3c1.7,0.8,2.3,1.3,2.3,2
				c0,1.1-1.4,1.6-2.6,1.6c-1.7,0-2.7-0.2-4.1-0.8l-0.6-0.3l-0.6,3.6c1,0.4,2.9,0.8,4.9,0.9c4.6,0,7.6-2.1,7.6-5.5
				c0-1.8-1.1-3.2-3.7-4.3c-1.5-0.7-2.5-1.2-2.4-2c0-0.7,0.8-1.4,2.5-1.4c1.4,0,2.5,0.3,3.3,0.6l0.4,0.2L152.4,104.7"/>
			<path class="st8" d="M163.6,104.4h-3.4c-1,0-1.8,0.3-2.3,1.3l-6.5,14.7h4.6c0,0,0.7-2,0.9-2.4c0.5,0,4.9,0,5.6,0
				c0.1,0.6,0.5,2.4,0.5,2.4h4L163.6,104.4 M158.2,114.7c0.4-0.9,1.7-4.5,1.7-4.5c0,0,0.4-0.9,0.6-1.5l0.3,1.4c0,0,0.8,3.8,1,4.6
				H158.2z"/>
			<path class="st8" d="M128.6,104.4l-4.3,10.9l-0.5-2.2l-1.5-7.4c-0.3-1-1-1.3-2-1.4h-7l-0.1,0.3c1.7,0.4,3.2,1,4.6,1.8l3.9,13.9
				l4.6,0l6.9-16H128.6L128.6,104.4z"/>
		</g>
		<g>
			<path class="st8" d="M124.3,187.6c-0.2-2.7-0.4-6-0.4-8h-0.1c-0.6,2-1.4,4.1-2.4,6.7l-3.8,9.8h-0.9l-3.6-9.6c-1-2.8-1.8-5-2.3-7
				h-0.1c0,2.1-0.2,5.3-0.4,8.3l-0.6,8.3h-1.3l1.3-18.1h1.5l3.9,10.4c0.9,2.3,1.5,4.1,2,5.9h0.1c0.5-1.7,1.1-3.4,2-5.8l4-10.4h1.5
				l1.2,18.1h-1.3L124.3,187.6z"/>
			<path class="st8" d="M132,179.6c0,0.6-0.4,1.1-1.1,1.1c-0.6,0-1-0.5-1-1.1c0-0.6,0.4-1.1,1-1.1C131.6,178.5,132,179,132,179.6z
				 M130.3,196.2v-12.9h1.3v12.9H130.3z"/>
			<path class="st8" d="M143,196.2l-0.2-1.8h-0.1c-0.6,1-2.1,2.1-4.1,2.1c-2.6,0-3.8-1.8-3.8-3.5c0-3,2.6-4.8,7.8-4.7v-0.3
				c0-1.3-0.2-3.8-3.3-3.8c-1.1,0-2.3,0.3-3.2,1l-0.4-0.9c1.2-0.8,2.6-1.1,3.8-1.1c3.7,0,4.4,2.8,4.4,5.1v5c0,1,0,2.1,0.2,3.1H143z
				 M142.7,189.3c-2.8-0.1-6.5,0.3-6.5,3.4c0,1.8,1.2,2.7,2.6,2.7c2.1,0,3.4-1.3,3.8-2.6c0.1-0.3,0.1-0.5,0.1-0.8V189.3z"/>
			<path class="st8" d="M148.1,186.4c0-1.2,0-2.1-0.1-3.1h1.2l0.1,2.3h0.1c0.8-1.5,2.1-2.6,4.2-2.6c1.8,0,3.1,1.2,3.7,2.8h0.1
				c0.4-0.8,0.8-1.3,1.3-1.7c0.8-0.7,1.7-1.1,3.1-1.1c1.3,0,4.2,0.7,4.2,5.6v7.6h-1.3v-7.5c0-2.9-1.1-4.6-3.4-4.6
				c-1.6,0-2.9,1.2-3.4,2.6c-0.1,0.4-0.2,0.8-0.2,1.3v8.2h-1.3v-8c0-2.3-1.1-4-3.2-4c-1.7,0-3.1,1.4-3.6,2.9
				c-0.1,0.4-0.2,0.8-0.2,1.2v7.9h-1.3V186.4z"/>
			<path class="st8" d="M171.7,179.6c0,0.6-0.4,1.1-1.1,1.1c-0.6,0-1-0.5-1-1.1c0-0.6,0.4-1.1,1-1.1
				C171.3,178.5,171.7,179,171.7,179.6z M170,196.2v-12.9h1.3v12.9H170z"/>
			<path class="st8" d="M85.9,205.1v18.1h-1.3v-18.1H85.9z"/>
			<path class="st8" d="M90.6,213.4c0-1.2,0-2.1-0.1-3.1h1.2l0.1,2.3h0.1c0.7-1.4,2.3-2.6,4.4-2.6c1.2,0,4.5,0.6,4.5,5.4v7.7h-1.3
				v-7.6c0-2.3-0.9-4.5-3.6-4.5c-1.8,0-3.3,1.3-3.9,3c-0.1,0.3-0.2,0.7-0.2,1.1v8h-1.3V213.4z"/>
			<path class="st8" d="M105,213.4c0-1.2,0-2.1-0.1-3.1h1.2l0.1,2.3h0.1c0.7-1.4,2.3-2.6,4.4-2.6c1.2,0,4.5,0.6,4.5,5.4v7.7h-1.3
				v-7.6c0-2.3-0.9-4.5-3.6-4.5c-1.8,0-3.3,1.3-3.9,3c-0.1,0.3-0.2,0.7-0.2,1.1v8H105V213.4z"/>
			<path class="st8" d="M130.4,216.6c0,4.8-3.3,6.8-6.2,6.8c-3.3,0-5.9-2.6-5.9-6.6c0-4.4,2.9-6.8,6.1-6.8
				C127.9,210,130.4,212.7,130.4,216.6z M119.6,216.8c0,3.2,2,5.6,4.7,5.6c2.7,0,4.8-2.4,4.8-5.7c0-2.4-1.3-5.6-4.7-5.6
				C121.1,211.1,119.6,214,119.6,216.8z"/>
			<path class="st8" d="M133.1,210.3l3,8c0.5,1.3,0.9,2.4,1.3,3.4h0.1c0.4-1.1,0.8-2.2,1.3-3.4l3.1-8h1.3l-5.2,12.9h-1.1l-5-12.9
				H133.1z"/>
			<path class="st8" d="M152.5,223.2l-0.2-1.8h-0.1c-0.6,1-2.1,2.1-4.1,2.1c-2.6,0-3.8-1.8-3.8-3.5c0-3,2.6-4.8,7.8-4.7v-0.3
				c0-1.3-0.2-3.8-3.3-3.8c-1.1,0-2.3,0.3-3.2,1l-0.4-0.9c1.2-0.8,2.6-1.1,3.8-1.1c3.7,0,4.4,2.8,4.4,5.1v5c0,1,0,2.1,0.2,3.1H152.5
				z M152.2,216.3c-2.8-0.1-6.5,0.3-6.5,3.4c0,1.8,1.2,2.7,2.6,2.7c2.1,0,3.4-1.3,3.8-2.6c0.1-0.3,0.1-0.5,0.1-0.8V216.3z"/>
			<path class="st8" d="M159.4,206.6v3.7h3.7v1h-3.7v8.4c0,1.6,0.5,2.7,1.9,2.7c0.7,0,1.1-0.1,1.5-0.2l0.2,1c-0.4,0.2-1,0.3-1.8,0.3
				c-0.9,0-1.7-0.3-2.2-0.9c-0.6-0.7-0.8-1.8-0.8-3.1v-8.1H156v-1h2.2V207L159.4,206.6z"/>
			<path class="st8" d="M167.6,206.6c0,0.6-0.4,1.1-1.1,1.1c-0.6,0-1-0.5-1-1.1c0-0.6,0.4-1.1,1-1.1
				C167.2,205.5,167.6,206,167.6,206.6z M165.9,223.2v-12.9h1.3v12.9H165.9z"/>
			<path class="st8" d="M182.5,216.6c0,4.8-3.3,6.8-6.2,6.8c-3.3,0-5.9-2.6-5.9-6.6c0-4.4,2.9-6.8,6.1-6.8
				C180.1,210,182.5,212.7,182.5,216.6z M171.7,216.8c0,3.2,2,5.6,4.7,5.6c2.7,0,4.8-2.4,4.8-5.7c0-2.4-1.3-5.6-4.7-5.6
				C173.2,211.1,171.7,214,171.7,216.8z"/>
			<path class="st8" d="M185.8,213.4c0-1.2,0-2.1-0.1-3.1h1.2l0.1,2.3h0.1c0.7-1.4,2.3-2.6,4.4-2.6c1.2,0,4.5,0.6,4.5,5.4v7.7h-1.3
				v-7.6c0-2.3-0.9-4.5-3.6-4.5c-1.8,0-3.3,1.3-3.9,3c-0.1,0.3-0.2,0.7-0.2,1.1v8h-1.3V213.4z"/>
			<path class="st8" d="M118.9,249.5c-0.9,0.5-2.7,0.9-4.9,0.9c-4.4,0-8.5-2.8-8.5-9.2c0-5.4,3.5-9.4,9.2-9.4c2.3,0,3.6,0.5,4.2,0.8
				l-0.4,1.1c-0.9-0.5-2.2-0.8-3.8-0.8c-4.9,0-7.8,3.2-7.8,8.4c0,4.9,2.8,8.1,7.6,8.1c1.5,0,3-0.3,4.1-0.8L118.9,249.5z"/>
			<path class="st8" d="M122,243.6c0,4.1,2.2,5.7,4.9,5.7c1.9,0,2.8-0.4,3.6-0.7l0.3,1c-0.5,0.3-1.8,0.8-4.1,0.8c-3.7,0-6-2.7-6-6.5
				c0-4.3,2.5-7,5.8-7c4.2,0,5,4,5,5.8c0,0.4,0,0.6,0,0.8H122z M130.2,242.6c0-1.8-0.7-4.5-3.8-4.5c-2.8,0-4.1,2.5-4.3,4.5H130.2z"
				/>
			<path class="st8" d="M134.7,240.4c0-1.2,0-2.1-0.1-3.1h1.2l0.1,2.3h0.1c0.7-1.4,2.3-2.6,4.4-2.6c1.2,0,4.5,0.6,4.5,5.4v7.7h-1.3
				v-7.6c0-2.3-0.9-4.5-3.6-4.5c-1.8,0-3.3,1.3-3.9,3c-0.1,0.3-0.2,0.7-0.2,1.1v8h-1.3V240.4z"/>
			<path class="st8" d="M150.8,233.6v3.7h3.7v1h-3.7v8.4c0,1.6,0.5,2.7,1.9,2.7c0.7,0,1.1-0.1,1.5-0.2l0.2,1c-0.4,0.2-1,0.3-1.8,0.3
				c-0.9,0-1.7-0.3-2.2-0.9c-0.6-0.7-0.8-1.8-0.8-3.1v-8.1h-2.2v-1h2.2V234L150.8,233.6z"/>
			<path class="st8" d="M157.4,243.6c0,4.1,2.2,5.7,4.9,5.7c1.9,0,2.8-0.4,3.6-0.7l0.3,1c-0.5,0.3-1.8,0.8-4.1,0.8
				c-3.7,0-6-2.7-6-6.5c0-4.3,2.5-7,5.8-7c4.2,0,5,4,5,5.8c0,0.4,0,0.6,0,0.8H157.4z M165.6,242.6c0-1.8-0.7-4.5-3.8-4.5
				c-2.8,0-4.1,2.5-4.3,4.5H165.6z"/>
			<path class="st8" d="M170.2,241.2c0-1.3,0-2.6-0.1-3.9h1.2l0.1,2.6h0.1c0.6-1.6,1.9-2.9,3.7-2.9c0.2,0,0.4,0,0.5,0.1v1.2
				c-0.2,0-0.4,0-0.6,0c-1.8,0-3,1.5-3.4,3.6c-0.1,0.4-0.1,0.8-0.1,1.2v7.1h-1.3V241.2z"/>
		</g>
		<g>
			<path class="st8" d="M71.6,262c0.5-0.1,1.1-0.1,1.8-0.1c1.1,0,1.9,0.2,2.5,0.7c0.6,0.5,1,1.2,1,2.2c0,1.1-0.4,1.9-0.9,2.4
				c-0.6,0.5-1.6,0.8-2.7,0.8c-0.6,0-1.1,0-1.5-0.1V262z M72.7,267.2c0.2,0,0.4,0,0.6,0c1.4,0,2.3-0.8,2.3-2.3
				c0-1.3-0.8-2.1-2.2-2.1c-0.3,0-0.6,0-0.8,0.1V267.2z"/>
			<path class="st8" d="M82.3,262c0.4-0.1,1-0.1,1.7-0.1c0.9,0,1.5,0.1,1.9,0.5c0.3,0.3,0.5,0.7,0.5,1.2c0,0.8-0.5,1.3-1.1,1.5v0
				c0.4,0.2,0.7,0.6,0.8,1.2c0.2,0.8,0.4,1.5,0.5,1.7h-1.1c-0.1-0.2-0.2-0.7-0.4-1.4c-0.2-0.8-0.5-1-1.1-1.1h-0.6v2.5h-1.1V262z
				 M83.4,264.7H84c0.8,0,1.2-0.4,1.2-1c0-0.7-0.5-1-1.2-1c-0.4,0-0.6,0-0.7,0.1V264.7z"/>
			<path class="st8" d="M93,262v6.1h-1.1V262H93z"/>
			<path class="st8" d="M100.1,268l-2-6.1h1.2l0.8,2.8c0.2,0.8,0.4,1.5,0.6,2.2h0c0.2-0.7,0.4-1.5,0.6-2.2l0.9-2.8h1.2l-2.1,6.1
				H100.1z"/>
			<path class="st8" d="M109.8,262v6.1h-1.1V262H109.8z"/>
			<path class="st8" d="M115.5,268V262h1.3l1.6,2.6c0.4,0.7,0.8,1.4,1,2l0,0c-0.1-0.8-0.1-1.6-0.1-2.5V262h1v6.1h-1.1l-1.6-2.7
				c-0.4-0.7-0.8-1.4-1.1-2.1l0,0c0,0.8,0.1,1.6,0.1,2.6v2.2H115.5z"/>
			<path class="st8" d="M131,267.8c-0.4,0.1-1.1,0.3-2,0.3c-1,0-1.8-0.3-2.4-0.8c-0.5-0.5-0.9-1.3-0.9-2.2c0-1.9,1.4-3.2,3.4-3.2
				c0.7,0,1.3,0.2,1.6,0.3l-0.2,0.9c-0.3-0.1-0.7-0.3-1.4-0.3c-1.3,0-2.2,0.8-2.2,2.2c0,1.4,0.9,2.2,2.1,2.2c0.4,0,0.7-0.1,0.8-0.1
				v-1.5h-1.1v-0.9h2.1V267.8z"/>
			<path class="st8" d="M143,262c0.4-0.1,1-0.1,1.7-0.1c0.8,0,1.4,0.2,1.8,0.5c0.4,0.3,0.6,0.8,0.6,1.3c0,0.6-0.2,1-0.5,1.4
				c-0.4,0.4-1.1,0.7-1.9,0.7c-0.2,0-0.4,0-0.5,0v2.3H143V262z M144.1,264.9c0.1,0,0.3,0.1,0.5,0.1c0.8,0,1.3-0.4,1.3-1.1
				c0-0.7-0.5-1-1.2-1c-0.3,0-0.5,0-0.6,0.1V264.9z"/>
			<path class="st8" d="M153.1,266.3l-0.5,1.7h-1.1l1.9-6.1h1.4l2,6.1h-1.2l-0.5-1.7H153.1z M154.8,265.5l-0.5-1.5
				c-0.1-0.4-0.2-0.8-0.3-1.1h0c-0.1,0.4-0.2,0.8-0.3,1.1l-0.5,1.5H154.8z"/>
			<path class="st8" d="M162.7,268v-2.5l-1.9-3.5h1.3l0.7,1.6c0.2,0.4,0.4,0.8,0.5,1.2h0c0.1-0.4,0.3-0.8,0.5-1.2l0.7-1.6h1.3
				l-2,3.5v2.6H162.7z"/>
			<path class="st8" d="M176,265.6c0-0.8-0.1-1.7-0.1-2.6h0c-0.2,0.7-0.5,1.6-0.7,2.3l-0.9,2.6h-0.9l-0.8-2.6
				c-0.2-0.8-0.5-1.6-0.6-2.4h0c0,0.8-0.1,1.8-0.1,2.6l-0.1,2.4h-1l0.4-6.1h1.5l0.8,2.4c0.2,0.7,0.4,1.4,0.6,2.1h0
				c0.2-0.7,0.4-1.4,0.6-2.1l0.8-2.4h1.4l0.3,6.1h-1.1L176,265.6z"/>
			<path class="st8" d="M186.2,265.3h-2.3v1.8h2.6v0.9h-3.7V262h3.5v0.9h-2.4v1.6h2.3V265.3z"/>
			<path class="st8" d="M191.9,268V262h1.3l1.6,2.6c0.4,0.7,0.8,1.4,1,2l0,0c-0.1-0.8-0.1-1.6-0.1-2.5V262h1v6.1h-1.1l-1.6-2.7
				c-0.4-0.7-0.8-1.4-1.1-2.1l0,0c0,0.8,0.1,1.6,0.1,2.6v2.2H191.9z"/>
			<path class="st8" d="M203.7,262.9h-1.7V262h4.6v0.9h-1.7v5.1h-1.1V262.9z"/>
			<path class="st8" d="M95.1,274v6.1H94V274H95.1z"/>
			<path class="st8" d="M100.9,280V274h1.3l1.6,2.6c0.4,0.7,0.8,1.4,1,2l0,0c-0.1-0.8-0.1-1.6-0.1-2.5V274h1v6.1h-1.1l-1.6-2.7
				c-0.4-0.7-0.8-1.4-1.1-2.1l0,0c0,0.8,0.1,1.6,0.1,2.6v2.2H100.9z"/>
			<path class="st8" d="M111.5,280V274h1.3l1.6,2.6c0.4,0.7,0.8,1.4,1,2l0,0c-0.1-0.8-0.1-1.6-0.1-2.5V274h1v6.1h-1.1l-1.6-2.7
				c-0.4-0.7-0.8-1.4-1.1-2.1l0,0c0,0.8,0.1,1.6,0.1,2.6v2.2H111.5z"/>
			<path class="st8" d="M127.4,276.9c0,2-1.2,3.2-2.9,3.2c-1.7,0-2.8-1.3-2.8-3.1c0-1.9,1.2-3.2,2.9-3.2
				C126.4,273.9,127.4,275.2,127.4,276.9z M122.9,277c0,1.2,0.6,2.2,1.7,2.2c1.1,0,1.7-1,1.7-2.3c0-1.1-0.6-2.2-1.7-2.2
				C123.5,274.7,122.9,275.8,122.9,277z"/>
			<path class="st8" d="M134.3,280l-2-6.1h1.2l0.8,2.8c0.2,0.8,0.4,1.5,0.6,2.2h0c0.2-0.7,0.4-1.5,0.6-2.2l0.9-2.8h1.2l-2.1,6.1
				H134.3z"/>
			<path class="st8" d="M143.5,278.3L143,280h-1.1l1.9-6.1h1.4l2,6.1H146l-0.5-1.7H143.5z M145.2,277.5l-0.5-1.5
				c-0.1-0.4-0.2-0.8-0.3-1.1h0c-0.1,0.4-0.2,0.8-0.3,1.1l-0.5,1.5H145.2z"/>
			<path class="st8" d="M153,274.9h-1.7V274h4.6v0.9h-1.7v5.1H153V274.9z"/>
			<path class="st8" d="M162.1,274v6.1H161V274H162.1z"/>
			<path class="st8" d="M173.3,276.9c0,2-1.2,3.2-2.9,3.2c-1.7,0-2.8-1.3-2.8-3.1c0-1.9,1.2-3.2,2.9-3.2
				C172.2,273.9,173.3,275.2,173.3,276.9z M168.7,277c0,1.2,0.6,2.2,1.7,2.2c1.1,0,1.7-1,1.7-2.3c0-1.1-0.6-2.2-1.7-2.2
				C169.3,274.7,168.7,275.8,168.7,277z"/>
			<path class="st8" d="M178.7,280V274h1.3l1.6,2.6c0.4,0.7,0.8,1.4,1,2l0,0c-0.1-0.8-0.1-1.6-0.1-2.5V274h1v6.1h-1.1l-1.6-2.7
				c-0.4-0.7-0.8-1.4-1.1-2.1l0,0c0,0.8,0.1,1.6,0.1,2.6v2.2H178.7z"/>
		</g>
		<line class="st12" x1="125.9" y1="291.5" x2="154.4" y2="291.5"/>
		<g>
			<path class="st9" d="M50,377.5c-0.1-1.8-0.3-3.9-0.2-5.2h0c-0.4,1.3-0.9,2.6-1.6,4.4l-2.5,6.4h-0.6l-2.3-6.2
				c-0.7-1.8-1.2-3.2-1.5-4.5h0c0,1.4-0.1,3.4-0.3,5.3l-0.4,5.4h-0.8l0.9-11.7h0.9l2.5,6.7c0.6,1.5,1,2.7,1.3,3.8h0
				c0.3-1.1,0.7-2.2,1.3-3.8l2.6-6.7h1l0.8,11.7h-0.8L50,377.5z"/>
			<path class="st9" d="M54.9,372.3c0,0.4-0.3,0.7-0.7,0.7c-0.4,0-0.6-0.3-0.6-0.7c0-0.4,0.3-0.7,0.7-0.7
				C54.7,371.6,54.9,371.9,54.9,372.3z M53.8,383v-8.3h0.8v8.3H53.8z"/>
			<path class="st9" d="M62,383l-0.1-1.2h0c-0.4,0.6-1.3,1.4-2.7,1.4c-1.7,0-2.4-1.2-2.4-2.3c0-1.9,1.7-3.1,5.1-3v-0.2
				c0-0.8-0.2-2.5-2.1-2.5c-0.7,0-1.5,0.2-2.1,0.6l-0.3-0.6c0.8-0.5,1.7-0.7,2.4-0.7c2.4,0,2.9,1.8,2.9,3.3v3.2c0,0.7,0,1.3,0.1,2
				H62z M61.8,378.6c-1.8-0.1-4.2,0.2-4.2,2.2c0,1.2,0.8,1.7,1.7,1.7c1.4,0,2.2-0.9,2.5-1.7c0.1-0.2,0.1-0.4,0.1-0.5V378.6z"/>
			<path class="st9" d="M65.3,376.7c0-0.8,0-1.3-0.1-2H66l0.1,1.5h0c0.5-1,1.3-1.7,2.7-1.7c1.2,0,2,0.8,2.4,1.8h0
				c0.2-0.5,0.5-0.9,0.8-1.1c0.5-0.4,1.1-0.7,2-0.7c0.8,0,2.7,0.5,2.7,3.6v4.9H76v-4.8c0-1.9-0.7-3-2.2-3c-1,0-1.9,0.8-2.2,1.7
				c-0.1,0.2-0.1,0.5-0.1,0.8v5.3h-0.8v-5.2c0-1.5-0.7-2.6-2.1-2.6c-1.1,0-2,0.9-2.3,1.9c-0.1,0.2-0.1,0.5-0.1,0.8v5.1h-0.8V376.7z"
				/>
			<path class="st9" d="M80.6,372.3c0,0.4-0.3,0.7-0.7,0.7c-0.4,0-0.6-0.3-0.6-0.7c0-0.4,0.3-0.7,0.7-0.7
				C80.3,371.6,80.6,371.9,80.6,372.3z M79.5,383v-8.3h0.8v8.3H79.5z"/>
			<path class="st9" d="M87.8,371.3V383h-0.8v-11.7H87.8z"/>
			<path class="st9" d="M90.9,376.7c0-0.8,0-1.3-0.1-2h0.8l0.1,1.5h0c0.5-0.9,1.5-1.7,2.9-1.7c0.8,0,2.9,0.4,2.9,3.5v5h-0.8v-4.9
				c0-1.5-0.6-2.9-2.3-2.9c-1.2,0-2.2,0.8-2.5,1.9c-0.1,0.2-0.1,0.5-0.1,0.7v5.1h-0.8V376.7z"/>
			<path class="st9" d="M100.1,376.7c0-0.8,0-1.3-0.1-2h0.8l0.1,1.5h0c0.5-0.9,1.5-1.7,2.9-1.7c0.8,0,2.9,0.4,2.9,3.5v5h-0.8v-4.9
				c0-1.5-0.6-2.9-2.3-2.9c-1.2,0-2.2,0.8-2.5,1.9c-0.1,0.2-0.1,0.5-0.1,0.7v5.1h-0.8V376.7z"/>
			<path class="st9" d="M116.5,378.8c0,3.1-2.1,4.4-4,4.4c-2.2,0-3.8-1.7-3.8-4.3c0-2.8,1.9-4.4,3.9-4.4
				C115,374.5,116.5,376.2,116.5,378.8z M109.6,378.9c0,2.1,1.3,3.6,3,3.6c1.7,0,3.1-1.6,3.1-3.7c0-1.5-0.9-3.6-3.1-3.6
				C110.5,375.2,109.6,377.1,109.6,378.9z"/>
			<path class="st9" d="M118.3,374.7l2,5.2c0.3,0.8,0.6,1.5,0.8,2.2h0c0.2-0.7,0.5-1.4,0.8-2.2l2-5.2h0.9l-3.4,8.3h-0.7l-3.3-8.3
				H118.3z"/>
			<path class="st9" d="M130.9,383l-0.1-1.2h0c-0.4,0.6-1.3,1.4-2.7,1.4c-1.7,0-2.4-1.2-2.4-2.3c0-1.9,1.7-3.1,5.1-3v-0.2
				c0-0.8-0.2-2.5-2.1-2.5c-0.7,0-1.5,0.2-2.1,0.6l-0.3-0.6c0.8-0.5,1.7-0.7,2.4-0.7c2.4,0,2.9,1.8,2.9,3.3v3.2c0,0.7,0,1.3,0.1,2
				H130.9z M130.7,378.6c-1.8-0.1-4.2,0.2-4.2,2.2c0,1.2,0.8,1.7,1.7,1.7c1.4,0,2.2-0.9,2.5-1.7c0.1-0.2,0.1-0.4,0.1-0.5V378.6z"/>
			<path class="st9" d="M135.3,372.3v2.4h2.4v0.7h-2.4v5.4c0,1.1,0.3,1.7,1.2,1.7c0.4,0,0.7-0.1,0.9-0.1l0.1,0.6
				c-0.3,0.1-0.6,0.2-1.1,0.2c-0.6,0-1.1-0.2-1.4-0.6c-0.4-0.4-0.5-1.1-0.5-2v-5.3h-1.4v-0.7h1.4v-2.1L135.3,372.3z"/>
			<path class="st9" d="M140.6,372.3c0,0.4-0.3,0.7-0.7,0.7c-0.4,0-0.6-0.3-0.6-0.7c0-0.4,0.3-0.7,0.7-0.7
				C140.4,371.6,140.6,371.9,140.6,372.3z M139.6,383v-8.3h0.8v8.3H139.6z"/>
			<path class="st9" d="M150.3,378.8c0,3.1-2.1,4.4-4,4.4c-2.2,0-3.8-1.7-3.8-4.3c0-2.8,1.9-4.4,3.9-4.4
				C148.7,374.5,150.3,376.2,150.3,378.8z M143.3,378.9c0,2.1,1.3,3.6,3,3.6c1.7,0,3.1-1.6,3.1-3.7c0-1.5-0.9-3.6-3.1-3.6
				C144.3,375.2,143.3,377.1,143.3,378.9z"/>
			<path class="st9" d="M152.4,376.7c0-0.8,0-1.3-0.1-2h0.8l0.1,1.5h0c0.5-0.9,1.5-1.7,2.9-1.7c0.8,0,2.9,0.4,2.9,3.5v5h-0.8v-4.9
				c0-1.5-0.6-2.9-2.3-2.9c-1.2,0-2.2,0.8-2.5,1.9c-0.1,0.2-0.1,0.5-0.1,0.7v5.1h-0.8V376.7z"/>
			<path class="st9" d="M173.4,382.6c-0.6,0.3-1.7,0.6-3.2,0.6c-2.8,0-5.5-1.8-5.5-6c0-3.5,2.2-6.1,5.9-6.1c1.5,0,2.3,0.3,2.7,0.5
				l-0.3,0.7c-0.6-0.3-1.4-0.5-2.4-0.5c-3.2,0-5.1,2-5.1,5.4c0,3.2,1.8,5.2,4.9,5.2c1,0,2-0.2,2.6-0.5L173.4,382.6z"/>
			<path class="st9" d="M175.4,378.8c0,2.7,1.4,3.7,3.2,3.7c1.2,0,1.8-0.2,2.3-0.5l0.2,0.7c-0.3,0.2-1.2,0.5-2.6,0.5
				c-2.4,0-3.9-1.7-3.9-4.2c0-2.8,1.6-4.5,3.7-4.5c2.7,0,3.2,2.6,3.2,3.8c0,0.2,0,0.4,0,0.5H175.4z M180.7,378.1
				c0-1.2-0.5-2.9-2.5-2.9c-1.8,0-2.6,1.6-2.8,2.9H180.7z"/>
			<path class="st9" d="M183.6,376.7c0-0.8,0-1.3-0.1-2h0.8l0.1,1.5h0c0.5-0.9,1.5-1.7,2.9-1.7c0.8,0,2.9,0.4,2.9,3.5v5h-0.8v-4.9
				c0-1.5-0.6-2.9-2.3-2.9c-1.2,0-2.2,0.8-2.5,1.9c-0.1,0.2-0.1,0.5-0.1,0.7v5.1h-0.8V376.7z"/>
			<path class="st9" d="M194,372.3v2.4h2.4v0.7H194v5.4c0,1.1,0.3,1.7,1.2,1.7c0.4,0,0.7-0.1,0.9-0.1l0.1,0.6
				c-0.3,0.1-0.6,0.2-1.1,0.2c-0.6,0-1.1-0.2-1.4-0.6c-0.4-0.4-0.5-1.1-0.5-2v-5.3h-1.4v-0.7h1.4v-2.1L194,372.3z"/>
			<path class="st9" d="M198.3,378.8c0,2.7,1.4,3.7,3.2,3.7c1.2,0,1.8-0.2,2.3-0.5l0.2,0.7c-0.3,0.2-1.2,0.5-2.6,0.5
				c-2.4,0-3.9-1.7-3.9-4.2c0-2.8,1.6-4.5,3.7-4.5c2.7,0,3.2,2.6,3.2,3.8c0,0.2,0,0.4,0,0.5H198.3z M203.6,378.1
				c0-1.2-0.5-2.9-2.5-2.9c-1.8,0-2.6,1.6-2.8,2.9H203.6z"/>
			<path class="st9" d="M206.6,377.2c0-0.8,0-1.7-0.1-2.5h0.8l0,1.7h0c0.4-1.1,1.2-1.9,2.4-1.9c0.1,0,0.2,0,0.3,0v0.8
				c-0.1,0-0.2,0-0.4,0c-1.1,0-2,1-2.2,2.3c0,0.2-0.1,0.5-0.1,0.8v4.6h-0.8V377.2z"/>
			<path class="st9" d="M49.7,397.8c0,4.1-2.5,6.1-5.2,6.1c-2.9,0-5.1-2.3-5.1-5.9c0-3.8,2.3-6.1,5.2-6.1
				C47.5,391.9,49.7,394.2,49.7,397.8z M40.2,398.1c0,2.6,1.5,5.3,4.3,5.3c2.8,0,4.3-2.5,4.3-5.4c0-2.5-1.3-5.3-4.3-5.3
				C41.6,392.6,40.2,395.3,40.2,398.1z"/>
			<path class="st9" d="M51.7,398.1c0-1,0-1.9-0.1-2.7h0.8l0.1,1.6h0c0.6-1.1,1.6-1.8,3.1-1.8c2.1,0,3.6,1.8,3.6,4.2
				c0,3-1.8,4.5-3.8,4.5c-1.2,0-2.2-0.5-2.8-1.5h0v4.8h-0.8V398.1z M52.6,400.5c0,0.2,0,0.5,0.1,0.7c0.3,1.3,1.5,2.1,2.7,2.1
				c1.9,0,3-1.6,3-3.8c0-1.9-1-3.6-2.9-3.6c-1.2,0-2.4,0.8-2.8,2.2c-0.1,0.2-0.1,0.5-0.1,0.7V400.5z"/>
			<path class="st9" d="M61.4,399.6c0,2.7,1.4,3.7,3.2,3.7c1.2,0,1.8-0.2,2.3-0.5l0.2,0.7c-0.3,0.2-1.2,0.5-2.6,0.5
				c-2.4,0-3.9-1.7-3.9-4.2c0-2.8,1.6-4.5,3.7-4.5c2.7,0,3.2,2.6,3.2,3.8c0,0.2,0,0.4,0,0.5H61.4z M66.7,398.9
				c0-1.2-0.5-2.9-2.5-2.9c-1.8,0-2.6,1.6-2.8,2.9H66.7z"/>
			<path class="st9" d="M69.7,397.5c0-0.8,0-1.3-0.1-2h0.8l0.1,1.5h0c0.5-0.9,1.5-1.7,2.9-1.7c0.8,0,2.9,0.4,2.9,3.5v5h-0.8v-4.9
				c0-1.5-0.6-2.9-2.3-2.9c-1.2,0-2.2,0.8-2.5,1.9c-0.1,0.2-0.1,0.5-0.1,0.7v5.1h-0.8V397.5z"/>
			<path class="st9" d="M80.1,393.1c0,0.4-0.3,0.7-0.7,0.7c-0.4,0-0.6-0.3-0.6-0.7c0-0.4,0.3-0.7,0.7-0.7
				C79.8,392.4,80.1,392.7,80.1,393.1z M79,403.8v-8.3h0.8v8.3H79z"/>
			<path class="st9" d="M82.6,397.5c0-0.8,0-1.3-0.1-2h0.8l0.1,1.5h0c0.5-0.9,1.5-1.7,2.9-1.7c0.8,0,2.9,0.4,2.9,3.5v5h-0.8v-4.9
				c0-1.5-0.6-2.9-2.3-2.9c-1.2,0-2.2,0.8-2.5,1.9c-0.1,0.2-0.1,0.5-0.1,0.7v5.1h-0.8V397.5z"/>
			<path class="st9" d="M98.6,395.5c0,0.6-0.1,1.3-0.1,2.1v5c0,2.1-0.4,3.2-1.1,3.9c-0.8,0.7-1.9,1-2.8,1c-0.9,0-2-0.2-2.6-0.7
				l0.3-0.7c0.6,0.4,1.4,0.7,2.5,0.7c1.7,0,3-0.9,3-3.4v-1.2h0c-0.4,0.8-1.4,1.6-2.9,1.6c-2.1,0-3.6-1.8-3.6-4.1
				c0-2.9,1.9-4.4,3.7-4.4c1.6,0,2.5,0.9,2.8,1.6h0l0-1.4H98.6z M97.7,398.7c0-0.3,0-0.6-0.1-0.8c-0.3-1-1.2-1.9-2.6-1.9
				c-1.8,0-3,1.4-3,3.6c0,1.9,1,3.5,3,3.5c1.1,0,2.1-0.7,2.6-1.9c0.1-0.3,0.1-0.6,0.1-0.9V398.7z"/>
			<path class="st9" d="M108.4,398.7v0.7h-4.1v-0.7H108.4z"/>
			<path class="st9" d="M113.7,402.5c0.7,0.5,1.6,0.8,2.6,0.8c1.7,0,2.8-1,2.8-2.4c0-1.3-0.7-2.1-2.4-2.7c-1.9-0.7-3-1.6-3-3.2
				c0-1.7,1.4-3,3.4-3c1.1,0,1.9,0.3,2.3,0.6l-0.3,0.7c-0.3-0.2-1.1-0.6-2.1-0.6c-1.9,0-2.5,1.2-2.5,2.1c0,1.3,0.8,2,2.4,2.6
				c1.9,0.8,3,1.7,3,3.4c0,1.7-1.2,3.2-3.7,3.2c-1,0-2.2-0.3-2.8-0.8L113.7,402.5z"/>
			<path class="st9" d="M128.5,401.8c0,0.7,0,1.4,0.1,2h-0.8l-0.1-1.5h0c-0.4,0.8-1.4,1.7-2.9,1.7c-1.1,0-2.8-0.5-2.8-3.7v-4.8h0.8
				v4.7c0,1.8,0.6,3.1,2.2,3.1c1.2,0,2.1-0.8,2.5-1.7c0.1-0.3,0.2-0.6,0.2-0.9v-5.2h0.8V401.8z"/>
			<path class="st9" d="M131.3,398c0-0.8,0-1.7-0.1-2.5h0.8l0,1.7h0c0.4-1.1,1.2-1.9,2.4-1.9c0.1,0,0.2,0,0.3,0v0.8
				c-0.1,0-0.2,0-0.4,0c-1.1,0-2,1-2.2,2.3c0,0.2-0.1,0.5-0.1,0.8v4.6h-0.8V398z"/>
			<path class="st9" d="M136.7,395.5l2,5.2c0.3,0.8,0.6,1.5,0.8,2.2h0c0.2-0.7,0.5-1.4,0.8-2.2l2-5.2h0.9l-3.4,8.3h-0.7l-3.3-8.3
				H136.7z"/>
			<path class="st9" d="M144.8,399.6c0,2.7,1.4,3.7,3.2,3.7c1.2,0,1.8-0.2,2.3-0.5l0.2,0.7c-0.3,0.2-1.2,0.5-2.6,0.5
				c-2.4,0-3.9-1.7-3.9-4.2c0-2.8,1.6-4.5,3.7-4.5c2.7,0,3.2,2.6,3.2,3.8c0,0.2,0,0.4,0,0.5H144.8z M150.1,398.9
				c0-1.2-0.5-2.9-2.5-2.9c-1.8,0-2.6,1.6-2.8,2.9H150.1z"/>
			<path class="st9" d="M152.8,395.5l2.2,5.4c0.2,0.6,0.5,1.3,0.6,1.8h0c0.2-0.5,0.4-1.2,0.6-1.8l2-5.4h0.9l-2.5,6.2
				c-1,2.6-1.7,4.1-2.8,5.1c-0.7,0.6-1.3,0.8-1.5,0.9l-0.3-0.7c0.4-0.2,1-0.4,1.5-0.9c0.4-0.4,1-1.1,1.4-2.1
				c0.1-0.2,0.1-0.3,0.1-0.4c0-0.1,0-0.2-0.1-0.4l-3.1-7.7H152.8z"/>
		</g>
		<g>
			<path class="st9" d="M39.8,476.8v-8.9h0.6l3.5,5.3c0.7,1.1,1.2,1.9,1.7,2.8l0,0c-0.1-1.2-0.1-2.2-0.1-3.6v-4.4H46v8.9h-0.6
				l-3.4-5.2c-0.7-1-1.3-2-1.7-2.9l0,0c0.1,1.1,0.1,2.1,0.1,3.5v4.5H39.8z"/>
			<path class="st9" d="M51.6,476.8l-0.1-0.9h0c-0.3,0.5-1,1.1-2,1.1c-1.3,0-1.9-0.9-1.9-1.7c0-1.5,1.3-2.3,3.9-2.3v-0.2
				c0-0.6-0.1-1.9-1.6-1.9c-0.6,0-1.1,0.1-1.6,0.5l-0.2-0.5c0.6-0.4,1.3-0.5,1.9-0.5c1.8,0,2.2,1.4,2.2,2.5v2.5c0,0.5,0,1,0.1,1.5
				H51.6z M51.5,473.4c-1.4,0-3.2,0.2-3.2,1.7c0,0.9,0.6,1.3,1.3,1.3c1.1,0,1.7-0.7,1.9-1.3c0-0.1,0.1-0.3,0.1-0.4V473.4z"/>
			<path class="st9" d="M54.2,472c0-0.6,0-1-0.1-1.5h0.6l0,1.1h0c0.4-0.7,1-1.3,2.1-1.3c0.9,0,1.5,0.6,1.8,1.4h0
				c0.2-0.4,0.4-0.7,0.6-0.9c0.4-0.3,0.8-0.5,1.5-0.5c0.6,0,2.1,0.4,2.1,2.8v3.7h-0.6v-3.7c0-1.4-0.6-2.3-1.7-2.3
				c-0.8,0-1.4,0.6-1.7,1.3c-0.1,0.2-0.1,0.4-0.1,0.6v4.1h-0.6v-4c0-1.1-0.5-2-1.6-2c-0.9,0-1.5,0.7-1.8,1.4
				c-0.1,0.2-0.1,0.4-0.1,0.6v3.9h-0.6V472z"/>
			<path class="st9" d="M65.1,473.5c0,2,1.1,2.8,2.4,2.8c0.9,0,1.4-0.2,1.8-0.4l0.2,0.5c-0.2,0.1-0.9,0.4-2,0.4c-1.8,0-3-1.3-3-3.2
				c0-2.1,1.2-3.4,2.9-3.4c2.1,0,2.5,2,2.5,2.9c0,0.2,0,0.3,0,0.4H65.1z M69.1,473c0-0.9-0.4-2.2-1.9-2.2c-1.4,0-2,1.3-2.1,2.2H69.1
				z"/>
		</g>
		<g>
			<path class="st13" d="M39.9,430.7c0.6-0.1,1.3-0.2,2.1-0.2c1.2,0,2.1,0.3,2.6,0.8c0.5,0.5,0.8,1.1,0.8,1.9c0,0.8-0.2,1.5-0.7,2
				c-0.6,0.7-1.7,1.1-2.9,1.1c-0.4,0-0.8,0-1.2-0.1v4.2h-0.7V430.7z M40.6,435.6c0.3,0.1,0.8,0.1,1.2,0.1c1.8,0,2.8-0.9,2.8-2.4
				c0-1.5-1.1-2.2-2.7-2.2c-0.6,0-1.1,0.1-1.4,0.1V435.6z"/>
			<path class="st13" d="M47.1,430.1h0.7v10.4h-0.7V430.1z"/>
			<path class="st13" d="M50.3,436.9c0,2.2,1.2,3.1,2.7,3.1c1,0,1.6-0.2,1.9-0.4l0.2,0.5c-0.3,0.1-1,0.4-2.2,0.4
				c-2,0-3.3-1.5-3.3-3.5c0-2.3,1.3-3.8,3.2-3.8c2.3,0,2.7,2.2,2.7,3.2c0,0.2,0,0.3,0,0.4H50.3z M54.7,436.3c0-1-0.4-2.5-2.1-2.5
				c-1.5,0-2.2,1.4-2.3,2.5H54.7z"/>
			<path class="st13" d="M61.1,440.5l-0.1-1h0c-0.3,0.5-1.1,1.2-2.2,1.2c-1.4,0-2.1-1-2.1-1.9c0-1.6,1.4-2.6,4.3-2.6V436
				c0-0.7-0.1-2.1-1.8-2.1c-0.6,0-1.3,0.2-1.8,0.5l-0.2-0.5c0.6-0.4,1.4-0.6,2.1-0.6c2,0,2.4,1.5,2.4,2.8v2.7c0,0.6,0,1.1,0.1,1.7
				H61.1z M60.9,436.7c-1.5,0-3.5,0.2-3.5,1.9c0,1,0.7,1.5,1.4,1.5c1.2,0,1.8-0.7,2.1-1.4c0.1-0.2,0.1-0.3,0.1-0.4V436.7z"/>
			<path class="st13" d="M63.6,439.5c0.4,0.2,0.9,0.5,1.6,0.5c1.1,0,1.6-0.6,1.6-1.3c0-0.8-0.5-1.2-1.5-1.6
				c-1.1-0.4-1.8-1.1-1.8-1.9c0-1,0.8-1.9,2.2-1.9c0.6,0,1.2,0.2,1.6,0.4l-0.3,0.6c-0.2-0.2-0.7-0.4-1.4-0.4c-0.9,0-1.4,0.6-1.4,1.2
				c0,0.7,0.5,1,1.5,1.4c1.1,0.4,1.8,1,1.8,2.1c0,1.2-0.9,2-2.4,2c-0.7,0-1.3-0.2-1.8-0.5L63.6,439.5z"/>
			<path class="st13" d="M69.4,436.9c0,2.2,1.2,3.1,2.7,3.1c1,0,1.6-0.2,1.9-0.4l0.2,0.5c-0.3,0.1-1,0.4-2.2,0.4
				c-2,0-3.3-1.5-3.3-3.5c0-2.3,1.3-3.8,3.2-3.8c2.3,0,2.7,2.2,2.7,3.2c0,0.2,0,0.3,0,0.4H69.4z M73.9,436.3c0-1-0.4-2.5-2.1-2.5
				c-1.5,0-2.2,1.4-2.3,2.5H73.9z"/>
			<path class="st13" d="M84.4,440.2c-0.3,0.2-1,0.5-2,0.5c-2,0-3.4-1.5-3.4-3.6c0-2.2,1.5-3.7,3.6-3.7c0.9,0,1.6,0.2,1.8,0.4
				l-0.2,0.6c-0.3-0.2-0.9-0.4-1.7-0.4c-1.9,0-2.8,1.4-2.8,3.1c0,1.8,1.2,3,2.8,3c0.8,0,1.4-0.2,1.8-0.4L84.4,440.2z"/>
			<path class="st13" d="M92.1,436.9c0,2.6-1.8,3.7-3.4,3.7c-1.8,0-3.2-1.4-3.2-3.6c0-2.4,1.6-3.7,3.3-3.7
				C90.8,433.3,92.1,434.8,92.1,436.9z M86.2,437c0,1.8,1.1,3.1,2.6,3.1c1.5,0,2.6-1.3,2.6-3.1c0-1.3-0.7-3.1-2.6-3.1
				C87,433.9,86.2,435.5,86.2,437z"/>
			<path class="st13" d="M93.9,435.1c0-0.6,0-1.1-0.1-1.7h0.6l0.1,1.2h0c0.4-0.8,1.1-1.4,2.3-1.4c1,0,1.7,0.6,2,1.5h0
				c0.2-0.4,0.5-0.7,0.7-0.9c0.5-0.4,0.9-0.6,1.7-0.6c0.7,0,2.3,0.4,2.3,3v4.1h-0.7v-4.1c0-1.6-0.6-2.5-1.8-2.5
				c-0.9,0-1.6,0.7-1.8,1.4c-0.1,0.2-0.1,0.4-0.1,0.7v4.5h-0.7v-4.4c0-1.3-0.6-2.2-1.7-2.2c-0.9,0-1.7,0.8-1.9,1.6
				c-0.1,0.2-0.1,0.4-0.1,0.7v4.3h-0.7V435.1z"/>
			<path class="st13" d="M105.8,435.7c0-0.9,0-1.6-0.1-2.2h0.7l0.1,1.3h0c0.5-0.9,1.4-1.5,2.6-1.5c1.8,0,3,1.5,3,3.5
				c0,2.5-1.5,3.8-3.2,3.8c-1,0-1.9-0.5-2.4-1.3h0v4h-0.7V435.7z M106.5,437.7c0,0.2,0,0.4,0.1,0.6c0.3,1.1,1.2,1.8,2.3,1.8
				c1.6,0,2.5-1.3,2.5-3.2c0-1.6-0.9-3-2.5-3c-1,0-2,0.7-2.3,1.9c0,0.2-0.1,0.4-0.1,0.6V437.7z"/>
			<path class="st13" d="M113.9,430.1h0.7v10.4h-0.7V430.1z"/>
			<path class="st13" d="M117.1,436.9c0,2.2,1.2,3.1,2.7,3.1c1,0,1.6-0.2,1.9-0.4l0.2,0.5c-0.3,0.1-1,0.4-2.2,0.4
				c-2,0-3.3-1.5-3.3-3.5c0-2.3,1.3-3.8,3.2-3.8c2.3,0,2.7,2.2,2.7,3.2c0,0.2,0,0.3,0,0.4H117.1z M121.5,436.3c0-1-0.4-2.5-2.1-2.5
				c-1.5,0-2.2,1.4-2.3,2.5H121.5z"/>
			<path class="st13" d="M125,431.4v2h2v0.6h-2v4.6c0,0.9,0.3,1.4,1,1.4c0.4,0,0.6,0,0.8-0.1l0.1,0.5c-0.2,0.1-0.5,0.2-1,0.2
				c-0.5,0-0.9-0.2-1.2-0.5c-0.3-0.4-0.4-1-0.4-1.7V434h-1.2v-0.6h1.2v-1.8L125,431.4z"/>
			<path class="st13" d="M128.6,436.9c0,2.2,1.2,3.1,2.7,3.1c1,0,1.6-0.2,1.9-0.4l0.2,0.5c-0.3,0.1-1,0.4-2.2,0.4
				c-2,0-3.3-1.5-3.3-3.5c0-2.3,1.3-3.8,3.2-3.8c2.3,0,2.7,2.2,2.7,3.2c0,0.2,0,0.3,0,0.4H128.6z M133,436.3c0-1-0.4-2.5-2.1-2.5
				c-1.5,0-2.2,1.4-2.3,2.5H133z"/>
			<path class="st13" d="M139.7,431.4v2h2v0.6h-2v4.6c0,0.9,0.3,1.4,1,1.4c0.4,0,0.6,0,0.8-0.1l0.1,0.5c-0.2,0.1-0.5,0.2-1,0.2
				c-0.5,0-0.9-0.2-1.2-0.5c-0.3-0.4-0.4-1-0.4-1.7V434h-1.2v-0.6h1.2v-1.8L139.7,431.4z"/>
			<path class="st13" d="M143.3,430.1h0.7v4.6h0c0.2-0.4,0.5-0.8,1-1c0.4-0.2,0.9-0.4,1.4-0.4c0.7,0,2.4,0.3,2.4,2.9v4.2h-0.7v-4.2
				c0-1.3-0.5-2.4-1.9-2.4c-1,0-1.8,0.7-2.1,1.6c-0.1,0.2-0.1,0.4-0.1,0.7v4.3h-0.7V430.1z"/>
			<path class="st13" d="M151.2,436.9c0,2.2,1.2,3.1,2.7,3.1c1,0,1.6-0.2,1.9-0.4l0.2,0.5c-0.3,0.1-1,0.4-2.2,0.4
				c-2,0-3.3-1.5-3.3-3.5c0-2.3,1.3-3.8,3.2-3.8c2.3,0,2.7,2.2,2.7,3.2c0,0.2,0,0.3,0,0.4H151.2z M155.7,436.3c0-1-0.4-2.5-2.1-2.5
				c-1.5,0-2.2,1.4-2.3,2.5H155.7z"/>
			<path class="st13" d="M157.9,439.5c0.4,0.2,0.9,0.5,1.6,0.5c1.1,0,1.6-0.6,1.6-1.3c0-0.8-0.5-1.2-1.5-1.6
				c-1.1-0.4-1.8-1.1-1.8-1.9c0-1,0.8-1.9,2.2-1.9c0.6,0,1.2,0.2,1.6,0.4l-0.3,0.6c-0.2-0.2-0.7-0.4-1.4-0.4c-0.9,0-1.4,0.6-1.4,1.2
				c0,0.7,0.5,1,1.5,1.4c1.1,0.4,1.8,1,1.8,2.1c0,1.2-0.9,2-2.4,2c-0.7,0-1.3-0.2-1.8-0.5L157.9,439.5z"/>
			<path class="st13" d="M163.7,436.9c0,2.2,1.2,3.1,2.7,3.1c1,0,1.6-0.2,1.9-0.4l0.2,0.5c-0.3,0.1-1,0.4-2.2,0.4
				c-2,0-3.3-1.5-3.3-3.5c0-2.3,1.3-3.8,3.2-3.8c2.3,0,2.7,2.2,2.7,3.2c0,0.2,0,0.3,0,0.4H163.7z M168.2,436.3c0-1-0.4-2.5-2.1-2.5
				c-1.5,0-2.2,1.4-2.3,2.5H168.2z"/>
			<path class="st13" d="M173.9,440.5V434h-1v-0.6h1V433c0-1.8,0.8-3.1,2.7-3.1c0.6,0,1.3,0.2,1.6,0.5l-0.3,0.5
				c-0.3-0.2-0.8-0.4-1.4-0.4c-1.5,0-1.9,1.2-1.9,2.5v0.4h4v7h-0.7V434h-3.3v6.4H173.9z"/>
			<path class="st13" d="M181.1,436.9c0,2.2,1.2,3.1,2.7,3.1c1,0,1.6-0.2,2-0.4l0.2,0.5c-0.3,0.1-1,0.4-2.2,0.4
				c-2,0-3.3-1.5-3.3-3.5c0-2.3,1.3-3.8,3.2-3.8c2.3,0,2.7,2.2,2.7,3.2c0,0.2,0,0.3,0,0.4H181.1z M185.5,436.3c0-1-0.4-2.5-2.1-2.5
				c-1.5,0-2.2,1.4-2.3,2.5H185.5z"/>
			<path class="st13" d="M188,430.1h0.7v10.4H188V430.1z"/>
			<path class="st13" d="M196.7,430.1v8.7c0,0.5,0,1.1,0.1,1.6h-0.6l0-1.3h0c-0.4,0.8-1.2,1.5-2.5,1.5c-1.7,0-3-1.4-3-3.5
				c0-2.3,1.4-3.8,3.2-3.8c1.2,0,2,0.6,2.3,1.2h0v-4.4H196.7z M196,436.2c0-0.2,0-0.4-0.1-0.6c-0.2-0.9-1.1-1.7-2.2-1.7
				c-1.5,0-2.5,1.3-2.5,3.1c0,1.6,0.8,3,2.5,3c1,0,1.9-0.7,2.2-1.8c0.1-0.2,0.1-0.4,0.1-0.6V436.2z"/>
			<path class="st13" d="M198.8,439.5c0.4,0.2,0.9,0.5,1.6,0.5c1.1,0,1.6-0.6,1.6-1.3c0-0.8-0.5-1.2-1.5-1.6
				c-1.1-0.4-1.8-1.1-1.8-1.9c0-1,0.8-1.9,2.2-1.9c0.6,0,1.2,0.2,1.6,0.4l-0.3,0.6c-0.2-0.2-0.7-0.4-1.4-0.4c-0.9,0-1.4,0.6-1.4,1.2
				c0,0.7,0.5,1,1.5,1.4c1.1,0.4,1.8,1,1.8,2.1c0,1.2-0.9,2-2.4,2c-0.7,0-1.3-0.2-1.8-0.5L198.8,439.5z"/>
		</g>
		<polygon class="st14" points="38.7,496.1 39.7,496.1 39.7,489.1 233.1,489.1 233.1,496.1 234.1,496.1 234.1,488.1 38.7,488.1 		
			"/>
	</g>
</g>
</svg>
