<?xml version="1.0" encoding="utf-8"?>
<!-- Generator: Adobe Illustrator 22.1.0, SVG Export Plug-In . SVG Version: 6.00 Build 0)  -->
<svg version="1.1" id="Capa_1" xmlns="http://www.w3.org/2000/svg" xmlns:xlink="http://www.w3.org/1999/xlink" x="0px" y="0px"
	 viewBox="0 0 762.7 714.4" style="enable-background:new 0 0 762.7 714.4;" xml:space="preserve">
<style type="text/css">
	.st0{fill:#FFFFFF;}
	.st1{fill:#B2B2B2;}
	.st2{fill:#1A1F71;}
	.st3{fill:#FFBF00;}
	.st4{fill:#F1AC0A;}
	.st5{fill:#707072;}
	.st6{fill:none;stroke:#FFBF00;stroke-width:3;stroke-miterlimit:10;}
	.st7{fill:#E2E2E2;}
	.st8{fill:url(#SVGID_1_);}
	.st9{fill:#ECF0F1;}
	.st10{fill:#B7BDC2;}
	.st11{fill:#FF4444;}
	.st12{fill:#99CC00;}
	.st13{fill:#FFBB33;}
	.st14{fill:#B8BFC3;}
	.st15{fill:#BDC3C7;}
</style>
<g>
	<g>
		<rect x="0.5" y="0.5" class="st0" width="761.7" height="713.4"/>
		<path class="st1" d="M761.7,1v712.4H1V1H761.7 M762.7,0h-1H1H0v1v712.4v1h1h760.7h1v-1V1V0L762.7,0z"/>
	</g>
	<g>
		<rect x="1" y="46.9" class="st0" width="760.7" height="666"/>
		<rect x="1" y="46.9" class="st2" width="760.7" height="64"/>
		<rect x="1" y="110.9" class="st2" width="760.7" height="378"/>
		<rect x="1" y="488.9" class="st3" width="760.7" height="7"/>
		<g>
			<g>
				<g>
					<path class="st0" d="M100.5,235.9c-0.6-1.7-2.1-2.8-3.9-2.8c-1.8,0-3.3,1.2-3.9,2.8h-4.8c-0.4,0-0.7,0.3-0.7,0.7
						c0,0.4,0.3,0.7,0.7,0.7h2.8c-0.6,0.7-1,1.7-1,2.7c0,0.4,0.1,0.8,0.2,1.2h-2c-0.4,0-0.7,0.3-0.7,0.7c0,0.4,0.3,0.7,0.7,0.7h2.7
						c0.8,0.9,1.9,1.6,3.2,1.6h7.4c2.3,0,4.1-1.9,4.1-4.1C105.3,237.4,103,235.4,100.5,235.9z M101.2,242.7h-7.4
						c-1.5,0-2.7-1.2-2.7-2.7c0-1.3,0.9-2.5,2.3-2.7l0.5-0.1l0.1-0.5c0.2-1.3,1.4-2.3,2.7-2.3c1.4,0,2.5,1,2.7,2.4l0.1,0.9l0.8-0.3
						c1.9-0.7,3.7,0.7,3.7,2.6C104,241.5,102.7,242.7,101.2,242.7z"/>
					<path class="st0" d="M148.4,187.4c-0.6-1.7-2.1-2.8-3.9-2.8c-1.8,0-3.3,1.2-3.9,2.8h-4.8c-0.4,0-0.7,0.3-0.7,0.7
						s0.3,0.7,0.7,0.7h2.8c-0.6,0.7-1,1.7-1,2.7c0,0.4,0.1,0.8,0.2,1.2h-2c-0.4,0-0.7,0.3-0.7,0.7s0.3,0.7,0.7,0.7h2.7
						c0.8,0.9,1.9,1.6,3.2,1.6h7.4c2.3,0,4.1-1.9,4.1-4.1C153.3,188.9,151,186.9,148.4,187.4z M149.1,194.2h-7.4
						c-1.5,0-2.7-1.2-2.7-2.7c0-1.3,0.9-2.5,2.3-2.7l0.5-0.1l0.1-0.5c0.2-1.3,1.4-2.3,2.7-2.3c1.4,0,2.5,1,2.7,2.4l0.1,0.9l0.8-0.3
						c1.9-0.7,3.7,0.7,3.7,2.6C151.9,192.9,150.6,194.2,149.1,194.2z"/>
					<path class="st0" d="M248.6,173.5c-0.6-1.7-2.1-2.8-3.9-2.8c-1.8,0-3.3,1.2-3.9,2.8H236c-0.4,0-0.7,0.3-0.7,0.7
						c0,0.4,0.3,0.7,0.7,0.7h2.8c-0.6,0.7-1,1.7-1,2.7c0,0.4,0.1,0.8,0.2,1.2h-2c-0.4,0-0.7,0.3-0.7,0.7c0,0.4,0.3,0.7,0.7,0.7h2.7
						c0.8,0.9,1.9,1.6,3.2,1.6h7.4c2.3,0,4.1-1.9,4.1-4.1C253.4,175.1,251.1,173.1,248.6,173.5z M249.3,180.4h-7.4
						c-1.5,0-2.7-1.2-2.7-2.7c0-1.3,0.9-2.5,2.3-2.7l0.5-0.1l0.1-0.5c0.2-1.3,1.4-2.3,2.7-2.3c1.4,0,2.5,1,2.7,2.4l0.1,0.9l0.8-0.3
						c1.9-0.7,3.7,0.7,3.7,2.6C252,179.1,250.8,180.4,249.3,180.4z"/>
					<path class="st0" d="M333.1,217.4c-0.6-1.7-2.1-2.8-3.9-2.8c-1.8,0-3.3,1.2-3.9,2.8h-4.8c-0.4,0-0.7,0.3-0.7,0.7
						c0,0.4,0.3,0.7,0.7,0.7h2.8c-0.6,0.7-1,1.7-1,2.7c0,0.4,0.1,0.8,0.2,1.2h-2c-0.4,0-0.7,0.3-0.7,0.7s0.3,0.7,0.7,0.7h2.7
						c0.8,0.9,1.9,1.6,3.2,1.6h7.4c2.3,0,4.1-1.9,4.1-4.1C338,218.9,335.7,216.9,333.1,217.4z M333.8,224.2h-7.4
						c-1.5,0-2.7-1.2-2.7-2.7c0-1.3,0.9-2.5,2.3-2.7l0.5-0.1l0.1-0.5c0.2-1.3,1.4-2.3,2.7-2.3c1.4,0,2.5,1,2.7,2.4l0.1,0.9l0.8-0.3
						c1.9-0.7,3.7,0.7,3.7,2.6C336.6,222.9,335.3,224.2,333.8,224.2z"/>
					<path class="st0" d="M417.2,170.6c-0.6-1.7-2.1-2.8-3.9-2.8c-1.8,0-3.3,1.2-3.9,2.8h-4.8c-0.4,0-0.7,0.3-0.7,0.7
						s0.3,0.7,0.7,0.7h2.8c-0.6,0.7-1,1.7-1,2.7c0,0.4,0.1,0.8,0.2,1.2h-2c-0.4,0-0.7,0.3-0.7,0.7c0,0.4,0.3,0.7,0.7,0.7h2.7
						c0.8,0.9,1.9,1.6,3.2,1.6h7.4c2.3,0,4.1-1.9,4.1-4.1C422,172.2,419.7,170.2,417.2,170.6z M417.9,177.4h-7.4
						c-1.5,0-2.7-1.2-2.7-2.7c0-1.3,0.9-2.5,2.3-2.7l0.5-0.1l0.1-0.5c0.2-1.3,1.4-2.3,2.7-2.3c1.4,0,2.5,1,2.7,2.4l0.1,0.9l0.8-0.3
						c1.9-0.7,3.7,0.7,3.7,2.6C420.6,176.2,419.4,177.4,417.9,177.4z"/>
					<path class="st0" d="M537,173.5c-0.6-1.7-2.1-2.8-3.9-2.8c-1.8,0-3.3,1.2-3.9,2.8h-4.8c-0.4,0-0.7,0.3-0.7,0.7s0.3,0.7,0.7,0.7
						h2.8c-0.6,0.7-1,1.7-1,2.7c0,0.4,0.1,0.8,0.2,1.2h-2c-0.4,0-0.7,0.3-0.7,0.7c0,0.4,0.3,0.7,0.7,0.7h2.7
						c0.8,0.9,1.9,1.6,3.2,1.6h7.4c2.3,0,4.1-1.9,4.1-4.1C541.8,175,539.5,173,537,173.5z M537.7,180.3h-7.4c-1.5,0-2.7-1.2-2.7-2.7
						c0-1.3,0.9-2.5,2.3-2.7l0.5-0.1l0.1-0.5c0.2-1.3,1.4-2.3,2.7-2.3c1.4,0,2.5,1,2.7,2.4l0.1,0.9l0.8-0.3c1.9-0.7,3.7,0.7,3.7,2.6
						C540.4,179,539.2,180.3,537.7,180.3z"/>
					<path class="st0" d="M610.9,187.6c-0.6-1.7-2.1-2.8-3.9-2.8c-1.8,0-3.3,1.2-3.9,2.8h-4.8c-0.4,0-0.7,0.3-0.7,0.7
						c0,0.4,0.3,0.7,0.7,0.7h2.8c-0.6,0.7-1,1.7-1,2.7c0,0.4,0.1,0.8,0.2,1.2h-2c-0.4,0-0.7,0.3-0.7,0.7c0,0.4,0.3,0.7,0.7,0.7h2.7
						c0.8,0.9,1.9,1.6,3.2,1.6h7.4c2.3,0,4.1-1.9,4.1-4.1C615.7,189.2,613.5,187.2,610.9,187.6z M611.6,194.4h-7.4
						c-1.5,0-2.7-1.2-2.7-2.7c0-1.3,0.9-2.5,2.3-2.7l0.5-0.1l0.1-0.5c0.2-1.3,1.4-2.3,2.7-2.3c1.4,0,2.5,1,2.7,2.4l0.1,0.9l0.8-0.3
						c1.9-0.7,3.7,0.7,3.7,2.6C614.4,193.2,613.1,194.4,611.6,194.4z"/>
					<path class="st0" d="M658,234.9c-0.6-1.7-2.1-2.8-3.9-2.8c-1.8,0-3.3,1.2-3.9,2.8h-4.8c-0.4,0-0.7,0.3-0.7,0.7
						c0,0.4,0.3,0.7,0.7,0.7h2.8c-0.6,0.7-1,1.7-1,2.7c0,0.4,0.1,0.8,0.2,1.2h-2c-0.4,0-0.7,0.3-0.7,0.7c0,0.4,0.3,0.7,0.7,0.7h2.7
						c0.8,0.9,1.9,1.6,3.2,1.6h7.4c2.3,0,4.1-1.9,4.1-4.1C662.8,236.4,660.5,234.4,658,234.9z M658.7,241.7h-7.4
						c-1.5,0-2.7-1.2-2.7-2.7c0-1.3,0.9-2.5,2.3-2.7l0.5-0.1l0.1-0.5c0.2-1.3,1.4-2.3,2.7-2.3c1.4,0,2.5,1,2.7,2.4l0.1,0.9l0.8-0.3
						c1.9-0.7,3.7,0.7,3.7,2.6C661.4,240.4,660.2,241.7,658.7,241.7z"/>
					<path class="st0" d="M146.4,228.8h-1.5v-1.5c0-0.4-0.3-0.7-0.7-0.7c-0.4,0-0.7,0.3-0.7,0.7v1.5h-1.5c-0.4,0-0.7,0.3-0.7,0.7
						s0.3,0.7,0.7,0.7h1.5v1.5c0,0.4,0.3,0.7,0.7,0.7c0.4,0,0.7-0.3,0.7-0.7v-1.5h1.5c0.4,0,0.7-0.3,0.7-0.7
						S146.8,228.8,146.4,228.8z"/>
					<path class="st0" d="M202.3,183.8h-1.5v-1.5c0-0.4-0.3-0.7-0.7-0.7s-0.7,0.3-0.7,0.7v1.5H198c-0.4,0-0.7,0.3-0.7,0.7
						c0,0.4,0.3,0.7,0.7,0.7h1.5v1.5c0,0.4,0.3,0.7,0.7,0.7s0.7-0.3,0.7-0.7v-1.5h1.5c0.4,0,0.7-0.3,0.7-0.7
						C203,184.1,202.7,183.8,202.3,183.8z"/>
					<path class="st0" d="M333.9,195.5h-1.5V194c0-0.4-0.3-0.7-0.7-0.7s-0.7,0.3-0.7,0.7v1.5h-1.5c-0.4,0-0.7,0.3-0.7,0.7
						c0,0.4,0.3,0.7,0.7,0.7h1.5v1.5c0,0.4,0.3,0.7,0.7,0.7s0.7-0.3,0.7-0.7v-1.5h1.5c0.4,0,0.7-0.3,0.7-0.7
						C334.6,195.8,334.3,195.5,333.9,195.5z"/>
					<path class="st0" d="M386.3,169.1h-1.5v-1.5c0-0.4-0.3-0.7-0.7-0.7c-0.4,0-0.7,0.3-0.7,0.7v1.5H382c-0.4,0-0.7,0.3-0.7,0.7
						c0,0.4,0.3,0.7,0.7,0.7h1.5v1.5c0,0.4,0.3,0.7,0.7,0.7c0.4,0,0.7-0.3,0.7-0.7v-1.5h1.5c0.4,0,0.7-0.3,0.7-0.7
						C387,169.4,386.7,169.1,386.3,169.1z"/>
					<path class="st0" d="M494.1,175.5h-1.5V174c0-0.4-0.3-0.7-0.7-0.7c-0.4,0-0.7,0.3-0.7,0.7v1.5h-1.5c-0.4,0-0.7,0.3-0.7,0.7
						s0.3,0.7,0.7,0.7h1.5v1.5c0,0.4,0.3,0.7,0.7,0.7c0.4,0,0.7-0.3,0.7-0.7v-1.5h1.5c0.4,0,0.7-0.3,0.7-0.7
						S494.5,175.5,494.1,175.5z"/>
					<path class="st0" d="M552.3,205h-1.5v-1.5c0-0.4-0.3-0.7-0.7-0.7s-0.7,0.3-0.7,0.7v1.5H548c-0.4,0-0.7,0.3-0.7,0.7
						c0,0.4,0.3,0.7,0.7,0.7h1.5v1.5c0,0.4,0.3,0.7,0.7,0.7s0.7-0.3,0.7-0.7v-1.5h1.5c0.4,0,0.7-0.3,0.7-0.7
						C553,205.3,552.7,205,552.3,205z"/>
					<path class="st0" d="M579.9,171.3h-1.5v-1.5c0-0.4-0.3-0.7-0.7-0.7s-0.7,0.3-0.7,0.7v1.5h-1.5c-0.4,0-0.7,0.3-0.7,0.7
						c0,0.4,0.3,0.7,0.7,0.7h1.5v1.5c0,0.4,0.3,0.7,0.7,0.7s0.7-0.3,0.7-0.7v-1.5h1.5c0.4,0,0.7-0.3,0.7-0.7
						C580.6,171.7,580.3,171.3,579.9,171.3z"/>
					<path class="st0" d="M650.4,202.2H649v-1.5c0-0.4-0.3-0.7-0.7-0.7s-0.7,0.3-0.7,0.7v1.5h-1.5c-0.4,0-0.7,0.3-0.7,0.7
						s0.3,0.7,0.7,0.7h1.5v1.5c0,0.4,0.3,0.7,0.7,0.7s0.7-0.3,0.7-0.7v-1.5h1.5c0.4,0,0.7-0.3,0.7-0.7S650.8,202.2,650.4,202.2z"/>
					<path class="st0" d="M617.9,224.9h-1.5v-1.5c0-0.4-0.3-0.7-0.7-0.7s-0.7,0.3-0.7,0.7v1.5h-1.5c-0.4,0-0.7,0.3-0.7,0.7
						c0,0.4,0.3,0.7,0.7,0.7h1.5v1.5c0,0.4,0.3,0.7,0.7,0.7s0.7-0.3,0.7-0.7v-1.5h1.5c0.4,0,0.7-0.3,0.7-0.7
						C618.6,225.2,618.3,224.9,617.9,224.9z"/>
					<path class="st0" d="M107.5,201.4H106v-1.5c0-0.4-0.3-0.7-0.7-0.7c-0.4,0-0.7,0.3-0.7,0.7v1.5h-1.5c-0.4,0-0.7,0.3-0.7,0.7
						c0,0.4,0.3,0.7,0.7,0.7h1.5v1.5c0,0.4,0.3,0.7,0.7,0.7c0.4,0,0.7-0.3,0.7-0.7v-1.5h1.5c0.4,0,0.7-0.3,0.7-0.7
						C108.2,201.7,107.9,201.4,107.5,201.4z"/>
				</g>
				<path class="st0" d="M132.2,306.5h-7.8c-0.8,0-1.5,0.7-1.5,1.5v7.8c0,0.8,0.7,1.5,1.5,1.5h7.8c0.8,0,1.5-0.7,1.5-1.5V308
					C133.7,307.2,133,306.5,132.2,306.5z M132.3,308v3.2H129v-3.3L132.3,308C132.3,307.9,132.3,307.9,132.3,308z M124.4,307.9h3.2
					v3.3h-3.3L124.4,307.9C124.3,307.9,124.4,307.9,124.4,307.9z M124.3,315.8v-3.2h3.3v3.3L124.3,315.8
					C124.4,315.8,124.3,315.8,124.3,315.8z M132.2,315.8H129v-3.3h3.3L132.2,315.8C132.3,315.8,132.3,315.8,132.2,315.8z"/>
				<g>
					<path class="st0" d="M184.8,306.5h-7.8c-0.8,0-1.5,0.7-1.5,1.5v7.8c0,0.8,0.7,1.5,1.5,1.5h7.8c0.8,0,1.5-0.7,1.5-1.5V308
						C186.2,307.2,185.6,306.5,184.8,306.5z M184.8,308v3.2h-3.3v-3.3L184.8,308C184.8,307.9,184.8,307.9,184.8,308z M176.9,307.9
						h3.2v3.3h-3.3L176.9,307.9C176.9,307.9,176.9,307.9,176.9,307.9z M176.9,315.8v-3.2h3.3v3.3L176.9,315.8
						C176.9,315.8,176.9,315.8,176.9,315.8z M184.8,315.8h-3.2v-3.3h3.3L184.8,315.8C184.8,315.8,184.8,315.8,184.8,315.8z"/>
					<path class="st0" d="M205,304.3h-2.5c-0.8,0-1.5,0.7-1.5,1.5v3.1c0,0.8,0.7,1.5,1.5,1.5h2.5c0.8,0,1.5-0.7,1.5-1.5v-3.1
						C206.4,305,205.8,304.3,205,304.3z M205.1,308.9C205.1,309,205,309,205.1,308.9l-2.6,0.1c0,0-0.1,0-0.1-0.1v-3.1
						c0,0,0-0.1,0.1-0.1h2.5c0,0,0.1,0,0.1,0.1V308.9z"/>
					<path class="st0" d="M213.3,304.3h-2.5c-0.8,0-1.5,0.7-1.5,1.5v3.1c0,0.8,0.7,1.5,1.5,1.5h2.5c0.8,0,1.5-0.7,1.5-1.5v-3.1
						C214.7,305,214.1,304.3,213.3,304.3z M213.3,308.9C213.3,309,213.3,309,213.3,308.9l-2.6,0.1c0,0-0.1,0-0.1-0.1v-3.1
						c0,0,0-0.1,0.1-0.1h2.5c0,0,0.1,0,0.1,0.1V308.9z"/>
					<path class="st0" d="M247.6,304.3h-2.5c-0.8,0-1.5,0.7-1.5,1.5v3.1c0,0.8,0.7,1.5,1.5,1.5h2.5c0.8,0,1.5-0.7,1.5-1.5v-3.1
						C249.1,305,248.4,304.3,247.6,304.3z M247.7,308.9C247.7,309,247.7,309,247.7,308.9l-2.6,0.1c0,0-0.1,0-0.1-0.1v-3.1
						c0,0,0-0.1,0.1-0.1h2.5c0,0,0.1,0,0.1,0.1V308.9z"/>
					<path class="st0" d="M222.1,271.9h-2.5c-0.8,0-1.5,0.7-1.5,1.5v3.1c0,0.8,0.7,1.5,1.5,1.5h2.5c0.8,0,1.5-0.7,1.5-1.5v-3.1
						C223.6,272.5,222.9,271.9,222.1,271.9z M222.2,276.5C222.2,276.5,222.2,276.6,222.2,276.5l-2.6,0.1c0,0-0.1,0-0.1-0.1v-3.1
						c0,0,0-0.1,0.1-0.1h2.5c0,0,0.1,0,0.1,0.1V276.5z"/>
					<path class="st0" d="M230.2,271.9h-2.5c-0.8,0-1.5,0.7-1.5,1.5v3.1c0,0.8,0.7,1.5,1.5,1.5h2.5c0.8,0,1.5-0.7,1.5-1.5v-3.1
						C231.6,272.5,231,271.9,230.2,271.9z M230.3,276.5C230.3,276.5,230.2,276.6,230.3,276.5l-2.6,0.1c0,0-0.1,0-0.1-0.1v-3.1
						c0,0,0-0.1,0.1-0.1h2.5c0,0,0.1,0,0.1,0.1V276.5z"/>
					<path class="st0" d="M238.3,271.9h-2.5c-0.8,0-1.5,0.7-1.5,1.5v3.1c0,0.8,0.7,1.5,1.5,1.5h2.5c0.8,0,1.5-0.7,1.5-1.5v-3.1
						C239.7,272.5,239.1,271.9,238.3,271.9z M238.3,276.5C238.3,276.5,238.3,276.6,238.3,276.5l-2.6,0.1c0,0-0.1,0-0.1-0.1v-3.1
						c0,0,0-0.1,0.1-0.1h2.5c0,0,0.1,0,0.1,0.1V276.5z"/>
					<path class="st0" d="M222.1,279.8h-2.5c-0.8,0-1.5,0.7-1.5,1.5v3.1c0,0.8,0.7,1.5,1.5,1.5h2.5c0.8,0,1.5-0.7,1.5-1.5v-3.1
						C223.6,280.5,222.9,279.8,222.1,279.8z M222.2,284.4C222.2,284.5,222.2,284.5,222.2,284.4l-2.6,0.1c0,0-0.1,0-0.1-0.1v-3.1
						c0,0,0-0.1,0.1-0.1h2.5c0,0,0.1,0,0.1,0.1V284.4z"/>
					<path class="st0" d="M230.2,279.8h-2.5c-0.8,0-1.5,0.7-1.5,1.5v3.1c0,0.8,0.7,1.5,1.5,1.5h2.5c0.8,0,1.5-0.7,1.5-1.5v-3.1
						C231.6,280.5,231,279.8,230.2,279.8z M230.3,284.4C230.3,284.5,230.2,284.5,230.3,284.4l-2.6,0.1c0,0-0.1,0-0.1-0.1v-3.1
						c0,0,0-0.1,0.1-0.1h2.5c0,0,0.1,0,0.1,0.1V284.4z"/>
					<path class="st0" d="M238.3,279.8h-2.5c-0.8,0-1.5,0.7-1.5,1.5v3.1c0,0.8,0.7,1.5,1.5,1.5h2.5c0.8,0,1.5-0.7,1.5-1.5v-3.1
						C239.7,280.5,239.1,279.8,238.3,279.8z M238.3,284.4C238.3,284.5,238.3,284.5,238.3,284.4l-2.6,0.1c0,0-0.1,0-0.1-0.1v-3.1
						c0,0,0-0.1,0.1-0.1h2.5c0,0,0.1,0,0.1,0.1V284.4z"/>
					<path class="st0" d="M222.1,287.7h-2.5c-0.8,0-1.5,0.7-1.5,1.5v3.1c0,0.8,0.7,1.5,1.5,1.5h2.5c0.8,0,1.5-0.7,1.5-1.5v-3.1
						C223.6,288.4,222.9,287.7,222.1,287.7z M222.2,292.3C222.2,292.4,222.2,292.4,222.2,292.3l-2.6,0.1c0,0-0.1,0-0.1-0.1v-3.1
						c0,0,0-0.1,0.1-0.1h2.5c0,0,0.1,0,0.1,0.1V292.3z"/>
					<path class="st0" d="M230.2,287.7h-2.5c-0.8,0-1.5,0.7-1.5,1.5v3.1c0,0.8,0.7,1.5,1.5,1.5h2.5c0.8,0,1.5-0.7,1.5-1.5v-3.1
						C231.6,288.4,231,287.7,230.2,287.7z M230.3,292.3C230.3,292.4,230.2,292.4,230.3,292.3l-2.6,0.1c0,0-0.1,0-0.1-0.1v-3.1
						c0,0,0-0.1,0.1-0.1h2.5c0,0,0.1,0,0.1,0.1V292.3z"/>
					<path class="st0" d="M238.3,287.7h-2.5c-0.8,0-1.5,0.7-1.5,1.5v3.1c0,0.8,0.7,1.5,1.5,1.5h2.5c0.8,0,1.5-0.7,1.5-1.5v-3.1
						C239.7,288.4,239.1,287.7,238.3,287.7z M238.3,292.3C238.3,292.4,238.3,292.4,238.3,292.3l-2.6,0.1c0,0-0.1,0-0.1-0.1v-3.1
						c0,0,0-0.1,0.1-0.1h2.5c0,0,0.1,0,0.1,0.1V292.3z"/>
					<path class="st0" d="M223.3,257.1h2.5c0.8,0,1.5-0.7,1.5-1.5v-3.1c0-0.8-0.7-1.5-1.5-1.5h-2.5c-0.8,0-1.5,0.7-1.5,1.5v3.1
						C221.9,256.4,222.5,257.1,223.3,257.1z M223.2,252.5C223.2,252.5,223.3,252.4,223.2,252.5l2.6-0.1c0,0,0.1,0,0.1,0.1v3.1
						c0,0,0,0.1-0.1,0.1h-2.5c0,0-0.1,0-0.1-0.1V252.5z"/>
					<path class="st0" d="M231.6,257.1h2.5c0.8,0,1.5-0.7,1.5-1.5v-3.1c0-0.8-0.7-1.5-1.5-1.5h-2.5c-0.8,0-1.5,0.7-1.5,1.5v3.1
						C230.1,256.4,230.8,257.1,231.6,257.1z M231.5,252.5C231.5,252.5,231.5,252.4,231.5,252.5l2.6-0.1c0,0,0.1,0,0.1,0.1v3.1
						c0,0,0,0.1-0.1,0.1h-2.5c0,0-0.1,0-0.1-0.1V252.5z"/>
					<g>
						<path class="st0" d="M315.7,319.6h-10.6v-19.3h-3.3v-3.4l-1.4,0.4v3.1h-1.8v-2.6l-1.4,0.4v2.2h-7.7l-2.2,0.6l-2.5,0.8h16.9
							h1.9v4.3h-31.9l-3.7,1.4h35.7v11.7h-40.2v-10l-1.4,0.5v2.5h-5.8l-2.9,1.4h8.7v5.7h-19.9l-3.8,2h77.3c0.4,0,0.7-0.3,0.7-0.7
							C316.4,319.9,316.1,319.6,315.7,319.6z"/>
						<path class="st0" d="M234,319.1h-14.8c-0.1,0-0.2-0.1-0.2-0.2v-2c0-0.1,0.1-0.2,0.2-0.2h19l1.3-0.7c-0.3-0.4-0.8-0.7-1.3-0.7
							h-19c-0.9,0-1.6,0.7-1.6,1.6v2c0,0.1,0,0.1,0,0.2h-22.3v-5.7H244l0.3-0.2l2.5-1.2h-13.3v-11.1h28.6v4.1l1.4-0.6v-2.7h6.9
							l2-0.8l2.8-0.6h-0.9v-0.5c0-0.1,0-0.1,0-0.2v-2.3h10.2l5-1.4h-15.1v-3.2h23v1.2l1.4-0.3V186.7c1.1,0.6,1.8,1.8,1.8,3.1v103.3
							l1.4-0.3v-103c0-2.8-2.3-5.1-5.1-5.1h-3.1v-2h1.4c0.4,0,0.7-0.3,0.7-0.7s-0.3-0.7-0.7-0.7h-13.3v-3.5c0-0.4-0.3-0.7-0.7-0.7
							s-0.7,0.3-0.7,0.7v3.5h-4.3c-0.4,0-0.7,0.3-0.7,0.7s0.3,0.7,0.7,0.7h1.5v2c-2.6,0.2-4.7,2.4-4.7,5v0c-2.7,0.1-4.8,2.3-4.8,5
							v44.4c-2,0.7-3.4,2.6-3.4,4.8v31c-1.9,0.7-3.3,2.6-3.3,4.7v15.4h-2.6V291c0-0.5-0.4-1-1-1h-1.9v-7.2c0-0.4-0.3-0.7-0.7-0.7
							s-0.7,0.3-0.7,0.7v7.2h-1.9c-0.5,0-1,0.4-1,1v4.1h-8v-25.2h1.3c0.5,0,1-0.4,1-1v-3c0-0.5-0.4-1-1-1h-1.5v-6.6c0-0.5-0.4-1-1-1
							h-1.3v-10.1c0-0.5-0.4-1-1-1h-0.8v-1.9c0-0.5-0.4-1-1-1h-2.6v-13h1c0.5,0,1-0.4,1-1v-1.6c0-0.5-0.4-1-1-1h-3.7v-8.3
							c0-0.5-0.4-1-1-1h-1.4v-4.2c0-0.5-0.4-1-1-1h-0.5v-4.8c0-0.4-0.3-0.7-0.7-0.7c-0.4,0-0.7,0.3-0.7,0.7v4.8h-0.5
							c-0.5,0-1,0.4-1,1v4.2h-1.4c-0.5,0-1,0.4-1,1v8.3h-3.7c-0.5,0-1,0.4-1,1v1.6c0,0.5,0.4,1,1,1h1v13h-2.6c-0.5,0-1,0.4-1,1v1.9
							h-0.8c-0.5,0-1,0.4-1,1v10.1H215c-0.5,0-1,0.4-1,1v6.6h-1.6c-0.5,0-1,0.4-1,1v3c0,0.5,0.4,1,1,1h1.3v25.2h-8V291
							c0-0.5-0.4-1-1-1h-1.9v-7.2c0-0.4-0.3-0.7-0.7-0.7c-0.4,0-0.7,0.3-0.7,0.7v7.2h-1.9c-0.5,0-1,0.4-1,1v4.1h-6.4
							c-0.5,0-1,0.4-1,1v3.9c0,0.5,0.4,1,1,1h1.7v18.7h-5.1c0.1-0.2,0.2-0.4,0.2-0.7v-14.3h2.5c0.4,0,0.7-0.3,0.7-0.7
							c0-0.4-0.3-0.7-0.7-0.7H189v-30.2h0.1v-1.4H189v-2.1c0-0.8-0.7-1.5-1.5-1.5h-12.2V268c0-0.9-0.7-1.6-1.6-1.6h-1
							c-0.1,0-0.1,0-0.2,0v-2.2c0-0.9-0.7-1.6-1.6-1.6h-2.6c-0.9,0-1.6,0.7-1.6,1.6v2.2c-0.1,0-0.1,0-0.2,0h-1
							c-0.9,0-1.6,0.7-1.6,1.6v0.2h-3.3V268c0-0.9-0.7-1.6-1.6-1.6h-1c-0.1,0-0.1,0-0.2,0v-2.2c0-0.9-0.7-1.6-1.6-1.6h-2.6
							c-0.9,0-1.6,0.7-1.6,1.6v2.2c-0.1,0-0.1,0-0.2,0h-1c-0.9,0-1.6,0.7-1.6,1.6v0.2h-3.9V268c0-0.9-0.7-1.6-1.6-1.6h-1
							c-0.1,0-0.1,0-0.2,0v-2.2c0-0.9-0.7-1.6-1.6-1.6h-2.6c-0.9,0-1.6,0.7-1.6,1.6v2.2c-0.1,0-0.1,0-0.2,0h-1
							c-0.9,0-1.6,0.7-1.6,1.6v0.2h-12.7c-0.8,0-1.5,0.7-1.5,1.5v33.6h-3.9c-0.4,0-0.7,0.3-0.7,0.7c0,0.4,0.3,0.7,0.7,0.7h3.9V319
							c0,0.2,0.1,0.5,0.2,0.7H108v-6.7c0,0,0,0,0,0v-10.7c1.6,1.1,3.3,0.7,4.2,0.1c0.1,0,0.4,0.2,0.6,0.4c0.1,0.1,0.3,0.2,0.5,0.2
							c0.1,0,0.3,0,0.4-0.1c0.3-0.2,0.4-0.5,0.3-0.8c-0.6-1.6-1.4-2.6-2.4-3.1c0.1-0.1,0.3-0.3,0.4-0.4c0.1-0.1,0.1-0.2,0.1-0.3
							c0.1,0,0.4,0,0.6,0c0.3,0,0.5-0.1,0.7-0.3c0.2-0.2,0.2-0.5,0-0.7c-0.9-1.5-1.9-2.3-3-2.1c-1.3,0.1-2.4,1.5-3,2.6
							c-0.6-1.1-1.7-2.5-3.2-2.6c-1.2-0.1-2.3,0.6-3.2,2.1c-0.1,0.2-0.1,0.5,0,0.7c0.1,0.2,0.4,0.3,0.7,0.3c0.2,0,0.5,0,0.7,0
							c0,0.1,0.1,0.2,0.1,0.3c0.1,0.1,0.2,0.2,0.3,0.3c-1,0.5-1.8,1.6-2.5,3.2c-0.1,0.3,0,0.6,0.3,0.8c0.1,0.1,0.3,0.1,0.4,0.1
							c0.2,0,0.3-0.1,0.5-0.2c0.2-0.2,0.4-0.3,0.6-0.4c1,0.6,3,1,4.7-0.5v7.9h0v9.9H94.3V309c1.6,1.1,3.3,0.7,4.2,0.1
							c0.1,0,0.4,0.2,0.6,0.4c0.1,0.1,0.3,0.2,0.5,0.2c0.1,0,0.3,0,0.4-0.1c0.3-0.2,0.4-0.5,0.3-0.8c-0.6-1.6-1.4-2.6-2.4-3.1
							c0.1-0.1,0.3-0.3,0.4-0.4c0.1-0.1,0.1-0.2,0.1-0.3c0.1,0,0.4,0,0.6,0c0.3,0,0.5-0.1,0.7-0.3c0.2-0.2,0.2-0.5,0-0.7
							c-0.9-1.5-1.9-2.3-3-2.1c-1.3,0.1-2.4,1.5-3,2.6c-0.6-1.1-1.7-2.5-3.2-2.6c-1.2-0.1-2.3,0.6-3.2,2.1c-0.1,0.2-0.1,0.5,0,0.7
							c0.1,0.2,0.4,0.3,0.7,0.3c0.2,0,0.5,0,0.7,0c0,0.1,0.1,0.2,0.1,0.3c0.1,0.1,0.2,0.2,0.3,0.3c-1,0.5-1.8,1.6-2.5,3.2
							c-0.1,0.3,0,0.6,0.3,0.8c0.1,0.1,0.3,0.1,0.4,0.1c0.2,0,0.3-0.1,0.5-0.2c0.2-0.2,0.4-0.3,0.6-0.4c1,0.6,3,1,4.7-0.5v11h-6
							c-0.4,0-0.7,0.3-0.7,0.7c0,0.4,0.3,0.7,0.7,0.7h151.5l-6.3-0.9L234,319.1z M111.9,301c-0.1,0-0.2,0.1-0.3,0.2
							c-0.2,0.1-1.8,1-3.3-0.5c0.2-0.1,0.4-0.3,0.7-0.5c0.4,0,0.8-0.2,1.2-0.3c0.1,0,0.2,0,0.3,0C111.1,300,111.5,300.4,111.9,301z
							 M110.4,296.3c0.3,0,0.7,0.2,1,0.6c-0.1,0.1-0.3,0.1-0.4,0.2c-0.2,0.2-0.3,0.4-0.4,0.6c-0.2,0.2-0.5,0.5-1,0.8
							c-0.4,0-0.8,0.2-1.1,0.3c-0.1,0-0.2,0-0.4,0C108.8,297.7,109.6,296.4,110.4,296.3z M102.7,301.2c-0.1-0.1-0.3-0.1-0.4-0.2
							c0.4-0.6,0.9-1,1.5-1.1c0.2,0,0.4,0,0.7,0c0.2,0.1,0.4,0.1,0.6,0.2c0.3,0.2,0.7,0.4,0.9,0.5
							C104.5,302.1,102.9,301.3,102.7,301.2z M105.5,298.8c-0.2-0.1-0.4-0.2-0.7-0.2c-0.6-0.3-1-0.7-1.2-0.9
							c-0.1-0.2-0.2-0.4-0.3-0.5c-0.1-0.1-0.3-0.2-0.4-0.2c0.4-0.3,0.8-0.6,1.2-0.5c1,0.1,1.9,1.5,2.4,2.4
							C106.1,298.8,105.8,298.8,105.5,298.8z M98.1,307.8c-0.1,0-0.2,0.1-0.3,0.2c-0.2,0.1-1.8,1-3.3-0.5c0.2-0.1,0.4-0.3,0.7-0.5
							c0.4,0,0.8-0.2,1.2-0.3c0.1,0,0.2,0,0.3,0C97.3,306.8,97.8,307.2,98.1,307.8z M96.7,303.2c0.3,0,0.7,0.2,1,0.6
							c-0.1,0.1-0.3,0.1-0.4,0.2c-0.2,0.2-0.3,0.4-0.4,0.6c-0.2,0.2-0.5,0.5-1,0.8c-0.4,0-0.8,0.2-1.1,0.3c-0.1,0-0.2,0-0.4,0
							C95,304.6,95.8,303.2,96.7,303.2z M88.9,308c-0.1-0.1-0.3-0.1-0.4-0.2c0.4-0.6,0.9-1,1.5-1.1c0.2,0,0.4,0,0.7,0
							c0.2,0.1,0.4,0.1,0.6,0.2c0.3,0.2,0.7,0.4,0.9,0.5C90.7,309,89.1,308.1,88.9,308z M91.7,305.6c-0.2-0.1-0.4-0.2-0.7-0.2
							c-0.6-0.3-1-0.7-1.2-0.9c-0.1-0.2-0.2-0.4-0.3-0.5c-0.1-0.1-0.3-0.2-0.4-0.2c0.4-0.3,0.8-0.6,1.2-0.5c1,0.1,1.9,1.5,2.4,2.4
							C92.3,305.6,92,305.6,91.7,305.6z M172.6,268c0-0.1,0.1-0.2,0.2-0.2h1c0.1,0,0.2,0.1,0.2,0.2v2.2c0,0.1-0.1,0.2-0.2,0.2h-1
							c-0.1,0-0.2-0.1-0.2-0.2V268z M172.8,271.7h1h0.2v21.9h-3v-21.9h0.1H172.8z M168.2,268v-3.7c0-0.1,0.1-0.2,0.2-0.2h2.6
							c0.1,0,0.2,0.1,0.2,0.2v3.7v2.2c0,0.1-0.1,0.2-0.2,0.2h-2.6c-0.1,0-0.2-0.1-0.2-0.2V268z M168.4,271.7h1.1v21.9h-3.7v-21.9
							h0.8H168.4z M165.5,268c0-0.1,0.1-0.2,0.2-0.2h1c0.1,0,0.2,0.1,0.2,0.2v2.2c0,0.1-0.1,0.2-0.2,0.2h-1c-0.1,0-0.2-0.1-0.2-0.2
							V268z M161.1,270.4h-0.4c0-0.1,0-0.1,0-0.2v-0.6h3.3v0.6c0,0.1,0,0.1,0,0.2h-0.4c-0.4,0-0.7,0.3-0.7,0.7s0.3,0.7,0.7,0.7h0.8
							v0.2h-5.3v-0.2h1.9c0.4,0,0.7-0.3,0.7-0.7S161.5,270.4,161.1,270.4z M159.2,291v-4.8h5.3v4.8H159.2z M164.5,292.4v1.2h-5.3
							v-1.2H164.5z M159.2,284.8V281h5.3v3.8H159.2z M159.2,279.6v-6.3h5.3v6.3H159.2z M158,268c0-0.1,0.1-0.2,0.2-0.2h1
							c0.1,0,0.2,0.1,0.2,0.2v2.2c0,0.1-0.1,0.2-0.2,0.2h-1c-0.1,0-0.2-0.1-0.2-0.2V268z M157.8,271.7v21.9h-2.5v-21.9h1.1H157.8z
							 M153.6,268v-3.7c0-0.1,0.1-0.2,0.2-0.2h2.6c0.1,0,0.2,0.1,0.2,0.2v3.7v2.2c0,0.1-0.1,0.2-0.2,0.2h-1.1h-1.4h-0.1
							c-0.1,0-0.2-0.1-0.2-0.2V268z M153.8,271.7L153.8,271.7l0.1,21.9h-2.5v-21.9h0.6H153.8z M150.9,268c0-0.1,0.1-0.2,0.2-0.2h1
							c0.1,0,0.2,0.1,0.2,0.2v2.2c0,0.1-0.1,0.2-0.2,0.2h-0.6h-0.4c-0.1,0-0.2-0.1-0.2-0.2V268z M144.8,271.7h1.2
							c0.4,0,0.7-0.3,0.7-0.7s-0.3-0.7-0.7-0.7h-0.4c0-0.1,0-0.1,0-0.2v-0.6h3.9v0.6c0,0.1,0,0.1,0,0.2h-0.4c-0.4,0-0.7,0.3-0.7,0.7
							s0.3,0.7,0.7,0.7h1v0.2h-5.3V271.7z M144.8,273.4h5.3v6.3h-5.3V273.4z M144.8,281h5.3v3.8h-5.3V281z M144.8,286.2h5.3v4.8
							h-5.3V286.2z M144.8,292.4h5.3v1.2h-5.3V292.4z M142.8,268c0-0.1,0.1-0.2,0.2-0.2h1c0.1,0,0.2,0.1,0.2,0.2v2.2
							c0,0.1-0.1,0.2-0.2,0.2h-1c-0.1,0-0.2-0.1-0.2-0.2V268z M143,271.7h0.4v21.9h-3.5v-21.9h1.3H143z M138.5,268v-3.7
							c0-0.1,0.1-0.2,0.2-0.2h2.6c0.1,0,0.2,0.1,0.2,0.2v3.7v2.2c0,0.1-0.1,0.2-0.2,0.2h-2.6c-0.1,0-0.2-0.1-0.2-0.2V268z
							 M138.5,271.7v21.9h-2.8v-20.5v-1.4h0.2h1H138.5z M135.7,268c0-0.1,0.1-0.2,0.2-0.2h1c0.1,0,0.2,0.1,0.2,0.2v2.2
							c0,0.1-0.1,0.2-0.2,0.2h-1c-0.1,0-0.2-0.1-0.2-0.2V268z M121.6,269.7C121.6,269.6,121.6,269.6,121.6,269.7l12.7-0.1v0.6
							c0,0.1,0,0.1,0,0.2H134c-0.4,0-0.7,0.3-0.7,0.7s0.3,0.7,0.7,0.7h-12.4V269.7z M134.4,273.1v5.8h-0.7v-5.8H134.4z M132.3,273.1
							v5.8h-2.1v-5.8H132.3z M128.9,273.1v5.8h-0.9v-5.8H128.9z M126.6,273.1v5.8h-2.1v-5.8H126.6z M121.6,273.1h1.5v5.8h-1.5V273.1
							z M121.6,280.3h12.8v3.8h-2.2h-1.9h-4.5h-1.9h-2.2V280.3z M132.2,285.6v5.4c0,0,0,0.1-0.1,0.1h-1.9c0,0-0.1,0-0.1-0.1v-5.4
							c0,0,0-0.1,0.1-0.1L132.2,285.6C132.2,285.5,132.2,285.6,132.2,285.6z M125.8,285.6v5.4c0,0,0,0.1-0.1,0.1h-1.9
							c0,0-0.1,0-0.1-0.1v-5.4c0,0,0-0.1,0.1-0.1L125.8,285.6C125.8,285.5,125.8,285.6,125.8,285.6z M121.6,285.5h0.8
							c0,0,0,0.1,0,0.1v5.4c0,0.8,0.7,1.5,1.5,1.5h1.9c0.8,0,1.5-0.7,1.5-1.5v-5.4c0,0,0-0.1,0-0.1h1.6c0,0,0,0.1,0,0.1v5.4
							c0,0.8,0.7,1.5,1.5,1.5h1.9c0.8,0,1.5-0.7,1.5-1.5v-5.4c0,0,0-0.1,0-0.1h0.8v8.1h-12.8V285.5z M135.1,319.1h-13.4
							c0,0-0.1,0-0.1-0.1v-14.3h13.5V319.1z M138.7,319.1h-2.3v-14.4h2.3V319.1z M143.3,319.1h-3.2v-14.4h3.2V319.1z M154,319.1h-3
							c0,0-0.1,0-0.1-0.1v-5.9h3.1V319.1z M158.5,319C158.5,319,158.5,319.1,158.5,319l-3.1,0.1v-6h3.1V319z M158.5,311.7H151v-2.5
							c0,0,0-0.1,0.1-0.1h7.4c0,0,0.1,0,0.1,0.1V311.7z M164.5,319.1h-4.6c0,0,0-0.1,0-0.1v-9.8c0-0.8-0.7-1.5-1.5-1.5h-7.4
							c-0.8,0-1.5,0.7-1.5,1.5v9.8c0,0,0,0.1,0,0.1h-4.9v-14.4h19.8V319.1z M168.1,319.1h-2.3v-14.4h2.3V319.1z M172.7,319.1h-3.2
							v-14.4h3.2V319.1z M187.6,319C187.6,319,187.5,319.1,187.6,319l-13.5,0.1v-14.4h13.5V319z M187.6,303.3h-66v-3.2h66V303.3z
							 M187.6,298.7h-66V295h66V298.7z M187.6,293.6h-12.2v-8.1h0.3c0,0,0,0.1,0,0.1v5.4c0,0.8,0.7,1.5,1.5,1.5h1.9
							c0.8,0,1.5-0.7,1.5-1.5v-5.4c0,0,0-0.1,0-0.1h1.6c0,0,0,0.1,0,0.1v5.4c0,0.8,0.7,1.5,1.5,1.5h1.9c0.8,0,1.5-0.7,1.5-1.5v-5.4
							c0,0,0-0.1,0-0.1h0.7V293.6z M177,291v-5.4c0,0,0-0.1,0.1-0.1h1.9c0,0,0.1,0,0.1,0.1v5.4c0,0,0,0.1-0.1,0.1L177,291
							C177.1,291,177,291,177,291z M183.4,291v-5.4c0,0,0-0.1,0.1-0.1h1.9c0,0,0.1,0,0.1,0.1v5.4c0,0,0,0.1-0.1,0.1L183.4,291
							C183.5,291,183.4,291,183.4,291z M187.6,284.1h-2.1h-1.9H179h-1.9h-1.8v-3.8h12.2V284.1z M175.3,278.9v-5.8h1.1v5.8H175.3z
							 M177.8,278.9v-5.8h2.1v5.8H177.8z M181.2,278.9v-5.8h0.9v5.8H181.2z M183.5,278.9v-5.8h2.1v5.8H183.5z M187.6,278.9H187v-5.8
							h0.6V278.9z M187.6,271.7h-11.9c0.4,0,0.7-0.3,0.7-0.7s-0.3-0.7-0.7-0.7h-0.4c0-0.1,0-0.1,0-0.2v-0.6h12.2c0,0,0.1,0,0.1,0.1
							V271.7z M223.9,312h-28.6v-11.1h28.6V312z M228,312h-2.8v-11.1h2.8V312z M232.1,312h-2.8v-11.1h2.8V312z M297.3,291.3h-23
							v-4.1h23V291.3z M297.3,285.8h-23v-3.2h23V285.8z M297.3,281.2h-23v-0.7h1.2c1.2,0,2.1-0.9,2.1-2.1v-0.4h19.7V281.2z
							 M297.3,276.6h-19.7v-4.1h19.7V276.6z M297.3,271.1h-19.7v-4.1h19.7V271.1z M297.3,265.5h-19.7v-3.2h19.7V265.5z M297.3,260.9
							h-19.7v-4.1h19.7V260.9z M297.3,255.4h-19.7v-3.2h19.7V255.4z M297.3,250.8h-19.7v-4.1h19.7V250.8z M297.3,245.3h-19.7v-2.2
							h1.3c0.8,0,1.4-0.4,1.8-1h16.6V245.3z M297.3,240.7H281v-4.1h16.3V240.7z M297.3,235.2H281V232h16.3V235.2z M297.3,230.6H281
							v-4.1h16.3V230.6z M297.3,225.1H281v-3.2h16.3V225.1z M297.3,220.5H281v-4.1h16.3V220.5z M297.3,215H281v-3.2h16.3V215z
							 M297.3,210.4H281v-3.2h16.3V210.4z M297.3,205.8H281v-4.1h16.3V205.8z M297.3,200.3H281v-4.1h16.3V200.3z M297.3,194.8H281
							v-3.3c0-0.1,0-0.2,0-0.4h16.3V194.8z M279,182.7h13.3v2H279V182.7z M278,186.1h18.8c0.2,0,0.4,0,0.5,0.1v3.6h-18h-4.9
							C274.3,187.8,276,186.1,278,186.1z M269.5,194.8c0-2,1.7-3.7,3.7-3.7h0.5h5.6c0.2,0,0.4,0.2,0.4,0.4V241
							c0,0.4-0.3,0.7-0.7,0.7h-1.3v-1.1c0-1-0.8-1.7-1.7-1.7h-6.1c-0.1,0-0.2,0-0.3,0V194.8z M266.1,244c0-2,1.7-3.7,3.7-3.7h6.1
							c0.2,0,0.4,0.2,0.4,0.4v37.7c0,0.4-0.3,0.7-0.7,0.7h-1.2v-2.7c0-0.1,0-0.1,0-0.2V276h0c-0.2-0.8-0.9-1.4-1.7-1.4h-6.1
							c-0.1,0-0.3,0-0.4,0V244z M262.8,279.7c0-2,1.6-3.7,3.7-3.7h6.1c0.2,0,0.3,0.1,0.3,0.3v23.4c0,0.3-0.3,0.6-0.7,0.6h-6.2
							c0-0.1,0.1-0.2,0.1-0.3v-3.9c0-0.5-0.4-1-1-1h-2.4V279.7z M253.1,291.5h4.4v3.5h-4.4V291.5z M242.1,258.8v6.2h-0.5h-2.5h-0.5
							v-6.2H242.1z M227.9,213.9h1.6v3.8h-1.6V213.9z M225.5,219.1h1.9h2.5h1.9v7.9h-6.3V219.1z M220.9,229.2v-0.8h4.2h7.2h4.2v0.8
							H235h-12.5H220.9z M230.8,237.1h-4.2c-0.5,0-1,0.4-1,1v5.5h-2.8v-13h11.7v13h-2.8v-5.5C231.8,237.5,231.3,237.1,230.8,237.1z
							 M230.4,238.5v5.1H227v-5.1H230.4z M219.3,244.9h3.1h4.1h4.2h4.1h3.1v1.5h-18.7V244.9z M217.6,247.8h1.4h19.6h1.4v9.6h-1.6
							c-0.5,0-1,0.4-1,1v6.6h-1.8c0-0.1,0.1-0.3,0.1-0.5v-4.1c0-1-0.8-1.8-1.8-1.8h-1.9c-1,0-1.8,0.8-1.8,1.8v4.1
							c0,0.2,0,0.3,0.1,0.5h-2.9c0-0.1,0.1-0.3,0.1-0.5v-4.1c0-1-0.8-1.8-1.8-1.8h-1.9c-1,0-1.8,0.8-1.8,1.8v4.1
							c0,0.2,0,0.3,0.1,0.5h-1.6v-6.6c0-0.5-0.4-1-1-1h-1.7V247.8z M234.2,260.4v4.1c0,0.2-0.2,0.5-0.5,0.5h-1.9
							c-0.2,0-0.5-0.2-0.5-0.5v-4.1c0-0.2,0.2-0.5,0.5-0.5h1.9C234,260,234.2,260.2,234.2,260.4z M225.9,260.4v4.1
							c0,0.2-0.2,0.5-0.5,0.5h-1.9c-0.2,0-0.5-0.2-0.5-0.5v-4.1c0-0.2,0.2-0.5,0.5-0.5h1.9C225.7,260,225.9,260.2,225.9,260.4z
							 M215.4,258.8h3.4v6.2h-1.3h-1.8h-0.4V258.8z M212.8,268.6v-2.2h2.1h2.2h2.1h4.4h1.9h6.4h1.9h4.5h2h2.3h2v2.2h-1.8h-28H212.8z
							 M242.3,269.9v25h-27.2v-25H242.3z M200,291.5h4.4v3.5H200V291.5z M192.6,299.5v-3.1h72.2v3.1h-1.3h-69.6H192.6z"/>
					</g>
					<path class="st0" d="M253.6,309h-0.2c0,0-0.1,0-0.1-0.1v-3.1c0,0,0-0.1,0.1-0.1h2.5c0,0,0.1,0,0.1,0.1v2l1.4-0.7v-1.2
						c0-0.8-0.7-1.5-1.5-1.5h-2.5c-0.8,0-1.5,0.7-1.5,1.5v3.1c0,0.3,0.1,0.6,0.3,0.8L253.6,309z"/>
				</g>
				<g>
					<g>
						<path class="st0" d="M574.7,222h-2.1c-0.8,0-1.5,0.7-1.5,1.5v2.1c0,0.8,0.7,1.5,1.5,1.5h2.1c0.8,0,1.5-0.7,1.5-1.5v-2.1
							C576.1,222.7,575.5,222,574.7,222z M574.7,225.5C574.7,225.6,574.7,225.6,574.7,225.5l-2.2,0.1c0,0-0.1,0-0.1-0.1v-2.1
							c0,0,0-0.1,0.1-0.1h2.1c0,0,0.1,0,0.1,0.1V225.5z"/>
						<path class="st0" d="M582.9,222h-2.1c-0.8,0-1.5,0.7-1.5,1.5v2.1c0,0.8,0.7,1.5,1.5,1.5h2.1c0.8,0,1.5-0.7,1.5-1.5v-2.1
							C584.4,222.7,583.7,222,582.9,222z M583,225.5C583,225.6,583,225.6,583,225.5l-2.2,0.1c0,0-0.1,0-0.1-0.1v-2.1
							c0,0,0-0.1,0.1-0.1h2.1c0,0,0.1,0,0.1,0.1V225.5z"/>
						<path class="st0" d="M591.2,222h-2.1c-0.8,0-1.5,0.7-1.5,1.5v2.1c0,0.8,0.7,1.5,1.5,1.5h2.1c0.8,0,1.5-0.7,1.5-1.5v-2.1
							C592.7,222.7,592,222,591.2,222z M591.3,225.5C591.3,225.6,591.2,225.6,591.3,225.5l-2.2,0.1c0,0-0.1,0-0.1-0.1v-2.1
							c0,0,0-0.1,0.1-0.1h2.1c0,0,0.1,0,0.1,0.1V225.5z"/>
						<path class="st0" d="M574.7,230.2h-2.1c-0.8,0-1.5,0.7-1.5,1.5v2.1c0,0.8,0.7,1.5,1.5,1.5h2.1c0.8,0,1.5-0.7,1.5-1.5v-2.1
							C576.1,230.8,575.5,230.2,574.7,230.2z M574.7,233.7C574.7,233.7,574.7,233.8,574.7,233.7l-2.2,0.1c0,0-0.1,0-0.1-0.1v-2.1
							c0,0,0-0.1,0.1-0.1h2.1c0,0,0.1,0,0.1,0.1V233.7z"/>
						<path class="st0" d="M582.9,230.2h-2.1c-0.8,0-1.5,0.7-1.5,1.5v2.1c0,0.8,0.7,1.5,1.5,1.5h2.1c0.8,0,1.5-0.7,1.5-1.5v-2.1
							C584.4,230.8,583.7,230.2,582.9,230.2z M583,233.7C583,233.8,583,233.8,583,233.7l-2.2,0.1c0,0-0.1,0-0.1-0.1v-2.1
							c0,0,0-0.1,0.1-0.1h2.1c0,0,0.1,0,0.1,0.1V233.7z"/>
						<path class="st0" d="M591.2,230.2h-2.1c-0.8,0-1.5,0.7-1.5,1.5v2.1c0,0.8,0.7,1.5,1.5,1.5h2.1c0.8,0,1.5-0.7,1.5-1.5v-2.1
							C592.7,230.8,592,230.2,591.2,230.2z M591.3,233.7C591.3,233.8,591.2,233.8,591.3,233.7l-2.2,0.1c0,0-0.1,0-0.1-0.1v-2.1
							c0,0,0-0.1,0.1-0.1h2.1c0,0,0.1,0,0.1,0.1V233.7z"/>
						<path class="st0" d="M574.7,238.3h-2.1c-0.8,0-1.5,0.7-1.5,1.5v2.1c0,0.8,0.7,1.5,1.5,1.5h2.1c0.8,0,1.5-0.7,1.5-1.5v-2.1
							C576.1,239,575.5,238.3,574.7,238.3z M574.7,241.9C574.7,241.9,574.7,241.9,574.7,241.9l-2.2,0.1c0,0-0.1,0-0.1-0.1v-2.1
							c0,0,0-0.1,0.1-0.1h2.1c0,0,0.1,0,0.1,0.1V241.9z"/>
						<path class="st0" d="M582.9,238.4h-2.1c-0.8,0-1.5,0.7-1.5,1.5v2.1c0,0.8,0.7,1.5,1.5,1.5h2.1c0.8,0,1.5-0.7,1.5-1.5v-2.1
							C584.4,239,583.7,238.4,582.9,238.4z M583,241.9C583,241.9,583,242,583,241.9l-2.2,0.1c0,0-0.1,0-0.1-0.1v-2.1
							c0,0,0-0.1,0.1-0.1h2.1c0,0,0.1,0,0.1,0.1V241.9z"/>
						<path class="st0" d="M591.2,238.4h-2.1c-0.8,0-1.5,0.7-1.5,1.5v2.1c0,0.8,0.7,1.5,1.5,1.5h2.1c0.8,0,1.5-0.7,1.5-1.5v-2.1
							C592.7,239,592,238.4,591.2,238.4z M591.3,241.9C591.3,241.9,591.2,242,591.3,241.9l-2.2,0.1c0,0-0.1,0-0.1-0.1v-2.1
							c0,0,0-0.1,0.1-0.1h2.1c0,0,0.1,0,0.1,0.1V241.9z"/>
						<path class="st0" d="M574.7,246.5h-2.1c-0.8,0-1.5,0.7-1.5,1.5v2.1c0,0.8,0.7,1.5,1.5,1.5h2.1c0.8,0,1.5-0.7,1.5-1.5v-2.1
							C576.1,247.1,575.5,246.5,574.7,246.5z M574.7,250C574.7,250.1,574.7,250.1,574.7,250l-2.2,0.1c0,0-0.1,0-0.1-0.1v-2.1
							c0,0,0-0.1,0.1-0.1h2.1c0,0,0.1,0,0.1,0.1V250z"/>
						<path class="st0" d="M582.9,246.5h-2.1c-0.8,0-1.5,0.7-1.5,1.5v2.1c0,0.8,0.7,1.5,1.5,1.5h2.1c0.8,0,1.5-0.7,1.5-1.5V248
							C584.4,247.2,583.7,246.5,582.9,246.5z M583,250.1C583,250.1,583,250.2,583,250.1l-2.2,0.1c0,0-0.1,0-0.1-0.1V248
							c0,0,0-0.1,0.1-0.1h2.1c0,0,0.1,0,0.1,0.1V250.1z"/>
						<path class="st0" d="M591.2,246.5h-2.1c-0.8,0-1.5,0.7-1.5,1.5v2.1c0,0.8,0.7,1.5,1.5,1.5h2.1c0.8,0,1.5-0.7,1.5-1.5V248
							C592.7,247.2,592,246.5,591.2,246.5z M591.3,250.1C591.3,250.1,591.2,250.2,591.3,250.1l-2.2,0.1c0,0-0.1,0-0.1-0.1V248
							c0,0,0-0.1,0.1-0.1h2.1c0,0,0.1,0,0.1,0.1V250.1z"/>
						<path class="st0" d="M574.7,254.6h-2.1c-0.8,0-1.5,0.7-1.5,1.5v2.1c0,0.8,0.7,1.5,1.5,1.5h2.1c0.8,0,1.5-0.7,1.5-1.5v-2.1
							C576.1,255.3,575.5,254.6,574.7,254.6z M574.7,258.2C574.7,258.2,574.7,258.2,574.7,258.2l-2.2,0.1c0,0-0.1,0-0.1-0.1v-2.1
							c0,0,0-0.1,0.1-0.1h2.1c0,0,0.1,0,0.1,0.1V258.2z"/>
						<path class="st0" d="M582.9,254.7h-2.1c-0.8,0-1.5,0.7-1.5,1.5v2.1c0,0.8,0.7,1.5,1.5,1.5h2.1c0.8,0,1.5-0.7,1.5-1.5v-2.1
							C584.4,255.4,583.7,254.7,582.9,254.7z M583,258.3C583,258.3,583,258.3,583,258.3l-2.2,0.1c0,0-0.1,0-0.1-0.1v-2.1
							c0,0,0-0.1,0.1-0.1h2.1c0,0,0.1,0,0.1,0.1V258.3z"/>
						<path class="st0" d="M591.2,254.7h-2.1c-0.8,0-1.5,0.7-1.5,1.5v2.1c0,0.8,0.7,1.5,1.5,1.5h2.1c0.8,0,1.5-0.7,1.5-1.5v-2.1
							C592.7,255.4,592,254.7,591.2,254.7z M591.3,258.3C591.3,258.3,591.2,258.3,591.3,258.3l-2.2,0.1c0,0-0.1,0-0.1-0.1v-2.1
							c0,0,0-0.1,0.1-0.1h2.1c0,0,0.1,0,0.1,0.1V258.3z"/>
						<path class="st0" d="M574.7,262.8h-2.1c-0.8,0-1.5,0.7-1.5,1.5v2.1c0,0.8,0.7,1.5,1.5,1.5h2.1c0.8,0,1.5-0.7,1.5-1.5v-2.1
							C576.1,263.4,575.5,262.8,574.7,262.8z M574.7,266.3C574.7,266.4,574.7,266.4,574.7,266.3l-2.2,0.1c0,0-0.1,0-0.1-0.1v-2.1
							c0,0,0-0.1,0.1-0.1h2.1c0,0,0.1,0,0.1,0.1V266.3z"/>
						<path class="st0" d="M582.9,262.9h-2.1c-0.8,0-1.5,0.7-1.5,1.5v2.1c0,0.8,0.7,1.5,1.5,1.5h2.1c0.8,0,1.5-0.7,1.5-1.5v-2.1
							C584.4,263.6,583.7,262.9,582.9,262.9z M583,266.4C583,266.5,583,266.5,583,266.4l-2.2,0.1c0,0-0.1,0-0.1-0.1v-2.1
							c0,0,0-0.1,0.1-0.1h2.1c0,0,0.1,0,0.1,0.1V266.4z"/>
						<path class="st0" d="M591.2,262.9h-2.1c-0.8,0-1.5,0.7-1.5,1.5v2.1c0,0.8,0.7,1.5,1.5,1.5h2.1c0.8,0,1.5-0.7,1.5-1.5v-2.1
							C592.7,263.6,592,262.9,591.2,262.9z M591.3,266.4C591.3,266.5,591.2,266.5,591.3,266.4l-2.2,0.1c0,0-0.1,0-0.1-0.1v-2.1
							c0,0,0-0.1,0.1-0.1h2.1c0,0,0.1,0,0.1,0.1V266.4z"/>
						<path class="st0" d="M574.7,270.9h-2.1c-0.8,0-1.5,0.7-1.5,1.5v2.1c0,0.8,0.7,1.5,1.5,1.5h2.1c0.8,0,1.5-0.7,1.5-1.5v-2.1
							C576.1,271.6,575.5,270.9,574.7,270.9z M574.7,274.5C574.7,274.5,574.7,274.6,574.7,274.5l-2.2,0.1c0,0-0.1,0-0.1-0.1v-2.1
							c0,0,0-0.1,0.1-0.1h2.1c0,0,0.1,0,0.1,0.1V274.5z"/>
						<path class="st0" d="M582.9,271.1h-2.1c-0.8,0-1.5,0.7-1.5,1.5v2.1c0,0.8,0.7,1.5,1.5,1.5h2.1c0.8,0,1.5-0.7,1.5-1.5v-2.1
							C584.4,271.7,583.7,271.1,582.9,271.1z M583,274.6C583,274.7,583,274.7,583,274.6l-2.2,0.1c0,0-0.1,0-0.1-0.1v-2.1
							c0,0,0-0.1,0.1-0.1h2.1c0,0,0.1,0,0.1,0.1V274.6z"/>
						<path class="st0" d="M591.2,271.1h-2.1c-0.8,0-1.5,0.7-1.5,1.5v2.1c0,0.8,0.7,1.5,1.5,1.5h2.1c0.8,0,1.5-0.7,1.5-1.5v-2.1
							C592.7,271.7,592,271.1,591.2,271.1z M591.3,274.6C591.3,274.7,591.2,274.7,591.3,274.6l-2.2,0.1c0,0-0.1,0-0.1-0.1v-2.1
							c0,0,0-0.1,0.1-0.1h2.1c0,0,0.1,0,0.1,0.1V274.6z"/>
						<path class="st0" d="M574.7,279.1h-2.1c-0.8,0-1.5,0.7-1.5,1.5v2.1c0,0.8,0.7,1.5,1.5,1.5h2.1c0.8,0,1.5-0.7,1.5-1.5v-2.1
							C576.1,279.7,575.5,279.1,574.7,279.1z M574.7,282.6C574.7,282.7,574.7,282.7,574.7,282.6l-2.2,0.1c0,0-0.1,0-0.1-0.1v-2.1
							c0,0,0-0.1,0.1-0.1h2.1c0,0,0.1,0,0.1,0.1V282.6z"/>
						<path class="st0" d="M582.9,279.3h-2.1c-0.8,0-1.5,0.7-1.5,1.5v2.1c0,0.8,0.7,1.5,1.5,1.5h2.1c0.8,0,1.5-0.7,1.5-1.5v-2.1
							C584.4,279.9,583.7,279.3,582.9,279.3z M583,282.8C583,282.8,583,282.9,583,282.8l-2.2,0.1c0,0-0.1,0-0.1-0.1v-2.1
							c0,0,0-0.1,0.1-0.1h2.1c0,0,0.1,0,0.1,0.1V282.8z"/>
						<path class="st0" d="M591.2,279.3h-2.1c-0.8,0-1.5,0.7-1.5,1.5v2.1c0,0.8,0.7,1.5,1.5,1.5h2.1c0.8,0,1.5-0.7,1.5-1.5v-2.1
							C592.7,279.9,592,279.3,591.2,279.3z M591.3,282.8C591.3,282.8,591.2,282.9,591.3,282.8l-2.2,0.1c0,0-0.1,0-0.1-0.1v-2.1
							c0,0,0-0.1,0.1-0.1h2.1c0,0,0.1,0,0.1,0.1V282.8z"/>
						<path class="st0" d="M574.7,287.2h-2.1c-0.8,0-1.5,0.7-1.5,1.5v2.1c0,0.8,0.7,1.5,1.5,1.5h2.1c0.8,0,1.5-0.7,1.5-1.5v-2.1
							C576.1,287.9,575.5,287.2,574.7,287.2z M574.7,290.8C574.7,290.8,574.7,290.9,574.7,290.8l-2.2,0.1c0,0-0.1,0-0.1-0.1v-2.1
							c0,0,0-0.1,0.1-0.1h2.1c0,0,0.1,0,0.1,0.1V290.8z"/>
						<path class="st0" d="M582.9,287.4h-2.1c-0.8,0-1.5,0.7-1.5,1.5v2.1c0,0.8,0.7,1.5,1.5,1.5h2.1c0.8,0,1.5-0.7,1.5-1.5v-2.1
							C584.4,288.1,583.7,287.4,582.9,287.4z M583,291C583,291,583,291,583,291l-2.2,0.1c0,0-0.1,0-0.1-0.1v-2.1c0,0,0-0.1,0.1-0.1
							h2.1c0,0,0.1,0,0.1,0.1V291z"/>
						<path class="st0" d="M591.2,287.4h-2.1c-0.8,0-1.5,0.7-1.5,1.5v2.1c0,0.8,0.7,1.5,1.5,1.5h2.1c0.8,0,1.5-0.7,1.5-1.5v-2.1
							C592.7,288.1,592,287.4,591.2,287.4z M591.3,291C591.3,291,591.2,291,591.3,291l-2.2,0.1c0,0-0.1,0-0.1-0.1v-2.1
							c0,0,0-0.1,0.1-0.1h2.1c0,0,0.1,0,0.1,0.1V291z"/>
						<path class="st0" d="M582.9,295.6h-2.1c-0.8,0-1.5,0.7-1.5,1.5v2.1c0,0.8,0.7,1.5,1.5,1.5h2.1c0.8,0,1.5-0.7,1.5-1.5v-2.1
							C584.4,296.3,583.7,295.6,582.9,295.6z M583,299.1C583,299.2,583,299.2,583,299.1l-2.2,0.1c0,0-0.1,0-0.1-0.1v-2.1
							c0,0,0-0.1,0.1-0.1h2.1c0,0,0.1,0,0.1,0.1V299.1z"/>
						<path class="st0" d="M591.2,295.6h-2.1c-0.8,0-1.5,0.7-1.5,1.5v2.1c0,0.8,0.7,1.5,1.5,1.5h2.1c0.8,0,1.5-0.7,1.5-1.5v-2.1
							C592.7,296.3,592,295.6,591.2,295.6z M591.3,299.1C591.3,299.2,591.2,299.2,591.3,299.1l-2.2,0.1c0,0-0.1,0-0.1-0.1v-2.1
							c0,0,0-0.1,0.1-0.1h2.1c0,0,0.1,0,0.1,0.1V299.1z"/>
						<path class="st0" d="M591.2,303.8h-2.1c-0.8,0-1.5,0.7-1.5,1.5v2.1c0,0.8,0.7,1.5,1.5,1.5h2.1c0.8,0,1.5-0.7,1.5-1.5v-2.1
							C592.7,304.4,592,303.8,591.2,303.8z M591.3,307.3C591.3,307.4,591.2,307.4,591.3,307.3l-2.2,0.1c0,0-0.1,0-0.1-0.1v-2.1
							c0,0,0-0.1,0.1-0.1h2.1c0,0,0.1,0,0.1,0.1V307.3z"/>
					</g>
					<g>
						<path class="st0" d="M429.5,204.5c1.5,1.8,4,2.7,7.5,2.7c0.5,0,0.9,0,1.4-0.1c0.4,0.3,0.8,0.5,1.3,0.8c1.9,1,4,1.5,6.1,1.8
							V226c0,0.3,0.2,0.5,0.4,0.6l1,0.5v20.4h-1.1c-1,0-1.8,0.8-1.8,1.8v1.8h-0.5c-1.5,0-2.9,1.2-3.1,2.8l-6.2,36.4l1.3,0.4
							l6.2-36.6c0.1-0.9,1-1.6,1.8-1.6h0.5h0c-0.2,0.4-0.4,0.9-0.5,1.4l-5,37.5l1.4,0.3l4.2-32h22.9l5.4,40.8l1.4,0.3l-6.2-46.9
							c-0.1-0.5-0.3-1-0.5-1.4h0h0.5c0.8,0,1.6,0.7,1.8,1.6l8.1,48l1.5,0.6l-8.3-48.8c-0.3-1.6-1.6-2.8-3.1-2.8h-0.5v-1.8
							c0-1-0.8-1.8-1.8-1.8h-1.8v-12.3l0.5,0.3c0.1,0,0.2,0.1,0.3,0.1c0.1,0,0.3,0,0.4-0.1c0.2-0.1,0.3-0.3,0.3-0.6v-6l3-3
							c0.1-0.1,0.2-0.3,0.2-0.5v-16.2c1-0.2,2.8-0.6,4.8-2c0.5,0.1,1.4,0.4,2.6,0.4c1.1,0,2.5-0.2,3.8-0.9c1-0.5,1.8-1.3,2.5-2.2
							c1,0.1,2,0.2,2.9,0.2c2.4,0,4.2-0.5,5.4-1.5c1.5-1.2,1.5-2.7,1.5-2.8c0-0.2-0.1-0.4-0.2-0.5c-0.1-0.1-0.3-0.2-0.5-0.2h-5.1
							c0.1-0.1,0.1-0.2,0.1-0.3c0.1-0.4-0.2-0.7-0.6-0.8c-6.3-0.9-12.2-1.4-17.8-1.8c0,0,0,0-0.1,0c0,0,0,0,0,0
							c-2.4-0.1-4.7-0.2-6.9-0.3h-0.8v-0.1v-0.2V187c0-2.4-1.9-4.3-4.3-4.3s-4.3,1.9-4.3,4.3v9.1v0.2v0H451
							c-7.3,0.1-13.3,0.6-17.7,1.1c0,0-0.1,0-0.1,0c0,0,0,0,0,0c-1.7,0.2-3.1,0.4-4.3,0.5c0,0-0.1,0-0.1,0c-2.1,0.3-3.3,0.5-3.4,0.5
							c-0.4,0.1-0.6,0.4-0.5,0.8c0,0.1,0.1,0.2,0.1,0.3h-4.4c-0.3,0-0.6,0.3-0.7,0.6c0,0.1-0.2,1.5,1.1,2.7c1.1,1.1,3,1.7,5.6,1.7
							c0.8,0,1.7-0.1,2.7-0.2C429.4,204.4,429.4,204.5,429.5,204.5z M484.2,199.7c0.3,0,0.6,0.1,0.9,0.1c-0.1,0.1-0.2,0.3-0.2,0.4
							c0,0.4,0.3,0.7,0.7,0.7h4.8c-0.1,0.3-0.4,0.7-0.9,1.1c-0.9,0.7-2.8,1.5-6.5,1.1C483.5,202.1,483.9,201,484.2,199.7z
							 M482.9,199.5c-0.7,2.9-1.9,4.9-3.7,5.9c-1.5,0.9-3.2,0.8-4.3,0.7c1.7-1.5,3.3-3.7,4.4-7C480.4,199.2,481.6,199.4,482.9,199.5
							z M468.6,198.2c3,0.2,6,0.4,9.2,0.8c-1.2,3.5-3.1,5.6-4.8,6.9c-0.1,0-0.1,0.1-0.1,0.1c-1.7,1.2-3.3,1.7-4.2,1.8V198.2z
							 M447.1,225.6v-15.7c0.5,0,0.9,0,1.3,0c4.8,0,9.3-1.3,11.2-1.9v23.7l-0.1-0.1c0,0,0,0,0,0l-3.7-1.8c-0.1-0.1-0.2-0.1-0.3-0.1
							L447.1,225.6z M458.6,232.7v14.8h-2.4v-16L458.6,232.7z M454.8,230.8v16.7h-2.4v-17.8L454.8,230.8z M451,229v18.5h-2.4v-19.7
							L451,229z M467.1,258.3h-22.5l0.6-4.3c0.1-0.9,0.8-1.6,1.2-1.6h18.9c0.5,0,1.1,0.7,1.2,1.6L467.1,258.3z M465.7,248.9
							c0.2,0,0.4,0.2,0.4,0.4v1.8h-0.8h-18.9h-0.8v-1.8c0-0.2,0.2-0.4,0.4-0.4H465.7z M464,233.8l-2.4-1.2l2.4-2.4V233.8z
							 M461.1,201.6c0.1-0.4,0.2-0.7,0.2-1.1v-2.6c1.9,0.1,3.9,0.1,6,0.3v27l-2.1,2.1l-1.1,1.1l-2.9,2.9V201.6z M460,233.4l2.4,1.2
							v12.9H460V233.4z M453,187c0-1.6,1.3-2.9,2.9-2.9s2.9,1.3,2.9,2.9v5.2H453V187z M453,193.6h5.8v2.7H453V193.6z M451.9,197.7
							c2.5,0,5.1,0,7.8,0v3.6c-0.4,1.1-1.4,1.8-2.6,1.8h-2.4c-1.5,0-2.8-1.2-2.8-2.8V197.7z M450.5,197.8v2.7c0,2.3,1.9,4.1,4.1,4.1
							h2.4c1,0,1.9-0.4,2.6-0.9v2.8c-1.5,0.5-6.9,2.2-12.4,2l0,0c-0.3,0-1.7-0.2-1.7-0.2c-1.8-0.2-3.6-0.7-5.2-1.6
							c-3-1.6-5-4.3-6.1-8C438.4,198.3,443.9,197.9,450.5,197.8z M429.6,199.3c0.9-0.1,2-0.3,3.3-0.4c0.8,2.9,2.1,5.2,3.9,7
							c-3,0-5.1-0.8-6.3-2.2C429.3,202.2,429.4,200.1,429.6,199.3z M422,201.9c-0.3-0.3-0.5-0.7-0.6-1h4.2c0.4,0,0.7-0.3,0.7-0.7
							c0-0.2-0.1-0.3-0.2-0.5c0.4-0.1,1.1-0.2,2-0.3c-0.1,0.9-0.1,2.3,0.4,3.6C424.6,203.5,422.8,202.7,422,201.9z"/>
						<path class="st0" d="M675.8,319.6h-7.4c0.1-0.3,0-0.6-0.2-0.9L655,300.8l-14.1-19c-0.2-0.3-0.5-0.4-0.9-0.4c0,0,0,0,0,0
							c-0.4,0-0.7,0.2-0.9,0.5l-7.1,11.1l-16.3-22.1c-0.3-0.4-0.7-0.6-1.1-0.6c0,0,0,0,0,0c-0.5,0-0.9,0.3-1.1,0.6l-15.5,24.2
							l-1.4,2.2v-78.7c0-1.5-1.2-2.8-2.8-2.8h-23.5c-1.5,0-2.8,1.2-2.8,2.8v17h-16.9v42.5h-4.1v-4.1h0.9c0.9,0,1.7-0.8,1.7-1.7v-0.8
							c0-0.9-0.8-1.7-1.7-1.7h-0.9v-2.2h0.9c0.9,0,1.7-0.8,1.7-1.7v-0.8c0-0.9-0.8-1.7-1.7-1.7h-23.7c-0.9,0-1.7,0.8-1.7,1.7v0.8
							c0,0.9,0.8,1.7,1.7,1.7h0.7l0,2.2h-0.6c-0.9,0-1.7,0.8-1.7,1.7v0.8c0,0.9,0.8,1.7,1.7,1.7h0.6l0,4.1h-8.7l-2.8-59.8
							c0-0.1,0-0.1,0-0.2l0,0h0c0-0.1,0-0.1-0.1-0.2l-6.7-9c-0.1-0.2-0.3-0.3-0.5-0.3c0,0,0,0-0.1,0c0,0,0,0-0.1,0
							c-0.3,0-0.5,0.2-0.6,0.5l-7.8,8.5c-0.1,0.2-0.2,0.4-0.1,0.6l-3.8,81c-0.7,0.5-1.3,1.4-1.4,2.4l-0.7,4.7h-1.6
							c-0.3,0-0.6,0.1-0.9,0.2l3,1.2h36.2v0.4h-35.2l2.4,1.4h32.8v2.9h-26.9l0.4,0.2l2.4,1.3h24v0.6h-22.9l1.5,0.8l1.1,0.6h20.4v3.4
							h-45.2l-0.3-1.6l0.3-1.8h16.5l-3.1-1.4h-12.8c0.3-0.4,0.8-0.6,1.2-0.6h10.2l-3.6-1.4h-3.6l0.3-1.3l-0.3-0.1l-1-0.4l-0.4,2H484
							c-1.1,0-2.2,0.7-2.7,1.7l-1-6.1l-1.5-0.7l2,11.8h-4.2l-1.8-13.5l0,0l-1.4-0.4l1.9,14h-38.6l3.1-23.1l-1.4-0.3l-3.1,23.3H431
							l4.1-24l-1.4-0.3l-4.2,24.8c-0.3,0.1-0.6,0.3-0.6,0.7c0,0.4,0.3,0.7,0.7,0.7h246.2c0.4,0,0.7-0.3,0.7-0.7
							C676.5,319.9,676.2,319.6,675.8,319.6z M569.8,293.3c0.2,0,0.5,0.2,0.7,0.6h-27.9v-0.6h23.6H569.8z M542.6,287.4v-0.5h17.2
							h3.9c0.1,0,0.3,0.2,0.4,0.5H542.6z M564.3,288.8l0.4,3.2h-22.1v-3.2H564.3z M542.6,285.5v-3.8h15.4l0.3,3.8H542.6z
							 M538.5,278.2v-4.1h6.6v4.1H538.5z M542.6,313.7h43.4c0.5,0,0.9,0.2,1.2,0.6h-44.6V313.7z M542.6,312.3v-2.9h39.8l0.6,2.9
							H542.6z M542.6,308v-0.4h36.8h1.4c0.3,0,0.7,0.2,0.9,0.4H542.6z M542.6,306.3v-3.9h34.7l0.5,3.9H542.6z M542.6,301v-0.8h30.2
							h3.2c0.3,0,0.7,0.3,0.9,0.8H542.6z M542.6,298.8v-3.5h28.2l0.4,3.5H542.6z M551.9,237.1h15.5V292H566l-0.4-4
							c-0.2-1.4-1-2.5-2-2.5h-4l-0.4-4.5c-0.1-1.4-0.7-2.8-1.7-2.8h-5.6V237.1z M557.4,279.5c0.1,0.1,0.2,0.4,0.3,0.8h-15.2v-0.8
							H557.4z M523.7,266.2c-0.2,0-0.3-0.1-0.3-0.3v-0.8c0-0.2,0.1-0.3,0.3-0.3h23.7c0.2,0,0.3,0.1,0.3,0.3v0.8
							c0,0.2-0.1,0.3-0.3,0.3H523.7z M545.1,267.6v2.2h-19.4l0-2.2H545.1z M523.7,272.7c-0.2,0-0.3-0.1-0.3-0.3v-0.8
							c0-0.2,0.1-0.3,0.3-0.3h23.7c0.2,0,0.3,0.1,0.3,0.3v0.8c0,0.2-0.1,0.3-0.3,0.3H523.7z M537.1,274.1v4.1h-3.6v-4.1H537.1z
							 M532.2,274.1v4.1h-6.6l0-4.1H532.2z M510.3,217.1L510.3,217.1l0.4,0.5l0,0l0.7,1l0.1,0.9h0l2.8,58.7h-1.7
							c-1,0-1.6,1.4-1.7,2.8l-0.4,4.5h-4c-0.1,0-0.2,0-0.4,0.1l0-74.3L510.3,217.1z M498,219.9L498,219.9l0-0.4h0l0-0.2l0.1-1.1h0
							l0,0l0.6-0.7l0.9-0.9l4.9-5.4l0,7h0v1.4h0l0,67.5c-0.1,0.3-0.2,0.7-0.3,1l-0.4,4h-3.7c-1.1,0-2.1,1.1-2.3,2.6l-0.5,4.2h-3.1
							L498,219.9z M527.4,306.3h-35.2l0.5-3.9h34.7V306.3z M527.4,301h-34.3c0.3-0.5,0.6-0.8,0.9-0.8h3.2h30.2V301z M527.4,298.8
							h-28.7l0.4-3.5h28.2V298.8z M527.4,294h-27.9c0.2-0.4,0.5-0.6,0.7-0.6h3.6h23.6V294z M527.4,292h-22.1l0.4-3.2h21.7V292z
							 M527.4,287.4H506v-0.1c0.1-0.3,0.3-0.4,0.4-0.4h3.9h17.2V287.4z M527.4,285.5h-15.7l0.3-3.8h15.4V285.5z M527.4,280.3h-15.2
							c0.1-0.4,0.2-0.7,0.3-0.8h14.9V280.3z M541.2,319.1h-12.4v-0.6h12.4V319.1z M541.2,317.1h-12.4v-1.4h12.4V317.1z M541.2,314.3
							h-12.4v-0.6h12.4V314.3z M541.2,312.3h-12.4v-0.5h12.4V312.3z M541.2,310.4h-12.4v-1h12.4V310.4z M541.2,308h-12.4v-0.4h12.4
							V308z M541.2,306.3h-12.4v-1.4h12.4V306.3z M541.2,303.5h-12.4v-1.1h12.4V303.5z M541.2,301h-12.4v-0.8h12.4V301z
							 M541.2,298.8h-12.4V298h12.4V298.8z M541.2,296.6h-12.4v-1.3h12.4V296.6z M541.2,294h-12.4v-0.6h12.4V294z M541.2,292h-12.4
							v-0.8h12.4V292z M541.2,289.8h-12.4v-1h12.4V289.8z M541.2,287.4h-12.4v-0.5h12.4V287.4z M541.2,285.5h-12.4v-1.4h12.4V285.5z
							 M541.2,282.7h-12.4v-1h12.4V282.7z M541.2,280.3h-12.4v-0.8h12.4V280.3z M580.1,319.1h-37.5v-3.4h45.1l0.6,3.4H580.1z
							 M595.1,319.1h-5.4l-0.8-4.2c-0.3-1.4-1.6-2.5-3-2.5h-1.6l-0.7-3.8c-0.3-1.3-1.5-2.3-2.8-2.3h-1.6l-0.7-4.7
							c-0.2-1.6-1.3-2.8-2.6-2.8h-3.4l-0.5-4.2c-0.2-1.5-1.2-2.6-2.3-2.6h-1v-56.3v-17c0-0.8,0.6-1.4,1.4-1.4h23.5
							c0.8,0,1.4,0.6,1.4,1.4V319.1z M640.1,282.4l8.3,11.3c-0.4,0.5-0.8,0.8-1.2,0.9c-0.6,0.1-1.2-0.2-1.2-0.2c0,0,0,0-0.1,0
							c-0.9-0.5-1.9-0.3-2.7,0.4c-0.6,0.5-0.9,1.1-0.9,1.1c0,0,0,0,0,0c-0.5,0.8-1,1.2-1.6,1.2c-1.2,0.1-2.4-1.2-2.7-1.4
							c-1.2-2.2-3.4-2.5-5-2.3L640.1,282.4z M614.6,271.7l10.7,14.5c-0.5,0.6-1,1-1.5,1.1c-0.8,0.2-1.5-0.3-1.5-0.3
							c0,0-0.1,0-0.1-0.1c-1.2-0.6-2.4-0.4-3.5,0.5c-0.7,0.6-1.1,1.4-1.1,1.4c0,0,0,0,0,0c-0.6,1-1.3,1.5-2.1,1.6
							c-1.6,0.1-3.1-1.5-3.4-1.8c-1.6-2.8-4.4-3.2-6.4-2.9L614.6,271.7z M616.9,318.7l-20.4-0.2v-18.5l2.6-4l5.5-8.6c0,0,0,0,0.1,0
							c0.2-0.1,4.3-1.6,6.3,2c0,0,0,0.1,0.1,0.1c0.1,0.1,2,2.4,4.3,2.4c0.1,0,0.2,0,0.2,0c1.3-0.1,2.3-0.8,3.2-2.3
							c0.1-0.2,1.1-2.1,2.7-1.3c0.2,0.2,1.3,0.7,2.5,0.5c0.8-0.2,1.5-0.6,2.1-1.3l6.5,8.8l17,23L616.9,318.7z M651,319.2
							c0-0.3,0-0.7-0.3-0.9l-17-23l-0.7-0.9c1.1-0.2,3-0.2,4.1,1.8c0,0,0,0.1,0.1,0.1c0.1,0.1,1.6,1.8,3.4,1.8c0.1,0,0.1,0,0.2,0
							c1-0.1,1.8-0.6,2.5-1.8c0.1-0.2,0.9-1.6,2.1-1c0.2,0.1,1,0.6,2,0.4c0.6-0.1,1.2-0.5,1.7-1l5.1,6.8l13.3,17.9L651,319.2z"/>
					</g>
				</g>
				<path class="st4" d="M447.9,292.5v-13.3c0.8-0.3,1.3-1,1.3-1.9c0-1.1-0.9-2-2-2s-2,0.9-2,2c0,0.9,0.5,1.6,1.3,1.9v12.9
					c-21.4-5-44.6-7.9-68.9-8.2v-13.9c0.8-0.3,1.3-1,1.3-1.9c0-1.1-0.9-2-2-2s-2,0.9-2,2c0,0.9,0.5,1.6,1.3,1.9v13.8
					c-0.9,0-1.8,0-2.7,0c-23,0-45,2.3-65.6,6.6v-11c0.8-0.3,1.3-1,1.3-1.9c0-1.1-0.9-2-2-2s-2,0.9-2,2c0,0.9,0.5,1.6,1.3,1.9v11.3
					c-29.7,6.3-56.1,16.8-77.2,30.2h1.9h0.6h5.2h2.7h0c18.3-10.1,40-18.1,63.9-23.5v18.7h1.4v-19c0.5-0.1,0.9-0.2,1.4-0.3v19.3h1.4
					v-19.6c0.5-0.1,0.9-0.2,1.4-0.3v19.9h1.4V296c7.6-1.5,15.4-2.8,23.4-3.7v23.9h1.4v-24.1c0.5-0.1,0.9-0.1,1.4-0.2v24.2h1.4v-24.4
					c0.5,0,0.9-0.1,1.4-0.1v24.5h1.4v-24.7c10.6-1.1,21.5-1.6,32.6-1.6v26.3h1.4v-26.3c0.5,0,0.9,0,1.4,0v26.3h1.4v-26.3
					c0.5,0,0.9,0,1.4,0v26.3h1.4V290c10.2,0.2,20.1,0.9,29.9,2v24.3h1.4v-24.1c0.5,0.1,0.9,0.1,1.4,0.2v24h1.4v-23.8
					c0.5,0.1,0.9,0.1,1.4,0.2v23.6h1.4v-23.4c9.3,1.2,18.4,2.9,27.1,4.9v18.5h1.4V298c0.5,0.1,0.9,0.2,1.4,0.3v17.9h1.4v-17.6
					c0.5,0.1,0.9,0.2,1.4,0.4v17.2h1.4v-16.9C472,304.6,491,312,507.3,321h0.8h1.9h5.2h0.1h2.4C498.4,308.8,474.6,299,447.9,292.5z
					 M447.2,276.8c0.3,0,0.6,0.3,0.6,0.6c0,0.3-0.3,0.6-0.6,0.6s-0.6-0.3-0.6-0.6C446.6,277,446.9,276.8,447.2,276.8z M376.9,267.6
					c0.3,0,0.6,0.3,0.6,0.6c0,0.3-0.3,0.6-0.6,0.6s-0.6-0.3-0.6-0.6C376.3,267.9,376.6,267.6,376.9,267.6z M307.3,277
					c0.3,0,0.6,0.3,0.6,0.6c0,0.3-0.3,0.6-0.6,0.6s-0.6-0.3-0.6-0.6C306.7,277.3,307,277,307.3,277z M506.5,319.1
					c-35.1-19-81.8-30.5-133-30.5s-97.9,11.6-133,30.5h-5.4c35.5-20.8,84.4-33.8,138.4-33.8s102.9,12.9,138.4,33.8H506.5z"/>
			</g>
			<path class="st0" d="M349.6,318.6L349.6,318.6c-0.4,0-0.7,0.3-0.7,0.7v0.2c0,0.2,0,0.3-0.1,0.5h0c0,0,0,0,0,0
				c-0.2,0.5-0.6,0.9-1.1,1c-0.2,0.1-0.4,0.1-0.7,0.1c-0.2,0-0.4,0-0.6-0.1c-0.7-0.2-1.2-0.8-1.2-1.6v-0.1c0-0.4-0.3-0.7-0.7-0.8h0
				c-0.4,0-0.7,0.3-0.7,0.8v0.1c0,0.2,0,0.3-0.1,0.5h0.1c-0.1,0.2-0.2,0.4-0.4,0.6c-0.1,0.1-0.1,0.1-0.2,0.2
				c-0.1,0.1-0.2,0.1-0.3,0.2c-0.1,0-0.1,0.1-0.2,0.1c-0.2,0.1-0.5,0.2-0.8,0.2c-0.2,0-0.4,0-0.6-0.1c-0.7-0.2-1.2-0.8-1.2-1.6v-0.3
				c-0.1-0.3-0.4-0.6-0.7-0.6h0c-0.4,0-0.7,0.3-0.7,0.7v0.2c0,0.2,0,0.3-0.1,0.5h0c0,0,0,0.1-0.1,0.1c-0.2,0.4-0.5,0.8-1,0.9
				c-0.2,0.1-0.5,0.2-0.7,0.2c-0.2,0-0.5-0.1-0.7-0.1c-0.5-0.2-0.9-0.5-1.1-1.1c0,0,0,0,0,0h0c-0.1-0.2-0.1-0.3-0.1-0.5v-0.2
				c0-0.4-0.3-0.7-0.7-0.7h0h0c-0.4,0-0.7,0.3-0.7,0.7v0.2c0,0.2,0,0.3-0.1,0.5h0c0,0,0,0,0,0c-0.2,0.5-0.6,0.9-1.1,1
				c-0.2,0.1-0.4,0.1-0.7,0.1c-0.2,0-0.5-0.1-0.7-0.1c-0.5-0.2-0.9-0.5-1-1c0,0,0,0,0-0.1h0c-0.1-0.2-0.1-0.3-0.1-0.5v-0.1
				c0-0.4-0.3-0.7-0.7-0.7h0h0c-0.4,0-0.7,0.3-0.7,0.7v0.1c0,0.2,0,0.3-0.1,0.5h0c0,0,0,0,0,0.1c-0.2,0.5-0.6,0.8-1,1
				c-0.2,0.1-0.4,0.1-0.7,0.1s-0.5-0.1-0.7-0.1c-0.5-0.2-0.9-0.5-1-1c0,0,0,0,0-0.1h0c-0.1-0.2-0.1-0.3-0.1-0.5v-0.1h0c0,0,0,0,0,0
				v0c0-0.4-0.3-0.7-0.7-0.7h0c0,0,0,0,0,0v0h0c-0.4,0-0.7,0.3-0.7,0.7c0,1.8,1.5,3.3,3.3,3.3c1.1,0,2-0.5,2.6-1.3
				c0.6,0.8,1.5,1.3,2.6,1.3c1.1,0,2-0.5,2.6-1.3c0.6,0.8,1.5,1.3,2.6,1.3c1.1,0,2-0.5,2.6-1.3c0.6,0.8,1.5,1.3,2.6,1.3
				s2-0.5,2.6-1.3c0.6,0.8,1.5,1.3,2.6,1.3c1.8,0,3.3-1.5,3.3-3.3C350.3,318.9,350,318.6,349.6,318.6z"/>
			<path class="st0" d="M388.2,318.6L388.2,318.6c-0.4,0-0.7,0.3-0.7,0.7v0.2c0,0.2,0,0.3-0.1,0.5h0c0,0,0,0,0,0
				c-0.2,0.5-0.6,0.9-1.1,1c-0.2,0.1-0.4,0.1-0.7,0.1c-0.2,0-0.4,0-0.6-0.1c-0.7-0.2-1.2-0.8-1.2-1.6v-0.1c0-0.4-0.3-0.7-0.7-0.8h0
				c-0.4,0-0.7,0.3-0.7,0.8v0.1c0,0.2,0,0.3-0.1,0.5h0.1c-0.1,0.2-0.2,0.4-0.4,0.6c-0.1,0.1-0.1,0.1-0.2,0.2
				c-0.1,0.1-0.2,0.1-0.3,0.2c-0.1,0-0.1,0.1-0.2,0.1c-0.2,0.1-0.5,0.2-0.8,0.2c-0.2,0-0.4,0-0.6-0.1c-0.7-0.2-1.2-0.8-1.2-1.6v-0.3
				c-0.1-0.3-0.4-0.6-0.7-0.6h0c-0.4,0-0.7,0.3-0.7,0.7v0.2c0,0.2,0,0.3-0.1,0.5h0c0,0,0,0.1-0.1,0.1c-0.2,0.4-0.5,0.8-1,0.9
				c-0.2,0.1-0.5,0.2-0.7,0.2c-0.2,0-0.5-0.1-0.7-0.1c-0.5-0.2-0.9-0.5-1.1-1.1c0,0,0,0,0,0h0c-0.1-0.2-0.1-0.3-0.1-0.5v-0.2
				c0-0.4-0.3-0.7-0.7-0.7h0h0c-0.4,0-0.7,0.3-0.7,0.7v0.2c0,0.2,0,0.3-0.1,0.5h0c0,0,0,0,0,0c-0.2,0.5-0.6,0.9-1.1,1
				c-0.2,0.1-0.4,0.1-0.7,0.1c-0.2,0-0.5-0.1-0.7-0.1c-0.5-0.2-0.9-0.5-1-1c0,0,0,0,0-0.1h0c-0.1-0.2-0.1-0.3-0.1-0.5v-0.1
				c0-0.4-0.3-0.7-0.7-0.7h0h0c-0.4,0-0.7,0.3-0.7,0.7v0.1c0,0.2,0,0.3-0.1,0.5h0c0,0,0,0,0,0.1c-0.2,0.5-0.6,0.8-1,1
				c-0.2,0.1-0.4,0.1-0.7,0.1s-0.5-0.1-0.7-0.1c-0.5-0.2-0.9-0.5-1-1c0,0,0,0,0-0.1h0c-0.1-0.2-0.1-0.3-0.1-0.5v-0.1h0c0,0,0,0,0,0
				v0c0-0.4-0.3-0.7-0.7-0.7h0c0,0,0,0,0,0v0h0c-0.4,0-0.7,0.3-0.7,0.7c0,1.8,1.5,3.3,3.3,3.3c1.1,0,2-0.5,2.6-1.3
				c0.6,0.8,1.5,1.3,2.6,1.3c1.1,0,2-0.5,2.6-1.3c0.6,0.8,1.5,1.3,2.6,1.3c1.1,0,2-0.5,2.6-1.3c0.6,0.8,1.5,1.3,2.6,1.3
				c1.1,0,2-0.5,2.6-1.3c0.6,0.8,1.5,1.3,2.6,1.3c1.8,0,3.3-1.5,3.3-3.3C388.9,318.9,388.6,318.6,388.2,318.6z"/>
			<path class="st0" d="M421.3,318.6L421.3,318.6c-0.4,0-0.7,0.3-0.7,0.7v0.2c0,0.2,0,0.3-0.1,0.5h0c0,0,0,0,0,0
				c-0.2,0.5-0.6,0.9-1.1,1c-0.2,0.1-0.4,0.1-0.7,0.1c-0.2,0-0.4,0-0.6-0.1c-0.7-0.2-1.2-0.8-1.2-1.6v-0.1c0-0.4-0.3-0.7-0.7-0.8h0
				c-0.4,0-0.7,0.3-0.7,0.8v0.1c0,0.2,0,0.3-0.1,0.5h0.1c-0.1,0.2-0.2,0.4-0.4,0.6c-0.1,0.1-0.1,0.1-0.2,0.2
				c-0.1,0.1-0.2,0.1-0.3,0.2c-0.1,0-0.1,0.1-0.2,0.1c-0.2,0.1-0.5,0.2-0.8,0.2c-0.2,0-0.4,0-0.6-0.1c-0.7-0.2-1.2-0.8-1.2-1.6v-0.3
				c-0.1-0.3-0.4-0.6-0.7-0.6h0c-0.4,0-0.7,0.3-0.7,0.7v0.2c0,0.2,0,0.3-0.1,0.5h0c0,0,0,0.1-0.1,0.1c-0.2,0.4-0.5,0.8-1,0.9
				c-0.2,0.1-0.5,0.2-0.7,0.2c-0.2,0-0.5-0.1-0.7-0.1c-0.5-0.2-0.9-0.5-1.1-1.1c0,0,0,0,0,0h0c-0.1-0.2-0.1-0.3-0.1-0.5v-0.2
				c0-0.4-0.3-0.7-0.7-0.7h0h0c-0.4,0-0.7,0.3-0.7,0.7v0.2c0,0.2,0,0.3-0.1,0.5h0c0,0,0,0,0,0c-0.2,0.5-0.6,0.9-1.1,1
				c-0.2,0.1-0.4,0.1-0.7,0.1c-0.2,0-0.5-0.1-0.7-0.1c-0.5-0.2-0.9-0.5-1-1c0,0,0,0,0-0.1h0c-0.1-0.2-0.1-0.3-0.1-0.5v-0.1
				c0-0.4-0.3-0.7-0.7-0.7h0h0c-0.4,0-0.7,0.3-0.7,0.7v0.1c0,0,0,0.1,0,0.1c0.1,0.6,0.3,1.2,0.7,1.7c0,0,0,0,0,0
				c0.1,0.1,0.2,0.2,0.2,0.2c0.1,0.1,0.2,0.2,0.3,0.3v0c0.6,0.5,1.3,0.7,2.1,0.7c1.1,0,2-0.5,2.6-1.3c0.6,0.8,1.5,1.3,2.6,1.3
				c1.1,0,2-0.5,2.6-1.3c0.6,0.8,1.5,1.3,2.6,1.3c1.1,0,2-0.5,2.6-1.3c0.6,0.8,1.5,1.3,2.6,1.3c1.8,0,3.3-1.5,3.3-3.3
				C422,318.9,421.7,318.6,421.3,318.6z"/>
		</g>
		<g>
			<path class="st0" d="M214.9,389c-0.3-3.9-0.6-8.7-0.5-11.6h-0.1c-0.9,2.8-2,5.9-3.5,9.7l-5.5,14.2h-1.3l-5.1-13.9
				c-1.5-4.1-2.6-7.2-3.4-10.1h-0.1c-0.1,3.1-0.3,7.6-0.6,11.9l-0.8,12h-1.8l1.9-26.1h2.1l5.6,15c1.2,3.3,2.1,5.9,2.9,8.5h0.1
				c0.7-2.4,1.6-4.9,2.9-8.4l5.8-15.1h2.2l1.8,26.1h-1.8L214.9,389z"/>
			<path class="st0" d="M226,377.4c0,0.9-0.6,1.6-1.5,1.6c-0.8,0-1.4-0.7-1.4-1.6c0-0.9,0.6-1.6,1.5-1.6
				C225.4,375.8,226,376.5,226,377.4z M223.6,401.3v-18.6h1.8v18.6H223.6z"/>
			<path class="st0" d="M241.8,401.3l-0.3-2.7h-0.1c-0.9,1.4-3,3.1-5.9,3.1c-3.7,0-5.5-2.6-5.5-5.1c0-4.3,3.8-6.9,11.3-6.8v-0.5
				c0-1.8-0.4-5.5-4.8-5.5c-1.6,0-3.3,0.4-4.7,1.4l-0.6-1.3c1.7-1.2,3.8-1.6,5.4-1.6c5.4,0,6.4,4,6.4,7.3v7.2c0,1.5,0.1,3,0.3,4.4
				H241.8z M241.4,391.4c-4-0.1-9.4,0.5-9.4,5c0,2.7,1.8,3.9,3.7,3.9c3.1,0,4.9-1.9,5.5-3.7c0.1-0.4,0.2-0.8,0.2-1.1V391.4z"/>
			<path class="st0" d="M249.2,387.2c0-1.7-0.1-3-0.2-4.4h1.7l0.1,3.3h0.1c1.2-2.1,3-3.7,6-3.7c2.6,0,4.5,1.7,5.3,4.1h0.1
				c0.5-1.1,1.2-1.9,1.9-2.5c1.2-1,2.5-1.5,4.4-1.5c1.8,0,6.1,1,6.1,8.1v10.9H273v-10.8c0-4.2-1.6-6.7-4.8-6.7
				c-2.3,0-4.2,1.7-4.9,3.7c-0.2,0.5-0.3,1.2-0.3,1.8v11.9h-1.8v-11.6c0-3.3-1.6-5.8-4.6-5.8c-2.5,0-4.5,2-5.2,4.2
				c-0.2,0.5-0.3,1.2-0.3,1.8v11.4h-1.8V387.2z"/>
			<path class="st0" d="M283.3,377.4c0,0.9-0.6,1.6-1.5,1.6c-0.8,0-1.4-0.7-1.4-1.6c0-0.9,0.6-1.6,1.5-1.6
				C282.7,375.8,283.3,376.5,283.3,377.4z M280.9,401.3v-18.6h1.8v18.6H280.9z"/>
			<path class="st0" d="M299.4,375.2v26.1h-1.8v-26.1H299.4z"/>
			<path class="st0" d="M306.2,387.2c0-1.7-0.1-3-0.2-4.4h1.7l0.1,3.4h0.1c1-2.1,3.3-3.8,6.4-3.8c1.8,0,6.5,0.9,6.5,7.9v11.1H319
				v-11c0-3.4-1.3-6.5-5.1-6.5c-2.6,0-4.8,1.9-5.6,4.3c-0.1,0.4-0.3,1.1-0.3,1.7v11.5h-1.8V387.2z"/>
			<path class="st0" d="M327,387.2c0-1.7-0.1-3-0.2-4.4h1.7l0.1,3.4h0.1c1-2.1,3.3-3.8,6.4-3.8c1.8,0,6.5,0.9,6.5,7.9v11.1h-1.8v-11
				c0-3.4-1.3-6.5-5.1-6.5c-2.6,0-4.8,1.9-5.6,4.3c-0.1,0.4-0.3,1.1-0.3,1.7v11.5H327V387.2z"/>
			<path class="st0" d="M363.6,391.9c0,6.9-4.8,9.9-8.9,9.9c-4.8,0-8.5-3.7-8.5-9.6c0-6.4,4.2-9.9,8.8-9.9
				C360.1,382.3,363.6,386.2,363.6,391.9z M348.1,392.1c0,4.6,3,8.1,6.8,8.1c3.9,0,6.9-3.5,6.9-8.3c0-3.4-1.9-8.1-6.8-8.1
				C350.2,383.8,348.1,388.1,348.1,392.1z"/>
			<path class="st0" d="M367.6,382.7l4.4,11.5c0.7,1.8,1.3,3.4,1.8,5h0.1c0.5-1.5,1.2-3.2,1.9-5l4.4-11.5h1.9l-7.6,18.6h-1.6
				l-7.3-18.6H367.6z"/>
			<path class="st0" d="M395.7,401.3l-0.3-2.7h-0.1c-0.9,1.4-3,3.1-5.9,3.1c-3.7,0-5.5-2.6-5.5-5.1c0-4.3,3.8-6.9,11.3-6.8v-0.5
				c0-1.8-0.4-5.5-4.8-5.5c-1.6,0-3.3,0.4-4.7,1.4l-0.6-1.3c1.7-1.2,3.8-1.6,5.4-1.6c5.4,0,6.4,4,6.4,7.3v7.2c0,1.5,0.1,3,0.3,4.4
				H395.7z M395.3,391.4c-4-0.1-9.4,0.5-9.4,5c0,2.7,1.8,3.9,3.7,3.9c3.1,0,4.9-1.9,5.5-3.7c0.1-0.4,0.2-0.8,0.2-1.1V391.4z"/>
			<path class="st0" d="M405.6,377.4v5.4h5.3v1.5h-5.3v12.1c0,2.4,0.7,3.8,2.7,3.8c1,0,1.6-0.1,2.1-0.3l0.2,1.4
				c-0.6,0.3-1.4,0.4-2.6,0.4c-1.4,0-2.5-0.4-3.2-1.3c-0.8-1-1.1-2.5-1.1-4.4v-11.7h-3.1v-1.5h3.1V378L405.6,377.4z"/>
			<path class="st0" d="M417.4,377.4c0,0.9-0.6,1.6-1.5,1.6c-0.8,0-1.4-0.7-1.4-1.6c0-0.9,0.6-1.6,1.5-1.6
				C416.8,375.8,417.4,376.5,417.4,377.4z M415,401.3v-18.6h1.8v18.6H415z"/>
			<path class="st0" d="M439,391.9c0,6.9-4.8,9.9-8.9,9.9c-4.8,0-8.5-3.7-8.5-9.6c0-6.4,4.2-9.9,8.8-9.9
				C435.5,382.3,439,386.2,439,391.9z M423.4,392.1c0,4.6,3,8.1,6.8,8.1c3.9,0,6.9-3.5,6.9-8.3c0-3.4-1.9-8.1-6.8-8.1
				C425.6,383.8,423.4,388.1,423.4,392.1z"/>
			<path class="st0" d="M443.7,387.2c0-1.7-0.1-3-0.2-4.4h1.7l0.1,3.4h0.1c1-2.1,3.3-3.8,6.4-3.8c1.8,0,6.5,0.9,6.5,7.9v11.1h-1.8
				v-11c0-3.4-1.3-6.5-5.1-6.5c-2.6,0-4.8,1.9-5.6,4.3c-0.1,0.4-0.3,1.1-0.3,1.7v11.5h-1.8V387.2z"/>
			<path class="st0" d="M490.7,400.4c-1.3,0.7-3.8,1.3-7,1.3c-6.3,0-12.3-4-12.3-13.3c0-7.8,5-13.6,13.2-13.6c3.3,0,5.2,0.7,6,1.1
				l-0.6,1.6c-1.3-0.7-3.2-1.1-5.4-1.1c-7,0-11.3,4.6-11.3,12.1c0,7.1,4,11.7,11,11.7c2.2,0,4.4-0.5,5.9-1.2L490.7,400.4z"/>
			<path class="st0" d="M495.1,391.9c0,5.9,3.2,8.3,7.1,8.3c2.7,0,4.1-0.5,5.2-1.1l0.5,1.5c-0.7,0.4-2.6,1.2-5.9,1.2
				c-5.3,0-8.7-3.9-8.7-9.3c0-6.2,3.6-10.1,8.4-10.1c6.1,0,7.2,5.7,7.2,8.4c0,0.5,0,0.8-0.1,1.1H495.1z M506.9,390.4
				c0-2.6-1-6.5-5.6-6.5c-4.1,0-5.9,3.7-6.2,6.5H506.9z"/>
			<path class="st0" d="M513.5,387.2c0-1.7-0.1-3-0.2-4.4h1.7l0.1,3.4h0.1c1-2.1,3.3-3.8,6.4-3.8c1.8,0,6.5,0.9,6.5,7.9v11.1h-1.8
				v-11c0-3.4-1.3-6.5-5.1-6.5c-2.6,0-4.8,1.9-5.6,4.3c-0.1,0.4-0.3,1.1-0.3,1.7v11.5h-1.8V387.2z"/>
			<path class="st0" d="M536.8,377.4v5.4h5.3v1.5h-5.3v12.1c0,2.4,0.7,3.8,2.7,3.8c1,0,1.6-0.1,2.1-0.3l0.2,1.4
				c-0.6,0.3-1.4,0.4-2.6,0.4c-1.4,0-2.5-0.4-3.2-1.3c-0.8-1-1.1-2.5-1.1-4.4v-11.7h-3.1v-1.5h3.1V378L536.8,377.4z"/>
			<path class="st0" d="M546.3,391.9c0,5.9,3.2,8.3,7.1,8.3c2.7,0,4.1-0.5,5.2-1.1l0.5,1.5c-0.7,0.4-2.6,1.2-5.9,1.2
				c-5.3,0-8.7-3.9-8.7-9.3c0-6.2,3.6-10.1,8.4-10.1c6.1,0,7.2,5.7,7.2,8.4c0,0.5,0,0.8-0.1,1.1H546.3z M558.1,390.4
				c0-2.6-1-6.5-5.6-6.5c-4.1,0-5.9,3.7-6.2,6.5H558.1z"/>
			<path class="st0" d="M564.7,388.3c0-1.9-0.1-3.8-0.2-5.6h1.7l0.1,3.8h0.1c0.8-2.4,2.7-4.2,5.3-4.2c0.3,0,0.5,0,0.8,0.1v1.8
				c-0.3-0.1-0.5-0.1-0.9-0.1c-2.5,0-4.4,2.2-4.9,5.2c-0.1,0.5-0.2,1.2-0.2,1.8v10.3h-1.8V388.3z"/>
		</g>
		<g>
			<path class="st0" d="M237.3,418.6c0.7-0.1,1.7-0.2,2.6-0.2c1.7,0,2.8,0.4,3.7,1c0.9,0.7,1.4,1.8,1.4,3.3c0,1.6-0.6,2.8-1.4,3.6
				c-0.9,0.8-2.3,1.2-4.1,1.2c-1,0-1.7,0-2.2-0.1V418.6z M238.9,426.2c0.2,0,0.6,0,0.9,0c2.1,0,3.4-1.2,3.4-3.5c0-2-1.1-3.1-3.2-3.1
				c-0.5,0-0.9,0-1.1,0.1V426.2z"/>
			<path class="st0" d="M250.4,418.6c0.6-0.1,1.5-0.2,2.5-0.2c1.3,0,2.2,0.2,2.8,0.7c0.5,0.4,0.8,1,0.8,1.8c0,1.2-0.8,2-1.6,2.3v0
				c0.7,0.2,1,0.9,1.3,1.7c0.3,1.1,0.5,2.2,0.7,2.5h-1.7c-0.1-0.3-0.4-1-0.6-2.1c-0.3-1.2-0.7-1.6-1.6-1.6h-0.8v3.7h-1.6V418.6z
				 M252.1,422.6h1c1.1,0,1.8-0.6,1.8-1.5c0-1-0.7-1.4-1.8-1.4c-0.5,0-0.9,0-1,0.1V422.6z"/>
			<path class="st0" d="M263.7,418.5v9h-1.7v-9H263.7z"/>
			<path class="st0" d="M271.7,427.5l-2.9-9h1.8l1.2,4.1c0.3,1.1,0.6,2.2,0.9,3.3h0c0.2-1.1,0.6-2.2,0.9-3.3l1.3-4.1h1.8l-3.1,9
				H271.7z"/>
			<path class="st0" d="M283.3,418.5v9h-1.7v-9H283.3z"/>
			<path class="st0" d="M289.3,427.5v-9h1.9l2.3,3.9c0.6,1,1.1,2,1.5,3l0,0c-0.1-1.2-0.1-2.4-0.1-3.7v-3.2h1.5v9h-1.7l-2.4-4
				c-0.6-1-1.2-2.1-1.6-3.1l0,0c0.1,1.2,0.1,2.4,0.1,3.8v3.2H289.3z"/>
			<path class="st0" d="M309.6,427.1c-0.6,0.2-1.7,0.5-2.9,0.5c-1.5,0-2.7-0.4-3.5-1.2c-0.8-0.8-1.3-2-1.3-3.3c0-2.9,2-4.7,5-4.7
				c1.1,0,2,0.2,2.4,0.4l-0.4,1.3c-0.5-0.2-1.1-0.4-2.1-0.4c-1.9,0-3.3,1.1-3.3,3.2c0,2.1,1.3,3.3,3.1,3.3c0.6,0,1-0.1,1.2-0.2v-2.3
				h-1.6v-1.3h3.2V427.1z"/>
			<path class="st0" d="M322,418.6c0.6-0.1,1.4-0.2,2.5-0.2c1.2,0,2.1,0.3,2.7,0.7c0.5,0.4,0.9,1.2,0.9,2c0,0.9-0.3,1.6-0.8,2
				c-0.7,0.7-1.7,1-2.9,1c-0.3,0-0.6,0-0.8-0.1v3.4H322V418.6z M323.7,422.8c0.2,0.1,0.5,0.1,0.8,0.1c1.2,0,2-0.6,2-1.7
				c0-1-0.7-1.5-1.8-1.5c-0.5,0-0.8,0-1,0.1V422.8z"/>
			<path class="st0" d="M334.4,424.9l-0.8,2.6h-1.7l2.9-9h2.1l2.9,9h-1.8l-0.8-2.6H334.4z M337,423.7l-0.7-2.2
				c-0.2-0.6-0.3-1.2-0.5-1.7h0c-0.1,0.5-0.3,1.2-0.4,1.7l-0.7,2.2H337z"/>
			<path class="st0" d="M346,427.5v-3.8l-2.9-5.3h1.9l1.1,2.3c0.3,0.7,0.5,1.2,0.8,1.8h0c0.2-0.6,0.5-1.1,0.8-1.8l1.1-2.3h1.9
				l-3,5.2v3.8H346z"/>
			<path class="st0" d="M363.1,423.8c-0.1-1.2-0.1-2.6-0.1-3.8h0c-0.3,1.1-0.7,2.3-1.1,3.5l-1.3,3.9h-1.3l-1.2-3.9
				c-0.4-1.2-0.7-2.4-0.9-3.5h0c0,1.2-0.1,2.6-0.2,3.9l-0.2,3.6h-1.5l0.6-9h2.2l1.2,3.6c0.3,1.1,0.6,2.1,0.8,3.1h0
				c0.2-1,0.6-2.1,0.9-3.2l1.3-3.6h2.1l0.5,9h-1.6L363.1,423.8z"/>
			<path class="st0" d="M375.6,423.5h-3.4v2.6h3.8v1.4h-5.5v-9h5.3v1.4h-3.6v2.3h3.4V423.5z"/>
			<path class="st0" d="M381.4,427.5v-9h1.9l2.3,3.9c0.6,1,1.1,2,1.5,3l0,0c-0.1-1.2-0.1-2.4-0.1-3.7v-3.2h1.5v9h-1.7l-2.4-4
				c-0.6-1-1.2-2.1-1.6-3.1l0,0c0.1,1.2,0.1,2.4,0.1,3.8v3.2H381.4z"/>
			<path class="st0" d="M396.2,419.9h-2.6v-1.4h6.8v1.4h-2.6v7.6h-1.7V419.9z"/>
			<path class="st0" d="M414,418.5v9h-1.7v-9H414z"/>
			<path class="st0" d="M419.9,427.5v-9h1.9l2.3,3.9c0.6,1,1.1,2,1.5,3l0,0c-0.1-1.2-0.1-2.4-0.1-3.7v-3.2h1.5v9h-1.7l-2.4-4
				c-0.6-1-1.2-2.1-1.6-3.1l0,0c0.1,1.2,0.1,2.4,0.1,3.8v3.2H419.9z"/>
			<path class="st0" d="M433,427.5v-9h1.9l2.3,3.9c0.6,1,1.1,2,1.5,3l0,0c-0.1-1.2-0.1-2.4-0.1-3.7v-3.2h1.5v9h-1.7l-2.4-4
				c-0.6-1-1.2-2.1-1.6-3.1l0,0c0.1,1.2,0.1,2.4,0.1,3.8v3.2H433z"/>
			<path class="st0" d="M454,422.9c0,3-1.8,4.8-4.3,4.8c-2.6,0-4.2-1.9-4.2-4.6c0-2.8,1.8-4.7,4.3-4.7
				C452.5,418.3,454,420.3,454,422.9z M447.3,423c0,1.8,0.9,3.3,2.5,3.3c1.6,0,2.5-1.5,2.5-3.4c0-1.7-0.8-3.3-2.5-3.3
				C448.2,419.6,447.3,421.2,447.3,423z"/>
			<path class="st0" d="M461.5,427.5l-2.9-9h1.8l1.2,4.1c0.3,1.1,0.6,2.2,0.9,3.3h0c0.2-1.1,0.6-2.2,0.9-3.3l1.3-4.1h1.8l-3.1,9
				H461.5z"/>
			<path class="st0" d="M472.6,424.9l-0.8,2.6h-1.7l2.9-9h2.1l2.9,9h-1.8l-0.8-2.6H472.6z M475.2,423.7l-0.7-2.2
				c-0.2-0.6-0.3-1.2-0.5-1.7h0c-0.1,0.5-0.3,1.2-0.4,1.7l-0.7,2.2H475.2z"/>
			<path class="st0" d="M484,419.9h-2.6v-1.4h6.8v1.4h-2.6v7.6H484V419.9z"/>
			<path class="st0" d="M494.9,418.5v9h-1.7v-9H494.9z"/>
			<path class="st0" d="M508.8,422.9c0,3-1.8,4.8-4.3,4.8c-2.6,0-4.2-1.9-4.2-4.6c0-2.8,1.8-4.7,4.3-4.7
				C507.3,418.3,508.8,420.3,508.8,422.9z M502.1,423c0,1.8,0.9,3.3,2.5,3.3c1.6,0,2.5-1.5,2.5-3.4c0-1.7-0.8-3.3-2.5-3.3
				C503,419.6,502.1,421.2,502.1,423z"/>
			<path class="st0" d="M514.3,427.5v-9h1.9l2.3,3.9c0.6,1,1.1,2,1.5,3l0,0c-0.1-1.2-0.1-2.4-0.1-3.7v-3.2h1.5v9h-1.7l-2.4-4
				c-0.6-1-1.2-2.1-1.6-3.1l0,0c0.1,1.2,0.1,2.4,0.1,3.8v3.2H514.3z"/>
		</g>
		<g>
			<path class="st2" d="M94.3,568.8c-0.2-2.5-0.4-5.6-0.3-7.4h-0.1c-0.6,1.8-1.3,3.8-2.3,6.3l-3.5,9.1h-0.8l-3.3-8.9
				c-1-2.6-1.7-4.6-2.2-6.5h-0.1c0,2-0.2,4.9-0.4,7.7l-0.5,7.7h-1.2l1.2-16.8h1.4l3.6,9.7c0.8,2.1,1.4,3.8,1.9,5.4h0.1
				c0.4-1.6,1-3.2,1.9-5.4l3.7-9.7h1.4l1.1,16.8h-1.2L94.3,568.8z"/>
			<path class="st2" d="M101.4,561.4c0,0.6-0.4,1-1,1c-0.5,0-0.9-0.5-0.9-1c0-0.5,0.4-1,1-1C101,560.4,101.4,560.8,101.4,561.4z
				 M99.9,576.8v-12h1.2v12H99.9z"/>
			<path class="st2" d="M111.6,576.8l-0.2-1.7h-0.1c-0.6,0.9-1.9,2-3.8,2c-2.4,0-3.5-1.7-3.5-3.3c0-2.8,2.4-4.4,7.3-4.4v-0.3
				c0-1.2-0.2-3.5-3.1-3.5c-1,0-2.1,0.3-3,0.9l-0.4-0.9c1.1-0.7,2.4-1,3.5-1c3.5,0,4.1,2.6,4.1,4.7v4.7c0,0.9,0,1.9,0.2,2.8H111.6z
				 M111.3,570.4c-2.6-0.1-6,0.3-6,3.2c0,1.7,1.1,2.5,2.4,2.5c2,0,3.1-1.2,3.5-2.4c0.1-0.3,0.1-0.5,0.1-0.7V570.4z"/>
			<path class="st2" d="M116.4,567.7c0-1.1,0-1.9-0.1-2.9h1.1l0.1,2.1h0c0.8-1.4,1.9-2.4,3.9-2.4c1.7,0,2.9,1.1,3.4,2.6h0
				c0.3-0.7,0.8-1.2,1.2-1.6c0.8-0.6,1.6-1,2.9-1c1.2,0,3.9,0.7,3.9,5.2v7h-1.2v-6.9c0-2.7-1-4.3-3.1-4.3c-1.5,0-2.7,1.1-3.1,2.4
				c-0.1,0.3-0.2,0.7-0.2,1.2v7.7H124v-7.5c0-2.2-1-3.7-3-3.7c-1.6,0-2.9,1.3-3.3,2.7c-0.1,0.3-0.2,0.7-0.2,1.2v7.4h-1.2V567.7z"/>
			<path class="st2" d="M138.3,561.4c0,0.6-0.4,1-1,1c-0.5,0-0.9-0.5-0.9-1c0-0.5,0.4-1,1-1C138,560.4,138.3,560.8,138.3,561.4z
				 M136.8,576.8v-12h1.2v12H136.8z"/>
			<path class="st2" d="M148.7,560v16.8h-1.2V560H148.7z"/>
			<path class="st2" d="M153.1,567.7c0-1.1,0-1.9-0.1-2.9h1.1l0.1,2.2h0c0.7-1.3,2.2-2.4,4.1-2.4c1.1,0,4.2,0.6,4.2,5.1v7.2h-1.2
				v-7.1c0-2.2-0.8-4.2-3.3-4.2c-1.7,0-3.1,1.2-3.6,2.8c-0.1,0.3-0.2,0.7-0.2,1.1v7.4h-1.2V567.7z"/>
			<path class="st2" d="M166.4,567.7c0-1.1,0-1.9-0.1-2.9h1.1l0.1,2.2h0c0.7-1.3,2.2-2.4,4.1-2.4c1.1,0,4.2,0.6,4.2,5.1v7.2h-1.2
				v-7.1c0-2.2-0.8-4.2-3.3-4.2c-1.7,0-3.1,1.2-3.6,2.8c-0.1,0.3-0.2,0.7-0.2,1.1v7.4h-1.2V567.7z"/>
			<path class="st2" d="M190,570.7c0,4.5-3.1,6.4-5.7,6.4c-3.1,0-5.5-2.4-5.5-6.2c0-4.1,2.7-6.3,5.7-6.3
				C187.8,564.5,190,567,190,570.7z M180,570.8c0,3,1.9,5.2,4.4,5.2c2.5,0,4.4-2.3,4.4-5.3c0-2.2-1.2-5.2-4.4-5.2
				C181.4,565.5,180,568.2,180,570.8z"/>
			<path class="st2" d="M192.5,564.8l2.8,7.4c0.5,1.2,0.8,2.2,1.2,3.2h0.1c0.3-1,0.8-2.1,1.2-3.2l2.8-7.4h1.2l-4.9,12h-1l-4.7-12
				H192.5z"/>
			<path class="st2" d="M210.7,576.8l-0.2-1.7h-0.1c-0.6,0.9-1.9,2-3.8,2c-2.4,0-3.5-1.7-3.5-3.3c0-2.8,2.4-4.4,7.3-4.4v-0.3
				c0-1.2-0.2-3.5-3.1-3.5c-1,0-2.1,0.3-3,0.9l-0.4-0.9c1.1-0.7,2.4-1,3.5-1c3.5,0,4.1,2.6,4.1,4.7v4.7c0,0.9,0,1.9,0.2,2.8H210.7z
				 M210.4,570.4c-2.6-0.1-6,0.3-6,3.2c0,1.7,1.1,2.5,2.4,2.5c2,0,3.1-1.2,3.5-2.4c0.1-0.3,0.1-0.5,0.1-0.7V570.4z"/>
			<path class="st2" d="M217,561.3v3.5h3.4v1H217v7.8c0,1.5,0.5,2.5,1.8,2.5c0.6,0,1.1-0.1,1.4-0.2l0.1,0.9
				c-0.4,0.2-0.9,0.3-1.7,0.3c-0.9,0-1.6-0.3-2.1-0.8c-0.5-0.6-0.7-1.6-0.7-2.9v-7.6h-2v-1h2v-3.1L217,561.3z"/>
			<path class="st2" d="M224.6,561.4c0,0.6-0.4,1-1,1c-0.5,0-0.9-0.5-0.9-1c0-0.5,0.4-1,1-1C224.3,560.4,224.6,560.8,224.6,561.4z
				 M223.1,576.8v-12h1.2v12H223.1z"/>
			<path class="st2" d="M238.5,570.7c0,4.5-3.1,6.4-5.7,6.4c-3.1,0-5.5-2.4-5.5-6.2c0-4.1,2.7-6.3,5.7-6.3
				C236.3,564.5,238.5,567,238.5,570.7z M228.5,570.8c0,3,1.9,5.2,4.4,5.2c2.5,0,4.4-2.3,4.4-5.3c0-2.2-1.2-5.2-4.4-5.2
				C229.9,565.5,228.5,568.2,228.5,570.8z"/>
			<path class="st2" d="M241.6,567.7c0-1.1,0-1.9-0.1-2.9h1.1l0.1,2.2h0c0.7-1.3,2.2-2.4,4.1-2.4c1.1,0,4.2,0.6,4.2,5.1v7.2h-1.2
				v-7.1c0-2.2-0.8-4.2-3.3-4.2c-1.7,0-3.1,1.2-3.6,2.8c-0.1,0.3-0.2,0.7-0.2,1.1v7.4h-1.2V567.7z"/>
			<path class="st2" d="M271.8,576.2c-0.8,0.4-2.5,0.8-4.5,0.8c-4.1,0-7.9-2.6-7.9-8.6c0-5,3.2-8.8,8.5-8.8c2.1,0,3.4,0.5,3.9,0.7
				l-0.4,1c-0.9-0.4-2.1-0.7-3.5-0.7c-4.5,0-7.3,2.9-7.3,7.8c0,4.6,2.6,7.5,7.1,7.5c1.4,0,2.8-0.3,3.8-0.8L271.8,576.2z"/>
			<path class="st2" d="M274.6,570.7c0,3.8,2.1,5.3,4.5,5.3c1.7,0,2.6-0.3,3.3-0.7l0.3,0.9c-0.5,0.2-1.7,0.8-3.8,0.8
				c-3.4,0-5.6-2.5-5.6-6c0-4,2.3-6.5,5.4-6.5c3.9,0,4.7,3.7,4.7,5.4c0,0.3,0,0.5,0,0.7H274.6z M282.2,569.7c0-1.7-0.7-4.2-3.6-4.2
				c-2.6,0-3.8,2.4-4,4.2H282.2z"/>
			<path class="st2" d="M286.5,567.7c0-1.1,0-1.9-0.1-2.9h1.1l0.1,2.2h0c0.7-1.3,2.2-2.4,4.1-2.4c1.1,0,4.2,0.6,4.2,5.1v7.2h-1.2
				v-7.1c0-2.2-0.8-4.2-3.3-4.2c-1.7,0-3.1,1.2-3.6,2.8c-0.1,0.3-0.2,0.7-0.2,1.1v7.4h-1.2V567.7z"/>
			<path class="st2" d="M301.5,561.3v3.5h3.4v1h-3.4v7.8c0,1.5,0.5,2.5,1.8,2.5c0.6,0,1.1-0.1,1.4-0.2l0.1,0.9
				c-0.4,0.2-0.9,0.3-1.7,0.3c-0.9,0-1.6-0.3-2.1-0.8c-0.5-0.6-0.7-1.6-0.7-2.9v-7.6h-2v-1h2v-3.1L301.5,561.3z"/>
			<path class="st2" d="M307.6,570.7c0,3.8,2.1,5.3,4.5,5.3c1.7,0,2.6-0.3,3.3-0.7l0.3,0.9c-0.5,0.2-1.7,0.8-3.8,0.8
				c-3.4,0-5.6-2.5-5.6-6c0-4,2.3-6.5,5.4-6.5c3.9,0,4.7,3.7,4.7,5.4c0,0.3,0,0.5,0,0.7H307.6z M315.2,569.7c0-1.7-0.7-4.2-3.6-4.2
				c-2.6,0-3.8,2.4-4,4.2H315.2z"/>
			<path class="st2" d="M319.4,568.4c0-1.2,0-2.4-0.1-3.6h1.1l0,2.4h0.1c0.5-1.5,1.8-2.7,3.4-2.7c0.2,0,0.3,0,0.5,0.1v1.1
				c-0.2,0-0.3,0-0.6,0c-1.6,0-2.8,1.4-3.1,3.3c-0.1,0.3-0.1,0.7-0.1,1.1v6.6h-1.2V568.4z"/>
			<path class="st2" d="M346,568.2c0,5.9-3.6,8.8-7.5,8.8c-4.1,0-7.3-3.3-7.3-8.5c0-5.5,3.3-8.8,7.5-8.8
				C342.9,559.7,346,563,346,568.2z M332.4,568.5c0,3.8,2.2,7.5,6.2,7.5c4,0,6.2-3.6,6.2-7.8c0-3.5-1.9-7.6-6.2-7.6
				C334.4,560.7,332.4,564.6,332.4,568.5z"/>
			<path class="st2" d="M349,568.6c0-1.5,0-2.7-0.1-3.8h1.1l0.1,2.3h0c0.9-1.6,2.3-2.5,4.4-2.5c3.1,0,5.1,2.5,5.1,6.1
				c0,4.3-2.5,6.5-5.4,6.5c-1.7,0-3.2-0.8-4.1-2.2h0v6.9H349V568.6z M350.2,572.1c0,0.3,0,0.6,0.1,1c0.5,1.8,2.1,3,3.9,3
				c2.7,0,4.3-2.2,4.3-5.4c0-2.7-1.5-5.1-4.2-5.1c-1.8,0-3.4,1.2-4,3.2c-0.1,0.3-0.2,0.7-0.2,1V572.1z"/>
			<path class="st2" d="M362.9,570.7c0,3.8,2.1,5.3,4.5,5.3c1.7,0,2.6-0.3,3.3-0.7l0.3,0.9c-0.5,0.2-1.7,0.8-3.8,0.8
				c-3.4,0-5.6-2.5-5.6-6c0-4,2.3-6.5,5.4-6.5c3.9,0,4.7,3.7,4.7,5.4c0,0.3,0,0.5,0,0.7H362.9z M370.5,569.7c0-1.7-0.7-4.2-3.6-4.2
				c-2.6,0-3.8,2.4-4,4.2H370.5z"/>
			<path class="st2" d="M374.8,567.7c0-1.1,0-1.9-0.1-2.9h1.1l0.1,2.2h0c0.7-1.3,2.2-2.4,4.1-2.4c1.1,0,4.2,0.6,4.2,5.1v7.2h-1.2
				v-7.1c0-2.2-0.8-4.2-3.3-4.2c-1.7,0-3.1,1.2-3.6,2.8c-0.1,0.3-0.2,0.7-0.2,1.1v7.4h-1.2V567.7z"/>
			<path class="st2" d="M389.7,561.4c0,0.6-0.4,1-1,1c-0.5,0-0.9-0.5-0.9-1c0-0.5,0.4-1,1-1C389.3,560.4,389.7,560.8,389.7,561.4z
				 M388.2,576.8v-12h1.2v12H388.2z"/>
			<path class="st2" d="M393.4,567.7c0-1.1,0-1.9-0.1-2.9h1.1l0.1,2.2h0c0.7-1.3,2.2-2.4,4.1-2.4c1.1,0,4.2,0.6,4.2,5.1v7.2h-1.2
				v-7.1c0-2.2-0.8-4.2-3.3-4.2c-1.7,0-3.1,1.2-3.6,2.8c-0.1,0.3-0.2,0.7-0.2,1.1v7.4h-1.2V567.7z"/>
			<path class="st2" d="M416.4,564.8c-0.1,0.9-0.1,1.8-0.1,3.1v7.1c0,3.1-0.6,4.6-1.6,5.5c-1.1,1-2.7,1.4-4,1.4
				c-1.4,0-2.9-0.3-3.8-1l0.4-1c0.8,0.5,2,1,3.6,1c2.5,0,4.3-1.3,4.3-4.8v-1.7h0c-0.6,1.2-2,2.3-4.2,2.3c-3,0-5.1-2.6-5.1-5.9
				c0-4.2,2.7-6.4,5.4-6.4c2.3,0,3.5,1.3,4,2.3h0l0.1-2H416.4z M415.1,569.4c0-0.4,0-0.8-0.1-1.2c-0.5-1.4-1.8-2.7-3.7-2.7
				c-2.5,0-4.3,2.1-4.3,5.2c0,2.7,1.4,5,4.2,5c1.6,0,3.1-1,3.7-2.7c0.1-0.4,0.2-0.8,0.2-1.3V569.4z"/>
			<path class="st2" d="M430.4,569.4v1h-5.9v-1H430.4z"/>
			<path class="st2" d="M438.1,574.9c0.9,0.6,2.3,1.1,3.7,1.1c2.5,0,4-1.4,4-3.5c0-1.9-1-3-3.4-3.9c-2.7-1-4.3-2.3-4.3-4.6
				c0-2.5,2-4.3,4.9-4.3c1.6,0,2.8,0.4,3.3,0.8l-0.5,1c-0.5-0.3-1.5-0.8-3-0.8c-2.7,0-3.6,1.7-3.6,3.1c0,1.9,1.1,2.8,3.5,3.8
				c2.8,1.1,4.2,2.4,4.2,4.9c0,2.4-1.7,4.6-5.3,4.6c-1.5,0-3.1-0.5-4-1.1L438.1,574.9z"/>
			<path class="st2" d="M459.4,573.8c0,1.1,0,2,0.1,2.9h-1.1l-0.1-2.1h0c-0.6,1.1-2,2.4-4.1,2.4c-1.5,0-4.1-0.8-4.1-5.3v-7h1.2v6.7
				c0,2.6,0.8,4.5,3.2,4.5c1.7,0,3-1.2,3.5-2.4c0.1-0.4,0.2-0.8,0.2-1.3v-7.5h1.2V573.8z"/>
			<path class="st2" d="M463.4,568.4c0-1.2,0-2.4-0.1-3.6h1.1l0,2.4h0.1c0.5-1.5,1.8-2.7,3.4-2.7c0.2,0,0.3,0,0.5,0.1v1.1
				c-0.2,0-0.3,0-0.6,0c-1.6,0-2.8,1.4-3.1,3.3c-0.1,0.3-0.1,0.7-0.1,1.1v6.6h-1.2V568.4z"/>
			<path class="st2" d="M471.1,564.8l2.8,7.4c0.5,1.2,0.8,2.2,1.2,3.2h0.1c0.3-1,0.8-2.1,1.2-3.2l2.8-7.4h1.2l-4.9,12h-1l-4.7-12
				H471.1z"/>
			<path class="st2" d="M482.7,570.7c0,3.8,2.1,5.3,4.5,5.3c1.7,0,2.6-0.3,3.3-0.7l0.3,0.9c-0.5,0.2-1.7,0.8-3.8,0.8
				c-3.4,0-5.6-2.5-5.6-6c0-4,2.3-6.5,5.4-6.5c3.9,0,4.7,3.7,4.7,5.4c0,0.3,0,0.5,0,0.7H482.7z M490.4,569.7c0-1.7-0.7-4.2-3.6-4.2
				c-2.6,0-3.8,2.4-4,4.2H490.4z"/>
			<path class="st2" d="M494.3,564.8l3.1,7.8c0.3,0.8,0.7,1.8,0.9,2.6h0c0.2-0.7,0.6-1.7,0.9-2.7l2.9-7.7h1.3l-3.6,8.9
				c-1.4,3.7-2.5,5.9-4,7.3c-0.9,0.8-1.8,1.2-2.1,1.2l-0.4-1c0.6-0.2,1.4-0.6,2.1-1.3c0.6-0.6,1.4-1.6,2-3c0.1-0.3,0.1-0.4,0.1-0.5
				c0-0.1,0-0.3-0.1-0.5l-4.4-11.1H494.3z"/>
		</g>
		<g>
			<path class="st2" d="M79.6,657v-12.8h0.9l5,7.6c1,1.6,1.8,2.8,2.4,4l0,0c-0.1-1.7-0.1-3.2-0.1-5.2v-6.4h0.9V657h-0.8l-4.9-7.5
				c-1-1.5-1.8-2.8-2.5-4.1l-0.1,0c0.1,1.6,0.1,3,0.1,5.1v6.5H79.6z"/>
			<path class="st2" d="M96.7,657l-0.1-1.3h0c-0.4,0.7-1.5,1.5-2.9,1.5c-1.8,0-2.7-1.3-2.7-2.5c0-2.1,1.9-3.4,5.6-3.3v-0.2
				c0-0.9-0.2-2.7-2.3-2.7c-0.8,0-1.6,0.2-2.3,0.7l-0.3-0.7c0.8-0.6,1.8-0.8,2.7-0.8c2.6,0,3.1,2,3.1,3.6v3.6c0,0.7,0,1.5,0.1,2.2
				H96.7z M96.5,652.1c-2-0.1-4.6,0.2-4.6,2.4c0,1.3,0.9,1.9,1.8,1.9c1.5,0,2.4-0.9,2.7-1.8c0.1-0.2,0.1-0.4,0.1-0.5V652.1z"/>
			<path class="st2" d="M100.3,650c0-0.8,0-1.5-0.1-2.2h0.8l0.1,1.6h0c0.6-1,1.5-1.8,3-1.8c1.3,0,2.2,0.8,2.6,2h0
				c0.3-0.5,0.6-1,0.9-1.2c0.6-0.5,1.2-0.8,2.2-0.8c0.9,0,3,0.5,3,4v5.4H112v-5.3c0-2-0.8-3.3-2.4-3.3c-1.1,0-2,0.8-2.4,1.8
				c-0.1,0.3-0.2,0.6-0.2,0.9v5.8h-0.9v-5.7c0-1.6-0.8-2.9-2.3-2.9c-1.2,0-2.2,1-2.5,2.1c-0.1,0.3-0.1,0.6-0.1,0.9v5.6h-0.9V650z"/>
			<path class="st2" d="M116,652.3c0,2.9,1.6,4.1,3.5,4.1c1.3,0,2-0.3,2.5-0.5l0.2,0.7c-0.4,0.2-1.3,0.6-2.9,0.6
				c-2.6,0-4.3-1.9-4.3-4.6c0-3,1.7-4.9,4.1-4.9c3,0,3.6,2.8,3.6,4.1c0,0.3,0,0.4,0,0.6H116z M121.8,651.6c0-1.3-0.5-3.2-2.7-3.2
				c-2,0-2.9,1.8-3,3.2H121.8z"/>
		</g>
		<g>
			<path class="st2" d="M377.1,644.2h0.9v12h5.7v0.8h-6.6V644.2z"/>
			<path class="st2" d="M390.6,657l-0.1-1.3h0c-0.4,0.7-1.5,1.5-2.9,1.5c-1.8,0-2.7-1.3-2.7-2.5c0-2.1,1.9-3.4,5.6-3.3v-0.2
				c0-0.9-0.2-2.7-2.3-2.7c-0.8,0-1.6,0.2-2.3,0.7l-0.3-0.7c0.8-0.6,1.8-0.8,2.7-0.8c2.6,0,3.1,2,3.1,3.6v3.6c0,0.7,0,1.5,0.1,2.2
				H390.6z M390.4,652.1c-2-0.1-4.6,0.2-4.6,2.4c0,1.3,0.9,1.9,1.8,1.9c1.5,0,2.4-0.9,2.7-1.8c0.1-0.2,0.1-0.4,0.1-0.5V652.1z"/>
			<path class="st2" d="M393.8,655.8c0.5,0.3,1.2,0.6,2.1,0.6c1.4,0,2.1-0.8,2.1-1.7c0-1-0.6-1.5-1.9-2.1c-1.5-0.6-2.3-1.4-2.3-2.5
				c0-1.3,1-2.5,2.8-2.5c0.8,0,1.5,0.3,2,0.6l-0.4,0.7c-0.3-0.2-0.9-0.6-1.8-0.6c-1.2,0-1.8,0.7-1.8,1.6c0,1,0.6,1.4,1.9,1.9
				c1.5,0.6,2.3,1.3,2.3,2.7c0,1.6-1.2,2.6-3.1,2.6c-0.9,0-1.7-0.3-2.3-0.6L393.8,655.8z"/>
			<path class="st2" d="M402.6,645.2v2.6h2.6v0.7h-2.6v5.9c0,1.2,0.4,1.9,1.3,1.9c0.5,0,0.8-0.1,1-0.1l0.1,0.7
				c-0.3,0.1-0.7,0.2-1.3,0.2c-0.7,0-1.2-0.2-1.6-0.6c-0.4-0.5-0.6-1.2-0.6-2.2v-5.8h-1.5v-0.7h1.5v-2.3L402.6,645.2z"/>
			<path class="st2" d="M411.4,657v-12.8h0.9l5,7.6c1,1.6,1.8,2.8,2.4,4l0,0c-0.1-1.7-0.1-3.2-0.1-5.2v-6.4h0.9V657h-0.8l-4.9-7.5
				c-1-1.5-1.8-2.8-2.5-4.1l-0.1,0c0.1,1.6,0.1,3,0.1,5.1v6.5H411.4z"/>
			<path class="st2" d="M428.4,657l-0.1-1.3h0c-0.4,0.7-1.5,1.5-2.9,1.5c-1.8,0-2.7-1.3-2.7-2.5c0-2.1,1.9-3.4,5.6-3.3v-0.2
				c0-0.9-0.2-2.7-2.3-2.7c-0.8,0-1.6,0.2-2.3,0.7l-0.3-0.7c0.8-0.6,1.8-0.8,2.7-0.8c2.6,0,3.1,2,3.1,3.6v3.6c0,0.7,0,1.5,0.1,2.2
				H428.4z M428.2,652.1c-2-0.1-4.6,0.2-4.6,2.4c0,1.3,0.9,1.9,1.8,1.9c1.5,0,2.4-0.9,2.7-1.8c0.1-0.2,0.1-0.4,0.1-0.5V652.1z"/>
			<path class="st2" d="M432.1,650c0-0.8,0-1.5-0.1-2.2h0.8l0.1,1.6h0c0.6-1,1.5-1.8,3-1.8c1.3,0,2.2,0.8,2.6,2h0
				c0.3-0.5,0.6-1,0.9-1.2c0.6-0.5,1.2-0.8,2.2-0.8c0.9,0,3,0.5,3,4v5.4h-0.9v-5.3c0-2-0.8-3.3-2.4-3.3c-1.1,0-2,0.8-2.4,1.8
				c-0.1,0.3-0.2,0.6-0.2,0.9v5.8h-0.9v-5.7c0-1.6-0.8-2.9-2.3-2.9c-1.2,0-2.2,1-2.5,2.1c-0.1,0.3-0.1,0.6-0.1,0.9v5.6h-0.9V650z"/>
			<path class="st2" d="M447.8,652.3c0,2.9,1.6,4.1,3.5,4.1c1.3,0,2-0.3,2.5-0.5l0.2,0.7c-0.4,0.2-1.3,0.6-2.9,0.6
				c-2.6,0-4.3-1.9-4.3-4.6c0-3,1.7-4.9,4.1-4.9c3,0,3.6,2.8,3.6,4.1c0,0.3,0,0.4,0,0.6H447.8z M453.6,651.6c0-1.3-0.5-3.2-2.7-3.2
				c-2,0-2.9,1.8-3,3.2H453.6z"/>
		</g>
		<g>
			<path class="st5" d="M79.8,603.7c0.8-0.2,1.8-0.3,3-0.3c1.7,0,3,0.4,3.7,1.2c0.7,0.7,1.1,1.6,1.1,2.8c0,1.2-0.3,2.1-1,2.8
				c-0.9,1-2.4,1.6-4.2,1.6c-0.6,0-1.2,0-1.7-0.2v6.1h-1V603.7z M80.8,610.8c0.5,0.2,1.1,0.2,1.8,0.2c2.5,0,4.1-1.2,4.1-3.5
				c0-2.2-1.6-3.2-3.9-3.2c-0.9,0-1.6,0.1-2,0.2V610.8z"/>
			<path class="st5" d="M90.1,602.8h1v14.9h-1V602.8z"/>
			<path class="st5" d="M94.7,612.6c0,3.2,1.8,4.5,3.8,4.5c1.5,0,2.2-0.3,2.8-0.6l0.3,0.8c-0.4,0.2-1.4,0.6-3.2,0.6
				c-2.9,0-4.7-2.1-4.7-5.1c0-3.4,1.9-5.5,4.5-5.5c3.3,0,3.9,3.1,3.9,4.6c0,0.3,0,0.4,0,0.6H94.7z M101.2,611.8c0-1.4-0.6-3.5-3-3.5
				c-2.2,0-3.2,2-3.4,3.5H101.2z"/>
			<path class="st5" d="M110.3,617.7l-0.1-1.4h0c-0.5,0.8-1.6,1.7-3.2,1.7c-2,0-3-1.4-3-2.8c0-2.3,2-3.7,6.1-3.7v-0.3
				c0-1-0.2-3-2.6-3c-0.9,0-1.8,0.2-2.5,0.8l-0.3-0.7c0.9-0.6,2-0.9,3-0.9c2.9,0,3.5,2.2,3.5,4v3.9c0,0.8,0,1.6,0.1,2.4H110.3z
				 M110,612.3c-2.2-0.1-5.1,0.3-5.1,2.7c0,1.4,1,2.1,2,2.1c1.7,0,2.6-1,3-2c0.1-0.2,0.1-0.4,0.1-0.6V612.3z"/>
			<path class="st5" d="M113.9,616.4c0.5,0.3,1.4,0.7,2.3,0.7c1.6,0,2.3-0.9,2.3-1.9c0-1.1-0.7-1.7-2.1-2.3
				c-1.6-0.6-2.6-1.5-2.6-2.8c0-1.5,1.1-2.7,3.1-2.7c0.9,0,1.7,0.3,2.2,0.6l-0.4,0.8c-0.3-0.2-1-0.6-2-0.6c-1.3,0-2,0.8-2,1.7
				c0,1.1,0.7,1.5,2.1,2.1c1.6,0.6,2.6,1.5,2.6,3c0,1.7-1.3,2.9-3.4,2.9c-1,0-1.9-0.3-2.6-0.7L113.9,616.4z"/>
			<path class="st5" d="M122.3,612.6c0,3.2,1.8,4.5,3.8,4.5c1.5,0,2.2-0.3,2.8-0.6l0.3,0.8c-0.4,0.2-1.4,0.6-3.2,0.6
				c-2.9,0-4.7-2.1-4.7-5.1c0-3.4,1.9-5.5,4.5-5.5c3.3,0,3.9,3.1,3.9,4.6c0,0.3,0,0.4,0,0.6H122.3z M128.7,611.8
				c0-1.4-0.6-3.5-3-3.5c-2.2,0-3.2,2-3.4,3.5H128.7z"/>
			<path class="st5" d="M143.9,617.3c-0.4,0.2-1.5,0.7-2.9,0.7c-2.9,0-4.8-2.1-4.8-5.1c0-3.2,2.2-5.4,5.2-5.4c1.2,0,2.3,0.4,2.6,0.6
				l-0.4,0.8c-0.5-0.3-1.3-0.6-2.4-0.6c-2.7,0-4.1,2.1-4.1,4.4c0,2.6,1.7,4.4,4,4.4c1.2,0,2-0.3,2.5-0.6L143.9,617.3z"/>
			<path class="st5" d="M154.8,612.6c0,3.8-2.6,5.4-4.8,5.4c-2.6,0-4.6-2-4.6-5.2c0-3.4,2.3-5.3,4.8-5.3
				C152.9,607.4,154.8,609.5,154.8,612.6z M146.4,612.7c0,2.5,1.6,4.4,3.7,4.4c2.1,0,3.7-1.9,3.7-4.5c0-1.8-1-4.4-3.7-4.4
				C147.6,608.2,146.4,610.5,146.4,612.7z"/>
			<path class="st5" d="M157.4,610c0-0.9,0-1.6-0.1-2.4h0.9l0.1,1.8h0c0.6-1.2,1.6-2,3.3-2c1.4,0,2.5,0.9,2.9,2.2h0
				c0.3-0.6,0.7-1,1-1.4c0.7-0.5,1.3-0.8,2.4-0.8c1,0,3.3,0.6,3.3,4.4v5.9h-1v-5.8c0-2.3-0.9-3.6-2.6-3.6c-1.3,0-2.3,0.9-2.6,2
				c-0.1,0.3-0.2,0.6-0.2,1v6.5h-1v-6.3c0-1.8-0.9-3.2-2.5-3.2c-1.4,0-2.4,1.1-2.8,2.3c-0.1,0.3-0.2,0.6-0.2,1v6.2h-1V610z"/>
			<path class="st5" d="M174.6,610.8c0-1.3,0-2.3-0.1-3.2h1l0.1,1.9h0c0.7-1.3,2-2.1,3.7-2.1c2.6,0,4.3,2.1,4.3,5.1
				c0,3.6-2.1,5.4-4.6,5.4c-1.4,0-2.7-0.7-3.4-1.9h0v5.8h-1V610.8z M175.6,613.7c0,0.3,0,0.5,0.1,0.8c0.4,1.6,1.8,2.6,3.3,2.6
				c2.3,0,3.6-1.9,3.6-4.6c0-2.3-1.3-4.3-3.5-4.3c-1.5,0-2.9,1-3.3,2.7c-0.1,0.3-0.1,0.6-0.1,0.9V613.7z"/>
			<path class="st5" d="M186.2,602.8h1v14.9h-1V602.8z"/>
			<path class="st5" d="M190.8,612.6c0,3.2,1.8,4.5,3.8,4.5c1.5,0,2.2-0.3,2.8-0.6l0.3,0.8c-0.4,0.2-1.4,0.6-3.2,0.6
				c-2.9,0-4.7-2.1-4.7-5.1c0-3.4,1.9-5.5,4.5-5.5c3.3,0,3.9,3.1,3.9,4.6c0,0.3,0,0.4,0,0.6H190.8z M197.2,611.8
				c0-1.4-0.6-3.5-3-3.5c-2.2,0-3.2,2-3.4,3.5H197.2z"/>
			<path class="st5" d="M202.2,604.7v2.9h2.9v0.8h-2.9v6.6c0,1.3,0.4,2.1,1.5,2.1c0.5,0,0.9-0.1,1.1-0.2l0.1,0.8
				c-0.3,0.1-0.8,0.2-1.4,0.2c-0.7,0-1.3-0.2-1.7-0.7c-0.5-0.5-0.6-1.4-0.6-2.4v-6.4h-1.7v-0.8h1.7V605L202.2,604.7z"/>
			<path class="st5" d="M207.3,612.6c0,3.2,1.8,4.5,3.8,4.5c1.5,0,2.2-0.3,2.8-0.6l0.3,0.8c-0.4,0.2-1.4,0.6-3.2,0.6
				c-2.9,0-4.7-2.1-4.7-5.1c0-3.4,1.9-5.5,4.5-5.5c3.3,0,3.9,3.1,3.9,4.6c0,0.3,0,0.4,0,0.6H207.3z M213.7,611.8
				c0-1.4-0.6-3.5-3-3.5c-2.2,0-3.2,2-3.4,3.5H213.7z"/>
			<path class="st5" d="M223.3,604.7v2.9h2.9v0.8h-2.9v6.6c0,1.3,0.4,2.1,1.5,2.1c0.5,0,0.9-0.1,1.1-0.2l0.1,0.8
				c-0.3,0.1-0.8,0.2-1.4,0.2c-0.7,0-1.3-0.2-1.7-0.7c-0.5-0.5-0.6-1.4-0.6-2.4v-6.4h-1.7v-0.8h1.7V605L223.3,604.7z"/>
			<path class="st5" d="M228.4,602.8h1v6.6h0c0.3-0.6,0.8-1.1,1.4-1.5c0.6-0.4,1.3-0.6,2-0.6c1,0,3.5,0.5,3.5,4.2v6.1h-1v-6
				c0-1.8-0.7-3.5-2.8-3.5c-1.4,0-2.6,1-3,2.3c-0.1,0.3-0.1,0.6-0.1,1v6.2h-1V602.8z"/>
			<path class="st5" d="M239.8,612.6c0,3.2,1.8,4.5,3.8,4.5c1.5,0,2.2-0.3,2.8-0.6l0.3,0.8c-0.4,0.2-1.4,0.6-3.2,0.6
				c-2.9,0-4.7-2.1-4.7-5.1c0-3.4,1.9-5.5,4.5-5.5c3.3,0,3.9,3.1,3.9,4.6c0,0.3,0,0.4,0,0.6H239.8z M246.3,611.8
				c0-1.4-0.6-3.5-3-3.5c-2.2,0-3.2,2-3.4,3.5H246.3z"/>
			<path class="st5" d="M249.5,616.4c0.5,0.3,1.4,0.7,2.3,0.7c1.6,0,2.3-0.9,2.3-1.9c0-1.1-0.7-1.7-2.1-2.3
				c-1.6-0.6-2.6-1.5-2.6-2.8c0-1.5,1.1-2.7,3.1-2.7c0.9,0,1.7,0.3,2.2,0.6l-0.4,0.8c-0.3-0.2-1-0.6-2-0.6c-1.3,0-2,0.8-2,1.7
				c0,1.1,0.7,1.5,2.1,2.1c1.6,0.6,2.6,1.5,2.6,3c0,1.7-1.3,2.9-3.4,2.9c-1,0-1.9-0.3-2.6-0.7L249.5,616.4z"/>
			<path class="st5" d="M257.9,612.6c0,3.2,1.8,4.5,3.8,4.5c1.5,0,2.2-0.3,2.8-0.6l0.3,0.8c-0.4,0.2-1.4,0.6-3.2,0.6
				c-2.9,0-4.7-2.1-4.7-5.1c0-3.4,1.9-5.5,4.5-5.5c3.3,0,3.9,3.1,3.9,4.6c0,0.3,0,0.4,0,0.6H257.9z M264.3,611.8
				c0-1.4-0.6-3.5-3-3.5c-2.2,0-3.2,2-3.4,3.5H264.3z"/>
			<path class="st5" d="M272.5,617.7v-9.3h-1.5v-0.8h1.5V607c0-2.6,1.2-4.4,3.9-4.4c0.9,0,1.9,0.3,2.3,0.7l-0.5,0.8
				c-0.4-0.3-1.2-0.6-2-0.6c-2.1,0-2.7,1.7-2.7,3.6v0.6h5.7v10.1h-1v-9.3h-4.7v9.3H272.5z"/>
			<path class="st5" d="M282.8,612.6c0,3.2,1.8,4.5,3.8,4.5c1.5,0,2.2-0.3,2.8-0.6l0.3,0.8c-0.4,0.2-1.4,0.6-3.2,0.6
				c-2.9,0-4.7-2.1-4.7-5.1c0-3.4,1.9-5.5,4.5-5.5c3.3,0,3.9,3.1,3.9,4.6c0,0.3,0,0.4,0,0.6H282.8z M289.2,611.8
				c0-1.4-0.6-3.5-3-3.5c-2.2,0-3.2,2-3.4,3.5H289.2z"/>
			<path class="st5" d="M292.8,602.8h1v14.9h-1V602.8z"/>
			<path class="st5" d="M305.3,602.8v12.6c0,0.7,0,1.6,0.1,2.3h-0.9l-0.1-1.9h-0.1c-0.5,1.1-1.7,2.1-3.6,2.1c-2.5,0-4.3-2.1-4.3-5.1
				c0-3.4,2.1-5.5,4.5-5.5c1.7,0,2.8,0.9,3.3,1.8h0v-6.4H305.3z M304.3,611.6c0-0.3,0-0.6-0.1-0.9c-0.4-1.4-1.5-2.5-3.2-2.5
				c-2.2,0-3.6,1.9-3.6,4.5c0,2.3,1.1,4.4,3.5,4.4c1.4,0,2.8-1,3.2-2.6c0.1-0.3,0.1-0.5,0.1-0.8V611.6z"/>
			<path class="st5" d="M308.3,616.4c0.5,0.3,1.4,0.7,2.3,0.7c1.6,0,2.3-0.9,2.3-1.9c0-1.1-0.7-1.7-2.1-2.3
				c-1.6-0.6-2.6-1.5-2.6-2.8c0-1.5,1.1-2.7,3.1-2.7c0.9,0,1.7,0.3,2.2,0.6l-0.4,0.8c-0.3-0.2-1-0.6-2-0.6c-1.3,0-2,0.8-2,1.7
				c0,1.1,0.7,1.5,2.1,2.1c1.6,0.6,2.6,1.5,2.6,3c0,1.7-1.3,2.9-3.4,2.9c-1,0-1.9-0.3-2.6-0.7L308.3,616.4z"/>
		</g>
		<g>
			<polygon class="st0" points="68.9,91 72.6,69.3 78.5,69.3 74.8,91 			"/>
			<path class="st0" d="M96.2,69.8c-1.2-0.4-3-0.9-5.3-0.9c-5.8,0-10,2.9-10,7.2c0,3.1,2.9,4.9,5.2,5.9c2.3,1.1,3.1,1.7,3.1,2.7
				c0,1.5-1.8,2.1-3.5,2.1c-2.4,0-3.6-0.3-5.6-1.1l-0.8-0.3l-0.8,4.9c1.4,0.6,3.9,1.1,6.6,1.2c6.2,0,10.2-2.9,10.3-7.4
				c0-2.5-1.6-4.3-5-5.9c-2.1-1-3.3-1.7-3.3-2.7c0-0.9,1.1-1.9,3.4-1.9c1.9,0,3.3,0.4,4.4,0.8l0.5,0.3L96.2,69.8"/>
			<path class="st0" d="M111.3,69.3h-4.6c-1.4,0-2.5,0.4-3.1,1.8L94.9,91h6.2c0,0,1-2.7,1.2-3.3c0.7,0,6.7,0,7.6,0
				c0.2,0.8,0.7,3.2,0.7,3.2h5.5L111.3,69.3 M104.1,83.3c0.5-1.2,2.4-6.1,2.4-6.1c0,0.1,0.5-1.3,0.8-2.1l0.4,1.9
				c0,0,1.1,5.2,1.4,6.3H104.1z"/>
			<path class="st0" d="M63.9,69.3l-5.8,14.8l-0.6-3l-2.1-10c-0.4-1.4-1.4-1.8-2.7-1.8h-9.5l-0.1,0.5c2.3,0.6,4.4,1.4,6.2,2.4
				L54.6,91l6.3,0l9.3-21.6L63.9,69.3L63.9,69.3z"/>
		</g>
		<line class="st6" x1="358.4" y1="449.9" x2="404.4" y2="449.9"/>
		<g>
			<path class="st7" d="M358.1,671.4v36h-279v-36H358.1 M359.1,670.4h-281v38h281V670.4L359.1,670.4z"/>
		</g>
		<g>
			<path class="st7" d="M655.6,671.4v36h-279v-36H655.6 M656.6,670.4h-281v38h281V670.4L656.6,670.4z"/>
		</g>
		<linearGradient id="SVGID_1_" gradientUnits="userSpaceOnUse" x1="381.3668" y1="125.914" x2="381.3668" y2="110.914">
			<stop  offset="0.2103" style="stop-color:#000000;stop-opacity:0"/>
			<stop  offset="1" style="stop-color:#000000;stop-opacity:0.5"/>
		</linearGradient>
		<rect x="1" y="110.9" class="st8" width="760.7" height="15"/>
	</g>
	<rect x="1" y="1" class="st9" width="760.7" height="45.9"/>
	<polygon class="st0" points="124,46.9 397.1,46.9 380.8,1 139.9,1 	"/>
	<g>
		<circle class="st10" cx="739.2" cy="14.6" r="3.4"/>
		<circle class="st10" cx="739.2" cy="24" r="3.4"/>
		<circle class="st10" cx="739.2" cy="33.3" r="3.4"/>
	</g>
	<g>
		<circle class="st11" cx="24.8" cy="24" r="8.5"/>
		<circle class="st12" cx="55.4" cy="24" r="8.5"/>
		<circle class="st13" cx="86" cy="24" r="8.5"/>
	</g>
	<rect x="148.9" y="21.4" class="st14" width="69.7" height="6.8"/>
	<rect x="239.1" y="21.4" class="st14" width="30.6" height="6.8"/>
	<rect x="290.1" y="21.4" class="st15" width="42.5" height="6.8"/>
</g>
</svg>
