<?xml version="1.0" encoding="utf-8"?>
<!-- Generator: Adobe Illustrator 22.1.0, SVG Export Plug-In . SVG Version: 6.00 Build 0)  -->
<svg version="1.1" id="Capa_1" xmlns="http://www.w3.org/2000/svg" xmlns:xlink="http://www.w3.org/1999/xlink" x="0px" y="0px"
	 viewBox="0 0 1172.8 427.2" style="enable-background:new 0 0 1172.8 427.2;" xml:space="preserve">
<style type="text/css">
	.st0{fill:#FFFFFF;}
	.st1{fill:#F1AC0A;}
</style>
<g>
	<g>
		<g>
			<g>
				<path class="st0" d="M28.4,137c-1.1-3.3-4.2-5.6-7.7-5.6c-3.6,0-6.6,2.3-7.7,5.6H3.4c-0.8,0-1.4,0.6-1.4,1.4
					c0,0.8,0.6,1.4,1.4,1.4H9c-1.2,1.4-2,3.3-2,5.3c0,0.8,0.2,1.6,0.4,2.4h-4c-0.8,0-1.4,0.6-1.4,1.4c0,0.8,0.6,1.4,1.4,1.4h5.4
					c1.5,1.9,3.8,3.1,6.4,3.1h14.6c4.5,0,8.2-3.7,8.2-8.2C38,140.1,33.4,136.1,28.4,137z M29.8,150.5H15.2c-3,0-5.5-2.4-5.5-5.5
					c0-2.6,1.9-4.9,4.5-5.4l0.9-0.2l0.2-0.9c0.5-2.6,2.7-4.5,5.4-4.5c2.7,0,5,2,5.4,4.7l0.2,1.7l1.6-0.6c3.8-1.4,7.4,1.5,7.4,5.1
					C35.3,148.1,32.8,150.5,29.8,150.5z"/>
				<path class="st0" d="M123.6,40.6c-1.1-3.3-4.2-5.6-7.7-5.6c-3.6,0-6.6,2.3-7.7,5.6h-9.5c-0.8,0-1.4,0.6-1.4,1.4
					c0,0.8,0.6,1.4,1.4,1.4h5.6c-1.2,1.4-2,3.3-2,5.3c0,0.8,0.2,1.6,0.4,2.4h-4c-0.8,0-1.4,0.6-1.4,1.4s0.6,1.4,1.4,1.4h5.4
					c1.5,1.9,3.8,3.1,6.4,3.1H125c4.5,0,8.2-3.7,8.2-8.2C133.2,43.7,128.7,39.7,123.6,40.6z M125,54.2h-14.6c-3,0-5.5-2.4-5.5-5.5
					c0-2.6,1.9-4.9,4.5-5.4l0.9-0.2l0.2-0.9c0.5-2.6,2.7-4.5,5.4-4.5c2.7,0,5,2,5.4,4.7l0.2,1.7l1.6-0.6c3.8-1.4,7.4,1.5,7.4,5.1
					C130.5,51.7,128,54.2,125,54.2z"/>
				<path class="st0" d="M322.6,13.2c-1.1-3.3-4.2-5.6-7.7-5.6c-3.6,0-6.6,2.3-7.7,5.6h-9.5c-0.8,0-1.4,0.6-1.4,1.4
					c0,0.8,0.6,1.4,1.4,1.4h5.6c-1.2,1.4-2,3.3-2,5.3c0,0.8,0.2,1.6,0.4,2.4h-4c-0.8,0-1.4,0.6-1.4,1.4c0,0.8,0.6,1.4,1.4,1.4h5.4
					c1.5,1.9,3.8,3.1,6.4,3.1H324c4.5,0,8.2-3.7,8.2-8.2C332.2,16.3,327.6,12.3,322.6,13.2z M324,26.7h-14.6c-3,0-5.5-2.4-5.5-5.5
					c0-2.6,1.9-4.9,4.5-5.4l0.9-0.2l0.2-0.9c0.5-2.6,2.7-4.5,5.4-4.5c2.7,0,5,2,5.4,4.7l0.2,1.7l1.6-0.6c3.8-1.4,7.4,1.5,7.4,5.1
					C329.4,24.3,327,26.7,324,26.7z"/>
				<path class="st0" d="M490.6,100.2c-1.1-3.3-4.2-5.6-7.7-5.6c-3.6,0-6.6,2.3-7.7,5.6h-9.5c-0.8,0-1.4,0.6-1.4,1.4
					s0.6,1.4,1.4,1.4h5.6c-1.2,1.4-2,3.3-2,5.3c0,0.8,0.2,1.6,0.4,2.4h-4c-0.8,0-1.4,0.6-1.4,1.4s0.6,1.4,1.4,1.4h5.4
					c1.5,1.9,3.8,3.1,6.4,3.1H492c4.5,0,8.2-3.7,8.2-8.2C500.2,103.3,495.6,99.3,490.6,100.2z M492,113.8h-14.6
					c-3,0-5.5-2.4-5.5-5.5c0-2.6,1.9-4.9,4.5-5.4l0.9-0.2l0.2-0.9c0.5-2.6,2.7-4.5,5.4-4.5c2.7,0,5,2,5.4,4.7l0.2,1.7l1.6-0.6
					c3.8-1.4,7.4,1.5,7.4,5.1C497.4,111.3,495,113.8,492,113.8z"/>
				<path class="st0" d="M657.6,7.4c-1.1-3.3-4.2-5.6-7.7-5.6c-3.6,0-6.6,2.3-7.7,5.6h-9.5c-0.8,0-1.4,0.6-1.4,1.4s0.6,1.4,1.4,1.4
					h5.6c-1.2,1.4-2,3.3-2,5.3c0,0.8,0.2,1.6,0.4,2.4h-4c-0.8,0-1.4,0.6-1.4,1.4c0,0.8,0.6,1.4,1.4,1.4h5.4c1.5,1.9,3.8,3.1,6.4,3.1
					H659c4.5,0,8.2-3.7,8.2-8.2C667.2,10.5,662.6,6.5,657.6,7.4z M659,20.9h-14.6c-3,0-5.5-2.4-5.5-5.5c0-2.6,1.9-4.9,4.5-5.4
					l0.9-0.2l0.2-0.9c0.5-2.6,2.7-4.5,5.4-4.5c2.7,0,5,2,5.4,4.7l0.2,1.7l1.6-0.6c3.8-1.4,7.4,1.5,7.4,5.1
					C664.4,18.5,662,20.9,659,20.9z"/>
				<path class="st0" d="M895.6,13c-1.1-3.3-4.2-5.6-7.7-5.6c-3.6,0-6.6,2.3-7.7,5.6h-9.5c-0.8,0-1.4,0.6-1.4,1.4s0.6,1.4,1.4,1.4
					h5.6c-1.3,1.4-2,3.3-2,5.3c0,0.8,0.2,1.6,0.4,2.4h-4c-0.8,0-1.4,0.6-1.4,1.4c0,0.8,0.6,1.4,1.4,1.4h5.4c1.5,1.9,3.8,3.1,6.4,3.1
					H897c4.5,0,8.2-3.7,8.2-8.2C905.2,16.1,900.6,12.1,895.6,13z M897,26.6h-14.6c-3,0-5.5-2.4-5.5-5.5c0-2.6,1.9-4.9,4.5-5.4
					l0.9-0.2l0.2-0.9c0.5-2.6,2.7-4.5,5.4-4.5c2.7,0,5,2,5.4,4.7l0.2,1.7l1.6-0.6c3.8-1.4,7.4,1.5,7.4,5.1
					C902.4,24.1,900,26.6,897,26.6z"/>
				<path class="st0" d="M1042.5,41.1c-1.1-3.3-4.2-5.6-7.7-5.6c-3.6,0-6.6,2.3-7.7,5.6h-9.5c-0.8,0-1.4,0.6-1.4,1.4
					s0.6,1.4,1.4,1.4h5.6c-1.3,1.4-2,3.3-2,5.3c0,0.8,0.2,1.6,0.4,2.4h-4c-0.8,0-1.4,0.6-1.4,1.4c0,0.8,0.6,1.4,1.4,1.4h5.4
					c1.5,1.9,3.8,3.1,6.4,3.1h14.6c4.5,0,8.2-3.7,8.2-8.2C1052.1,44.2,1047.5,40.2,1042.5,41.1z M1043.9,54.7h-14.6
					c-3,0-5.5-2.4-5.5-5.5c0-2.6,1.9-4.9,4.5-5.4l0.9-0.2l0.2-0.9c0.5-2.6,2.7-4.5,5.4-4.5c2.7,0,5,2,5.4,4.7l0.2,1.7l1.6-0.6
					c3.8-1.4,7.4,1.5,7.4,5.1C1049.3,52.2,1046.9,54.7,1043.9,54.7z"/>
				<path class="st0" d="M1135.9,135c-1.1-3.3-4.2-5.6-7.7-5.6c-3.6,0-6.6,2.3-7.7,5.6h-9.5c-0.8,0-1.4,0.6-1.4,1.4
					c0,0.8,0.6,1.4,1.4,1.4h5.6c-1.3,1.4-2,3.3-2,5.3c0,0.8,0.2,1.6,0.4,2.4h-4c-0.8,0-1.4,0.6-1.4,1.4c0,0.8,0.6,1.4,1.4,1.4h5.4
					c1.5,1.9,3.8,3.1,6.4,3.1h14.6c4.5,0,8.2-3.7,8.2-8.2C1145.5,138.1,1141,134.1,1135.9,135z M1137.3,148.5h-14.6
					c-3,0-5.5-2.4-5.5-5.5c0-2.6,1.9-4.9,4.5-5.4l0.9-0.2l0.2-0.9c0.5-2.6,2.7-4.5,5.4-4.5c2.7,0,5,2,5.4,4.7l0.2,1.7l1.6-0.6
					c3.8-1.4,7.4,1.5,7.4,5.1C1142.8,146.1,1140.3,148.5,1137.3,148.5z"/>
				<path class="st0" d="M119.5,123h-2.9v-2.9c0-0.8-0.6-1.4-1.4-1.4s-1.4,0.6-1.4,1.4v2.9H111c-0.8,0-1.4,0.6-1.4,1.4
					c0,0.8,0.6,1.4,1.4,1.4h2.9v2.9c0,0.8,0.6,1.4,1.4,1.4s1.4-0.6,1.4-1.4v-2.9h2.9c0.8,0,1.4-0.6,1.4-1.4
					C120.9,123.6,120.3,123,119.5,123z"/>
				<path class="st0" d="M230.6,33.6h-2.9v-2.9c0-0.8-0.6-1.4-1.4-1.4c-0.8,0-1.4,0.6-1.4,1.4v2.9h-2.9c-0.8,0-1.4,0.6-1.4,1.4
					s0.6,1.4,1.4,1.4h2.9v2.9c0,0.8,0.6,1.4,1.4,1.4c0.8,0,1.4-0.6,1.4-1.4v-2.9h2.9c0.8,0,1.4-0.6,1.4-1.4S231.4,33.6,230.6,33.6z"
					/>
				<path class="st0" d="M492.1,56.8h-2.9v-2.9c0-0.8-0.6-1.4-1.4-1.4s-1.4,0.6-1.4,1.4v2.9h-2.9c-0.8,0-1.4,0.6-1.4,1.4
					c0,0.8,0.6,1.4,1.4,1.4h2.9v2.9c0,0.8,0.6,1.4,1.4,1.4s1.4-0.6,1.4-1.4v-2.9h2.9c0.8,0,1.4-0.6,1.4-1.4
					C493.5,57.4,492.9,56.8,492.1,56.8z"/>
				<path class="st0" d="M596.2,4.3h-2.9V1.4c0-0.8-0.6-1.4-1.4-1.4c-0.8,0-1.4,0.6-1.4,1.4v2.9h-2.9c-0.8,0-1.4,0.6-1.4,1.4
					s0.6,1.4,1.4,1.4h2.9v2.9c0,0.8,0.6,1.4,1.4,1.4c0.8,0,1.4-0.6,1.4-1.4V7h2.9c0.8,0,1.4-0.6,1.4-1.4S596.9,4.3,596.2,4.3z"/>
				<path class="st0" d="M810.4,17h-2.9v-2.9c0-0.8-0.6-1.4-1.4-1.4c-0.8,0-1.4,0.6-1.4,1.4V17h-2.9c-0.8,0-1.4,0.6-1.4,1.4
					c0,0.8,0.6,1.4,1.4,1.4h2.9v2.9c0,0.8,0.6,1.4,1.4,1.4c0.8,0,1.4-0.6,1.4-1.4v-2.9h2.9c0.8,0,1.4-0.6,1.4-1.4
					C811.8,17.6,811.2,17,810.4,17z"/>
				<path class="st0" d="M926.1,75.7h-2.9v-2.9c0-0.8-0.6-1.4-1.4-1.4c-0.8,0-1.4,0.6-1.4,1.4v2.9h-2.9c-0.8,0-1.4,0.6-1.4,1.4
					s0.6,1.4,1.4,1.4h2.9v2.9c0,0.8,0.6,1.4,1.4,1.4c0.8,0,1.4-0.6,1.4-1.4v-2.9h2.9c0.8,0,1.4-0.6,1.4-1.4S926.9,75.7,926.1,75.7z"
					/>
				<path class="st0" d="M980.9,8.8H978V5.9c0-0.8-0.6-1.4-1.4-1.4c-0.8,0-1.4,0.6-1.4,1.4v2.9h-2.9c-0.8,0-1.4,0.6-1.4,1.4
					s0.6,1.4,1.4,1.4h2.9v2.9c0,0.8,0.6,1.4,1.4,1.4c0.8,0,1.4-0.6,1.4-1.4v-2.9h2.9c0.8,0,1.4-0.6,1.4-1.4S981.6,8.8,980.9,8.8z"/>
				<path class="st0" d="M1121,70.2h-2.9v-2.9c0-0.8-0.6-1.4-1.4-1.4s-1.4,0.6-1.4,1.4v2.9h-2.9c-0.8,0-1.4,0.6-1.4,1.4
					s0.6,1.4,1.4,1.4h2.9v2.9c0,0.8,0.6,1.4,1.4,1.4s1.4-0.6,1.4-1.4v-2.9h2.9c0.8,0,1.4-0.6,1.4-1.4S1121.7,70.2,1121,70.2z"/>
				<path class="st0" d="M1056.4,115.1h-2.9v-2.9c0-0.8-0.6-1.4-1.4-1.4c-0.8,0-1.4,0.6-1.4,1.4v2.9h-2.9c-0.8,0-1.4,0.6-1.4,1.4
					s0.6,1.4,1.4,1.4h2.9v2.9c0,0.8,0.6,1.4,1.4,1.4c0.8,0,1.4-0.6,1.4-1.4v-2.9h2.9c0.8,0,1.4-0.6,1.4-1.4
					S1057.1,115.1,1056.4,115.1z"/>
				<path class="st0" d="M42.3,68.5h-2.9v-2.9c0-0.8-0.6-1.4-1.4-1.4s-1.4,0.6-1.4,1.4v2.9h-2.9c-0.8,0-1.4,0.6-1.4,1.4
					s0.6,1.4,1.4,1.4h2.9v2.9c0,0.8,0.6,1.4,1.4,1.4s1.4-0.6,1.4-1.4v-2.9h2.9c0.8,0,1.4-0.6,1.4-1.4S43,68.5,42.3,68.5z"/>
			</g>
			<path class="st0" d="M91.4,277.3H75.9c-1.6,0-2.9,1.3-2.9,2.9v15.5c0,1.6,1.3,2.9,2.9,2.9h15.5c1.6,0,2.9-1.3,2.9-2.9v-15.5
				C94.3,278.6,93,277.3,91.4,277.3z M91.6,280.2v6.4H85v-6.5h6.4C91.5,280.1,91.6,280.1,91.6,280.2z M75.9,280.1h6.4v6.5h-6.5v-6.4
				C75.8,280.1,75.8,280.1,75.9,280.1z M75.8,295.7v-6.4h6.5v6.5h-6.4C75.8,295.9,75.8,295.8,75.8,295.7z M91.4,295.9H85v-6.5h6.5
				v6.4C91.6,295.8,91.5,295.9,91.4,295.9z"/>
			<g>
				<path class="st0" d="M195.8,277.3h-15.5c-1.6,0-2.9,1.3-2.9,2.9v15.5c0,1.6,1.3,2.9,2.9,2.9h15.5c1.6,0,2.9-1.3,2.9-2.9v-15.5
					C198.7,278.6,197.4,277.3,195.8,277.3z M195.9,280.2v6.4h-6.5v-6.5h6.4C195.9,280.1,195.9,280.1,195.9,280.2z M180.3,280.1h6.4
					v6.5h-6.5v-6.4C180.1,280.1,180.2,280.1,180.3,280.1z M180.1,295.7v-6.4h6.5v6.5h-6.4C180.2,295.9,180.1,295.8,180.1,295.7z
					 M195.8,295.9h-6.4v-6.5h6.5v6.4C195.9,295.8,195.9,295.9,195.8,295.9z"/>
				<path class="st0" d="M236,273h-5c-1.6,0-2.9,1.3-2.9,2.9v6.2c0,1.6,1.3,2.9,2.9,2.9h5c1.6,0,2.9-1.3,2.9-2.9v-6.2
					C238.9,274.3,237.6,273,236,273z M236.1,282.2c0,0.1-0.1,0.1-0.1,0.1h-5c-0.1,0-0.1-0.1-0.1-0.1v-6.2c0-0.1,0.1-0.1,0.1-0.1h5
					c0.1,0,0.1,0.1,0.1,0.1V282.2z"/>
				<path class="st0" d="M252.4,273h-5c-1.6,0-2.9,1.3-2.9,2.9v6.2c0,1.6,1.3,2.9,2.9,2.9h5c1.6,0,2.9-1.3,2.9-2.9v-6.2
					C255.3,274.3,254,273,252.4,273z M252.6,282.2c0,0.1-0.1,0.1-0.1,0.1h-5c-0.1,0-0.1-0.1-0.1-0.1v-6.2c0-0.1,0.1-0.1,0.1-0.1h5
					c0.1,0,0.1,0.1,0.1,0.1V282.2z"/>
				<path class="st0" d="M320.7,273h-5c-1.6,0-2.9,1.3-2.9,2.9v6.2c0,1.6,1.3,2.9,2.9,2.9h5c1.6,0,2.9-1.3,2.9-2.9v-6.2
					C323.6,274.3,322.3,273,320.7,273z M320.8,282.2c0,0.1-0.1,0.1-0.1,0.1h-5c-0.1,0-0.1-0.1-0.1-0.1v-6.2c0-0.1,0.1-0.1,0.1-0.1h5
					c0.1,0,0.1,0.1,0.1,0.1V282.2z"/>
				<path class="st0" d="M270,208.6h-5c-1.6,0-2.9,1.3-2.9,2.9v6.2c0,1.6,1.3,2.9,2.9,2.9h5c1.6,0,2.9-1.3,2.9-2.9v-6.2
					C272.9,209.9,271.6,208.6,270,208.6z M270.2,217.7c0,0.1-0.1,0.1-0.1,0.1h-5c-0.1,0-0.1-0.1-0.1-0.1v-6.2c0-0.1,0.1-0.1,0.1-0.1
					h5c0.1,0,0.1,0.1,0.1,0.1V217.7z"/>
				<path class="st0" d="M286.1,208.6h-5c-1.6,0-2.9,1.3-2.9,2.9v6.2c0,1.6,1.3,2.9,2.9,2.9h5c1.6,0,2.9-1.3,2.9-2.9v-6.2
					C288.9,209.9,287.7,208.6,286.1,208.6z M286.2,217.7c0,0.1-0.1,0.1-0.1,0.1h-5c-0.1,0-0.1-0.1-0.1-0.1v-6.2
					c0-0.1,0.1-0.1,0.1-0.1h5c0.1,0,0.1,0.1,0.1,0.1V217.7z"/>
				<path class="st0" d="M302.1,208.6h-5c-1.6,0-2.9,1.3-2.9,2.9v6.2c0,1.6,1.3,2.9,2.9,2.9h5c1.6,0,2.9-1.3,2.9-2.9v-6.2
					C305,209.9,303.7,208.6,302.1,208.6z M302.3,217.7c0,0.1-0.1,0.1-0.1,0.1h-5c-0.1,0-0.1-0.1-0.1-0.1v-6.2c0-0.1,0.1-0.1,0.1-0.1
					h5c0.1,0,0.1,0.1,0.1,0.1V217.7z"/>
				<path class="st0" d="M270,224.3h-5c-1.6,0-2.9,1.3-2.9,2.9v6.2c0,1.6,1.3,2.9,2.9,2.9h5c1.6,0,2.9-1.3,2.9-2.9v-6.2
					C272.9,225.6,271.6,224.3,270,224.3z M270.2,233.4c0,0.1-0.1,0.1-0.1,0.1h-5c-0.1,0-0.1-0.1-0.1-0.1v-6.2c0-0.1,0.1-0.1,0.1-0.1
					h5c0.1,0,0.1,0.1,0.1,0.1V233.4z"/>
				<path class="st0" d="M286.1,224.3h-5c-1.6,0-2.9,1.3-2.9,2.9v6.2c0,1.6,1.3,2.9,2.9,2.9h5c1.6,0,2.9-1.3,2.9-2.9v-6.2
					C288.9,225.6,287.7,224.3,286.1,224.3z M286.2,233.4c0,0.1-0.1,0.1-0.1,0.1h-5c-0.1,0-0.1-0.1-0.1-0.1v-6.2
					c0-0.1,0.1-0.1,0.1-0.1h5c0.1,0,0.1,0.1,0.1,0.1V233.4z"/>
				<path class="st0" d="M302.1,224.3h-5c-1.6,0-2.9,1.3-2.9,2.9v6.2c0,1.6,1.3,2.9,2.9,2.9h5c1.6,0,2.9-1.3,2.9-2.9v-6.2
					C305,225.6,303.7,224.3,302.1,224.3z M302.3,233.4c0,0.1-0.1,0.1-0.1,0.1h-5c-0.1,0-0.1-0.1-0.1-0.1v-6.2c0-0.1,0.1-0.1,0.1-0.1
					h5c0.1,0,0.1,0.1,0.1,0.1V233.4z"/>
				<path class="st0" d="M270,240.1h-5c-1.6,0-2.9,1.3-2.9,2.9v6.2c0,1.6,1.3,2.9,2.9,2.9h5c1.6,0,2.9-1.3,2.9-2.9V243
					C272.9,241.4,271.6,240.1,270,240.1z M270.2,249.2c0,0.1-0.1,0.1-0.1,0.1h-5c-0.1,0-0.1-0.1-0.1-0.1V243c0-0.1,0.1-0.1,0.1-0.1
					h5c0.1,0,0.1,0.1,0.1,0.1V249.2z"/>
				<path class="st0" d="M286.1,240.1h-5c-1.6,0-2.9,1.3-2.9,2.9v6.2c0,1.6,1.3,2.9,2.9,2.9h5c1.6,0,2.9-1.3,2.9-2.9V243
					C288.9,241.4,287.7,240.1,286.1,240.1z M286.2,249.2c0,0.1-0.1,0.1-0.1,0.1h-5c-0.1,0-0.1-0.1-0.1-0.1V243
					c0-0.1,0.1-0.1,0.1-0.1h5c0.1,0,0.1,0.1,0.1,0.1V249.2z"/>
				<path class="st0" d="M302.1,240.1h-5c-1.6,0-2.9,1.3-2.9,2.9v6.2c0,1.6,1.3,2.9,2.9,2.9h5c1.6,0,2.9-1.3,2.9-2.9V243
					C305,241.4,303.7,240.1,302.1,240.1z M302.3,249.2c0,0.1-0.1,0.1-0.1,0.1h-5c-0.1,0-0.1-0.1-0.1-0.1V243c0-0.1,0.1-0.1,0.1-0.1
					h5c0.1,0,0.1,0.1,0.1,0.1V249.2z"/>
				<path class="st0" d="M272.4,179.2h5c1.6,0,2.9-1.3,2.9-2.9v-6.2c0-1.6-1.3-2.9-2.9-2.9h-5c-1.6,0-2.9,1.3-2.9,2.9v6.2
					C269.5,177.9,270.8,179.2,272.4,179.2z M272.2,170.1c0-0.1,0.1-0.1,0.1-0.1h5c0.1,0,0.1,0.1,0.1,0.1v6.2c0,0.1-0.1,0.1-0.1,0.1
					h-5c-0.1,0-0.1-0.1-0.1-0.1V170.1z"/>
				<path class="st0" d="M288.8,179.2h5c1.6,0,2.9-1.3,2.9-2.9v-6.2c0-1.6-1.3-2.9-2.9-2.9h-5c-1.6,0-2.9,1.3-2.9,2.9v6.2
					C285.9,177.9,287.2,179.2,288.8,179.2z M288.7,170.1c0-0.1,0.1-0.1,0.1-0.1h5c0.1,0,0.1,0.1,0.1,0.1v6.2c0,0.1-0.1,0.1-0.1,0.1
					h-5c-0.1,0-0.1-0.1-0.1-0.1V170.1z"/>
				<g>
					<path class="st0" d="M455.9,303.4h-21V265h-6.5v-6.8l-2.7,0.8v6.1h-3.5v-5.1l-2.7,0.8v4.3h-15.2l-4.3,1.2l-5,1.5h33.5h3.8v8.5
						h-63.4l-7.4,2.7h70.9v23.3h-79.9v-19.9l-2.7,1v4.9H338l-5.8,2.7h17.3v11.3H310l-7.6,3.9h153.5c0.8,0,1.4-0.6,1.4-1.4
						C457.3,304,456.7,303.4,455.9,303.4z"/>
					<path class="st0" d="M293.6,302.3h-29.4c-0.2,0-0.4-0.2-0.4-0.4V298c0-0.2,0.2-0.4,0.4-0.4H302l2.5-1.4
						c-0.6-0.8-1.5-1.3-2.5-1.3h-37.8c-1.7,0-3.2,1.4-3.2,3.2v3.9c0,0.1,0,0.3,0,0.4h-44.4V291h96.8l0.7-0.4l5-2.4h-26.5v-22.1h56.8
						v8.1l2.7-1.2v-5.4h13.7l4-1.5l5.6-1.2h-1.8v-1c0-0.1,0-0.2,0-0.4v-4.7H394l9.9-2.7h-30.1v-6.4h45.6v2.4l2.7-0.7V39.2
						c2.1,1.3,3.5,3.6,3.5,6.2v205.3l2.7-0.7V45.4c0-5.5-4.5-10-10-10h-6.1v-4h2.8c0.8,0,1.4-0.6,1.4-1.4c0-0.8-0.6-1.4-1.4-1.4
						h-26.5v-7c0-0.8-0.6-1.4-1.4-1.4c-0.8,0-1.4,0.6-1.4,1.4v7h-8.5c-0.8,0-1.4,0.6-1.4,1.4c0,0.8,0.6,1.4,1.4,1.4h3v4
						c-5.2,0.4-9.3,4.7-9.3,10v0c-5.3,0.2-9.6,4.6-9.6,10v88.2c-3.9,1.4-6.7,5.1-6.7,9.5v61.6c-3.8,1.4-6.5,5.1-6.5,9.4v30.6h-5.2
						v-8.1c0-1-0.9-1.9-1.9-1.9h-3.8v-14.4c0-0.8-0.6-1.4-1.4-1.4c-0.8,0-1.4,0.6-1.4,1.4v14.4h-3.8c-1,0-1.9,0.9-1.9,1.9v8.1h-15.9
						v-50h2.6c1,0,1.9-0.9,1.9-1.9v-6c0-1-0.9-1.9-1.9-1.9h-2.9v-13.2c0-1-0.9-1.9-1.9-1.9H308v-20c0-1-0.9-1.9-1.9-1.9h-1.6v-3.8
						c0-1-0.9-1.9-1.9-1.9h-5.1v-25.8h2c1,0,1.9-0.9,1.9-1.9v-3.3c0-1-0.9-1.9-1.9-1.9h-7.3v-16.6c0-1-0.9-1.9-1.9-1.9h-2.8v-8.4
						c0-1-0.9-1.9-1.9-1.9h-1.1V81c0-0.8-0.6-1.4-1.4-1.4c-0.8,0-1.4,0.6-1.4,1.4v9.6h-1.1c-1,0-1.9,0.9-1.9,1.9v8.4h-2.8
						c-1,0-1.9,0.9-1.9,1.9v16.6h-7.3c-1,0-1.9,0.9-1.9,1.9v3.3c0,1,0.9,1.9,1.9,1.9h2v25.8h-5.1c-1,0-1.9,0.9-1.9,1.9v3.8h-1.6
						c-1,0-1.9,0.9-1.9,1.9v20h-2.4c-1,0-1.9,0.9-1.9,1.9v13.2h-3.2c-1,0-1.9,0.9-1.9,1.9v6c0,1,0.9,1.9,1.9,1.9h2.6v50h-15.9v-8.1
						c0-1-0.9-1.9-1.9-1.9h-3.8v-14.4c0-0.8-0.6-1.4-1.4-1.4c-0.8,0-1.4,0.6-1.4,1.4v14.4h-3.8c-1,0-1.9,0.9-1.9,1.9v8.1h-12.7
						c-1,0-1.9,0.9-1.9,1.9v7.8c0,1,0.9,1.9,1.9,1.9h3.4v37.2h-10.1c0.2-0.4,0.3-0.8,0.3-1.3v-28.4h5c0.8,0,1.4-0.6,1.4-1.4
						c0-0.8-0.6-1.4-1.4-1.4h-5V211h0.2v-2.7h-0.2v-4.1c0-1.6-1.3-2.9-2.9-2.9h-24.2v-0.5c0-1.7-1.4-3.2-3.2-3.2H172
						c-0.1,0-0.3,0-0.4,0v-4.3c0-1.7-1.4-3.2-3.2-3.2h-5.1c-1.7,0-3.2,1.4-3.2,3.2v4.3c-0.1,0-0.3,0-0.4,0h-1.9
						c-1.7,0-3.2,1.4-3.2,3.2v0.5h-6.6v-0.5c0-1.7-1.4-3.2-3.2-3.2H143c-0.1,0-0.3,0-0.4,0v-4.3c0-1.7-1.4-3.2-3.2-3.2h-5.1
						c-1.7,0-3.2,1.4-3.2,3.2v4.3c-0.1,0-0.3,0-0.4,0h-1.9c-1.7,0-3.2,1.4-3.2,3.2v0.5H118v-0.5c0-1.7-1.4-3.2-3.2-3.2h-1.9
						c-0.1,0-0.3,0-0.4,0v-4.3c0-1.7-1.4-3.2-3.2-3.2h-5.1c-1.7,0-3.2,1.4-3.2,3.2v4.3c-0.1,0-0.3,0-0.4,0h-1.9
						c-1.7,0-3.2,1.4-3.2,3.2v0.5H70.4c-1.6,0-2.9,1.3-2.9,2.9v66.8h-7.8c-0.8,0-1.4,0.6-1.4,1.4c0,0.8,0.6,1.4,1.4,1.4h7.8v28.4
						c0,0.5,0.1,0.9,0.3,1.3H43.4v-13.3c0,0,0,0,0,0v-21.3c3.1,2.1,6.5,1.3,8.3,0.3c0.3,0.1,0.8,0.4,1.2,0.7
						c0.3,0.2,0.6,0.4,0.9,0.4c0.3,0,0.5-0.1,0.8-0.2c0.5-0.4,0.7-1,0.5-1.6c-1.2-3.1-2.8-5.2-4.7-6.2c0.3-0.3,0.5-0.6,0.7-0.8
						c0.1-0.2,0.2-0.3,0.2-0.5c0.3,0,0.8-0.1,1.1,0c0.5,0.1,1.1-0.1,1.3-0.6c0.3-0.4,0.3-1,0-1.5c-1.8-3-3.8-4.5-6-4.3
						c-2.7,0.2-4.7,3-5.9,5.2c-1.3-2.2-3.5-4.9-6.3-5.2c-2.3-0.2-4.5,1.2-6.5,4.2c-0.3,0.5-0.3,1,0,1.5s0.8,0.7,1.3,0.6
						c0.5-0.1,1.1-0.1,1.4,0c0,0.2,0.1,0.4,0.3,0.5c0.2,0.2,0.4,0.4,0.6,0.7c-2,1-3.6,3.1-4.9,6.3c-0.2,0.6,0,1.3,0.5,1.6
						c0.2,0.2,0.5,0.2,0.8,0.2c0.3,0,0.7-0.1,0.9-0.4c0.4-0.3,0.9-0.7,1.2-0.7c1.9,1.1,5.9,2.1,9.3-1.1v15.8h0v19.7H16v-21.1
						c3.1,2.1,6.5,1.3,8.3,0.3c0.3,0.1,0.8,0.4,1.2,0.7c0.3,0.2,0.6,0.4,0.9,0.4c0.3,0,0.5-0.1,0.8-0.2c0.5-0.4,0.7-1,0.5-1.6
						c-1.2-3.1-2.8-5.2-4.7-6.2c0.3-0.3,0.5-0.6,0.7-0.8c0.1-0.2,0.2-0.3,0.2-0.5c0.3,0,0.8-0.1,1.1,0c0.5,0.1,1.1-0.1,1.3-0.6
						c0.3-0.4,0.3-1,0-1.5c-1.8-3-3.8-4.5-6-4.3c-2.7,0.2-4.7,3-5.9,5.2c-1.3-2.2-3.5-4.9-6.3-5.2c-2.3-0.2-4.5,1.2-6.5,4.2
						c-0.3,0.5-0.3,1,0,1.5s0.8,0.7,1.3,0.6c0.5-0.1,1.1-0.1,1.4,0c0,0.2,0.1,0.4,0.3,0.5c0.2,0.2,0.4,0.4,0.6,0.7
						c-2,1-3.6,3.1-4.9,6.3c-0.2,0.6,0,1.3,0.5,1.6c0.2,0.2,0.5,0.2,0.8,0.2c0.3,0,0.7-0.1,0.9-0.4c0.4-0.3,0.9-0.7,1.2-0.7
						c1.9,1.1,5.9,2.1,9.3-1.1v21.9H1.4c-0.8,0-1.4,0.6-1.4,1.4c0,0.8,0.6,1.4,1.4,1.4h301l-12.5-1.8L293.6,302.3z M51.1,266.4
						c-0.2,0.1-0.5,0.2-0.7,0.3c-0.4,0.2-3.6,2-6.5-1.1c0.4-0.3,0.8-0.6,1.4-0.9c0.8-0.1,1.6-0.3,2.3-0.6c0.2,0,0.4,0,0.6,0.1
						C49.4,264.4,50.3,265.2,51.1,266.4z M48.1,257.1c0.7-0.1,1.4,0.4,2.1,1.1c-0.3,0.1-0.5,0.2-0.7,0.4c-0.4,0.3-0.6,0.7-0.7,1.1
						c-0.3,0.4-1,1-1.9,1.6c-0.8,0.1-1.6,0.3-2.3,0.6c-0.2,0-0.5,0-0.7-0.1C44.8,259.9,46.5,257.3,48.1,257.1z M32.7,266.7
						c-0.2-0.2-0.5-0.3-0.8-0.3c0.8-1.1,1.7-2,2.9-2.2c0.4-0.1,0.9-0.1,1.3,0c0.4,0.2,0.8,0.3,1.2,0.4c0.7,0.3,1.3,0.7,1.8,1.1
						C36.3,268.7,33.1,266.9,32.7,266.7z M38.3,261.9c-0.4-0.2-0.9-0.3-1.3-0.4c-1.2-0.5-2-1.3-2.4-1.7c-0.1-0.4-0.4-0.8-0.7-1.1
						c-0.2-0.2-0.5-0.4-0.8-0.5c0.7-0.7,1.5-1.2,2.4-1.1c1.9,0.2,3.7,2.9,4.7,4.8C39.5,262.1,38.9,262,38.3,261.9z M23.7,279.9
						c-0.2,0.1-0.5,0.2-0.7,0.3c-0.4,0.2-3.6,2-6.5-1.1c0.4-0.3,0.8-0.6,1.4-0.9c0.8-0.1,1.6-0.3,2.3-0.6c0.2,0,0.4,0,0.6,0.1
						C22,277.9,22.9,278.8,23.7,279.9z M20.7,270.7c0.7-0.1,1.4,0.4,2.1,1.1c-0.3,0.1-0.5,0.2-0.7,0.4c-0.4,0.3-0.6,0.7-0.7,1.1
						c-0.3,0.4-1,1-1.9,1.6c-0.8,0.1-1.6,0.3-2.3,0.6c-0.2,0-0.5,0-0.7-0.1C17.4,273.5,19.1,270.9,20.7,270.7z M5.4,280.3
						c-0.2-0.2-0.5-0.3-0.8-0.3c0.8-1.1,1.7-2,2.9-2.2c0.4-0.1,0.9-0.1,1.3,0c0.4,0.2,0.8,0.3,1.2,0.4c0.7,0.3,1.3,0.7,1.8,1.1
						C8.9,282.2,5.7,280.5,5.4,280.3z M10.9,275.5c-0.4-0.2-0.9-0.3-1.3-0.4c-1.2-0.5-2-1.3-2.4-1.7c-0.1-0.4-0.4-0.8-0.7-1.1
						c-0.2-0.2-0.5-0.4-0.8-0.5c0.7-0.7,1.5-1.2,2.4-1.1c1.9,0.2,3.7,2.9,4.7,4.8C12.1,275.6,11.5,275.6,10.9,275.5z M171.6,200.8
						c0-0.2,0.2-0.4,0.4-0.4h1.9c0.2,0,0.4,0.2,0.4,0.4v4.3c0,0.2-0.2,0.4-0.4,0.4H172c-0.2,0-0.4-0.2-0.4-0.4V200.8z M172,208.3
						h1.9h0.4v43.5h-6v-43.5h0.1H172z M162.9,200.8v-7.4c0-0.2,0.2-0.4,0.4-0.4h5.1c0.2,0,0.4,0.2,0.4,0.4v7.4v4.3
						c0,0.2-0.2,0.4-0.4,0.4h-5.1c-0.2,0-0.4-0.2-0.4-0.4V200.8z M163.3,208.3h2.2v43.5h-7.4v-43.5h1.6H163.3z M157.4,200.8
						c0-0.2,0.2-0.4,0.4-0.4h1.9c0.2,0,0.4,0.2,0.4,0.4v4.3c0,0.2-0.2,0.4-0.4,0.4h-1.9c-0.2,0-0.4-0.2-0.4-0.4V200.8z M148.8,205.5
						H148c0-0.1,0-0.3,0-0.4V204h6.6v1.1c0,0.1,0,0.3,0,0.4H154c-0.8,0-1.4,0.6-1.4,1.4c0,0.8,0.6,1.4,1.4,1.4h1.5v0.5H145v-0.5h3.9
						c0.8,0,1.4-0.6,1.4-1.4C150.2,206.1,149.6,205.5,148.8,205.5z M145,246.6V237h10.5v9.6H145z M155.5,249.3v2.4H145v-2.4H155.5z
						 M145,234.3v-7.6h10.5v7.6H145z M145,223.9v-12.5h10.5v12.5H145z M142.6,200.8c0-0.2,0.2-0.4,0.4-0.4h1.9
						c0.2,0,0.4,0.2,0.4,0.4v4.3c0,0.2-0.2,0.4-0.4,0.4H143c-0.2,0-0.4-0.2-0.4-0.4V200.8z M142.2,208.3v43.5h-4.9v-43.5h2.2H142.2z
						 M133.9,200.8v-7.4c0-0.2,0.2-0.4,0.4-0.4h5.1c0.2,0,0.4,0.2,0.4,0.4v7.4v4.3c0,0.2-0.2,0.4-0.4,0.4h-2.2h-2.7h-0.2
						c-0.2,0-0.4-0.2-0.4-0.4V200.8z M134.4,208.3h0.2v43.5h-4.9v-43.5h1.2H134.4z M128.5,200.8c0-0.2,0.2-0.4,0.4-0.4h1.9
						c0.2,0,0.4,0.2,0.4,0.4v4.3c0,0.2-0.2,0.4-0.4,0.4h-1.2h-0.7c-0.2,0-0.4-0.2-0.4-0.4V200.8z M116.4,208.3h2.4
						c0.8,0,1.4-0.6,1.4-1.4c0-0.8-0.6-1.4-1.4-1.4h-0.8c0-0.1,0-0.3,0-0.4V204h7.8v1.1c0,0.1,0,0.3,0,0.4H125
						c-0.8,0-1.4,0.6-1.4,1.4c0,0.8,0.6,1.4,1.4,1.4h1.9v0.5h-10.5V208.3z M116.4,211.5h10.5v12.5h-10.5V211.5z M116.4,226.7h10.5
						v7.6h-10.5V226.7z M116.4,237h10.5v9.6h-10.5V237z M116.4,249.3h10.5v2.4h-10.5V249.3z M112.5,200.8c0-0.2,0.2-0.4,0.4-0.4h1.9
						c0.2,0,0.4,0.2,0.4,0.4v4.3c0,0.2-0.2,0.4-0.4,0.4h-1.9c-0.2,0-0.4-0.2-0.4-0.4V200.8z M112.9,208.3h0.7v43.5h-6.9v-43.5h2.6
						H112.9z M103.8,200.8v-7.4c0-0.2,0.2-0.4,0.4-0.4h5.1c0.2,0,0.4,0.2,0.4,0.4v7.4v4.3c0,0.2-0.2,0.4-0.4,0.4h-5.1
						c-0.2,0-0.4-0.2-0.4-0.4V200.8z M104,208.3v43.5h-5.6V211v-2.7h0.3h1.9H104z M98.3,200.8c0-0.2,0.2-0.4,0.4-0.4h1.9
						c0.2,0,0.4,0.2,0.4,0.4v4.3c0,0.2-0.2,0.4-0.4,0.4h-1.9c-0.2,0-0.4-0.2-0.4-0.4V200.8z M70.3,204.2c0-0.1,0.1-0.2,0.2-0.2h25.2
						v1.1c0,0.1,0,0.3,0,0.4h-0.8c-0.8,0-1.4,0.6-1.4,1.4c0,0.8,0.6,1.4,1.4,1.4H70.3V204.2z M95.7,211v11.6h-1.4V211H95.7z
						 M91.6,211v11.6h-4.1V211H91.6z M84.7,211v11.6h-1.8V211H84.7z M80.2,211v11.6h-4.1V211H80.2z M70.3,211h3v11.6h-3V211z
						 M70.3,225.3h25.4v7.6h-4.4h-3.8h-9h-3.8h-4.4V225.3z M91.4,235.8v10.6c0,0.1-0.1,0.2-0.2,0.2h-3.8c-0.1,0-0.2-0.1-0.2-0.2
						v-10.6c0-0.1,0.1-0.2,0.2-0.2h3.8C91.4,235.7,91.4,235.7,91.4,235.8z M78.6,235.8v10.6c0,0.1-0.1,0.2-0.2,0.2h-3.8
						c-0.1,0-0.2-0.1-0.2-0.2v-10.6c0-0.1,0.1-0.2,0.2-0.2h3.8C78.6,235.7,78.6,235.7,78.6,235.8z M70.3,235.7h1.5
						c0,0.1,0,0.1,0,0.2v10.6c0,1.6,1.3,2.9,2.9,2.9h3.8c1.6,0,2.9-1.3,2.9-2.9v-10.6c0-0.1,0-0.1,0-0.2h3.2c0,0.1,0,0.1,0,0.2v10.6
						c0,1.6,1.3,2.9,2.9,2.9h3.8c1.6,0,2.9-1.3,2.9-2.9v-10.6c0-0.1,0-0.1,0-0.2h1.5v16.1H70.3V235.7z M97.1,302.3H70.4
						c-0.1,0-0.2-0.1-0.2-0.2v-28.4h26.8V302.3z M104.4,302.3h-4.6v-28.6h4.6V302.3z M113.5,302.3h-6.4v-28.6h6.4V302.3z
						 M134.8,302.3h-5.9c-0.1,0-0.2-0.1-0.2-0.2v-11.7h6.1V302.3z M143.6,302.1c0,0.1-0.1,0.2-0.2,0.2h-5.9v-11.9h6.1V302.1z
						 M143.6,287.7h-14.9v-5c0-0.1,0.1-0.2,0.2-0.2h14.6c0.1,0,0.2,0.1,0.2,0.2V287.7z M155.5,302.3h-9.1c0-0.1,0-0.1,0-0.2v-19.5
						c0-1.6-1.3-2.9-2.9-2.9h-14.6c-1.6,0-2.9,1.3-2.9,2.9v19.5c0,0.1,0,0.1,0,0.2h-9.8v-28.6h39.2V302.3z M162.8,302.3h-4.6v-28.6
						h4.6V302.3z M171.9,302.3h-6.4v-28.6h6.4V302.3z M201.4,302.1c0,0.1-0.1,0.2-0.2,0.2h-26.6v-28.6h26.8V302.1z M201.4,270.9
						H70.3v-6.4h131.1V270.9z M201.4,261.8H70.3v-7.3h131.1V261.8z M201.4,251.8h-24.3v-16.1h0.6c0,0.1,0,0.1,0,0.2v10.6
						c0,1.6,1.3,2.9,2.9,2.9h3.8c1.6,0,2.9-1.3,2.9-2.9v-10.6c0-0.1,0-0.1,0-0.2h3.2c0,0.1,0,0.1,0,0.2v10.6c0,1.6,1.3,2.9,2.9,2.9
						h3.8c1.6,0,2.9-1.3,2.9-2.9v-10.6c0-0.1,0-0.1,0-0.2h1.4V251.8z M180.4,246.5v-10.6c0-0.1,0.1-0.2,0.2-0.2h3.8
						c0.1,0,0.2,0.1,0.2,0.2v10.6c0,0.1-0.1,0.2-0.2,0.2h-3.8C180.5,246.6,180.4,246.5,180.4,246.5z M193.2,246.5v-10.6
						c0-0.1,0.1-0.2,0.2-0.2h3.8c0.1,0,0.2,0.1,0.2,0.2v10.6c0,0.1-0.1,0.2-0.2,0.2h-3.8C193.3,246.6,193.2,246.5,193.2,246.5z
						 M201.4,232.9h-4.3h-3.8h-9h-3.8h-3.5v-7.6h24.3V232.9z M177.1,222.6V211h2.1v11.6H177.1z M181.9,222.6V211h4.1v11.6H181.9z
						 M188.8,222.6V211h1.8v11.6H188.8z M193.3,222.6V211h4.1v11.6H193.3z M201.4,222.6h-1.2V211h1.2V222.6z M201.4,208.3h-23.6
						c0.8,0,1.4-0.6,1.4-1.4c0-0.8-0.6-1.4-1.4-1.4H177c0-0.1,0-0.3,0-0.4V204h24.2c0.1,0,0.2,0.1,0.2,0.2V208.3z M273.5,288.3
						h-56.8v-22.1h56.8V288.3z M281.7,288.3h-5.5v-22.1h5.5V288.3z M289.9,288.3h-5.5v-22.1h5.5V288.3z M419.4,247.1h-45.6v-8.2
						h45.6V247.1z M419.4,236.1h-45.6v-6.4h45.6V236.1z M419.4,227h-45.6v-1.4h2.4c2.3,0,4.2-1.9,4.2-4.2v-0.9h39.1V227z
						 M419.4,217.9h-39.1v-8.2h39.1V217.9z M419.4,206.9h-39.1v-8.2h39.1V206.9z M419.4,196h-39.1v-6.4h39.1V196z M419.4,186.8
						h-39.1v-8.2h39.1V186.8z M419.4,175.9h-39.1v-6.4h39.1V175.9z M419.4,166.7h-39.1v-8.2h39.1V166.7z M419.4,155.8h-39.1v-4.4
						h2.5c1.5,0,2.8-0.8,3.5-2h33V155.8z M419.4,146.7H387v-8.2h32.4V146.7z M419.4,135.7H387v-6.4h32.4V135.7z M419.4,126.6H387
						v-8.2h32.4V126.6z M419.4,115.6H387v-6.4h32.4V115.6z M419.4,106.5H387v-8.2h32.4V106.5z M419.4,95.6H387v-6.4h32.4V95.6z
						 M419.4,86.4H387V80h32.4V86.4z M419.4,77.3H387v-8.2h32.4V77.3z M419.4,66.3H387v-8.2h32.4V66.3z M419.4,55.4H387v-6.5
						c0-0.2,0-0.5-0.1-0.7h32.5V55.4z M383,31.4h26.5v4H383V31.4z M381,38.1h37.3c0.4,0,0.7,0.1,1.1,0.1v7.2h-35.8h-9.8
						C373.7,41.4,377,38.1,381,38.1z M364.1,55.5c0-4,3.3-7.3,7.3-7.3h0.9h11.2c0.4,0,0.7,0.3,0.7,0.7v98.4c0,0.8-0.6,1.4-1.4,1.4
						h-2.5v-2.1c0-1.9-1.5-3.4-3.4-3.4h-12.1c-0.2,0-0.4,0-0.6,0V55.5z M357.4,153.1c0-4,3.3-7.3,7.3-7.3h12.1
						c0.4,0,0.7,0.3,0.7,0.7v74.9c0,0.8-0.6,1.4-1.4,1.4h-2.4v-5.4c0-0.1,0-0.2,0-0.4v-0.3h0c-0.3-1.6-1.7-2.7-3.4-2.7h-12.1
						c-0.3,0-0.5,0-0.8,0V153.1z M350.9,224.1c0-4,3.3-7.3,7.3-7.3h12.1c0.3,0,0.6,0.2,0.7,0.5v46.5c-0.1,0.7-0.7,1.2-1.4,1.2h-12.2
						c0.1-0.2,0.1-0.4,0.1-0.7v-7.8c0-1-0.9-1.9-1.9-1.9h-4.8V224.1z M331.5,247.4h8.7v7h-8.7V247.4z M309.7,182.6v12.3h-0.9h-4.9
						h-1v-12.3H309.7z M281.5,93.3h3.2v7.5h-3.2V93.3z M276.8,103.6h3.9h4.9h3.9v15.7h-12.6V103.6z M267.6,123.7v-1.6h8.4h14.3h8.4
						v1.6h-3.1h-24.9H267.6z M287.3,139.4h-8.4c-1,0-1.9,0.9-1.9,1.9v10.9h-5.5v-25.8h23.2v25.8h-5.5v-10.9
						C289.2,140.3,288.4,139.4,287.3,139.4z M286.5,142.2v10h-6.8v-10H286.5z M264.5,155h6.1h8.2h8.4h8.2h6.1v3h-37.2V155z
						 M261,160.7h2.7h38.9h2.7v19.2h-3.1c-1,0-1.9,0.9-1.9,1.9v13.2h-3.5c0.1-0.3,0.1-0.6,0.1-0.9v-8.2c0-2-1.6-3.6-3.6-3.6h-3.7
						c-2,0-3.6,1.6-3.6,3.6v8.2c0,0.3,0.1,0.6,0.1,0.9h-5.7c0.1-0.3,0.1-0.6,0.1-0.9v-8.2c0-2-1.6-3.6-3.6-3.6H273
						c-2,0-3.6,1.6-3.6,3.6v8.2c0,0.3,0.1,0.6,0.1,0.9h-3.3v-13.2c0-1-0.9-1.9-1.9-1.9H261V160.7z M294.1,185.7v8.2
						c0,0.5-0.4,0.9-0.9,0.9h-3.7c-0.5,0-0.9-0.4-0.9-0.9v-8.2c0-0.5,0.4-0.9,0.9-0.9h3.7C293.7,184.8,294.1,185.3,294.1,185.7z
						 M277.6,185.7v8.2c0,0.5-0.4,0.9-0.9,0.9H273c-0.5,0-0.9-0.4-0.9-0.9v-8.2c0-0.5,0.4-0.9,0.9-0.9h3.7
						C277.2,184.8,277.6,185.3,277.6,185.7z M256.7,182.6h6.8v12.3H261h-3.6h-0.7V182.6z M251.6,202v-4.3h4.2h4.3h4.2h8.7h3.7h12.7
						h3.7h8.9h4h4.5h4v4.3h-3.6h-55.7H251.6z M310.1,204.7v49.7h-54v-49.7H310.1z M226,247.4h8.7v7H226V247.4z M211.4,263.5v-6.1
						h143.4v6.1h-2.5H214H211.4z"/>
				</g>
				<path class="st0" d="M332.5,282.3h-0.4c-0.1,0-0.1-0.1-0.1-0.1v-6.2c0-0.1,0.1-0.1,0.1-0.1h5c0.1,0,0.1,0.1,0.1,0.1v3.9l2.7-1.4
					v-2.4c0-1.6-1.3-2.9-2.9-2.9h-5c-1.6,0-2.9,1.3-2.9,2.9v6.2c0,0.6,0.2,1.2,0.5,1.6L332.5,282.3z"/>
			</g>
			<g>
				<g>
					<path class="st0" d="M970.4,109.5h-4.1c-1.6,0-2.9,1.3-2.9,2.9v4.1c0,1.6,1.3,2.9,2.9,2.9h4.1c1.6,0,2.9-1.3,2.9-2.9v-4.1
						C973.3,110.8,972,109.5,970.4,109.5z M970.6,116.5c0,0.1-0.1,0.2-0.2,0.2h-4.1c-0.1,0-0.2-0.1-0.2-0.2v-4.1
						c0-0.1,0.1-0.2,0.2-0.2h4.1c0.1,0,0.2,0.1,0.2,0.2V116.5z"/>
					<path class="st0" d="M986.9,109.5h-4.1c-1.6,0-2.9,1.3-2.9,2.9v4.1c0,1.6,1.3,2.9,2.9,2.9h4.1c1.6,0,2.9-1.3,2.9-2.9v-4.1
						C989.8,110.8,988.5,109.5,986.9,109.5z M987,116.5c0,0.1-0.1,0.2-0.2,0.2h-4.1c-0.1,0-0.2-0.1-0.2-0.2v-4.1
						c0-0.1,0.1-0.2,0.2-0.2h4.1c0.1,0,0.2,0.1,0.2,0.2V116.5z"/>
					<path class="st0" d="M1003.3,109.5h-4.1c-1.6,0-2.9,1.3-2.9,2.9v4.1c0,1.6,1.3,2.9,2.9,2.9h4.1c1.6,0,2.9-1.3,2.9-2.9v-4.1
						C1006.2,110.8,1004.9,109.5,1003.3,109.5z M1003.5,116.5c0,0.1-0.1,0.2-0.2,0.2h-4.1c-0.1,0-0.2-0.1-0.2-0.2v-4.1
						c0-0.1,0.1-0.2,0.2-0.2h4.1c0.1,0,0.2,0.1,0.2,0.2V116.5z"/>
					<path class="st0" d="M970.4,125.7h-4.1c-1.6,0-2.9,1.3-2.9,2.9v4.1c0,1.6,1.3,2.9,2.9,2.9h4.1c1.6,0,2.9-1.3,2.9-2.9v-4.1
						C973.3,127,972,125.7,970.4,125.7z M970.6,132.7c0,0.1-0.1,0.2-0.2,0.2h-4.1c-0.1,0-0.2-0.1-0.2-0.2v-4.1
						c0-0.1,0.1-0.2,0.2-0.2h4.1c0.1,0,0.2,0.1,0.2,0.2V132.7z"/>
					<path class="st0" d="M986.9,125.7h-4.1c-1.6,0-2.9,1.3-2.9,2.9v4.1c0,1.6,1.3,2.9,2.9,2.9h4.1c1.6,0,2.9-1.3,2.9-2.9v-4.1
						C989.8,127,988.5,125.7,986.9,125.7z M987,132.7c0,0.1-0.1,0.2-0.2,0.2h-4.1c-0.1,0-0.2-0.1-0.2-0.2v-4.1
						c0-0.1,0.1-0.2,0.2-0.2h4.1c0.1,0,0.2,0.1,0.2,0.2V132.7z"/>
					<path class="st0" d="M1003.3,125.7h-4.1c-1.6,0-2.9,1.3-2.9,2.9v4.1c0,1.6,1.3,2.9,2.9,2.9h4.1c1.6,0,2.9-1.3,2.9-2.9v-4.1
						C1006.2,127,1004.9,125.7,1003.3,125.7z M1003.5,132.7c0,0.1-0.1,0.2-0.2,0.2h-4.1c-0.1,0-0.2-0.1-0.2-0.2v-4.1
						c0-0.1,0.1-0.2,0.2-0.2h4.1c0.1,0,0.2,0.1,0.2,0.2V132.7z"/>
					<path class="st0" d="M970.4,141.9h-4.1c-1.6,0-2.9,1.3-2.9,2.9v4.1c0,1.6,1.3,2.9,2.9,2.9h4.1c1.6,0,2.9-1.3,2.9-2.9v-4.1
						C973.3,143.2,972,141.9,970.4,141.9z M970.6,148.9c0,0.1-0.1,0.2-0.2,0.2h-4.1c-0.1,0-0.2-0.1-0.2-0.2v-4.1
						c0-0.1,0.1-0.2,0.2-0.2h4.1c0.1,0,0.2,0.1,0.2,0.2V148.9z"/>
					<path class="st0" d="M986.9,142h-4.1c-1.6,0-2.9,1.3-2.9,2.9v4.1c0,1.6,1.3,2.9,2.9,2.9h4.1c1.6,0,2.9-1.3,2.9-2.9v-4.1
						C989.8,143.3,988.5,142,986.9,142z M987,149c0,0.1-0.1,0.2-0.2,0.2h-4.1c-0.1,0-0.2-0.1-0.2-0.2v-4.1c0-0.1,0.1-0.2,0.2-0.2
						h4.1c0.1,0,0.2,0.1,0.2,0.2V149z"/>
					<path class="st0" d="M1003.3,142h-4.1c-1.6,0-2.9,1.3-2.9,2.9v4.1c0,1.6,1.3,2.9,2.9,2.9h4.1c1.6,0,2.9-1.3,2.9-2.9v-4.1
						C1006.2,143.3,1004.9,142,1003.3,142z M1003.5,149c0,0.1-0.1,0.2-0.2,0.2h-4.1c-0.1,0-0.2-0.1-0.2-0.2v-4.1
						c0-0.1,0.1-0.2,0.2-0.2h4.1c0.1,0,0.2,0.1,0.2,0.2V149z"/>
					<path class="st0" d="M970.4,158.1h-4.1c-1.6,0-2.9,1.3-2.9,2.9v4.1c0,1.6,1.3,2.9,2.9,2.9h4.1c1.6,0,2.9-1.3,2.9-2.9V161
						C973.3,159.4,972,158.1,970.4,158.1z M970.6,165.1c0,0.1-0.1,0.2-0.2,0.2h-4.1c-0.1,0-0.2-0.1-0.2-0.2V161
						c0-0.1,0.1-0.2,0.2-0.2h4.1c0.1,0,0.2,0.1,0.2,0.2V165.1z"/>
					<path class="st0" d="M986.9,158.2h-4.1c-1.6,0-2.9,1.3-2.9,2.9v4.1c0,1.6,1.3,2.9,2.9,2.9h4.1c1.6,0,2.9-1.3,2.9-2.9v-4.1
						C989.8,159.5,988.5,158.2,986.9,158.2z M987,165.2c0,0.1-0.1,0.2-0.2,0.2h-4.1c-0.1,0-0.2-0.1-0.2-0.2v-4.1
						c0-0.1,0.1-0.2,0.2-0.2h4.1c0.1,0,0.2,0.1,0.2,0.2V165.2z"/>
					<path class="st0" d="M1003.3,158.2h-4.1c-1.6,0-2.9,1.3-2.9,2.9v4.1c0,1.6,1.3,2.9,2.9,2.9h4.1c1.6,0,2.9-1.3,2.9-2.9v-4.1
						C1006.2,159.5,1004.9,158.2,1003.3,158.2z M1003.5,165.2c0,0.1-0.1,0.2-0.2,0.2h-4.1c-0.1,0-0.2-0.1-0.2-0.2v-4.1
						c0-0.1,0.1-0.2,0.2-0.2h4.1c0.1,0,0.2,0.1,0.2,0.2V165.2z"/>
					<path class="st0" d="M970.4,174.3h-4.1c-1.6,0-2.9,1.3-2.9,2.9v4.1c0,1.6,1.3,2.9,2.9,2.9h4.1c1.6,0,2.9-1.3,2.9-2.9v-4.1
						C973.3,175.6,972,174.3,970.4,174.3z M970.6,181.3c0,0.1-0.1,0.2-0.2,0.2h-4.1c-0.1,0-0.2-0.1-0.2-0.2v-4.1
						c0-0.1,0.1-0.2,0.2-0.2h4.1c0.1,0,0.2,0.1,0.2,0.2V181.3z"/>
					<path class="st0" d="M986.9,174.5h-4.1c-1.6,0-2.9,1.3-2.9,2.9v4.1c0,1.6,1.3,2.9,2.9,2.9h4.1c1.6,0,2.9-1.3,2.9-2.9v-4.1
						C989.8,175.8,988.5,174.5,986.9,174.5z M987,181.5c0,0.1-0.1,0.2-0.2,0.2h-4.1c-0.1,0-0.2-0.1-0.2-0.2v-4.1
						c0-0.1,0.1-0.2,0.2-0.2h4.1c0.1,0,0.2,0.1,0.2,0.2V181.5z"/>
					<path class="st0" d="M1003.3,174.5h-4.1c-1.6,0-2.9,1.3-2.9,2.9v4.1c0,1.6,1.3,2.9,2.9,2.9h4.1c1.6,0,2.9-1.3,2.9-2.9v-4.1
						C1006.2,175.8,1004.9,174.5,1003.3,174.5z M1003.5,181.5c0,0.1-0.1,0.2-0.2,0.2h-4.1c-0.1,0-0.2-0.1-0.2-0.2v-4.1
						c0-0.1,0.1-0.2,0.2-0.2h4.1c0.1,0,0.2,0.1,0.2,0.2V181.5z"/>
					<path class="st0" d="M970.4,190.5h-4.1c-1.6,0-2.9,1.3-2.9,2.9v4.1c0,1.6,1.3,2.9,2.9,2.9h4.1c1.6,0,2.9-1.3,2.9-2.9v-4.1
						C973.3,191.8,972,190.5,970.4,190.5z M970.6,197.5c0,0.1-0.1,0.2-0.2,0.2h-4.1c-0.1,0-0.2-0.1-0.2-0.2v-4.1
						c0-0.1,0.1-0.2,0.2-0.2h4.1c0.1,0,0.2,0.1,0.2,0.2V197.5z"/>
					<path class="st0" d="M986.9,190.7h-4.1c-1.6,0-2.9,1.3-2.9,2.9v4.1c0,1.6,1.3,2.9,2.9,2.9h4.1c1.6,0,2.9-1.3,2.9-2.9v-4.1
						C989.8,192,988.5,190.7,986.9,190.7z M987,197.7c0,0.1-0.1,0.2-0.2,0.2h-4.1c-0.1,0-0.2-0.1-0.2-0.2v-4.1
						c0-0.1,0.1-0.2,0.2-0.2h4.1c0.1,0,0.2,0.1,0.2,0.2V197.7z"/>
					<path class="st0" d="M1003.3,190.7h-4.1c-1.6,0-2.9,1.3-2.9,2.9v4.1c0,1.6,1.3,2.9,2.9,2.9h4.1c1.6,0,2.9-1.3,2.9-2.9v-4.1
						C1006.2,192,1004.9,190.7,1003.3,190.7z M1003.5,197.7c0,0.1-0.1,0.2-0.2,0.2h-4.1c-0.1,0-0.2-0.1-0.2-0.2v-4.1
						c0-0.1,0.1-0.2,0.2-0.2h4.1c0.1,0,0.2,0.1,0.2,0.2V197.7z"/>
					<path class="st0" d="M970.4,206.7h-4.1c-1.6,0-2.9,1.3-2.9,2.9v4.1c0,1.6,1.3,2.9,2.9,2.9h4.1c1.6,0,2.9-1.3,2.9-2.9v-4.1
						C973.3,208,972,206.7,970.4,206.7z M970.6,213.7c0,0.1-0.1,0.2-0.2,0.2h-4.1c-0.1,0-0.2-0.1-0.2-0.2v-4.1
						c0-0.1,0.1-0.2,0.2-0.2h4.1c0.1,0,0.2,0.1,0.2,0.2V213.7z"/>
					<path class="st0" d="M986.9,207h-4.1c-1.6,0-2.9,1.3-2.9,2.9v4.1c0,1.6,1.3,2.9,2.9,2.9h4.1c1.6,0,2.9-1.3,2.9-2.9v-4.1
						C989.8,208.3,988.5,207,986.9,207z M987,214c0,0.1-0.1,0.2-0.2,0.2h-4.1c-0.1,0-0.2-0.1-0.2-0.2v-4.1c0-0.1,0.1-0.2,0.2-0.2
						h4.1c0.1,0,0.2,0.1,0.2,0.2V214z"/>
					<path class="st0" d="M1003.3,207h-4.1c-1.6,0-2.9,1.3-2.9,2.9v4.1c0,1.6,1.3,2.9,2.9,2.9h4.1c1.6,0,2.9-1.3,2.9-2.9v-4.1
						C1006.2,208.3,1004.9,207,1003.3,207z M1003.5,214c0,0.1-0.1,0.2-0.2,0.2h-4.1c-0.1,0-0.2-0.1-0.2-0.2v-4.1
						c0-0.1,0.1-0.2,0.2-0.2h4.1c0.1,0,0.2,0.1,0.2,0.2V214z"/>
					<path class="st0" d="M970.4,222.9h-4.1c-1.6,0-2.9,1.3-2.9,2.9v4.1c0,1.6,1.3,2.9,2.9,2.9h4.1c1.6,0,2.9-1.3,2.9-2.9v-4.1
						C973.3,224.2,972,222.9,970.4,222.9z M970.6,229.9c0,0.1-0.1,0.2-0.2,0.2h-4.1c-0.1,0-0.2-0.1-0.2-0.2v-4.1
						c0-0.1,0.1-0.2,0.2-0.2h4.1c0.1,0,0.2,0.1,0.2,0.2V229.9z"/>
					<path class="st0" d="M986.9,223.2h-4.1c-1.6,0-2.9,1.3-2.9,2.9v4.1c0,1.6,1.3,2.9,2.9,2.9h4.1c1.6,0,2.9-1.3,2.9-2.9v-4.1
						C989.8,224.5,988.5,223.2,986.9,223.2z M987,230.2c0,0.1-0.1,0.2-0.2,0.2h-4.1c-0.1,0-0.2-0.1-0.2-0.2v-4.1
						c0-0.1,0.1-0.2,0.2-0.2h4.1c0.1,0,0.2,0.1,0.2,0.2V230.2z"/>
					<path class="st0" d="M1003.3,223.2h-4.1c-1.6,0-2.9,1.3-2.9,2.9v4.1c0,1.6,1.3,2.9,2.9,2.9h4.1c1.6,0,2.9-1.3,2.9-2.9v-4.1
						C1006.2,224.5,1004.9,223.2,1003.3,223.2z M1003.5,230.2c0,0.1-0.1,0.2-0.2,0.2h-4.1c-0.1,0-0.2-0.1-0.2-0.2v-4.1
						c0-0.1,0.1-0.2,0.2-0.2h4.1c0.1,0,0.2,0.1,0.2,0.2V230.2z"/>
					<path class="st0" d="M970.4,239.1h-4.1c-1.6,0-2.9,1.3-2.9,2.9v4.1c0,1.6,1.3,2.9,2.9,2.9h4.1c1.6,0,2.9-1.3,2.9-2.9V242
						C973.3,240.4,972,239.1,970.4,239.1z M970.6,246.1c0,0.1-0.1,0.2-0.2,0.2h-4.1c-0.1,0-0.2-0.1-0.2-0.2V242
						c0-0.1,0.1-0.2,0.2-0.2h4.1c0.1,0,0.2,0.1,0.2,0.2V246.1z"/>
					<path class="st0" d="M986.9,239.4h-4.1c-1.6,0-2.9,1.3-2.9,2.9v4.1c0,1.6,1.3,2.9,2.9,2.9h4.1c1.6,0,2.9-1.3,2.9-2.9v-4.1
						C989.8,240.7,988.5,239.4,986.9,239.4z M987,246.5c0,0.1-0.1,0.2-0.2,0.2h-4.1c-0.1,0-0.2-0.1-0.2-0.2v-4.1
						c0-0.1,0.1-0.2,0.2-0.2h4.1c0.1,0,0.2,0.1,0.2,0.2V246.5z"/>
					<path class="st0" d="M1003.3,239.4h-4.1c-1.6,0-2.9,1.3-2.9,2.9v4.1c0,1.6,1.3,2.9,2.9,2.9h4.1c1.6,0,2.9-1.3,2.9-2.9v-4.1
						C1006.2,240.7,1004.9,239.4,1003.3,239.4z M1003.5,246.5c0,0.1-0.1,0.2-0.2,0.2h-4.1c-0.1,0-0.2-0.1-0.2-0.2v-4.1
						c0-0.1,0.1-0.2,0.2-0.2h4.1c0.1,0,0.2,0.1,0.2,0.2V246.5z"/>
					<path class="st0" d="M986.9,255.7h-4.1c-1.6,0-2.9,1.3-2.9,2.9v4.1c0,1.6,1.3,2.9,2.9,2.9h4.1c1.6,0,2.9-1.3,2.9-2.9v-4.1
						C989.8,257,988.5,255.7,986.9,255.7z M987,262.7c0,0.1-0.1,0.2-0.2,0.2h-4.1c-0.1,0-0.2-0.1-0.2-0.2v-4.1
						c0-0.1,0.1-0.2,0.2-0.2h4.1c0.1,0,0.2,0.1,0.2,0.2V262.7z"/>
					<path class="st0" d="M1003.3,255.7h-4.1c-1.6,0-2.9,1.3-2.9,2.9v4.1c0,1.6,1.3,2.9,2.9,2.9h4.1c1.6,0,2.9-1.3,2.9-2.9v-4.1
						C1006.2,257,1004.9,255.7,1003.3,255.7z M1003.5,262.7c0,0.1-0.1,0.2-0.2,0.2h-4.1c-0.1,0-0.2-0.1-0.2-0.2v-4.1
						c0-0.1,0.1-0.2,0.2-0.2h4.1c0.1,0,0.2,0.1,0.2,0.2V262.7z"/>
					<path class="st0" d="M1003.3,271.9h-4.1c-1.6,0-2.9,1.3-2.9,2.9v4.1c0,1.6,1.3,2.9,2.9,2.9h4.1c1.6,0,2.9-1.3,2.9-2.9v-4.1
						C1006.2,273.2,1004.9,271.9,1003.3,271.9z M1003.5,279c0,0.1-0.1,0.2-0.2,0.2h-4.1c-0.1,0-0.2-0.1-0.2-0.2v-4.1
						c0-0.1,0.1-0.2,0.2-0.2h4.1c0.1,0,0.2,0.1,0.2,0.2V279z"/>
				</g>
				<g>
					<path class="st0" d="M682,74.8c2.9,3.6,7.9,5.4,14.9,5.4c0.9,0,1.9,0,2.8-0.1c0.8,0.6,1.7,1.1,2.6,1.6c3.8,2,7.9,3.1,12,3.5
						v32.3c0,0.5,0.3,1,0.8,1.2l2,1v40.5H715c-2,0-3.6,1.6-3.6,3.6v3.5h-1c-3,0-5.7,2.4-6.2,5.5L691.9,245l2.6,0.8l12.3-72.7
						c0.3-1.8,1.9-3.2,3.5-3.2h1h0c-0.5,0.8-0.9,1.8-1,2.8l-9.9,74.6l2.7,0.5l8.4-63.5h45.5l10.8,81.1l2.8,0.6l-12.4-93.3
						c-0.1-1-0.5-2-1-2.8h0h1c1.6,0,3.2,1.5,3.5,3.2l16.2,95.3l3,1.1l-16.5-96.9c-0.5-3.1-3.3-5.5-6.2-5.5h-1v-3.5
						c0-2-1.6-3.6-3.6-3.6h-3.7v-24.4l1.1,0.5c0.2,0.1,0.4,0.1,0.6,0.1c0.3,0,0.5-0.1,0.7-0.2c0.4-0.2,0.6-0.7,0.6-1.2v-11.9
						l6.1-5.9c0.3-0.3,0.4-0.6,0.4-1V83.9c1.9-0.3,5.6-1.3,9.6-3.9c0.9,0.3,2.8,0.7,5.1,0.7c2.2,0,4.9-0.4,7.5-1.8
						c1.9-1,3.5-2.5,4.9-4.4c2,0.3,3.9,0.4,5.7,0.4c4.7,0,8.3-1,10.7-3.1c2.9-2.4,3-5.4,3-5.5c0-0.4-0.1-0.7-0.4-1
						c-0.3-0.3-0.6-0.4-1-0.4h-10.1c0.1-0.2,0.2-0.4,0.2-0.6c0.1-0.7-0.4-1.4-1.2-1.5c-12.4-1.7-24.3-2.8-35.3-3.5c0,0-0.1,0-0.1,0
						c0,0,0,0-0.1,0c-4.7-0.3-9.3-0.5-13.7-0.6H743v-0.2v-0.4V40c0-4.7-3.8-8.5-8.5-8.5c-4.7,0-8.5,3.8-8.5,8.5v18.2v0.3v0.1h-1.2
						c-14.5,0.2-26.4,1.2-35.1,2.1c-0.1,0-0.1,0-0.2,0c0,0,0,0-0.1,0c-3.3,0.4-6.2,0.7-8.5,1c-0.1,0-0.1,0-0.2,0
						c-4.3,0.6-6.6,1-6.7,1.1c-0.7,0.1-1.2,0.9-1.1,1.6c0,0.2,0.1,0.3,0.2,0.5h-8.8c-0.7,0-1.3,0.5-1.4,1.2c0,0.1-0.3,2.9,2.1,5.3
						c2.3,2.2,6,3.4,11.2,3.4c1.6,0,3.4-0.1,5.3-0.4C681.8,74.6,681.9,74.7,682,74.8z M790.8,65.2c0.6,0.1,1.2,0.2,1.8,0.2
						c-0.2,0.2-0.3,0.5-0.3,0.9c0,0.8,0.6,1.4,1.4,1.4h9.5c-0.3,0.6-0.8,1.4-1.7,2.1c-1.8,1.5-5.5,3-13,2.1
						C789.4,70,790.2,67.7,790.8,65.2z M788.1,64.8c-1.4,5.7-3.8,9.6-7.4,11.6c-3.1,1.7-6.3,1.6-8.5,1.3c3.3-3,6.5-7.4,8.7-13.8
						C783.2,64.2,785.7,64.5,788.1,64.8z M759.8,62.1c5.9,0.4,12,0.9,18.3,1.5c-2.5,6.9-6.1,11.1-9.6,13.7c-0.1,0.1-0.2,0.1-0.3,0.2
						c-3.4,2.4-6.6,3.3-8.4,3.6V62.1z M717.1,116.5V85.4c0.9,0,1.8,0.1,2.7,0.1c9.6,0,18.5-2.6,22.3-3.8v47.1l-0.2-0.1c0,0,0,0,0,0
						l-7.3-3.5c-0.1-0.1-0.3-0.2-0.5-0.2L717.1,116.5z M739.9,130.7v29.4h-4.8v-31.7L739.9,130.7z M732.3,127v33.1h-4.8v-35.4
						L732.3,127z M724.7,123.3v36.8h-4.8v-39.1L724.7,123.3z M756.8,181.6h-44.7l1.1-8.5c0.2-1.9,1.5-3.2,2.5-3.2h37.5
						c1,0,2.2,1.3,2.5,3.2L756.8,181.6z M753.9,162.8c0.4,0,0.8,0.4,0.8,0.8v3.5h-1.5h-37.5h-1.5v-3.5c0-0.4,0.4-0.8,0.8-0.8H753.9z
						 M750.6,132.8l-4.8-2.3l4.8-4.7V132.8z M744.8,68.9c0.2-0.7,0.3-1.5,0.3-2.2v-5.3c3.9,0.1,7.8,0.3,11.9,0.5v53.7l-4.2,4.1
						l-2.3,2.2l-5.8,5.7V68.9z M742.6,132l4.8,2.4v25.7h-4.8V132z M728.7,40c0-3.2,2.6-5.8,5.8-5.8c3.2,0,5.8,2.6,5.8,5.8v10.3
						h-11.6V40z M728.7,53h11.6v5.4h-11.6V53z M726.6,61.2c4.9-0.1,10.1,0,15.5,0.1v7.2c-0.8,2.1-2.8,3.6-5.1,3.6H732
						c-3,0-5.5-2.5-5.5-5.5V61.2z M723.8,61.3v5.4c0,4.5,3.7,8.2,8.2,8.2h4.9c2,0,3.7-0.7,5.1-1.9v5.7c-3.1,1.1-13.8,4.4-24.7,3.9
						l0,0c-0.5,0-3.4-0.3-3.4-0.3c-3.6-0.5-7.2-1.4-10.4-3.1c-6-3.2-10-8.6-12.1-16C699.7,62.3,710.7,61.5,723.8,61.3z M682.2,64.3
						c1.9-0.3,4.1-0.5,6.6-0.8c1.5,5.7,4.1,10.4,7.8,13.9c-5.9-0.1-10.1-1.5-12.5-4.3C681.6,70,681.9,66,682.2,64.3z M667.2,69.5
						c-0.7-0.7-1-1.3-1.2-1.9h8.4c0.8,0,1.4-0.6,1.4-1.4c0-0.4-0.1-0.7-0.4-0.9c0.8-0.1,2.1-0.4,4-0.6c-0.2,1.8-0.2,4.5,0.9,7.2
						C672.3,72.6,668.8,71.1,667.2,69.5z"/>
					<path class="st0" d="M1171.5,303.4h-14.7c0.2-0.6,0.1-1.3-0.3-1.8l-26.3-35.6l-28-37.8c-0.4-0.5-1-0.9-1.7-0.9c0,0,0,0-0.1,0
						c-0.7,0-1.3,0.4-1.7,1l-14.2,22.1l-32.4-43.8c-0.5-0.7-1.3-1.1-2.2-1.1c0,0-0.1,0-0.1,0c-0.9,0-1.7,0.5-2.2,1.3l-30.9,48.1
						l-2.8,4.4V102.9c0-3-2.5-5.5-5.5-5.5h-46.8c-3,0-5.5,2.5-5.5,5.5v33.8h-33.5V221h-8.1v-8.2h1.7c1.8,0,3.3-1.5,3.3-3.3v-1.6
						c0-1.8-1.5-3.3-3.3-3.3h-1.7v-4.5h1.7c1.8,0,3.3-1.5,3.3-3.3v-1.6c0-1.8-1.5-3.3-3.3-3.3h-47c-1.8,0-3.3,1.5-3.3,3.3v1.6
						c0,1.8,1.5,3.3,3.3,3.3h1.3l0,4.5h-1.3c-1.8,0-3.3,1.5-3.3,3.3v1.6c0,1.8,1.5,3.3,3.3,3.3h1.2l-0.1,8.2H853l-5.6-118.8
						c0-0.1,0-0.3,0-0.4l0-0.1h0c0-0.1-0.1-0.3-0.1-0.4l-13.3-18c-0.2-0.3-0.6-0.5-1.1-0.6c-0.1,0-0.1,0-0.1,0c0,0-0.1,0-0.1,0
						c-0.6,0-1.1,0.4-1.3,0.9l-15.5,16.9c-0.3,0.3-0.4,0.8-0.3,1.2l-7.6,161c-1.4,0.9-2.5,2.7-2.8,4.8l-1.3,9.3h-3.3
						c-0.6,0-1.3,0.1-1.9,0.3l5.9,2.4h71.9v0.8h-70l4.8,2.7h65.2v5.7h-53.4l0.8,0.4l4.8,2.5h47.8v1.2h-45.5l2.9,1.5l2.1,1.2h40.5
						v6.7h-89.8l-0.5-3.1l0.7-3.6h32.7l-6.3-2.7H788c0.6-0.7,1.5-1.2,2.4-1.2h20.3l-7.1-2.9h-7.2l0.5-2.7l-0.5-0.2l-2.1-0.9
						l-0.7,3.9h-3.2c-2.2,0-4.3,1.4-5.4,3.4l-2.1-12.1l-3-1.3l4,23.4h-8.4l-3.6-26.9l0,0l-2.9-0.9l3.7,27.7h-76.7l6.1-45.8l-2.7-0.5
						l-6.2,46.4H685l8.1-47.6l-2.7-0.5l-8.4,49.4c-0.6,0.1-1.1,0.7-1.1,1.3c0,0.8,0.6,1.4,1.4,1.4h489.2c0.8,0,1.4-0.6,1.4-1.4
						C1172.8,304,1172.2,303.4,1171.5,303.4z M960.7,251.2c0.4,0,0.9,0.5,1.3,1.2h-55.4v-1.2h47H960.7z M906.7,239.3v-1h34.1h7.7
						c0.2,0,0.5,0.4,0.8,1H906.7z M949.8,242.1l0.7,6.4h-43.9v-6.4H949.8z M906.7,235.6V228h30.5l0.6,7.5H906.7z M898.6,221v-8.2
						h13.1v8.2H898.6z M906.7,291.7h86.1c0.9,0,1.8,0.5,2.4,1.2h-88.6V291.7z M906.7,288.8v-5.7h79l1.1,5.7H906.7z M906.7,280.4
						v-0.8h73.1h2.9c0.7,0,1.3,0.3,1.9,0.8H906.7z M906.7,276.8v-7.7h68.9l1.1,7.7H906.7z M906.7,266.4v-1.6h60h6.3
						c0.6,0,1.4,0.6,1.9,1.6H906.7z M906.7,262v-6.9h56l0.9,6.9H906.7z M925.3,139.4h30.8v109.1h-2.7l-0.9-7.9c-0.3-2.8-2-5-4-5
						h-7.9l-0.7-9c-0.2-2.7-1.4-5.5-3.4-5.5h-11.2V139.4z M936.2,223.8c0.2,0.2,0.4,0.8,0.6,1.5h-30.2v-1.5H936.2z M869.1,197.3
						c-0.3,0-0.6-0.3-0.6-0.6v-1.6c0-0.3,0.3-0.6,0.6-0.6h47c0.3,0,0.6,0.3,0.6,0.6v1.6c0,0.3-0.3,0.6-0.6,0.6H869.1z M911.7,200.1
						v4.5h-38.6l0-4.5H911.7z M869.1,210.1c-0.3,0-0.6-0.3-0.6-0.6v-1.6c0-0.3,0.3-0.6,0.6-0.6h47c0.3,0,0.6,0.3,0.6,0.6v1.6
						c0,0.3-0.3,0.6-0.6,0.6H869.1z M895.9,212.9v8.2h-7.1v-8.2H895.9z M886.1,212.9v8.2H873l0.1-8.2H886.1z M842.6,99.6L842.6,99.6
						l0.8,1.1l-0.1,0l1.3,1.9l0.1,1.8h0l5.5,116.6h-3.5c-2.1,0-3.2,2.8-3.4,5.5l-0.7,9h-7.9c-0.2,0-0.5,0-0.7,0.1L834,88L842.6,99.6
						z M818.1,105.2L818.1,105.2l0-0.8h0l0-0.5l0.1-2.3h0l0,0l1.3-1.3l1.8-1.9l9.8-10.7l0,13.9h0v2.7h0l0.1,134.1
						c-0.2,0.6-0.4,1.3-0.5,2l-0.9,7.9h-7.4c-2.2,0-4.1,2.2-4.5,5.2l-1.1,8.4h-6.2L818.1,105.2z M876.5,276.8h-70l1.1-7.7h68.9
						V276.8z M876.5,266.4h-68.2c0.5-1,1.2-1.6,1.9-1.6h6.3h60V266.4z M876.5,262h-56.9l0.9-6.9h56V262z M876.5,252.4h-55.4
						c0.4-0.8,1-1.2,1.3-1.2h7.1h47V252.4z M876.5,248.5h-43.9l0.7-6.4h43.2V248.5z M876.5,239.3H834v-0.2c0.3-0.5,0.6-0.9,0.7-0.9
						h7.7h34.1V239.3z M876.5,235.6h-31.1l0.6-7.5h30.5V235.6z M876.5,225.3h-30.2c0.2-0.8,0.5-1.3,0.6-1.5h29.5V225.3z
						 M903.9,302.3h-24.6v-1.1h24.6V302.3z M903.9,298.4h-24.6v-2.8h24.6V298.4z M903.9,292.9h-24.6v-1.2h24.6V292.9z M903.9,288.8
						h-24.6v-1h24.6V288.8z M903.9,285.1h-24.6v-2h24.6V285.1z M903.9,280.4h-24.6v-0.8h24.6V280.4z M903.9,276.8h-24.6V274h24.6
						V276.8z M903.9,271.3h-24.6v-2.2h24.6V271.3z M903.9,266.4h-24.6v-1.6h24.6V266.4z M903.9,262h-24.6v-1.6h24.6V262z
						 M903.9,257.7h-24.6v-2.5h24.6V257.7z M903.9,252.4h-24.6v-1.2h24.6V252.4z M903.9,248.5h-24.6v-1.6h24.6V248.5z M903.9,244.1
						h-24.6v-2h24.6V244.1z M903.9,239.3h-24.6v-1h24.6V239.3z M903.9,235.6h-24.6v-2.8h24.6V235.6z M903.9,230h-24.6v-2h24.6V230z
						 M903.9,225.3h-24.6v-1.5h24.6V225.3z M981.2,302.3h-74.6v-6.7h89.6l1.3,6.7H981.2z M1011.1,302.3h-10.7l-1.6-8.3
						c-0.5-2.8-3.2-5-6-5h-3.2l-1.4-7.5c-0.5-2.6-2.9-4.6-5.5-4.6h-3.3l-1.3-9.3c-0.4-3.1-2.7-5.5-5.1-5.5h-6.7l-1.1-8.4
						c-0.4-3-2.3-5.2-4.5-5.2h-2V136.6v-33.8c0-1.5,1.2-2.7,2.7-2.7h46.8c1.5,0,2.7,1.2,2.7,2.7V302.3z M1100.4,229.5l16.6,22.4
						c-0.7,1-1.5,1.6-2.4,1.8c-1.3,0.3-2.4-0.5-2.4-0.5c0,0-0.1-0.1-0.1-0.1c-1.8-0.9-3.7-0.7-5.4,0.7c-1.1,1-1.7,2.2-1.7,2.2
						c0,0,0,0,0,0c-1,1.5-2.1,2.3-3.3,2.4c-2.4,0.2-4.9-2.4-5.3-2.8c-2.5-4.4-6.8-5-9.9-4.5L1100.4,229.5z M1049.8,208.2l21.3,28.7
						c-0.9,1.3-1.9,2-3,2.2c-1.6,0.3-3-0.6-3-0.6c-0.1,0-0.1-0.1-0.2-0.1c-2.4-1.2-4.8-0.9-6.9,0.9c-1.4,1.2-2.2,2.8-2.2,2.8
						c0,0,0,0,0,0c-1.2,1.9-2.6,3-4.2,3.1c-3.1,0.2-6.2-3-6.8-3.6c-3.2-5.6-8.7-6.4-12.7-5.8L1049.8,208.2z M1054.4,301.6l-40.6-0.5
						v-36.8l5.1-8l11-17.1c0,0,0.1,0,0.1,0c0.3-0.1,8.5-3.1,12.5,3.9c0,0.1,0.1,0.2,0.2,0.2c0.2,0.2,4,4.7,8.6,4.7
						c0.2,0,0.3,0,0.5,0c2.5-0.2,4.6-1.6,6.4-4.5c0.2-0.4,2.2-4.1,5.4-2.6c0.5,0.3,2.5,1.5,5,1c1.6-0.3,3-1.2,4.2-2.7l12.9,17.4
						l33.8,45.6L1054.4,301.6z M1122.2,302.5c0.1-0.7-0.1-1.3-0.5-1.9l-33.8-45.6l-1.3-1.8c2.2-0.4,6-0.4,8.2,3.5
						c0,0.1,0.1,0.1,0.1,0.2c0.1,0.2,3.1,3.6,6.7,3.6c0.1,0,0.3,0,0.4,0c1.9-0.1,3.6-1.3,5-3.5c0.2-0.3,1.7-3.2,4.2-2
						c0.4,0.2,2,1.1,3.9,0.8c1.2-0.2,2.3-0.9,3.3-2.1l10.1,13.6l26.3,35.6L1122.2,302.5z"/>
				</g>
			</g>
			<path class="st1" d="M718.6,249.6v-26.4c1.5-0.6,2.6-2,2.6-3.7c0-2.2-1.8-4-4-4s-4,1.8-4,4c0,1.7,1.1,3.2,2.6,3.7v25.7
				c-42.5-10-88.6-15.8-136.9-16.4V205c1.5-0.6,2.6-2,2.6-3.7c0-2.2-1.8-4-4-4s-4,1.8-4,4c0,1.7,1.1,3.2,2.6,3.7v27.5
				c-1.8,0-3.6,0-5.4,0c-45.6,0-89.5,4.6-130.3,13.2v-21.9c1.5-0.6,2.6-2,2.6-3.7c0-2.2-1.8-4-4-4s-4,1.8-4,4c0,1.7,1.1,3.2,2.6,3.7
				v22.5c-59,12.6-111.4,33.4-153.5,59.9h3.9h1.1h10.3h5.4h0c36.5-20.1,79.5-36.1,126.9-46.8v37.2h2.7v-37.8
				c0.9-0.2,1.8-0.4,2.7-0.6v38.4h2.7v-39c0.9-0.2,1.8-0.4,2.7-0.6v39.5h2.7v-40.1c15.1-3,30.7-5.5,46.5-7.4v47.5h2.7v-47.8
				c0.9-0.1,1.8-0.2,2.7-0.3v48.2h2.7v-48.5c0.9-0.1,1.8-0.2,2.7-0.3v48.7h2.7v-49c21.1-2.1,42.7-3.3,64.8-3.3v52.3h2.7v-52.3
				c0.9,0,1.8,0,2.7,0v52.2h2.7v-52.2c0.9,0,1.8,0,2.7,0v52.2h2.7v-52.1c20.2,0.4,40,1.7,59.3,3.9v48.2h2.7v-47.9
				c0.9,0.1,1.8,0.2,2.7,0.3v47.6h2.7v-47.2c0.9,0.1,1.8,0.2,2.7,0.3v46.9h2.7v-46.5c18.5,2.5,36.5,5.8,53.8,9.7v36.8h2.7v-36.2
				c0.9,0.2,1.8,0.4,2.7,0.6v35.5h2.7v-34.9c0.9,0.2,1.8,0.5,2.7,0.7v34.2h2.7v-33.5c41.4,10.5,79.2,25.2,111.7,43.1h1.6h3.9h10.3
				h0.2h4.7C818.9,281.8,771.6,262.4,718.6,249.6z M717.2,218.2c0.7,0,1.2,0.6,1.2,1.2c0,0.7-0.6,1.2-1.2,1.2s-1.2-0.6-1.2-1.2
				C716,218.8,716.5,218.2,717.2,218.2z M577.6,200.1c0.7,0,1.2,0.6,1.2,1.2c0,0.7-0.6,1.2-1.2,1.2s-1.2-0.6-1.2-1.2
				C576.4,200.6,576.9,200.1,577.6,200.1z M439.3,218.8c0.7,0,1.2,0.6,1.2,1.2c0,0.7-0.6,1.2-1.2,1.2s-1.2-0.6-1.2-1.2
				C438,219.4,438.6,218.8,439.3,218.8z M835,302.3c-69.7-37.7-162.5-60.7-264.1-60.7s-194.4,23-264.1,60.7h-10.8
				c70.5-41.4,167.7-67.1,275-67.1s204.5,25.7,275,67.1H835z"/>
		</g>
		<path class="st0" d="M523.4,301.4L523.4,301.4c-0.8,0-1.4,0.6-1.5,1.4v0.4c0,0.3-0.1,0.7-0.2,1h0c0,0,0,0.1,0,0.1
			c-0.3,1-1.1,1.7-2.1,2c-0.4,0.2-0.9,0.3-1.4,0.3c-0.5,0-0.9-0.1-1.3-0.2c-1.4-0.4-2.4-1.6-2.4-3.1v-0.3c0-0.8-0.7-1.5-1.5-1.5h0
			c-0.8,0-1.5,0.7-1.5,1.5v0.3c0,0.3-0.1,0.7-0.2,1h0.1c-0.2,0.4-0.5,0.8-0.8,1.2c-0.1,0.1-0.3,0.3-0.4,0.4
			c-0.2,0.1-0.3,0.2-0.5,0.3c-0.1,0.1-0.2,0.1-0.3,0.2c-0.5,0.2-1,0.4-1.5,0.4c-0.4,0-0.9-0.1-1.3-0.2c-1.4-0.4-2.5-1.6-2.5-3.2
			v-0.6c-0.1-0.7-0.7-1.2-1.4-1.2h0c-0.8,0-1.4,0.6-1.5,1.4v0.4c0,0.3-0.1,0.7-0.2,1h0.1c0,0.1-0.1,0.1-0.1,0.2
			c-0.4,0.9-1.1,1.6-2,1.9c-0.4,0.2-0.9,0.3-1.4,0.3c-0.5,0-0.9-0.1-1.3-0.3c-1-0.3-1.8-1.1-2.1-2.1c0,0,0,0,0,0h0
			c-0.1-0.3-0.2-0.6-0.2-1v-0.4c-0.1-0.8-0.7-1.3-1.4-1.4h0h0c-0.8,0-1.4,0.6-1.5,1.4v0.3c0,0.3-0.1,0.7-0.2,1h0c0,0,0,0.1-0.1,0.1
			c-0.3,1-1.1,1.7-2.1,2c-0.4,0.2-0.9,0.3-1.4,0.3c-0.5,0-1-0.1-1.4-0.3c-0.9-0.3-1.7-1-2.1-2c0,0-0.1-0.1-0.1-0.1h0
			c-0.1-0.3-0.2-0.6-0.2-1v-0.3c0-0.8-0.7-1.5-1.5-1.5h0h0c-0.8,0-1.5,0.7-1.5,1.5v0.3c0,0.3-0.1,0.7-0.2,1h0c0,0-0.1,0.1-0.1,0.1
			c-0.3,0.9-1.1,1.7-2.1,2c-0.4,0.2-0.9,0.3-1.4,0.3c-0.5,0-1-0.1-1.4-0.3c-0.9-0.3-1.7-1-2.1-2c0,0-0.1-0.1-0.1-0.1h0
			c-0.1-0.3-0.2-0.6-0.2-1v-0.3h0c0,0,0,0,0,0v-0.1c0-0.8-0.6-1.4-1.4-1.4h0c0,0,0,0,0,0v0h0c-0.8,0-1.4,0.6-1.4,1.4
			c0,3.6,2.9,6.5,6.5,6.5c2.1,0,4-1,5.1-2.6c1.2,1.5,3,2.6,5.1,2.6c2.1,0,4-1,5.1-2.6c1.2,1.5,3,2.6,5.1,2.6c2.1,0,4-1,5.1-2.6
			c1.2,1.5,3,2.6,5.1,2.6c2.1,0,4-1,5.1-2.6c1.2,1.5,3,2.6,5.1,2.6c3.6,0,6.5-2.9,6.5-6.5C524.7,302,524.1,301.4,523.4,301.4z"/>
		<path class="st0" d="M600,301.4L600,301.4c-0.8,0-1.4,0.6-1.5,1.4v0.4c0,0.3-0.1,0.7-0.2,1h0c0,0,0,0.1,0,0.1
			c-0.3,1-1.1,1.7-2.1,2c-0.4,0.2-0.9,0.3-1.4,0.3c-0.5,0-0.9-0.1-1.3-0.2c-1.4-0.4-2.4-1.6-2.4-3.1v-0.3c0-0.8-0.7-1.5-1.5-1.5h0
			c-0.8,0-1.5,0.7-1.5,1.5v0.3c0,0.3-0.1,0.7-0.2,1h0.1c-0.2,0.4-0.5,0.8-0.8,1.2c-0.1,0.1-0.3,0.3-0.4,0.4
			c-0.2,0.1-0.3,0.2-0.5,0.3c-0.1,0.1-0.2,0.1-0.3,0.2c-0.5,0.2-1,0.4-1.5,0.4c-0.4,0-0.9-0.1-1.3-0.2c-1.4-0.4-2.5-1.6-2.5-3.2
			v-0.6c-0.1-0.7-0.7-1.2-1.4-1.2h0c-0.8,0-1.4,0.6-1.5,1.4v0.4c0,0.3-0.1,0.7-0.2,1h0.1c0,0.1-0.1,0.1-0.1,0.2
			c-0.4,0.9-1.1,1.6-2,1.9c-0.4,0.2-0.9,0.3-1.4,0.3c-0.5,0-0.9-0.1-1.3-0.3c-1-0.3-1.8-1.1-2.1-2.1c0,0,0,0,0,0h0
			c-0.1-0.3-0.2-0.6-0.2-1v-0.4c-0.1-0.8-0.7-1.3-1.4-1.4h0h0c-0.8,0-1.4,0.6-1.5,1.4v0.3c0,0.3-0.1,0.7-0.2,1h0c0,0,0,0.1-0.1,0.1
			c-0.3,1-1.1,1.7-2.1,2c-0.4,0.2-0.9,0.3-1.4,0.3c-0.5,0-1-0.1-1.4-0.3c-0.9-0.3-1.7-1-2.1-2c0,0-0.1-0.1-0.1-0.1h0
			c-0.1-0.3-0.2-0.6-0.2-1v-0.3c0-0.8-0.7-1.5-1.5-1.5h0h0c-0.8,0-1.5,0.7-1.5,1.5v0.3c0,0.3-0.1,0.7-0.2,1h0c0,0-0.1,0.1-0.1,0.1
			c-0.3,0.9-1.1,1.7-2.1,2c-0.4,0.2-0.9,0.3-1.4,0.3c-0.5,0-1-0.1-1.4-0.3c-0.9-0.3-1.7-1-2.1-2c0,0-0.1-0.1-0.1-0.1h0
			c-0.1-0.3-0.2-0.6-0.2-1v-0.3h0c0,0,0,0,0,0v-0.1c0-0.8-0.6-1.4-1.4-1.4h0c0,0,0,0,0,0v0h0c-0.8,0-1.4,0.6-1.4,1.4
			c0,3.6,2.9,6.5,6.5,6.5c2.1,0,4-1,5.1-2.6c1.2,1.5,3,2.6,5.1,2.6c2.1,0,4-1,5.1-2.6c1.2,1.5,3,2.6,5.1,2.6c2.1,0,4-1,5.1-2.6
			c1.2,1.5,3,2.6,5.1,2.6s4-1,5.1-2.6c1.2,1.5,3,2.6,5.1,2.6c3.6,0,6.5-2.9,6.5-6.5C601.4,302,600.8,301.4,600,301.4z"/>
		<path class="st0" d="M665.8,301.4L665.8,301.4c-0.8,0-1.4,0.6-1.5,1.4v0.4c0,0.3-0.1,0.7-0.2,1h0c0,0,0,0.1,0,0.1
			c-0.3,1-1.1,1.7-2.1,2c-0.4,0.2-0.9,0.3-1.4,0.3c-0.5,0-0.9-0.1-1.3-0.2c-1.4-0.4-2.4-1.6-2.4-3.1v-0.3c0-0.8-0.7-1.5-1.5-1.5h0
			c-0.8,0-1.5,0.7-1.5,1.5v0.3c0,0.3-0.1,0.7-0.2,1h0.1c-0.2,0.4-0.5,0.8-0.8,1.2c-0.1,0.1-0.3,0.3-0.4,0.4
			c-0.2,0.1-0.3,0.2-0.5,0.3c-0.1,0.1-0.2,0.1-0.3,0.2c-0.5,0.2-1,0.4-1.5,0.4c-0.4,0-0.9-0.1-1.3-0.2c-1.4-0.4-2.5-1.6-2.5-3.2
			v-0.6c-0.1-0.7-0.7-1.2-1.4-1.2h0c-0.8,0-1.4,0.6-1.5,1.4v0.4c0,0.3-0.1,0.7-0.2,1h0.1c0,0.1-0.1,0.1-0.1,0.2
			c-0.4,0.9-1.1,1.6-2,1.9c-0.4,0.2-0.9,0.3-1.4,0.3c-0.5,0-0.9-0.1-1.3-0.3c-1-0.3-1.8-1.1-2.1-2.1c0,0,0,0,0,0h0
			c-0.1-0.3-0.2-0.6-0.2-1v-0.4c-0.1-0.8-0.7-1.3-1.4-1.4h0h0c-0.8,0-1.4,0.6-1.5,1.4v0.3c0,0.3-0.1,0.7-0.2,1h0c0,0,0,0.1-0.1,0.1
			c-0.3,1-1.1,1.7-2.1,2c-0.4,0.2-0.9,0.3-1.4,0.3c-0.5,0-1-0.1-1.4-0.3c-0.9-0.3-1.7-1-2.1-2c0,0-0.1-0.1-0.1-0.1h0
			c-0.1-0.3-0.2-0.6-0.2-1v-0.3c0-0.8-0.7-1.5-1.5-1.5h0h0c-0.8,0-1.5,0.7-1.5,1.5v0.3c0,0.1,0,0.1,0,0.2c0.1,1.3,0.7,2.5,1.5,3.4
			c0,0,0,0,0,0c0.1,0.2,0.3,0.3,0.4,0.5c0.2,0.2,0.4,0.4,0.6,0.5v0.1c1.1,0.9,2.5,1.5,4.1,1.5c2.1,0,4-1,5.1-2.6
			c1.2,1.5,3,2.6,5.1,2.6c2.1,0,4-1,5.1-2.6c1.2,1.5,3,2.6,5.1,2.6c2.1,0,4-1,5.1-2.6c1.2,1.5,3,2.6,5.1,2.6c3.6,0,6.5-2.9,6.5-6.5
			C667.1,302,666.5,301.4,665.8,301.4z"/>
	</g>
	<g>
		<path class="st0" d="M356,376.4h24.7v3h-21.2v19.8H379v3h-19.4v24.2H356V376.4z"/>
		<path class="st0" d="M418,408.3c0,13.3-9.1,18.9-17,18.9c-9.2,0-16.3-7.1-16.3-18.3c0-12.2,8-18.9,16.8-18.9
			C411.3,390,418,397.4,418,408.3z M388.3,408.7c0,8.9,5.7,15.6,13,15.6c7.4,0,13.2-6.7,13.2-15.8c0-6.5-3.7-15.5-13-15.5
			C392.4,392.9,388.3,401,388.3,408.7z"/>
		<path class="st0" d="M427,401.5c0-3.6-0.1-7.2-0.3-10.7h3.3l0.1,7.2h0.2c1.6-4.5,5.2-8,10.1-8c0.5,0,1,0.1,1.4,0.2v3.4
			c-0.5-0.1-1-0.1-1.7-0.1c-4.9,0-8.4,4.2-9.3,9.9c-0.2,1-0.3,2.2-0.3,3.4v19.6H427V401.5z"/>
		<path class="st0" d="M449.4,399.3c0-3.3-0.1-5.7-0.3-8.5h3.3l0.3,6.3h0.1c2.3-4.1,5.7-7.1,11.5-7.1c4.9,0,8.7,3.3,10.2,7.8h0.1
			c1-2.1,2.3-3.7,3.6-4.8c2.3-1.9,4.7-3,8.5-3c3.5,0,11.6,2,11.6,15.4v20.9h-3.5v-20.6c0-8-3.1-12.7-9.3-12.7
			c-4.4,0-7.9,3.3-9.3,7.1c-0.3,1-0.6,2.2-0.6,3.5v22.8h-3.5v-22.2c0-6.4-3.1-11.1-8.8-11.1c-4.8,0-8.5,3.9-9.9,8
			c-0.3,1-0.5,2.2-0.5,3.4v21.9h-3.5V399.3z"/>
		<path class="st0" d="M537.4,417.7c0,3.2,0.1,6,0.3,8.7h-3.3l-0.2-6.3H534c-1.8,3.3-5.8,7.1-12.2,7.1c-4.5,0-12.1-2.2-12.1-15.7
			v-20.7h3.5v20c0,7.8,2.4,13.3,9.4,13.3c5.2,0,9-3.6,10.5-7.2c0.4-1.1,0.7-2.5,0.7-3.9v-22.2h3.5V417.7z"/>
		<path class="st0" d="M549.3,373.8h3.5v52.6h-3.5V373.8z"/>
		<path class="st0" d="M584.4,426.4l-0.5-5.1h-0.2c-1.7,2.7-5.7,5.9-11.3,5.9c-7.1,0-10.5-5-10.5-9.8c0-8.2,7.2-13.1,21.7-13v-0.9
			c0-3.5-0.7-10.5-9.1-10.5c-3.1,0-6.4,0.8-8.9,2.6l-1.1-2.6c3.2-2.2,7.2-3.1,10.4-3.1c10.3,0,12.2,7.7,12.2,14.1v13.9
			c0,2.8,0.1,5.7,0.5,8.4H584.4z M583.6,407.4c-7.7-0.2-18,0.9-18,9.5c0,5.1,3.4,7.4,7.1,7.4c5.9,0,9.3-3.7,10.5-7.1
			c0.3-0.8,0.4-1.5,0.4-2.1V407.4z"/>
		<path class="st0" d="M598.6,401.5c0-3.6-0.1-7.2-0.3-10.7h3.3l0.1,7.2h0.2c1.6-4.5,5.2-8,10.1-8c0.5,0,1,0.1,1.4,0.2v3.4
			c-0.5-0.1-1-0.1-1.7-0.1c-4.9,0-8.4,4.2-9.3,9.9c-0.2,1-0.3,2.2-0.3,3.4v19.6h-3.5V401.5z"/>
		<path class="st0" d="M625.6,380.6c0,1.6-1.1,3.1-3,3.1c-1.6,0-2.7-1.4-2.7-3.1c0-1.6,1.2-3.1,2.9-3.1
			C624.4,377.6,625.6,379,625.6,380.6z M621,426.4v-35.6h3.5v35.6H621z"/>
		<path class="st0" d="M666.8,408.3c0,13.3-9.1,18.9-17,18.9c-9.2,0-16.3-7.1-16.3-18.3c0-12.2,8-18.9,16.8-18.9
			C660.1,390,666.8,397.4,666.8,408.3z M637.1,408.7c0,8.9,5.7,15.6,13,15.6c7.4,0,13.2-6.7,13.2-15.8c0-6.5-3.7-15.5-13-15.5
			C641.2,392.9,637.1,401,637.1,408.7z"/>
		<path class="st0" d="M700,426.4l-16.6-49.9h3.7l8.8,26.8c2.4,7.2,4.4,13.6,5.9,19.1h0.2c1.5-5.6,3.8-12.1,6.4-19.1l9.7-26.8h3.7
			l-18.5,49.9H700z"/>
		<path class="st0" d="M731.1,380.6c0,1.6-1.1,3.1-3,3.1c-1.6,0-2.7-1.4-2.7-3.1c0-1.6,1.2-3.1,2.9-3.1
			C730,377.6,731.1,379,731.1,380.6z M726.5,426.4v-35.6h3.5v35.6H726.5z"/>
		<path class="st0" d="M740.5,421.7c1.9,1.2,4.8,2.5,8,2.5c5.6,0,8.3-3.1,8.3-6.8c0-3.9-2.4-6-7.5-8c-5.8-2.3-9-5.4-9-9.7
			c0-5.1,4-9.6,10.9-9.6c3.3,0,6,1,7.9,2.3l-1.4,2.9c-1.2-0.9-3.5-2.1-7-2.1c-4.5,0-6.9,2.9-6.9,6.1c0,3.7,2.5,5.3,7.4,7.3
			c5.7,2.3,9.1,5.1,9.1,10.5c0,6.1-4.7,10.2-12,10.2c-3.4,0-6.7-1-9-2.5L740.5,421.7z"/>
		<path class="st0" d="M789,426.4l-0.5-5.1h-0.2c-1.7,2.7-5.7,5.9-11.3,5.9c-7.1,0-10.5-5-10.5-9.8c0-8.2,7.2-13.1,21.7-13v-0.9
			c0-3.5-0.7-10.5-9.1-10.5c-3.1,0-6.4,0.8-8.9,2.6l-1.1-2.6c3.2-2.2,7.2-3.1,10.4-3.1c10.3,0,12.2,7.7,12.2,14.1v13.9
			c0,2.8,0.1,5.7,0.5,8.4H789z M788.2,407.4c-7.7-0.2-18,0.9-18,9.5c0,5.1,3.4,7.4,7.1,7.4c5.9,0,9.3-3.7,10.5-7.1
			c0.3-0.8,0.4-1.5,0.4-2.1V407.4z"/>
	</g>
</g>
</svg>
