<?xml version="1.0" encoding="utf-8"?>
<!-- Generator: Adobe Illustrator 22.1.0, SVG Export Plug-In . SVG Version: 6.00 Build 0)  -->
<svg version="1.1" id="Capa_1" xmlns="http://www.w3.org/2000/svg" xmlns:xlink="http://www.w3.org/1999/xlink" x="0px" y="0px"
	 viewBox="0 0 531 152.1" style="enable-background:new 0 0 531 152.1;" xml:space="preserve">
<style type="text/css">
	.st0{fill:#FFFFFF;}
</style>
<g>
	<polygon class="st0" points="174.7,149.9 199.8,2.6 240,2.6 214.9,149.9 	"/>
	<path class="st0" d="M360.5,6.2c-8-3-20.4-6.2-36-6.2c-39.7,0-67.6,20-67.9,48.6c-0.2,21.2,20,33,35.2,40
		c15.6,7.2,20.9,11.8,20.8,18.3c-0.1,9.9-12.5,14.4-24,14.4c-16.1,0-24.6-2.2-37.8-7.7l-5.2-2.3l-5.6,33c9.4,4.1,26.7,7.7,44.7,7.9
		c42.2,0,69.6-19.8,69.9-50.3c0.2-16.8-10.5-29.5-33.7-40c-14-6.8-22.6-11.4-22.5-18.3c0-6.1,7.3-12.7,23-12.7
		c13.1-0.2,22.6,2.7,30.1,5.6l3.6,1.7L360.5,6.2"/>
	<path class="st0" d="M463.5,2.7h-31c-9.6,0-16.8,2.6-21,12.2l-59.6,135H394c0,0,6.9-18.2,8.5-22.1c4.6,0,45.6,0.1,51.4,0.1
		c1.2,5.2,4.9,22.1,4.9,22.1H496L463.5,2.7 M414,97.7c3.3-8.5,16-41.2,16-41.2c-0.2,0.4,3.3-8.5,5.3-14.1l2.7,12.7
		c0,0,7.7,35.2,9.3,42.5H414z"/>
	<path class="st0" d="M141.1,2.7l-39.3,100.5l-4.2-20.4L83.5,15C81,5.7,74,2.9,65.3,2.6H0.5L0,5.6C15.8,9.5,29.8,15,42.2,21.8
		l35.7,128l42.5,0l63.2-147L141.1,2.7L141.1,2.7z"/>
</g>
</svg>
